<svg xmlns="http://www.w3.org/2000/svg" viewBox="0 0 1920 19.66" preserveAspectRatio="xMidYMax slice"><path d="M4.92.56c8.8,0,13.2,5,17.3,9.9,4.1,4.7,7.9,9.2,15.6,9.2s11.5-4.5,15.6-9.2c4.2-4.9,8.6-9.9,17.4-9.9s13.1,5,17.2,9.9c4.1,4.7,7.9,9.2,15.6,9.2s11.5-4.5,15.6-9.2c4.2-4.9,8.5-9.9,17.4-9.9s13.2,5,17.1,9.9c4.1,4.7,7.9,9.2,15.6,9.2s11.5-4.5,15.6-9.2c4.2-4.9,8.5-9.9,17.4-9.9s13.2,5,17.4,9.9c4.1,4.7,7.9,9.2,15.6,9.2s11.5-4.5,15.6-9.2c4.2-4.9,8.5-9.9,17.4-9.9s13.2,5,17.4,9.9c4.1,4.7,7.9,9.2,15.6,9.2s11.5-4.5,15.6-9.2c4.2-4.9,8.6-9.9,17.4-9.9s13.1,5,17.2,9.9c4.1,4.7,7.9,9.2,15.6,9.2s11.5-4.5,15.6-9.2c4.2-4.9,8.5-9.9,17.4-9.9s13.2,5,16.8,9.9c4.1,4.7,7.9,9.2,15.6,9.2s11.5-4.5,15.6-9.2c4.2-4.9,8.5-9.9,17.4-9.9s13.2,5,17.4,9.9c4.1,4.7,7.9,9.2,15.6,9.2s11.5-4.5,15.6-9.2c4.2-4.9,8.5-9.9,17.4-9.9s13.2,5,17.4,9.9c4.1,4.7,7.9,9.2,15.6,9.2s11.4-4.4,15.6-9.2,8.5-9.9,17.3-9.9h.2c8.9,0,13.2,5,17.4,9.9,4.1,4.7,7.9,9.2,15.5,9.2s11.4-4.5,15.5-9.2c4.2-4.9,8.5-9.9,17.4-9.9s13.2,5,17.4,9.9c4.1,4.7,7.9,9.2,15.6,9.2s11.5-4.5,15.6-9.2c4.2-4.9,8.5-9.9,17.4-9.9s13.2,5,17.3,9.9c4.1,4.7,7.9,9.2,15.6,9.2s11.5-4.5,15.6-9.2c4.2-4.9,8.5-9.9,17.4-9.9s13.2,5,17.2,9.9c4.1,4.7,7.9,9.2,15.6,9.2s11.5-4.5,15.6-9.2c4.2-4.9,8.5-9.9,17.4-9.9s13.2,5,17.4,9.9c4.1,4.7,7.9,9.2,15.6,9.2s11.5-4.5,15.6-9.2c4.2-4.9,8.5-9.9,17.4-9.9s13.2,5,17.3,9.9c4.1,4.7,7.9,9.2,15.6,9.2s11.5-4.5,15.6-9.2c4.2-4.9,8.6-9.9,17.4-9.9s25.2,19.1,32.9,19.1,11.5-4.5,15.6-9.2c4.19-4.89,8.58-9.88,17.35-9.9h.05a17.35,17.35,0,0,1,5.69.82l.22.07c.17.05.34.12.51.18,4.81,1.73,7.88,5.3,10.83,8.83,4.1,4.7,7.9,9.2,15.6,9.2s11.5-4.5,15.6-9.2c4.2-4.9,8.5-9.9,17.4-9.9s13.2,5,17.3,9.9c4.1,4.7,7.9,9.2,15.6,9.2s11.5-4.5,15.6-9.2c4.2-4.9,8.5-9.9,17.4-9.9s13.2,5,17.3,9.9c4.1,4.7,7.9,9.2,15.6,9.2s11.5-4.5,15.6-9.2c4.2-4.9,8.5-9.9,17.4-9.9s13.2,5,17.3,9.9c4.1,4.7,7.9,9.2,15.6,9.2s11.5-4.5,15.6-9.2c4.2-4.9,8.5-9.9,17.4-9.9s13.2,5,17.3,9.9c4.1,4.7,7.9,9.2,15.6,9.2s11.5-4.5,15.6-9.2c4.2-4.9,8.5-9.9,17.4-9.9.67,0,1.3,0,1.92.09h0l.43.06c.45.05.88.11,1.3.18l.22,0h0c6.31,1.22,10,5.4,13.44,9.52,4.1,4.7,7.9,9.2,15.6,9.2s11.5-4.5,15.6-9.2c4.2-4.9,8.6-9.9,17.4-9.9s13.1,5,17.2,9.9c4.1,4.7,7.9,9.2,15.6,9.2s11.5-4.5,15.6-9.2c4.2-4.9,8.5-9.9,17.4-9.9,4.18,0,12.9,1,17.45,6.72,5.07,6.37,11.47,12.38,15.45,12.38,7.7,0,11.5-4.5,15.6-9.2,4.2-4.9,8.5-9.9,17.4-9.9s13.2,5,17.3,9.9c4.1,4.7,7.9,9.2,15.6,9.2s11.5-4.5,15.6-9.2c4.2-4.9,8.5-9.9,17.4-9.9s13.2,5,17.3,9.9c4.1,4.7,7.9,9.2,15.6,9.2s11.5-4.5,15.6-9.2c4.2-4.9,8.6-9.9,17.4-9.9s13.2,5,17.3,9.9c4.1,4.7,7.9,9.2,15.6,9.2s11.5-4.5,15.6-9.2c4.2-4.9,8.6-9.9,17.4-9.9s13.2,5,17.3,9.9c4.1,4.7,7.9,9.2,15.6,9.2s11.5-4.5,15.6-9.2c4.2-4.9,8.6-9.9,17.4-9.9s13.1,5,17.2,9.9c4.1,4.7,7.9,9.2,15.6,9.2s11.5-4.5,15.6-9.2c4.2-4.9,8.5-9.9,17.4-9.9a19.92,19.92,0,0,1,4.62.51V0H0V1.17A19.15,19.15,0,0,1,4.92.56Z" transform="translate(0)"/></svg>