<svg xmlns="http://www.w3.org/2000/svg" viewBox="0 0 1920 23.5" preserveAspectRatio="xMidYMax slice"><path d="M1920,10.7V0H0V9.5A104,104,0,0,0,13.6.4c18,14.4,41.8,23.1,67.9,23.1S131.4,14.8,149.4.4c18,14.4,41.8,23.1,67.9,23.1S267.2,14.8,285.2.4c18,14.4,41.8,23.1,67.9,23.1,25.2,0,48.2-8.1,66-21.6a109.62,109.62,0,0,0,66,21.6c26.1,0,49.9-8.7,67.9-23.1,18,14.4,41.8,23.1,67.9,23.1S670.8,14.8,688.8.4c18,14.4,41.8,23.1,67.9,23.1S806.6,14.8,824.6.4c18,14.4,41.8,23.1,67.9,23.1,25.2,0,48.2-8.1,66-21.6a109.62,109.62,0,0,0,66,21.6c26.1,0,49.9-8.7,67.9-23.1,18,14.4,41.8,23.1,67.9,23.1s49.9-8.7,67.9-23.1c18,14.4,41.8,23.1,67.9,23.1S1346,14.8,1364,.4c18,14.4,41.8,23.1,67.9,23.1,25.2,0,48.2-8.1,66-21.6a109.62,109.62,0,0,0,66,21.6c26.1,0,49.9-8.7,67.9-23.1,18,14.4,41.8,23.1,67.9,23.1s50.8-8.8,68.8-23.1c18,14.4,41.8,23.1,67.9,23.1s49.9-8.7,67.9-23.1A101.08,101.08,0,0,0,1920,10.7Z"/></svg>