<svg xmlns="http://www.w3.org/2000/svg" viewBox="0 0 1920 9.82" preserveAspectRatio="xMidYMax slice"><path d="M0,.1V5.2H.3A306.66,306.66,0,0,0,56.9,9.8h.2c28.3,0,42.7-2.3,56.6-4.6s28-4.5,56-4.5h3.7a347.74,347.74,0,0,1,39.5,2.6c4.5.6,8.7,1.3,12.8,1.9l2,.3c3.1.6,6.5,1.1,10.1,1.5,11,1.5,24.2,2.7,44.7,2.7H284a318.74,318.74,0,0,0,55.2-4.5C353,3,367.3.7,395.3.7S437.6,3,451.4,5.2c14.2,2.3,28.6,4.6,56.9,4.6h.2c28.3,0,42.7-2.3,56.6-4.6S593.2.7,621.2.7h12.1a14.77,14.77,0,0,1,2.1.1h.1a291.82,291.82,0,0,1,41.7,4.3c13.9,2.3,28.4,4.6,56.6,4.6h.2c28.4,0,42.8-2.3,56.6-4.6S818.7.6,846.7.6,889,2.9,902.8,5.1A317.37,317.37,0,0,0,957,9.8h3.1c28.3,0,42.7-2.3,56.6-4.6S1044.8.7,1072.8.7h1.8a339.45,339.45,0,0,1,45.1,3.1c3.2.5,6.2.9,9.2,1.4,13.9,2.2,28.4,4.6,56.7,4.6h.1c28.4,0,42.8-2.3,56.6-4.6S1270.4.7,1298.4.7s42.3,2.3,56.1,4.5a309.52,309.52,0,0,0,56.8,4.6h.1c28.4,0,42.8-2.3,56.6-4.6s28-4.5,56-4.5h3.7a349.49,349.49,0,0,1,39.6,2.6c4.5.6,8.7,1.3,12.8,1.9l2,.3c3.1.6,6.5,1.1,10.1,1.5,11,1.5,24.2,2.7,44.7,2.7h1.5a318.74,318.74,0,0,0,55.2-4.5C1707.4,3,1721.7.7,1749.7.7S1792,3,1805.8,5.2c14.3,2.3,28.7,4.6,57,4.6h.2c28.3,0,42.7-2.3,56.6-4.6a.6.6,0,0,0,.4-.1V0Z"/></svg>