<svg xmlns="http://www.w3.org/2000/svg" viewBox="0 0 1920 110.1" preserveAspectRatio="xMidYMax slice"><path d="M1625.6,108.6c.1.8.1,1.5,1,1.5.1-.6.8-.6.5-1.5Z"/><path d="M1623.5,104.6c1.1,1.3,2.9,2,5.4,1.9.2-1.1-.8-.8-.6-1.8.3-.6,1.7-1.2,2-2.7-1.2-.3-1.7-1.5-3.3-1.4A10.39,10.39,0,0,0,1623.5,104.6Z"/><path d="M1613.1,102.4c2.5-.6.9,1.4,2.4,1.4-.2-1.2,1.7-.5,1.7-1.5C1616,101.9,1614.3,100.2,1613.1,102.4Z"/><path d="M1599.4,100c0-1.4,1.7-1.3,1.4-3-1.1-2.1-5.2-1.2-6.9-2.8-.7.6.7,1.4-.8,1.2,1.1,3.4,5.1,3.7,6.1,7.2,1.5-.6,3,.4,4.4-.4C1602.9,100.4,1601.2,100.3,1599.4,100Z"/><path d="M1634.3,96.9c-1.1,0-2.2,0-3.2.1.7,1.5-1,2.9.6,3.8,1.1-.8,2.7-1,3.8-1.8C1635.5,97.8,1634.1,98.2,1634.3,96.9Z"/><path d="M1605.3,95.8c.5,2.3,4.3,1.1,3.9,4.3,1.5-.5,2.4.3,3.2-.9-1.2-.7.1-1.7.3-2.7C1611.1,95.3,1608,95.8,1605.3,95.8Z"/><path d="M1715.2,94.6c1-.3,2.3-1.3,1.7-2.1A2.14,2.14,0,0,0,1715.2,94.6Z"/><path d="M1641.5,90.9a4,4,0,0,1-2.9,2.1c.1.9,1.7,1.8,2.1,1.4-.4-.9,1.4-.7,2.7-.6C1643.5,92.1,1642.9,91,1641.5,90.9Z"/><path d="M1630.2,94.9c.6-1.4.1-2.4.8-3.3-1.6.3-1.8-.9-1.3-2-1.6.7-1.8-.3-3.2-.2.1,1.2-.5,1.8-1.7,1.8.2,1.7.8,4.2,3,2.9C1627,95.1,1629.1,95,1630.2,94.9Z"/><path d="M1610.4,88c.5,2.8,1.8,5,1.6,6.8,1.2.8,3.3.2,3.2-1.2,1.5.3,2.9-1.3,2.9-3.3C1616.6,88.2,1612.8,87.4,1610.4,88Z"/><path d="M1524.8,95.2c-.4.4-.5,1.8.3,1.8C1525.5,96.6,1525.6,95.2,1524.8,95.2Z"/><path d="M1591.8,89c-2.5-.6-4.1-1.9-7.2-1.9a8.3,8.3,0,0,0-.6-2.1c-1.3.2-1.7-.5-3-.2,0-.9-.6-1.6-2.1-1.7.6,3.1,5.7,3.1,5.2,6.4.7.5,1.6.8,1.8,1.7-.6.5-.6,1.5-.5,2.6,2.4-.1,4.4,2.2,6.8-.1C1592,91.7,1592.4,90.8,1591.8,89Z"/><path d="M1492,96.2c-.2-.8.6-.6.6-1.2-.9-.1-.9.7-.8,1.5.3.3,1,.3,1.8.3C1493.7,95.3,1492.6,96.1,1492,96.2Z"/><path d="M1500.7,92.5c-.6.7-.6,1.9-.8,3,2,1.2,2.8-.3,3.5-1.9C1502.6,93.2,1502.4,92.1,1500.7,92.5Z"/><path d="M1638.8,90.3c-.7-.3-1-1-2.1-.8-.1,1-.8,1-.2,2.1,1.3-.3,1.5.5,2.4.6A12.1,12.1,0,0,0,1638.8,90.3Z"/><path d="M1602,92.9c2.1-.7,5.3.7,4-2.8-1.8-.9-3.6-2.3-5.4-2.2.1-.5.7-.3.6-.9-1.3-2.5-8.2-3-9.2.2,1.6.8,4.5.8,6.6.5-.1,1.4,1.1,1.4,2.1,1.7C1599.3,90.7,1601.1,92.1,1602,92.9Z"/><path d="M1507,93.2a6.08,6.08,0,0,1-.9,1.8C1507.6,95,1508.4,93.6,1507,93.2Z"/><path d="M1575,88.2c.1,1.6-1.9,1.2-1.1,3.3,1.6,1.1,4.1,2.1,5.3-.1C1578.3,89.7,1577.3,88.2,1575,88.2Z"/><path d="M1559.4,92.1c.8.7,1.7-.4,2.7.2a2.83,2.83,0,0,0-.4-1.8C1560.4,90.6,1559.2,90.6,1559.4,92.1Z"/><path d="M1549.7,86.9c-.6,1.1-1.9,1.5-3.3,1.9.6,1,1.5,1.5,1.9,2.6C1551.8,93.3,1553.3,87,1549.7,86.9Z"/><path d="M1563.1,88.1c-.6,0-.3.8-1.1.6-.2.9.5.9.3,1.7,1.3-.1,3.1.1,3.2-1.2C1565.1,88.5,1563.9,88.5,1563.1,88.1Z"/><path d="M1658.8,86.9c.5.1.2.7,0,.9.5-.2,1.6.3,1.5-.3C1660.1,87.3,1659.4,86,1658.8,86.9Z"/><path d="M1633.5,87.8c.1-.9-.6-.9-1.5-.8C1631.8,87.8,1632.7,87.9,1633.5,87.8Z"/><path d="M1618.7,85.4c.1,2.4,4.8,3.1,6,1.6C1623.9,84.9,1620.6,84.8,1618.7,85.4Z"/><path d="M1413.2,90.8c0,.2-.7,1.5-.3.3-.7,0-.9.6-1.8.3.3,1.4,1.1.9,2.4.8C1413.1,91.4,1414.4,90.7,1413.2,90.8Z"/><path d="M1501.1,83.3c-.8-.8.5-1.2.3-2.4a13.83,13.83,0,0,0-2.7-1.4c-.9,1-1.2,2.6-2.3,3.3-2.2-.6-4.6.1-5.6,1.6,1.7.8,1.4,2,1.6,4.4,4.9,3.4,8.9-4,14.1-1.2a2.11,2.11,0,0,0,2-2.2,2,2,0,0,0-.6-1.4A13.16,13.16,0,0,1,1501.1,83.3Z"/><path d="M1611,85c-1.5-1.1-2.6-.9-4.5-1.4-1,.4-1.4,1.4-1.1,3C1607.3,87.3,1610.5,86.8,1611,85Z"/><path d="M1566.6,85.4a3.09,3.09,0,0,0,1.5,2.3c.9-1,2-.9,2.6-1.5C1569.9,85.2,1568,84,1566.6,85.4Z"/><path d="M1575.5,85.8c-.5,1.6,1.4,1.8,2.1,1.1a2,2,0,0,0-.3-1.5C1576.5,85.5,1576.4,86,1575.5,85.8Z"/><path d="M1553.8,84.5c.5,2.9,3.7,3.7,4.7.8a16.15,16.15,0,0,1-3.5-1.7C1554.4,83.7,1554.7,84.7,1553.8,84.5Z"/><path d="M1526.6,84.8c-1.4-1.3-1.9.4-3.6.4-.2,2.2,1.5,2.4,3.3,2.6C1527.2,86.3,1526.1,86.3,1526.6,84.8Z"/><path d="M1627.7,79.3c-2.1.8-3.9,1.1-4.4,3.9,2.4.1,2.7,2.4,6,1.7-1.1-1.9,1.6-1.8,1.7-3.6C1629.6,80.9,1629.1,79.7,1627.7,79.3Z"/><path d="M1899.4,78.7c.9,0,1.5-.1,1.7-.6C1900.4,77.4,1899.8,78.3,1899.4,78.7Z"/><path d="M1637.5,83.3a6.59,6.59,0,0,0,2.4,1.1c-.6-1.8,2.6-1.5,3.2-3a1.14,1.14,0,0,1-.6-1.2,13.45,13.45,0,0,1-3.5-.5A11.45,11.45,0,0,1,1637.5,83.3Z"/><path d="M1661.7,83c1.1,0,2.4.1,2.7-.6C1663.2,81.6,1662.4,82,1661.7,83Z"/><path d="M1703.6,78.3c-.1,1.3-1.4,1.4-1.7,2.4.1.5,1.1.2.9,1.2,1.2,0,2.3-.2,2.6-1C1704.6,80.3,1705.2,78.1,1703.6,78.3Z"/><path d="M1618,81.3c.2-1.6-2.2-.5-1.5-2.6-1.6-.2-3.9-1.6-5.3-.2.1,2.1.8,2.7.4,4.7C1614.8,83.7,1615.3,81.4,1618,81.3Z"/><path d="M1594,79.5c-3-3.3-7.2-.5-10,1.4C1586.5,83.8,1593.5,85.2,1594,79.5Z"/><path d="M1581.6,80.1c-1.1-2.5-5.3-3.6-7.8-1.9C1572.4,85.6,1579.6,84.6,1581.6,80.1Z"/><path d="M1606.4,81.6a4.63,4.63,0,0,0-3.3-3.2c-1.5,1.3-1.4,2.6-.8,4.7C1603.8,82,1605.3,82.8,1606.4,81.6Z"/><path d="M1514.2,84.8c.9.5,3.2.5,2.7-1.3C1515.7,83.1,1513.9,83.2,1514.2,84.8Z"/><path d="M1716.3,78.3a1,1,0,0,0,.1,1.5h0a2.19,2.19,0,0,0,.5.3,1.09,1.09,0,0,0,0-1.5h0A.86.86,0,0,0,1716.3,78.3Z"/><path d="M1509.1,82.8c-.2,1.5,1.1,1.7,2,1.1.3-.3.1-1.6-.3-2C1510.6,82.5,1509.6,82.4,1509.1,82.8Z"/><path d="M1567.6,77.4c-2.4-.7-4-1.9-6.5-.4a21.63,21.63,0,0,1-.2,4.4C1563.8,84,1568.1,81.4,1567.6,77.4Z"/><path d="M1847.2,72.5c-.4,4,4.3,3.3,3.8-.1A3.7,3.7,0,0,0,1847.2,72.5Z"/><path d="M1546.5,73.1c0-1.3.8-2,1.1-3.6-1.8-.2-1.6,1.6-2.6,2.1a5,5,0,0,0-2.7.1,5,5,0,0,0-.8,2.7,10.83,10.83,0,0,1,5.7,3.4c.7.9.4,2,1.2,2.6.3.3,1.1-.2,1.5,0,.2.1,0,.8.3.9a3.4,3.4,0,0,0,3.5-1.3C1552.8,76.2,1551.2,73,1546.5,73.1Z"/><path d="M1776.1,71.4c1,.2.9-.5,1.5-.6.5-3.2-3.9-3.4-5.4-1.9-1,2.1,1.5,2.6.7,4.4.8,1,2.7,1,2.8,2.9,1.1.1,1.3-.8,2-1.2C1776.7,74.2,1777.2,72,1776.1,71.4Z"/><path d="M1408,78.3c-.7-2-3.2-2.1-5.4-2.6-.5,1.9,1.3,1.5,2.7,1.4,1.6,2.8,3.8,8.4,7.8,5.8a10.27,10.27,0,0,1,.5-2.4c1.8-.1,3.2-.5,3.2-2.2C1414,77.2,1412,78.3,1408,78.3Z"/><path d="M1700.6,75.1c-1.4-.3-1.6.5-1.4,1.8.3.3,1.9.6,2.1,0A1.62,1.62,0,0,1,1700.6,75.1Z"/><path d="M1657.7,76.3c.1,1.6,1.9,1.5,3.3,1.7C1661,76.3,1659.3,76.4,1657.7,76.3Z"/><path d="M1622.9,78.6c.4-1.5,1.7-2,1.4-4.2-2.6-1-4.7-.7-7.4-.4-.2,1.7,2.3,1.5,1.2,3.2A29,29,0,0,0,1622.9,78.6Z"/><path d="M1440.2,78.7c-.9-2.7-5.6-1.1-5.6,1.3.6,2,3.7,3.3,4.8.8.8-.4-1-.6-.6-1.5C1439.1,79,1439.8,79,1440.2,78.7Z"/><path d="M1674,73.9c-.5.2.1,1.4-.9,1.2.2.5.2,1.2.6,1.5.5-.9,1.7-.4,2.7-.4C1676.2,74.7,1675.2,74.2,1674,73.9Z"/><path d="M1612.2,75.5c-1.2-1.2-2.9-2.7-5.1-1.9,0,1.1-1,1.4-.8,2.7a31.81,31.81,0,0,0,5.1,1.3C1610.4,76.2,1611.9,76.5,1612.2,75.5Z"/><path d="M1476.8,79.1c.4.8-.9,1.6.3,1.4.9-.6,2.8-.4,2.7-2.1C1478.8,77.7,1478,79.1,1476.8,79.1Z"/><path d="M1592.7,74.5c.5,3,4,2.6,6.9,3.1a8.68,8.68,0,0,1,2.6-3.9C1599.3,73.5,1594.5,71.6,1592.7,74.5Z"/><path d="M1572.9,76.7a1.35,1.35,0,0,0-1.5.9c.7.2,1.9,1.1,2.1,0A.78.78,0,0,1,1572.9,76.7Z"/><path d="M1538.5,76c-.2-.1-.5,0-.5-.3a3.63,3.63,0,0,0-2.7,2.1c.8,1.2,2.3.2,3.6,1.1C1538.8,77.9,1539.1,76.5,1538.5,76Z"/><path d="M1512.3,66.5c-.7.2-1.1.9-1.7,1.2-.1-.6-.1-1.3-.9-1.2-1.4,2.5-7.2,1.8-10,1.7,0-1.2,1.5-1,1.1-2.6-2.7-.8-4.9-1.4-4.9,2.2.7.3,1.6.5,2,1.1a4.07,4.07,0,0,0-.5,1.8c1.4,1,3,3.1,4.8,2.8-.3,3.1-3,2.4-5.5,2.8-1.1-2.5-4.4-.3-5.3.7-1.8-.9-2.9,1-4.8,1v1.2c1.5,1.9,4.6.2,4.7-1.8.8,1.3,2.6.9,4.7,1.4a1,1,0,0,0,.7,1.2,1.19,1.19,0,0,0,1.1-.4c.3-1.1,3.2,0,4.4-.1,0-1.7,1.8-1.7,2.3-3-.8-.3-1.9-.3-1.5-1.7a2.69,2.69,0,0,1,2.4,1.4c1.9-.2,3.5-.8,4.1-2.2.1-1.6-1.6-1.2-1.9-2.3.5-.6.4-1.6,1.2-1.8-.2,1.4,1,1.2,1.8,1.4,0-1.6.8-2.5,2.9-2.1C1514.1,68,1513.6,66.6,1512.3,66.5Z"/><path d="M1492.8,78.5c-.9.1-2.1,1.2-.9,1.5C1492.2,79.5,1492.9,79.3,1492.8,78.5Z"/><path d="M1400.8,76.6c-2.2-.1-1.8,2.2-3.2,3.6,1.4,3.5,6.4,1.1,5.6-1.6C1403,78.1,1402.1,76.6,1400.8,76.6Z"/><path d="M1528.5,75.9c-.9,1-.6,2.9.9,2.9.3-.4.3-1.1.9-1.2.5.3.4,1.2,1.5.8.3-1.4.6-1.6.2-3.2C1530.3,75.4,1530.4,76.5,1528.5,75.9Z"/><path d="M1809.1,70.9c-.7.2-1.3.4-1.5,1.2.6-.1.7.3,1.2.3C1808.5,71.6,1809.2,71.6,1809.1,70.9Z"/><path d="M1584,70.8c-3,.3-3,3.6-2.5,5.7,2.1-.2,4.1,1.3,5.9.4C1587.8,74.5,1585.7,72.2,1584,70.8Z"/><path d="M1450.8,79.4c.7,1.8,4.6.6,2.9-1.5C1452.2,77.8,1451.2,78.3,1450.8,79.4Z"/><path d="M1523.8,76.3a2.07,2.07,0,0,0,2.9.9,2.2,2.2,0,0,0,1.2-1.6,3.38,3.38,0,0,0-.6-1.2C1526.1,75,1524.1,74.9,1523.8,76.3Z"/><path d="M1577,74c-.7.2-1.1.7-.8,1.8.7.1,1.5.5,2,0Q1578.2,74.15,1577,74Z"/><path d="M1715.8,68a13.5,13.5,0,0,1-2.6,1.5,6.47,6.47,0,0,1,.1,2.4c2.5,1.4,2.5-1.5,4.1-1.8C1717.1,69.1,1716.7,68.2,1715.8,68Z"/><path d="M1689.5,70a2.62,2.62,0,0,1-.2,1.5c1.8,1.7,5.2,0,3.2-1.9C1691.3,69.6,1690.9,70.2,1689.5,70Z"/><path d="M1808.9,65.9c-.4,1-.5,2.7.4,3.3h.9a12.22,12.22,0,0,1,.2-3.3Z"/><path d="M1726.2,68.3v1.8c1,.1,1.3,1,2.6.9,0-.9.8-1,.6-2.1A5.92,5.92,0,0,0,1726.2,68.3Z"/><path d="M1704.1,71.2c-.5-.9-.3-2.5-1.3-2.9-1.1.4-1.3,1.8-1.7,3A3.89,3.89,0,0,0,1704.1,71.2Z"/><path d="M1514.3,75.6h1.8C1516.4,74.3,1513.9,74.4,1514.3,75.6Z"/><path d="M1680.1,69.3c.3,1.1-.9,2.1.3,2.4l1.2-1.8C1680.4,70.3,1681,69.1,1680.1,69.3Z"/><path d="M1665.3,68.8c.6,1.7-1,1.4-.8,2.7,1.4.8,4.1.6,4.4-1.6a2.65,2.65,0,0,0-3.6-1.1Z"/><path d="M1632.2,69.2q-.75,0-.6-.9c-2.4-1.1-7.1-1.3-8.3,1.1C1624.1,74.1,1631.3,73.2,1632.2,69.2Z"/><path d="M1518.7,72.3c-.9.6-1.7,1.1-1.8,2.4.3.1.3.3.3.6a8.78,8.78,0,0,0,3.5-1C1519.7,74,1519.8,72.4,1518.7,72.3Z"/><path d="M1652,71.1c1.4.4,4.4,1.7,4.4-.7C1655.6,70.3,1652.8,69.8,1652,71.1Z"/><path d="M1639.6,70.5a16.15,16.15,0,0,1,3.5,1.7,2,2,0,0,0-1.5-2.4A2.11,2.11,0,0,0,1639.6,70.5Z"/><path d="M1618.9,71.2a7,7,0,0,0-1.3-3.2,9.68,9.68,0,0,0-3.8.4c.1,1.2-1,1.1-.8,2.4C1614.2,72,1618,73.1,1618.9,71.2Z"/><path d="M1592.3,71.8a5.7,5.7,0,0,1,2.3-3c-1.5-1.6-5.2-2.2-6.8-.5.3,1-1.8,2.1-1.7,3.9C1588.2,73.7,1589.6,71.4,1592.3,71.8Z"/><path d="M1593,63.6a5.67,5.67,0,0,0,.1,2.9c1,.5,1.9.1,3-.1a9,9,0,0,1,1.2,2.4c.8,0,1.7-.2,2.1.2,0,.9.7,1.4,0,2.1,1.4,1,4.7,1.7,6.5.4-.2-1.3-1-2-1.3-3.2-2.1.1-2.5-1.4-2.7-3.2-.4-.4-1.4-.1-1.8-.5-.3-1,0-1.2-.7-2.1C1597.5,63,1594.6,62.6,1593,63.6Z"/><path d="M1580,72.4c1.1-1.3,1.5-3.9-.1-5-3.6-.4-4.5,1.7-5.9,3.4C1575.6,72,1577,73.2,1580,72.4Z"/><path d="M1782.2,62.7c-1.8,0-3.4.2-4.1,1.3-.6,4.5,6.7,5.8,6.5,1.6C1784.5,64.3,1783.1,63.8,1782.2,62.7Z"/><path d="M1516.9,73.5c.1-.9-.6-.9-1.5-.8C1515.4,73.5,1516.3,74.1,1516.9,73.5Z"/><path d="M1512.4,71.2c-1.1-.2-1.4.4-2.4.4a19.27,19.27,0,0,0,.1,2.4c1.8.1,2.3-.9,3.3-1.6C1512.8,72.3,1512.7,71.6,1512.4,71.2Z"/><path d="M1777.2,62.2c.2-1.4-1.5-2.4-1.8-4.1-4.2,0-4.8,3.5-8.5,4.6-.8,1.6-.7,4.8,1.6,4.7C1770.1,64.5,1776.7,65.7,1777.2,62.2Z"/><path d="M1700.8,68.3c-.4-1.7-.4-2.7-.7-4.7-1.2,0-1.7.6-2.7.1.5,1.1-1.3.1-.8,1.2,1.5.1,3.3,1.5,2.1,2.6C1700.1,66.9,1699.8,67.7,1700.8,68.3Z"/><path d="M1724.3,65.4c.1.9-.7.9-.6,1.8C1725.8,67.7,1726,65.3,1724.3,65.4Z"/><path d="M1463.6,69a4.08,4.08,0,0,0-2.7,1.3c0,1.4,1.3,1.7,1.8,2.6a8.68,8.68,0,0,0,4.2-.7C1466.9,69.4,1463.9,71.5,1463.6,69Z"/><path d="M1859.2,64c1.2-.2,2.1-1,1.4-2.1C1859.6,62.1,1859,62.6,1859.2,64Z"/><path d="M1631.3,67.2c2.3,2,6.4,2.1,7-1.3-.5-3-4.8-2.6-7.1-1.4C1631,65.9,1631.6,66.3,1631.3,67.2Z"/><path d="M1544,66.7c-.9.3-.8-.4-1.5-.3-.3,1-1.1,1.5-2.7,1.2,0-.7-.5-.8-.3-1.7-1.1.2-1.9.7-2.9.9.5,2.1,3.5,3.2,5.4,2.8C1543.3,72.9,1545.8,68.4,1544,66.7Z"/><path d="M1722.2,62.8c-2-.2-2.5,1.1-4.1,1.3a1.88,1.88,0,0,1-.6,2.4c3.1.9,4.8-1.2,6.2-2.2A1.7,1.7,0,0,1,1722.2,62.8Z"/><path d="M1523,69.8c.2,1.8,2.9,1,3-.4C1524.7,69.8,1524.2,69.2,1523,69.8Z"/><path d="M1708.6,63.4c-.2.8-1.1,2.8.1,3.2a3,3,0,0,1,2.1-1.2,2.62,2.62,0,0,1,.2-1.5C1710.1,63.9,1709.9,63,1708.6,63.4Z"/><path d="M1471.6,70.9c3,.3,5.4,1.4,7.7-.5,0-1-.2-2.1.6-2.4C1476.5,67.2,1473,68.1,1471.6,70.9Z"/><path d="M1438.8,71.6c-.1-2.2-2.7-1.8-4.5-2.3-.5.5-.2,1.7-.2,2.7C1436,73.1,1437.1,71.6,1438.8,71.6Z"/><path d="M1450.9,68.1c1.2,1.6-1.2,2.1-1.4,3.3,1.7.9,2.6,0,4.4-.4-.4-1.1.2-1.5.5-3.2A13.43,13.43,0,0,0,1450.9,68.1Z"/><path d="M1761.3,64.9c1,.2,1.1-.5,2.1-.3.2-2,2-3,.4-4.5C1761.1,59.9,1762.4,63.6,1761.3,64.9Z"/><path d="M1615.2,64c-.1.2,0,.6-.3.6,2.1,1.9,10.9,4.8,10-.5a17.57,17.57,0,0,0-5,1.3C1618.3,64.3,1617.4,64.2,1615.2,64Z"/><path d="M1422.5,69.9c.7,2.2,2.7,1.5,4.7.8C1426.9,68,1423.1,68.9,1422.5,69.9Z"/><path d="M1399.5,71.9c1.1-.3,1.6.5,2,0,.2-1.5-1.5-2.7-2.4-1.4C1400.1,70.8,1398.8,71.6,1399.5,71.9Z"/><path d="M1532.7,65.2c-2.7-.9-5,.8-7.9.5a1.88,1.88,0,0,0,2,1.7,1.61,1.61,0,0,0,.9-.3c.8,2.2,3.3,2.1,5.4,1.7C1533.2,66.8,1532.2,66.6,1532.7,65.2Z"/><path d="M1411,67.8c.9,2.8,2.7,3.9,5.6,2.5-.1-1.7.6-2.3.2-3.8A16.34,16.34,0,0,1,1411,67.8Z"/><path d="M1787.9,55.4c-2.3.2-3.8.7-5.6.7.2,1.8.6,5.5,2.2,6.8,3.5.2,5.8-.9,6.2-3.7C1789.7,58,1788.3,57.3,1787.9,55.4Z"/><path d="M1796.9,57.9c-.3.8-1.3,1.2-1.2,2.1.4,3.6,4.4,2.7,4.4-.4,0-2.2-1.7-2.6-2.7-4.7C1796.1,55.6,1797.2,56.7,1796.9,57.9Z"/><path d="M1607.8,66.1c1.4,0,2.8-.1,4.2-.1-.5-1.3.7-1.1.6-2.3-2.4-2.5-5.3-.5-6.3.4C1606.6,65,1607.5,65.3,1607.8,66.1Z"/><path d="M1581.8,62.6c-2.4,3.8,3.9,5.4,5.1,2.6C1586,62.9,1583.7,61.5,1581.8,62.6Z"/><path d="M1852.3,59.1c.3.9,1.8.6,2.4,1.1a19.27,19.27,0,0,0-.1-2.4C1853.4,57.8,1852.3,57.9,1852.3,59.1Z"/><path d="M1511,59.7c-2.9.2-7.1-1.4-8.9,1.7a5.85,5.85,0,0,0,1.7,1c-.1.1-.1.2-.2.3a3.55,3.55,0,0,0,1,.2,2.59,2.59,0,0,1,1.1,1.4,1.83,1.83,0,0,0-.3,2.1,2.89,2.89,0,0,0,1.8.3c-.7-1.6.6-2.9.8-4.5C1510.2,62.2,1511.2,61.2,1511,59.7Z"/><path d="M1716.1,57c-1.9.3-4.7.1-6.5.4,1.1,1.2,2.5,2,2.5,4.4,2.5-.1,3.9-1.3,5.3-2.5C1717.5,58,1716,58.3,1716.1,57Z"/><path d="M1703.8,61.1c.2-1.9.3-4-.7-5.3-2-.1-2.9.8-4.7,1C1697.3,60.2,1701,62.6,1703.8,61.1Z"/><path d="M1645.8,57.4a6.43,6.43,0,0,0-8.7,3.1h0a6,6,0,0,0-.6,1.9c2.9,1.7,7,.4,7.9-2.3.3,0,.9,0,.9-.3C1644.1,58.8,1646,58.3,1645.8,57.4Z"/><path d="M1692.3,60.5c-.1-1.9-2.1-2.8-3.9-2,0,1,0,2,.1,3A4.73,4.73,0,0,0,1692.3,60.5Z"/><path d="M1676.5,58.2c-1.2,3.4,4,5.5,3.9.8C1678.3,59.5,1678.5,57.8,1676.5,58.2Z"/><path d="M1663.9,61.7c2,.4,2.2-.3,4.1-.4.1-.2,0-.6.3-.6-1.1-2.5-3.1-.4-4.4.1C1664.4,60.9,1663.8,61.2,1663.9,61.7Z"/><path d="M1625.8,62.9c2.9.3,3.7-1.2,5.6-1.9,0-1.4-1.8-.9-1.8-2.3a5.61,5.61,0,0,0-4.7,1.9C1625.5,61,1625,62.6,1625.8,62.9Z"/><path d="M1612.5,61.7c2.4.5,3.8,1.8,6.5.7-.2-1.6.3-2.1-.1-3.3-1.2-.5-2.1-1.5-3.3-2C1614,58.1,1612,59.6,1612.5,61.7Z"/><path d="M1728,58.5c-.9-.2-3.2-.4-3.3.9C1725.5,60.8,1728.3,60.5,1728,58.5Z"/><path d="M1655.6,58.3c-2.3-.1-.9,2.2-2.6,3C1654.8,62.9,1657.3,60.1,1655.6,58.3Z"/><path d="M1518.5,64c.5.4.7,1,1.8.9a4.27,4.27,0,0,0,1.1-2.1C1519.8,62.6,1518.8,63,1518.5,64Z"/><path d="M1480,65.1c1.2,1,3.8.3,3.8-1.6C1482.7,62,1479.9,62.9,1480,65.1Z"/><path d="M1518.2,63.7c-.8-1.8-2.1-1.7-4.5-1.4v1.5C1515.3,64,1517.2,65.4,1518.2,63.7Z"/><path d="M1600.1,60.4l.9,1.5c2.4-.1,4.8,1.3,5.3-1.3C1605.8,57.3,1601,57.5,1600.1,60.4Z"/><path d="M1446.3,63.2c-1.3.1-1.3.4-1.8-.5a7.84,7.84,0,0,1-2.1.9c0,1,.8,1.2,1.2,1.8.9-1,2.3-.1,3.2-.7C1447.1,63.8,1445.9,64.3,1446.3,63.2Z"/><path d="M1575.3,61c2.4,0,6.6,2.4,7-1.3C1582.9,54.6,1573.5,53.6,1575.3,61Z"/><path d="M1416.2,64.5c.2.8,2.1.7,2.6.2C1418.5,62.6,1417.2,63.7,1416.2,64.5Z"/><path d="M1425.1,50.7c1.1-.2,1.4.3,2.4.3,3.6-1.2.3-4.4-.7-5.9-4.4.1-5.1,3-7.8,5.2-.6-.1-.6-.8-1.5-.6-1.2,1-1.8,2.6-3.2,3.3a20,20,0,0,0,1,2.6c1.4.3,1.2-.9,2.3-1,.3,2.7,4.5,2.2,2.7,5.3.6,1.6,2.6,1.7,2.2,4.4,4.2-.3,5.4-3.5,7.3-6.1C1425.7,56.9,1427,52.8,1425.1,50.7Z"/><path d="M1719.1,57c.6-1.1,1.6-1.8,1.7-3.3C1719,53.4,1718.9,56.3,1719.1,57Z"/><path d="M1471.7,61.5c2.2,1.4,6.4-.2,8.6-1.7V57.7c1.1-.9,3.1-1.1,2.9-3.3a9.47,9.47,0,0,0-7.7,2.4l-.1.1c.2-.2.3-.3.3-.5-.3-.5-2.1-1-2.7-.2.6.2,1.7,1.2,2.3.8A22.24,22.24,0,0,0,1471.7,61.5Z"/><path d="M1788.8,54.9a1.61,1.61,0,0,0-.3-.9,1.35,1.35,0,0,0-1.5.9A1.5,1.5,0,0,0,1788.8,54.9Z"/><path d="M1449,51c-4-3.5-7.4-.2-10.3,2.6,1.6,4.1-5.1,1.8-5.2,5.1,1.8,6.9,9.2,1.8,9.6-3.2C1445.5,54.4,1448.2,53.6,1449,51Z"/><path d="M1523.7,59.1c-.5.7,0,.4,0,1.2h.5c0-.8.5-.6,0-1.2Z"/><path d="M1498.5,57.6a2,2,0,0,0-.3,1.5c1.3.1,1.2,1.6,2.7,1.4,0-2.7,3-2.7,4.3-4.2a45.2,45.2,0,0,0,5.2-.2,1.55,1.55,0,0,0,1.6.8c.2-.4.6-.7.8-1.1a15,15,0,0,0,4.2-1.5c-.4-.7-1.7-1.6-.3-2.4-1.2-.5-2.4-1.1-3.6-1.7a14.26,14.26,0,0,0-2.7.9c-2.6.1-3.7-1.2-5.6-.8s-2.3,3.1-4.4,3.9c-1.3.6-2.2-.6-3.5.7a2,2,0,0,1-.3,1.5A6.15,6.15,0,0,1,1498.5,57.6Z"/><path d="M1409.4,62.3c2.8-1.5,7-1.7,8.7-4.3.2-.9-.9-.7-.6-1.8-3.4.1-4.8.9-8,.2C1408.3,57.8,1407.5,60.8,1409.4,62.3Z"/><path d="M1711.3,53c-1.6,0-2.5.5-2.9,1.5a2.53,2.53,0,0,0,2.7.9C1710.8,54.3,1711.4,54,1711.3,53Z"/><path d="M1514.8,57.3c-1.4-1.3-3,.8-3.8,1.8C1512.8,60.7,1513.7,58.2,1514.8,57.3Z"/><path d="M1784.5,47c-1.4,1.1-1.5,4.8-.2,6.2,4.4,1.5,5-3.8,3.2-6C1786.3,47.3,1785.8,46.7,1784.5,47Z"/><path d="M1660.8,54.4a4.1,4.1,0,0,0-2.7,1.5C1659.3,56.7,1661.2,56,1660.8,54.4Z"/><path d="M1491.7,55.7c-.9.1-1-.8-2.1-.5-1.2,1.6-3.7,2.1-4.6,3.9C1487.1,60.9,1491,58.6,1491.7,55.7Z"/><path d="M1465.7,57.5c-1.6-.5-4.4.8-3.2,3A4.59,4.59,0,0,0,1465.7,57.5Z"/><path d="M1609.7,52.8a2.6,2.6,0,0,0,1.4,3.5,2.8,2.8,0,0,0,2.2,0C1613.3,53.8,1611.9,52.8,1609.7,52.8Z"/><path d="M1398.9,58.9c-1.1.1-.6,1.8-2.3,1.3C1396.4,62.4,1400.3,60.4,1398.9,58.9Z"/><path d="M1757.4,53.2c.9,0,1-.8,1.2-1.5C1757.5,51.5,1757.5,52.3,1757.4,53.2Z"/><path d="M1697.7,53.9c.3-.6.3-1.7.8-2.1-.5.1-.6-.3-1.2-.3a3.45,3.45,0,0,0-1.2,2.1C1697.1,53.3,1697.1,54,1697.7,53.9Z"/><path d="M1681.1,48.3a8.67,8.67,0,0,0-2.7-1.4c-2.5,1-3.7,4.3-2.2,7.4C1679.3,53.7,1680.1,51,1681.1,48.3Z"/><path d="M1532.2,56.6V55.4c-1.3,1.3-5-.9-5,1.9C1529.2,58.2,1530.4,56,1532.2,56.6Z"/><path d="M1749.3,47.8c-1.8.5-1.4,2.9-.5,4.4,1.3-.1,1.9-1,2.3-2.1A13,13,0,0,1,1749.3,47.8Z"/><path d="M1761.5,46.9c-1.1.4-1.2,1.9-1.1,3.6,1.8-.4,1.7,1.2,3.3,1.1C1763.6,50.1,1763.5,47.1,1761.5,46.9Z"/><path d="M1638.9,51.9c1.3,2.1,4,2.9,5.7.8-.2-2.9-.3-5.8-2.5-6.5C1640.4,47.5,1639.6,49.7,1638.9,51.9Z"/><path d="M1573.7,54.5c-.7-.6-2.5-.9-2.7.4,1.1-.1,1.1.9,2.1.8C1573.2,55.3,1573.6,55,1573.7,54.5Z"/><path d="M1560.9,56c1.3-.2,2.5-.5,2.7-1.8C1562,54.1,1561,54.5,1560.9,56Z"/><path d="M1734.2,46a1.85,1.85,0,0,0-1.3,2.3.76.76,0,0,0,.2.4c1.7-.5,1.6.7,1.5,2,.4.6.7-.4.9.3-.2,0-.3,0-.3.3,1.3-.4,2.1-1.3,3.5-1.6C1737.2,48.5,1734.5,48.5,1734.2,46Z"/><path d="M1631.5,48.2c-2.2-1.2-5,.6-5.3,3.1C1628.2,54.9,1632.5,52.9,1631.5,48.2Z"/><path d="M1716,50.5c.3-1.3,0-1.3-.1-2.7-1.5.2-2.5-.7-3.2.3C1712.7,50.6,1714,50.9,1716,50.5Z"/><path d="M1691.7,47.8c-1.8-1.1-5.3-.4-5,2.2C1688.5,51.4,1692.9,52.6,1691.7,47.8Z"/><path d="M1570.3,52.8c-.1.4-.5.6-.3,1.2h1.2l.3-.9C1571,53.2,1570.8,52.8,1570.3,52.8Z"/><path d="M1696.2,48.9c2.1,1.8,5.2,1.1,7.7,1.9,1.2-4-2.1-5.2-5.1-5.2C1697.8,46.6,1696.4,47.2,1696.2,48.9Z"/><path d="M1665.4,48.1c-.6,2,1.5,1.8.7,3.3,2.6.6,1.6-3.2.8-4.2C1666.6,47.7,1665.9,47.7,1665.4,48.1Z"/><path d="M1651.8,50.2c2.4,1.3,5.2,1.6,5.3-1C1657.3,45.5,1650.9,46.1,1651.8,50.2Z"/><path d="M1616.3,44.4c-2.8.2-2.9,4.5-1.6,7.1C1622,54.5,1620.9,44.1,1616.3,44.4Z"/><path d="M1457.6,52.3c-2.3,0-3.7.7-4.5,2a7.72,7.72,0,0,0,.2-1.5c-1.7-.6-2.5,1.7-4.6,1.6,0,1.3,1.2,1.2,1.4,2.3a25,25,0,0,1-3.8,1.5,4,4,0,0,0,.7,2.6c3,0,3.3-2.6,6.4-2.5.4-.9,1-1.7.5-2.7a5.66,5.66,0,0,0-1.8.3,3.07,3.07,0,0,0,1-1.5c1.2.3,4,.1,5-.7C1458.1,52.9,1456.9,53,1457.6,52.3Z"/><path d="M1603.1,50.9c3.3,1.6,4.5-2.2,1.9-3.3C1603,47.6,1601.8,49.4,1603.1,50.9Z"/><path d="M1751.7,45.6a2.38,2.38,0,0,0,2.6.8c.1-1.3.4-1.8-.3-2.7C1752.8,44,1751.9,44.5,1751.7,45.6Z"/><path d="M1525.5,49.1c-.4.2-.4,1-.6,1.5.4.1.6.4,1.2.2C1526.3,50.2,1526.5,49.2,1525.5,49.1Z"/><path d="M1442.5,48.8c.2-1.5.9-3.4-.1-4.4a6.75,6.75,0,0,0-1.4.2v-.2a1.24,1.24,0,0,0-1.5.5,20.5,20.5,0,0,0-7.1,3.5C1433.1,54.5,1439.4,50.1,1442.5,48.8Z"/><path d="M1693.7,45.4c.9-.3.8.4,1.5.3,0-1.1.3-.8,0-1.8a1.33,1.33,0,0,0-1.5,1h0Z"/><path d="M1635.1,43.1c-.2.7-1.1.7-.9,1.8.9,1,3.3,1.7,4.5,1.1C1638.5,44,1637.4,43,1635.1,43.1Z"/><path d="M1623.9,42.1c-.5.7-.2,2-.2,3a15.06,15.06,0,0,0,3.5,1.4c.5-.4.2-1.5.3-2.4C1625,44.8,1626,41.8,1623.9,42.1Z"/><path d="M1486.1,44.4c-1.4,1.6-1.1,3.1-.5,5.3,4.2.2,5.2-2.4,6.5-4.9-.7-1.6-1.9-1.3-3.2-.8-.4-1.4-1.3-2.4-2.7-.8a1.29,1.29,0,0,1,.1,1.2Z"/><path d="M1682.5,42.7c.1,1.4.5,2.7,2.4,2.3,0-1.2,1.2-1.5.8-3.2C1684.2,42.2,1684,42.2,1682.5,42.7Z"/><path d="M1519,48.6c.1-.2.7-1.1,0-1.2-.1.4-.7.3-1.2.3v.9C1518.6,48.6,1518.4,48.1,1519,48.6Z"/><path d="M1530.1,42.7a17.55,17.55,0,0,0-1.2-3.2,4.23,4.23,0,0,0-4.1,1.9h-.1c-.1-.2-.2-.5-.3-.7-.9,0-1.2.6-2.3.5,0,.1-.1.1-.1.2a22.11,22.11,0,0,1-2.5-.5c-2.5,2.4-5.5-2-7.9,1.4.3,1.2,0,2,.2,2.9,4.1-1.2,9.5,1.2,14.2-.6.7.9,1.5,1.5,2.1,2.4-1.7.5,0,2.8-.3,3.5a5.92,5.92,0,0,0,.7-2.9c.1.2.2.3.2.5a10.46,10.46,0,0,0,3.8-1.9,2.54,2.54,0,0,0-1.4-3.3A3.55,3.55,0,0,0,1530.1,42.7Z"/><path d="M1410.8,45.4c-.9.6-1.2,1.8-2,2.7,1,.8,1.2,2.5,3,2.6,1.4-1.6-.5-3-1-4.4C1410.8,45.9,1412.1,45.3,1410.8,45.4Z"/><path d="M1397.2,48.3a2.86,2.86,0,0,0,.1,2.4,3.23,3.23,0,0,0,2.7-.4c2.6.4,6.8-.1,7.6-2.8C1405.1,46.1,1400.1,47.4,1397.2,48.3Z"/><path d="M1453.4,47.4c-1.2,0-2.2.2-2.1,1.5C1452.1,48.5,1453.3,48.5,1453.4,47.4Z"/><path d="M1693.7,43c1,.7,2.8.1,2.3-1.5A2.53,2.53,0,0,0,1693.7,43Z"/><path d="M1390.1,47.9c-.8-.6-1.2.5-1.8-.3.1-1.1-.2-1.9-.9-2a4,4,0,0,0-2.3,3.3c1.5.5,2.5,1.6,5,1.1C1389.7,49,1390.2,49.1,1390.1,47.9Z"/><path d="M1700,34.6c-.2,3.1-3.1,4.5-2.2,7.7C1703.9,43.1,1705.4,34.9,1700,34.6Z"/><path d="M1691,41.3c.6-1.6.2-3.8-1.3-4.1a5.47,5.47,0,0,0-3.5,2.2c.2,1.1,1.2,1.3,1.2,2.6A15.28,15.28,0,0,0,1691,41.3Z"/><path d="M1602,42.9c.7.2,1,.9,1.5.3C1603.6,42.3,1602.1,42,1602,42.9Z"/><path d="M1662.5,35.7c-1.5,1.7.2,3.9-.5,5.9C1668.9,44.4,1669.1,33.1,1662.5,35.7Z"/><path d="M1630,35.8c-2.5-.1-3.6,2.7-2.3,4.8C1632.8,44,1634.3,36,1630,35.8Z"/><path d="M1645.4,38.5c-.7-2.9-4.9-4-6.8-1.6C1638.4,40.9,1643.9,41,1645.4,38.5Z"/><path d="M1372.2,36.5a4,4,0,0,0-1.1,3.9c3.1.1,4.6-1.2,6.7-2C1377,36.7,1374.9,36.2,1372.2,36.5Z"/><path d="M1654.7,29.4c0-1.6-1.9-1.1-2.1,0C1652.8,30.1,1654.4,29.7,1654.7,29.4Z"/><path d="M1814.9,66.1l2.1-.9c-.5-.1-.5-.5-1-.6C1816,65.4,1815.1,65.4,1814.9,66.1Z"/><path d="M1665.2,50.2c-1.3-.1-1.5.9-2.7.9-.2,1.9.9,3.1,1,3.8.3-.8,1.4.5,1.8-.3.2-1.2-.9-.9-.7-2,.3-.8,1.2.7,1.1-.6C1664.7,51.6,1665.6,50.7,1665.2,50.2Z"/><path d="M800.7,45.2c-1.1-1.1-2.6-1.5-3-3.3-2.4.1-1.6,4.7-.4,5.4C799.1,47.1,800.4,46.5,800.7,45.2Z"/><path d="M782.9,47.1c-2-.2-2.5,1.1-4.1,1.3a1.88,1.88,0,0,1-.6,2.4,1.27,1.27,0,0,0,.6.1,7.35,7.35,0,0,1-1.9,1.6.52.52,0,0,0-.4-.2,13.5,13.5,0,0,1-2.6,1.5,5,5,0,0,1,.1,2.1,3.17,3.17,0,0,0,.1,4.5,2.36,2.36,0,0,0,.9.6c1.4.1,1.2-1.2,2.6-1.1,1.1.2,1.2,1.6,2.7,1.3,1.1-1,.1-1.8-.3-2.9.5-1.8,1.3-5.6,0-7.3,2-.2,3.3-1.6,4.4-2.4A1.7,1.7,0,0,1,782.9,47.1Z"/><path d="M882.1,46.1c-.1,1.2.6,1.6.8,2.6,1.3-.1,1.8.7,3.3.3,0-2.7,4.3-1.7,4.1-4.5a5.43,5.43,0,0,0-7.7.9A3,3,0,0,0,882.1,46.1Z"/><path d="M835.5,50.1a12.09,12.09,0,0,0-1.8-.5c-.4.4-.1,1.4-.4,1.8.7.4,1,1,2.1.8C835.8,51.8,835.6,50.9,835.5,50.1Z"/><path d="M797.5,54c0,1.1.5,1.4.8,2,1.7.1,2.1-.8,2.6-1.7C800.5,52.4,798.6,53.2,797.5,54Z"/><path d="M823.9,53.2c1.1.1,1.4-.5,2.3-.5a2.54,2.54,0,0,1,.2-1.2c-.8-.6-2.2-.6-3.6-.6C822.6,52.3,823.4,52.5,823.9,53.2Z"/><path d="M909,48.8c.7,0,.6-.6,1.5-.4.9-1.1.4-3.7-.4-4.7-1.5-.6-3,.5-3.7,1.5A7.8,7.8,0,0,0,909,48.8Z"/><path d="M917.5,46.6a3.3,3.3,0,0,0,2.4,1.2v.5a3,3,0,0,0,1-.4,2.2,2.2,0,0,1,.8.1c2.1-1.3,0-4.1-.8-5.6C918.6,42.8,917.3,44.1,917.5,46.6Z"/><path d="M857.5,56.8c-.1,2.5,1.7,2.8,2.2,4.5,2.1.1,2.8-1.1,3-2.6C861.3,57.9,859.3,54.2,857.5,56.8Z"/><path d="M871.7,56.2c-.2,2.2.7,3,1.5,4,.7-.1,1.4-.1,2.1-.2a7.24,7.24,0,0,1,1.1-1.9C875.5,55,873.9,55,871.7,56.2Z"/><path d="M899.4,54.1a1.51,1.51,0,0,0,1.2,1.8,1.66,1.66,0,0,0,1.6-.6C901.9,53.9,900.5,52.8,899.4,54.1Z"/><path d="M932.6,56.8c1.7-.6,2.3-2.1,2-4.3C931.8,49.7,930.2,55.4,932.6,56.8Z"/><path d="M944.3,54.3c1.2.1,3.7.3,5.2-.5C949.3,51,942.6,50.5,944.3,54.3Z"/><path d="M763.6,69.4c-.9.7-.4,2,1,1.7,0-.5-.1-1-.1-1.5A1,1,0,0,1,763.6,69.4Z"/><path d="M1066.7,46.7c.1-.9,1.2-.8,1.3-1.6-1.8-1.2-3.8.9-5.5,1.4.4,1.8,1.6,2.6,2.4,4,.7-.1,1.4-.1,2.1-.2C1067.3,48.8,1067.6,47.7,1066.7,46.7Z"/><path d="M1051.6,47.7c.1,1.2.7,1.6.2,2.7,1.2-.2,1.7.4,3,0,.3-1,.7-2.4,0-3.5C1053.4,46.1,1052.6,47.2,1051.6,47.7Z"/><path d="M1015.5,51.4c.5,0,.2,1,.7,1.1a6.2,6.2,0,0,0,3.2-.9c0-.4-.1-.8-.1-1.2C1018,50.4,1016.1,50.1,1015.5,51.4Z"/><path d="M1081.1,47.5c-1.9-1.6-6-1.6-4.9,2.5a10,10,0,0,0,2.4.4C1079.3,49.3,1080.8,48.9,1081.1,47.5Z"/><path d="M908.6,61.3c-2.2.1-.9,3.2.3,3.5.7,0,.9-.5,1.4-.7C910.2,62.7,909.7,61.6,908.6,61.3Z"/><path d="M985.3,58.8c.9,1.2,4,.8,5.3-.2C989.9,54.8,986.3,56.7,985.3,58.8Z"/><path d="M1000.4,55.7a2.16,2.16,0,0,0,1,2.8c.1.1.2.1.4.1a5.12,5.12,0,0,0,.1-3A7.57,7.57,0,0,0,1000.4,55.7Z"/><path d="M981.7,63.2c.5.6,1.6.5,2.7.3,0-1,.8-1.4.7-2.4C983.5,58.6,981,60.7,981.7,63.2Z"/><path d="M1005.8,60a3,3,0,0,0-1.5,3.1,6.65,6.65,0,0,0,2.4.7,2.23,2.23,0,0,0,0-3.2h0A2.36,2.36,0,0,0,1005.8,60Z"/><path d="M1084,53.2c0,1.1-.3.9.2,1.7,1.1-.3,1.2.7,2.4.4C1087.1,54,1085.6,52.8,1084,53.2Z"/><path d="M1068.4,59.3c2-.7,1.4-2.1.8-3.9C1065.4,53.6,1066.4,58.1,1068.4,59.3Z"/><path d="M1043.5,60.2c1,.2.4-.9.5-1.5-1.3-1.3-3.5-1.1-3.5,1.5,1.2.4,1.3,1.4,2.8.7-.1.9.4,1.1,1,1.4C1045,61.4,1044.2,60.5,1043.5,60.2Z"/><path d="M1142.5,51.9c.7.2,1.1.7,2.1.4.7-.6.5-1.8,0-2.7C1143,49.6,1142.1,50.2,1142.5,51.9Z"/><path d="M1081.1,57.9c-.6-.1-.1-1.5-.7-1.7-1.7-.4-1,1.2-2.3,1.1C1077.2,59.6,1080.3,59.4,1081.1,57.9Z"/><path d="M1105.9,56.6c-.5-6.7-10.1,3.1-2.3,4.1C1104,58.8,1106,58.4,1105.9,56.6Z"/><path d="M1116.6,61a24.61,24.61,0,0,0,.6-6.6c-3.2-3.4-8,1-5.2,4.9C1113.9,59.5,1115,60.6,1116.6,61Z"/><path d="M1242.7,43.5c0-.4-.1-.8-.1-1.2-.3,0-.6.1-.9.1C1241.7,43.2,1241.9,43.7,1242.7,43.5Z"/><path d="M1090.7,55.8c-.2,1.1-.1,2.4-.3,3.6,1.1,0,1,1.4,2.2,1.3a14.29,14.29,0,0,1,2-1.4c-.4-1.4-1.3-2.2-1.8-3.4C1091.8,56.3,1091.6,55.6,1090.7,55.8Z"/><path d="M1141.9,54.4c-.3-1.5-1.7-1.6-2.3-2.8-4.3,0-3.9,4.7-2.7,6.8A7.76,7.76,0,0,0,1141.9,54.4Z"/><path d="M1183.1,50.5a11.12,11.12,0,0,0,2.6,2.7c.3.4,1.7-.6,2.3-.8C1190.2,47.6,1184.4,46.8,1183.1,50.5Z"/><path d="M1150.7,57.2c5.3-3.2-4.7-8.9-2.7-.9C1148.9,56.5,1150,57.7,1150.7,57.2Z"/><path d="M1177.1,50.4c-1.5-1.1-2.9-.6-5-.2-1.1,2.6.7,4.2,3.3,4.2C1175.8,52.9,1177,52.2,1177.1,50.4Z"/><path d="M1224.8,46c-4.5-.6-4.7,5.7-.9,6.9C1226,51.6,1226.4,48.3,1224.8,46Z"/><path d="M1165.5,52.6c-.8-1.8-2.4-.4-4.5-.5-1.6,2.1-.8,3.8,0,6.5,2.2,0,3.2-1,4.7-1.6C1164.5,55.5,1165.7,54.3,1165.5,52.6Z"/><path d="M1230.4,48.2c-.6,2.7-2.1,4.6-2.6,7.3,4.1.6,4,6.1,7.1,8,2-.9,2.8-2.8,2.9-5.3-2.7-2.6-2.6-7.8-.9-10.9C1234.2,46.2,1232.8,47.2,1230.4,48.2Z"/><path d="M1218.7,53.4c.1.1,1.4.5,1.4-.2-.8-.3.7-.8.5-1.5C1219.6,52,1218.8,52.4,1218.7,53.4Z"/><path d="M1082.6,65.1c0-.2,0-.4.2-.3a1.27,1.27,0,0,0-.1-.6c-.2,0-.3,0-.3-.3a1.27,1.27,0,0,0-.6.1c0,.2,0,.4-.3.3a1.27,1.27,0,0,0,.1.6c.3,0,.5,0,.4.3A1.27,1.27,0,0,0,1082.6,65.1Z"/><path d="M1119.5,62.5c.9,1,3.3,1,3.5-.6a18.87,18.87,0,0,0-3.4-.9A2,2,0,0,0,1119.5,62.5Z"/><path d="M1169.7,57.6c.6.2.8.7,1.8.4C1171.8,56.1,1170,56.5,1169.7,57.6Z"/><path d="M1203,55c-.3,1.6,1.9,1.6,3.4,1.5C1206.7,54.5,1204.3,54.1,1203,55Z"/><path d="M1078.7,69.4a28,28,0,0,1,2.8.6c.4-1,.3-2.4,1.5-2.8C1081.9,64.2,1077.9,66.1,1078.7,69.4Z"/><path d="M1061.7,71.7c.3,0,.7-.1,1.1-.1a2.5,2.5,0,0,1,1.6-2.5C1062.8,68,1061.6,69.7,1061.7,71.7Z"/><path d="M1102.2,68.8c.7.9,2.2.8,3.9.5.2-1.5,1-2.8.2-4.5C1103.2,64.8,1102,66.2,1102.2,68.8Z"/><path d="M1112.2,65c-.3,1.6-.7,3.8.7,4.7a9.67,9.67,0,0,0,5.5-1.7C1119.2,64.6,1115.3,63.6,1112.2,65Z"/><path d="M1369.1,43.8c.8,2.1.9,3.9,3.4,4.4a5.3,5.3,0,0,1,4.3-1.6c.1-1.5,1.9-1.7,1.8-3.4C1376.2,41.6,1371.7,42.2,1369.1,43.8Z"/><path d="M1129.9,67.3c-.1-2.9-3.7-3.8-5.5-1.9C1124.4,69.1,1128.1,68.9,1129.9,67.3Z"/><path d="M1141.8,66.6c-.1.1-.4-2-.5-2.1-.6-.9-1.7-1-3-.6C1135.7,68,1141.2,70.2,1141.8,66.6Z"/><path d="M1092.6,67.9c-.8.1-1.9,0-2.3.5.1,1.2,1,1.4,2.2,1.3C1092.4,68.9,1092.9,68.7,1092.6,67.9Z"/><path d="M1174.2,61.3c.1,1,.1,2.1,1.1,2,.6-.2-.1-1.6.4-1.8C1175,61.7,1175,61,1174.2,61.3Z"/><path d="M1209.6,58.6a20,20,0,0,0,.9,3.5c.7-.1,1.3-.1,2-.2.3-1.5,1.6-2.2,1.8-3.7A10.64,10.64,0,0,0,1209.6,58.6Z"/><path d="M1149.3,64.1c.1.8.1,1.6.2,2.4a2.18,2.18,0,0,0,2.3-.5C1151.9,63.9,1150.6,63.5,1149.3,64.1Z"/><path d="M1186.7,61.5c-.6.7.1,1.5,1,1.4a1,1,0,0,0-.5-1.3A.9.9,0,0,0,1186.7,61.5Z"/><path d="M1197.9,60.5a2.56,2.56,0,0,0,0,2.9c1.2.2,1,0,2.4-.2a13.36,13.36,0,0,1,.7-1.8C1199.4,61.7,1199.8,59.7,1197.9,60.5Z"/><path d="M1342.8,47.9c.1.9-.7,1-.4,2.1.8.7,1.5-.3,2.6-.2A3.49,3.49,0,0,0,1342.8,47.9Z"/><path d="M1407.7,43.7c-.4,0-.6-.4-1.2-.2a2.77,2.77,0,0,0,.1.9C1407.2,44.4,1407.7,44.3,1407.7,43.7Z"/><path d="M1352.5,53c2,.1,4.8,1.4,6.1-.8-.6-1.1-1.6-1.7-2.1-3.1a3.72,3.72,0,0,0-4,3.5h0Z"/><path d="M1231.2,61.7c.2,1.8-1.3,2-2.5,2.6-.1.9.6.8.5,1.7,1.5.6,2.6,0,4.1-.6C1233.9,63.1,1231.5,63.1,1231.2,61.7Z"/><path d="M1140.9,70.2c-1-.5-3.4-.2-3.1,1.2a2.38,2.38,0,0,0,3.1-1.2Z"/><path d="M1218.6,63.7c-.3.6-1.6.9-.7,1.6C1218.6,65.4,1219.5,64.1,1218.6,63.7Z"/><path d="M1177,73c.3,3.2,3.6,3.8,5.3,6.1,3.7.2,6.3-1.5,7.1-4.2a19.59,19.59,0,0,0,.5-4.8C1188.8,65,1176.6,67.5,1177,73Z"/><path d="M1368.4,52.5c.9.2-.6.5-.2,1.2,1.5-.1,1.9-1.2,2.5-2C1370,51.1,1369.2,52.2,1368.4,52.5Z"/><path d="M1116.7,74.6c-3.8-.6-4.6,3.7-2.5,5.6a4.34,4.34,0,0,0,4.2-2.7C1118.3,76,1116.8,76.2,1116.7,74.6Z"/><path d="M1139.9,72.6c-2.9,2.2.8,5.3,1,7.3C1144.9,78.4,1144.9,71.8,1139.9,72.6Z"/><path d="M1228.1,70.6c-.1-2.5-2.1-3-1.9-4.9-2.1-.2-2.4,1.3-4.3,1.9-.2.8-.1,1.7-.7,2.1a3.41,3.41,0,0,0-2.2-.7c0,1.1.3,2,1.1,2.3,1.7-.9,3,1.6,4.9,1.6C1225.9,72,1227.2,71.5,1228.1,70.6Z"/><path d="M1286.5,62.9c-2.4-4.3-5.7,2.4-2.1,3.7A13.59,13.59,0,0,0,1286.5,62.9Z"/><path d="M1286.7,61.7c.3,1.8,1.8,2.1,3.1,1.2C1289.8,60.8,1287.7,60.7,1286.7,61.7Z"/><path d="M1126.8,75.9c.1.7.1,1.4.2,2a3.31,3.31,0,0,0,3.8,0c-.2-1,.1-2.4-.5-2.9C1128.9,75,1128,75.6,1126.8,75.9Z"/><path d="M1166.9,76.5c-.9-2,.4-2.7-.4-4.4-2.4-.8-2.9,1.8-2.9,3.8A4.81,4.81,0,0,0,1166.9,76.5Z"/><path d="M1264.2,69c0-2.1-.3-4-1.3-4.9-4.1-.7-6.2,2.2-6.3,5.6.7-.1.9.7,1.2,1.3A11.27,11.27,0,0,0,1264.2,69Z"/><path d="M1456.6,47.2c-.4.9.1.9-.1,2.1,1.4.2,1.8,1.5,3.6,1.2C1460.6,48.7,1458.9,46.9,1456.6,47.2Z"/><path d="M1154.1,75.3c-1.2-1.1-2.2-1.6-3.6-.3-.1,1.7.9,2.2,1.7,2.8C1153.5,77.5,1153.8,76.4,1154.1,75.3Z"/><path d="M1316.1,65.3a5.78,5.78,0,0,0,3.6,1.2c2.3-1.2,2.8-3.8,3-6.8-.4,0-.5-.5-.9-.5C1320.4,61.6,1314.7,60.6,1316.1,65.3Z"/><path d="M1511.6,44.2c-.7-.7-1-.1-2.4-.1C1509.2,45.6,1511.2,44.8,1511.6,44.2Z"/><path d="M1295.1,62.7c-.7,2.1.9,3.5,2.7,3.6-.2-1.9,2.6-1.2,2.1-3.4C1298.3,62.1,1297,63,1295.1,62.7Z"/><path d="M1385.9,55.1c.2.4-.2,1.5.4,1.5,0-.4.1-.7.6-.6a1.84,1.84,0,0,0,.4,2c1.2.1,1.4-.5,2.4-.5C1389.2,55.6,1387.3,55.7,1385.9,55.1Z"/><path d="M1333.3,60.9c-.3.4-.2,1.1-.2,1.8a2.3,2.3,0,0,0,1.7-1.6A1.6,1.6,0,0,0,1333.3,60.9Z"/><path d="M1342,62.5c.9.6,3.1.2,2.5-1.4C1343.6,59.5,1342.1,61.1,1342,62.5Z"/><path d="M1464.3,49.8a2,2,0,0,0,1.5-2.3v-.1c-1.3,0-1.5.8-2.9.7a1.32,1.32,0,0,0,.6,1.7c.1,0,.2.1.4.1h-1.1c-.5,1.4-1.4,3.4-.4,5.1,1.3-.1,1.7.7,2.6.1.3-1.6,2.2-1.9,3.3-3C1468.1,49.7,1466.2,49.7,1464.3,49.8Z"/><path d="M1367.2,58.5c-.6,1.6.7,2.9,1.9,2.2a3.31,3.31,0,0,0-.7-2.3A4.87,4.87,0,0,1,1367.2,58.5Z"/><path d="M1228.4,73.5c-.1,1,.3,1.3,1.2,1.1a1.4,1.4,0,0,1,.3-.9A2.62,2.62,0,0,0,1228.4,73.5Z"/><path d="M1263.8,71.7a28.15,28.15,0,0,0-4.1-.2c.5,2.7,0,5.1.1,8.3,2.3,1.9,4.8-1.3,5.7-3.2C1264.1,75.3,1263.6,74.3,1263.8,71.7Z"/><path d="M1231.6,76.5a4.05,4.05,0,0,1,.9.5C1236.3,76.1,1231.1,71.6,1231.6,76.5Z"/><path d="M1266.8,71.4c-.5.5.2.8.4,1.5,1.6-.5,2.3.2,3.3.3C1270.6,70.9,1267.7,72.3,1266.8,71.4Z"/><path d="M1256.3,73.5c-.3,1,1.8.6,1.8.2C1257.7,73.3,1257,73.4,1256.3,73.5Z"/><path d="M1527.1,55.6a5.7,5.7,0,0,0,.1-1.3h.2a.78.78,0,0,1,.9-.6c0-.7-.4-.9-1.1-.9a2.79,2.79,0,0,0-.8-2c-1.4.3-1.9,1.4-3.2,1.8a7.2,7.2,0,0,1-2.7-1.5c-.5,1.2-1.6,1.8-1.4,3.6,1.7.4,2.8-.2,4.2-.6C1523.8,55.7,1525.1,56.1,1527.1,55.6Z"/><path d="M1164.8,82.9c1.2,1.4-2.4,4.5,1.3,5.2,1-1.4,2.5-2.3,2.9-4.1A4.34,4.34,0,0,0,1164.8,82.9Z"/><path d="M1295.3,72.5c.8.9-.3,2.3.5,3.2,1.3-1.1,2,1.2,3.3,0C1298.2,72.7,1299,71.6,1295.3,72.5Z"/><path d="M1140.6,87.1c1.5-.1,2,1,3.6.9C1145.3,85.7,1141,84.9,1140.6,87.1Z"/><path d="M1129.9,87.2a2.38,2.38,0,0,0-1,2.5c.4,0,.8-.1,1.2-.1-.3-1.1-.6-.7.5-.7C1131.1,88.3,1130.4,87.6,1129.9,87.2Z"/><path d="M1152,85.5c-.1,1.9,3,2.1,3,.3C1154.4,84.7,1153.3,85.3,1152,85.5Z"/><path d="M1284.3,75.2c.9-.5,2.1-.7,2.2-1.7C1285.4,73.8,1284.2,74,1284.3,75.2Z"/><path d="M1250.5,82.6c1.6-1.4,1.8-2.4,2-4.9-3.7,0-5.6,1.5-7.8,2.7C1247.9,79.6,1248.7,81.7,1250.5,82.6Z"/><path d="M1226.3,80.3c.2.4-.2,1.5.5,1.4.2-.5.9-.5,1.4-.7C1228.2,79.9,1227.2,80.2,1226.3,80.3Z"/><path d="M1236.9,82.6c1.6.1,1.7-1.1,1.8-2.2-.8-.1-1.3-.6-2.1-.7C1235.7,80.3,1236.2,81.9,1236.9,82.6Z"/><path d="M1224.2,81c-.6,1.7,1.6,4.3,3.3,3.3C1226.6,83,1226,81.4,1224.2,81Z"/><path d="M1393.3,69.3c1.8,0,2.1-1.2,2.4-2.3a10,10,0,0,0-2.4-.4C1393.4,67.5,1392.4,68.5,1393.3,69.3Z"/><path d="M1338,74.4c-.2,1.1,1.2.3,1.9.4C1339.9,73.7,1338.4,73.9,1338,74.4Z"/><path d="M1224.2,90.2c-.6,1.4.9,1.2,1.2.2C1225,90.4,1224.8,90,1224.2,90.2Z"/><path d="M1319.2,83.8a2.51,2.51,0,0,0,.9,2.9c0-.4.6-.4.8-.6C1320.6,84.9,1319.6,84.7,1319.2,83.8Z"/><path d="M1219.9,58.3c-.4,3.8,2.5,3.8,4.6,4.6,1.5-.3-.3-.5-.1-1.2.6-.7,2.6-1.5,2-4C1224.5,56.1,1221.2,55.7,1219.9,58.3Z"/><path d="M775.9,78.9c1-.3,2.3-1.3,1.7-2.1A2.14,2.14,0,0,0,775.9,78.9Z"/><path d="M585.5,79.5c-.4.4-.5,1.8.3,1.8C586.2,80.9,586.3,79.5,585.5,79.5Z"/><path d="M552.7,80.5c-.2-.8.6-.6.6-1.2-.9-.1-.9.7-.8,1.5.3.3,1,.3,1.8.3C554.5,79.7,553.3,80.4,552.7,80.5Z"/><path d="M561.5,76.8c-.6.7-.6,1.9-.8,3,2,1.2,2.8-.3,3.5-1.9C563.3,77.5,563.1,76.4,561.5,76.8Z"/><path d="M567.7,77.6a6.08,6.08,0,0,1-.9,1.8C568.3,79.4,569.2,77.9,567.7,77.6Z"/><path d="M635.7,72.5c.1,1.6-1.9,1.2-1.1,3.3,1.6,1.1,4.1,2.1,5.3-.1C639.1,74.1,638,72.6,635.7,72.5Z"/><path d="M620.1,76.4c.8.7,1.7-.4,2.7.2a2.83,2.83,0,0,0-.4-1.8C621.2,74.9,619.9,75,620.1,76.4Z"/><path d="M610.6,71.3c-.6,1.1-1.9,1.5-3.3,1.9.6,1,1.5,1.5,1.9,2.6C612.7,77.6,614.1,71.4,610.6,71.3Z"/><path d="M623.9,72.5c-.6,0-.3.8-1.1.6-.2.9.5.9.3,1.7,1.3-.1,3.1.1,3.2-1.2C625.8,72.8,624.7,72.8,623.9,72.5Z"/><path d="M719.6,71.3c.5.1.2.7,0,.9.5-.2,1.6.3,1.5-.3C720.8,71.6,720.1,70.3,719.6,71.3Z"/><path d="M474,75.2c0,.2-.7,1.5-.3.3-.7,0-.9.6-1.8.3.3,1.4,1.1.9,2.4.8C473.8,75.8,475.2,75,474,75.2Z"/><path d="M561.9,67.6c-.8-.8.5-1.2.3-2.4a13.83,13.83,0,0,0-2.7-1.4c-.9,1-1.2,2.6-2.3,3.3-2.2-.6-4.6.1-5.6,1.6,1.7.8,1.4,2,1.6,4.4,4.9,3.4,8.9-4,14.1-1.2a2.11,2.11,0,0,0,2-2.2,2,2,0,0,0-.6-1.4A13.16,13.16,0,0,1,561.9,67.6Z"/><path d="M627.4,69.8a3.09,3.09,0,0,0,1.5,2.3c.9-1,2-.9,2.6-1.5C630.7,69.6,628.8,68.3,627.4,69.8Z"/><path d="M638.3,71.3a2,2,0,0,0-.3-1.5c-.7,0-.9.5-1.8.3C635.7,71.8,637.6,71.9,638.3,71.3Z"/><path d="M614.6,68.8c.5,2.9,3.7,3.7,4.7.8a16.15,16.15,0,0,1-3.5-1.7C615.2,68.1,615.6,69.1,614.6,68.8Z"/><path d="M587.4,69.1c-1.4-1.3-1.9.4-3.6.4-.2,2.2,1.5,2.4,3.3,2.6C587.9,70.7,586.9,70.6,587.4,69.1Z"/><path d="M684.1,67.6c2.4.1,2.7,2.4,6,1.7-1.1-1.9,1.6-1.9,1.7-3.6-1.4-.4-1.9-1.6-3.3-2C686.3,64.5,684.5,64.8,684.1,67.6Z"/><path d="M960.1,63.1c.9,0,1.5-.1,1.7-.6C961.2,61.8,960.6,62.7,960.1,63.1Z"/><path d="M703.2,64.6a13.45,13.45,0,0,1-3.5-.5,15.81,15.81,0,0,1-1.4,3.6,6.59,6.59,0,0,0,2.4,1.1c-.6-1.8,2.6-1.5,3.2-3A1.52,1.52,0,0,1,703.2,64.6Z"/><path d="M995.1,56.7c-.6,1.8-1.2,2.2-.8,4.7,1.9-.8,3.5-2,3.7-4.5C997.6,56.4,996.2,56.8,995.1,56.7Z"/><path d="M722.5,67.4c1.1,0,2.4.1,2.7-.6a1.72,1.72,0,0,0-2.4.1C722.7,67.1,722.6,67.2,722.5,67.4Z"/><path d="M764.3,62.6c-.1,1.3-1.4,1.4-1.7,2.4.1.5,1.1.2.9,1.2,1.2,0,2.3-.2,2.6-1C765.3,64.6,765.9,62.5,764.3,62.6Z"/><path d="M644.7,65.2c2.6,2.9,9.5,4.3,10-1.4C651.7,60.5,647.6,63.3,644.7,65.2Z"/><path d="M634.6,62.5c-1.5,7.5,5.8,6.4,7.8,1.9C641.3,61.9,637.1,60.8,634.6,62.5Z"/><path d="M574.9,69.1c.9.5,3.2.5,2.7-1.3C576.5,67.5,574.7,67.5,574.9,69.1Z"/><path d="M777.1,62.6a1,1,0,0,0,.1,1.5h0a2.19,2.19,0,0,0,.5.3C778.3,63.8,777.7,62.8,777.1,62.6Z"/><path d="M569.9,67.2c-.2,1.5,1.1,1.7,2,1.1.3-.3.1-1.6-.3-2C571.4,66.9,570.3,66.7,569.9,67.2Z"/><path d="M628.3,61.7c-2.4-.7-4-1.9-6.5-.4a21.63,21.63,0,0,1-.2,4.4C624.6,68.3,628.8,65.8,628.3,61.7Z"/><path d="M908,56.8c-.4,4,4.3,3.3,3.8-.1A4.24,4.24,0,0,0,908,56.8Z"/><path d="M607.3,57.5c0-1.3.8-2,1.1-3.6-1.8-.2-1.6,1.6-2.6,2.1a5,5,0,0,0-2.7.1,5,5,0,0,0-.8,2.7,10.83,10.83,0,0,1,5.7,3.4c.7.9.4,2,1.2,2.6.3.3,1.1-.2,1.5,0,.2.1,0,.8.3.9a3.4,3.4,0,0,0,3.5-1.3C613.6,60.6,612,57.4,607.3,57.5Z"/><path d="M836.9,55.7c1,.2.9-.5,1.5-.6.5-3.2-3.9-3.4-5.4-1.9-1,2.1,1.5,2.6.7,4.4.8,1,2.7,1,2.8,2.9,1.1.1,1.3-.8,2-1.2C837.4,58.6,838,56.4,836.9,55.7Z"/><path d="M468.7,62.6c-.7-2-3.2-2.1-5.4-2.6-.5,1.9,1.3,1.5,2.7,1.4,1.6,2.8,3.8,8.4,7.8,5.8a10.27,10.27,0,0,1,.5-2.4c1.8-.1,3.2-.5,3.2-2.2C474.8,61.6,472.8,62.6,468.7,62.6Z"/><path d="M761.3,59.4c-1.4-.3-1.6.5-1.4,1.8.3.3,1.9.6,2.1,0C761.4,60.9,761.2,60.3,761.3,59.4Z"/><path d="M718.5,60.7c.1,1.6,1.9,1.5,3.3,1.7C721.8,60.7,720,60.8,718.5,60.7Z"/><path d="M685.1,58.8c-2.6-1-4.7-.7-7.4-.4-.2,1.7,2.3,1.5,1.2,3.2a29,29,0,0,0,4.8,1.4C684.1,61.5,685.4,60.9,685.1,58.8Z"/><path d="M500.9,63.1c-.9-2.7-5.6-1.1-5.6,1.3.6,2,3.7,3.3,4.8.8.8-.4-1-.6-.6-1.5C499.9,63.4,500.5,63.4,500.9,63.1Z"/><path d="M734.7,58.2c-.5.2.1,1.4-.9,1.2.2.5.2,1.2.6,1.5.5-.9,1.7-.4,2.7-.4C737,59.1,735.9,58.6,734.7,58.2Z"/><path d="M537.6,63.5c.4.8-.9,1.6.3,1.4.9-.6,2.8-.4,2.7-2.1C539.6,62.1,538.7,63.5,537.6,63.5Z"/><path d="M653.4,58.8c.5,3,4,2.6,6.9,3.1a8.68,8.68,0,0,1,2.6-3.9C660,57.9,655.2,55.9,653.4,58.8Z"/><path d="M633.6,61.1a1.35,1.35,0,0,0-1.5.9c.7.2,1.9,1.1,2.1,0A1.15,1.15,0,0,1,633.6,61.1Z"/><path d="M598.7,60a3.63,3.63,0,0,0-2.7,2.1c.8,1.2,2.3.2,3.6,1.1,0-.9.2-2.3-.4-2.9C599,60.2,598.7,60.3,598.7,60Z"/><path d="M573,50.9c-.7.2-1.1.9-1.7,1.2-.1-.6-.1-1.3-.9-1.2-1.4,2.5-7.2,1.8-10,1.7,0-1.2,1.5-1,1.1-2.6-2.7-.8-4.9-1.4-4.9,2.2.7.3,1.6.5,2,1.1a4.07,4.07,0,0,0-.5,1.8c1.4,1,3,3.1,4.8,2.8-.3,3.1-3,2.4-5.5,2.8-1.1-2.5-4.4-.3-5.3.7-1.8-.9-2.9,1-4.8,1v1.2c1.5,1.9,4.6.2,4.7-1.8.8,1.3,2.6.9,4.7,1.4a1,1,0,0,0,.7,1.2,1.19,1.19,0,0,0,1.1-.4c.3-1.1,3.2,0,4.4-.1,0-1.7,1.8-1.7,2.3-3-.8-.3-1.9-.3-1.5-1.7a2.69,2.69,0,0,1,2.4,1.4c1.9-.2,3.5-.8,4.1-2.2.1-1.6-1.6-1.2-1.9-2.3.5-.6.4-1.6,1.2-1.8-.2,1.4,1,1.2,1.8,1.4,0-1.6.8-2.5,2.9-2.1C574.8,52.3,574.3,50.9,573,50.9Z"/><path d="M553.5,62.8c-.9.1-2.1,1.2-.9,1.5C553,63.8,553.6,63.6,553.5,62.8Z"/><path d="M461.5,61c-2.2-.1-1.8,2.2-3.2,3.6,1.4,3.5,6.4,1.1,5.6-1.6A2.78,2.78,0,0,0,461.5,61Z"/><path d="M990.1,53.3c-.7-.6-.9.2-1.8,0,0,.4-.1,1.1.3,1.2C988.6,53.6,990.1,54.2,990.1,53.3Z"/><path d="M589.2,60.2c-.9,1-.6,2.9.9,2.9.3-.4.3-1.1.9-1.2.5.3.4,1.2,1.5.8.3-1.4.6-1.6.2-3.2C591.1,59.8,591.1,60.8,589.2,60.2Z"/><path d="M869.8,55.3c-.7.2-1.3.4-1.5,1.2.6-.1.7.3,1.2.3C869.3,55.9,869.9,56,869.8,55.3Z"/><path d="M648.2,61.3c.4-2.4-1.7-4.7-3.4-6.1-3,.2-3,3.6-2.5,5.7C644.4,60.7,646.4,62.2,648.2,61.3Z"/><path d="M511.6,63.7c.7,1.8,4.6.6,2.9-1.5C512.9,62.1,512,62.6,511.6,63.7Z"/><path d="M584.5,60.6a2.07,2.07,0,0,0,2.9.9,2.2,2.2,0,0,0,1.2-1.6,3.38,3.38,0,0,0-.6-1.2C586.8,59.4,584.8,59.2,584.5,60.6Z"/><path d="M750.3,54.4a2.62,2.62,0,0,1-.2,1.5c1.8,1.7,5.2,0,3.2-1.9C752,53.9,751.6,54.6,750.3,54.4Z"/><path d="M786.9,52.7V53h-.1c-2.3,1.3-1.1,4-.4,6.3.4,0,.8-.1,1.2-.1a4.55,4.55,0,0,0,.9-3.9,1.73,1.73,0,0,0,1,.1c0-.9.8-1,.6-2.1A4.54,4.54,0,0,0,786.9,52.7Z"/><path d="M764.8,55.5c-.5-.9-.3-2.5-1.3-2.9-1.1.4-1.3,1.8-1.7,3A3.49,3.49,0,0,0,764.8,55.5Z"/><path d="M575,60h1.8C577.1,58.7,574.7,58.7,575,60Z"/><path d="M740.8,53.7c.3,1.1-.9,2.1.3,2.4l1.2-1.8C741.2,54.7,741.7,53.4,740.8,53.7Z"/><path d="M726,53.1c.6,1.7-1,1.4-.8,2.7,1.4.8,4.1.6,4.4-1.6A2.65,2.65,0,0,0,726,53.1Z"/><path d="M692.3,52.7c-2.4-1.1-7.1-1.3-8.3,1.1.8,4.7,8,3.8,8.9-.2Q692.15,53.6,692.3,52.7Z"/><path d="M579.4,56.6c-.9.6-1.7,1.1-1.8,2.4.3.1.3.3.3.6a8.78,8.78,0,0,0,3.5-1C580.5,58.3,580.6,56.8,579.4,56.6Z"/><path d="M712.8,55.5c1.4.4,4.4,1.7,4.4-.7C716.4,54.6,713.5,54.2,712.8,55.5Z"/><path d="M700.4,54.8a16.15,16.15,0,0,1,3.5,1.7C704.5,54,701.2,53.2,700.4,54.8Z"/><path d="M662.7,49.5c-.4-.4-1.4-.1-1.8-.5-.3-1,0-1.2-.7-2.1-1.9.5-4.8.1-6.4,1.1a5.67,5.67,0,0,0,.1,2.9c1,.5,1.9.1,3-.1a9,9,0,0,1,1.2,2.4c.8,0,1.7-.2,2.1.2,0,.9.7,1.4,0,2.1,1.4,1,4.7,1.7,6.5.4-.2-1.3-1-2-1.3-3.2C663.3,52.8,662.9,51.3,662.7,49.5Z"/><path d="M640.7,56.8c1.1-1.3,1.5-3.9-.1-5-3.6-.4-4.5,1.7-5.9,3.4C636.3,56.4,637.8,57.6,640.7,56.8Z"/><path d="M577.6,57.8c.1-.9-.6-.9-1.5-.8C576.1,57.9,577,58.4,577.6,57.8Z"/><path d="M573.1,55.6c-1.1-.2-1.4.4-2.4.4a19.27,19.27,0,0,0,.1,2.4c1.8.1,2.3-.9,3.3-1.6C573.5,56.7,573.5,56,573.1,55.6Z"/><path d="M761.5,52.6c-.4-1.7-.4-2.7-.7-4.7-1.2,0-1.7.6-2.7.1.5,1.1-1.3.1-.8,1.2,1.5.1,3.3,1.5,2.1,2.6C760.8,51.2,760.5,52.1,761.5,52.6Z"/><path d="M785.1,49.8c.1.9-.7.9-.6,1.8C786.5,52.1,786.7,49.7,785.1,49.8Z"/><path d="M524.4,53.4a4.08,4.08,0,0,0-2.7,1.3c0,1.4,1.3,1.7,1.8,2.6a8.68,8.68,0,0,0,4.2-.7C527.6,53.7,524.6,55.8,524.4,53.4Z"/><path d="M691.9,48.8c-.2,1.4.4,1.8.1,2.7,2.3,2,6.4,2.1,7-1.3C698.6,47.2,694.3,47.7,691.9,48.8Z"/><path d="M604.8,51c-.9.3-.8-.4-1.5-.3-.3,1-1.1,1.5-2.7,1.2,0-.7-.5-.8-.3-1.7-1.1.2-1.9.7-2.9.9.5,2.1,3.5,3.2,5.4,2.8C604.1,57.3,606.7,52.8,604.8,51Z"/><path d="M586.7,53.8c-1.3.4-1.8-.2-3,.4C584,56,586.6,55.2,586.7,53.8Z"/><path d="M769.3,47.7c-.2.8-1.1,2.8.1,3.2a3,3,0,0,1,2.1-1.2,2.62,2.62,0,0,1,.2-1.5C770.8,48.2,770.7,47.4,769.3,47.7Z"/><path d="M532.4,55.3c3,.3,5.4,1.4,7.7-.5,0-1-.2-2.1.6-2.4C537.3,51.6,533.8,52.5,532.4,55.3Z"/><path d="M499.6,56c-.1-2.2-2.7-1.8-4.5-2.3-.5.5-.2,1.7-.2,2.7C496.7,57.4,497.9,56,499.6,56Z"/><path d="M511.6,52.5c1.2,1.6-1.2,2.1-1.4,3.3,1.7.9,2.6,0,4.4-.4-.4-1.1.2-1.5.5-3.2A10.18,10.18,0,0,0,511.6,52.5Z"/><path d="M685.7,48.4a17.57,17.57,0,0,0-5,1.3,10.74,10.74,0,0,0-4.7-1.4c-.1.2,0,.6-.3.6C677.8,50.8,686.6,53.7,685.7,48.4Z"/><path d="M483.3,54.3c.7,2.2,2.7,1.5,4.7.8C487.7,52.3,483.9,53.2,483.3,54.3Z"/><path d="M460.3,56.2c1.1-.3,1.6.5,2,0,.2-1.5-1.5-2.7-2.4-1.4C460.9,55.1,459.5,55.9,460.3,56.2Z"/><path d="M593.4,49.5c-2.7-.9-5,.8-7.9.5a1.88,1.88,0,0,0,2,1.7,1.61,1.61,0,0,0,.9-.3c.8,2.2,3.3,2.1,5.4,1.7C593.9,51.2,592.9,51,593.4,49.5Z"/><path d="M471.7,52.2c.9,2.8,2.7,3.9,5.6,2.5-.1-1.7.6-2.3.2-3.8A19.5,19.5,0,0,1,471.7,52.2Z"/><path d="M673.3,48.1c-2.4-2.5-5.3-.5-6.3.4.3.9,1.2,1.2,1.5,2,1.4,0,2.8-.1,4.2-.1C672.3,49,673.5,49.2,673.3,48.1Z"/><path d="M913,43.4c.3.9,1.8.6,2.4,1.1a19.27,19.27,0,0,0-.1-2.4C914.1,42.2,913,42.3,913,43.4Z"/><path d="M571.7,44.1c-2.9.2-7.1-1.4-8.9,1.7a5.85,5.85,0,0,0,1.7,1c-.1.1-.1.2-.2.3a3.55,3.55,0,0,0,1,.2,2.59,2.59,0,0,1,1.1,1.4,1.83,1.83,0,0,0-.3,2.1,2.89,2.89,0,0,0,1.8.3c-.7-1.6.6-2.9.8-4.5C571,46.5,571.9,45.6,571.7,44.1Z"/><path d="M776.9,41.3c-1.9.3-4.7.1-6.5.4,1.1,1.2,2.5,2,2.5,4.4,2.5-.1,3.9-1.3,5.3-2.5C778.2,42.3,776.8,42.7,776.9,41.3Z"/><path d="M764.6,45.5c.2-1.9.3-4-.7-5.3-2-.1-2.9.8-4.7,1C758.1,44.6,761.7,47,764.6,45.5Z"/><path d="M706.5,41.7a6.43,6.43,0,0,0-8.7,3.1h0a6,6,0,0,0-.6,1.9c2.9,1.7,7,.4,7.9-2.3.3,0,.9.1.9-.3C704.9,43.2,706.7,42.6,706.5,41.7Z"/><path d="M753,44.8c-.1-1.9-2.1-2.8-3.9-2,0,1,0,2,.1,3A4.73,4.73,0,0,0,753,44.8Z"/><path d="M737.3,42.5c-1.2,3.4,4,5.5,3.9.8C739.1,43.9,739.2,42.1,737.3,42.5Z"/><path d="M724.7,46.1c2,.4,2.2-.3,4.1-.4.1-.2,0-.6.3-.6-1.1-2.5-3.2-.4-4.4.1C725.2,45.3,724.6,45.6,724.7,46.1Z"/><path d="M673.3,46c2.4.5,3.8,1.8,6.5.7-.2-1.6.3-2.1-.1-3.3-1.2-.5-2.1-1.5-3.3-2C674.8,42.4,672.8,43.9,673.3,46Z"/><path d="M788.8,42.9c-.9-.2-3.2-.4-3.3.9C786.2,45.1,789,44.8,788.8,42.9Z"/><path d="M716.3,42.7c-2.3-.1-.9,2.2-2.6,3C715.5,47.2,718.1,44.5,716.3,42.7Z"/><path d="M579.2,48.3c.5.4.7,1,1.8.9a4.27,4.27,0,0,0,1.1-2.1C580.6,46.9,579.5,47.3,579.2,48.3Z"/><path d="M540.8,49.5c1.2,1,3.8.3,3.8-1.6a2.21,2.21,0,0,0-3.1-.2A2,2,0,0,0,540.8,49.5Z"/><path d="M578.9,48.1c-.8-1.8-2.1-1.7-4.5-1.4v1.5C576.1,48.3,577.9,49.7,578.9,48.1Z"/><path d="M660.8,44.8l.9,1.5c2.5-.1,4.8,1.3,5.3-1.3C666.4,41.6,661.7,41.8,660.8,44.8Z"/><path d="M507.1,47.5c-1.3.1-1.3.4-1.8-.5a7.84,7.84,0,0,1-2.1.9c0,1,.8,1.2,1.2,1.8.9-1,2.3-.1,3.2-.7C507.9,48.1,506.7,48.7,507.1,47.5Z"/><path d="M643,44c.6-5.1-8.8-6.1-7,1.3C638.4,45.3,642.7,47.7,643,44Z"/><path d="M477,48.8c.2.8,2.1.7,2.6.2C479.3,46.9,478,48.1,477,48.8Z"/><path d="M485.8,35c1.1-.2,1.4.3,2.4.3,3.6-1.2.3-4.4-.7-5.9-4.4.1-5.1,3-7.8,5.2-.6-.1-.6-.8-1.5-.6-1.2,1-1.8,2.6-3.2,3.3a20,20,0,0,0,1,2.6c1.4.3,1.2-.9,2.3-1,.3,2.7,4.5,2.2,2.7,5.3.6,1.6,2.6,1.7,2.2,4.4,4.2-.3,5.4-3.5,7.3-6.1C486.4,41.3,487.7,37.1,485.8,35Z"/><path d="M779.8,41.3c.6-1,1.6-1.8,1.7-3.3C779.7,37.7,779.6,40.6,779.8,41.3Z"/><path d="M532.4,45.8c2.2,1.5,6.4-.2,8.6-1.7V42c1.1-.9,3.1-1.1,2.9-3.3a10,10,0,0,0-7.6,2.3c.1-.1.1-.2.2-.3-.3-.5-2.1-1-2.7-.2.6.2,1.5,1,2.1.9A18.33,18.33,0,0,0,532.4,45.8Z"/><path d="M509.8,35.4c-4-3.5-7.4-.2-10.3,2.6,1.6,4.1-5.1,1.8-5.2,5.1,1.8,6.9,9.2,1.8,9.6-3.2C506.3,38.8,508.9,38,509.8,35.4Z"/><path d="M584.5,44.7h.5c0-.8.5-.6,0-1.2h-.5C583.9,44.1,584.5,43.9,584.5,44.7Z"/><path d="M559.3,42a2,2,0,0,0-.3,1.5c1.3.1,1.2,1.6,2.7,1.4,0-2.7,3-2.7,4.3-4.2a45.2,45.2,0,0,0,5.2-.2,1.55,1.55,0,0,0,1.6.8c.2-.4.6-.7.8-1.1a15,15,0,0,0,4.2-1.5c-.4-.7-1.7-1.6-.3-2.4-1.2-.5-2.4-1.1-3.6-1.7a14.26,14.26,0,0,0-2.7.9c-2.6.1-3.7-1.2-5.6-.8s-2.3,3.1-4.4,3.9c-1.3.6-2.2-.6-3.5.7a2,2,0,0,1-.3,1.5A7.61,7.61,0,0,1,559.3,42Z"/><path d="M470.1,46.6c2.8-1.5,7-1.7,8.7-4.3.2-.9-.9-.7-.6-1.8-3.4.1-4.8.9-8,.2C469,42.1,468.3,45.2,470.1,46.6Z"/><path d="M772.1,37.3c-1.6,0-2.5.5-2.9,1.5q.6,1.2,2.7.9C771.6,38.6,772.2,38.3,772.1,37.3Z"/><path d="M575.5,41.6c-1.4-1.3-3,.8-3.8,1.8C573.6,45,574.5,42.5,575.5,41.6Z"/><path d="M721.6,38.7a4.1,4.1,0,0,0-2.7,1.5C720.1,41,721.9,40.4,721.6,38.7Z"/><path d="M552.4,40.1c-.9.1-1-.8-2.1-.5-1.2,1.6-3.7,2.1-4.6,3.9C547.8,45.2,551.8,43,552.4,40.1Z"/><path d="M526.5,41.8c-1.6-.5-4.4.8-3.2,3C525,44.5,525.8,43.3,526.5,41.8Z"/><path d="M670.4,37.2a2.62,2.62,0,0,0,1.5,3.5h0a2.56,2.56,0,0,0,2.1,0C674,38.2,672.6,37.2,670.4,37.2Z"/><path d="M459.7,43.3c-1.1.1-.6,1.8-2.3,1.3C457.2,46.8,461,44.7,459.7,43.3Z"/><path d="M758.5,38.2c.3-.6.3-1.7.8-2.1-.5.1-.6-.3-1.2-.3a3.45,3.45,0,0,0-1.2,2.1C757.9,37.7,757.8,38.4,758.5,38.2Z"/><path d="M741.9,32.7a8.67,8.67,0,0,0-2.7-1.4c-2.5,1-3.7,4.3-2.2,7.4C740,38.1,740.8,35.3,741.9,32.7Z"/><path d="M593,40.9V39.7c-1.3,1.3-5-.9-5,1.9C589.9,42.5,591.1,40.4,593,40.9Z"/><path d="M699.6,36.3c1.3,2.1,4,2.9,5.7.8-.2-2.9-.3-5.8-2.5-6.5C701.1,31.9,700.4,34.1,699.6,36.3Z"/><path d="M634.4,38.8c-.7-.6-2.5-.8-2.7.4,1.1-.1,1.1.9,2.1.8C633.9,39.6,634.3,39.3,634.4,38.8Z"/><path d="M621.7,40.3c1.3-.2,2.5-.5,2.7-1.8C622.8,38.5,621.7,38.9,621.7,40.3Z"/><path d="M795,30.3a1.85,1.85,0,0,0-1.3,2.3.76.76,0,0,0,.2.4c1.7-.5,1.6.7,1.5,2,.4.6.7-.4.9.3-.2,0-.4.1-.3.3,1.3-.4,2.1-1.3,3.5-1.6C797.9,32.8,795.3,32.7,795,30.3Z"/><path d="M686.9,35.7c2,3.6,6.3,1.6,5.3-3.1C690,31.4,687.1,33.2,686.9,35.7Z"/><path d="M776.7,34.9c.3-1.3,0-1.3-.1-2.7-1.5.2-2.5-.7-3.2.3C773.4,35,774.8,35.2,776.7,34.9Z"/><path d="M752.5,32.1c-1.8-1.1-5.3-.4-5,2.2C749.3,35.7,753.6,36.9,752.5,32.1Z"/><path d="M631.1,37.1c-.1.4-.5.6-.3,1.2H632a1.61,1.61,0,0,1,.3-.9C631.8,37.5,631.6,37.1,631.1,37.1Z"/><path d="M756.9,33.2c2.1,1.8,5.2,1.1,7.7,1.9,1.2-4-2.1-5.2-5.1-5.2C758.5,30.9,757.1,31.5,756.9,33.2Z"/><path d="M726.1,32.4c-.6,2,1.5,1.8.7,3.3,2.6.6,1.6-3.2.8-4.2C727.3,32,726.6,32.1,726.1,32.4Z"/><path d="M712.6,34.5c2.4,1.3,5.2,1.6,5.3-1C718.1,29.8,711.7,30.5,712.6,34.5Z"/><path d="M677,28.8c-2.8.2-2.9,4.5-1.6,7.1C682.8,38.9,681.7,28.4,677,28.8Z"/><path d="M518.3,36.7c-2.3,0-3.7.7-4.5,2a7.72,7.72,0,0,0,.2-1.5c-1.7-.6-2.5,1.7-4.6,1.6,0,1.3,1.2,1.2,1.4,2.3a25,25,0,0,1-3.8,1.5,4,4,0,0,0,.7,2.6c3,0,3.3-2.6,6.4-2.5.4-.9,1-1.7.5-2.7a5.66,5.66,0,0,0-1.8.3,3.07,3.07,0,0,0,1-1.5c1.2.3,4,.1,5-.7C518.8,37.2,517.7,37.4,518.3,36.7Z"/><path d="M663.9,35.3c3.3,1.6,4.5-2.2,2-3.3C663.7,31.9,662.5,33.7,663.9,35.3Z"/><path d="M586.3,33.4c-.4.2-.4,1-.6,1.5.4.1.6.4,1.2.2C587,34.5,587.3,33.5,586.3,33.4Z"/><path d="M503.2,33.1c.2-1.5.9-3.4-.1-4.4a6.75,6.75,0,0,0-1.4.2v-.2a1.24,1.24,0,0,0-1.5.5,20.5,20.5,0,0,0-7.1,3.5C493.8,38.8,500.1,34.5,503.2,33.1Z"/><path d="M754.5,29.7c.9-.3.8.4,1.5.3,0-1.1.3-.8,0-1.8Q754.35,28.2,754.5,29.7Z"/><path d="M695.9,27.4c-.2.7-1.1.7-.9,1.8a4.42,4.42,0,0,0,4.5,1.1C699.3,28.3,698.2,27.3,695.9,27.4Z"/><path d="M684.6,26.5c-.5.6-.1,2-.2,3a15.06,15.06,0,0,0,3.5,1.4c.5-.4.2-1.5.3-2.4C685.7,29.2,686.7,26.2,684.6,26.5Z"/><path d="M546.8,28.7c-1.4,1.6-1.1,3.1-.5,5.3,4.2.2,5.3-2.4,6.5-4.9-.7-1.6-1.9-1.3-3.2-.8-.4-1.4-1.3-2.4-2.7-.8a1.29,1.29,0,0,1,.1,1.2Z"/><path d="M526.5,31.8c-1.3,0-1.5.8-2.9.7C523,35.1,526.9,34.7,526.5,31.8Z"/><path d="M743.2,27c.1,1.4.5,2.7,2.4,2.3,0-1.2,1.2-1.5.8-3.2A16.81,16.81,0,0,1,743.2,27Z"/><path d="M579.8,33c.1-.2.7-1.1,0-1.2-.1.4-.7.3-1.2.3V33C579.4,33,579.2,32.5,579.8,33Z"/><path d="M590.9,27.1a17.55,17.55,0,0,0-1.2-3.2,4.23,4.23,0,0,0-4.1,1.9h-.1c-.1-.2-.2-.5-.3-.7-.9,0-1.2.6-2.3.5,0,.1-.1.1-.1.2a22.11,22.11,0,0,1-2.5-.5c-2.5,2.4-5.5-2-7.9,1.4.3,1.2-.1,1.9.2,2.9,4.1-1.2,9.5,1.2,14.2-.6.7.9,1.5,1.5,2.1,2.4-1.7.5,0,2.8-.3,3.5a5.92,5.92,0,0,0,.7-2.9c.1.2.2.3.2.5a10.46,10.46,0,0,0,3.8-1.9,2.54,2.54,0,0,0-1.4-3.3A3.55,3.55,0,0,0,590.9,27.1Z"/><path d="M471.5,29.7c-.9.6-1.2,1.8-2,2.7,1.1.8,1.2,2.6,3,2.6,1.4-1.6-.5-3-1-4.4C471.5,30.2,472.8,29.6,471.5,29.7Z"/><path d="M457.9,32.7a2.86,2.86,0,0,0,.1,2.4,3.23,3.23,0,0,0,2.7-.4c2.6.4,6.8-.1,7.6-2.8C465.8,30.5,460.8,31.8,457.9,32.7Z"/><path d="M514.1,31.7c-1.2,0-2.2.2-2.1,1.5C512.8,32.8,514.1,32.9,514.1,31.7Z"/><path d="M754.4,27.4c1,.7,2.8.1,2.3-1.5C755.4,25.8,754.9,26.5,754.4,27.4Z"/><path d="M450.9,32.2c-.8-.6-1.2.5-1.8-.3.1-1.1-.2-1.9-.9-2a4,4,0,0,0-2.3,3.3c1.5.5,2.5,1.6,5,1.1C450.5,33.4,451,33.4,450.9,32.2Z"/><path d="M760.8,19c-.2,3.1-3.1,4.5-2.2,7.7C764.6,27.4,766.1,19.2,760.8,19Z"/><path d="M751.7,25.7c.6-1.6.2-3.8-1.3-4.1a5.47,5.47,0,0,0-3.5,2.2c.2,1.1,1.2,1.3,1.2,2.6C749.3,26.2,750.5,26,751.7,25.7Z"/><path d="M662.7,27.3c.7.2,1,.8,1.5.3C664.3,26.7,662.8,26.4,662.7,27.3Z"/><path d="M723.3,20.1c-1.6,1.6.1,3.8-.5,5.9C729.7,28.8,729.9,17.5,723.3,20.1Z"/><path d="M690.7,20.2c-2.5-.1-3.6,2.7-2.3,4.8C693.6,28.4,695,20.4,690.7,20.2Z"/><path d="M706.1,22.8c-.6-2.9-4.9-4-6.8-1.6C699.1,25.2,704.6,25.4,706.1,22.8Z"/><path d="M438.5,22.7c-.8-1.7-2.9-2.2-5.6-1.9a4,4,0,0,0-1.1,3.9C434.9,24.9,436.5,23.5,438.5,22.7Z"/><path d="M699,10.8c-2,6.2,5.4,5.8,4.5,1.4C703.2,10.6,700.9,9.6,699,10.8Z"/><path d="M715.4,13.8c0-1.6-1.9-1.1-2.1,0C713.6,14.4,715.2,14,715.4,13.8Z"/><path d="M725.9,34.5c-1.3-.1-1.5.9-2.7.9-.2,1.9.9,3.1,1,3.8.3-.8,1.4.5,1.8-.3.2-1.2-.9-.9-.7-2,.3-.8,1.2.7,1.1-.6C725.5,35.9,726.3,35,725.9,34.5Z"/><path d="M5,38.7c1.2.1,3.7.3,5.2-.5C10,35.3,3.4,34.8,5,38.7Z"/><path d="M28.7,34.8c.1,1.3,0,2.8.9,3.2,2.6.3,2.9-2.7,1.7-4A7.86,7.86,0,0,0,28.7,34.8Z"/><path d="M51.4,33.5c.4,2.3.3,5.3,3.1,4.8C57.3,36.2,54.2,31.3,51.4,33.5Z"/><path d="M57.7,34.4c.1,1.1.3,2,1.3,1.9a3.61,3.61,0,0,0,1-2.8C59.1,33,58.5,34.1,57.7,34.4Z"/><path d="M64.6,38.8c1.6.2,3.1.2,4.1-.7-.6-1.6-.4-3-.7-4.4C64.7,30.9,62.5,35.4,64.6,38.8Z"/><path d="M127.5,31c.1-.9,1.2-.8,1.3-1.6-1.8-1.2-3.8.9-5.5,1.4.4,1.8,1.6,2.6,2.4,4,.7-.1,1.4-.1,2.1-.2C128.1,33.2,128.4,32,127.5,31Z"/><path d="M112.3,32c.1,1.2.7,1.6.2,2.7,1.2-.2,1.7.4,3,0,.3-1,.7-2.4,0-3.5C114.2,30.5,113.4,31.6,112.3,32Z"/><path d="M76.2,35.8c.5,0,.2,1,.7,1.1a6.2,6.2,0,0,0,3.2-.9c0-.4-.1-.8-.1-1.2C78.7,34.7,76.8,34.5,76.2,35.8Z"/><path d="M141.8,31.8c-1.9-1.6-6-1.6-4.9,2.5a10,10,0,0,0,2.4.4C140,33.6,141.6,33.3,141.8,31.8Z"/><path d="M46,43.1c.9,1.2,4,.8,5.3-.2C50.7,39.1,47.1,41,46,43.1Z"/><path d="M61.2,40a2.16,2.16,0,0,0,1,2.8c.1.1.2.1.4.1a5.12,5.12,0,0,0,.1-3C62.1,39.9,61.6,40,61.2,40Z"/><path d="M42.5,47.6c.5.6,1.6.5,2.7.3,0-1,.8-1.4.7-2.4C44.3,43,41.7,45,42.5,47.6Z"/><path d="M66.5,44.3A3,3,0,0,0,65,47.4a6.65,6.65,0,0,0,2.4.7,2.33,2.33,0,0,0,.1-3.2A2.07,2.07,0,0,0,66.5,44.3Z"/><path d="M144.7,37.5c0,1.1-.3.9.2,1.7,1.1-.3,1.2.7,2.4.4C147.9,38.3,146.3,37.2,144.7,37.5Z"/><path d="M129.2,43.6c2-.7,1.4-2.1.8-3.9C126.2,38,127.2,42.4,129.2,43.6Z"/><path d="M104.2,44.6c1,.2.4-.9.5-1.5-1.3-1.3-3.5-1.1-3.5,1.5,1.2.4,1.3,1.4,2.8.7-.1.9.4,1.1,1,1.4a1.33,1.33,0,0,0-.4-1.9A.52.52,0,0,0,104.2,44.6Z"/><path d="M203.3,36.3c.7.2,1.1.7,2.1.4.7-.6.5-1.8,0-2.7C203.8,34,202.9,34.5,203.3,36.3Z"/><path d="M141.8,42.2c-.6-.1-.1-1.5-.7-1.7-1.7-.4-1,1.2-2.3,1.1C138,43.9,141,43.8,141.8,42.2Z"/><path d="M166.6,41c-.5-6.7-10.1,3.1-2.3,4.1C164.7,43.1,166.8,42.8,166.6,41Z"/><path d="M177.4,45.3a24.61,24.61,0,0,0,.6-6.6c-3.2-3.4-8,1-5.2,4.9C174.7,43.8,175.8,44.9,177.4,45.3Z"/><path d="M303.3,26.7c-.3,0-.6.1-.9.1,0,.7.2,1.2,1,1.1C303.4,27.5,303.3,27.1,303.3,26.7Z"/><path d="M151.4,40.2c-.2,1.1-.1,2.4-.3,3.6,1.1,0,1,1.4,2.2,1.3a14.29,14.29,0,0,1,2-1.4c-.4-1.4-1.3-2.2-1.8-3.4C152.5,40.6,152.3,40,151.4,40.2Z"/><path d="M202.6,38.7c-.3-1.5-1.7-1.6-2.3-2.8-4.3,0-3.9,4.7-2.7,6.8A7.47,7.47,0,0,0,202.6,38.7Z"/><path d="M243.8,34.9a13.26,13.26,0,0,0,2.6,2.7c.3.4,1.7-.6,2.3-.8C250.9,32,245.1,31.2,243.8,34.9Z"/><path d="M211.4,41.5c5.3-3.2-4.7-8.9-2.7-.9C209.6,40.8,210.7,42.1,211.4,41.5Z"/><path d="M237.8,34.8c-1.5-1.1-2.9-.6-5-.2-1.1,2.6.7,4.2,3.3,4.2C236.5,37.3,237.8,36.5,237.8,34.8Z"/><path d="M285.5,30.3c-4.4-.5-4.7,5.8-.9,6.9C286.7,35.9,287.1,32.6,285.5,30.3Z"/><path d="M226.2,37c-.8-1.8-2.4-.4-4.5-.5-1.6,2.1-.8,3.8,0,6.5,2.2,0,3.2-1,4.7-1.6C225.2,39.8,226.4,38.6,226.2,37Z"/><path d="M291.1,32.5c-.6,2.7-2.1,4.6-2.6,7.3,4.1.6,4.1,6.2,7.1,8,2-.9,2.8-2.8,2.9-5.3-2.7-2.6-2.6-7.8-.9-10.9C294.9,30.5,293.5,31.5,291.1,32.5Z"/><path d="M279.4,37.8c.2,0,1.4.4,1.4-.2-.8-.3.7-.8.5-1.5C280.3,36.4,279.5,36.8,279.4,37.8Z"/><path d="M142.8,49.6a1.27,1.27,0,0,0,.6-.1c0-.2,0-.4.2-.3a1.27,1.27,0,0,0-.1-.6c-.2,0-.3,0-.3-.3a1.27,1.27,0,0,0-.6.1c0,.2,0,.4-.3.3a1.27,1.27,0,0,0,.1.6C142.6,49.3,142.8,49.3,142.8,49.6Z"/><path d="M180.2,46.9c.9,1,3.3,1,3.5-.6a18.87,18.87,0,0,0-3.4-.9A3.81,3.81,0,0,0,180.2,46.9Z"/><path d="M230.5,41.9c.6.2.8.7,1.8.4C232.6,40.4,230.7,40.9,230.5,41.9Z"/><path d="M263.8,39.3c-.3,1.6,1.9,1.6,3.4,1.5C267.4,38.8,265.1,38.5,263.8,39.3Z"/><path d="M139.5,53.7a28,28,0,0,1,2.8.6c.4-1,.3-2.4,1.5-2.8C142.7,48.6,138.7,50.5,139.5,53.7Z"/><path d="M122.6,56.1c.3,0,.7-.1,1.1-.1a2.5,2.5,0,0,1,1.6-2.5C123.7,52.4,122.4,54,122.6,56.1Z"/><path d="M163,53.2c.7.9,2.2.8,3.9.5.2-1.5,1-2.8.2-4.5C164,49.1,162.7,50.5,163,53.2Z"/><path d="M173,49.3c-.3,1.6-.7,3.8.7,4.7a9.67,9.67,0,0,0,5.5-1.7C179.9,48.9,176,48,173,49.3Z"/><path d="M429.9,28.2c.8,2.1.9,3.9,3.4,4.4a5.3,5.3,0,0,1,4.3-1.6c.1-1.5,1.9-1.7,1.8-3.4C437,26,432.4,26.6,429.9,28.2Z"/><path d="M190.7,51.6c-.1-2.9-3.7-3.8-5.5-1.9C185.2,53.4,188.9,53.3,190.7,51.6Z"/><path d="M202.5,50.9c-.1.1-.4-2-.5-2.1-.6-.9-1.7-1-3-.6C196.4,52.4,201.9,54.6,202.5,50.9Z"/><path d="M151,52.7c.1,1.2,1,1.4,2.2,1.3,0-.7.4-.9.1-1.8C152.5,52.3,151.4,52.2,151,52.7Z"/><path d="M234.9,45.7c.1,1,.1,2.1,1.1,2,.6-.2-.1-1.6.4-1.8C235.8,46.1,235.8,45.4,234.9,45.7Z"/><path d="M270.3,42.9a20,20,0,0,0,.9,3.5c.7-.1,1.3-.1,2-.2.3-1.5,1.6-2.2,1.8-3.7A14.73,14.73,0,0,0,270.3,42.9Z"/><path d="M210,48.5c.1.8.1,1.6.2,2.4a2.18,2.18,0,0,0,2.3-.5C212.6,48.3,211.4,47.9,210,48.5Z"/><path d="M248.4,47.2c.4-.5-.1-1.5-1-1.4C246.8,46.5,247.5,47.3,248.4,47.2Z"/><path d="M258.6,44.8a2.56,2.56,0,0,0,0,2.9c1.2.2,1,0,2.4-.2a13.36,13.36,0,0,1,.7-1.8C260.1,46.1,260.5,44,258.6,44.8Z"/><path d="M403.6,32.3c.1.9-.7,1-.4,2.1.8.7,1.5-.3,2.6-.2A3.49,3.49,0,0,0,403.6,32.3Z"/><path d="M468.5,28.1c-.4,0-.6-.4-1.2-.2a2.77,2.77,0,0,0,.1.9C468,28.8,468.4,28.6,468.5,28.1Z"/><path d="M413.2,37.3c2,.1,4.8,1.4,6.1-.8-.6-1.1-1.6-1.7-2.1-3.1a3.93,3.93,0,0,0-4,3.9Z"/><path d="M292,46.1c.2,1.8-1.3,2-2.5,2.6-.1.9.6.8.5,1.7,1.5.6,2.6,0,4.1-.6C294.6,47.5,292.2,47.5,292,46.1Z"/><path d="M201.6,54.5c-1-.5-3.4-.2-3.1,1.2C199.8,56.5,201,55.7,201.6,54.5Z"/><path d="M279.4,48.1c-.3.6-1.6.9-.7,1.6C279.4,49.7,280.2,48.4,279.4,48.1Z"/><path d="M237.8,57.3c.3,3.2,3.6,3.8,5.3,6.1,3.7.2,6.3-1.5,7.1-4.2a19.59,19.59,0,0,0,.5-4.8C249.6,49.3,237.3,51.8,237.8,57.3Z"/><path d="M429.1,36.8c.9.2-.6.5-.2,1.2,1.5-.1,1.9-1.2,2.5-2C430.7,35.5,429.9,36.6,429.1,36.8Z"/><path d="M177.4,59c-3.8-.6-4.6,3.7-2.5,5.6a4.34,4.34,0,0,0,4.2-2.7C179,60.3,177.5,60.5,177.4,59Z"/><path d="M200.6,57c-2.9,2.2.8,5.3,1,7.3C205.6,62.8,205.6,56.1,200.6,57Z"/><path d="M282.7,51.9c-.2.8-.1,1.7-.7,2.1a3.41,3.41,0,0,0-2.2-.7c0,1.1.3,2,1.1,2.3,1.7-.9,3,1.6,4.9,1.6.9-.9,2.2-1.4,3.1-2.3-.1-2.5-2.1-3-1.9-4.9C284.9,49.9,284.5,51.3,282.7,51.9Z"/><path d="M345.1,50.9a13.59,13.59,0,0,0,2.1-3.7C344.8,42.9,341.6,49.6,345.1,50.9Z"/><path d="M347.4,46c.3,1.8,1.8,2.1,3.1,1.2C350.6,45.1,348.5,45,347.4,46Z"/><path d="M187.6,60.2c.1.7.1,1.4.2,2a3.31,3.31,0,0,0,3.8,0c-.2-1,.1-2.4-.5-2.9A20,20,0,0,0,187.6,60.2Z"/><path d="M227.7,60.9c-.9-2,.4-2.7-.4-4.4-2.4-.8-2.9,1.8-2.9,3.8A6.28,6.28,0,0,0,227.7,60.9Z"/><path d="M324.9,53.3c0-2.1-.3-4-1.3-4.9-4.1-.7-6.2,2.2-6.3,5.6.8,0,.9.7,1.2,1.3A11.27,11.27,0,0,0,324.9,53.3Z"/><path d="M517.4,31.6c-.4.9.1.9-.1,2.1,1.4.2,1.8,1.5,3.6,1.2a2.79,2.79,0,0,0-2.4-3.3h0A2.05,2.05,0,0,0,517.4,31.6Z"/><path d="M214.8,59.6c-1.2-1.1-2.2-1.6-3.6-.3-.1,1.7.9,2.2,1.7,2.8C214.2,61.8,214.5,60.7,214.8,59.6Z"/><path d="M376.9,49.7a5.78,5.78,0,0,0,3.6,1.2c2.3-1.2,2.8-3.8,3-6.8-.4,0-.5-.5-.9-.5C381.2,46,375.5,44.9,376.9,49.7Z"/><path d="M572.3,28.5c-.7-.7-1-.1-2.4-.1C569.9,29.9,571.9,29.1,572.3,28.5Z"/><path d="M355.8,47c-.7,2.1.9,3.5,2.7,3.6-.2-1.9,2.6-1.2,2.1-3.4C359,46.5,357.7,47.4,355.8,47Z"/><path d="M446.6,39.5c.2.4-.2,1.5.4,1.5,0-.4.1-.7.6-.6a1.84,1.84,0,0,0,.4,2c1.2.1,1.4-.5,2.4-.5C450,40,448,40.1,446.6,39.5Z"/><path d="M394,45.2c-.3.4-.2,1.1-.2,1.8a2.3,2.3,0,0,0,1.7-1.6A2.62,2.62,0,0,0,394,45.2Z"/><path d="M402.7,46.8c.9.6,3.1.2,2.5-1.4C404.3,43.8,402.8,45.4,402.7,46.8Z"/><path d="M523.6,34.3c-.5,1.4-1.4,3.4-.4,5.1,1.3-.1,1.7.7,2.6.1.3-1.6,2.2-1.9,3.3-3C528.7,33.4,525.9,34.3,523.6,34.3Z"/><path d="M427.9,42.9c-.6,1.6.7,2.9,1.9,2.2a3.31,3.31,0,0,0-.7-2.3A4.87,4.87,0,0,0,427.9,42.9Z"/><path d="M289.1,57.9c-.1,1,.3,1.3,1.2,1.1a1.4,1.4,0,0,1,.3-.9A1.6,1.6,0,0,0,289.1,57.9Z"/><path d="M324.5,56a28.15,28.15,0,0,0-4.1-.2c.5,2.7,0,5.1.1,8.3,2.3,1.9,4.8-1.3,5.7-3.2C324.8,59.7,324.3,58.7,324.5,56Z"/><path d="M292.4,60.9a4.05,4.05,0,0,1,.9.5C297,60.5,291.8,56,292.4,60.9Z"/><path d="M327.5,55.8c-.5.5.2.8.4,1.5,1.6-.5,2.3.2,3.3.3C331.3,55.3,328.4,56.7,327.5,55.8Z"/><path d="M317,57.9c-.3,1,1.8.6,1.8.2C318.4,57.7,317.7,57.8,317,57.9Z"/><path d="M587.8,39.9a5.7,5.7,0,0,0,.1-1.3h.2a.78.78,0,0,1,.9-.6c0-.7-.4-.9-1.1-.9a2.79,2.79,0,0,0-.8-2c-1.4.3-1.9,1.4-3.2,1.8a7.2,7.2,0,0,1-2.7-1.5c-.5,1.2-1.6,1.8-1.4,3.6,1.7.4,2.8-.2,4.2-.6C584.5,40.1,585.8,40.4,587.8,39.9Z"/><path d="M225.6,67.3c1.2,1.4-2.4,4.5,1.3,5.2,1-1.4,2.5-2.3,2.9-4.1C228.7,67.7,227.7,66.8,225.6,67.3Z"/><path d="M356.1,56.8c.8.9-.3,2.3.5,3.2,1.3-1.1,2,1.2,3.3,0C359,57.1,359.8,56,356.1,56.8Z"/><path d="M201.3,71.5c1.5-.1,2,1,3.6.9C206.1,70.1,201.7,69.3,201.3,71.5Z"/><path d="M190.6,71.5a2.38,2.38,0,0,0-1,2.5c.4,0,.8-.1,1.2-.1-.3-1.1-.6-.7.5-.7C191.8,72.7,191.1,71.9,190.6,71.5Z"/><path d="M212.8,69.9c-.1,1.9,3,2.1,3,.3C215.1,69,214,69.7,212.8,69.9Z"/><path d="M345,59.6c.9-.5,2.1-.7,2.2-1.7C346.2,58.2,345,58.4,345,59.6Z"/><path d="M311.2,66.9c1.6-1.4,1.8-2.4,2-4.9-3.7,0-5.6,1.5-7.8,2.7C308.7,64,309.5,66,311.2,66.9Z"/><path d="M287,64.6c.2.4-.2,1.5.5,1.4.2-.5.9-.5,1.4-.7C288.9,64.2,288,64.5,287,64.6Z"/><path d="M297.6,66.9c1.6.1,1.7-1.1,1.8-2.2-.8-.1-1.3-.6-2.1-.7C296.5,64.7,296.9,66.3,297.6,66.9Z"/><path d="M285,65.4c-.6,1.7,1.6,4.3,3.3,3.3C287.3,67.4,286.7,65.7,285,65.4Z"/><path d="M454.1,53.7c1.8,0,2.1-1.2,2.4-2.3a10,10,0,0,0-2.4-.4C454.1,51.9,453.2,52.8,454.1,53.7Z"/><path d="M645.7,35.2a1.1,1.1,0,0,0,.3,1.5h0a1.85,1.85,0,0,0,.7.2C646.5,36.2,646.5,35.1,645.7,35.2Z"/><path d="M398.7,58.8c-.2,1.1,1.2.3,1.9.4C400.7,58.1,399.1,58.3,398.7,58.8Z"/><path d="M284.9,74.6c-.6,1.4.9,1.2,1.2.2C285.7,74.7,285.5,74.4,284.9,74.6Z"/><path d="M380,68.1a2.51,2.51,0,0,0,.9,2.9c0-.4.6-.4.8-.6C381.4,69.3,380.3,69.1,380,68.1Z"/><path d="M280.6,42.6c-.3,3.8,2.5,3.8,4.6,4.6,1.5-.3-.3-.5-.1-1.2.6-.7,2.6-1.5,2-4C285.3,40.5,282,40.1,280.6,42.6Z"/><path d="M.8,28.1a8.25,8.25,0,0,0,1,2.6c2.2,1.9,7.1,1.1,9.3,3.6l3-.3c2.4,1.5,1,4.1,3.2,6.2,2.5-.1,3.9-1.1,5.5-2,.2-2.4-1-3.2-1.1-5.2.8.5,1.4-.8,2.9-.6.8-.4,0-2.2.9-2.4l3.8-.9c2.1.3,2.7,2.5,3.4,4.4,2.2.2,3.3,1.7,5,2.5,2.1-1.1,2.8.7,4.2-.1.5-.7,0-2.2.6-2.7,4.4-.3,6.4-2.2,9.1-4.4,1.2.1,1.3,1.3,2.5,1.3,1.9-1.9,5.2-.8,7.6-2.1,1,1.9,4.7.7,6.9,1.8.4.1.7,1.4.7,1.4,3,2.2,5.5-1,7.2-3,3.2.6,6.1,4.4,9.6,1.5.5,2.4.5,7.5,3.9,6.5,2.3-.7,0-4.4,2.4-5.9,3.1-.9,4.7,0,6.1,2.2-.9,6.3,6.7,3,8.1.2-.7-5.3.9-7.3,4.7-7.8,1.9-.3,4,1.2,5.7,1,1.2-.1,2.1-1.2,3.1-1.5,2.8-.7,5.6,1,8.3-.1,2.7.6,3.4,3.7,6.6,3.9,2.9-6,8.8,2.7,13.2-1.1.2.4.6.5.7.9a7.71,7.71,0,0,0-.1,5.4,7.11,7.11,0,0,0,4,1.1c.5-1.4.2-3.4,1.8-3.7,0-1.1-1.4-.8-1.1-2.3.6-.1.5-.9,1.1-1,5.1.1,5.6,5.6,8.4,8.5,3.3,1.1,6.9-.5,9.4-.2,1.1.1,1.8.9,3.1.9,3,0,6.7-1.9,9.2.4.5,3,.7,6.3,4,5.9a12.69,12.69,0,0,1,3.2-4.7c-1.4-1.1-3.7-1-4.4-2.9,2-2,3.2-1.1,6.2-.8.7-.4.1-1.9,1-2.2,3.1-.1,6.4,1,10.1,0,1.5-.4,2.7-1.9,4.3-2.2,3.2-.5,8.1,1.1,9.4,2.2,2.6.1,4.4-2.6,7.2-3.3,4.9-1.2,10.1,1.4,15.5,1.3,1.3,0,1.2-1.3,2.2-1.4a8.06,8.06,0,0,0,7.1.3c1-.4,1.4-1.6,2.6-1.7,6.7-.7,2.2,8.9,6.4,9.5,3.6.5,2.3-4.1,3.9-6.3,1.7,1.1,2.9.3,4.3,1.4,1.7,1.3,1.7,4.4,4,4.4,4.3,0,1.4-3.7,1.5-6.7s2.9-4.8,6.5-4.4c2,.2,4.7,2.4,6.9.6,1.7-1.4,2.1-9.8,4.7-10.2,3.7-.6,1.9,4.7-.2,4.8-.2,5.1,4.7,3.9,6.5,6.6.8-.5,2.3,0,2.9-1.2-.2-3.3-1.3-7.3,1.6-8.7,2.3,0,1.8,2.6,2.5,4.2.9,2.1,2.5,4.1,2.1,7.3-1.9,3.3-2.4,7.8-6.6,9.2,0,1.8.7,2.9,2,3.1.9-.1,2.2-1.4,3.2-.6.5,2.4-1.5,2.7-1.3,4.8,3-.7,6.4,1.6,4.2,4.1-.7.1-1.3.1-2.1.2-.4-1.2-.5-2.9-1.8-3.1-3.4.7-2,5.4-4.7,6.7-1.7-.7-3.1-1.8-5.4-.7-.4,1.5.1,2.3.3,3.8,1.2.9,3.5,1.7,5,.5.6.7,1.1,1.5,1.7,2.2,2.6-.8,2.4,1.6,4.6,2,.9-2.2,2-6.1,5.8-4.7-.1,2.8,2,3.1,3.6,3.8.9,0,.7-.9,1.4-1-1.2-2.9.3-6.1-1.9-8.5,4.6-2,.4-5.8-1.6-7.8.8-2,1.1-4.5,3.7-5.1a3.91,3.91,0,0,0-.3-3c-1.5-.2-2.6-.8-2.9-2.4.2-1.1,1.7-1.3,1.7-1.9,1.9.1,1.8,2.5,3,3.6.7-.1,2.4,1.2,2.9,2.4-.4,2.8-7.9,3.6-5,8.4,2.1.5,5.5,1.3,7.1-.4,1.5.9,2.4,2.5,4.6,2.6,0-2.2-1.9-2.3-2.7-3.6.5-.1.6-.6.5-1.2,4-1.9,6.9,1.6,6.6,4.8-1.7.3-2.2,1.6-3.3,2.4-.5.9,1.2,1.9,1.7,2.8,3.9-.7,4.8,2.8,8.2,2.3-.4-1.8-1.7-2.3-1.6-4.6,2.6-.6,3.1-2.8,4.4-4.5,1-.7,2.3.5,3.5-.3.2-4.7,3.5-8.7,8.2-7.8,3.5,4.9,9.5,6.8,12.4,12.6,1.9.3,3.8.4,4.9-.7,0-2.9-2.5-2.9-3.1-5.1,2-1.8,3.8-.6,6.8-.6,1-.7.8-2.4,1.8-3.1,2.9-1.3,5.3.3,7.8.5,0-.6.8-.6,1.1-1-.1-1.6-.3-3.2-.4-4.7a28.84,28.84,0,0,0,5-7c4.2-.3,5.1-3.1,7-5.4,4.4-1.5,3.9,4.1,6.6,4.5,3.1.5,3.9-3.5,7.2-3.3,1.7,4.2,7.1,4,8.7,8.4,2.8.7,5.2,1.8,6.3,4.5,1.5-.2,1.8.2,2.9-.3-.2-1.3.7-1.8,1.3-2.5a5.94,5.94,0,0,1-3.3-4.1,7.15,7.15,0,0,1,4.4-3.4c-.1-2.2-1.6-2.7-1.9-4.6.2-2,2.2-1.3,3.4-2.1,2.1-1.5,3.5-4.5,7-4.8.2-1.5,1.4-2.2,2.5-2.9v.6c.2,2.4,2.4,3.3,3.1,5.6-2.7,1.9-.9,4.6-1.7,7.7,1.3.2.9-1.1,2.1-1,8,2.8,5.8-10.7,11.1-5.8-1.1,1.2-1.5,3-2.9,3.9,1.5.1,1.7,1.7,3,2,3-1.2,5.1.1,7.6-1.7-.2-2,.9-3.5.2-5,2-.7,3.3-2.1,5-3.1a2.9,2.9,0,0,1,1.2,3.2c-2.9-.1-3.2,2.3-5.5,2.8,1.6,1.2,3,3.8,5.1,4,2.3.2,4.8-1.3,7.3-1.1.6.1,1,.7,1.5.9,2.7.8,5.8-.3,8.9.1,1.7-1.7,3.4-.7,6.5-.7,2.1-1,5.5-1.3,7.3-2.6a1.38,1.38,0,0,0,1.6.5,1.18,1.18,0,0,0-.3-1.7.31.31,0,0,0-.2-.1,3.55,3.55,0,0,0,.2-1,2,2,0,0,0,1.1-.3c3.1,2.5-1.8,6.3,1.7,8.5.9-.4,1.8-.9,2.7-1.4.6,2.5,2.3,4,4.9,3.1.7-1.6.8-3.6-.7-4.7a4.33,4.33,0,0,1-1.6.1,18.67,18.67,0,0,1,3.2-1.5c.1-2.6,1.3-3.6,3.5-4.8a3.69,3.69,0,0,1,2.4,2.6c-.7.5-1,1.5-.8,3a6.8,6.8,0,0,1,6.2.4,2.16,2.16,0,0,1-.5,1.7c-2-1.1-4.7.1-2.7,3.3.9.5,2.3,1.1,3.5.3a1.88,1.88,0,0,1-.2-.8c2.3-1,4.8-.2,7-.1v2.1a2.32,2.32,0,0,1,2.1.6c.6,1.1.2,1.7.5,2.8a.76.76,0,0,0-.5-.2,2.73,2.73,0,0,0-.1,3,1.66,1.66,0,0,0,1.1-2h0a2.19,2.19,0,0,0-.3-.5c1.1-1.3,3.2-1.8,4.2-3.2-.7-.8-.5-2.4-1-3.2a1.27,1.27,0,0,0-.6-.1,3.77,3.77,0,0,0,1.1-3c1.3-1,1.3-3.1,2.6-4,1,1.7,5.3,0,6.5,1.6,3.2-.8,2.4-5.6,5.2-6.9.7,1.2,2.2,1.5,2.8,2.9-.1,4.7,2.4,5,3.4,8.5-1.2-.3-.9.9-2.1.6,0,1.5,1,2,1.5,2.9,3.4,0,5.6-2.5,8.9-1.4,2.6-1.5,3.6-4.4,5.7-6.3,1.8,0,5.5.6,7.4-.5,1.3-3.1,6.4-5.1,9.3-4.6a3.53,3.53,0,0,0-.5,3.3c1.1,1.2,3.2,1.2,4.8,2,.2,1,.9,1,.3,2.1a2.25,2.25,0,0,1,2,.9,4.74,4.74,0,0,1-1,1v.7c-.6.5-1,1.1-1.5,1.5a7.22,7.22,0,0,0,3.2.8,1,1,0,0,1,.4.5,3.15,3.15,0,0,0,1.7-.9c.7,2.7,3,3.6,4.3,5.5-1.1.9-1.3,2.7-2.3,3.6-.5.1-1.3-.4-2.1-.4,0-.2.1-.3.2-.5-.5.1-.7-.3-1.2-.2a12.75,12.75,0,0,0,0,3.9,3.14,3.14,0,0,0,2.1.5,3.7,3.7,0,0,1,.8,1.8c4-.2,5.4-4.2,8-1.4-.6,1.3-.2,1.6-.5,3-1.9,0-1.9,1.8-2.3,3.3a12,12,0,0,0,2.4,2.6c-.7,4.1,6.2,2.5,7.8,5.2-.2.8-1.2.8-1.2,1.8a5.24,5.24,0,0,1,1,1.8,16.17,16.17,0,0,1,3.8.2c-.2-1.9,1.4-2.1,1.7-3.6-1.8-.7-3.7-1.4-3.9-3.8a2.73,2.73,0,0,1,3.3-1.9,3.07,3.07,0,0,1,1.4.9,2.56,2.56,0,0,0,0,2.1c1.5,1.7,6.1,0,6.9,2.5-.6.6-.8,1.5-1.4,2.1,1.5,1,4.2,1.9,5.6.5.5-3.7-2.8-3.5-2.8-6.7a10.74,10.74,0,0,0,3.1-4.5c-1.8-1.5-3.4-3.1-4-5.8-1.6.4-2.8-1.4-4.5-1.4-1.4,0-2.3,1.4-3.5,1.6-2.9.3-4.1-1.6-4.6-5.8,2.9-.2,2.8-3.3,4.3-4.8,2.8-.1,3.3,2.4,5.7,2.8a41.36,41.36,0,0,0,5.9-3.1c2.4.3,2.6,2.9,3.9,4.4,2,.3,2.8-.6,4.7-1,.5-2.3,1.9-4.9,4.4-4.2.1,2.2.6,4.5-.5,6.5-.9,0-1.8,0-1.7.9.2,1.6,2.1,1.4,3.9,1.4a2.88,2.88,0,0,1,3.5-2,2.77,2.77,0,0,1,2.1,2.5c-1.9,2-6.3.5-6.1,4.9,2.6.4,3.3,1,6.6.7,1-1.5,1-4.2,2.8-5.1a7.42,7.42,0,0,0,3.9.5c3.1-5.1-5.5-8.9-.3-12.4.2-2.2.1-3.1,1.4-4.2,4.2.4,5.5-1.9,8.2-2.8,1.6,2.4,3.9,4.7,7.5,4.3.6-1,1.8-1.4,1.7-3,1.5-1.3,4.6-1,6.8-.7-.2-4.5-.7-8.2,4.5-8.4-.1-2.3,0-3.9-1.9-5.3-1.4-1-4.5-.2-3.3-3.5,4.6-1.2,12.6-4.8,12.3-3.8.1.7-.5.7-.2,1.5,2.5,5.3,9.9,3.9,13.1,8.6,3.9.5,9.2-2.3,11,2.1a27.59,27.59,0,0,0-.8,2.7c.8-1.7,3.2-.5,5.3-1.3-.4-2.4,2-2.1,3.2-3,3,1.5,4.3,4.7,6.6,6.9-1.1,1.2-.6,3.9-2.3,4.5.2.9,1,1,.7,2.3,4.3,1.5,3.8-3.9,6.4-4.9,1.2.7,1.5.5,2.7,1.1,1.3-1.9,1.4-5.4,2.2-6.9,2,1.1,5.3.6,5.6-1.6,2.6-.8,6.2-1.1,6.3,2.5,5.8,3.3,15.1,2.1,14.7,11.5a19.28,19.28,0,0,0,3.8-1.9c-.7-3.5,1.3-6.8,3.5-5.5-.2,2.5-.9,4.8.3,7.1.2,0,.5,0,.6.2a2.38,2.38,0,0,0,1.1-.6c2.2.7,4.4-.2,6.3-.9,2.1,2,5.6.6,8.3,1.9a9.72,9.72,0,0,0,2.9-1.9c0-1.8.3-4.3.1-7.1.9-.5,1.5-1.5,3.2-1.2a2.38,2.38,0,0,1,.6,1.1,4.13,4.13,0,0,0,.2,2.9,4.19,4.19,0,0,0,.8,3.6c-.6,1.7-2.4,2.3-2.5,4.5,2.2-.2,2.4.7,4.1,1.4.8-1.1,1.1-2.7,2.3-3.3a5.11,5.11,0,0,0,3.1-1.9c.9.4,1.2,1.5,1.8,2.4a2.12,2.12,0,0,0-1.4,1.5,2.14,2.14,0,0,0,1.8.9,41.92,41.92,0,0,0-2.6,3.3c-.6-.6-1-1.4-1.6-2.1-1.9.6-1.4,3-.5,4.5a2.33,2.33,0,0,0,1.7-1,2.69,2.69,0,0,0,.5,1.5c.6,1,2.4,1.8,4.6,1.7,2.5,1.8,3.8,4.9,6.6,6.3-.7,1.1-.3,3.2-1.1,4.2,1,.2,1.1-.5,2.1-.3.2-2,2.1-3,.4-4.5h-.4c.1-2.9.8-4.9,3-5.2,2.6-.4,4.7,2.9,7.2,3.4-2.8.8-3.7,3.4-6.8,4.3-.8,1.6-.7,4.8,1.6,4.7,1.7-2.9,8.3-1.7,8.8-5.2a1.52,1.52,0,0,0-.3-1.3,9,9,0,0,0,3,2.1,3.25,3.25,0,0,0-1.8,1c-.6,4.5,6.7,5.8,6.5,1.6,0-1.3-1.5-1.8-2.4-2.9a4.87,4.87,0,0,0-1.2.1,4,4,0,0,1,2.1-2.5,4.87,4.87,0,0,0,1.5,2.7,8.24,8.24,0,0,0,3.5-.4c2.3-.2,4.4-.1,5.5,1,.2,2.5,1.3,3.9,1.7,6.1,2.7.3,6.7-.4,6.7-4.1,2.2-.7,2.2-3.2,5.7-2.9a16.44,16.44,0,0,1,2.6,3.3h-.8c-.4,1-.5,2.7.4,3.3h.9a7,7,0,0,1,.1-2.5c1.4,1.8,3,3.1,5.9,1.6,1.7-3-1.1-7.1-1.8-10.2-1.8-.8-3.2-.2-3.7-1.8-.8-2.5,2.5-3.4,4.1-4.8.3,2.7,3.4,3.7,2.4,6.9,2.6,1.3,2.7-2.5,4.8-3.1a4.87,4.87,0,0,1,1.2-.1c2.1.7,3.3,3,5.8,2.6a4,4,0,0,0,1,1.2c.1,1.1-.5,1.8-.6,2.7a4.17,4.17,0,0,1,1.6.9v.3h.4c1.1,1.1,2.1,2.5,4.2,2.4.8-2.2,4.3-2.3,2.8-5.6-.6-.3-1.6-.2-1.9-.9a.6.6,0,0,0-.1-.4c.4-.2.5-.4.5-.9,2.2-.6,3.6,0,5.3-.5.6-.4-.3-2.1.4-2.4.5,0,1,.1,1.4.1a3,3,0,0,0,.4.8c1.7-.2,2.5.4,4.1.2,0-.1,0-.1.1-.2a23,23,0,0,1,4.3,1.8,9.31,9.31,0,0,1,3.9-4.4,5.42,5.42,0,0,1,1.5,2.9c2.2.8,4.6.4,6.8-.1a4.92,4.92,0,0,0,2.9.6c-.7,2.2-1.1,5.1.5,6.6,3.6.6,4.2-3.5,5.4-5.8.8.5,2.4,0,3.6,0,1.6,1.3,1.1,2.9,2.1,4.3a5.94,5.94,0,0,0,3.5,1.8c-1.5.8-2.3,2.2-3.3,3.5,1.7,2.8,5.2-.5,7-1.3a1.72,1.72,0,0,0-.2-1.2,4.25,4.25,0,0,1,2.3,1.4l3-.3c2.4,1.5,1,4.1,3.2,6.2,2.5-.1,3.9-1.1,5.5-2,.2-2.4-1-3.2-1.1-5.2.8.5,1.4-.8,2.9-.6.8-.4,0-2.2.9-2.4.3-.1.6-.1.8-.2.8,2.2,1.1,4.9,1.9,7.1.2-.1.3-.2.5-.3.1.7.3,1.2.7,1.4,2.4.3,2.8-2.2,2-3.6a10.63,10.63,0,0,0,1.1-.9v.1a7.08,7.08,0,0,1,3.3,1.5,5.82,5.82,0,0,0-2.6,2.3c.5,1.8-1.2,1.5-1.1,3,.4.6,2.1,2,2.1.3,3.7-1,5.4-2.2,8.8-3.2.6-2.3,2.4-2.5,4.3-3.1.3-1-1-1.6-.4-2.2.1,0,.1,0,.2-.1,1.4.2,2.8.4,3.5,1.4a3.75,3.75,0,0,0,0,2.1,3.13,3.13,0,0,0,1,.5c.3,1.4.9,2.4,2.6,2.1a3.13,3.13,0,0,0,.9-1.1,9.7,9.7,0,0,0,1.7.1,13,13,0,0,1,1-1.5.89.89,0,0,0,1,.6,3.46,3.46,0,0,0,1-2.1c.1,0,.1-.1.2-.1,1.2.8,2.5,1.6,3.6,2.5a5.84,5.84,0,0,0,.8,2.2c1.6.2,3.1.2,4.1-.7a5.87,5.87,0,0,1-.4-2.3,23.91,23.91,0,0,0,2.2-2.3,2.78,2.78,0,0,0-.3-1.8c2.6,1,4.8-1.7,6.2-3.5a7.71,7.71,0,0,1,2.5,1,5.15,5.15,0,0,0,.2,3c1.9.8,2.5-.4,2.4-1.8a4,4,0,0,0,4.6-.7c.5,2.4.5,7.5,3.9,6.5,2.3-.7,0-4.4,2.4-5.9,3.1-.9,4.7,0,6.1,2.2-.8,5.5,4.8,3.7,7.2,1.3.1,0,.2.1.3.1.2-.3.6-.8.5-1.1a.1.1,0,0,1,.1-.1h0c-.7-5.3.9-7.3,4.7-7.8,1.9-.3,4,1.2,5.7,1,1.2-.1,2.1-1.2,3.1-1.5,2.8-.7,5.6,1,8.3-.1,2.7.6,3.4,3.7,6.6,3.9,2.9-6,8.8,2.7,13.2-1.1.2.4.6.5.7.9a7.72,7.72,0,0,0-.1,5.4,7.11,7.11,0,0,0,4,1.1c.5-1.4.2-3.4,1.8-3.7,0-1.1-1.4-.8-1.1-2.3.6-.1.5-.9,1.1-1,5.1.1,5.6,5.6,8.4,8.5,3.3,1.1,6.9-.5,9.4-.2,1.1.1,1.8.9,3.1.9,3,0,6.7-1.9,9.2.4.5,3,.7,6.3,4,5.9a12.69,12.69,0,0,1,3.2-4.7c-1.4-1.1-3.7-1-4.4-2.9,2-2,3.2-1.1,6.2-.8.7-.4.1-1.9,1-2.2,3.1-.1,6.4,1,10.1,0,1.5-.4,2.7-1.9,4.3-2.2,3.2-.5,8.1,1.1,9.4,2.2,2.6.1,4.4-2.6,7.2-3.3,4.9-1.2,10.1,1.4,15.5,1.3,1.3,0,1.2-1.3,2.2-1.4a8.06,8.06,0,0,0,7.1.3c1-.4,1.4-1.6,2.6-1.7,6.7-.7,2.2,8.9,6.4,9.5,3.6.5,2.3-4.1,3.9-6.3,1.7,1.1,2.9.3,4.3,1.4,1.7,1.3,1.7,4.4,4,4.4,4.3,0,1.4-3.7,1.5-6.7s2.9-4.8,6.5-4.4c2,.2,4.7,2.4,6.9.6,1.7-1.4,2.1-9.8,4.7-10.2,3.7-.6,1.9,4.7-.2,4.8-.2,5.1,4.7,3.9,6.5,6.6.8-.5,2.3,0,2.9-1.2-.2-3.3-1.3-7.3,1.6-8.7,2.3,0,1.8,2.6,2.5,4.2.9,2.1,2.5,4.1,2.1,7.3-1.9,3.3-2.4,7.8-6.6,9.2,0,1.8.7,2.9,2,3.1.9-.2,2.2-1.4,3.2-.6.5,2.4-1.5,2.7-1.3,4.8,3-.7,6.4,1.6,4.2,4.1-.7.1-1.3.1-2.1.2-.4-1.2-.5-2.9-1.8-3.1-3.4.7-2,5.4-4.7,6.7-1.7-.7-3.1-1.8-5.4-.7-.4,1.5.1,2.3.3,3.8,1.2.9,3.5,1.7,5,.5.6.7,1.1,1.5,1.7,2.2,2.6-.8,2.4,1.6,4.6,2,.9-2.2,2-6.1,5.8-4.7-.1,2.8,2,3.1,3.6,3.9.9,0,.7-.9,1.4-1-1.2-2.9.3-6.1-1.9-8.5,4.6-2,.4-5.8-1.6-7.8.8-2,1.1-4.5,3.7-5.1a3.91,3.91,0,0,0-.3-3c-1.5-.2-2.6-.8-2.9-2.4.2-1.1,1.7-1.3,1.7-1.9,1.9.1,1.8,2.5,3,3.6.7-.1,2.4,1.2,2.9,2.4-.4,2.8-7.9,3.6-5,8.4,2.1.5,5.5,1.3,7.1-.4,1.5.9,2.4,2.5,4.6,2.6,0-2.2-1.9-2.3-2.7-3.6.5-.1.6-.6.5-1.2,4-1.9,6.9,1.6,6.6,4.8-1.7.3-2.2,1.6-3.3,2.4-.5.9,1.2,1.9,1.7,2.8,3.9-.7,4.8,2.8,8.2,2.3-.4-1.8-1.7-2.3-1.6-4.6,2.6-.6,3.1-2.8,4.4-4.5,1-.7,2.3.5,3.5-.3.2-4.7,3.5-8.7,8.2-7.8,3.5,4.9,9.5,6.8,12.4,12.6,1.9.3,3.8.4,4.9-.7,0-2.9-2.5-2.9-3.1-5.1,2-1.8,3.8-.6,6.8-.6,1-.7.8-2.4,1.8-3.1,2.9-1.3,5.3.3,7.8.5,0-.6.8-.6,1.1-1-.1-1.6-.3-3.2-.4-4.7a28.84,28.84,0,0,0,5-7c4.2-.3,5.1-3.1,7-5.4,4.4-1.5,3.9,4.1,6.6,4.5,3.1.5,3.9-3.5,7.2-3.3,1.7,4.2,7.1,4,8.7,8.4,2.8.7,5.2,1.8,6.3,4.5,1.5-.2,1.8.2,2.9-.3-.2-1.3.7-1.8,1.3-2.5a5.94,5.94,0,0,1-3.3-4.1,7.15,7.15,0,0,1,4.4-3.4c-.1-2.2-1.6-2.7-1.9-4.6.2-2,2.2-1.3,3.4-2.1,2.1-1.5,3.5-4.5,7-4.8.2-1.5,1.4-2.2,2.5-2.9v.6c.2,2.4,2.4,3.3,3.1,5.6-2.7,1.9-.9,4.6-1.7,7.7,1.3.2.9-1.1,2.1-1,8,2.8,5.8-10.7,11.1-5.8-1.1,1.2-1.5,3-2.9,3.9,1.5.1,1.7,1.7,3,2,3-1.2,5.1.1,7.6-1.7-.2-2,.9-3.5.2-5,2-.7,3.3-2.1,5-3.1a2.9,2.9,0,0,1,1.2,3.2c-2.9-.1-3.2,2.3-5.5,2.8,1.6,1.2,3,3.8,5.1,4,2.3.2,4.8-1.3,7.3-1.1.6.1,1,.7,1.5.9,2.7.8,5.8-.3,8.9.1,1.7-1.7,3.4-.7,6.5-.7,2.1-1,5.5-1.3,7.3-2.6a1.38,1.38,0,0,0,1.6.5,1.18,1.18,0,0,0-.3-1.7.31.31,0,0,0-.2-.1,3.55,3.55,0,0,0,.2-1,2,2,0,0,0,1.1-.3c3.1,2.5-1.8,6.3,1.7,8.5.9-.4,1.8-.9,2.7-1.4.6,2.5,2.3,4,4.9,3.1.7-1.6.8-3.6-.7-4.7a4.33,4.33,0,0,1-1.6.1,18.67,18.67,0,0,1,3.2-1.5c.1-2.6,1.3-3.6,3.5-4.8a3.69,3.69,0,0,1,2.4,2.6c-.7.5-1,1.5-.8,3a6.8,6.8,0,0,1,6.2.4,2.16,2.16,0,0,1-.5,1.7c-2-1.1-4.7.1-2.7,3.3.9.5,2.3,1.1,3.5.3a1.88,1.88,0,0,1-.2-.8c2.3-1,4.8-.2,7-.1v2.1a2.32,2.32,0,0,1,2.1.6c.6,1.1.2,1.7.5,2.8a.76.76,0,0,0-.5-.2,2.73,2.73,0,0,0-.1,3,1.66,1.66,0,0,0,1.1-2h0a2.19,2.19,0,0,0-.3-.5c1.1-1.3,3.2-1.8,4.2-3.2-.7-.8-.5-2.4-1-3.2a1.27,1.27,0,0,0-.6-.1,3.77,3.77,0,0,0,1.1-3c1.3-1,1.3-3.1,2.6-4,1,1.7,5.3,0,6.5,1.6,3.2-.8,2.4-5.6,5.2-6.9.7,1.2,2.2,1.5,2.8,2.9-.1,4.7,2.4,5,3.4,8.5-1.2-.3-.9.9-2.1.6,0,1.5,1,2,1.5,2.9,3.4,0,5.6-2.5,8.9-1.4,2.6-1.5,3.6-4.4,5.7-6.3,1.8,0,5.5.6,7.4-.5,1.3-3.1,6.4-5.1,9.3-4.6a3.53,3.53,0,0,0-.5,3.3c1.1,1.2,3.2,1.2,4.8,2,.2,1,.9,1,.3,2.1a2.25,2.25,0,0,1,2,.9,4.74,4.74,0,0,1-1,1v.7c-.6.5-1,1.1-1.5,1.5a7.22,7.22,0,0,0,3.2.8,1,1,0,0,1,.4.5,3.15,3.15,0,0,0,1.7-.9c.7,2.7,3,3.6,4.3,5.5-1.1.9-1.3,2.7-2.3,3.6-.5.1-1.3-.4-2.1-.4,0-.2.1-.3.2-.5-.5.1-.7-.3-1.2-.2a12.75,12.75,0,0,0,0,3.9,3.14,3.14,0,0,0,2.1.5,3.7,3.7,0,0,1,.8,1.8c4-.2,5.4-4.2,8-1.4-.6,1.3-.2,1.6-.5,3-1.9,0-1.9,1.8-2.3,3.3a12,12,0,0,0,2.4,2.6c-.7,4.1,6.2,2.5,7.8,5.2-.2.8-1.2.8-1.2,1.8a5.24,5.24,0,0,1,1,1.8,16.17,16.17,0,0,1,3.8.2c-.2-1.9,1.4-2.1,1.7-3.6-1.8-.7-3.7-1.4-3.9-3.8a2.73,2.73,0,0,1,3.3-1.9,3.07,3.07,0,0,1,1.4.9,2.56,2.56,0,0,0,0,2.1c1.5,1.7,6.1,0,6.9,2.5-.6.6-.8,1.5-1.4,2.1,1.5,1,4.2,1.9,5.6.5.5-3.7-2.8-3.5-2.8-6.7a10.74,10.74,0,0,0,3.1-4.5c-1.8-1.5-3.4-3.1-4-5.8-1.6.4-2.8-1.4-4.5-1.4-1.4,0-2.3,1.4-3.5,1.6-2.9.3-4.1-1.6-4.6-5.8,2.9-.2,2.8-3.3,4.3-4.8,2.8-.1,3.3,2.4,5.7,2.8a41.36,41.36,0,0,0,5.9-3.1c2.4.3,2.6,2.9,3.9,4.4,2,.3,2.8-.6,4.7-1,.5-2.3,1.9-4.9,4.4-4.2a29.54,29.54,0,0,1,.2,4.2.48.48,0,0,0-.6-.2,1,1,0,0,0,.2,1.4h0l.1.1a3.58,3.58,0,0,1-.4,1.1c-.9,0-1.8,0-1.7.9.2,1.6,2.1,1.4,3.9,1.4a2.88,2.88,0,0,1,3.5-2,2.77,2.77,0,0,1,2.1,2.5c-1.9,2-6.3.5-6.1,4.9,2.6.4,3.3,1,6.6.7,1-1.5,1-4.2,2.8-5.1a7.42,7.42,0,0,0,3.9.5c3.1-5.1-5.5-8.9-.3-12.4.2-2.2.1-3.1,1.4-4.2,4.2.4,5.5-1.9,8.2-2.8,1.6,2.4,3.9,4.7,7.5,4.3.6-1,1.8-1.4,1.7-3,1-.9,12.9-5.2,20.7-7.6-1.5-.2-2.8-1.6-1.7-4.6a3.55,3.55,0,0,1,.9-.4c-.9,2.9.4,4.4,1.7,4.5.5-.2,1-.3,1.5-.5,0,.1-.1.1-.1.2-.4.1-.8.3-1.3.4a4.25,4.25,0,0,0,1.1-.2l-.1.1a19.69,19.69,0,0,1,4.8-1.1c-.2-4.5,13.1-4.6,15-.2a27.59,27.59,0,0,0-.8,2.7c.8-1.7,3.2-.5,5.3-1.3-.4-2.4,2-2.1,3.2-3,3,1.5,4.3,4.7,6.6,6.9-1.1,1.2-.6,3.9-2.3,4.5.2.9,1,1,.7,2.3,4.3,1.5,3.8-3.9,6.4-4.9,1.2.7,1.5.5,2.7,1.1,1.3-1.9,1.4-5.4,2.2-6.9,2,1.1,5.3.6,5.6-1.6,2.6-.8,6.2-1.1,6.3,2.5,5.8,3.3,15.1,2.1,14.7,11.5a19.28,19.28,0,0,0,3.8-1.9c-.8-4.1,1.9-7.8,4.6-4.5.3,2.8-1,3.8.4,5.6,2.4,1.1,4.8,0,6.8-.8,2.1,2,5.6.6,8.3,1.9a9.72,9.72,0,0,0,2.9-1.9c0-1.8.3-4.3.1-7.1.9-.5,1.5-1.5,3.2-1.2,1.9,2-.3,5.5,1.7,7.7-.6,1.7-2.4,2.3-2.5,4.5,2.2-.2,2.4.7,4.1,1.4.8-1.1,1.1-2.7,2.3-3.3,2.9-.4,3.1-3.2,6.1-3.4,1.3.9,2.7,1.6,3.4,3.2,3.2.2,7.5.4,11,1.9,0,1.8,1.5,1.9,2.1,2.9,1.3,1.8,1.1,5.3,4.6,4.9,2.9-3.4.2-10.5,4.4-12.8,2.4,1.7,5.5,2.9,8.6,2.2,1.6,1.1,2.4,3.2,3.3,5,2.1-.6,3.8,2,2.8,4.7,3.2,1.1,5.4-1.1,7.3-2.2,2.9,1.4,6.3,4.7,10.1,2.4,1-2.3,2.4-4.1,4.7-3.7,3.2.6,1.8,5.6,4.5,6.7,4.7-1.4,5.3,4.5,10.2,2.1,2.2,1.5.1,3.8.4,5.6,1.8.3,5.3-.3,6.2-1.9-2.4-5.5.8-14.8,6.6-10.2-.7,1.4.1,3.7.7,4.7,1.7-.2,2.5.4,4.1.2,1.8-4,8.6-6.1,9.8.1,2.2.8,4.6.4,6.8-.1,3.9,2.3,7.2-2.6,11.5-1.1,1.1,4.1,5.6,2.4,9.2,2.7-.7,1.6-.3,4.3-1.6,5.4-2.3.6-3.2,2.4-4.4,3.9,1.7,2.8,5.2-.5,7-1.3.2-1.5-1-1.4-.7-2.9,1.5-.1,2.5.4,4.2.2a6.28,6.28,0,0,0,1.1-1.2c3.7.2,5.4-4.1,10.3-3.8,3,1.9,3,6.9,4.3,10.6,3.2-2,7.1-6.9,10.8-5.6-.4,3.4-4.4,3.5-5.7,6,.5,1.8-1.3,1.5-1.1,3,.4.6,2.1,2,2.1.3,3.7-1,5.4-2.2,8.8-3.1V0H0V28.1Z"/></svg>