<svg xmlns="http://www.w3.org/2000/svg" viewBox="0 0 1920 70.3" preserveAspectRatio="xMidYMax slice"><path d="M0,0H1920V24a3.63,3.63,0,0,0-3-.6c-1.2.4-2.2,1.5-3.4,1.2-.7-.1-1.1-.6-1.8-.8s-1.6.3-2.5.4c-1.9.1-3.7-1.7-5.3-1.1-.6.3-.9.8-1.5,1a4.22,4.22,0,0,1-2.9-.5c-.9-.4-2.2-.7-2.8-.1s-.4,1.6-1.4,1.8a2.5,2.5,0,0,1-1.8-.8,8.19,8.19,0,0,0-6-1.9c-1.7.4-3.2-.8-4.1-2s-2-2.4-3.8-2.4c-1.2,0-2.3.7-3.5.9-1.7.3-3.5-.5-5.3-.7s-4,1.2-2.9,2.2a5.79,5.79,0,0,1-4.6-2c-.3.6-.5,1.1-.8,1.7-.3-.7-1.7-.1-2.2.5-1.7,1.9-3.4,3.9-5.1,5.8a29,29,0,0,0-5.4-6.2,6.44,6.44,0,0,0-2.5-1.5c-2.6-.7-5.3.9-6.9,2.5s-3.3,3.6-6.1,3.9a7.55,7.55,0,0,1-5.4-1.8,13.59,13.59,0,0,1-2.6-4.1,2.22,2.22,0,0,1-1.3.8l-2.8-2.2c-.8,1.3-4,1.1-4.6-.2a2,2,0,0,1-1.3.9l-2.2-2.2c-.3,1.1-1.9,1.8-3.4,2s-3.1.2-4.6.4c-2.3.3-4.3,1.2-6.6,1.5s-5.1-.1-6-1.6c-1.1,1.6-4.1,2.3-6.3,1.4-1.1-.4-2.3-1.1-3.3-.6-.5.3-.6.8-1,1.1-1.6,1.3-5-1.3-7-.2-1.2.7-.8,2.3-2.2,2.8-1.7.7-4-1.3-5.6-.4-1,.6-.8,1.9-2,2.2a2.79,2.79,0,0,1-2.5-1.2c-2.1-2-6.7-3.8-9.8-2.7a7.53,7.53,0,0,0-5.3.8c-.7.4-1.2.9-2,1.3-2,.9-4.5,0-6.5-.8-.8.9-2.6,1-3.9.6a9.45,9.45,0,0,1-3.1-2.1c.4,2.3-2.9,4-5.7,5.1s-5.8,2.3-8.6,3.5a58.43,58.43,0,0,0,4.8-8,56.27,56.27,0,0,1-13.6.2c-.2,1.1-.4,2.1-.6,3.2a18.23,18.23,0,0,1-4-1.1,12.86,12.86,0,0,1-.3,3.9c-1.2-.2-2.4-.3-3.6-.5a1.74,1.74,0,0,1-.3,1.4,14.58,14.58,0,0,1-1.9-.7c-.1,1.3-2.1,2.2-3.9,2.2a12.82,12.82,0,0,1-5.1-1.3,12.42,12.42,0,0,1,1.2,5.3,2.28,2.28,0,0,1-.7,1.9,4.77,4.77,0,0,1-3.1.7l-8.3.3c-1.9.1-4.2.3-4.9,1.6-.4.7-.4,1.7-1.4,1.8a4.25,4.25,0,0,1-1.1-.2,35.5,35.5,0,0,1-4.3-2.3c-2,.9-4.1,1.5-6.1,2.4-.3,1.6-3.6,1.4-5.5.7s-4.8-1.5-5.9-.1c-.4.5-.5,1.2-1.3,1.3a2,2,0,0,1-1.3-.4c-1.1-.7-2.3-1.4-3.4-2.1a6.47,6.47,0,0,1-5.6.1c-.3.7-.5,1.4-.8,2.1a3,3,0,0,0-3-.5c-1.4-1.4-4.3-1.5-6.8-1.5-6.7.1-13.9.4-19.1,3.5a3.41,3.41,0,0,1-2.2.7,1.72,1.72,0,0,1-1.2-1c-2.5-3.8-5.8-8.1-11.6-8.9a5,5,0,0,1-.3,3.8c-1.8-1.3-3.5-2.6-5.3-3.9-.6.6-1.3,1.2-1.9,1.8l-3-1.8c-1.2,1.4-4.1,1-6.3.9a16.3,16.3,0,0,0-9.6,2.5,10.31,10.31,0,0,0-2.4-5.3c-2.1,2.1-6.4,2.7-9.5,1.5-1-.4-1.8-.9-2.8-1.2-4-1.1-7.7,2.2-11.9,2.8-2.2.3-4.4-.2-6.5.1s-4.3,1.8-3.4,3.2c-4.1-.7-9-1.9-9.9-4.9-.4.9-.9,1.8-1.3,2.6A6.19,6.19,0,0,1,1517,35c-.6,1.2-3.1,1.2-4.4.4s-2-2.1-3-3.1a4.74,4.74,0,0,0-4.4-1.3c-1.7.7-2.1,2.7-4,2.9-2.3.2-4.3-2.8-6.2-1.7-.7.4-.7,1.3-1.3,1.8-1.3,1.3-4.2-.1-5-1.6s-1-3.4-3-4.1c-1.5-.6-3.4-.1-5.1-.1s-4.8-1.1-4.5-2.3a6.8,6.8,0,0,0-4.2-.6c-1.4.4-2.2,1.7-1.4,2.6a72.19,72.19,0,0,1-20.2,1.9c-2.3-.1-4.8-.3-6.6.8-.9.5-1.6,1.4-2.7,1.6-2.4.4-3.5-2.1-5.5-3.2-2.6-1.5-6.3,0-9.1,1.3a97.62,97.62,0,0,1-22.4,7.2c-.1,2-.3,4.1-.4,6.1a10.31,10.31,0,0,1-4.2-1.3,10.93,10.93,0,0,1,.5,1.7,3.07,3.07,0,0,0-2.1-.2c-.3,1.8-.5,3.7-.8,5.6-2.9-2.3-5.9-4.5-9-6.7a6.5,6.5,0,0,0-2.2-1.1c-2.4-.6-4.9,1-7.4.7a5.4,5.4,0,0,1-4.1-3.2c-.7-1.4-1.1-3-2.4-4.2-1.6-1.4-4.3-2-6.8-2.4-8.9-1.6-17.8-3.3-26.7-4.9a4.33,4.33,0,0,0-1.6-.1c-1.4.2-2.2,1.6-3.6,1.5s-1.6-1.7-2.7-2.5c-2-1.6-6.5.2-9-1.1-2.7-.1-5.2-1.3-6.2-3.1a2.57,2.57,0,0,1-3.2.4c-.7.7-1.4,1.4-2.2,2.1.6-1.4-1.6-3-3.6-2.5-1.3.3-2.1,1.3-3.3,1.7a5.86,5.86,0,0,1-6.3-2c-1.1-1.7-1-3.6-.8-5.4-2.6-1.6-6.7.3-10-.3-2-.4-3.4-1.6-5.4-1.9-1.8-.3-3.6.2-5.4.4s-4,.2-5-.9c-1.6-1.7.2-4.9-2.5-5.5a9.85,9.85,0,0,0-1.7-.2,2.31,2.31,0,0,1-1.9-2.5V5.5a5.81,5.81,0,0,1,2.2-2.9c-1.7-.9-4.5-.5-5.6.8s-.7,3.5-2.6,4.2c-1.3.5-3,0-4.2.6a2.31,2.31,0,0,0-1.1,2c-.2,1.9-.5,3.7-.7,5.6a17.94,17.94,0,0,0-7.1-5.1c-1.3.8-.5,2.9-2.2,3.1-.9.1-1.6-.5-2.4-.8a5.53,5.53,0,0,0-4.6,1.2,11.51,11.51,0,0,1-4.3,2.1,11.79,11.79,0,0,0-6.7.8,10.11,10.11,0,0,1-3,1.3c-2,.3-4.1-1.1-3.7-2.6-2.9.2-5.4-1.4-7.2-3.1s-3.4-3.6-6.1-4.4-6.6.4-6.4,2.5c-.4-1-2.5-.9-3.6-.2s-1.7,1.8-3,2.3a5.46,5.46,0,0,1-4.5-.4,9.72,9.72,0,0,1-3-2.7c-3.6,1.3-7.7,2.3-11.5,1.6-2.3-.4-5.2-1.3-6.6.1-.9.9-.7,2.4-2,2.9a5,5,0,0,1-2.7-.2,15.44,15.44,0,0,0-7.7.3,11.72,11.72,0,0,1,1.9-5.1,20.35,20.35,0,0,0-12.9-.7,4.74,4.74,0,0,1-3.1.2c-1.1-.5-.9-1.7-1.8-2.3a4.07,4.07,0,0,0-1.8-.5l-6.3-.9a17.76,17.76,0,0,0-4.6-.2c-2.1.3-4.7,1.4-6,.2.3.4-.2.9-.8.9a3.29,3.29,0,0,1-1.7-.4c-1.1-.5-2.2-.9-3.3-1.4.4,1.5-2.7,2.7-4.2,1.6.3,1-1.7,1.7-3.1,1.3s-2.4-1.2-3.7-1.7a7.66,7.66,0,0,0-6.1.7,8.26,8.26,0,0,0-3.5,3.9,2.48,2.48,0,0,1-1.6,1.7c-2.1.7-5-2.5-7.2-2.2-1.8.2-3.6.5-5.4.7,1.1,1.8.2,4.1-2,5.2-1,.5-2.3.8-2.7,1.7-.6,1.3,1.3,2.7.3,3.9a12,12,0,0,1-5.3-.7,14.46,14.46,0,0,0-2.9-1.1,8.31,8.31,0,0,0-2.7.3c-3.9.8-8,1.7-11.2,3.7-2.1,1.3-4.2,3.2-7,2.9-1.7-.2-3-1.1-4.6-1.5a13,13,0,0,0-5.2.1c-3.1.4-6.2.9-9.3,1.3s-6.5,1-8.8,2.6a4,4,0,0,1-1.5,1c-1.7.7-3.9-.1-5.6-.8s-4.4-1.1-5.4.2a2.38,2.38,0,0,0-.6,1.1c-.9,1-3,.6-4.5.1a3.06,3.06,0,0,1-.7,2c-2,.6-3.2-1.9-5.4-2.1-1.4-.1-2.5.8-3.5,1.5a11.14,11.14,0,0,1-9.1.7,7.36,7.36,0,0,1-.4,4.4c-2.4-.4-4-3-6.4-2.4s-1.3,3.6-3.1,5a4.15,4.15,0,0,1-4.3-.1,2.91,2.91,0,0,1-1.2-3.1,10,10,0,0,1-4.2.6c-1.5-.2-2.8-1.2-2.4-2.2s2.4-2.2,1.3-2.9a2.79,2.79,0,0,0-1.8-.1,11.39,11.39,0,0,0-4.4,1.8,3.93,3.93,0,0,0-3.4-2.5,4.7,4.7,0,0,0-4.2,1.3c1.3.3,1,1.9-.3,2.3a7.76,7.76,0,0,1-4-.1c-.2.6-.4,1.1-.6,1.7-1.8.1-3.7.1-5.5.1,0,.7-.1,1.4-.1,2.1l-6-2.4a11.63,11.63,0,0,1-2.9,3.7,7.62,7.62,0,0,1-5.3,1.4c-2.1-.4-4.2-1.9-6-1.1-1.3.6-1.3,2-2.5,2.7a4.46,4.46,0,0,1-3.9-.3,31.55,31.55,0,0,1-2.9-2.2,10.29,10.29,0,0,0-8.4-.9c1.6.6.4,2.5-1.2,3.2a12,12,0,0,1-7.7.1,14,14,0,0,0-2.9-.9c-2-.2-3.8.8-5.3,1.7a9.19,9.19,0,0,0-2-3.1c-1.6.7-3.2,1.4-4.8,2-1.1-3.6-7.3-5.8-12-4.3-2.1.7-4.4-.4-6.2-1.3-3.4-1.8-6.9-3.6-10.4-5.5a16.33,16.33,0,0,0-5.3-2.1,7.37,7.37,0,0,0-5.6.9c-1.1.8-1.5,2.2-3,2.5a4.58,4.58,0,0,1-3.4-.8,15.26,15.26,0,0,1-5.2-4.9c-1.6.6-3.2,1.3-4.7,1.9a4.06,4.06,0,0,1-1.9.4c-1.8-.3-1.2-2.7-3-3.1-1.1,1.6-4.2,1.7-6.6,1.6-3.8-.2-7.6-.4-11.4-.7a31.53,31.53,0,0,0-.6,6.1,18.27,18.27,0,0,1-6-3.9c-3.3.8-5.7,2.8-8.6,4.3s-7.4,2-9.6,0a14.92,14.92,0,0,1-.2,2.1c-3.2-1.3-7.7-2.5-10.2-.5-.9.8-1.5,1.9-2.8,2.2-1.5.3-3.3-.8-4.6-.1-.5.3-.7.8-1.2,1.2-1,.9-3,.7-4.5.3a12.67,12.67,0,0,0-4.7-.9c-1.3.2-2.3,1-3.6,1.2-2,.3-3.8-.9-5.6-1.7-3.8-1.8-8.7-2.1-13.3-2.3a23.17,23.17,0,0,0-8.3.6c-1.9.6-3.6,1.6-5.6,2.1s-4.2-1.2-5.6-2.3c-1.9-1.6-5.6-.5-8,.8s-5.8,2.6-8.1,1.2c-.2,1.3-.4,2.5-.6,3.8a8.35,8.35,0,0,0-6.6,1.7c.4-2-2.5-3.8-5.4-3.7a11.51,11.51,0,0,0-7,3.1,5.06,5.06,0,0,1-.9-4.1,8.37,8.37,0,0,0-4.9,1,5.58,5.58,0,0,1-2.1-3.3c-2.7-.1-5.1,1.9-4.6,3.8a5.42,5.42,0,0,0-2.5-.6c-.9.1-1.5,1.1-.7,1.4-4.9-2.9-12-.4-18.2-.2-5.9.3-11.9-1.6-17.6-.6-2.2.4-4.3,1.1-6.6,1.3a14,14,0,0,1-8.9-2c-2-1.4-4.5-3.6-6.9-2.5a3.94,3.94,0,0,1-.4,5.5,8.81,8.81,0,0,1-7.1,2,12.55,12.55,0,0,1,3,5.1c-4.5.8-7.4-4.1-12-4.3-2.4-.1-5.5.8-6.6-.7-.5-.6-.2-1.4-.6-2-.7-1.2-3.3-1.3-4.7-.4a6.55,6.55,0,0,0-2.4,3.5,66,66,0,0,0-11.6-12.6,10,10,0,0,1-8.8-1.7,8.7,8.7,0,0,0-2.1-1.7,7.77,7.77,0,0,0-3-.4c-4-.1-8,0-12,0,.6,1.2,1.1,2.7-.2,3.5a7,7,0,0,1-2.9.4c-7.4-.4-14.7-1.1-22-2a10.74,10.74,0,0,1-4.7-1.4,35.16,35.16,0,0,1-6.3,2.7c-1.8.6-3.6,1.1-5.4,1.7a3,3,0,0,1-1.6.2,2.26,2.26,0,0,1-1.7-1.3c-1.3-2-3.8-4.1-6.7-3.7-1,.2-1.9.6-2.9.7-2.5.2-4.1-1.9-4.9-3.7a118.13,118.13,0,0,1-11.9-.2,21.83,21.83,0,0,0-1.4-8.4c-2.7,0-5.3,1.5-6,3.4-.4,1-.2,2.1-.7,3.1a3,3,0,0,1-3.4,1.4,5.32,5.32,0,0,1,.2,4.1,11,11,0,0,0-5.9-2.7c0,2.3-.6,5.1-3.6,6-1.8.5-3.9,0-5.9-.1s-4.4.8-4.2,2.2c-2.2-.1-3.1-2.4-5.2-2.6a5.38,5.38,0,0,0-2.2.4c-2.7.8-5.5,1.7-8.2,2.5-.3-1.6-2.3-2.8-4.4-3.3a20.88,20.88,0,0,0-6.6-.1c-2.7.3-5.7.7-7.7,2.1-.4-1.7-4-1.9-5.8-.8-1.3.8-2.7,2.2-4.3,1.7-1-.3-1.3-1.2-2.3-1.6-1.5-.6-3.1.6-4,1.6-1.5,1.6-2.9,2.7-4.4,4.3.3.1,0,.5-.3.5s-.6-.1-1-.1a1.6,1.6,0,0,0-1.6,1.3,3.1,3.1,0,0,1-.9,1.8c-1.4-.2-2.1-1.8-3.5-1.5a1.8,1.8,0,0,0-.9.6c-.8.8-1.5,1.6-2.3,2.4a2.5,2.5,0,0,1-1.8.8,1.27,1.27,0,0,1-.9-.7l-1.8-2.4c-.1-.2-.2-.3-.4-.3h-.5c-1.4.4-1.7,1.8-2.6,2.7-1.6,1.4-5.1,1.6-5.6,3.4-1-.9-1.9-1.9-2.8-2.8a9.41,9.41,0,0,0-1.2,2.2,39,39,0,0,0-3.1-4,11.51,11.51,0,0,1-1.7,1.4,2.91,2.91,0,0,1,.5-3.2,29,29,0,0,1-5.1-.2,2.07,2.07,0,0,1,1-.6.78.78,0,0,0-.8-.2,1,1,0,0,1-.9-.1c-.1-.1,0-.2.2-.2a15.13,15.13,0,0,0-7-.4c0-1.1-1-2-2.3-2.5a14.33,14.33,0,0,0-4.1-.9l-4.3-.6a5.27,5.27,0,0,1-1.2-.3c-.3-.1-.5-.4-.8-.4-.9-.1-1.5.9-2.3.7-.3-.1-.5-.4-.8-.5-.8-.2-1.4.9-2.2.8s-.8-1.1-1.6-1.2a1.69,1.69,0,0,0-1,.3,9.44,9.44,0,0,1-3.3,2c-1.2.4-2.5.7-3.8,1a24.2,24.2,0,0,1-3.8.2c-10.2.1-20.2,3.2-27.3,8.5A69.92,69.92,0,0,0,243,51.8c-.5.9-.9,1.8-1.4,2.7h-2.8c-1.3,2.1-4.5,3.1-6.7,4.7s-2.6,5.1.5,5.6A78.14,78.14,0,0,0,217,70.3c-.5-1.6-.9-3.3-1.4-4.9-5.6-.2-11.1-2.3-14.6-5.5-3.2.8-6.3,1.6-9.4,2.4.5-2.9-5.2-5.1-8.3-3.2-.9.5-1.6,1.3-2.7,1.5-2,.3-3.3-1.5-4.4-2.7-2.4-2.8-7.4-4.4-12-3.7,1-1.6,2.1-3.2,3.1-4.7-5,2-10.3-2.7-16-3.4-4.5-.5-9.2,2.2-9.6,5.5-1.8-1.1-3.7-2.3-5.5-3.4l-3.3,3.3c-.9-.6-1.9-1.2-2.8-1.8-1.7,1.9-6.4,1.7-7.8-.3-.8-1.1-.7-2.6-2-3.5a7.22,7.22,0,0,0-3.2-.8c-4.5-.7-8.5-2.8-10.6-5.7-1.3.8-2.7,1.6-4,2.4-1.6-2.8-6.9-3.1-11.1-3s-9.6-.4-10.7-3.3c-7.6,1.8-16.5.5-22.5-3.3-5.5,4.7-18.5-.6-24,4.1-1.1-.5-2.2-.9-3.3-1.4-5.1-.7-10.7.9-13.8,4C11.6,38.1,5.5,37.1,0,36.2V0Z"/></svg>