<svg xmlns="http://www.w3.org/2000/svg" viewBox="0 0 1920 120.77" preserveAspectRatio="xMidYMax slice"><path d="M569.37,67.57c1.56,0,2.79.05,4,0,1.43-.07,2.86-.24,4.29-.36A24,24,0,0,0,574,64.28C570.65,62.58,569.09,63.81,569.37,67.57Z" transform="translate(0 0)"/><path d="M571.07,60.51l-3.93-.7-.24,3,4.09-.37C571,61.82,571,61.17,571.07,60.51Z" transform="translate(0 0)"/><path d="M602,70.4c1.74.47,3.51.81,5.28,1.17l.39-2.1-5.51-.87A9.61,9.61,0,0,0,602,70.4Z" transform="translate(0 0)"/><path d="M474.07,102c-2.15-.7-4.42-1-5.84,2.23,2.34.53,4.31,2.49,6.5.22A2.79,2.79,0,0,0,474.07,102Z" transform="translate(0 0)"/><path d="M799.31,23c-.71-.12-1.29-1-2-1.17-1.14-.21-3.19-.42-3.36,0a12.07,12.07,0,0,0-.71,4.87,4.59,4.59,0,0,0,3.1.52c2.12-.83,3.24-.36,3.73,1.81.19.88.13,1.95.62,2.58a5.36,5.36,0,0,0,2.64,1.81c.37.1,1.11-1.18,1.63-1.76C803.7,28,804.22,23.75,799.31,23Z" transform="translate(0 0)"/><path d="M13.9,65.4l-.6-1.25c-1.06-2.59,1-4.49,4.66-4.33,8.51-.84,17-1.62,25.52-2.54,2.1-.23,4.14-1.27,6.22-1.3A66.38,66.38,0,0,1,58,56.8l1.31-.23A7.68,7.68,0,0,1,67,54.46a3.11,3.11,0,0,0,2.58-.66,5.37,5.37,0,0,1,6.17-1.43,2,2,0,0,0,1,.2q8.63-1.38,17.24-2.8c2.43-.4,4.84-1,7.29-1.15s5.08-.07,7.63-.08l17.77,0c.67,0,1.66.31,2,0,2.76-3,5.81-1.26,8.83-.74,3.65.63,4.85-.35,5.7-3.95.24-1,1.18-2.59,1.78-2.58a4.87,4.87,0,0,1,3.17,1.67c1.67,1.9,2.95,4.14,4.57,6.09a4.51,4.51,0,0,0,2.55,1.41,24.07,24.07,0,0,0,6.73.53c6.42-.86,12.56.17,18.8,1.53,3.93.85,8.09.6,12.13,1,3.2.33,6.38.93,9.58,1.41l14,2.19c1.59-.23,3.22-.8,4.77-.64,5.65.6,11.29,1.4,16.92,2.21,1.75.25,3.44.88,5.2,1.13,3,.41,6,1.06,9,.87s5.86-.94,8.74,1.16c.81.59,3.42-.53,4.71-1.52,1.76-1.35,3-1.64,5.11-.57,2.44,1.22,5.3,1.6,8.24,2.42.28-2.43.38-4.31.76-6.12a2.21,2.21,0,0,1,1.5-1.47c.49,0,1.26.79,1.54,1.4,1.48,3.31,3.71,4.81,7.51,4.46,4.43-.41,8.85-1.07,13.27-1.57A4.73,4.73,0,0,1,306,59c5.66,2.7,11.74,3.44,17.88,3.9.11,0,.25,0,.33,0,4.79,3.34,10.15,4.24,15.85,3.8.12,0,.26.33.4.51l1.34.53,2.1,1.4,2.6-1.71c.92-.41,1.93-1.31,2.73-1.16,1.83.36,3.65.81,5.48,1.14,4.16.74,8.33.8,12.54-2.69L366,69.46l5.8-2.54,5.48-2.41c-3.7-1.64-4.16-4.87-4-8.14a5.29,5.29,0,0,1,.88-2.44c1.07,1.15,2.13,2.3,3.21,3.45,1.76.14,3.51.31,5.26.47a24.63,24.63,0,0,1,1.44,4c.35,1,.65,2,1,3a12,12,0,0,0,2.57-1.65c2.29-2.46,2.93-.14,3.93,1.23l3.46-.87c.73-1.42,1.34-2.92,2.12-4.31l3.08.31c1.89.2,3.68,1.35,5.51,2.06l24.57,3.25c.33,0,.73-.08,1,0,7.53,3.52,15.78,1,23.59,2.89,6.56,1.6,13.44,1.92,20.18,2.81q5.69.45,11.36.88c1.22.08,2.44.09,3.66.14l.78-2c0-.68.05-1.35.08-2q1.28-3.8,2.53-7.59l.94-1.85,4-3c-1.83-.66-3.78-2.12-5.41-1.83-6.92,1.23-13.43-1-20.11-1.79a88.07,88.07,0,0,1-12.06-2.33A47.15,47.15,0,0,1,484,46.55h2.76l6.75.09h1.36L507.12,48l1.32,0,19.06,2h2.06l34.16.94,1.29-.43c3.65-2.87,7.6-2.47,11.64-1.06l2.08.28,1.23-.66,6.83-3.34c.21-.26.41-.71.64-.73,3.29-.25,6.59-.45,9.89-.64.13,0,.28.31.42.47l1.27.4c2,.15,3.07-3.37,5.53-1.37,2.37.12,4.73.25,7.1.34a6.49,6.49,0,0,0,3.64-.67l4.89,2.91a45.17,45.17,0,0,1-.64-4.91c-.11-4.8-.06-4.8-4.91-5.68-2.86,1.84-4.63,1.26-6.9-1.64a35,35,0,0,0-4.6-4.14L600,33.41c-.19,1.18.12,3.44-.83,4.27-1.64,1.44-4,2-5.94,2.85-.52-2.28-.42-4-1.25-4.78-.65-.59-2.49.35-3.7.11a45.78,45.78,0,0,1-5.58-1.79c-2.06.67-4.09,1.71-6.19,1.84-.78.05-1.69-2-2.55-3.08-.84,0-2-.41-2.46,0a9.67,9.67,0,0,0-2.74,3.41c-1.11,2.69-2.92,2.32-5.24,2.08-5.1-.51-10.26-.56-16-.84.14.23-.21-.32-.52-.89-1.87-3.42-2.7-3.45-5.28-.44a4.91,4.91,0,0,1-2.4,1.38c-1.74.47-3.55.7-5.33,1l.15.91-3.69-1.58c.27-2,.49-3.68,3.37-4,1-.12,2.5-2.31,2.49-3.53,0-3.35,1.14-4.84,4.5-5.42,2.74-.48,5.26-2.07,8-2.84,3.69-1.05,7.49-1.69,11.2-2.67,8.15-2.14,16.27-4.4,24.41-6.56a7,7,0,0,1,3.33-.25c5.24,1.31,10-.23,14.91-1.84,3.07-1,6.29-1.54,9.45-2.28h2c5.23-.29,10.46-.6,15.7-.83.86,0,1.77.44,2.6.31,4.53-.71,9-1.53,13.55-2.35,1.54-.28,3.06-.67,4.87-1.06,1,3,3.55,2.85,6,2.06,8.74-2.89,17.68-3.48,26.8-2.94,6.21.37,12.45.32,18.67.68,1.39.08,2.73,1.1,4.09,1.68C709,5,711.7,2.68,714.63,5.67a1,1,0,0,0,1-.09c3.33-3.17,7.5-2.06,11.32-2,15.24.32,30.54.25,45.71,1.53,17.76,1.49,35.42,4.22,53.11,6.46a79.56,79.56,0,0,1,9,1.52,34.57,34.57,0,0,1,5.42,2.36c2.63-3.91,6.11,0,9.47.45l1.28.27c15.94,3.63,31.9,7.22,47.83,10.93,3.21.75,6.31,2,9.46,3.05l1.33.23q10.69,3.14,21.41,6.26c4.35,1.26,8.73,2.42,13.07,3.7,5.72,1.69,11.4,3.5,17.13,5.15,2.37.69,5.11.57,7.19,1.72,6.21,3.44,12.72.42,19,1.37s12.79,1.39,19.21,1.87c8,.58,16,1.29,23.93,1.35a132.33,132.33,0,0,0,17.88-1.43c1.88-.24,3.6-1.73,5.4-2.65,1.62-1.12,3.8-1.93,6-3.77,2.88-3.15,6.07-2.08,9.72-2.38,2.19-.18,4.34-.75,6.51-1.12a49.53,49.53,0,0,1,5.76-.89c2.43-.15,5-.75,7.3-.27a6.77,6.77,0,0,1,3.62,2.76,57.36,57.36,0,0,1,3.5,6.27,1.17,1.17,0,0,0,1.25.22c4.37-5,4.16-5.45,9-.47a8.74,8.74,0,0,0,5.33,2.21c5.07.32,6.5,2.41,4.33,6.9a26.08,26.08,0,0,0-1.58,4.47c-.91,3.32-.07,3.48,3.39,2.65l1.22,0,2.2,0c3.32-1.9,6.71-2.49,10.37-.87a5.91,5.91,0,0,0,2.61,0c2.11-.17,4.22-.49,6.33-.54,4-.08,8.08,0,12.12,0,7.89.08,15.79.14,23.68.32,6.09.13,12.19.29,18.27.68,7,.45,13.91,1.25,20.88,1.76,2.92.21,5.87,0,8.8.06a13.19,13.19,0,0,1,4,.24c6.31,2.22,12.79,2,19.37,2.17,10.34.27,20.68,1.3,31,2.58,3,.37,6.89-12.55,9.18-11,1.32.89,12.9,3.57,12.9,3.57s.31-8.06,15.63-1.73c.66.27,10.09-4.48,10.79-4.37.44.14,1.15,2.47,1.58,2.61,1.42.17.69-7.18,2.11-7.2,16.22-.26,15.65.29,15.23.43l4.25-1.2s8.6-5.21,12.58-5.19a7.81,7.81,0,0,1,.94-1.51,4.11,4.11,0,0,0,.46.94c.33.5,2,.15,3,.14l.12,0c2,3.77,3.14,11,3.63,4,.07-1.21.31-3.35.7-6.28,3-.77,6.13-.13,9.28.62a7.88,7.88,0,0,1,2.6.64,4.88,4.88,0,0,1,2,2.31,60.15,60.15,0,0,1,1.34,6.22c4.32-1.57,8-2,12.06-.48,2.13.78,4.92-.48,7.38-.33s4.66.92,7.54,1.54c.72-1,1.81-2.64,2.82-4.13l4.43,3.18,0,0c.25-.81.51-1.61.76-2.42,1.93.71,3.59,1.21,5.14,1.92a4.61,4.61,0,0,0,5-.26c.59-.41,2-.08,2.78.29,3.84,1.71,7.59,2.6,11.47.11a2.26,2.26,0,0,1,1.89.12c4.53,2.45,9.29,2.22,14.13,1.42a3.25,3.25,0,0,1,1.64.14c5.87,2.35,11.49.87,17.18-.85a11.57,11.57,0,0,1,5-.06c2.39.4,4.72,1.66,7.09,1.67,3.16,0,4.21,1.44,4.1,4.6,1.12-2,1.7-4,3-5.11s3.43-2,5,.87c-1.25,1.36-2.58,2.81-4.34,4.75l5.16.85c2.4-4.06,3.67-4.4,8.55-3.34,1.08.24,2.49-.73,3.68-1.29,1-.47,2.23-1.88,2.76-1.63,3.59,1.73,8.2,1.09,11,4.73.5.64,1.75.76,2.69,1,1.16.26,2.36.37,3.54.54l1.73-1c.19-.27.45-.8.55-.77,2.78.8,4.73-.29,6.38-2.48a3.27,3.27,0,0,1,2.34.91c1.38,2,2.94,2.06,5.24,1.75,3.19-.43,6.51.16,9.76,0,2.6-.09,5.18-.8,7.78-.85a38,38,0,0,1,9.55.55c2.58.62,4.75,1.12,7.47.28,2.24-.69,4.92,0,7.4.15,2.91-1.39,5.85-2.73,8.73-4.18,2.7-1.37,5.19-3.5,8.64-1.62.21-3.15,2.3-3.62,4.6-3.8,5-.54,10-1.12,15-1.55.75-.07,1.56.56,2.34.86l1.19.25c4.38-1.37,5.63-1,8.1,2.84,1.7,2.64,4.23,3.13,7,3.14,5,0,5.52.61,4.39,5.07-.7,2.76.68,4.28,3.32,3.67,3.21-.74,4,.15,5,5.53a9.44,9.44,0,0,0,2.19-.11c4-1.13,4.94-.62,6.42,3.34.38,1,.92,2,1.39,3a28.51,28.51,0,0,1,15.36,3.26,26.81,26.81,0,0,0,7,3c1,.21,2.45-1.48,3.7-2.3-.13-.31-.25-.63-.38-.94,1.71.44,3.42.86,5.13,1.31,2.25.58,4.25,1.89,6.69-.37,1.57-1.45,3.87-.37,5.21,1.56a.38.38,0,0,1,.25.27c2.24,1.52,7.57,1.76,9.59.42,2.33-1.55,3.63-.44,4.84,1.62,1.83,3.13,3.85,6.14,5.79,9.2l.67.18,2.77-.67h0c.6-1.35.88-3.39,1.88-3.84s2.62.88,4,1.37c1.18.43,2.38.8,3.57,1.19l.72-.74c-.37-1.73-.75-3.47-1.12-5.2l.63-.64c1.89,1.52,3.79,3,5.9,4.71l1-3.54,5,5.65c.67-2.08,1-3.29,1.59-5l7.26,7.64,4.83-3.54c.84,1.18,1.84,2.57,2.4,3.34,2-.65,3.7-1.25,5.41-1.7,2.5-.66,5-1.2,7.54-1.8l1.31-.91c0-.48.11-1,.23-2l1.08,1.71.76.53a15.34,15.34,0,0,0,9.54,4.36l1.86-1c.08-1.19.16-2.38.29-4.23,2.22,1.5,3.32,5.15,6.44,2.81L1815,92c2.37-1,4.78-1.88,7.06-3a13.68,13.68,0,0,0,2.71-2.53c.27.13.93.26,1,.53,1,4.54,5.54,4.74,8.52,6.81a2.14,2.14,0,0,0,2.07-.29c1.54-2.23,3.15-1.64,4.89-.42l1.45.44,8,.57.95-1.13c2.4,1.21,4.47,4.12,7.25.82.12-.15,1,.49,1.46.44,2.68-.26,5.39.31,7.94-1.61,1.18-.89,3.71-.85,5.22-.23,2.13.87,3.88,2.66,6,4.25,2.45-2.2,5.24-3,8.11-.22a1.27,1.27,0,0,0,.94.32c7.53-1.47,11.48,4,16.11,8.24l1.19.76.25.16c2.4-.85,4.72-2.61,7.11-3.61a16.85,16.85,0,0,0,5.31-.39,7.17,7.17,0,0,1,1.47.73V0H0V61.35C7.17,64.37,14.69,67.61,13.9,65.4Z" transform="translate(0 0)"/><path d="M578.73,49.78c-.71.36-1.4.75-2.11,1.12C577.33,50.53,578,50.14,578.73,49.78Z" transform="translate(0 0)"/><path d="M1346.24,53l-.13,0Z" transform="translate(0 0)"/><path d="M1366.87,57.76c-.79-.16-1.57-.35-2.35-.56q-.45,1.17-1,2.37a11.27,11.27,0,0,1,3.33,2.15A5.14,5.14,0,0,1,1366.87,57.76Z" transform="translate(0 0)" opacity="0.3"/><path d="M1358.64,55.7c-2.72-.47-5.42-1.38-8.11-2.09a20.91,20.91,0,0,0-5.31,1.38l-2.37-2.32a49.11,49.11,0,0,1-9.39-.28c-1.41-.22-2.83-.34-4.24-.51.42.31.8.8,1.27.91,4.07,1,7.9,2.53,12.35,2.59,4.94.07,9.84,2,14.78,3.07,1.64.35,3.48.1,5,.73l.74.33c-.23-.94-.46-1.88-.7-2.84A37.55,37.55,0,0,0,1358.64,55.7Z" transform="translate(0 0)" opacity="0.3"/><path d="M1048.36,50.39a132.31,132.31,0,0,1-17.87,1.43c-8-.06-16-.76-23.94-1.35-6.42-.48-12.86-.91-19.21-1.87s-12.83,2.07-19-1.37c-2.08-1.15-4.82-1-7.19-1.72-5.73-1.65-11.41-3.46-17.13-5.15-4.34-1.28-8.72-2.44-13.07-3.7q-10.73-3.1-21.41-6.26c0,.49.11,1,.17,1.49l.15.16,4.5,2.05c8.53-.06,15.79,4.83,23.95,6.26a9.88,9.88,0,0,1,2.6,1.37l2.1.53c2.58.87,5.12,1.93,7.75,2.59,4.42,1.1,9,1.64,13.34,3,3.34,1.06,6.4,3,9.58,4.56l1.92.11c1.35-1.93,2.77-3.19,4.72-.6.24.31,1,.67,1.14.54,4.17-3,8.46,1.9,12.67-.18.41-.2,1.27.58,1.94.85s1.3.73,1.71.55c6.17-2.8,12-1.76,17.88,1.09,1.64.8,3.9.31,5.58,1,3.35,1.49,5.58.32,8.39-1.6,1.63-1.11,4.73-.09,7.16,0,.88,0,2,.42,2.58,0,3.47-2.14,7.39-1.74,11.14-2.29,2-1,5-.17,5.46-3.49l-2.17-.72C1052,48.66,1050.24,50.15,1048.36,50.39Z" transform="translate(0 0)" opacity="0.3"/><path d="M593.88,22.35a11,11,0,0,0-2.19,4c-.27,1.18.34,2.56,0,4.16-.47-.63-1.3-1.23-1.35-1.89-.15-2.13-.47-3.36-3.23-2.79-.81.16-2.08-1.93-3-2.08l-13.75,3.14c.09,1.25.18,2.5.31,4.21l3.47-2.63c-.11,2.12-.16,3.26-.22,4.4.86,1.09,1.77,3.13,2.55,3.08,2.1-.13,4.13-1.17,6.19-1.84a7.84,7.84,0,0,1,2.46-.46c.81.12,2,1.24,2.25,1,2.3-2,4.45-1.47,7.06-.56,1.14.4,3.79-.72,4.26-1.8,1-2.32,2.63-2.12,4.42-2.16a35,35,0,0,1,4.6,4.14c2.27,2.9,4,3.48,6.9,1.64l2.9-2.16a28,28,0,0,0-4.47-.2c-2.5.27-3.81-.73-4.28-3.14-1.15-5.81-3.88-6.79-8.81-6.51-1.31.07-2.66-.83-4-1.23C595.25,22.46,594.08,22.08,593.88,22.35Z" transform="translate(0 0)" opacity="0.3"/><path d="M840.13,15.47a34.57,34.57,0,0,0-5.42-2.36,79.56,79.56,0,0,0-9-1.52c-17.69-2.24-35.35-5-53.11-6.47-15.17-1.27-30.47-1.2-45.71-1.52-3.82-.08-8-1.2-11.32,2a1,1,0,0,1-1,.09c-2.93-3-5.59-.7-8.32.37-4.62.08-9.25.13-13.88.27a15.85,15.85,0,0,0-2.84.56,20,20,0,0,0,3.75.77c5.35.11,10.71.08,16.06.09L714.1,7c1.65.72,3.2,1.14,4.27-1a1.85,1.85,0,0,1,1.26-1c3.61.13,7.22.38,10.83.6l4,0,7.61.72,1.29-.11c1.7,0,3.4,0,5.09.17,1.53.15,3.28,1.13,4.53.66,7-2.64,14.1-.47,21.12-.67,4.07-.12,8.2,1.38,12.27,2.29.76.16,1.39.94,2.08,1.44h1.74c2.16-2.4,4.22-1.09,6.28.17l4-.62c5.66.68,11.33,1.34,17,2.05a5.11,5.11,0,0,1,1.43.7l4,0,2.16,1.18c2.65.24,5.3.69,8,.67a4.6,4.6,0,0,1,4.76,2.91,3.36,3.36,0,0,0,2,1c1.77-2.47,4.07-1.38,6.33-1.25,1.11.07,2.27-.75,3.4-1.17C846.24,15.49,842.76,11.56,840.13,15.47Z" transform="translate(0 0)" opacity="0.3"/><path d="M377.36,57.38l3.48,3.7c2.16,0,4.31,0,6.46.1,2.56.18,5,1.74,7.54,2.67h.23q2-1.53,4-3.08a4.77,4.77,0,0,1-1.22,3.11c2.16-.47,4.32-.93,6.46-1.45a5.59,5.59,0,0,0,1.37-.82c-1.83-.71-3.62-1.86-5.51-2.06C392.6,58.76,385,58,377.36,57.38Z" transform="translate(0 0)" opacity="0.3"/><path d="M368.88,56.73c-5.39-.38-10.86.29-16.23-.24-3.07-.31-5.38-.62-6.24,3-8.56-4.77-9.34-4.7-13.17,1.16,4.62-3.58,8.55-2.1,12.23,1.59.35.35,1,.36,1.58.52a20.12,20.12,0,0,0,3.44-1.34c3.29-2,6.73-3.32,10.6-2.59s7.48,1.71,11.22,2.57c2.84-.06,5.69-.22,8.53-.29l-3.48-3.7Q373.13,57,368.88,56.73Z" transform="translate(0 0)" opacity="0.3"/><path d="M615.28,43.58a6.49,6.49,0,0,1-3.64.67c-2.37-.09-4.73-.22-7.1-.34-2,1.84-4.12,2.37-5.53,1.37l-1.27-.4c-3.89,2.68-8.45,3.06-11,.9L580,49.12l6.27,2.67c3.06-1.3,6.64-2.9,10.31-4.27.66-.25,1.68.48,2.54.77l1.28,0c2.18-2.06,4.28-1.29,6.42.13a4.86,4.86,0,0,0,2.56,1.08c3.71-.3,7.4-.81,11.1-1.31.21,0,.35-.54.52-.82-.26-.29-.53-.57-.79-.85Z" transform="translate(0 0)" opacity="0.3"/><path d="M507.12,48c-.67.39-1.39,1.18-2,1.11-3.18-.35-6.35-.9-9.5-1.46-.31-.06-.52-.64-.78-1h-1.36l-6.75-.09H484l-10.48,2.29,0,1.24c5.62.81,11.31,2.46,16.85,2.09,3-.2,5.47-.82,8,1.06.6-3.51,1.47-3.82,4.77-3.15,2.15.43,4.49-.12,6.75-.24L508.44,48Z" transform="translate(0 0)" opacity="0.3"/><path d="M850.88,16.19l5.58,2.33q15.19,3.06,30.4,6.12a22,22,0,0,1,2.23.68l2.07.77,5.43,3.21a17.66,17.66,0,0,1,4.35-.07,48.5,48.5,0,0,1,5.84,2.1l1.39-1.16c-3.15-1-6.25-2.3-9.46-3.05C882.78,23.41,866.82,19.82,850.88,16.19Z" transform="translate(0 0)" opacity="0.3"/><path d="M576.37,50.06c-3.79.19-7.58.34-11.36.5l-1.29.43c-.05.49-.11,1-.16,1.47l.86.35,1.25-.23h.72l2.67.39a48.3,48.3,0,0,0,5.4-1.12,31.65,31.65,0,0,0,4.27-2.07l-2.08-.28C576.55,49.69,576.47,50.06,576.37,50.06Z" transform="translate(0 0)" opacity="0.3"/><path d="M1059.41,43.77l-.77.61c-.24,1.13-.47,2.26-.71,3.39a18.41,18.41,0,0,1,2.82-2.05c.93-.45,2.43-1.08,3-.67,2.79,1.93,4.23.19,5.75-1.68a22.42,22.42,0,0,0-4.62-.68A37.77,37.77,0,0,0,1059.41,43.77Z" transform="translate(0 0)" opacity="0.3"/><path d="M486.42,71.5c-3.79-.28-7.57-.59-11.36-.88l.77,1.08,3.3.13,11,1.19.4-1-.42-.41C488.86,71.59,487.64,71.58,486.42,71.5Z" transform="translate(0 0)" opacity="0.3"/><path d="M527.5,50l-2.07.62,2.17,4.4L531,51.23c-.47-.39-.94-.78-1.4-1.18Z" transform="translate(0 0)" opacity="0.3"/><path d="M614.07,8.49h-2l0,1.26,2.81.44C614.57,9.62,614.32,9.05,614.07,8.49Z" transform="translate(0 0)" opacity="0.3"/><path d="M1321.16,59.25l-.73.86Z" transform="translate(0 0)" opacity="0.3"/><path d="M1320.43,60.11l-.65.75Z" transform="translate(0 0)" opacity="0.3"/><path d="M1325.18,54.36c-1.27,1.52-2.76,3.37-4,4.89C1322.42,57.73,1323.91,55.88,1325.18,54.36Z" transform="translate(0 0)" opacity="0.3"/><path d="M1326.56,52.74c-.21.23-.42.48-.65.75C1326.14,53.22,1326.35,53,1326.56,52.74Z" transform="translate(0 0)" opacity="0.3"/><path d="M1327.11,52.14c-.17.17-.35.37-.55.6C1326.76,52.51,1326.94,52.31,1327.11,52.14Z" transform="translate(0 0)" opacity="0.3"/><path d="M1325.91,53.49l-.73.87Z" transform="translate(0 0)" opacity="0.3"/><path d="M1319.78,60.86l-.55.61Z" transform="translate(0 0)" opacity="0.3"/><path d="M490.08,71.64l.42.41.95-.4c-.2-.67-.4-1.34-.59-2Z" transform="translate(0 0)" opacity="0.3"/><path d="M1086,41.78l-4.89-.68C1082.87,44.39,1083.61,44.49,1086,41.78Z" transform="translate(0 0)" opacity="0.3"/><path d="M1076.57,42.78l.45-1.1-1.31.45Z" transform="translate(0 0)" opacity="0.3"/><path d="M565.79,29.66c.06-1.93-.63-4.54,2.58-4.94-1.36-3.09-2.72-.45-3.76.19s-1.65,1.89-2.45,2.88c.21-2.7-.49-6.21,3.19-6.42,5.16-.29,9.71-4.39,15.25-2.3.42.15,1.4-1.2,2.12-1.86-3.88-.15-7.73-1.19-11.6.57-2.71,1.23-6,1.38-8.43,3-1.57,1-2.22,3.68-2.88,5.74-.33,1.07.65,2.59.25,3.58A4.58,4.58,0,0,1,557.24,32c-.34.1-1.7-1.43-1.62-2.1a49.65,49.65,0,0,1,1.49-6.3A3.94,3.94,0,0,0,554.27,25c-.57.65-.81,1.6-1.41,2.19-2.5,2.45-2.2,7.69,1.09,8.56,2.94.79,6.48.12,9.56-.67C565.92,34.5,565.73,31.88,565.79,29.66Z" transform="translate(0 0)" opacity="0.3"/><path d="M590,17.37c2.15,1.32,4.17.62,5.05-2.05-3-.28-6-.64-9-.8-1.78-.1-3.49.23-3.33,2.69C585.19,16.1,587.47,15.79,590,17.37Z" transform="translate(0 0)" opacity="0.3"/><path d="M523.5,50.6l-6.22-.66C519.18,51.84,521.13,53.28,523.5,50.6Z" transform="translate(0 0)" opacity="0.3"/><path d="M544.57,52.59l4.79-.53-6.14-.22Z" transform="translate(0 0)" opacity="0.3"/><path d="M539.19,51.31H535Q537.09,54.13,539.19,51.31Z" transform="translate(0 0)" opacity="0.3"/><path d="M674.64,5.51c3.24,2.44,6.72,1.7,10.21.74C681.62,3.7,678.1,5,674.64,5.51Z" transform="translate(0 0)" opacity="0.3"/><path d="M621.45,9.64l-4,.6C619,11.45,620.43,12,621.45,9.64Z" transform="translate(0 0)" opacity="0.3"/><path d="M557.51,52l3.44.5C560,51.14,558.9,50.51,557.51,52Z" transform="translate(0 0)" opacity="0.3"/><path d="M678,35.46l-1.27,0c-2,.15-4.63-2.1-5.91,1.06-.88,2.19-.79,4.75,1.62,5.94,1.26.62,3.1,0,4.67,0C676.91,40.05,681.62,38.29,678,35.46Z" transform="translate(0 0)" opacity="0.3"/><path d="M642,34.88l-1.44,2.06,2.08,3.75c-5.91.72-7,.08-6.56-3.72q.84-2.46,1.7-4.92L642,33.53c0-1,.27-2.25-.21-3a42.76,42.76,0,0,0-3.9-4.46c-5.63,3.6-4.11,9.68-5.71,14.76,3.08.93,5.82,1.68,8.51,2.58,1.68.55,2.88.21,2.71-1.65A63.89,63.89,0,0,0,642,34.88Z" transform="translate(0 0)" opacity="0.3"/><path d="M654.52,37.15c-3-1-4.73.23-5.47,3.53a46,46,0,0,0,5.11,3.74,2.69,2.69,0,0,0,2.54-.71C658,41.13,656.79,37.88,654.52,37.15Z" transform="translate(0 0)" opacity="0.3"/><path d="M380.12,72.88h1.16l2.19-5.26-6.27.06Q378.67,70.29,380.12,72.88Z" transform="translate(0 0)" opacity="0.3"/><path d="M395.07,63.86l-.15.12c1.42.52,2.34.41,3-.09l-.49.1Z" transform="translate(0 0)" opacity="0.3"/><path d="M399.1,60.78q-2,1.55-4,3.08l2.32.13.49-.1A4.77,4.77,0,0,0,399.1,60.78Z" transform="translate(0 0)" opacity="0.3"/><path d="M399.1,60.78q-2,1.55-4,3.08l2.32.13.49-.1A4.77,4.77,0,0,0,399.1,60.78Z" transform="translate(0 0)" opacity="0.3"/><path d="M1664.81,72.6c-3.76.14-6.25-1-5.79-5.51-8.24.44-12.2-4.51-14.84-10.85l-5-.11,1.38-4.74L1637.29,50l-1.19-.25-2.21,3.28c-3.28,0-6.71-.25-10.11,0-2.36.17-3.93-.55-5-2.57-2.3.18-4.39.65-4.6,3.8-3.45-1.88-5.94.25-8.64,1.62-2.88,1.45-5.82,2.79-8.73,4.18,0,3.7-3.85,4.65-5.47,7.21-.19.3-2.22-.56-4.11-1.08a5,5,0,0,1-1.9,1.28c-1.07.3-2.75.47-3.42-.14-2.52-2.26-4.74-4.86-7.28-7.57L1569.3,64c.26.79.58,1.71,1,3-4.84,0-8.94-.8-11.86-4.8-1-1.44-4.38-.65-5.42,1.28-.62,1.15-1,2.4-1.61,3.69-3.49-1.8-6.64-2.52-10.12.2l-1-6.9-1.73,1a28.62,28.62,0,0,1-.39,3.35,3,3,0,0,1-5,1.65c-3.85-3.61-4.45-3.68-8.87-1a9.11,9.11,0,0,1-1.13.48c-.07-1.6.41-3.62-.34-4.33-1-.89-2.92-.69-4.44-1a11.3,11.3,0,0,0-3-.6,4.21,4.21,0,0,0-2.82,1.14c-3,4.1-5.26,4.64-9.73,2.09a38.14,38.14,0,0,0-3.73-1.53l3.55,4.65c-3.76-.14-5.79-1.6-7.27-3.65-1.3-1.8-2.32-2.25-4.45-1.1-3.31,1.78-6.88,3.07-10.48,4.63l-1.82-2.69c-1.9.35-2.84,4-5.56,1.39.28-.32.56-.59.8-.9.67-.86,1.71-1.67,1.85-2.62.09-.57-1.27-1.93-1.92-1.9a3.45,3.45,0,0,0-2.45,1.77c-.94,2.21-2.11,3.13-4.3,1.57l-3.38,4-2.57-3.17L1458,65.6l-.72-.38c.4-1.32.81-2.64,1.36-4.43a8.88,8.88,0,0,0-1.73,1.1c-2.58,2.82-2.2,2.48-4.89-.34-1.6-1.68-4.57-2.06-7.18-3.14l-2.06,6-6.73-4.13-1.95,4.61c-3.35-1.89-1.19-4.44-1.42-6.94l-3.06,1.52c-2.06-4.1-5.47-6.59-8.27-6l0,0c0,1.45,0,2.91-.17,4.35s-.11,3.36-.89,3.8a24.34,24.34,0,0,1-7.85,3c-.84.14-2.57-2-3-3.39-.92-2.73-2.66-2.19-3.72-.87-1.66,2.07-3,3.61-5.78,1.86-.4-.25-1.47.59-3,1.26.28-3.12.52-5.88.78-8.8-3.9.23-4.2,4.76-6.84,7.06l2.77.25c-.3,2.21-.58,4.37-.9,6.79-4.36,1.6-8.33,1-12-3.82-.45,2.68-.71,4.27-1,5.86l-1.23,0-.09-5.57c-4.85-.22-5.88-1.3-7.45-7.5a10.27,10.27,0,0,0-1.53-2.56c-.86.79-2.06,1.42-2.52,2.39a.8.8,0,0,0-.07.2,17.91,17.91,0,0,0,3.35.38,31.12,31.12,0,0,1-2.69,4.41,7.22,7.22,0,0,0-.73-.83,7,7,0,0,0,2.45,3.09,4.87,4.87,0,0,1,1.22,2c.26.57.23,1.69.54,1.77,4.24,1.08,3.72,5.67,6.08,8.1a3.78,3.78,0,0,1,.28,1.17c4.9,1.81,11.61,0,7.49,7.22.93,0,1.86,1.46,2.78,1.5a1.93,1.93,0,0,0,1.31-1.52c0-.09.18-.23.25-.21,4.15.85,5.2-1.72,6-5,.1-.38,2.77-.11,5.19-.16.64-1.69,1.6-4.22,2.34-6.2,2.16-.59,4-1,5.69-1.6,2.08-.75,3.19-.5,3.27,2a2.8,2.8,0,0,0,4.42,2.37l2-1.18,1.72-1.08c.23.8.41,1.44.59,2.08l4.49-1.27c.76-3.18,4.75-6.31,7.59-5.52,1,.27,1.55,1.92,2.32,3,2.69-.45,5.41-.82,8.09-1.36,4.48-.92,9.45,2.06,13.59-1.73.22-.21.86.05,1.31.08a27.18,27.18,0,0,0,5,.23c2.43-.32,4.79-1.43,7.21-1.5,7.3-.21,14.6-.08,21.91-.07,3.35.46,6.71.91,10.06,1.38l4-.22c1.29-.37,2.7-1.28,3.85-1,3.3.72,6.47,2.06,9.62-.47a3.24,3.24,0,0,1,2.29-.3c5.84.94,11.67,1.9,17.49,3a11.89,11.89,0,0,1,2.91,1.47l1.34-.12a7.76,7.76,0,0,1,2.34-1c3.41-.24,6.83-.33,10.25-.46a.46.46,0,0,1,.33.07c5.27,4.14,11.33.27,17,2l3,5.61c2.23-3.22-.92-7.65,3.41-8.37,2.25.11,4.63-.19,6.71.47,1.82.57,4.56.94,4.14,4.18a15.57,15.57,0,0,0,.45,3.63l3.83-.53c-.31-1-1-2.12-.76-2.82.37-1,2-2.38,2.25-2.23,2.63,1.6,3-.55,4.13-3,3.4,2,6.75,3.57,9.72,5.7,2,1.42,3.35.52,5-.2,2-3.33,3.3-3.71,6.5-2.07a36,36,0,0,0,3.67,1.4c1.91-4.84,8.35-7.47,13.09-5.71a10.29,10.29,0,0,0,3.93.58c2.66-.1,4.6.16,5.78,3.26s3.55,1.73,5.58-.06c5.34,4.46,11.13,7.37,18.27,5.13-.56-1.46-1.13-2.92-1.69-4.37C1668.51,72.76,1666.65,72.53,1664.81,72.6Z" transform="translate(0 0)" opacity="0.3"/><path d="M1367.53,62.55a31.12,31.12,0,0,0,2.69-4.41,17.91,17.91,0,0,1-3.35-.38,5.14,5.14,0,0,0-.07,4A7.22,7.22,0,0,1,1367.53,62.55Z" transform="translate(0 0)" opacity="0.3"/><path d="M1367.53,62.55a31.12,31.12,0,0,0,2.69-4.41,17.91,17.91,0,0,1-3.35-.38,5.14,5.14,0,0,0-.07,4A7.22,7.22,0,0,1,1367.53,62.55Z" transform="translate(0 0)" opacity="0.3"/><path d="M1350.53,53.61a12.91,12.91,0,0,1,5.93.69c.72.26,2-.44,2.76-1a12.13,12.13,0,0,0,2-2.32c.51,2.08,1,3.92,1.4,5.67l1.88.53a13.59,13.59,0,0,0,.91-3.92,7.69,7.69,0,0,0-1.12-4.78c-3.86-5.23-3.61-8.25,1.59-12.2l-1-2.41-3.27,1.17c-1.39,3.27-4.58,2.18-7,2.88l-4.15.64-2.78,5.82c.14.88.27,1.75.41,2.62,1.78,1.32.75,2.12-.54,2.86-1.6.92-3.2,1.82-4.8,2.73l.07.06,1.06,0A24.11,24.11,0,0,1,1350.53,53.61Z" transform="translate(0 0)" opacity="0.3"/><path d="M1363.39,59.73l.08-.16-.13-.06Z" transform="translate(0 0)" opacity="0.3"/><path d="M1362.64,56.67c.24,1,.47,1.9.7,2.84l.13.06q.6-1.2,1-2.37Z" transform="translate(0 0)" opacity="0.3"/><path d="M1362.64,56.67c.24,1,.47,1.9.7,2.84l.13.06q.6-1.2,1-2.37Z" transform="translate(0 0)" opacity="0.3"/><path d="M1350.53,53.61a24.11,24.11,0,0,0-6.62-1l-1.06,0,2.37,2.32A20.91,20.91,0,0,1,1350.53,53.61Z" transform="translate(0 0)" opacity="0.3"/><path d="M1350.53,53.61a24.11,24.11,0,0,0-6.62-1l-1.06,0,2.37,2.32A20.91,20.91,0,0,1,1350.53,53.61Z" transform="translate(0 0)" opacity="0.3"/><path d="M1904.67,105c-4.63-4.2-8.58-9.71-16.11-8.24a1.27,1.27,0,0,1-.94-.32c-2.87-2.78-5.66-2-8.11.22-2.16-1.59-3.91-3.38-6-4.25-1.51-.62-4-.66-5.22.23-2.55,1.92-5.26,1.35-7.94,1.61-.49,0-1.34-.59-1.46-.44-2.78,3.3-4.85.39-7.25-.82l-.95,1.13-8-.57,1.62,1.88,1.31-.09,3.89.68a27.36,27.36,0,0,0,5.26.81c3.42-.11,6.85-.51,10.26-.92a6.53,6.53,0,0,0,2.39-1.06c2.51-1.5,4.93-.16,5.11,2.8a7.37,7.37,0,0,0,.4,1.8c3.42-.78,6.66-2.57,9.08-1.79,2.83.9,5.25.33,7.87.48,1.77.1,4.3.69,5.07,1.94C1897.6,104.32,1899.41,105.54,1904.67,105Zm-54-10.88Z" transform="translate(0 0)" opacity="0.3"/><path d="M1779.25,94.49c-.56-.77-1.56-2.16-2.4-3.34L1772,94.69l-7.26-7.64c-.54,1.71-.92,2.92-1.59,5l-5-5.65-1,3.54c-2.11-1.68-4-3.19-5.9-4.71l-.63.64c.37,1.73.75,3.47,1.12,5.2a6.41,6.41,0,0,1,1.94-.09c4.59,1.21,9.17,2.43,13.71,3.79a12.94,12.94,0,0,1,2.87,1.77c3-1.41,6-3.41,9,0l1.22-.18c1.74-.63,3.55-1.15,5.23-1.93,2.21-1,4.32-2.27,6.47-3.43-2.52.6-5,1.14-7.54,1.8C1783,93.24,1781.29,93.84,1779.25,94.49Z" transform="translate(0 0)" opacity="0.3"/><path d="M1712.48,80.52c-2.44,2.26-4.44,1-6.69.37-1.71-.45-3.42-.87-5.13-1.31l.38.94c-1.25.82-2.67,2.51-3.7,2.3a26.81,26.81,0,0,1-7-3A28.61,28.61,0,0,0,1675,76.56l-1.76.73a2.52,2.52,0,0,1,.08.55c2.37.33,4.74.68,7.12,1,.54.07,1.18-.17,1.65,0,2.47,1.08,4.91,2.26,7.36,3.4L1692,82c1.18.3,2.57.3,3.5,1,2.19,1.5,4.06,2,6.39.17,1-.73,2.92-1.24,3.82-.74,4.17,2.29,8-.62,12-.33C1716.35,80.15,1714.05,79.07,1712.48,80.52Z" transform="translate(0 0)" opacity="0.3"/><path d="M1899.35,115.9l0,0c.09.56.18,1.13.28,1.7,2.05-.79,4.27-.89,7.51.73,0-1.07,0-2,.05-2.8A10.94,10.94,0,0,0,1899.35,115.9Z" transform="translate(0 0)" opacity="0.3"/><path d="M1836.36,93.51a2.14,2.14,0,0,1-2.07.29c-3-2.07-7.49-2.27-8.52-6.81-.06-.27-.72-.4-1-.53a13.68,13.68,0,0,1-2.71,2.53c-2.28,1.15-4.69,2-7.06,3l4.21.73,1.28-.88,2.63-.37c1.11-.09,2.37-.56,3.3-.2,3,1.16,6,2.63,8.94,4l3.23-1,2.65-1.15C1839.51,91.87,1837.9,91.28,1836.36,93.51Z" transform="translate(0 0)" opacity="0.3"/><path d="M1727.53,82.77c-2,1.34-7.35,1.1-9.59-.42-.6,3.09,1.11,3.46,3.55,3.09,6-.94,11.13.12,13.86,6.49.34.8,1.84,1.12,2.81,1.66-1.94-3.06-4-6.07-5.79-9.2C1731.16,82.33,1729.86,81.22,1727.53,82.77Z" transform="translate(0 0)" opacity="0.3"/><path d="M1795.58,90.34l4.15,5.71,3.54.31,2-.34-.12-1.32A15.34,15.34,0,0,1,1795.58,90.34Z" transform="translate(0 0)" opacity="0.3"/><path d="M1743.5,89.25c-1,.45-1.29,2.49-1.89,3.84l3-3,4,3.33,2.54-1.61c-1.19-.39-2.39-.76-3.57-1.19C1746.11,90.13,1744.42,88.82,1743.5,89.25Z" transform="translate(0 0)" opacity="0.3"/><path d="M1807.27,89.45c-.13,1.85-.21,3-.29,4.23l2.87,1,3.18-2C1810.42,94,1809.32,90.83,1807.27,89.45Z" transform="translate(0 0)" opacity="0.3"/><path d="M1813,92.69a5.39,5.39,0,0,0,.68-.43Z" transform="translate(0 0)" opacity="0.3"/><path d="M1741.6,93.1l-2.77.67C1740.15,95.2,1741.08,95,1741.6,93.1Z" transform="translate(0 0)" opacity="0.3"/><path d="M1793.51,90.08l1.31-.27-1.08-1.71C1793.62,89.11,1793.56,89.6,1793.51,90.08Z" transform="translate(0 0)" opacity="0.3"/><path d="M1380.52,59.15c2.15,1.79,3.21.94,5.41-4.5a45.93,45.93,0,0,0-3.11-5.31c-.66-.85-2-1.21-3-1.79-.22,1-.94,2.3-.57,3,1.18,2.42.69,4.27-1.13,6.07l-3.17-.95-1.07.76,2.7,4.92Z" transform="translate(0 0)" opacity="0.3"/><path d="M1362.6,59.18c-1.5-.63-3.34-.38-5-.73-4.94-1.05-9.84-3-14.78-3.07-4.45-.06-8.28-1.57-12.35-2.59-.47-.11-.85-.6-1.27-.91l-1.29-.41c-.71-.12-8.9,11-9.52,10.67-16.28-9.53-32-9.06-39.59,8.59-1.77,4.08-5.83,4.23-10.7,3,.88,2.86,3.27,1.83,5.35,1.7,4.06-.25,8.11-.74,12.16-.66,7,.15,13.29-5.28,20.49-5.78,4.87-.34,7.63-5.18,12.53-4.58,2.64.33,12.67-10,15.23-9.32,4.88,1.38,9.82,2.69,14.55,4.5A46.36,46.36,0,0,1,1358.72,65a35,35,0,0,1,3.57,3,27.72,27.72,0,0,0,5.24-5.44A11.18,11.18,0,0,0,1362.6,59.18Z" transform="translate(0 0)" opacity="0.2"/><path d="M1265.91,71.75a4.27,4.27,0,0,1-2.24.72c1.53.5,3,1,4.45,1.31a6,6,0,0,1-.16-.67C1267.84,72.52,1266.21,71.56,1265.91,71.75Z" transform="translate(0 0)" opacity="0.2"/><path d="M1228.49,66a13.19,13.19,0,0,0-4-.24c-2.93,0-5.88.15-8.8-.06-7-.51-13.91-1.31-20.88-1.76-6.08-.39-12.18-.55-18.27-.68-7.89-.18-15.79-.24-23.68-.32-4,0-8.08-.08-12.12,0-2.11,0-4.22.37-6.33.54a5.91,5.91,0,0,1-2.61,0c-3.66-1.62-7-1-10.37.87-.75,1.58-1.48,1.55-2.2,0l-1.22,0-2.47,2.29a30.58,30.58,0,0,1-3-4.62c-.44-1-.08-2.38-.81-4l-2.85,3c-.14-.28-.53-.73-.43-1,2-4.41-.9-6.44-4-8.29a3.72,3.72,0,0,0-2.5-.41c-6.11,1.53-6.11,1.57-9.09-4.29a30,30,0,0,1-1.2-2.79c-1.64-4.42-1.64-4.43-5.69-2.55-2.35,2.71-3.09,2.61-4.89-.69l-4,.59-.45,1.1-.86-.65-6.19,1.23c-1.52,1.88-3,3.62-5.75,1.69-.59-.41-2.09.22-3,.67a19,19,0,0,0-2.82,2l-2,.7c-.44,3.32-3.51,2.53-5.46,3.49l5,4.48a74.68,74.68,0,0,0,4.52-7c2-3.94,5.19-1.66,7.81-2.26l.54,1-6,4.6c3.36.48,5.89,1.22,8.44-.93,1-.87,2.82-.88,4.28-1.19,1-.22,2.4.09,3.1-.48,2.25-1.84,4.36-.89,5.7.66.68.79-.24,3-.5,5l9.51,3.68c-.43,1.15-.94,2.51-1.44,3.87,3,0,5.92-.2,8.84.05,4.21.35,8.52,0,12.2,3.2,2,1.71,4.78,2.65,7.38,3.28,1.4.33,3.81-.24,4.58-1.28,1.7-2.31,4.35-3.72,6.47-1.89s3.4,1,5.06-.56,3.53-2,5.67,0c1.06,1,3,1.06,4.62,1.22,2,.2,4,0,6.53,0,2.43-2.7,6-.62,9.34-.88,1.77-.13,3.65.36,5.32-.07,3.63-.91,7.06-1.14,10.22,1.17,3.44,2.51,5.13,2.45,8.17-.26a3.89,3.89,0,0,1,2.32-1c3.09,0,6.18.25,9.26.49,5.39.41,10.85,1.66,16.14,1.17,10-.92,18.81,3.75,28.26,5.23a40,40,0,0,0,6,0c0-.36,0-.72,0-1.08a4.5,4.5,0,0,0,6.73-.29,3.33,3.33,0,0,1,4-1.08c1.67.53,3.29,1.64,5.08,1.59-5.4-1.8-11.22-4.2-15.81-4.32C1241.28,68,1234.8,68.2,1228.49,66ZM1092.16,55.67a.55.55,0,0,1-.52-.22c-.06-.14.13-.37.21-.56l.57.24C1092.34,55.32,1092.3,55.62,1092.16,55.67Z" transform="translate(0 0)" opacity="0.2"/><path d="M539.19,51.31q-2.1,2.82-4.2,0l-4-.08-3.36,3.83-2.17-4.4-1.93-.06c-2.37,2.68-4.32,1.24-6.22-.66l-7.43-.1c-2.26.12-4.6.67-6.75.24-3.3-.67-4.17-.36-4.77,3.15.57,1.38,1.14,2.77,1.91,4.62l-5.83.32L493.47,60q-1.26,3.79-2.53,7.59c0,.68-.06,1.35-.08,2,.19.68.39,1.35.59,2l2-1.35c0-4-.33-8.25,4.45-9.92,2.53-.89,3.32-2.36,3.13-4.81a33.14,33.14,0,0,1,.16-3.84c1.47.38,2.59.64,3.69,1,1.27.38,2.53,1.23,3.77,1.19,6.47-.24,11.1,2.17,12.94,8.66.8,2.81,2.64,4,5.32,4.32-.43-2.48-2.15-5.21,1.37-6.9-.4-3,2.15-5.88,5.72-6a10.91,10.91,0,0,1,5.51,1c3.26,1.92,4.15,0,5.06-2.42l-1.35-.75Z" transform="translate(0 0)" opacity="0.2"/><path d="M407.63,65c.19-.78-1.11-1.93-1.73-2.91a19.22,19.22,0,0,1,3.79,2.16,10.51,10.51,0,0,0,2.88,2,15.17,15.17,0,0,1,3.2-.36h.3a6.77,6.77,0,0,0,1.27-1.29c-.56-.2-1.17-.24-1.49-.56s-.91-.87-1.33-1.33l-8.81-1.17a5.59,5.59,0,0,1-1.37.82c-.65.16-1.31.3-2,.45a4.38,4.38,0,0,0-.43,1.49,3.89,3.89,0,0,1,2.34,1.85h0a7.52,7.52,0,0,0,3.54.79A2.26,2.26,0,0,1,407.63,65Z" transform="translate(0 0)" opacity="0.2"/><path d="M454.88,67.81c-7.81-1.91-16.06.63-23.59-2.89-.28-.13-.68,0-1,0l-9.62-1.27a10.5,10.5,0,0,0,1.83,2.4,32.85,32.85,0,0,1,11.19,1.73c3.6,1.33,7.7,1.37,11.59,1.87,4.35.56,8.78-.92,13.12,1.78,2.21,1.37,5.71.6,8.61,1a45.91,45.91,0,0,1,4.89,1.08c1.74.39,3.46.79,3.94-1.71l-.77-1.08C468.32,69.73,461.44,69.41,454.88,67.81Z" transform="translate(0 0)" opacity="0.2"/><path d="M397.39,64l.22.08a1.81,1.81,0,0,0,.27-.18Z" transform="translate(0 0)" opacity="0.2"/><path d="M596.54,47.52c-3.67,1.37-7.25,3-10.31,4.27L580,49.12l-1.23.66a31.65,31.65,0,0,1-4.27,2.07,48.3,48.3,0,0,1-5.4,1.12c0,.32,0,.65,0,1,3.79-.66,7.76-1.87,9.71,4.77,1.76-8,5.42-2.43,8.15-2.87.34-.84.64-1.62,1-2.44l2.53,1-.27-1.12,4.74-2.09,2.78-2,1.33,0c0-.3,0-.59,0-.89C598.22,48,597.2,47.27,596.54,47.52Z" transform="translate(0 0)" opacity="0.2"/><path d="M909.5,30.4l-1.33-.23-1.39,1.16,2.89.56C909.61,31.39,909.55,30.9,909.5,30.4Z" transform="translate(0 0)" opacity="0.2"/><path d="M689.59,6.87l-4.74-.62c-3.49,1-7,1.7-10.21-.74-6.36.51-12.8.34-18.93,2.74a6,6,0,0,1-4.36-.58c-3.05-1.58-5.77-1.31-7.28,1.54-1.29,2.41-2.39,2.22-4,.46-2.08-2.26-4.24-2.5-6.83-.48-.89.69-2.6.4-3.94.43-2.61.05-5.23,0-7.84,0-1,2.33-2.46,1.81-4,.6l-2.63-.05L612,9.75l-1.3,0L607.9,11l-12.81,4.28c-.88,2.67-2.9,3.37-5.05,2.05-2.57-1.58-4.85-1.27-7.31-.16h0c-.72.66-1.7,2-2.12,1.86-5.54-2.09-10.09,2-15.25,2.3-3.68.21-3,3.72-3.19,6.42.8-1,1.43-2.26,2.45-2.88s2.4-3.28,3.76-.19l2,2.13,13.75-3.14c.89.15,2.16,2.24,3,2.08,2.76-.57,3.08.66,3.23,2.79,0,.66.88,1.26,1.35,1.89.36-1.6-.25-3,0-4.16a11,11,0,0,1,2.19-4c.2-.27,1.37.11,2.07.31,1.35.4,2.7,1.3,4,1.23,4.93-.28,7.66.7,8.81,6.51.47,2.41,1.78,3.41,4.28,3.14a28,28,0,0,1,4.47.2c3.43-.46,6.8-.75,9.24,2.5,1.42,1.89.87,5-1.31,5.25-2.74.29-3.43,1.48-3.32,3.92,0,.63-.76,1.29-1.17,1.94-.17.28-.31.8-.52.82-3.7.5-7.39,1-11.1,1.31a4.79,4.79,0,0,1-2.56-1.08c-2.14-1.42-4.24-2.19-6.42-.13,3.2,2.24,6.41,4.46,9.6,6.71.71.5,1.35,1.11,2,1.67l6.16-4.52,3.65,4.7,3.12-2.22,4.38-5.54,1.5.44c-.09,2-.23,3.94-.24,5.9,0,.73.15,1.89.58,2.07a2.66,2.66,0,0,0,2.33-.28c1.74-1.48,3.27-1.69,5.13-.2a13.22,13.22,0,0,0,3.1,1.4,29.4,29.4,0,0,0,.88-3.44,17.25,17.25,0,0,0-.21-3.11h-7c-.91-3.94,3.58-3.21,5.15-4.57,2.31-2,4.88-.07,6.74,2,5-5,3.8-5.21,12.22-.4l5.06-7.23c.48,2.19.72,3.3,1,4.78,2.1-4.3,2.88-4.3,5.73-1.12a7.44,7.44,0,0,0,4.27,2.35,45.42,45.42,0,0,0,10.16,0,5.08,5.08,0,0,0,3.59-2.81A5.3,5.3,0,0,0,688,40.43c-1.13-1.14-3.13-1.42-5-2.18-.5-2.48-1.7-4.39-5-2.79,3.6,2.83-1.11,4.59-.89,7-1.57,0-3.41.6-4.67,0-2.41-1.19-2.5-3.75-1.62-5.94,1.28-3.16,3.88-.91,5.91-1.06-.44-.78-.83-1.59-1.33-2.33-2.26-3.31-3.87-3.48-6.69-.82a6.4,6.4,0,0,1-2.42,1.67,62.13,62.13,0,0,1-6.15,1l-1.88-1.38-1.52,2h-8.27c1.33-5.28,2.68-10.65,4.11-16.31-4.69,1.4-3.38,6.54-6.6,9-.92-2.35-2.33-4.53-2.5-6.81-.14-2-.06-4.69,2.8-5.56,1.48-.45,3-.92,4.43-1.4s2.73-1,4.14-1.36c2.09-.51,4.21-.88,6.55-1.35l.93,2.22c4.46-4.06,8.06-7.14,15.18-6.16C686,9,694,12.55,702.68,11.92a1.92,1.92,0,0,1,1.27.45c3,2.56,4,.72,4.66-2,.21-.87.53-1.72.79-2.59-5.35,0-10.71,0-16.06-.09A20,20,0,0,1,689.59,6.87ZM654.52,37.15c2.27.73,3.48,4,2.18,6.56a2.69,2.69,0,0,1-2.54.71,46,46,0,0,1-5.11-3.74C649.79,37.38,651.49,36.18,654.52,37.15Zm-13.87,6.29c-2.69-.9-5.43-1.65-8.51-2.58,1.6-5.08.08-11.16,5.71-14.76a42.76,42.76,0,0,1,3.9,4.46c.48.72.17,2,.21,3,0,.45,0,.9,0,1.35a63.89,63.89,0,0,1,1.36,6.91C643.53,43.65,642.33,44,640.65,43.44Z" transform="translate(0 0)" opacity="0.2"/><path d="M704.78,41.63c-.52,3.77-1.6,4.69-5.5,4.49,0-3.14,2.62-3.69,4.68-4.74a1,1,0,0,0,0-.49,30,30,0,0,0-4.4-3.71c-.91-.53-2.35-.11-3.55-.12,0,1.14,0,2.28,0,3.41s.79,2.16.45,2.9c-1.18,2.64-1.06,4.29,2.27,4.71a13.59,13.59,0,0,1,3.13,1.19L706,44.44c-.25-1-.5-2-.74-3A.67.67,0,0,0,704.78,41.63Z" transform="translate(0 0)" opacity="0.2"/><path d="M394.46,63.7c-2.38-.94-4.73-2.35-7.16-2.52-2.15-.15-4.3-.15-6.46-.1l3.56,3.78c2,0,4.05,0,6.07,0l1.07-.38Z" transform="translate(0 0)" opacity="0.2"/><path d="M372.31,61.37c1,.48,2,.93,3,1.44,1.29.66,2.55,1.36,3.83,2h5.28l-3.56-3.78C378,61.15,375.15,61.31,372.31,61.37Z" transform="translate(0 0)" opacity="0.2"/><path d="M800.56,9.76v4.17c1.09-.25,2.2-.45,3.28-.74,4.21-1.14,8.37-1.59,12.42.6l1.36,0L819,12.51a5.11,5.11,0,0,0-1.43-.7C811.89,11.1,806.22,10.44,800.56,9.76Z" transform="translate(0 0)" opacity="0.2"/><path d="M474.07,102c-2.15-.7-4.42-1-5.84,2.23,2.34.53,4.31,2.49,6.5.22A2.79,2.79,0,0,0,474.07,102Z" transform="translate(0 0)" opacity="0.2"/><path d="M602,70.4c1.74.47,3.51.81,5.28,1.17l.39-2.1-5.51-.87A9.61,9.61,0,0,0,602,70.4Z" transform="translate(0 0)" opacity="0.2"/><path d="M790.24,10.21l4.23.85h2v-.69C794.45,9.12,792.39,7.81,790.24,10.21Z" transform="translate(0 0)" opacity="0.2"/><path d="M560.88,52.66l.74,1.36,2,0,.81-1.24-.86-.35Z" transform="translate(0 0)" opacity="0.2"/><path d="M535.05,70.31l1.39.76.68-.07c0-.71,0-1.42-.08-2.13Z" transform="translate(0 0)" opacity="0.2"/><path d="M907.69,33.92a2.27,2.27,0,0,0-.64,1.7c.11.45,1.06,1.14,1.38,1,2-.74,3.93-1.67,5.89-2.54l-4.5-2.05A19.13,19.13,0,0,0,907.69,33.92Z" transform="translate(0 0)" opacity="0.2"/><path d="M774.14,6.48c-7,.2-14.12-2-21.12.67-1.25.47-3-.51-4.53-.66-1.69-.16-3.39-.12-5.09-.17.06.21.12.62.18.62,3-.07,4.66,5.33,8.51,2.15.26-.22,1.08.12,1.59.33A12.36,12.36,0,0,0,764.73,9a7.7,7.7,0,0,1,4.15-1.16c4.94.7,9.81,1.86,14.74,2.64a23.59,23.59,0,0,0,4.87-.23c-.69-.5-1.32-1.28-2.08-1.44C782.34,7.86,778.21,6.36,774.14,6.48Z" transform="translate(0 0)" opacity="0.2"/><path d="M718.37,6.05c-1.07,2.1-2.62,1.68-4.27,1a31.91,31.91,0,0,0,1.15,4.13c.67,1.61,2,1.72,2.69.2,1.27-3,3.11-2.54,4.43-1.62l8.09-4c-3.61-.22-7.22-.47-10.83-.6A1.85,1.85,0,0,0,718.37,6.05Z" transform="translate(0 0)" opacity="0.2"/><path d="M742.11,6.43l-7.61-.72C737.53,9.47,740,9.71,742.11,6.43Z" transform="translate(0 0)" opacity="0.2"/><path d="M856.46,18.52c-.18,1.2-.37,2.39-.62,4,2.64-.18,5.09-.75,7.41-.4,2.49.37,4.86,1.61,7.29,2.46a1.37,1.37,0,0,0,.67,0c3.34-.5,6,.93,8.83,2.53,1.63.95,3.74,1.06,5.64,1.55l3.41-3.4a22,22,0,0,0-2.23-.68Q871.67,21.57,856.46,18.52Z" transform="translate(0 0)" opacity="0.2"/><path d="M488.92,74.79c.16.06.78-1.15,1.18-1.77l-11-1.2C481.74,74.91,485.7,73.64,488.92,74.79Z" transform="translate(0 0)" opacity="0.2"/><path d="M659.68,17.31c-.72.08-1.33,1.08-2,1.67.74.74,1.37,1.88,2.23,2.1s1.69-.75,2.55-1.19c-.19-.44-.39-.87-.59-1.31C661.14,18.12,660.36,17.24,659.68,17.31Z" transform="translate(0 0)" opacity="0.2"/><path d="M535.75,59.42,533,62.18l4.71-.66Z" transform="translate(0 0)" opacity="0.2"/><path d="M537.23,68.3c2.46-2.09,2.67-4,.66-6.21Z" transform="translate(0 0)" opacity="0.2"/><path d="M530.08,65.21l1.9-2.76L528.33,60C528.79,61.41,529.26,62.79,530.08,65.21Z" transform="translate(0 0)" opacity="0.2"/><path d="M374.52,67.73a19.45,19.45,0,0,1-14.27,2,18.31,18.31,0,0,0-4.75-.24c.4,1.07.81,2.13,1.21,3.19a6.66,6.66,0,0,0,1,.11c7.47.14,14.95.07,22.42.08q-1.46-2.59-2.92-5.19C376.3,67.69,375.23,67.36,374.52,67.73Z" transform="translate(0 0)" opacity="0.2"/><path d="M348.81,67.74c-.49-.42-1.52-.22-2.31-.31l-2.6,1.71-2.1-1.4-1.34-.53c-3.08.27-6.49,1.53-9.15.61a78,78,0,0,0-15.47-4.16c-6.31-.83-12.44-2-18.3,1.54a49,49,0,0,0,5.8.14c1.6-.15,3.4-1.48,4.71-1.06,6.18,2,13.42-.24,18.89,4.64a3.66,3.66,0,0,0,2.22.68c3.34.07,6.68-.09,10,.06,1.84.09,3.65.69,5.48,1,2.62.37,5.27.56,7.87,1,1.42.23,2.8.84,4.19,1.09-.4-1.06-.81-2.12-1.21-3.19C353.18,69.56,350.86,69.5,348.81,67.74Z" transform="translate(0 0)" opacity="0.2"/><path d="M405.76,61.52c.28-2,0-3.65-1.7-3.6L400.4,60l-1.3.76a4.77,4.77,0,0,1-1.22,3.11l4.5-1C402.86,62,403.82,61.39,405.76,61.52Z" transform="translate(0 0)" opacity="0.2"/><path d="M398.15,64.26l-.54-.19a3.19,3.19,0,0,1-2.69-.09l-.13-.24.21-.18-.54.14.38.15a11.37,11.37,0,0,1-3,.94l-1.38,0-3.73,1.32,1.42.15a22.56,22.56,0,0,1,4.12,2.4c3.56,3.25,5.89,3.22,8.89-.42l.65-1.35c0-.85,0-1.73.13-2.53A12,12,0,0,0,398.15,64.26Z" transform="translate(0 0)" opacity="0.2"/><path d="M397.88,63.89a1.81,1.81,0,0,1-.27.18l.54.19a12,12,0,0,1,3.8.12,4.38,4.38,0,0,1,.43-1.49Z" transform="translate(0 0)" opacity="0.2"/><path d="M397.88,63.89a1.81,1.81,0,0,1-.27.18l.54.19a12,12,0,0,1,3.8.12,4.38,4.38,0,0,1,.43-1.49Z" transform="translate(0 0)" opacity="0.2"/><path d="M394.84,63.85l-.38-.15-2.92.73-1.07.38,1.38,0A11.37,11.37,0,0,0,394.84,63.85Z" transform="translate(0 0)" opacity="0.2"/><path d="M394.84,63.85l-.38-.15-2.92.73-1.07.38,1.38,0A11.37,11.37,0,0,0,394.84,63.85Z" transform="translate(0 0)" opacity="0.2"/><path d="M293.23,62.28c-3.39.51-6.81.82-10.2,1.29a25.57,25.57,0,0,0-3.07.78c3.6.21,7.19.47,10.79.62,1.82.07,3.65-.06,5.48-.09C296.06,63.05,295.38,62,293.23,62.28Z" transform="translate(0 0)" opacity="0.2"/><path d="M381.28,72.89c2,.52,3.14-.28,3.48-2.33.19-1.18.52-2.34.79-3.51l-2.08.58Z" transform="translate(0 0)" opacity="0.2"/><path d="M419.42,60.3c-.14-.62-2.26-1.23-3.36-1.08-.95.13-2.57,1.52-2.45,2a3.58,3.58,0,0,0,.91,1.54l6.14.81A12.24,12.24,0,0,1,419.42,60.3Z" transform="translate(0 0)" opacity="0.2"/><path d="M416.07,66a3.28,3.28,0,0,1-3.5.35,25.63,25.63,0,0,1-4.73.71,2.23,2.23,0,0,0,1.79.7c2.87.1,5.75-.14,8.63-.16,1.26,0,2.79-.18,3.68.45.62.43.79,2.32.39,3.2-1.43,3.17.41,3.24,2.63,3.16.88-3.25,3.72-2.82,6.1-3.27-.16-.29-.25-.78-.48-.85-3.11-1-6-2.18-8.09-4.26C420.35,66,418.21,66,416.07,66Z" transform="translate(0 0)" opacity="0.2"/><path d="M420.66,63.6l-6.14-.81c.42.46.91.9,1.33,1.33s.93.36,1.49.56A6.77,6.77,0,0,1,416.07,66c2.14,0,4.28,0,6.42,0A10.5,10.5,0,0,1,420.66,63.6Z" transform="translate(0 0)" opacity="0.2"/><path d="M420.66,63.6l-6.14-.81c.42.46.91.9,1.33,1.33s.93.36,1.49.56A6.77,6.77,0,0,1,416.07,66c2.14,0,4.28,0,6.42,0A10.5,10.5,0,0,1,420.66,63.6Z" transform="translate(0 0)" opacity="0.2"/><path d="M412.57,66.32a10.51,10.51,0,0,1-2.88-2,19.22,19.22,0,0,0-3.79-2.16c.62,1,1.92,2.13,1.73,2.91a2.26,2.26,0,0,0,.21,2A25.63,25.63,0,0,0,412.57,66.32Z" transform="translate(0 0)" opacity="0.2"/><path d="M412.57,66.32a10.51,10.51,0,0,1-2.88-2,19.22,19.22,0,0,0-3.79-2.16c.62,1,1.92,2.13,1.73,2.91a2.26,2.26,0,0,0,.21,2A25.63,25.63,0,0,0,412.57,66.32Z" transform="translate(0 0)" opacity="0.2"/><path d="M1895.24,114.11a8,8,0,0,1,1.56-2.31,11.38,11.38,0,0,1-1.64.24C1895.17,112.73,1895.19,113.42,1895.24,114.11Z" transform="translate(0 0)" opacity="0.2"/><path d="M1905.75,106c0-.09.08-.18.11-.27l-1.19-.76c-5.26.56-7.07-.66-9.71-4.92-.77-1.25-3.3-1.84-5.07-1.94-2.62-.15-5,.42-7.87-.48-2.42-.78-5.66,1-9.08,1.79a7.37,7.37,0,0,1-.4-1.8c-.18-3-2.6-4.3-5.11-2.8a6.53,6.53,0,0,1-2.39,1.06c-3.41.41-6.84.81-10.26.92a27.36,27.36,0,0,1-5.26-.81l-3.89-.68a11.48,11.48,0,0,0,2.06,2.26c2.17,1.39,4.47,2.57,6.7,3.87.85.5,1.65,1.58,2.45,1.55,3.57-.12,7.14-.54,11.48-.92a8.36,8.36,0,0,1,1.19,1.93,8.2,8.2,0,0,0,7.45,5c.56,0,1.08.73,1.68.85,2,.4,4,.68,6,1-.24-1.53-.5-3.06-.72-4.6-.12-.86-.48-1.9-.15-2.56a2.76,2.76,0,0,1,2.16-1.12,51.21,51.21,0,0,1,5.5.55l.92-1.3a38.5,38.5,0,0,1,2.41,5.92,21,21,0,0,1,.41,4.29,11.38,11.38,0,0,0,1.64-.24,4.84,4.84,0,0,1,2.63-1.43v-5.44A6.52,6.52,0,0,0,1905.75,106Z" transform="translate(0 0)" opacity="0.2"/><path d="M1906.11,105.9l-.25-.16c0,.09-.07.18-.11.27Z" transform="translate(0 0)" opacity="0.2"/><path d="M1906.31,106l-.2-.13-.36.11c-.87,2.2-1.66,4.4-.56,6.6,0-3.84,1.92,0,3.84-1.92a6.49,6.49,0,0,0-1.87,4.88c.08,0,.16,0,.25.06,1.19.38,2.88-.85,4.34-1.34-.64-1.15-1.21-2.34-1.94-3.42C1908.7,109.22,1907.48,107.64,1906.31,106Z" transform="translate(0 0)" opacity="0.2"/><path d="M1905.19,112.61c-1.1-2.2-.31-4.4.56-6.6a6.52,6.52,0,0,1-6.32-1.08v5.44a7.28,7.28,0,0,1,3.42.33c.57.17.94,1,1.41,1.51-.47.39-.92.82-1.41,1.18-1.16.85-2.33,1.68-3.5,2.51a10.94,10.94,0,0,1,7.81-.33,6.49,6.49,0,0,1,1.87-4.88C1907.11,112.61,1905.19,108.77,1905.19,112.61Z" transform="translate(0 0)" opacity="0.2"/><path d="M1841.25,93.09l-2.65,1.15c-.44,1.45-.88,2.9-1.39,4.61l7.11-3.44-1.62-1.88Z" transform="translate(0 0)" opacity="0.2"/><path d="M1805.12,94.7l.12,1.32c1.9.79,3.55.73,4.61-1.34l-2.87-1Z" transform="translate(0 0)" opacity="0.2"/><path d="M1610.26,74.9c-3-2.13-6.32-3.74-9.72-5.7-1.09,2.47-1.5,4.62-4.13,3-.25-.15-1.88,1.28-2.25,2.23-.27.7.45,1.8.76,2.82l-3.83.53a15.57,15.57,0,0,1-.45-3.63c.42-3.24-2.32-3.61-4.14-4.18-2.08-.66-4.46-.36-6.71-.47-4.33.72-1.18,5.15-3.41,8.37l-3-5.61c-5.69-1.77-11.75,2.1-17-2a.46.46,0,0,0-.33-.07c-3.42.13-6.84.22-10.25.46a7.76,7.76,0,0,0-2.34,1,76.7,76.7,0,0,0,11,.88c3.11,0,6.07,3.85,9.82,1.13,4.48,2.21,9.91,2.83,12.88,7.72,2.49-.31,4.22-1.21,4.2-4.18,0-.68,1.05-2,1.44-1.94a3.9,3.9,0,0,1,2.48,1.54c.49.79,0,2.29.57,2.91a21.57,21.57,0,0,0,3.84,2.76c.55-2,1.63-2.65,3.75-2,1,.3,2.26-.22,3.4-.36l.61-.79c.34-1,.42-2.56,1.06-2.83,2.55-1.06,5.31-2.4,7.91-2.24,1.38.09,2.58,3,3.87,4.69l.85.6,4.24-4.74-.08,0-.07-.06C1613.61,75.42,1612.25,76.32,1610.26,74.9Z" transform="translate(0 0)" opacity="0.2"/><path d="M1672.05,77.23c-7.14,2.24-12.93-.67-18.27-5.13-2,1.79-4.39,3.18-5.58.06s-3.12-3.37-5.78-3.25a10.49,10.49,0,0,1-3.93-.59c-4.74-1.76-11.18.87-13.09,5.71a36,36,0,0,1-3.67-1.4c-3.2-1.64-4.49-1.26-6.49,2.07l.07.06.08,0c3.23.21,6.47.29,9.67.68,1,.13,2,1.08,3,1.65,2.17-.16,4-.47,3.94-3.46,0-1,1.46-2.37,2.55-2.75.7-.25,2,.95,2.9,1.6.54.37.87,1.24,1.42,1.38,5,1.3,10.1,2.46,15.14,3.74,2.52.64,5,1.52,7.51,2.18,1.6.42,3.25.65,4.88,1l1.9-1,4-1.18,1.11-.79a2.61,2.61,0,0,0-.08-.55Z" transform="translate(0 0)" opacity="0.2"/><path d="M1418.08,75.15l-2,1.17A2.8,2.8,0,0,1,1411.7,74c-.08-2.55-1.19-2.8-3.27-2-1.73.62-3.53,1-5.69,1.6-.74,2-1.7,4.51-2.34,6.2-2.42,0-5.09-.22-5.19.16a12.83,12.83,0,0,1-1.06,3c2.55.09,4.55-2.42,7.06-1.16.26-.38.5-.77.75-1.18.9-1.51,2.64-3.34,4.15-3.49a16.85,16.85,0,0,1,7.51,1.39c.92.37,1.21,2.37,2.16,4.46,1-3.19.65-6.75,4.61-6.79-.18-.64-.36-1.28-.59-2.08Z" transform="translate(0 0)" opacity="0.2"/><path d="M1521.68,67.32a3.24,3.24,0,0,0-2.29.3c-3.15,2.53-6.32,1.19-9.62.47-1.15-.26-2.56.65-3.85,1,3.86.44,7.7,1.08,11.57,1.25,4.37.19,8.78-.25,13.15,0,3.83.2,7.63.94,11.44,1.44a11.89,11.89,0,0,0-2.91-1.47C1533.35,69.22,1527.52,68.26,1521.68,67.32Z" transform="translate(0 0)" opacity="0.2"/><path d="M1432.47,69.35c-2.84-.79-6.83,2.34-7.59,5.52l9.91-2.57C1434,71.27,1433.44,69.62,1432.47,69.35Z" transform="translate(0 0)" opacity="0.2"/><path d="M1494.72,69.78c1.49-.63,3.52.08,5.31.07a7.58,7.58,0,0,0,1.93-.52L1491.9,68C1492.27,69.4,1492.31,70.81,1494.72,69.78Z" transform="translate(0 0)" opacity="0.2"/><path d="M1823.13,91.5c2.2,1.79,4.19,4,6.66,5.22,1.69.84,4.32,1.3,5.58-1.44-3-1.35-5.89-2.82-8.94-4C1825.5,90.94,1824.24,91.41,1823.13,91.5Z" transform="translate(0 0)" opacity="0.2"/><path d="M1803.27,96.36l-3.54-.31C1800.73,98.26,1801.87,98.73,1803.27,96.36Z" transform="translate(0 0)" opacity="0.2"/><path d="M1899.21,117.79l.45.23-.06-.38Z" transform="translate(0 0)" opacity="0.2"/><path d="M1899.32,115.94l-1,1.4.9.45.39-.15C1899.5,117.07,1899.41,116.5,1899.32,115.94Z" transform="translate(0 0)" opacity="0.2"/><path d="M829.91,17.17c3.32,1.48,6.16,4,8.5,5.66.69,2.1.83,4,1.82,5,.54.56,2.52-.25,3.85-.44L844,26.26l-3.13-1.57,1.68-4.79.52.89,5.46-.74c2.14,1.1,3.93,2,5.74,2.95,1.08.55,2.9.83,3.16,1.63,1.61,4.89,4.53,2.43,7.35,1.72a17.15,17.15,0,0,1,4.64,0c.77,0,1.59.45,2.3.29,3.48-.78,6.07.56,8.42,3s3.3,2.39,5.56-.86h0l0,0h0c-1.9-.49-4-.6-5.64-1.55-2.79-1.6-5.49-3-8.83-2.53a1.37,1.37,0,0,1-.67,0c-2.43-.85-4.8-2.09-7.29-2.46-2.32-.35-4.77.22-7.41.4.25-1.64.44-2.83.62-4l-5.58-2.33-1.28-.27c-1.13.42-2.29,1.24-3.4,1.17-2.26-.13-4.56-1.22-6.33,1.25a3.36,3.36,0,0,1-2-1,4.6,4.6,0,0,0-4.76-2.91c-2.65,0-5.3-.43-8-.67L823,12.54l-4,0-1.36,1.23a11.41,11.41,0,0,0,2.6,1.37C823.45,15.84,827,15.86,829.91,17.17Z" transform="translate(0 0)" opacity="0.1"/><path d="M628.92,64.11a4,4,0,0,0,2.57-1.64c1.61-3.27,4-2.52,6.27-1.29,3.89,2.08,8,1.82,10.88-.64l6.54.81c.05.43.13,1.18.18,1.61,6.45-2.75,14.07-1.15,19.28-6.26,4,3.24,3.87,3.16,7.22-.54a4.35,4.35,0,0,1,3.43-.95c3.6.59,6.43-.35,8.67-3.28s3-2.8,5.56,0l2.38-2.67a13.59,13.59,0,0,0-3.13-1.19c-3.33-.42-3.45-2.07-2.27-4.71.34-.74-.37-1.91-.45-2.9s0-2.27,0-3.41c1.2,0,2.64-.41,3.55.12a30,30,0,0,1,4.4,3.71c-.4-.91-1.31-2-1.11-2.71.86-3.1-.42-3.09-2.93-2.79-1,.12-2.25-1.43-3.39-2.22a14.65,14.65,0,0,1,2.5-1.72c1.06-.45,2.31-.45,3.37-.89.76-.32,2-1.2,1.91-1.55a22.79,22.79,0,0,0-1.6-3.82L699,26c.5-1,.78-2.26,1.56-2.94a29.86,29.86,0,0,1,4.4-2.71c.47,1,1,1.58,1,2.15-.08,2.06.56,4.18,2.67,3.75,1.19-.24,2-2.77,2.79-4.36.27-.53-.11-1.35,0-2,.18-1.56.46-3.11.7-4.66l.94-.57c2.37,4.62,5.35,3.84,8.33,1.56,1.77-1.36,3.91-2.68,4.86-4.55,1.87-3.63,2.13-4,6.66-2.81l-1.71,4.17c2.19,0,3.65.07,5.11,0,2-.12,4.31,1,5.73-1.59.21-.39,2-.5,2.47-.08,2.2,1.88,4.7.78,7,1.14a74.34,74.34,0,0,1,7.66,2,7.56,7.56,0,0,0,1.82.32c1.35,0,2.9-.49,4,0,2.42,1,4.58,2.68,6.93,3.9a14.93,14.93,0,0,0,3.31.88c0-1.07-.14-2.14-.07-3.19s.2-3.15.54-3.2a34.09,34.09,0,0,1,7.62-.28c.21,0,.26,2.7.33,4.15a13.6,13.6,0,0,0,0,2.71c.31,1.18.71,3,1.46,3.27,1.8.53,4,2.17,6-.42-.76-.89-1.8-1.63-2.08-2.59a4.11,4.11,0,0,1,.35-3.22,75.25,75.25,0,0,1,5.12-5.76l-4.23-.85h-1.75a23.59,23.59,0,0,1-4.87.23c-4.93-.78-9.8-1.94-14.74-2.64A7.7,7.7,0,0,0,764.73,9a12.36,12.36,0,0,1-11.05.46c-.51-.21-1.33-.55-1.59-.33-3.85,3.18-5.5-2.22-8.51-2.15-.06,0-.12-.41-.18-.62l-1.29.11c-2.07,3.28-4.58,3-7.61-.72l-4,0-8.09,4c-1.32-.92-3.16-1.42-4.43,1.62-.64,1.52-2,1.41-2.69-.2A31.91,31.91,0,0,1,714.1,7l-4.7.72c-.26.87-.58,1.72-.79,2.59-.65,2.77-1.66,4.61-4.66,2a1.92,1.92,0,0,0-1.27-.45C694,12.55,686,9,677.53,7.84c-7.12-1-10.72,2.1-15.18,6.16l-.93-2.22c-2.34.47-4.46.84-6.55,1.35-1.41.35-2.76.91-4.14,1.36s-3,.95-4.43,1.4c-2.86.87-2.94,3.58-2.8,5.56.17,2.28,1.58,4.46,2.5,6.81,3.22-2.47,1.91-7.61,6.6-9-1.43,5.66-2.78,11-4.11,16.31h8.27l1.52-2L660.16,35a62.13,62.13,0,0,0,6.15-1,6.4,6.4,0,0,0,2.42-1.67c2.82-2.66,4.43-2.49,6.69.82.5.74.89,1.55,1.33,2.33l1.27,0c3.29-1.6,4.49.31,5,2.79,1.88.76,3.88,1,5,2.18a5.3,5.3,0,0,1,1.31,4.43,5.08,5.08,0,0,1-3.59,2.81,45.42,45.42,0,0,1-10.16,0,7.44,7.44,0,0,1-4.27-2.35c-2.85-3.18-3.63-3.18-5.73,1.12-.32-1.48-.56-2.59-1-4.78l-5.06,7.23c-8.42-4.81-7.21-4.6-12.22.4-1.86-2.11-4.43-4.06-6.74-2-1.57,1.36-6.06.63-5.15,4.57h7a17.25,17.25,0,0,1,.21,3.11,29.4,29.4,0,0,1-.88,3.44,13.22,13.22,0,0,1-3.1-1.4c-1.86-1.49-3.39-1.28-5.13.2a2.66,2.66,0,0,1-2.33.28c-.43-.18-.58-1.34-.58-2.07,0-2,.15-3.93.24-5.9l-1.5-.44-4.38,5.54c.44,2.07.87,4.15,1.3,6.21-5.57,1.5-5.57,1.5-5.65,3.89,1.33-.18,2.63-.43,3.94-.51A35.87,35.87,0,0,0,628.92,64.11Zm31-43c-.86-.22-1.49-1.36-2.23-2.1.66-.59,1.27-1.59,2-1.67s1.46.81,2.2,1.27c.2.44.4.87.59,1.31C661.61,20.33,660.63,21.25,659.92,21.08Z" transform="translate(0 0)" opacity="0.1"/><path d="M985,55.33c1.46-2.15,3-1.15,4.76-.44,5.9,2.42,12,3.57,18.34,2.29.65-.12,2,.4,2.1.83.72,3.42,3.4,3.9,6.1,4.17,6.63.67,13.45,2.49,19-3.39.76-.81,2.85-.92,4.13-.58,4.64,1.21,9.25,2.57,13.75,4.2s7.75.24,9.1-4.07a10.62,10.62,0,0,1,.93-1.83c1.5,2.4,2.88,4.59,4.67,7.46,2-2.3,3.74-4.51,5.69-6.53.87-.9,2.23-2,3.22-1.92s2.08,1.55,2.91,2.57,1,2.73,1.83,3c3.21,1,6.57,1.61,9.87,2.35.5-1.36,1-2.72,1.44-3.87l-9.51-3.68c.26-2.06,1.18-4.23.5-5-1.34-1.55-3.45-2.5-5.7-.66-.7.57-2.06.26-3.1.48-1.46.31-3.25.32-4.28,1.19-2.55,2.15-5.08,1.41-8.44.93l6-4.6-.54-1c-2.62.6-5.77-1.68-7.81,2.27a75.78,75.78,0,0,1-4.52,7l-5-4.48c-3.75.55-7.67.15-11.14,2.29-.61.38-1.7,0-2.58,0-2.43-.07-5.53-1.09-7.16,0-2.81,1.92-5,3.09-8.39,1.6-1.68-.74-3.94-.25-5.58-1-5.87-2.85-11.71-3.89-17.88-1.09-.41.18-1.15-.31-1.71-.55s-1.53-1.05-1.94-.85c-4.21,2.08-8.5-2.77-12.67.18-.17.13-.9-.23-1.14-.54-1.95-2.59-3.37-1.33-4.72.6,2.66,1.1,5.3,2.25,8,3.27A1.59,1.59,0,0,0,985,55.33Z" transform="translate(0 0)" opacity="0.1"/><path d="M409.63,67.73c2.4.08,4.82-.07,7.23-.13a2.58,2.58,0,0,1,1.94-.47,8.4,8.4,0,0,0,1.4.43,4.27,4.27,0,0,1,1.22.21c3.68.44,7.7-.46,10.67,2.75.18.2.62.21,1,.25l17.24,2.13v3.48l11.92-2c5.85-1,10,3.53,15.15,4.94,3.69,1,6.73,1.89,10-.58,1.47-1.11,2.59-3.55,5-1.2.17.17,1.73-.58,2.1-1.21a40.76,40.76,0,0,0,2.08-4.91l-3.05-1.14-2,1.35-.95.4-.4,1c-.4.62-1,1.83-1.18,1.77-3.22-1.15-7.18.12-9.79-3l-3.3-.12c-.48,2.5-2.2,2.1-3.94,1.71A45.91,45.91,0,0,0,467,72.33c-2.9-.35-6.4.42-8.61-1-4.34-2.7-8.77-1.22-13.12-1.78-3.89-.5-8-.54-11.59-1.87-5.92-2.19-11.91-1.64-17.91-1.77-2.64,0-5.27,1.05-7.93,1.07A2.23,2.23,0,0,0,409.63,67.73Z" transform="translate(0 0)" opacity="0.1"/><path d="M528.33,60,532,62.45l1-.27,2.73-2.76,2,2.1a1.43,1.43,0,0,0,.16.57c2,2.19,1.8,4.12-.66,6.21a1.48,1.48,0,0,0-.19.57c0,.71.06,1.42.08,2.13.91,0,2.15.29,2.65-.18,2.74-2.53,4.64-1.92,6.27,1.18a2,2,0,0,0,1.64.63c.48-.5,1.07-1.51.86-2-1-2.06.52-5.25-2.83-6.36-.17,0,.1-3.21.62-3.36,5.07-1.48,8.48-7.13,14.61-5.91.16,0,.45-.66.68-1l-.74-1.36.07-.12-3.44-.5-8.15,0-4.79.53c-.91,2.39-1.8,4.34-5.06,2.42A10.91,10.91,0,0,0,534,54c-3.57.08-6.12,2.92-5.72,6Z" transform="translate(0 0)" opacity="0.1"/><path d="M797.9,16.16c4.54,1.39,4.73,1.71,3.73,5.93,5.87,2.82,12.19.84,19.09,1.15L818.5,19c-2,1.22-3.54,2.9-4.49,2.61-2-.6-3.28-2.38-2.1-4.74l.71.53,3.64-3.57c-4-2.19-8.21-1.74-12.42-.6-1.08.29-2.19.49-3.28.74V9.76l-4,.62v.69C797,12.75,794.67,15.18,797.9,16.16Z" transform="translate(0 0)" opacity="0.1"/><path d="M898.68,32.93A23.5,23.5,0,0,1,905,36.22c2.23,1.52,4.15,3.79,7.08,1.3a1.55,1.55,0,0,1,1.24-.28c3.11,1,6.21,2.07,9.67,3.24a6.75,6.75,0,0,1,8.71,1.39c1.94,2.4,6.73,2.33,9.15-.14a9.88,9.88,0,0,0-2.6-1.37c-8.16-1.43-15.42-6.32-23.95-6.26-2,.87-3.89,1.8-5.89,2.54-.32.12-1.27-.57-1.38-1a2.27,2.27,0,0,1,.64-1.7,19.13,19.13,0,0,1,2.13-1.87l-.15-.16-2.89-.56a48.5,48.5,0,0,0-5.84-2.1,17.66,17.66,0,0,0-4.35.07C896.65,30.87,896.43,32.29,898.68,32.93Z" transform="translate(0 0)" opacity="0.1"/><path d="M600.59,62l2.14-1.93.07.87c2.81.33,5.62.75,8.44.87.42,0,1.19-1.39,1.28-2.2a10,10,0,0,0-.53-2.94c-.68-.56-1.32-1.17-2-1.67-3.19-2.25-6.4-4.47-9.6-6.71l-1.28,0c0,.3,0,.59,0,.89l3.51,2.9C598.91,57,598.36,59.78,600.59,62Z" transform="translate(0 0)" opacity="0.1"/><path d="M793.24,26.65a4.59,4.59,0,0,0,3.1.52c2.12-.83,3.24-.36,3.73,1.81.19.88.13,1.95.62,2.58a5.36,5.36,0,0,0,2.64,1.81c.37.1,1.11-1.18,1.63-1.76-1.26-3.64-.74-7.86-5.65-8.65-.71-.12-1.29-1-2-1.17-1.14-.21-3.19-.42-3.36,0A12.07,12.07,0,0,0,793.24,26.65Z" transform="translate(0 0)" opacity="0.1"/><path d="M945.42,45.14a7.4,7.4,0,0,1,2.3.36c4.19,1,8.38,2,12.55,3,1.46.37,3.3.56,4.23,1.54,2.66,2.8,5.85,2.55,9.14,2.33-3.18-1.55-6.24-3.5-9.58-4.56-4.33-1.36-8.92-1.9-13.34-3-2.63-.66-5.17-1.72-7.75-2.59C942.68,44.16,943.16,45.34,945.42,45.14Z" transform="translate(0 0)" opacity="0.1"/><path d="M569.37,67.57c1.56,0,2.79.05,4,0,1.43-.07,2.86-.24,4.29-.36A24,24,0,0,0,574,64.28C570.65,62.58,569.09,63.81,569.37,67.57Z" transform="translate(0 0)" opacity="0.1"/><path d="M705.23,41.47c.24,1,.49,2,.74,3,1.37.31,2.73.68,4.11.92a2.43,2.43,0,0,0,1.77-.14,2.19,2.19,0,0,0,.6-1.77C712.08,41.86,706.69,40.44,705.23,41.47Z" transform="translate(0 0)" opacity="0.1"/><path d="M566.9,62.85l4.09-.37c0-.65,0-1.31.08-2l-3.93-.7Z" transform="translate(0 0)" opacity="0.1"/><path d="M566.48,55.5c.88-.51,1.75-1,2.62-1.55,0-.33,0-.66,0-1l-2.67-.39h-.72l-1.25.23-.81,1.24C564,55.73,564.79,56.48,566.48,55.5Z" transform="translate(0 0)" opacity="0.1"/><path d="M885.72,28.77c2.09-.33,4.87.74,5.44-2.68l-2.07-.77-3.41,3.4,0,0Z" transform="translate(0 0)" opacity="0.1"/><path d="M885.71,28.76l0,0h0Z" transform="translate(0 0)" opacity="0.1"/><path d="M885.71,28.76l0,0h0Z" transform="translate(0 0)" opacity="0.1"/><path d="M402,64.38a12,12,0,0,0-3.8-.12l3.72,1.19C401.88,65.09,401.91,64.73,402,64.38Z" transform="translate(0 0)" opacity="0.1"/><path d="M533.65,70.75l.94,2.17,1.85-1.85-1.39-.76Z" transform="translate(0 0)" opacity="0.1"/><path d="M1092.16,55.67c.14-.05.18-.35.26-.54l-.57-.24c-.08.19-.27.42-.21.56A.55.55,0,0,0,1092.16,55.67Z" transform="translate(0 0)" opacity="0.1"/><path d="M18.44,71.94A8.27,8.27,0,0,0,18,71c-3.4-.93-11.69-5.11-18-8v6.54C7.73,71.3,20,76,18.44,71.94Z" transform="translate(0 0)" opacity="0.1"/><path d="M19.56,70.79a2.81,2.81,0,0,1,1.29-2.4c3.26-1.37,7-2,9.89-3.8,3.33-2.12,6-4.61,8.93.21.19.31,1.5-.08,2.3-.14a11.13,11.13,0,0,0-.78-2.49A13.83,13.83,0,0,0,39.1,60c2-.16,3.6.18,4.53-.44,3.66-2.47,7.56-2.39,11.66-1.88.84.11,1.77-.56,2.67-.87A66.19,66.19,0,0,0,49.7,56c-2.08,0-4.12,1.07-6.22,1.3C35,58.2,26.47,59,18,59.82L13.3,64.15l.6,1.25C15.24,67.29,17,69,18,71,19.1,71.33,19.69,71.3,19.56,70.79Z" transform="translate(0 0)" opacity="0.1"/><path d="M66.23,56.25c2.09.74,3.41.14,4.79-1.32a8.11,8.11,0,0,1,2.36-1.45c1.93,2.9,4,.68,6,0,.73,4.47,3.79,5.76,8.55,3.67l-2.66-3.47c2.36-.27,4.3,0,5.56-.73,3.88-2.43,7.67-1.82,11.69-.68.89.25,2.06-.52,3.11-.82L94,49.77q-8.62,1.41-17.24,2.8a2,2,0,0,1-1-.2,5.37,5.37,0,0,0-6.17,1.43,3.11,3.11,0,0,1-2.58.66,7.68,7.68,0,0,0-7.71,2.11c1,0,2,0,3-.06C63.62,56.43,65.09,55.85,66.23,56.25Z" transform="translate(0 0)" opacity="0.1"/><path d="M404.29,66.23l-2.42-.78c0,.48,0,1-.05,1.46a22.28,22.28,0,0,0,9,3c3.72.58,8.26.5,10.54,5,.64,1.26,2.67,1.7,3.61-.49l0,0c-2.22.08-4.06,0-2.63-3.16.4-.88.23-2.77-.39-3.2a2.09,2.09,0,0,0-.52-.25c-.41,0-.82-.12-1.22-.21-.64,0-1.32,0-1.94,0l-1.4,0-.37.27c-2.69,2.28-9.66,2-11.95-.66-.2-.22-.17-.64-.24-1a7.52,7.52,0,0,0,3.54.79,2.26,2.26,0,0,1-.21-2c.19-.78-1.11-1.93-1.73-2.91a2.57,2.57,0,0,0-.14-.61c-2.85-.2-3.59,1.14-3.81,2.86A3.89,3.89,0,0,1,404.29,66.23Z" transform="translate(0 0)" opacity="0.1"/><path d="M421.42,67.77a4.27,4.27,0,0,0-1.22-.21C420.6,67.65,421,67.72,421.42,67.77Z" transform="translate(0 0)" opacity="0.1"/><path d="M421.42,67.77a4.27,4.27,0,0,0-1.22-.21C420.6,67.65,421,67.72,421.42,67.77Z" transform="translate(0 0)" opacity="0.1"/><path d="M404.54,67.21c2.29,2.64,9.26,2.94,11.95.66l.37-.27c-2.41.06-4.83.21-7.23.13a2.23,2.23,0,0,1-1.79-.7,7.52,7.52,0,0,1-3.54-.79C404.37,66.57,404.34,67,404.54,67.21Z" transform="translate(0 0)" opacity="0.1"/><path d="M404.54,67.21c2.29,2.64,9.26,2.94,11.95.66l.37-.27c-2.41.06-4.83.21-7.23.13a2.23,2.23,0,0,1-1.79-.7,7.52,7.52,0,0,1-3.54-.79C404.37,66.57,404.34,67,404.54,67.21Z" transform="translate(0 0)" opacity="0.1"/><path d="M404.29,66.23A3.89,3.89,0,0,0,402,64.38c0,.35-.07.71-.08,1.07Z" transform="translate(0 0)" opacity="0.1"/><path d="M404.29,66.23A3.89,3.89,0,0,0,402,64.38c0,.35-.07.71-.08,1.07Z" transform="translate(0 0)" opacity="0.1"/><path d="M398.39,72.46c1.45-.38,3-.49,4.64-.75l-1.86-3.45c-3,3.64-5.33,3.67-8.89.42a22.56,22.56,0,0,0-4.12-2.4C389,69.59,395.25,73.29,398.39,72.46Z" transform="translate(0 0)" opacity="0.1"/><path d="M1899.43,110.37a4.84,4.84,0,0,0-2.63,1.43,7.83,7.83,0,0,0,2.63-1.11Z" transform="translate(0 0)" opacity="0.1"/><path d="M1788.06,100.5c1.9-.27,3.93.29,5.9.52,3.39.4,6.78.86,10.17,1.23.38,0,.79-.49,1.21-.52a11.9,11.9,0,0,1,3.42,0,24,24,0,0,1,3.82,1.48c.32-.46.74-.79.8-1.17.32-2.1,1.85-2.36,3.2-1.6.59.33.8,2.25.44,3.13-.76,1.86-2.44,3.59-.39,5.47,2.55,2.34,10.5,1.49,13.12-1a5,5,0,0,1,3.69-1.39c6,1,6,1.16,8.38-4.58.12-.27.43-.45,1.08-1.11,1.41,2.23,2.65,4.31,4,6.3,1.77,2.59,2.83,2.52,4.39-.13.7-1.19,1.53-2.29,2.31-3.43l1.12.12,1.85,8.84c1.67-.23,3.16-.81,4.47-.54,2.45.51,4.64,1.26,6.68-1.11.52-.61,2.25-.65,3.22-.32,7.35,2.44,15.29,3.58,21.22,9.29a6.59,6.59,0,0,0,1.53.83c2.11-1,3.77-2.24,5.51-3l-.9-.45,1-1.4,0,0c1.17-.83,2.34-1.66,3.5-2.51.49-.36.94-.79,1.41-1.18-.47-.52-.84-1.34-1.41-1.51a7.28,7.28,0,0,0-3.42-.33v.32a7.83,7.83,0,0,1-2.63,1.11,8,8,0,0,0-1.56,2.31c0-.69-.07-1.38-.08-2.07-5,.32-10.51-2.38-14.93.57,4.42-3,10-.25,14.93-.57a21,21,0,0,0-.41-4.29,38.5,38.5,0,0,0-2.41-5.92l-.92,1.3a51.21,51.21,0,0,0-5.5-.55,2.76,2.76,0,0,0-2.16,1.12c-.33.66,0,1.7.15,2.56.22,1.54.48,3.07.72,4.6-2-.32-4-.6-6-1-.6-.12-1.12-.83-1.68-.85a8.2,8.2,0,0,1-7.45-5,8.36,8.36,0,0,0-1.19-1.93c-4.34.38-7.91.8-11.48.92-.8,0-1.6-1-2.45-1.55-2.23-1.3-4.53-2.48-6.7-3.87a11.48,11.48,0,0,1-2.06-2.26l-1.31.09-7.11,3.44c.51-1.71,1-3.16,1.39-4.61l-3.23,1c-1.26,2.74-3.89,2.28-5.58,1.44-2.47-1.24-4.46-3.43-6.66-5.22l-2.63.37c-.42.3-.85.59-1.28.88L1815,92l-1.3.24-3.86,2.42c-1.06,2.07-2.71,2.13-4.61,1.34l-2,.34c-1.4,2.37-2.54,1.9-3.54-.31l-4.15-5.71-.76-.53-1.31.27-1.31.91c-2.15,1.16-4.26,2.4-6.47,3.43-1.68.78-3.49,1.3-5.23,1.93C1782,99.51,1784.34,101,1788.06,100.5Z" transform="translate(0 0)" opacity="0.1"/><path d="M1705.46,85.81a4.38,4.38,0,0,1,2.31,1.83c.48.62.57,1.54,1.16,3.35l3.73-5.94c.35,2.51.61,4.36.86,6.22l.77.24c1-1.51,2-3,3.23-4.79,2.69,1.59,6.16,2.57,7.75,4.86,1.93,2.75,3.55,3.7,6.59,2.4,1.4,2.3,2.34,5.58,5.88,2.53.35-.3,1.47.34,2.24.5a8.85,8.85,0,0,0,8.53-3.59l-4-3.33-3,3h0c-.52,1.87-1.45,2.1-2.77.67l-.67-.18c-1-.54-2.47-.86-2.81-1.66-2.73-6.37-7.81-7.43-13.86-6.49-2.44.37-4.15,0-3.55-3.09a.36.36,0,0,0-.25-.27c-4-.29-7.86,2.62-12,.33-.9-.5-2.86,0-3.82.74-2.33,1.78-4.2,1.33-6.39-.17-.93-.65-2.32-.65-3.5-1-.5,1.42-1,2.84-1.79,5.11,3.6-.5,6.59-1,9.59-1.3A24.79,24.79,0,0,1,1705.46,85.81Z" transform="translate(0 0)" opacity="0.1"/><path d="M1616.21,78.62c2-2.87,4.61-3.18,6.76-.66,2.6,3.06,2.77,3,5.06-.82-1-.57-1.93-1.52-3-1.65-3.2-.39-6.44-.47-9.67-.68l-4.24,4.74C1613.32,81.87,1614.91,80.48,1616.21,78.62Z" transform="translate(0 0)" opacity="0.1"/><path d="M1609,78.85c.28.23.86.08,1.31.1-1.29-1.66-2.49-4.6-3.87-4.69-2.6-.16-5.36,1.18-7.91,2.24-.64.27-.72,1.85-1.06,2.83.69-.37,1.39-.7,2.06-1.09C1604,75.56,1605,75.63,1609,78.85Z" transform="translate(0 0)" opacity="0.1"/><path d="M1689.47,82.26c-2.45-1.14-4.89-2.32-7.36-3.4-.47-.2-1.11,0-1.65,0-2.38-.31-4.75-.66-7.12-1l-1.11.79,16.92,3.72C1689.25,82.37,1689.36,82.29,1689.47,82.26Z" transform="translate(0 0)" opacity="0.1"/><path d="M1779.28,96.53c-3-3.4-6-1.4-9,0C1772.54,98.87,1776.37,98.87,1779.28,96.53Z" transform="translate(0 0)" opacity="0.1"/><path d="M1594.13,82.33c1.61,0,3.09.11,2.72-2.21-1.14.14-2.4.66-3.4.36-2.12-.65-3.2,0-3.75,2C1591.18,82.43,1592.66,82.29,1594.13,82.33Z" transform="translate(0 0)" opacity="0.1"/><path d="M533.93,38.55c1.78-.33,3.59-.56,5.33-1a4.91,4.91,0,0,0,2.4-1.38c2.58-3,3.41-3,5.28.44.31.57.66,1.12.52.89,5.77.28,10.93.33,16,.85,2.32.23,4.13.6,5.24-2.09a9.67,9.67,0,0,1,2.74-3.41c.48-.4,1.62,0,2.46,0,.06-1.14.11-2.28.22-4.4l-3.47,2.63c-.13-1.71-.22-3-.31-4.21l-2-2.13c-3.21.4-2.52,3-2.58,4.94-.06,2.22.13,4.84-2.28,5.46-3.08.79-6.62,1.46-9.56.67-3.29-.87-3.59-6.11-1.09-8.56.6-.59.84-1.54,1.41-2.19a3.94,3.94,0,0,1,2.84-1.43,49.65,49.65,0,0,0-1.49,6.3c-.08.67,1.28,2.2,1.62,2.1a4.61,4.61,0,0,0,2.82-1.94c.4-1-.58-2.52-.25-3.59.66-2.06,1.31-4.72,2.88-5.74,2.42-1.58,5.72-1.73,8.43-3,3.87-1.76,7.72-.72,11.6-.57h0c-.16-2.46,1.55-2.79,3.33-2.69,3,.16,6,.52,9,.8L607.9,11l2.8-1.25,1.3,0,0-1.26c-3.16.74-6.38,1.27-9.45,2.28-4.88,1.61-9.67,3.15-14.91,1.84a7,7,0,0,0-3.33.25c-8.14,2.16-16.26,4.42-24.41,6.56-3.71,1-7.51,1.62-11.2,2.67-2.72.77-5.24,2.36-8,2.84-3.36.58-4.53,2.07-4.5,5.41,0,1.23-1.49,3.42-2.49,3.54-2.88.32-3.1,2-3.37,4l3.69,1.58Z" transform="translate(0 0)" opacity="0.6"/><path d="M1069.52,43.37l6.19-1.24,1.31-.45,4-.58,4.89.68c4-1.88,4-1.87,5.69,2.55a30,30,0,0,0,1.2,2.79c3,5.86,3,5.82,9.09,4.29a3.72,3.72,0,0,1,2.5.41c3.12,1.85,6,3.88,4,8.29-.1.22.29.67.43,1l2.85-3c.73,1.58.37,2.94.81,4a30.58,30.58,0,0,0,3,4.62l2.47-2.29c-3.46.83-3.83.5-2.92-2.82a26.61,26.61,0,0,1,1.57-4.47c2.18-4.49.74-6.59-4.32-6.9a8.72,8.72,0,0,1-5.34-2.22c-4.86-5-4.74-5.09-9.11-.07-.12.14-.42.13-1.17.33a57.38,57.38,0,0,0-3.49-6.28,6.85,6.85,0,0,0-3.62-2.76,29,29,0,0,0-7.28-.17,55.42,55.42,0,0,0-6,.93c-2.17.37-4.32,1-6.51,1.12-3.65.3-7.51-.39-10.39,2.76a37.77,37.77,0,0,1,5.49-1.08A22.42,22.42,0,0,1,1069.52,43.37Z" transform="translate(0 0)" opacity="0.6"/><path d="M617.44,10.24l4-.6c2.61,0,5.23,0,7.84,0,1.34,0,3.05.26,3.94-.43,2.59-2,4.75-1.78,6.83.48,1.62,1.76,2.72,1.95,4-.46,1.51-2.85,4.23-3.12,7.28-1.54a6,6,0,0,0,4.36.58c6.13-2.4,12.57-2.23,18.93-2.74,3.46-.56,7-1.81,10.21.74l4.74.62a15.85,15.85,0,0,1,2.84-.56c4.63-.14,9.26-.19,13.88-.27-1.36-.58-2.7-1.6-4.09-1.68C696,4,689.76,4.05,683.55,3.68c-9.12-.54-18.06,0-26.8,2.94-2.41.79-5,1-6-2.06-1.81.4-3.33.78-4.87,1.06-4.51.82-9,1.63-13.55,2.35-.83.13-1.74-.35-2.6-.31-5.24.23-10.47.54-15.7.83.25.56.5,1.13.74,1.7Z" transform="translate(0 0)" opacity="0.6"/><path d="M493.05,53.3c1.63-.29,3.58,1.17,5.41,1.83l-4,3,5.83-.32c-.77-1.85-1.34-3.24-1.91-4.62-2.49-1.88-5-1.26-8-1.06-5.54.37-11.23-1.28-16.85-2.09l0-1.24L484,46.55a47.15,47.15,0,0,0-23.08,2.63,88.07,88.07,0,0,0,12.06,2.33C479.62,52.26,486.13,54.53,493.05,53.3Z" transform="translate(0 0)" opacity="0.6"/><path d="M617.52,33.74l-2.9,2.16c4.85.88,4.8.88,4.91,5.68a45.67,45.67,0,0,0,.64,4.92c.26.28.53.56.79.85.41-.65,1.2-1.31,1.17-1.94-.11-2.44.58-3.63,3.32-3.92,2.18-.23,2.73-3.36,1.31-5.25C624.32,33,621,33.28,617.52,33.74Z" transform="translate(0 0)" opacity="0.6"/><path d="M592,35.75c.83.74.73,2.5,1.25,4.78,1.89-.85,4.3-1.41,5.94-2.85,1-.83.64-3.09.83-4.27l3.15-3.29c-1.79,0-3.4-.16-4.42,2.16-.47,1.08-3.12,2.2-4.26,1.8-2.61-.91-4.76-1.43-7.06.56-.25.21-1.44-.91-2.25-1a7.84,7.84,0,0,0-2.46.46,45.78,45.78,0,0,0,5.58,1.79C589.46,36.1,591.3,35.16,592,35.75Z" transform="translate(0 0)" opacity="0.6"/><path d="M535,51.31h4.2l4,.53,6.14.22,8.15,0c1.39-1.53,2.47-.9,3.44.5l-.07.12,2.68-.2c.05-.49.11-1,.16-1.47l-34.16-.94c.46.4.93.79,1.4,1.18Z" transform="translate(0 0)" opacity="0.6"/><path d="M517.28,49.94l6.22.66,1.93.06L527.5,50l-19.06-2,1.41,1.82Z" transform="translate(0 0)" opacity="0.6"/><path d="M597.32,44.41c-3.3.19-6.6.39-9.89.64-.23,0-.43.47-.64.73,2.5,2.16,7.06,1.78,11-.9C597.6,44.72,597.45,44.41,597.32,44.41Z" transform="translate(0 0)" opacity="0.6"/><path d="M495.61,47.63c3.15.56,6.32,1.11,9.5,1.46.62.07,1.34-.72,2-1.11l-12.29-1.33C495.09,47,495.3,47.57,495.61,47.63Z" transform="translate(0 0)" opacity="0.6"/><path d="M565,50.56c3.78-.16,7.57-.31,11.36-.5.1,0,.18-.37.28-.56C572.61,48.09,568.66,47.69,565,50.56Z" transform="translate(0 0)" opacity="0.6"/><path d="M1057.93,47.77c.24-1.13.47-2.26.71-3.39l-4.88,3.36,2.17.72Z" transform="translate(0 0)" opacity="0.6"/><path d="M599,45.28c1.41,1,3.57.47,5.53-1.37C602.08,41.91,601,45.43,599,45.28Z" transform="translate(0 0)" opacity="0.6"/><path d="M1121.39,64.36l-2.2,0C1119.91,65.91,1120.64,65.94,1121.39,64.36Z" transform="translate(0 0)" opacity="0.6"/><path d="M526.91,66.87l2.61.91,2.14,1.15,2,1.82,1.4-.44,2-1.44a1.48,1.48,0,0,1,.19-.57l.66-6.21a1.43,1.43,0,0,1-.16-.57l-4.71.66-1,.27-1.9,2.76c-.82-2.42-1.29-3.8-1.75-5.17l-.05-.07C524.76,61.66,526.48,64.39,526.91,66.87Z" transform="translate(0 0)" opacity="0.6"/><path d="M699.28,46.12c3.9.2,5-.72,5.5-4.49l-.82-.25C701.9,42.43,699.31,43,699.28,46.12Z" transform="translate(0 0)" opacity="0.6"/><path d="M637.78,32.05q-.85,2.46-1.7,4.92c1.48-2,3-1.49,4.48,0L642,34.88c0-.45,0-.9,0-1.35Z" transform="translate(0 0)" opacity="0.6"/><path d="M18.44,71.94c-.93-2.4-3-4.37-4.54-6.54.79,2.21-6.73-1-13.9-4.05v8.19C7.73,71.3,20,76,18.44,71.94Z" transform="translate(0 0)" opacity="0.6"/><path d="M227.49,59.55a14.62,14.62,0,0,1,5.39.15c3.79.67,7.5,2,11.3,2.29,7.86.56,15.75.58,23.63.85,1.79.06,3.59.2,5.36.43,2.28.29,4.53.71,6.79,1.08a25.57,25.57,0,0,1,3.07-.78c3.39-.47,6.81-.78,10.2-1.29,2.15-.33,2.83.77,3,2.6l1.31.32c5.86-3.59,12-2.37,18.3-1.54a78,78,0,0,1,15.47,4.16c2.66.92,6.07-.34,9.15-.61-.14-.18-.28-.52-.4-.51-5.7.44-11.06-.46-15.85-3.8-.08-.06-.22,0-.33,0-6.14-.46-12.22-1.2-17.88-3.9a4.73,4.73,0,0,0-2.35-.15c-4.42.5-8.83,1.16-13.27,1.57-3.8.35-6-1.15-7.51-4.46-.28-.61-1.05-1.43-1.54-1.4a2.21,2.21,0,0,0-1.5,1.47c-.38,1.81-.48,3.69-.76,6.12-2.94-.82-5.8-1.2-8.24-2.42-2.13-1.07-3.35-.79-5.11.57-1.29,1-3.9,2.11-4.71,1.52-2.88-2.1-5.68-1.35-8.74-1.16s-6-.46-9-.87c-1.75-.25-3.45-.88-5.2-1.13-5.63-.81-11.27-1.61-16.92-2.21-1.55-.16-3.18.41-4.77.64C219.93,58.68,223.34,60.44,227.49,59.55Z" transform="translate(0 0)" opacity="0.6"/><path d="M107.68,50.62,109,50l1.34-.16h1.37l3.38.24,7.53.69c3.79-.37,7.58-.94,11.38-1,2.78-.09,5.59.74,8.37.6,4.39-.2,8.66-.6,12.82,1.52,1.39.71,3.31.41,5,.5,5.85.3,11.71.5,17.55.87,5.36.33,10.71.82,16.06,1.29,2,.17,4,.53,6,.67a12.84,12.84,0,0,0,2.58-.33c-3.2-.48-6.38-1.08-9.58-1.41-4-.42-8.2-.17-12.13-1-6.24-1.36-12.38-2.39-18.8-1.53a24.07,24.07,0,0,1-6.73-.53A4.51,4.51,0,0,1,152.65,49c-1.62-2-2.9-4.19-4.57-6.09a4.87,4.87,0,0,0-3.17-1.67c-.6,0-1.54,1.58-1.78,2.58-.85,3.6-2,4.58-5.7,3.95-3-.52-6.07-2.29-8.83.75-.3.32-1.29,0-2,0l-17.77,0c-2.55,0-5.1-.13-7.63.08s-4.86.75-7.29,1.15l11.69,1.71Z" transform="translate(0 0)" opacity="0.6"/><path d="M360.25,69.74a19.45,19.45,0,0,0,14.27-2c.71-.37,1.78,0,2.68,0l6.27-.07,2.08-.58,1.19-.92,4.8-1.7c-1-1.37-1.64-3.69-3.93-1.23A12,12,0,0,1,385,64.85c-.33-1-.63-2-1-3a18.81,18.81,0,0,0-1.68-4.41,12,12,0,0,0-3.45-3.06c-1.13-.74-2.77-1.81-3.68-1.45s-1.92,2.22-2,3.47c-.16,3.27.3,6.5,4,8.14l-5.48,2.41L366,69.46l1.26-4.74c-4.21,3.49-8.38,3.43-12.54,2.69.26.7.53,1.4.79,2.09A18.31,18.31,0,0,1,360.25,69.74Z" transform="translate(0 0)" opacity="0.6"/><path d="M348.81,67.74c2.05,1.76,4.37,1.82,6.69,1.76-.26-.69-.53-1.39-.79-2.09-1.83-.33-3.65-.78-5.48-1.14-.8-.15-1.81.75-2.73,1.16C347.29,67.52,348.32,67.32,348.81,67.74Z" transform="translate(0 0)" opacity="0.6"/><path d="M398.14,57.66c-1.34,1.74-2.11,3.92-3.14,5.9l-.21.18.13.24,4.18-3.2,1.3-.76a16.63,16.63,0,0,0,1.42-3.64c.68-4.85,3.49-7,8.2-6.2.6.09,1.37-.88,2.06-1.36-.95-.27-1.94-.86-2.84-.74-3.33.45-5.75-.55-7.18-3.7a12.14,12.14,0,0,0-1.77-2.05c-2.86,6.11-7.58.56-11.51,2.26a21.74,21.74,0,0,0,5.76,3.5C400,50.22,401.48,53.3,398.14,57.66Z" transform="translate(0 0)" opacity="0.6"/><path d="M18,59.82c-3.68-.16-5.72,1.74-4.66,4.33Z" transform="translate(0 0)" opacity="0.6"/><path d="M1345.25,39.33c.3,0,.55.88.77,1.37.58,1.23,1.13,2.47,1.69,3.7l2.78-5.82-7-6-.67.1C1342.29,35.36,1339.64,38.82,1345.25,39.33Z" transform="translate(0 0)" opacity="0.6"/><path d="M1348.71,56.82c1.07,2,1.79,1.74,3.33.61.7-.52,2.73-.57,3-.14,2.09,3.45,6.52,5.43,6.51,10.21a2.57,2.57,0,0,0,.77,1.48c4,4.4,9.59,5.64,14.78,7.72-2.36-2.43-1.84-7-6.08-8.1-.31-.08-.28-1.2-.54-1.77a4.87,4.87,0,0,0-1.22-2c-2.44-1.76-3.56-4.63-2.31-7.25.46-1,1.66-1.6,2.52-2.39a10.27,10.27,0,0,1,1.53,2.56c1.57,6.2,2.6,7.28,7.45,7.5l.09,5.57,1.23,0c.27-1.59.53-3.18,1-5.86,3.67,4.78,7.64,5.42,12,3.82.32-2.42.6-4.58.9-6.79l-2.77-.25c2.64-2.3,2.94-6.83,6.84-7.06-.26,2.92-.5,5.68-.78,8.8,1.51-.67,2.58-1.51,3-1.26,2.8,1.75,4.12.21,5.78-1.86,1.06-1.32,2.8-1.86,3.72.87.47,1.39,2.2,3.53,3,3.39a24.34,24.34,0,0,0,7.85-3c.78-.44.74-2.47.89-3.8s.12-2.9.17-4.35l-4.43-3.18-2.82,4.13c-2.88-.62-5.19-1.4-7.54-1.54s-5.25,1.11-7.38.33c-4-1.47-7.74-1.09-12.06.48a60.15,60.15,0,0,0-1.34-6.22,5,5,0,0,0-2-2.32,8.13,8.13,0,0,0-2.6-.63c-4.54-1.08-9-2-13.14,1.33a1.15,1.15,0,0,1-.59.32c-1,0-2.67.35-3-.14a5.71,5.71,0,0,1-.79-3.75,3,3,0,0,1,2.19-1.91c2.28,0,3.34-1.09,3-3.06s-1-4.09-3.92-3.47l1,2.41c-5.2,4-5.45,7-1.59,12.2a7.69,7.69,0,0,1,1.12,4.78,16.93,16.93,0,0,1-2,6.45c-.66-2.71-1.33-5.41-2.15-8.73a12.13,12.13,0,0,1-2,2.32c-.81.54-2,1.24-2.76,1-3.9-1.42-7.57-.73-11.24.69C1346.42,55.58,1348.18,55.86,1348.71,56.82ZM1375,55.71l3.17.95c1.82-1.8,2.31-3.65,1.13-6.07-.37-.74.35-2,.57-3,1,.58,2.29.94,3,1.79a45.93,45.93,0,0,1,3.11,5.31c-2.2,5.44-3.26,6.29-5.41,4.5l-3.89,2.24-2.7-4.92Z" transform="translate(0 0)" opacity="0.6"/><path d="M1429.65,59.51l3.06-1.52c.23,2.5-1.93,5,1.42,6.94l1.95-4.61,6.73,4.13,2.06-6c2.61,1.08,5.58,1.46,7.18,3.14,2.69,2.82,2.31,3.16,4.89.34a8.88,8.88,0,0,1,1.73-1.1c-.55,1.79-1,3.11-1.36,4.43l.72.38,3.19-1.9,2.57,3.17,3.38-4c2.19,1.56,3.36.64,4.3-1.57a3.45,3.45,0,0,1,2.45-1.77c.65,0,2,1.33,1.92,1.9-.14,1-1.18,1.76-1.85,2.62-.24.31-.52.58-.8.9,2.72,2.6,3.66-1,5.56-1.39l1.82,2.69c3.6-1.56,7.17-2.85,10.48-4.63,2.13-1.15,3.15-.7,4.45,1.1,1.48,2.05,3.51,3.51,7.27,3.65l-3.55-4.65a38.14,38.14,0,0,1,3.73,1.53c4.47,2.55,6.71,2,9.73-2.09a4.21,4.21,0,0,1,2.82-1.14,11.3,11.3,0,0,1,3,.6c1.52.3,3.49.1,4.44,1,.75.71.27,2.73.34,4.33a9.11,9.11,0,0,0,1.13-.48c4.42-2.68,5-2.61,8.87,1a3,3,0,0,0,5-1.65,28.62,28.62,0,0,0,.39-3.35c-1.18-.17-2.38-.28-3.54-.54-.94-.21-2.19-.33-2.69-1-2.81-3.64-7.42-3-11-4.73-.53-.25-1.77,1.16-2.76,1.63-1.19.56-2.6,1.53-3.68,1.29-4.88-1.06-6.15-.72-8.55,3.33l-5.16-.84c1.76-1.94,3.09-3.39,4.34-4.75-1.52-2.92-3.62-2.05-5-.87s-1.88,3.11-3,5.11c.11-3.16-.94-4.58-4.1-4.6-2.37,0-4.7-1.27-7.09-1.67a11.57,11.57,0,0,0-5,.06c-5.69,1.72-11.31,3.2-17.18.85a3.25,3.25,0,0,0-1.64-.14c-4.84.8-9.6,1-14.13-1.42a2.26,2.26,0,0,0-1.89-.12c-3.88,2.49-7.63,1.6-11.47-.11-.83-.37-2.19-.7-2.78-.29a4.61,4.61,0,0,1-5,.26c-1.55-.71-3.2-1.21-5.14-1.92-.25.81-.51,1.61-.76,2.42C1424.18,52.92,1427.59,55.41,1429.65,59.51Z" transform="translate(0 0)" opacity="0.6"/><path d="M1551.42,67.2c.56-1.29,1-2.54,1.61-3.69,1-1.93,4.37-2.72,5.42-1.28,2.92,4,7,4.8,11.86,4.8-.43-1.29-.75-2.21-1-3l5.34-4.25c2.54,2.71,4.76,5.31,7.28,7.57.67.61,2.35.44,3.42.14a5,5,0,0,0,1.9-1.28c1.89.52,3.92,1.38,4.11,1.08,1.62-2.56,5.43-3.51,5.47-7.21-2.48-.1-5.16-.84-7.4-.15-2.72.84-4.89.35-7.47-.28a38,38,0,0,0-9.55-.55c-2.6,0-5.18.76-7.78.85-3.25.12-6.57-.48-9.76,0-2.3.31-3.86.26-5.24-1.75a3.27,3.27,0,0,0-2.34-.91c-1.65,2.19-3.6,3.28-6.38,2.48-.1,0-.36.5-.55.77l1,6.9C1544.78,64.68,1547.93,65.4,1551.42,67.2Z" transform="translate(0 0)" opacity="0.6"/><path d="M1639.23,56.13l5,.11c2.64,6.34,6.6,11.29,14.84,10.85-.46,4.49,2,5.65,5.79,5.51,1.84-.07,3.7.16,5.55.25l1.69,4.38,1.21.06,1.76-.72c-.47-1-1-2-1.39-3-1.48-4-2.47-4.47-6.42-3.34a9.44,9.44,0,0,1-2.19.11c-.91-5.38-1.74-6.27-5-5.53-2.64.61-4-.91-3.32-3.67,1.13-4.46.57-5-4.39-5.07-2.74,0-5.27-.5-7-3.14-2.47-3.86-3.72-4.21-8.1-2.84l3.32,1.35Z" transform="translate(0 0)" opacity="0.6"/><path d="M1623.78,53.05c3.4-.23,6.83,0,10.11,0l2.21-3.28c-.78-.31-1.59-.93-2.34-.86-5,.43-10,1-15,1.55C1619.85,52.5,1621.42,53.22,1623.78,53.05Z" transform="translate(0 0)" opacity="0.6"/><path d="M1361.67,35.06c-2.1-.64-6.14,1-7,2.88C1357.09,37.24,1360.28,38.33,1361.67,35.06Z" transform="translate(0 0)" opacity="0.6"/><path d="M1341,50.21l1.76,2.4c1.6-.91,3.2-1.81,4.8-2.73,1.29-.74,2.32-1.54.54-2.86l-6.89,2.85h0Z" transform="translate(0 0)" opacity="0.6"/><path d="M1339.42,50.35l1.6-.14.21-.34-1.82-.1Z" transform="translate(0 0)" opacity="0.6"/><path d="M1341.23,49.87h0l-.21.34Z" transform="translate(0 0)" opacity="0.6"/><path d="M1341.23,49.87h0l-.21.34Z" transform="translate(0 0)" opacity="0.6"/></svg>