<svg xmlns="http://www.w3.org/2000/svg" viewBox="0 0 1920 14.2" preserveAspectRatio="xMidYMax slice"><polygon points="40.2 0 61.1 14.2 82 0 102.9 14.2 123.8 0 144.7 14.2 165.6 0 186.5 14.2 207.4 0 228.3 14.2 249.2 0 270.1 14.2 291 0 311.9 14.2 332.8 0 353.8 14.2 374.7 0 395.6 14.2 416.5 0 437.4 14.2 458.3 0 479.2 14.2 500.1 0 521 14.2 541.9 0 562.8 14.2 583.7 0 604.6 14.2 625.5 0 646.4 14.2 667.3 0 688.2 14.2 709.1 0 730.1 14.2 750.9 0 771.9 14.2 792.8 0 813.7 14.2 834.6 0 855.5 14.2 876.4 0 897.3 14.2 918.2 0 939.1 14.2 960 0 980.9 14.2 1001.8 0 1022.7 14.2 1043.6 0 1064.5 14.2 1085.4 0 1106.3 14.2 1127.2 0 1148.1 14.2 1169.1 0 1190 14.2 1210.9 0 1231.8 14.2 1252.7 0 1273.6 14.2 1294.5 0 1315.4 14.2 1336.3 0 1357.2 14.2 1378.1 0 1399 14.2 1419.9 0 1440.8 14.2 1461.7 0 1482.6 14.2 1503.5 0 1524.4 14.2 1545.3 0 1566.2 14.2 1587.2 0 1608.1 14.2 1629 0 1649.9 14.2 1670.8 0 1691.7 14.2 1712.6 0 1733.5 14.2 1754.4 0 1775.3 14.2 1796.2 0 1817.1 14.2 1838 0 1858.9 14.2 1879.8 0 1900.7 14.2 1920 1.1 1920 0 0 0 0 1.1 19.3 14.2 40.2 0"/></svg>