<?xml version="1.0" encoding="UTF-8" standalone="no"?>
<!-- Created with Inkscape (http://www.inkscape.org/) -->

<svg
   version="1.1"
   id="svg824"
   width="21.623335"
   height="16.999998"
   viewBox="0 0 21.623335 16.999998"
   sodipodi:docname="icon.svg"
   inkscape:version="1.1.2 (b8e25be833, 2022-02-05)"
   xmlns:inkscape="http://www.inkscape.org/namespaces/inkscape"
   xmlns:sodipodi="http://sodipodi.sourceforge.net/DTD/sodipodi-0.dtd"
   xmlns="http://www.w3.org/2000/svg"
   xmlns:svg="http://www.w3.org/2000/svg">
  <defs
     id="defs828" />
  <sodipodi:namedview
     id="namedview826"
     pagecolor="#ffffff"
     bordercolor="#666666"
     borderopacity="1.0"
     inkscape:pageshadow="2"
     inkscape:pageopacity="0.0"
     inkscape:pagecheckerboard="0"
     showgrid="false"
     inkscape:zoom="34.689826"
     inkscape:cx="15.278255"
     inkscape:cy="8.5039343"
     inkscape:window-width="1920"
     inkscape:window-height="1001"
     inkscape:window-x="-9"
     inkscape:window-y="-9"
     inkscape:window-maximized="1"
     inkscape:current-layer="g830" />
  <g
     inkscape:groupmode="layer"
     inkscape:label="Image"
     id="g830"
     transform="translate(-269.29211,-191.56552)">
    <g
       id="g968"
       transform="matrix(0.03364745,0,0,0.03972553,268.93389,191.09588)">
      <path
         style="fill:#f5f8fd;stroke-width:1.33333"
         d="m 141.10898,438.13217 c -1.95672,-1.02352 -6.14244,-2.29764 -9.3016,-2.83138 -9.35915,-1.58121 -28.94772,-9.74152 -41.845421,-17.43218 -11.025194,-6.57411 -26.710514,-18.89486 -33.29529,-26.15328 -1.466667,-1.61672 -5.427914,-5.96404 -8.802771,-9.66074 -7.584254,-8.3075 -15.943268,-21.09869 -21.818917,-33.38792 -5.160556,-10.79357 -12.711647,-33.0608 -12.711647,-37.48508 0,-1.66331 -0.6,-3.39503 -1.333334,-3.84825 -1.80488,-1.11548 -1.80488,-58.88452 0,-60 0.733334,-0.45323 1.333334,-1.9132 1.333334,-3.2444 0,-4.03048 9.985556,-32.26746 14.124428,-39.9408 4.054648,-7.51722 4.452734,-8.18242 10.062749,-16.8148 8.018955,-12.33914 29.951935,-34.03006 43.812825,-43.32928 18.647886,-12.51081 53.584974,-26.60342 66.078494,-26.65416 5.34788,-0.0217 7.51774,-1.85651 12.63426,-10.68323 12.00046,-20.70255 34.50082,-45.121832 55.00898,-59.700384 19.91439,-14.156452 45.6745,-25.648892 73.69907,-32.87961 11.89731,-3.069664 73.09041,-3.000365 85.6937,0.09704 17.77343,4.368035 42.98333,13.2827 49.92109,17.652972 2.36376,1.488991 7.29775,4.236018 10.96442,6.104505 3.66667,1.868486 9.36667,5.493088 12.66667,8.054669 3.3,2.561583 8.1,6.07636 10.66666,7.810616 5.46851,3.694983 28.67506,26.680505 31.83002,31.526851 1.19349,1.833334 5.00786,7.153 8.4764,11.821482 11.55256,15.549229 27.28865,50.299969 30.95371,68.356519 0.64233,3.16461 1.4711,3.59968 8.39296,4.40593 15.84841,1.84603 36.33398,10.06548 52.2501,20.9644 4.64644,3.18175 10.31904,7.06047 12.60578,8.61938 2.28673,1.5589 7.7577,6.69904 12.1577,11.4225 7.37557,7.91779 10.86573,12.57551 20.28918,27.07646 3.76971,5.80088 13.68467,30.13957 13.75323,33.76068 0.0233,1.23163 0.92333,3.404 2,4.82749 1.57022,2.07602 1.94865,7.74864 1.91236,28.66667 -0.0399,22.98613 -0.35072,26.71092 -2.62143,31.41183 -1.41691,2.93333 -2.59655,6.31005 -2.62143,7.50384 -0.16908,8.1117 -14.50721,34.02932 -27.81453,50.27754 -11.02356,13.45975 -33.71459,29.28655 -52.23071,36.43047 -24.29409,9.3732 0.49587,8.39631 -222.66667,8.77451 -169.59756,0.28741 -201.21752,0.052 -204.22437,-1.52087 z M 380.31787,302.33334 380.66668,250 l 37.10401,-0.35461 c 22.53758,-0.21539 36.93234,-0.84892 36.66667,-1.61375 C 453.82342,246.26407 333.3159,124 332.18768,124 c -1.16371,0 -123.36518,122.23764 -123.95835,123.99504 -0.27431,0.81267 13.3959,1.42795 36.66667,1.65035 L 282.00001,250 l 0.34881,52.33334 0.3488,52.33333 h 48.63572 48.63573 z M 452.5828,86.572683 c -2.31566,-2.420848 -3.73806,-5.190064 -3.48045,-6.775972 0.60373,-3.71671 -15.16995,-19.128247 -27.10234,-26.48009 -29.39708,-18.112276 -51.43024,-24.735666 -87.33333,-26.253277 -28.42336,-1.201445 -58.2474,3.477895 -78.08634,12.25161 -12.25732,5.420771 -34.9568,19.335822 -38.93667,23.868643 -2.01237,2.291959 -6.23237,6.23534 -9.3778,8.763069 -4.14064,3.327508 -5.61125,5.417639 -5.32874,7.573522 0.24309,1.855065 -1.08506,4.517489 -3.52291,7.062065 l -3.91312,4.084415 h 130.49891 130.49891 z"
         id="path982" />
      <path
         style="fill:#f1f5fd;stroke-width:1.33333"
         d="m 140,437.31118 c -1.1,-0.66469 -7.4,-2.78549 -14,-4.71292 -12.85812,-3.755 -28.832519,-11.04884 -40.616204,-18.54519 -18.287235,-11.63368 -41.703309,-35.9392 -51.933388,-53.90606 -9.02679,-15.85355 -18.783741,-40.96674 -18.783741,-48.34703 0,-1.40826 -0.945324,-4.00322 -2.100721,-5.76658 -1.783726,-2.7223 -2.013405,-7.09126 -1.522086,-28.95308 0.318249,-14.16084 1.227259,-27.54698 2.020021,-29.74698 0.792762,-2.2 3.657064,-10.9 6.365114,-19.33334 4.397806,-13.69552 6.75493,-19.0821 13.940221,-31.85668 8.714445,-15.49324 31.032637,-39.21486 47.297453,-50.27166 19.617071,-13.33566 54.160691,-27.20499 67.758031,-27.20499 5.22163,0 6.98707,-1.67199 13.98423,-13.24406 11.12449,-18.397942 29.65392,-39.264709 46.2546,-52.089276 23.18088,-17.907973 42.14176,-26.843518 80.48959,-37.931696 9.96084,-2.88015 71.77065,-2.972818 85.09305,-0.127574 14.07547,3.006071 32.12548,9.270264 45.75384,15.878707 22.84525,11.077743 32.56175,17.947426 53.05983,37.513898 28.30339,27.017051 44.69759,55.658881 56.09387,98.000001 0.80507,2.99112 1.92122,3.48328 10.87175,4.79387 23.62161,3.45882 49.02345,16.29914 69.64784,35.20613 15.57119,14.27457 31.23923,39.28128 37.17518,59.3328 1.51973,5.13363 3.32404,10.02368 4.00958,10.86678 0.71744,0.8823 1.05508,13.33188 0.79554,29.33333 L 651.20269,334 l -4.79371,12.99673 c -8.43578,22.87116 -17.24808,37.07362 -32.67313,52.65814 -15.49556,15.65576 -29.35699,24.35626 -53.06916,33.3103 l -13.33334,5.03484 -202.66667,0.25984 C 225.35873,438.41282 141.17739,438.02262 140,437.31118 Z M 381.01592,303.38423 c 0.26569,-39.49532 0.74411,-52.16396 2,-52.96161 0.90792,-0.57664 18.00076,-1.05764 37.98409,-1.06887 19.98334,-0.0107 36.33334,-0.52813 36.33334,-1.14868 0,-0.62055 -2.55,-3.52321 -5.66667,-6.45037 -3.11666,-2.92715 -31.33329,-31.11578 -62.70363,-62.64138 l -57.03696,-57.31928 -62.29637,62.49474 c -34.26301,34.3721 -62.49319,63.05888 -62.73373,63.74837 -0.26432,0.75763 14.24324,1.39395 36.66667,1.60824 L 280.66668,250 l 0.66666,52 0.66667,52.00001 47.33333,0.70321 c 26.03334,0.38677 48.23334,0.67868 49.33334,0.64869 1.73645,-0.0473 2.04603,-6.89541 2.34924,-51.96768 z m -126.20363,-139.132 c 3.21991,-2.79461 7.95439,-5.92884 10.52105,-6.96493 2.56667,-1.03611 8.11146,-5.0496 12.32175,-8.9189 4.21029,-3.86928 8.24905,-7.03506 8.97501,-7.03506 0.72596,0 5.38118,-3.78026 10.34492,-8.40056 26.55274,-24.71558 31.49724,-24.71558 58.04998,0 4.96375,4.6203 9.61896,8.40056 10.34492,8.40056 0.72596,0 4.76472,3.16578 8.97501,7.03506 4.2103,3.8693 9.75508,7.88279 12.32175,8.9189 2.56667,1.03609 7.30115,4.17032 10.52105,6.96493 l 5.85439,5.08111 h 49.14562 c 53.10794,0 50.73154,0.34492 47.95413,-6.96022 -0.81649,-2.14754 -0.63832,-3.89029 0.56613,-5.53746 1.46038,-1.9972 1.43639,-3.31406 -0.14186,-7.7873 -1.0447,-2.961 -1.89946,-6.82814 -1.89946,-8.59365 0,-1.76551 -1.5,-6.17013 -3.33333,-9.78804 -1.83333,-3.61791 -3.33333,-7.23131 -3.33333,-8.02979 0,-3.515 -15.42956,-27.186327 -24.38952,-37.417305 C 443.78452,58.0138 421.90985,43.065289 388.93319,31.453808 366.85836,23.681 359.49579,22.663166 325.5795,22.695523 290.83862,22.728667 281.55852,24.184239 258.42664,33.228352 217.12713,49.375657 189.86299,73.236602 166.13486,114 c -8.13424,13.9741 -11.73829,16.83997 -25.10979,19.96683 -5.33045,1.24651 -17.98467,6.2552 -28.12047,11.13045 -16.07553,7.73222 -18.359551,9.22606 -17.886861,11.69878 0.407654,2.1325 -0.582346,3.44013 -3.996552,5.2788 -2.496141,1.34426 -5.118165,3.52734 -5.826723,4.85129 -1.235544,2.30864 2.090204,2.40719 81.237586,2.40719 h 82.52585 z"
         id="path980" />
      <path
         style="fill:#ebf1fd;stroke-width:1.33333"
         d="M 141.33334,436.77754 C 139.5,435.79199 134.7763,434.30439 130.83621,433.47177 105.68161,428.15606 70.675853,406.81645 54.000002,386.63218 51.066668,383.08171 45.841287,376.71711 42.388043,372.48863 31.710888,359.41451 14.666667,320.87064 14.666667,309.7994 c 0,-1.63644 -0.6,-3.34617 -1.333333,-3.7994 -1.629498,-1.00708 -1.843669,-55.54989 -0.225391,-57.4 0.609369,-0.69666 2.169838,-5.16666 3.467708,-9.93333 1.297871,-4.76667 2.969546,-10.16667 3.714832,-12 0.745286,-1.83333 2.497628,-6.61449 3.894094,-10.62481 7.807713,-22.42188 32.925036,-52.83307 57.815426,-70.00092 8.364596,-5.76938 28.249017,-16.30949 34.820727,-18.45738 1.38194,-0.45166 4.8011,-1.68527 7.59814,-2.74134 4.6387,-1.75142 13.71948,-3.6495 26.42083,-5.52254 5.06179,-0.74645 5.75039,-1.51645 15.69533,-17.55053 4.12778,-6.655135 8.13164,-11.143359 8.13164,-9.11533 0,0.539187 -2.16993,4.362653 -4.82208,8.49659 -2.65214,4.13394 -6.70214,10.46797 -9,14.07562 -5.84512,9.17689 -8.99637,11.0747 -27.00109,16.26116 -35.818234,10.31784 -62.754968,28.81555 -80.353509,55.17948 -6.455536,9.67088 -7.901356,12.94713 -8.53186,19.33333 -0.289605,2.93334 -0.987852,6.38334 -1.55166,7.66667 C 42.43652,215.87446 46.716732,216 122.95827,216 h 80.5769 l 3.23242,-3.46309 c 1.77783,-1.90469 5.63242,-4.67412 8.56575,-6.15425 10.6012,-5.34931 27.93651,-19.55204 67.20399,-55.05992 35.24381,-31.86946 36.0354,-32.51761 40.80681,-33.41273 5.95624,-1.1174 7.76251,0.069 5.84266,3.83758 -0.8179,1.60549 -29.01952,30.52767 -62.67027,64.27151 -33.65076,33.74382 -61.18319,62.08449 -61.18319,62.97924 0,1.23344 9.10788,1.71242 37.66667,1.9809 l 37.66667,0.3541 0.66666,52 0.66667,52 h 49.64988 49.64988 l 0.49883,-52 0.49883,-52 38.80862,-0.66667 L 459.91468,250 398.62401,187.43295 c -33.70986,-34.41188 -61.29066,-63.12544 -61.29066,-63.80793 0,-1.20818 4.3569,2.57488 38.05365,33.04165 32.72,29.58364 51.34081,44.73615 60.61302,49.32321 2.56666,1.26976 6.50118,4.04727 8.74338,6.17223 l 4.07672,3.86356 65.25662,-0.34616 65.25661,-0.34617 -5,-3.13171 c -2.75,-1.72243 -5,-4.17944 -5,-5.46001 0,-4.74731 -14.41573,-13.13587 -29.68072,-17.2713 -11.8818,-3.21889 -21.19235,-7.31094 -24.0196,-10.55681 -2.05757,-2.36221 -5.50607,-12.35357 -6.98816,-20.24684 -2.50293,-13.33 -11.77927,-36.79639 -19.72176,-49.89022 C 471.08046,79.361428 437.88966,49.038565 409.79,36.48105 398.57067,31.467212 376.80445,24.199954 366.24617,21.942726 c -12.70549,-2.71628 -67.74081,-2.713543 -80.65961,0.004 -25.3115,5.324436 -51.80299,17.539156 -76.37683,35.215894 -1.59751,1.149144 -2.54306,1.290525 -2.54306,0.380256 0,-0.796979 1.27108,-2.12931 2.82462,-2.960737 1.55353,-0.831426 6.20353,-4.068937 10.33333,-7.194466 9.82848,-7.438435 36.70095,-20.871011 50.17539,-25.080874 25.57409,-7.990192 28.28111,-8.338528 63.33333,-8.149631 24.14058,0.130094 35.10683,0.718194 42.01586,2.253226 11.96767,2.658953 42.23359,13.31396 47.75031,16.81032 2.32861,1.47582 7.53384,4.463375 11.56717,6.639012 7.51679,4.054661 10.38579,6.03014 22.83222,15.721356 29.90008,23.281223 54.37608,58.011218 65.72592,93.261188 2.56621,7.97008 4.98435,16.07117 5.37361,18.0024 0.63804,3.16545 1.46431,3.59947 8.388,4.40593 9.91408,1.1548 26.52515,6.54914 38.34692,12.45292 29.46836,14.71648 53.27987,39.74676 66.03463,69.41452 2.73074,6.35175 5.41674,13.64863 5.96888,16.2153 0.55214,2.56666 1.82723,5.85017 2.83352,7.29668 2.64759,3.80574 2.63908,53.61932 -0.009,57.40664 -1.01168,1.4465 -2.80595,6.40605 -3.98723,11.02121 -2.78562,10.8831 -7.79746,21.25042 -16.12974,33.3654 -13.35262,19.41448 -16.23913,22.87259 -22.87239,27.4016 -2.28918,1.56299 -7.52919,5.40336 -11.6445,8.53415 -6.62333,5.03847 -24.46146,14.97432 -26.8843,14.97432 -0.49859,0 -2.7972,0.79499 -5.10803,1.76664 -17.81655,7.49148 1.64855,6.85145 -218.20151,7.17456 -165.89541,0.24381 -201.24428,-0.0156 -204.00001,-1.497 z m 36,-350.110872 c 0.78493,-1.466667 2.02716,-2.666667 2.76049,-2.666667 0.85762,0 0.82414,0.951438 -0.0939,2.666667 -0.78494,1.466667 -2.02716,2.666667 -2.7605,2.666667 -0.85761,0 -0.82413,-0.951438 0.0939,-2.666667 z m 6.66667,-7.735304 c 0,-1.486383 17.14949,-18.226311 17.90166,-17.474139 0.3527,0.352689 -3.5309,4.655543 -8.6302,9.561896 -5.0993,4.906352 -9.27146,8.466862 -9.27146,7.912243 z"
         id="path978" />
      <path
         style="fill:#e3ecfd;stroke-width:1.33333"
         d="m 140,436.01674 c -1.1,-0.63788 -7.4,-2.76679 -14,-4.73091 -19.11593,-5.68878 -26.88617,-9.6967 -51.884287,-26.76216 -2.263641,-1.54532 -9.404751,-8.12336 -15.869132,-14.61785 -11.009299,-11.0606 -18.532122,-21.02083 -26.615647,-35.23915 -4.842049,-8.51681 -15.650573,-38.29863 -15.637528,-43.08765 0.0036,-1.33155 -0.711161,-3.73155 -1.588417,-5.33334 -1.906551,-3.48118 -1.553412,-55.98164 0.381321,-56.69012 0.667529,-0.24445 1.210723,-1.74445 1.207096,-3.33333 -0.0071,-3.07247 3.143221,-13.58964 6.057215,-20.22223 0.966558,-2.2 2.543788,-6.4 3.504956,-9.33333 0.961168,-2.93333 3.371763,-8.03333 5.35688,-11.33333 1.985116,-3.3 5.40916,-9 7.608986,-12.66667 4.244486,-7.07471 18.729322,-24.01963 23.317482,-27.27771 2.704888,-1.92074 2.704,-1.89645 -0.07316,2 -1.546214,2.16942 -4.149159,5.14438 -5.784323,6.61104 -8.945378,8.02359 -22.071331,29.60971 -27.16063,44.66667 -8.192405,24.23765 -9.970199,51.36488 -3.994588,60.95309 1.01224,1.6242 1.840437,5.0742 1.840437,7.66667 l 7e-6,4.71357 H 140.52402 c 123.32715,0 115.47599,0.45334 115.47599,-6.66766 0,-1.34726 1.02492,-4.23539 2.2776,-6.41806 3.08801,-5.38056 0.97565,-10.19696 -4.99593,-11.39128 -2.35492,-0.47098 -15.67726,-0.85633 -29.60521,-0.85633 h -25.32352 l -5.17648,-5.17647 c -10.19493,-10.19493 -7.3772,-15.39328 23.36326,-43.10202 13.25396,-11.94683 33.7046,-30.73383 45.44587,-41.74887 56.58454,-53.08475 63.34774,-58.75223 63.34774,-53.08476 0,1.08436 -27.3,29.62923 -60.66666,63.43305 -33.36667,33.80382 -60.66667,61.96044 -60.66667,62.57028 0,0.60983 16.76458,1.10879 37.25464,1.10879 20.49005,0 37.55307,0.48284 37.91779,1.07299 0.36473,0.59013 1.09298,24.29013 1.61834,52.66666 l 0.9552,51.59369 47.79368,0.22222 c 26.28653,0.12227 48.84369,0.27222 50.12702,0.33334 2.17403,0.10346 2.37885,-3.48462 3,-52.55557 l 0.66667,-52.66666 h 39.88856 c 30.62027,0 40.01709,-0.38535 40.44171,-1.65847 0.30424,-0.91215 -0.84562,-2.2022 -2.55523,-2.86677 -1.7096,-0.66458 -11.95837,-10.19539 -22.77504,-21.17959 -19.6733,-19.97801 -25.97615,-27.77627 -12.51847,-15.48859 3.93151,3.58971 13.3104,11.92675 20.84198,18.52675 16.80497,14.72639 20.397,19.81928 18.59122,26.35925 -0.8369,3.03102 -3.02753,5.84458 -6.33532,8.13688 -5.02698,3.48371 -5.20238,3.50387 -30.48441,3.50387 -13.98559,0 -27.35508,0.38535 -29.71,0.85633 -5.97159,1.19432 -8.08395,6.01072 -4.99594,11.39128 1.25268,2.18267 2.2776,5.0708 2.2776,6.41806 0,7.12002 -7.77948,6.66766 114.66667,6.66766 122.13416,0 115.14486,0.43595 113.70578,-7.09217 -0.37744,-1.9744 0.0475,-4.47384 0.94414,-5.55431 1.23372,-1.48653 1.27189,-2.99284 0.1569,-6.19129 -0.81041,-2.32476 -1.47553,-5.78729 -1.47805,-7.69452 -0.005,-4.09056 -6.35584,-20.14488 -11.52436,-29.13428 -14.5722,-25.34488 -42.5001,-45.84811 -73.95363,-54.29296 -6.3154,-1.6956 -12.72368,-3.74715 -14.24061,-4.55897 -4.70371,-2.51736 -7.97462,-8.5202 -10.91258,-20.02706 C 504.963,124.54992 489.9691,98.097265 465.41476,72.860626 450.30006,57.325908 435.64286,45.941138 419.86175,37.47795 c -10.75732,-5.769 -36.0145,-16.144616 -39.30056,-16.144616 -1.12854,0 -1.7305,-0.520022 -1.33768,-1.155604 0.78277,-1.266566 20.79494,4.725676 33.39948,10.000801 10.94348,4.579964 32.08272,16.581332 40.03677,22.730056 3.62246,2.800278 13.09615,11.391414 21.05266,19.091414 15.94369,15.429726 28.68834,32.814919 38.60858,52.666669 6.31326,12.63365 14.34569,34.69345 14.34569,39.39812 0,5.88104 2.23984,7.62747 10.97532,8.55751 38.2154,4.06872 80.95588,35.55062 99.61904,73.3777 2.89451,5.86667 6.52689,14.56667 8.07197,19.33334 1.5451,4.76666 3.37724,9.70852 4.07146,10.9819 1.58432,2.90608 1.67806,56.03079 0.10186,57.75143 -0.63816,0.69667 -2.47349,5.67612 -4.0785,11.06546 -3.9901,13.39797 -8.31254,22.4665 -16.48679,34.58941 -17.49967,25.95307 -46.4724,46.74481 -74.94107,53.78008 -2.93333,0.72489 -5.90333,1.88357 -6.6,2.57485 -1.62376,1.6112 -404.62044,1.55212 -407.40002,-0.0597 z M 71.249457,156.23987 c 3.855591,-4.17433 6.753855,-5.58313 5.838871,-2.83817 -0.256976,0.77092 -2.556976,2.67886 -5.111111,4.23986 l -4.643881,2.83818 z M 86.66667,145.28866 c 5.337524,-4.2466 36.52554,-19.24089 42.66667,-20.51288 1.83333,-0.37974 5.73333,-1.29532 8.66666,-2.03463 6.84047,-1.72405 10.93514,-1.79992 9.26667,-0.1717 -0.69666,0.67986 -6.32671,2.52073 -12.5112,4.09082 -13.95561,3.54299 -31.47569,10.53524 -41.784529,16.67619 -8.67777,5.16932 -11.412054,6.01602 -6.304271,1.9522 z M 360.00001,16.809319 c 0,-1.294656 3.75647,-1.781153 5.45424,-0.706376 1.36756,0.865732 0.88095,1.195115 -1.78757,1.209973 -2.01667,0.0112 -3.66667,-0.215389 -3.66667,-0.503597 z"
         id="path976" />
      <path
         style="fill:#dee8fd;stroke-width:1.33333"
         d="m 140.87703,435.38735 c -1.35097,-1.02364 -4.95097,-2.27644 -8,-2.78398 C 122.16295,430.81989 106.2127,424.14925 91.323535,415.22506 71.578008,403.3901 49.180028,381.9097 39.300592,365.33334 36.45968,360.56667 33.447929,355.76667 32.607814,354.66667 31.145685,352.75225 29.399938,348.68647 23.734037,334 c -3.29955,-8.55269 -6.400703,-19.99989 -6.400703,-23.62673 0,-1.55648 -0.879415,-3.80171 -1.954256,-4.98939 -1.61954,-1.78957 -1.766336,-4.77632 -0.857077,-17.43832 0.603446,-8.40338 1.182861,-12.4723 1.287588,-9.04204 0.704168,23.0647 11.12466,53.63152 22.957535,67.34221 2.015328,2.33516 4.048155,5.45536 4.517394,6.9338 0.469238,1.47844 3.072184,4.01834 5.784322,5.64422 2.712139,1.62587 6.652357,4.65567 8.756038,6.73287 l 3.824877,3.77672 h 98.415385 98.41539 l -1.07447,-3.74643 c -0.7378,-2.57258 -0.48772,-4.54881 0.79818,-6.30738 1.02994,-1.40854 1.57234,-4.07264 1.20534,-5.92024 -0.36701,-1.8476 -0.0969,-7.25928 0.60018,-12.02595 3.21692,-21.99675 6.91392,-68.60755 5.87917,-74.12316 -1.22535,-6.53166 -4.31628,-7.2015 -33.61832,-7.28543 -29.5634,-0.0847 -34.78352,-1.08223 -36.8756,-7.04668 -2.02535,-5.77424 1.60314,-10.69857 21.52094,-29.2066 9.67044,-8.98597 34.27045,-31.88891 54.66667,-50.8954 20.39623,-19.00649 39.4606,-36.70649 42.36526,-39.33333 l 5.2812,-4.77607 -5.87354,6.66667 C 310.1251,139 284.04856,165.90755 255.40768,195.1279 c -28.64089,29.22033 -52.26834,53.97033 -52.50543,55 -0.36251,1.57421 5.73718,1.8721 38.33333,1.8721 h 38.76443 v 51.9746 51.97461 l 3,0.73021 c 1.65,0.40163 25.08929,0.56305 52.08732,0.35873 l 49.08731,-0.37148 -0.0306,-34 c -0.0168,-18.7 0.47488,-36.4 1.09268,-39.33333 L 386.36001,278 l 0.18206,6.66667 c 0.28506,10.43881 3.97786,46.61872 6.26016,61.33334 1.13742,7.33333 2.08218,15.58333 2.09946,18.33333 l 0.0315,5 H 499.5568 604.18043 l 7.5765,-7.83532 c 8.48151,-8.77127 12.26833,-14.60884 16.95155,-26.13163 6.71004,-16.50968 7.68913,-52.19836 1.9396,-70.69972 -8.91146,-28.67604 -27.72611,-53.36823 -53.20759,-69.82915 -12.80939,-8.27481 -20.5881,-11.66542 -36.74955,-16.01857 -16.20104,-4.36379 -19.42198,-6.80128 -22.2248,-16.81895 -8.8834,-31.7504 -17.22996,-50.20467 -31.56379,-69.78764 -10.74576,-14.680919 -10.69812,-14.592119 -5.569,-10.380145 2.56667,2.107717 5.22773,4.807717 5.91349,6 0.68575,1.192282 4.13411,5.846 7.663,10.341594 12.47131,15.887631 28.41972,50.468651 31.06525,67.358891 1.00314,6.40454 2.40705,7.33468 12.6916,8.40853 19.11501,1.99589 36.25252,9.64591 63.22386,28.22252 4.86998,3.35421 16.83858,16.2284 23.56299,25.34588 7.76311,10.5258 14.10495,22.97291 18.59194,36.49037 2.31252,6.96667 4.74832,13.23667 5.41289,13.93334 0.66457,0.69666 1.20832,13.24942 1.20832,27.89501 0,20.90196 -0.40052,27.08101 -1.86244,28.73333 -1.02433,1.15775 -2.8186,5.88103 -3.98723,10.49619 -3.50869,13.85643 -8.96226,23.78571 -26.52877,48.30071 -2.04148,2.849 -5.51355,6.55881 -7.7157,8.24404 -2.20214,1.68523 -5.93185,4.63596 -8.28822,6.55719 -9.31118,7.5917 -23.9981,16.06402 -34.53804,19.92368 -6.09378,2.23149 -14.0912,5.2256 -17.77204,6.65356 -6.52734,2.53224 -11.62572,2.59525 -206.66668,2.55389 -169.01594,-0.0359 -200.3545,-0.33055 -202.43054,-1.90359 z M 384.90307,265.33334 c -0.5012,-1.83334 -1.05943,-5.43334 -1.2405,-8 l -0.32922,-4.66667 32.66666,-0.38796 c 34.12187,-0.40524 41.85866,0.12293 40.98547,2.79777 -1.17834,3.60974 -9.9581,4.77387 -36.56533,4.84827 -14.80227,0.0413 -28.4063,0.64292 -30.23119,1.33675 -1.89147,0.71913 -3.54512,2.58218 -3.84629,4.33333 l -0.52832,3.07184 z"
         id="path974" />
      <path
         style="fill:#dae5fc;stroke-width:1.33333"
         d="m 340.79801,436.33335 c -111.93576,-0.19288 -199.17422,-0.85464 -200.00001,-1.5171 -0.80556,-0.64624 -3.56466,-1.5947 -6.13133,-2.1077 -7.15261,-1.42956 -29.39713,-9.75525 -34.944857,-13.07917 -2.719672,-1.62949 -8.119672,-4.8582 -12.000001,-7.17492 -6.004077,-3.58469 -21.968191,-16.47865 -27.349963,-22.09013 -12.437425,-12.96831 -22.36537,-26.92847 -29.045117,-40.84178 -3.900507,-8.12438 -1.313108,-5.60352 6.354783,6.19138 8.580857,13.19925 24.91001,29.81805 39.578054,40.2801 14.832364,10.57926 37.542101,21.02518 52.354351,24.08171 11.87678,2.4508 20.45553,2.55663 208.63225,2.57341 223.20828,0.0199 206.0958,0.86695 230.42052,-11.4052 26.82246,-13.5323 44.8873,-31.58056 57.29656,-57.24394 9.18371,-18.99271 11.24824,-28.46446 11.62491,-53.33334 0.31566,-20.84123 0.22174,-21.65628 -4.07166,-35.33333 -9.72098,-30.9672 -26.88947,-54.02147 -53.41185,-71.72276 -11.0497,-7.37468 -30.27771,-16.21087 -35.3713,-16.25482 -1.61056,-0.0139 -2.11797,-0.4886 -1.33333,-1.24742 0.77495,-0.74947 5.8382,0.26372 13.043,2.61 35.32983,11.50528 64.42956,36.43826 80.08182,68.615 3.21054,6.6 6.8487,15.3 8.08481,19.33333 1.23609,4.03333 2.75956,8.53333 3.38547,10 0.6259,1.46667 1.50126,14.06667 1.94524,28 0.75601,23.72624 0.63549,25.66841 -1.8999,30.61525 -1.4889,2.90506 -2.7071,6.28179 -2.7071,7.50385 0,5.12148 -9.34871,24.69228 -17.74474,37.14722 -11.58765,17.1895 -28.66607,32.40391 -46.92193,41.80066 -10.5007,5.40497 -22.12606,10.26636 -24.55066,10.26636 -1.22036,0 -4.57256,1.2 -7.44934,2.66666 -2.87679,1.46667 -6.15364,2.51866 -7.28192,2.33774 -1.12828,-0.18091 -91.39231,-0.48288 -200.58676,-0.67106 z m -64.67312,-70.04338 c -2.49797,-0.89282 -5.79797,-3.3173 -7.33333,-5.38774 -3.41923,-4.61086 -3.62208,-16.39124 -1.08695,-63.12141 1.81072,-33.3769 1.47808,-36.2064 -4.58103,-38.96712 -2.02268,-0.92159 -12.96405,-1.48036 -28.98735,-1.48036 -15.35317,0 -27.44389,-0.59458 -29.96541,-1.47358 -5.78928,-2.01816 -7.45228,-5.46996 -4.95859,-10.29222 1.63428,-3.16035 39.57486,-39.62828 67.45445,-64.83622 l 7.33333,-6.63058 -7.98441,8.61629 c -4.39144,4.73897 -20.81518,21.59511 -36.49721,37.45807 -16.35648,16.54521 -28.25738,29.60789 -27.91378,30.6387 0.48364,1.45094 8.02474,1.80234 39.16385,1.82491 l 38.56488,0.028 0.66667,52 0.66667,52 51.33333,0.75256 c 28.23334,0.4139 51.48334,0.8639 51.66667,1 1.41933,1.05362 -0.30109,4.37102 -3.33333,6.42743 -3.3889,2.29831 -7.3029,2.50864 -51.66667,2.77664 -34.98926,0.21137 -49.23108,-0.15004 -52.54179,-1.33333 z M 384.8904,352.35509 c -0.34496,-0.56196 -0.19564,-5.82175 0.33181,-11.68842 L 386.18124,330 l 0.57605,11.13149 c 0.52011,10.05036 -0.14234,14.03297 -1.86689,11.2236 z m -0.35513,-94.21675 C 382.34821,252.43898 384.05657,252 408.42367,252 c 28.94219,0 44.27949,1.1622 42.24519,3.20119 -0.93052,0.93265 -12.22542,1.71667 -31.06549,2.15635 -16.28185,0.37997 -30.6483,1.19222 -31.92545,1.805 -1.63333,0.78368 -2.56548,0.47988 -3.14265,-1.0242 z m 138.639,-91.58498 c -0.82083,-1.03768 -3.43787,-8.78669 -5.81565,-17.22002 -2.37778,-8.43334 -5.45619,-17.55944 -6.84092,-20.28022 -4.04202,-7.94197 -2.85067,-7.73633 1.62333,0.28022 7.87129,14.10381 16.93559,44.6817 11.03324,37.22002 z"
         id="path972" />
      <path
         style="fill:#cfddfa;stroke-width:1.33333"
         d="m 142.61906,434.18142 c -1.07382,-1.00021 -5.25239,-2.45339 -9.28572,-3.22927 -7.46803,-1.43658 -20.83979,-6.5568 -19.8108,-7.5858 0.31165,-0.31164 6.24657,1.03394 13.18872,2.99019 l 12.62208,3.55681 196.00001,0.40427 196,0.40427 13.1302,-3.38072 c 44.79767,-11.53435 77.5629,-42.77392 92.91091,-88.58467 3.52386,-10.51802 4.0566,-14.26504 4.78144,-33.63002 0.66331,-17.72093 0.4047,-23.53714 -1.38401,-31.12648 -2.65488,-11.26437 -9.42903,-30.03488 -13.06087,-36.1904 -1.498,-2.5389 -2.00698,-4.47626 -1.17604,-4.47626 0.80578,0 1.46504,0.51626 1.46504,1.14726 0,0.631 1.60316,3.481 3.56258,6.33334 4.30516,6.26705 11.95549,23.9279 13.17041,30.40402 0.48361,2.57787 1.71653,5.38188 2.73983,6.23114 2.83685,2.35437 2.67777,51.16965 -0.18547,56.90916 -1.12529,2.25569 -2.93003,7.49531 -4.01051,11.64356 -2.5744,9.88376 -7.75196,20.48655 -15.62541,31.99819 -10.27867,15.02826 -13.35191,18.64645 -21.72762,25.58026 -16.44513,13.61412 -28.77368,20.52108 -47.25714,26.47544 -6.23334,2.00804 -11.90334,4.16698 -12.6,4.79763 -0.69667,0.63067 -91.3181,1.14667 -201.38096,1.14667 -167.16386,0 -200.43578,-0.29944 -202.06667,-1.81859 z m -36.69755,-13.44843 c -2.49699,-1.86556 -2.48175,-1.90686 0.43261,-1.1724 1.66142,0.41872 3.34683,1.28888 3.74535,1.9337 1.12776,1.82473 -1.31156,1.38025 -4.17796,-0.7613 z m 171.55859,-59.927 c -7.23296,-4.00892 -7.98165,-11.26665 -5.44738,-52.80599 0.7382,-12.1 1.41138,-26.93612 1.49594,-32.96916 C 273.67542,264.56042 271.71553,256 269.17158,256 c -0.64436,0 -1.17157,-0.6 -1.17157,-1.33333 0,-0.73333 2.39304,-1.33333 5.31785,-1.33333 h 5.31787 l 0.3488,52.33333 0.34881,52.33334 48.33334,0.34996 c 43.69091,0.31636 52.74891,1.00365 46.22428,3.50738 -1.15997,0.44514 -22.60997,0.78806 -47.66667,0.76207 -35.251,-0.0365 -46.27852,-0.44681 -48.74419,-1.81343 z"
         id="path970" />
    </g>
    <path
       style="fill:#f5f8fd;fill-opacity:1;stroke-width:0.0288269"
       d="M 6.3198097,3.0196173 C 6.4281705,2.8770647 6.4860516,2.7504926 6.4860516,2.6560857 c 0,-0.1233857 0.5287891,-0.6908951 0.912974,-0.979826 0.9725282,-0.73140174 1.7464262,-1.00979133 2.9498304,-1.06112451 1.267103,-0.0540504 2.253725,0.20775034 3.222289,0.85503641 0.568874,0.3801755 1.135415,0.9785229 1.177865,1.2439931 0.0099,0.062053 0.0527,0.16103 0.09506,0.2199484 0.04236,0.058918 0.0868,0.1233395 0.09875,0.143158 0.01735,0.028764 -0.857481,0.036034 -4.336244,0.036034 H 6.2485935 Z"
       id="path5653"
       transform="translate(269.29211,191.56552)" />
    <path
       style="fill:#f5f8fd;fill-opacity:1;stroke-width:0.0288269"
       d="M 2.5872139,6.2347891 C 2.4666068,6.2165187 2.4880364,6.1311556 2.6448677,6.005131 2.81436,5.8689323 2.8240478,5.8557512 2.8245944,5.7605948 2.8251562,5.6627667 2.9397646,5.5709876 3.3552259,5.3356615 3.7499103,5.1121041 4.0818804,4.9554498 4.3955703,4.8447311 4.5301564,4.7972282 4.6761387,4.7395401 4.7199753,4.7165356 4.8743633,4.6355156 5.014509,4.4495089 5.2328974,4.0357654 5.5475179,3.4397071 5.6054741,3.3400978 5.8534785,2.9691703 6.1377293,2.5440308 6.5508714,2.0656806 6.8867146,1.7728541 7.559613,1.1861443 8.5732586,0.65544219 9.3164567,0.50074389 9.5104501,0.46036369 9.740125,0.44939153 10.521817,0.4431607 c 0.992357,-0.00791 1.212117,0.007004 1.585479,0.10759799 0.464179,0.12506255 1.198454,0.46483161 1.657547,0.76699191 0.878436,0.5781595 1.658308,1.4974424 2.252927,2.6556648 0.10062,0.1959915 0.182945,0.3796592 0.182945,0.4081505 0,0.028491 0.03896,0.1471942 0.08657,0.2637843 0.04761,0.1165898 0.101483,0.2898144 0.119711,0.3849431 0.01823,0.095129 0.05544,0.2788187 0.08269,0.4082001 0.04494,0.2133758 0.04542,0.2437481 0.0052,0.3267993 -0.03795,0.078366 -0.03901,0.112375 -0.0073,0.2359948 0.06545,0.2553654 0.179275,0.2385409 -1.67703,0.2478762 l -1.618784,0.00814 -0.17468,-0.1711954 C 12.920988,5.9919508 12.765293,5.8615653 12.671073,5.7963626 12.465029,5.6537747 12.106633,5.3245799 11.520067,4.7391379 11.280198,4.4997285 11.019081,4.2597446 10.939807,4.2058404 c -0.127393,-0.086624 -0.165899,-0.098008 -0.331509,-0.098008 -0.166795,0 -0.203148,0.010947 -0.330981,0.099667 C 10.198334,4.2623163 9.9379674,4.5023002 9.6987244,4.7407972 8.999805,5.4375375 8.7494264,5.6678419 8.5411602,5.8055535 8.4334845,5.8767519 8.2744829,6.0071019 8.1878232,6.0952206 L 8.03026,6.2554364 5.3483739,6.2511173 C 3.8733366,6.2487416 2.6308146,6.241394 2.5872139,6.2347891 Z M 14.989986,3.1168345 c 0,-0.013914 -0.02195,-0.043101 -0.04877,-0.064861 -0.02683,-0.02176 -0.04031,-0.025415 -0.02996,-0.00812 0.03141,0.052509 -1.203448,0.069453 -5.0615935,0.069453 H 6.2465006 l 0.054915,-0.064861 0.054915,-0.06486 -0.06486,0.054915 c -0.035673,0.030203 -0.06486,0.065876 -0.06486,0.079274 0,0.013397 1.9717597,0.024359 4.3816884,0.024359 2.494324,0 4.381688,-0.010897 4.381688,-0.025297 z M 6.5885505,2.4867128 c 0.066645,-0.08914 0.069353,-0.098221 0.015183,-0.050908 -0.085001,0.074242 -0.1473008,0.1956222 -0.1435585,0.2796988 0.00224,0.050324 0.00829,0.04382 0.025106,-0.027002 C 6.497466,2.6371896 6.543938,2.5463849 6.5885505,2.4867128 Z M 14.759371,2.686411 c 0,-0.028679 -0.01849,-0.077325 -0.04108,-0.1081009 -0.03638,-0.049553 -0.03722,-0.043586 -0.0074,0.052144 0.03756,0.1204019 0.04844,0.1329736 0.04844,0.055957 z M 14.534368,2.3133584 c -0.135477,-0.1708651 -0.611182,-0.6197063 -0.769525,-0.726069 -0.183991,-0.123591 -0.143038,-0.081245 0.129721,0.1341304 0.118911,0.093895 0.326464,0.2893131 0.46123,0.4342631 0.134766,0.1449501 0.249362,0.2640475 0.254658,0.264661 0.0053,6.134e-4 -0.02894,-0.04753 -0.07608,-0.1069855 z M 7.415719,1.6741757 c 0.091165,-0.068448 0.1657546,-0.130966 0.1657546,-0.1389299 0,-0.017985 -0.012657,-0.00862 -0.3315093,0.2453915 -0.1426931,0.1136738 -0.2774715,0.2362581 -0.2995077,0.2724096 -0.022036,0.036151 0.036339,-0.0063 0.129721,-0.094345 0.093383,-0.088042 0.2443763,-0.2160781 0.3355414,-0.2845262 z m 0.338716,-0.251574 c 0,-0.020853 -0.111098,0.046264 -0.1316648,0.079542 -0.010763,0.017414 0.014459,0.00937 0.056048,-0.017884 0.041589,-0.02725 0.075616,-0.054996 0.075617,-0.061658 z M 8.4141123,1.0584103 C 8.5470403,0.99597496 8.7416218,0.91486593 8.8465157,0.87816803 8.9514096,0.84147009 9.020181,0.81047896 8.9993409,0.80929881 8.8575662,0.80127024 7.8648267,1.2750377 7.7984805,1.3823884 7.7890621,1.3976275 7.8693468,1.3565083 7.9768907,1.2910124 8.0844346,1.2255165 8.2811842,1.1208456 8.4141123,1.0584103 Z M 13.37568,1.3261017 c -0.216249,-0.168959 -1.180557,-0.57984059 -1.350257,-0.57533088 -0.02632,6.9934e-4 0.101331,0.0511405 0.283662,0.11209148 0.37395,0.12500749 0.682376,0.2614996 0.936874,0.4146078 0.19326,0.1162672 0.237528,0.1328629 0.129721,0.048632 z M 9.1957798,0.77832619 c 0.057934,-0.0185538 0.060761,-0.0232461 0.014413,-0.0239273 -0.03171,-4.6613e-4 -0.083598,0.0103013 -0.1153076,0.0239273 -0.073457,0.0315657 0.00233,0.0315657 0.1008946,0 z M 11.905508,0.7206724 c -0.03964,-0.012694 -0.104498,-0.0228382 -0.144134,-0.0225428 -0.06473,4.8256e-4 -0.06327,0.002777 0.01441,0.0225428 0.04756,0.0121031 0.112425,0.0222473 0.144134,0.0225428 0.04518,4.2088e-4 0.04206,-0.004457 -0.01441,-0.0225428 z M 9.5050684,0.70325614 c -0.00958,-0.009579 -0.034442,-0.0106031 -0.055252,-0.002276 -0.022996,0.009202 -0.016166,0.016033 0.017416,0.0174163 0.030388,0.001252 0.047414,-0.005562 0.037835,-0.0151405 z m 0.2017883,-0.0288269 c -0.00958,-0.009579 -0.034442,-0.010603 -0.055252,-0.002276 -0.022996,0.009202 -0.016166,0.016033 0.017416,0.0174162 0.030388,0.001252 0.047414,-0.005561 0.037835,-0.0151404 z m 1.9469643,-0.001492 c -0.01952,-0.007896 -0.05843,-0.008377 -0.08648,-0.001068 -0.02805,0.007309 -0.01208,0.0137695 0.03548,0.014357 0.04756,5.8749e-4 0.07051,-0.005393 0.051,-0.013289 z m -1.7154125,-0.029725 c -0.027561,-0.007215 -0.079449,-0.007477 -0.1153076,-5.8176e-4 -0.035858,0.006895 -0.013308,0.0127985 0.050111,0.0131185 0.063419,3.1995e-4 0.092758,-0.005322 0.065197,-0.0125367 z m 0.4176535,-0.0301277 c -0.06738,-0.006069 -0.177645,-0.006069 -0.245028,0 -0.06738,0.006069 -0.01225,0.0110347 0.122514,0.0110347 0.134766,0 0.189897,-0.004966 0.122514,-0.0110347 z m 0.634741,0.002199 c -0.01952,-0.007896 -0.05843,-0.008377 -0.08648,-0.001068 -0.02805,0.007309 -0.01208,0.0137695 0.03548,0.014357 0.04756,5.8749e-4 0.07051,-0.005393 0.051,-0.013289 z m 0.186826,-9.6249e-4 c -0.02775,-0.007251 -0.07315,-0.007251 -0.100894,0 -0.02775,0.007251 -0.005,0.0131832 0.05045,0.0131832 0.05549,0 0.07819,-0.005932 0.05045,-0.0131832 z m -0.577139,-0.026372 c -0.0096,-0.009579 -0.03444,-0.010603 -0.05525,-0.002276 -0.023,0.009202 -0.01617,0.016033 0.01742,0.0174162 0.03039,0.001252 0.04741,-0.005561 0.03784,-0.0151405 z"
       id="path6222"
       transform="translate(269.29211,191.56552)" />
    <path
       style="fill:#f5f8fd;fill-opacity:1;stroke-width:0.0288269"
       d="M 13.039605,6.1148926 C 12.946987,6.0296662 12.767432,5.8807802 12.640594,5.7840345 12.389355,5.5924025 12.202765,5.4208813 11.458936,4.6978054 11.18927,4.4356631 10.921271,4.1989222 10.863383,4.1717145 c -0.06286,-0.029544 -0.174895,-0.049468 -0.278168,-0.049468 -0.15673,0 -0.187177,0.010715 -0.32526,0.1144684 C 10.176166,4.2996722 9.9056928,4.549708 9.6589026,4.7923495 8.9738585,5.4658778 8.7337829,5.6864503 8.546102,5.8147501 8.451563,5.8793774 8.2943403,6.0049702 8.196718,6.0938452 L 8.0192224,6.2554364 H 5.3091792 c -1.4905237,0 -2.7305623,-0.00787 -2.7556412,-0.017498 -0.083475,-0.032033 -0.047214,-0.1165417 0.1129499,-0.26324 0.1090991,-0.099926 0.1585479,-0.1671326 0.1585479,-0.215484 0,-0.038646 0.029187,-0.097041 0.06486,-0.1297663 C 3.080518,5.4545817 3.7884587,5.0770116 4.3312928,4.8607001 4.5479569,4.7743624 4.7530915,4.684206 4.7871475,4.6603523 4.8993962,4.5817301 5.0646093,4.3320004 5.3190684,3.8563209 5.7629442,3.0265509 6.1193876,2.5281057 6.644302,2.0031342 7.4302019,1.2171488 8.6251459,0.57632475 9.5128756,0.46477649 c 0.2751885,-0.034579 1.9382124,-0.0356613 2.2052574,-0.001435 0.379867,0.0486861 0.923263,0.241008 1.484585,0.52543304 0.868853,0.44025237 1.603105,1.09596057 2.24175,2.00194757 0.123723,0.1755132 0.472219,0.7664884 0.589213,0.9991788 0.259015,0.5151536 0.548108,1.5662281 0.4794,1.7429802 -0.01633,0.04201 -0.02165,0.1542507 -0.01195,0.2520396 0.01427,0.1438243 0.0087,0.183651 -0.03051,0.2162017 -0.0515,0.042808 -0.198628,0.04685 -2.234699,0.061388 l -1.02792,0.00734 z M 6.4644314,3.1230401 c -0.019818,-0.008 -0.052249,-0.008 -0.072067,0 -0.019819,0.008 -0.0036,0.01454 0.036034,0.01454 0.039637,0 0.055852,-0.00654 0.036034,-0.01454 z m 8.3886266,1.3e-6 c 0.05946,-0.00941 0.108101,-0.029185 0.108101,-0.043949 0,-0.014764 -0.01622,-0.016349 -0.03603,-0.00352 -0.01982,0.012827 -1.89753,0.030426 -4.172693,0.039108 l -4.1366594,0.015787 4.0645924,0.00484 c 2.235526,0.00266 4.113238,-0.00286 4.172693,-0.012265 z M 6.5837742,2.4777003 c 0.017599,-0.024559 0.00281,-0.014107 -0.032862,0.023228 -0.035673,0.037334 -0.064466,0.083373 -0.063984,0.102307 4.814e-4,0.018934 0.01527,0.00848 0.032862,-0.023228 0.017592,-0.03171 0.046385,-0.077748 0.063984,-0.102307 z M 14.269313,2.0322962 c -0.118117,-0.118911 -0.221244,-0.2162018 -0.229172,-0.2162018 -0.0079,0 0.08223,0.097291 0.200346,0.2162018 0.118117,0.1189109 0.221244,0.2162017 0.229172,0.2162017 0.0079,0 -0.08223,-0.097291 -0.200346,-0.2162017 z m -7.1616697,-0.1081009 0.084667,-0.093687 -0.093687,0.084667 c -0.08733,0.078922 -0.1069377,0.1027076 -0.084667,0.1027076 0.00496,0 0.047121,-0.042159 0.093687,-0.093688 z M 13.981044,1.777879 c 0,-0.00516 -0.03567,-0.040837 -0.07927,-0.079274 l -0.07927,-0.069886 0.06988,0.079274 c 0.06532,0.074093 0.08866,0.092494 0.08866,0.069885 z M 7.9273964,1.3095953 c 0,-0.00793 -0.025944,-5.284e-4 -0.057654,0.016442 -0.03171,0.016971 -0.057654,0.037341 -0.057654,0.045269 0,0.00793 0.025944,5.284e-4 0.057654,-0.016442 0.03171,-0.01697 0.057654,-0.037341 0.057654,-0.045269 z m 0.1441344,-0.086481 c 0,-0.00793 -0.025944,-5.284e-4 -0.057654,0.016442 -0.03171,0.016971 -0.057654,0.037342 -0.057654,0.045269 0,0.00793 0.025944,5.284e-4 0.057654,-0.016442 0.031709,-0.01697 0.057654,-0.037341 0.057654,-0.045269 z M 8.405101,1.0446335 C 8.39215,1.0316835 8.1003577,1.1770849 8.1003577,1.1964886 c 0,0.00749 0.070984,-0.021199 0.1577423,-0.063749 0.086758,-0.04255 0.1529088,-0.082198 0.147001,-0.088106 z M 8.5191105,0.9856817 c -0.00888,-0.008875 -0.032136,-1.828e-5 -0.05169,0.0196826 -0.028258,0.02847 -0.024947,0.031781 0.016137,0.016137 0.02843,-0.010825 0.044429,-0.0269442 0.035553,-0.0358196 z m 4.2512045,0.0232597 c -0.02378,-0.0153693 -0.05621,-0.0279441 -0.07207,-0.0279441 -0.01586,0 -0.0094,0.0125748 0.01441,0.0279441 0.02378,0.015369 0.05621,0.027944 0.07207,0.027944 0.01586,0 0.0094,-0.012575 -0.01441,-0.027944 z M 12.568527,0.9224607 c -0.02378,-0.0153692 -0.05621,-0.0279441 -0.07207,-0.0279441 -0.01585,0 -0.0094,0.0125748 0.01441,0.0279441 0.02378,0.0153692 0.05621,0.027944 0.07207,0.027944 0.01586,0 0.0094,-0.0125748 -0.01441,-0.027944 z M 12.366738,0.8503935 c -0.131615,-0.0506847 -0.183398,-0.0499366 -0.07207,0.001041 0.04756,0.0217793 0.105939,0.039197 0.129721,0.038706 0.02378,-4.9122e-4 -0.0022,-0.0183773 -0.05765,-0.0397471 z"
       id="path6261"
       transform="translate(269.29211,191.56552)" />
    <path
       style="fill:#f5f8fd;fill-opacity:1;stroke-width:0.0288269"
       d="M 13.04286,6.1350337 C 12.948452,6.0486253 12.773918,5.9012882 12.655007,5.8076175 12.404795,5.6105159 12.187368,5.4122405 11.646066,4.8875466 11.432026,4.6800739 11.164181,4.4309196 11.050853,4.3338704 10.86393,4.1737967 10.829139,4.1555994 10.676038,4.1378302 10.386533,4.1042296 10.359844,4.1232493 9.4307366,5.0252639 9.1069656,5.3395935 8.7328853,5.679123 8.5994467,5.7797736 8.4660085,5.8804241 8.2853639,6.0286887 8.1980146,6.10925 L 8.0391977,6.2557255 5.2811691,6.2483741 c -2.66846,-0.00711 -2.7583657,-0.0091 -2.7684129,-0.061279 -0.00667,-0.034644 0.041493,-0.1068025 0.1346879,-0.2017883 0.07979,-0.081323 0.1537604,-0.1833936 0.1643791,-0.226823 C 2.847938,5.6107765 3.1000729,5.4388246 3.7619099,5.1105411 3.9521674,5.0161696 4.247415,4.8834376 4.4180157,4.8155811 4.5886163,4.7477246 4.7608316,4.6665368 4.8007163,4.6351634 4.9046704,4.553393 5.057196,4.3174826 5.3466725,3.7907368 5.8002909,2.9653098 6.2139822,2.3998581 6.7116808,1.9249829 7.4005093,1.2677428 8.4101339,0.7013482 9.2534336,0.49907157 9.5009549,0.43970028 11.348996,0.41070688 11.72665,0.46026997 c 0.348426,0.0457272 0.864512,0.22439358 1.375174,0.47607869 0.677462,0.33389414 1.12431,0.66242724 1.667864,1.22625514 0.637034,0.6607938 1.233916,1.610631 1.503172,2.3920457 0.178443,0.5178643 0.251078,0.8898855 0.247202,1.2661177 -0.0019,0.1810836 -0.01657,0.345121 -0.03268,0.3645273 -0.01611,0.019406 -0.07098,0.042583 -0.121944,0.051505 -0.05096,0.00892 -0.780771,0.025023 -1.621796,0.03578 l -1.529135,0.01956 z M 12.404928,3.1205221 c -0.652824,-0.00432 -1.729509,-0.00432 -2.392632,-3.7e-6 -0.6631237,0.00432 -0.1289948,0.00785 1.186953,0.00785 1.315948,2.1e-6 1.858503,-0.00353 1.205679,-0.00785 z m 1.481786,5.717e-4 c -0.05981,-0.00624 -0.150614,-0.00614 -0.201788,2.335e-4 -0.05118,0.00637 -0.0022,0.011474 0.108744,0.011346 0.110983,-1.268e-4 0.152853,-0.00534 0.09304,-0.011579 z m 0.987964,-0.018027 c 0.05549,-0.00489 -0.03856,-0.011077 -0.208995,-0.013743 -0.170439,-0.00267 -0.309918,0.00488 -0.309954,0.016774 -5.7e-5,0.019889 0.277405,0.018268 0.518949,-0.00303 z"
       id="path6300"
       transform="translate(269.29211,191.56552)" />
    <path
       style="fill:#f5f8fd;fill-opacity:1;stroke-width:0.0288269"
       d="M 13.168615,6.2628357 C 13.147735,6.237315 12.974986,6.0872286 12.784728,5.9293102 12.384659,5.5972434 12.297835,5.5187017 11.617239,4.8731971 10.893551,4.1868224 10.871299,4.1702809 10.652912,4.1563751 10.371331,4.1384454 10.377921,4.13387 9.5417025,4.9278036 8.8597957,5.5752283 8.7134012,5.7089105 8.5615881,5.8228096 8.4902415,5.8763376 8.3453359,5.9956421 8.2395755,6.0879302 L 8.047284,6.2557267 5.2852124,6.248375 C 2.1433915,6.2400123 2.3977452,6.2649066 2.6318252,5.9886775 2.7023105,5.9055004 2.7809025,5.7963205 2.8064742,5.7460554 2.9051433,5.5521063 3.3584266,5.2727973 4.1089008,4.9435126 4.3461352,4.8394215 4.6026505,4.726212 4.6789348,4.6919359 4.8404713,4.6193547 4.9256183,4.512229 5.1890246,4.0501789 5.8817064,2.8351216 6.1357097,2.4800778 6.7060328,1.9297165 7.4889854,1.174168 8.6808248,0.54896836 9.5102025,0.45874175 c 0.1639671,-0.0178377 0.6960025,-0.025982 1.2869665,-0.0197006 0.983623,0.0104549 1.01392,0.0125055 1.2813,0.0867222 0.902614,0.25053834 1.860145,0.80431905 2.536767,1.46712005 1.157217,1.1335785 1.963132,2.7922921 1.902837,3.9163732 -0.01392,0.2594787 -0.01853,0.2754375 -0.08931,0.3092397 -0.05388,0.025731 -0.414579,0.04004 -1.29721,0.051463 -0.672416,0.0087 -1.380613,0.021099 -1.573773,0.02755 -0.297393,0.00993 -0.357015,0.00462 -0.389163,-0.034673 z m 1.597962,-3.1703842 c -0.05153,-0.00639 -0.135846,-0.00639 -0.187374,0 -0.05153,0.00639 -0.0094,0.011626 0.09369,0.011626 0.103056,0 0.145215,-0.00523 0.09369,-0.011626 z"
       id="path6339"
       transform="translate(269.29211,191.56552)" />
    <path
       style="fill:#f5f8fd;fill-opacity:1;stroke-width:0.0288269"
       d="M 13.041699,6.1610989 C 12.94793,6.07768 12.756844,5.9142269 12.617064,5.7978703 12.477284,5.6815137 12.064303,5.3055429 11.699329,4.9623803 11.334354,4.6192175 10.985302,4.3043113 10.923658,4.2625887 10.797494,4.1771965 10.544248,4.1324598 10.433648,4.1760273 10.302763,4.2275856 10.185376,4.3275994 9.5849429,4.8991263 9.0179908,5.438784 8.8171048,5.6198114 8.4395632,5.9312788 L 8.046288,6.2557267 5.2847143,6.2483747 C 2.6829285,6.2414484 2.5225797,6.2381097 2.5134451,6.1906719 2.499565,6.1185899 2.8936876,5.6060936 3.0524318,5.4898021 3.2254089,5.3630843 3.7923816,5.0731754 4.3472291,4.8277365 4.8763726,4.5936679 4.8495791,4.6214703 5.3049246,3.8339772 5.6745955,3.194653 5.9232203,2.8078192 6.1386638,2.5367668 6.349208,2.2718786 6.7776953,1.8401466 7.0444626,1.6241096 7.749644,1.0530298 8.6927986,0.58367846 9.3543277,0.47462849 c 0.292034,-0.0481404 2.1712313,-0.0578367 2.4567153,-0.0126762 0.687931,0.10882349 1.851078,0.68522361 2.486319,1.23210071 1.317456,1.1341943 2.285711,2.9660058 2.228199,4.2154607 -0.0074,0.1614343 -0.02543,0.2594305 -0.05276,0.2872424 -0.0513,0.052206 -0.538398,0.074794 -2.133893,0.098953 l -1.12672,0.017061 z"
       id="path6378"
       transform="translate(269.29211,191.56552)" />
    <path
       style="fill:#f5f8fd;fill-opacity:1;stroke-width:0.0288269"
       d="M 13.072293,6.2070614 C 13.008486,6.1464664 12.800932,5.9623554 12.611062,5.7979262 12.421192,5.6334967 12.110179,5.3534858 11.919921,5.1756792 11.401302,4.6910002 11.018917,4.3481048 10.913,4.2727433 10.81396,4.202275 10.555424,4.157709 10.430693,4.1896039 10.351485,4.209858 10.159402,4.3644459 9.8587984,4.6498633 8.9949486,5.4700718 8.8619436,5.5912915 8.4606939,5.9240825 8.2704364,6.0818795 8.1104472,6.2209874 8.1051623,6.2332112 c -0.00529,0.012224 -1.2607431,0.022225 -2.789907,0.022225 -3.0451364,0 -2.8688694,0.01033 -2.7762633,-0.1627056 C 2.6283583,5.9257484 2.9662716,5.5449344 3.1133048,5.4455047 3.2955241,5.322281 3.7962926,5.0687228 4.3384478,4.8251683 4.8186819,4.609431 4.8842015,4.5427688 5.2728103,3.8745115 5.5868352,3.3345097 5.9804333,2.7187982 6.1371876,2.5223534 6.3077598,2.3085915 6.931283,1.6969337 7.1346567,1.5438655 7.9135185,0.9576592 8.7864073,0.54568636 9.4293682,0.46084254 9.592036,0.4393772 10.058225,0.4320286 10.784232,0.43948565 c 1.246094,0.012799 1.190661,0.004808 1.837429,0.26488401 0.840339,0.33791414 1.438691,0.72779594 2.036835,1.32718624 0.5787,0.5799064 0.972793,1.1308257 1.340889,1.8744885 0.38071,0.7691448 0.571031,1.4871501 0.531765,2.0061386 -0.01031,0.1362339 -0.02911,0.2644718 -0.04178,0.2849729 -0.03322,0.053759 -0.569996,0.080507 -2.044255,0.1018682 l -1.256812,0.01821 z"
       id="path6417"
       transform="translate(269.29211,191.56552)" />
    <path
       style="fill:#f5f8fd;fill-opacity:1;stroke-width:0.0288269"
       d="M 13.020825,6.1746314 C 12.938536,6.0984789 12.75446,5.9342022 12.611767,5.8095717 12.469074,5.6849415 12.216118,5.4576858 12.049642,5.304559 11.883167,5.1514326 11.643183,4.9306927 11.516345,4.8140259 10.915683,4.2615328 10.788407,4.1796644 10.530672,4.1800077 10.385946,4.1802095 10.253345,4.2862769 9.4523092,5.0426655 9.1764522,5.3031471 8.8354107,5.6144776 8.6944391,5.734511 8.5534672,5.8545448 8.3589814,6.0208575 8.2622479,6.1040952 L 8.0863686,6.2554364 H 5.3150973 c -2.3087828,0 -2.7767307,-0.00658 -2.8039859,-0.039419 C 2.4706223,6.167231 2.6245274,5.9264685 2.867935,5.6578177 3.0365597,5.4717052 3.3187482,5.2940401 3.8195637,5.0586751 4.7354493,4.628242 4.7444809,4.6230932 4.8839577,4.4518707 4.9571106,4.362068 5.1581891,4.0520696 5.3307987,3.7629857 5.9396597,2.7432753 6.1477498,2.4631215 6.6878398,1.9359879 6.9882389,1.6427953 7.1480676,1.5135288 7.4977243,1.2809677 7.8407274,1.0528321 8.50929,0.70984917 8.8066167,0.60948576 9.2998382,0.44299747 9.2571969,0.44681689 10.622711,0.44681689 c 1.41738,0 1.357005,-0.006895 1.926567,0.22001761 0.45718,0.18213992 0.896282,0.4123013 1.302045,0.6824851 0.615869,0.4100853 1.275579,1.1027299 1.75506,1.8426753 0.632238,0.9756844 1.012707,2.1362959 0.923287,2.816461 -0.02483,0.1889021 -0.031,0.2011365 -0.112753,0.2235993 -0.117309,0.032234 -1.588489,0.079458 -2.502459,0.080327 l -0.744018,7.077e-4 z"
       id="path6456"
       transform="translate(269.29211,191.56552)" />
    <path
       style="fill:#f5f8fd;fill-opacity:1;stroke-width:0.0288269"
       d="M 13.056235,6.2210217 C 12.999452,6.1686032 12.727037,5.9224108 12.45087,5.6739276 12.174703,5.4254443 11.754167,5.04417 11.516345,4.8266515 10.847824,4.2152039 10.652015,4.1117292 10.397042,4.2351593 10.276632,4.293449 10.141972,4.410697 9.3687412,5.1305025 8.9168323,5.5511873 8.7948888,5.6608477 8.4125772,5.9903564 l -0.307559,0.26508 h -2.780596 c -2.2492856,0 -2.786551,-0.00718 -2.8117616,-0.037552 C 2.4602439,6.1547259 2.587773,5.9518232 2.8672233,5.653764 3.0664097,5.4413136 3.2258608,5.3446809 3.9929791,4.9715173 4.3578891,4.7940073 4.6988259,4.6131165 4.7506164,4.5695378 4.8776474,4.4626482 5.0392866,4.2299737 5.3917803,3.6466023 5.9002461,2.8051001 6.0877616,2.5430211 6.4714499,2.1376146 6.6923965,1.9041616 7.1380889,1.5178689 7.3796853,1.3504241 7.7992095,1.0596618 8.5102217,0.69621517 8.9219243,0.56208098 9.2891789,0.44242809 9.5341951,0.42636907 10.790973,0.43957852 c 1.299451,0.013658 1.258974,0.008215 1.820115,0.24475095 0.94645,0.39895353 1.560727,0.81611143 2.212314,1.50238993 0.765567,0.8063277 1.35284,1.8444138 1.627963,2.8776511 0.06337,0.2379934 0.0758,0.3481384 0.07811,0.6923448 0.0019,0.2819575 -0.008,0.4200352 -0.03165,0.4437419 -0.06051,0.060535 -0.480071,0.082148 -1.925829,0.099205 l -1.412518,0.016665 z"
       id="path6495"
       transform="translate(269.29211,191.56552)" />
  </g>
</svg>
