<svg version="1.2" xmlns="http://www.w3.org/2000/svg" viewBox="0 0 178 179" width="178" height="179"><style></style><path fill-rule="evenodd" d="m66.5 4.1c22-0.1 23.2 0 27 2.2 2.6 1.5 4.9 3.9 6.5 7l2.5 4.7h20.8c17.9 0 21.1 0.2 23.4 1.7 3.3 2.2 5.3 7 5.3 12.6 0 4 0.2 4.4 3.5 5.6 6.6 2.3 6.8 3.8 5.6 34-1.9 46.5-1.9 46.1-5.3 49.3l-3 2.8h-58.8v14.5c0 8.2 0.4 14.5 0.9 14.5 1.7 0 7.2 5.3 8.2 7.7 0.8 2.3 1 2.3 17.4 2.3 16.2 0 16.6 0 17.4-2.3 2.7-7 12.6-9.9 19.1-5.5 2.4 1.6 3.8 3.7 4.8 6.9 1.4 4.3 1.3 5-0.4 8.5-2.5 5-6.3 7.7-11.1 7.7-5.3 0-9.5-2.4-11.8-6.7l-2-3.6h-32.1l-1.7 3.5c-4.4 9.1-18.3 9-22.7-0.3l-1.5-3.2h-33l-1.5 3.2c-6.1 12.9-25.6 6.9-23.7-7.2 0.4-2.9 1.5-5.3 3.5-7.3 6-6 17.7-4 20.5 3.3l1.1 3h33.1l1.6-3.3c0.8-1.7 3.2-4.1 5.2-5.2l3.7-2v-28.5h-58.8l-3.1-2.6c-1.8-1.5-3.2-3.8-3.5-5.7-0.5-3-2.4-49.6-2.8-65-0.1-7.9 1.8-11.6 7-13.2l3.2-0.9v-9.7c0-13.2 2.2-18.3 9.5-21.5 2.2-1 9-1.3 26-1.3zm0 4.9c-24.2 0.1-26.2 0.5-29 6-1 2-1.5 5.9-1.5 12.5v9.5h111.2l-0.4-5.5c-0.3-3.1-1-6.1-1.7-6.8-0.8-0.8-8.1-1.3-24.3-1.7l-23.1-0.5-1.4-4.8c-1-3.5-2.2-5.3-4.6-6.7-2.9-1.8-5.1-2-25.2-2zm24.6 33c-55.7 0-63 0.2-64.1 1.6-1.9 2.2 0.5 69.8 2.6 73.1l1.4 2.3h60c53.1 0 60-0.2 61.4-1.6 0.9-0.8 1.6-1.8 1.6-2.2 0-0.4 0.7-15.1 1.5-32.7 1.8-39.4 1.8-37-0.1-38.9-1.4-1.4-8.6-1.6-64.3-1.6zm-63.6 129c4.4 4.2 11.5 2.2 12.9-3.6 0.7-2.8-1.6-7.9-3.9-8.8-8.2-3.1-15.2 6.5-9 12.4zm57-2c1.8 3.5 2.7 4.1 6.5 4.2 6.9 0.2 10.4-7.9 5.5-12.7-6.2-6.3-16 0.7-12 8.5zm59.8 1.8c4.3 4.1 11 2.5 13-3 0.9-2.4-1.1-7.6-3.3-8.8-7.8-4.2-16 5.9-9.7 11.8z"/><path  d="m58.3 65v4.9q-2.9-1.3-5.4-2-2.6-0.7-4.9-0.7-4.1 0-6.4 1.6-2.2 1.6-2.2 4.6 0 2.4 1.5 3.7 1.5 1.2 5.6 2l3.1 0.6q5.6 1.1 8.2 3.8 2.7 2.7 2.7 7.2 0 5.4-3.6 8.2-3.6 2.8-10.6 2.8-2.6 0-5.6-0.6-3-0.6-6.2-1.7v-5.2q3.1 1.7 6 2.6 3 0.8 5.8 0.8 4.3 0 6.6-1.7 2.4-1.6 2.4-4.8 0-2.7-1.7-4.3-1.7-1.5-5.5-2.3l-3.1-0.6q-5.6-1.1-8.1-3.5-2.5-2.4-2.5-6.6 0-5 3.4-7.8 3.5-2.9 9.6-2.9 2.6 0 5.3 0.5 2.8 0.5 5.6 1.4zm10.1 36v-37.2h21.3v4.3h-16.3v10.9h14.8v4.2h-14.8v17.8zm23.3-32.9v-4.3h31.4v4.3h-13.2v32.9h-5v-32.9zm47.7-0.1h-6.4v13.9h6.4q3.5 0 5.4-1.8 1.9-1.8 1.9-5.2 0-3.3-1.9-5.1-1.9-1.8-5.4-1.8zm-11.4 33v-37.2h11.4q6.2 0 9.4 2.9 3.2 2.8 3.2 8.2 0 5.5-3.2 8.3-3.2 2.9-9.4 2.9h-6.4v14.9z"/></svg>