<?xml version="1.0" standalone="no"?>
<!DOCTYPE svg PUBLIC "-//W3C//DTD SVG 20010904//EN"
 "http://www.w3.org/TR/2001/REC-SVG-20010904/DTD/svg10.dtd">
<svg version="1.0" xmlns="http://www.w3.org/2000/svg"
 width="110.000000pt" height="83.000000pt" viewBox="0 0 110.000000 83.000000"
 preserveAspectRatio="xMidYMid meet">

<g transform="translate(0.000000,83.000000) scale(0.100000,-0.100000)"
fill="#000000" stroke="none">
<path d="M573 810 c-42 -10 -112 -52 -143 -86 -18 -19 -10 -16 26 13 94 73
189 80 250 19 39 -39 54 -91 52 -171 -2 -59 -2 -59 -5 -10 -6 87 -8 92 -48 90
-19 -1 -38 -4 -41 -8 -4 -4 15 -80 41 -169 27 -90 58 -199 70 -243 l22 -80 71
-3 72 -3 -6 28 c-5 24 80 320 125 436 17 45 14 58 -11 49 -13 -5 -35 -8 -51
-7 -24 1 -29 -4 -38 -40 -32 -124 -72 -261 -79 -268 -4 -4 -21 50 -39 120 -18
70 -36 137 -41 148 -5 11 -17 43 -26 70 -32 99 -102 139 -201 115z m214 -297
c-3 -10 -5 -4 -5 12 0 17 2 24 5 18 2 -7 2 -21 0 -30z m-27 -43 c5 0 11 6 13
13 3 7 6 5 6 -5 1 -11 -6 -18 -17 -18 -26 0 -30 7 -23 38 l6 27 3 -27 c2 -16
7 -28 12 -28z"/>
<path d="M145 677 c-2 -6 -13 -59 -24 -118 -22 -110 -82 -351 -96 -382 -7 -17
0 -18 100 -16 l108 2 19 -37 c20 -40 49 -62 99 -76 76 -22 213 54 292 160 32
42 41 49 53 39 8 -6 12 -14 9 -18 -3 -3 -10 1 -14 8 -7 10 -15 4 -34 -24 -15
-21 -24 -42 -21 -47 3 -4 38 -8 78 -8 l74 0 -25 67 c-25 68 -103 324 -123 401
l-11 43 -69 -3 c-67 -2 -69 -3 -64 -25 4 -13 3 -31 -1 -40 -5 -15 -9 -12 -22
14 -28 58 -53 67 -196 70 -95 2 -129 0 -132 -10z m190 -92 c30 -29 33 -78 9
-174 -21 -85 -50 -142 -76 -149 -17 -4 -19 -11 -14 -40 3 -19 9 -39 14 -44 4
-4 30 3 56 16 32 16 46 19 42 10 -3 -8 -9 -21 -12 -29 -5 -12 4 -15 48 -15
l54 0 13 51 13 51 72 -2 c90 -3 91 -3 77 14 -9 11 -4 18 24 35 41 24 45 25 45
11 0 -6 -3 -9 -7 -8 -14 4 -54 -23 -48 -32 7 -11 -41 -84 -76 -117 -36 -33
-137 -83 -168 -83 -15 0 -47 10 -71 23 -65 32 -94 94 -92 190 2 40 9 97 17
127 8 30 12 56 10 58 -8 8 -36 -108 -44 -184 -5 -44 -9 -71 -10 -62 0 9 -7 18
-14 20 -10 2 -5 39 23 163 20 88 39 168 43 178 9 24 44 21 72 -8z m255 -232
c0 -15 -66 -18 -74 -4 -5 8 19 105 32 126 6 9 42 -96 42 -122z m-363 -165 c-3
-8 -6 -5 -6 6 -1 11 2 17 5 13 3 -3 4 -12 1 -19z"/>
<path d="M290 539 c-7 -11 -10 -23 -7 -25 2 -2 9 7 15 21 14 30 7 33 -8 4z"/>
</g>
</svg>
