<svg version="1.1" xmlns="http://www.w3.org/2000/svg" xmlns:xlink="http://www.w3.org/1999/xlink" id="android-bulb" viewBox="0 0 448 512"><path d="M224 170c-25 0-50 10-68 28s-28 43-28 68c0 34 18 66 48 83l16 10v89h64v-89l16-10c15-8 27-20 35-34 9-15 13-31 13-49 0-25-10-50-28-68s-43-28-68-28zm21-138v64h-42V32h42zm129 54l30 30-38 38-30-30zM74 86l38 38-30 30-38-38zm150 52c70 0 128 58 128 128 0 48-26 89-64 111v103H160V377c-38-22-64-64-64-111 0-70 58-128 128-128zm224 107v42h-64v-42h64zm-384 0v42H0v-42h64z"/></svg>