<svg version="1.1" xmlns="http://www.w3.org/2000/svg" xmlns:xlink="http://www.w3.org/1999/xlink" id="android-microphone-off" viewBox="0 0 408 512"><path d="M316 355l58 58-58-58 58 58 34 33-24 24-95-95c-19 11-40 20-62 23v82h-46v-82c-75-10-137-76-137-153h39c0 68 58 117 121 117 20 0 40-5 57-14l-32-33c-8 3-16 5-25 5-38 0-69-31-69-69v-29L0 88l24-24 111 110 140 140 5 5 9 9zm-43-104c0 4 0 8-1 12L135 126v-25c0-38 31-69 69-69s69 31 69 69v150zm92-6c0 31-10 60-27 84l-27-28c9-17 15-36 15-56h39zm43 201l-34-33z"/></svg>