<svg version="1.1" xmlns="http://www.w3.org/2000/svg" xmlns:xlink="http://www.w3.org/1999/xlink" id="android-hand" viewBox="0 0 414 512"><path d="M401 274c15 15 18 36 3 51 0 0-96 103-126 121-28 21-65 34-100 34-55 0-101-36-117-85v-1c0-1-1-2-1-3L2 202c-5-15 2-32 17-37s30 3 35 18l34 88c1 4 2 2 2-1L68 109c-3-15 7-30 22-33s30 8 33 23l25 138c0 2 2 2 2 0V60c0-15 13-28 28-28s28 13 28 28l8 175c0 5 3 4 4 1l23-135c2-15 16-27 31-25s27 17 25 32l-21 172c-1 12-3 30 2 36 8 9 20 9 31-2l42-42c15-15 35-13 50 2z"/></svg>