<svg version="1.1" xmlns="http://www.w3.org/2000/svg" xmlns:xlink="http://www.w3.org/1999/xlink" id="android-boat" viewBox="0 0 448.1803 512"><path d="M52.09 413l-51-139c-2-6-1-12 1-17s8-8 13-10l38-13v-98c0-23 20-43 43-43h64l16-53h96l16 53h64c23 0 43 20 43 43v98l38 13c5 2 11 5 13 10s3 12 1 17l-51 139h-1c-34 0-65-20-86-43-21 23-51 43-85 43s-64-19-85-42c-21 23-52 42-86 42h-1zm44-277v84l128-41 128 41v-84h-256zm213 272s59 64 107 64h-21c-30 0-59-12-86-26-53 28-117 28-170 0-27 14-56 26-86 26h-21c49 0 107-64 107-64 52 36 118 36 170 0z"/></svg>