<svg version="1.1" xmlns="http://www.w3.org/2000/svg" xmlns:xlink="http://www.w3.org/1999/xlink" id="android-favorite-outline" viewBox="0 0 416 512"><path d="M302 64c64 0 114 50 114 115 0 80-71 144-178 242l-30 27-30-27C71 323 0 259 0 179 0 114 50 64 114 64c36 0 71 17 94 44 23-27 58-44 94-44zm-81 329c50-46 94-86 123-122 28-35 40-63 40-92 0-23-9-44-24-59s-35-24-58-24c-26 0-53 13-70 33l-24 29-24-29c-17-20-44-33-70-33-23 0-43 9-58 24s-24 36-24 59c0 29 12 57 40 92 29 36 73 76 123 122l4 4 9 8 9-8z"/></svg>