<svg version="1.1" xmlns="http://www.w3.org/2000/svg" xmlns:xlink="http://www.w3.org/1999/xlink" id="android-globe" viewBox="0 0 416 512"><path d="M208 48c115 0 208 93 208 208s-93 208-208 208S0 371 0 256 93 48 208 48zm-22 385c6-15 21-29 8-39-8-7-16-14-23-21-2-2-11-20-9-23 5-9 6-14 8-24 3-12-3-16-13-22-15-10-29-23-43-34-7-5-17-10-20-19s-5-20-10-28c-14-20-12-34-10-58 0-7-1-16-2-25-28 32-42 73-42 116 0 48 18 92 52 126 29 29 65 46 104 51zm148-51c23-23 39-51 47-82-8 1-19-2-19-2s-21-24-23-45c-2-22 0-39-3-57-3-16-20-31-27-46-7-14-13-28-20-42 2 1 5 2 7 3 5-1 10-2 14-2-23-16-49-25-76-29v8l4 9-14 13-9-3-10-10-10-12-14-5c-16 2-31 7-45 13v7c7-3 16-5 23-8 3-1 13 7 16 9-4 5-21 15-22 21 0 2 7 6 7 10 0 6-1 11-1 17 3-3 20-21 22-21 13-3 35 19 37 26s-22 24-33 34c-8 8-25 12-20 24 2 4 10 20 5 24-6 5-14-9-17-12-8-10-26-7-38-7 0 17-1 31 15 43 15 11 30 25 47 33 13 6 36-7 47 1 16 11 29 21 47 29 8 3 33 20 26 31-5 8-10 15-14 23s-13 20-20 25c-8 6-16 17-21 29 35-7 66-23 92-49z"/></svg>