<svg version="1.1" xmlns="http://www.w3.org/2000/svg" xmlns:xlink="http://www.w3.org/1999/xlink" id="android-contacts" viewBox="0 0 448 512"><path d="M207 344c47 14 76 62 87 104H0c11-42 40-90 87-104 18 10 38 16 60 16s42-6 60-16zm-60-224c58 0 106 48 106 106s-48 106-106 106S41 284 41 226s48-106 106-106zm0 187c34 0 62-23 74-51H73c12 28 40 51 74 51zm144 77c-13-20-34-43-60-53 11-9 21-23 28-35 13 5 27 8 42 8 22 0 42-6 60-16 47 14 76 54 87 96H291zm-16-184c-8-37-31-69-63-87 19-29 52-49 89-49 58 0 106 48 106 106s-48 106-106 106c-11 0-22-2-32-5 3-8 6-16 7-25 8 3 16 4 25 4 34 0 62-22 74-50H275z"/></svg>