<svg version="1.1" xmlns="http://www.w3.org/2000/svg" xmlns:xlink="http://www.w3.org/1999/xlink" id="android-options" viewBox="0 0 448 512"><path d="M0 416v-32h272v32H0zm368 0v-32h80v32h-80zm-16 32c0 18-14 32-32 32s-32-14-32-32v-96c0-18 14-32 32-32s32 14 32 32v96zM0 272v-32h80v32H0zm176 0v-32h272v32H176zm-16 32c0 18-14 32-32 32s-32-14-32-32v-96c0-18 14-32 32-32s32 14 32 32v96zM0 128V96h272v32H0zm368 0V96h80v32h-80zm-16 32c0 18-14 32-32 32s-32-14-32-32V64c0-18 14-32 32-32s32 14 32 32v96z"/></svg>