<svg version="1.1" xmlns="http://www.w3.org/2000/svg" xmlns:xlink="http://www.w3.org/1999/xlink" id="android-color-palette" viewBox="0 0 384 512"><path d="M192 64c106 0 192 77 192 171 0 59-48 106-107 106h-38c-18 0-32 14-32 32 0 9 3 17 8 22s9 12 9 21c0 18-14 32-32 32C86 448 0 362 0 256S86 64 192 64zM75 256c18 0 32-14 32-32s-14-32-32-32-32 14-32 32 14 32 32 32zm64-85c18 0 32-14 32-32s-14-32-32-32-32 14-32 32 14 32 32 32zm106 0c18 0 32-14 32-32s-14-32-32-32-32 14-32 32 14 32 32 32zm64 85c18 0 32-14 32-32s-14-32-32-32-32 14-32 32 14 32 32 32z"/></svg>