<svg version="1.1" xmlns="http://www.w3.org/2000/svg" xmlns:xlink="http://www.w3.org/1999/xlink" id="android-sunny" viewBox="0 0 448 512"><path d="M224 160c-25 0-50 10-68 28s-28 43-28 68 10 50 28 68 43 28 68 28 50-10 68-28 28-43 28-68-10-50-28-68-43-28-68-28zm21-128v64h-42V32h42zm129 44l30 30-38 38-30-30zM74 76l38 38-30 30-38-38zm150 52c70 0 128 58 128 128s-58 128-128 128S96 326 96 256s58-128 128-128zm224 107v42h-64v-42h64zm-384 0v42H0v-42h64zm302 133l38 38-30 30-38-38zm-284 0l30 30-38 38-30-30zm163 48v64h-42v-64h42z"/></svg>