<svg version="1.1" xmlns="http://www.w3.org/2000/svg" xmlns:xlink="http://www.w3.org/1999/xlink" id="android-wifi" viewBox="0 0 416 512"><path d="M208 229c23 0 42 18 42 41s-19 41-42 41-42-18-42-41 19-41 42-41zm125 41c0 45-26 85-63 107l-20-36c25-14 41-40 41-71 0-45-37-82-83-82s-83 37-83 82c0 31 16 57 41 71l-20 36c-37-22-63-62-63-107 0-68 56-124 125-124s125 56 125 124zM208 64c114 0 208 93 208 206 0 76-42 142-104 178l-21-36c50-28 83-81 83-142 0-91-74-165-166-165S42 179 42 270c0 61 33 113 83 142l-21 36C42 412 0 346 0 270 0 157 94 64 208 64z"/></svg>