<svg version="1.1" xmlns="http://www.w3.org/2000/svg" xmlns:xlink="http://www.w3.org/1999/xlink" id="android-settings" viewBox="0 0 416.081 512"><path d="M366.04 277l47 34c3 3 4 10 2 14l-43 71c-2 4-7 7-12 5l-54-21c-12 8-23 16-36 21l-8 55c-1 4-6 8-11 8h-85c-5 0-10-3-11-8l-8-55c-13-5-25-13-36-21l-54 21c-4 2-10-1-12-5l-43-71c-3-5-2-11 2-14l45-34c0-7-1-14-1-21s1-14 1-21l-46-34c-3-3-4-10-2-14l43-71c2-4 7-7 12-5l54 21c12-8 23-16 36-21l8-55c1-4 6-8 11-8h85c5 0 10 4 11 8l7 55c13 5 25 13 36 21l53-21c4-2 11 1 13 5l43 71c3 5 2 11-2 14l-45 34c0 7 1 14 1 21s0 15-1 21zm-159 52c41 0 75-32 75-73s-34-73-75-73-74 32-74 73 33 73 74 73z"/></svg>