<svg version="1.1" xmlns="http://www.w3.org/2000/svg" xmlns:xlink="http://www.w3.org/1999/xlink" id="android-bicycle" viewBox="0 0 448 512"><path d="M299 131c-19 0-34-14-34-33s15-34 34-34 33 15 33 34-14 33-33 33zm56 130c51 0 93 43 93 94s-42 93-93 93-94-42-94-93 43-94 94-94zm0 159c36 0 65-29 65-65s-29-66-65-66-66 30-66 66 30 65 66 65zm-81-196l-30-45-43 45 39 32v112h-32v-86l-61-38c-9-6-19-15-19-27 0-8 3-17 9-23l72-69c6-6 14-9 22-9 11 0 22 7 28 16l34 60h59v32h-78zM93 261c51 0 94 43 94 94s-43 93-94 93-93-42-93-93 42-94 93-94zm0 159c36 0 66-29 66-65s-30-66-66-66-65 30-65 66 29 65 65 65z"/></svg>