<svg version="1.1" xmlns="http://www.w3.org/2000/svg" xmlns:xlink="http://www.w3.org/1999/xlink" id="aperture" viewBox="0 0 448 512"><path d="M224 32c124 0 224 100 224 224S348 480 224 480 0 380 0 256 100 32 224 32zm136 360c36-36 56-85 56-136s-20-100-56-136-85-56-136-56-100 20-136 56-56 85-56 136 20 100 56 136 85 56 136 56 100-20 136-56zM168 106l56 86H77c17-40 50-71 91-86zm213 182H279l72-129c21 27 33 60 33 97 0 11-1 22-3 32zm-53-154l-49 90-78-126c8-1 15-2 23-2 40 0 76 14 104 38zM67 224h102L97 353c-21-27-33-60-33-97 0-11 1-22 3-32zm213 182l-56-86h147c-17 40-50 71-91 86zm-160-28l49-90 78 126c-8 1-15 2-23 2-40 0-76-14-104-38z"/></svg>