<svg version="1.1" xmlns="http://www.w3.org/2000/svg" xmlns:xlink="http://www.w3.org/1999/xlink" id="backspace" viewBox="0 0 512 512"><path d="M499 94c9 9 13 20 13 33v256c0 27-20 49-46 49H168c-13 0-24-3-34-9-9-5-16-11-23-20l-1-1L0 256l110-148c14-19 34-28 58-28h298c13 0 24 5 33 14zm-86 238l-76-76 77-76c3-3 3-9 0-12l-22-22c-2-2-4-2-6-2s-4 0-6 2l-76 76-76-76c-2-2-4-2-6-2s-4 0-6 2l-22 22c-3 3-3 9 0 12l77 76-76 76c-2 2-3 4-3 6s1 4 3 6l21 22c2 2 4 2 6 2s4 0 6-2l76-77 76 77c2 2 4 2 6 2s4 0 6-2l21-22c2-2 3-4 3-6s-1-4-3-6z"/></svg>