<svg version="1.1" xmlns="http://www.w3.org/2000/svg" xmlns:xlink="http://www.w3.org/1999/xlink" id="backspace-outline" viewBox="0 0 512 512"><path d="M413 332c2 2 3 4 3 6s-1 4-3 6l-21 22c-2 2-4 2-6 2s-4 0-6-2l-76-77-76 77c-2 2-4 2-6 2s-4 0-6-2l-21-22c-2-2-3-4-3-6s1-4 3-6l76-76-77-76c-3-3-3-9 0-12l22-22c2-2 4-2 6-2s4 0 6 2l76 76 76-76c2-2 4-2 6-2s4 0 6 2l22 22c3 3 3 9 0 12l-77 76zm86-238c9 9 13 20 13 33v256c0 27-20 49-46 49H168c-13 0-24-3-34-9-9-5-16-11-23-20l-1-1L0 256l110-148c14-19 34-28 58-28h298c13 0 24 5 33 14zm-19 289V127c0-9-5-15-14-15H168c-11 0-22 3-32 16L40 256l96 128c8 10 17 16 32 16h298c9 0 14-8 14-17z"/></svg>