<svg version="1.1" xmlns="http://www.w3.org/2000/svg" xmlns:xlink="http://www.w3.org/1999/xlink" id="beaker" viewBox="0 0 384 512"><path d="M80 192h240v224c0 9-7 16-16 16H96c-9 0-16-7-16-16V192zm216 152v-48c0-4-4-8-8-8s-8 4-8 8v48c0 4 4 8 8 8s8-4 8-8zm-8-72c4 0 8-4 8-8s-4-8-8-8-8 4-8 8 4 8 8 8zm93-240c3 0 3 2 3 3s-2 3-3 5-13 20-13 40v336c0 35-29 64-64 64H96c-35 0-64-29-64-64V109c0-32-2-33-32-37 0-12 11-40 65-40h316zm-45 48c0-5 0-16 1-16H64c-1 0-3 0-4 1 5 7 4 32 4 44v307c0 18 14 32 32 32h210c17 0 30-14 30-32V80z"/></svg>