<svg version="1.1" xmlns="http://www.w3.org/2000/svg" xmlns:xlink="http://www.w3.org/1999/xlink" id="beer" viewBox="0 0 448 512"><path d="M384 160c35 0 64 29 64 64v96c0 35-29 64-64 64h-32v80c0 9-7 16-16 16H80c-9 0-16-7-16-16V241c-26 0-48-22-48-48v-55C6 127 0 112 0 96c0-35 29-64 64-64 18 0 34 8 46 20 10-12 26-20 43-20 14 0 27 6 37 14 12-9 26-14 42-14 17 0 34 6 46 16 11-10 26-16 42-16 35 0 64 29 64 64 0 24-18 44-32 48v16h32zm-88 144c4 0 8-3 8-8v-48c0-4-4-8-8-8s-8 4-8 8v48c0 3 2 6 4 7 1 1 2 1 4 1zm7-76c1-2 1-4 1-6s-1-4-3-5-4-1-6-1-4 2-5 4-2 4-2 6 2 4 4 5 4 1 6 1 4-2 5-4zm17-68v-32h-20c-3 8-7 16-13 23-13 16-33 25-55 25-26 0-48-13-61-33-6 2-12 3-18 3-12 0-23-4-32-10-2-1-3-3-5-4-1 2-2 3-3 5-5 6-11 10-17 14v41h80c0-4 4-8 8-8s8 4 8 8h128v-32zm31-55c1-3 1-6 1-9 0-18-14-32-32-32-9 0-17 4-23 10-2 2-6 5-16 6h-8c-6-1-12-3-14-5-7-7-16-11-27-11-9 0-18 4-25 9l-7 7c0 1 0 1-1 2-3 3-7 5-11 5-5 0-8-3-11-6-1-2-2-3-3-5s-3-4-5-6c-4-4-10-6-16-6-10 0-18 9-25 16-7 8-27 8-34 0S76 64 64 64c-18 0-32 14-32 32 0 2 1 5 1 7 2 9 7 17 15 21v69c0 9 7 16 16 16v-81c10 0 18-4 24-11 2-2 3-4 4-6 0 0 6-10 12-11s20-6 30 5c4 5 11 9 19 9 3 0 5-1 7-2 3-1 7-2 9-4 3-2 6-4 10-4 7 0 12 4 14 10 0 0 1 1 1 2 1 3 1 5 3 8 7 12 20 20 35 20 13 0 25-6 32-16 5-7 8-15 8-24s9-8 9-8h55c6 0 13 3 15 9zm65 215v-96c0-18-14-32-32-32h-32v160h32c18 0 32-14 32-32zM128 168c0-5 3-8 8-8s8 3 8 8-3 8-8 8-8-3-8-8zm160 0c0-5 3-8 8-8s8 3 8 8-3 8-8 8-8-3-8-8z"/></svg>