<svg version="1.1" xmlns="http://www.w3.org/2000/svg" xmlns:xlink="http://www.w3.org/1999/xlink" id="bluetooth" viewBox="0 0 256.1778 512"><path d="M12.178 144c16-16 18-13 19-12l68 65c2 2 10 10 10 3V42c0-6 6-10 12-10 4 0 7 2 9 4s117 113 122 117 5 10 1 14l-84 81s-4 4-4 8 4 8 4 8l84 81c4 4 4 10-1 14s-122 117-122 117c-2 2-5 4-9 4-6 0-12-4-12-10V312s-8 1-10 3v1l-68 64c-1 1-3 4-19-12s-12-17-11-18 90-86 90-86 4-3 4-8-4-8-4-8-89-85-90-86-5-2 11-18zm140-24v79c0 8 8 1 10-1l30-30s3-5 3-7-1-5-3-7l-30-30c-2-2-10-11-10-4zm0 193v79s8-2 10-4l30-30c2-2 3-5 3-7s-1-5-3-7l-30-30c-2-2-10-9-10-1z"/></svg>