<svg version="1.1" xmlns="http://www.w3.org/2000/svg" xmlns:xlink="http://www.w3.org/1999/xlink" id="bonfire" viewBox="0 0 384 512"><path d="M207 351l15 89c1 3 1 5 1 8 0 18-14 32-32 32s-32-14-32-32c0-2 0-5 1-7l15-92c2-7 8-13 16-13s15 7 16 15zm35 4zm87 35c9 8 10 25 0 35s-27 9-35 0c-1-1-2-3-3-4l-49-66c-3-5-2-11 2-15 5-5 10-5 16-1l64 47c2 1 3 3 5 4zm-20-55zm62-13c9 1 13 7 13 19 0 9-10 14-18 12l-57-18c-3-2-6-5-5-9s4-7 8-6zM75 335zm0 0l-58 18c-8 2-17-3-17-12 0-12 3-18 12-19l60-2c4-1 7 2 8 6s-2 7-5 9zm49 4c5-4 11-4 16 1 4 4 5 10 2 15l-49 66c-1 1-2 3-3 4-10 10-25 10-35 0s-10-25 0-35c2-2 3-3 5-4zm164-211c0 32-9 58-50 86-37 26-94 46-110 106 0 0-58-24-48-96S204 118 192 32c24 0 96 35 96 96zm0 128c-16 50-44 64-80 64-15 0-32-9-43-26 12-15 28-26 47-37 9-5 20-10 29-16 21-14 38-31 47-49 5 15 5 48 0 64zM88 160c-6-4-9-14-8-27 2-22 34-39 32-69 14-2 31 3 42 24-5 11-15 21-28 34s-26 22-38 38z"/></svg>