<svg version="1.1" xmlns="http://www.w3.org/2000/svg" xmlns:xlink="http://www.w3.org/1999/xlink" id="bowtie" viewBox="0 0 448 512"><path d="M192 212s8-5 20-7c21-4 39-5 47 9 10 17 19 53 17 85-1 17-5 22-5 22s-15 10-47 7c-35-3-40-15-40-15s5-12 8-43 0-58 0-58zm-40 73c-17 4-38 10-38 10s45-4 64-9c-4 21-10 34-10 34s-83 80-116 80c-28 0-52-68-52-144s26-144 52-144c35 0 106 57 128 97 0 0 3 16 2 32-10-5-24-10-44-14-28-6-42-3-42-3s18 4 57 17c15 5 22 8 29 10 0 3-1 7-1 10 0 5 0 10-1 15-5 2-15 6-28 9zm244-173c26 0 52 68 52 144s-24 144-52 144c-37 0-104-68-112-79 0 0 4-5 5-22v-9c16 7 70 13 70 13s-21-6-40-11c-13-4-25-8-30-10-1-11-2-23-4-33 17-11 69-34 69-34s-15 2-35 9c-14 5-29 11-37 14-3-10-7-18-10-24 0-1-1-4-1-4v-1c22-40 89-97 125-97z"/></svg>