<svg version="1.1" xmlns="http://www.w3.org/2000/svg" xmlns:xlink="http://www.w3.org/1999/xlink" id="bug" viewBox="0 0 448 512"><path d="M343 127c-6 16-16 31-28 43-24 24-57 37-91 37s-67-13-91-37c-12-12-22-27-28-43 29-39 72-63 119-63s90 24 119 63zM95 143c22 45 68 77 121 80v225c-40-2-77-22-104-54-7 6-10 9-13 15 8 9 7 22-1 31-9 10-24 11-34 2s-11-24-2-34l3-3 2-1c4-13 13-25 27-36-15-26-26-57-29-90-7 0-12 2-17 3-1 13-11 23-24 23S0 293 0 280s11-24 24-24h3c4-2 8-5 12-6 7-2 14-4 25-4 1-23 6-45 13-65-6-4-11-7-15-11-6-5-11-13-14-19-1 0-3-1-4-2-12-6-15-21-9-33s21-15 33-9c11 6 15 20 10 31 2 3 3 7 4 8 2 2 5 3 8 5 2-3 3-5 5-8zm329 113c13 0 24 11 24 24s-11 24-24 24-23-10-24-23c-5-1-10-3-17-3-3 33-14 64-29 90 14 11 23 23 27 36 0 0 1 0 2 1l3 3c9 10 8 25-2 34s-25 8-34-2c-8-9-9-22-1-31-3-6-6-9-13-15-27 32-64 52-104 54V223c53-3 99-35 121-80 2 3 3 5 5 8 3-2 6-3 8-5 1-1 2-5 4-8-5-11-1-25 10-31 12-6 27-3 33 9s3 27-9 33c-1 1-3 2-4 2-3 6-8 14-14 19-4 4-9 7-15 11 7 20 12 42 13 65 11 0 18 2 25 4 4 1 8 4 12 6h3z"/></svg>