<svg version="1.1" xmlns="http://www.w3.org/2000/svg" xmlns:xlink="http://www.w3.org/1999/xlink" id="cash" viewBox="0 0 512 512"><path d="M0 96h512v256H0V96zm193 224c-20-23-33-58-33-96s13-73 33-96H96c0 35-29 64-64 64v80c27 0 48 21 48 48h113zm105-59c3-4 4-9 4-15 0-3 0-5-1-8s-2-6-4-8-4-4-7-6-6-4-10-5c-1 0-4-1-7-2s-5 0-8-1v-31c2 1 5 2 7 3 4 3 6 7 7 13h20c0-5-2-9-4-13s-5-8-9-11-9-5-14-6c-2-1-5-2-7-2v-9h-18v9c-2 0-4 1-6 2-5 1-10 2-14 5s-7 6-9 10-4 9-4 14c0 3 0 5 1 8s2 5 4 7 5 5 8 7 7 4 12 5c3 1 6 0 8 1v35c-3-1-6-2-9-4s-5-4-6-7-2-6-2-9h-20c0 5 2 11 4 16 3 5 6 8 10 11s9 6 15 7c3 1 5 2 8 2v9h18v-9c3 0 6-1 9-2 5-1 10-2 14-5s7-7 10-11zm182 11v-80c-35 0-64-29-64-64h-97c20 23 33 58 33 96s-13 73-33 96h113c0-27 22-48 48-48zM64 224c0-21 11-32 32-32s32 11 32 32-11 32-32 32-32-11-32-32zm320 0c0-21 11-32 32-32s32 11 32 32-11 32-32 32-32-11-32-32zm-111 11c2 1 4 2 6 4s3 5 3 9c0 2 0 4-1 6s-2 4-4 5-5 3-8 4c-1 0-2 1-4 1v-31c3 1 6 1 8 2zm-37-44c1-2 3-3 5-4s4-2 6-2v26c-4-1-7-3-9-5s-4-4-4-8c0-3 1-5 2-7zM0 416v-32h512v32H0z"/></svg>