<svg version="1.1" xmlns="http://www.w3.org/2000/svg" xmlns:xlink="http://www.w3.org/1999/xlink" id="chatbubble-working" viewBox="0 0 416 512"><path d="M208 449C93 449 0 360 0 249S93 48 208 48s208 90 208 201c0 40-12 77-33 108-1 1-2 3-3 4-2 4-4 10-4 15l22 88-84-31c-4-2-8-2-12-2s-7 1-11 2c-1 0-1 1-2 1-25 10-52 15-81 15zm96-225c-18 0-32 14-32 32s14 32 32 32 32-14 32-32-14-32-32-32zm-96 0c-18 0-32 14-32 32s14 32 32 32 32-14 32-32-14-32-32-32zm-96 0c-18 0-32 14-32 32s14 32 32 32 32-14 32-32-14-32-32-32z"/></svg>