<svg version="1.1" xmlns="http://www.w3.org/2000/svg" xmlns:xlink="http://www.w3.org/1999/xlink" id="chatbubbles" viewBox="0 0 416 512"><path d="M25 391c-1-1 0-2-1-3-15-22-24-49-24-77 0-42 19-80 49-106-2 11-4 22-4 34 0 92 78 168 174 168 15 0 30-2 44-6-27 32-69 53-115 53-20 0-40-5-58-12h-1c-2-1-5-2-8-2s-6 1-9 2l-56 22 12-63c0-4-1-7-3-10zM242 48c96 0 174 76 174 168 0 33-11 64-28 90-1 1-1 2-2 3-2 4-3 8-3 12l17 74-69-26c-3-1-6-2-10-2-3 0-6 1-9 2l-2 1c-8 3-16 5-24 7-14 4-29 6-44 6-96 0-173-75-173-167 0-12 1-24 3-35 16-76 86-133 170-133z"/></svg>