<svg version="1.1" xmlns="http://www.w3.org/2000/svg" xmlns:xlink="http://www.w3.org/1999/xlink" id="clipboard" viewBox="0 0 352 512"><path d="M80 160c2-20 10-35 28-40l1-1c12-3 21-7 21-20V78c0-26 21-46 46-46s46 20 46 46v21c0 13 9 18 21 21h2c18 5 25 20 27 40H80zm96-96c-8 0-13 6-13 14s5 14 13 14 14-6 14-14-6-14-14-14zm149 0c15 0 27 12 27 28v360c0 16-12 28-27 28H28c-15 0-28-12-28-28V92c0-16 13-28 28-28h73v13c0 11-9 19-19 19H45c-7 0-12 6-12 13v327c0 6 5 12 11 12h265c6 0 11-6 11-12V109c0-7-5-13-12-13h-37c-10 0-20-8-20-19V64h74zM64 224v-32h112v32H64zm0 192v-32h160v32H64zm0-64v-32h129v32H64zm0-64v-32h208v32H64z"/></svg>