<svg version="1.1" xmlns="http://www.w3.org/2000/svg" xmlns:xlink="http://www.w3.org/1999/xlink" id="clock" viewBox="0 0 448 512"><path d="M224 32c124 0 224 100 224 224S348 480 224 480 0 380 0 256 100 32 224 32zm136 360c10-10 19-21 26-33l-27-16 8-14 27 16c13-25 21-52 22-81h-32v-16h32c-1-29-9-56-22-81l-27 16-8-14 27-16c-7-12-16-23-26-33s-21-19-33-26l-16 27-14-8 16-27c-25-13-52-21-81-22v32h-16V64c-29 1-56 9-81 22l16 27-14 8-16-27c-12 7-23 16-33 26s-19 21-26 33l27 16-8 14-27-16c-13 25-21 52-22 81h32v16H32c1 29 9 56 22 81l27-16 8 14-27 16c7 12 16 23 26 33s21 19 33 26l16-27 14 8-16 27c25 13 52 21 81 22v-32h16v32c29-1 56-9 81-22l-16-27 14-8 16 27c12-7 23-16 33-26zm8-151v32H251c-6 9-16 15-27 15-18 0-32-14-32-32 0-12 6-22 16-28v-68h32v68c5 3 9 8 12 13h116z"/></svg>