<svg version="1.1" xmlns="http://www.w3.org/2000/svg" xmlns:xlink="http://www.w3.org/1999/xlink" id="closed-captioning" viewBox="0 0 512 512"><path d="M0 64h512v384H0V64zm464 192c0-27 0-44-4-80s-23-56-59-60-91-4-138-4h-14c-47 0-102 0-138 4s-55 24-59 60-4 53-4 80 2 47 4 80 19 56 59 60 96 4 145 4 105 0 145-4 57-27 59-60 4-53 4-80zm-92 28v-4h53c0 27-7 48-19 62s-32 21-61 21c-14 0-26-2-36-5s-18-9-25-17-12-19-15-33-5-30-5-51 3-39 7-53 9-25 17-33 17-14 27-17 22-5 34-5c25 0 44 7 57 21s19 37 19 62h-52v-1c0-20-12-33-27-33s-25 11-28 30c0 0-2 11-2 29s2 28 2 28c1 17 12 29 27 29s27-10 27-29v-1zm-177 0v-4h53c0 27-7 48-19 62s-32 21-61 21c-14 0-26-2-36-5s-18-9-25-17-12-19-15-33-5-30-5-51 3-39 7-53 9-25 17-33 17-14 27-17 22-5 34-5c25 0 44 7 57 21s19 37 19 62h-52v-1c0-20-12-33-27-33s-25 11-28 30c0 0-2 11-2 29s2 28 2 28c1 17 12 29 27 29s27-10 27-29v-1z"/></svg>