<svg version="1.1" xmlns="http://www.w3.org/2000/svg" xmlns:xlink="http://www.w3.org/1999/xlink" id="code-working" viewBox="0 0 448 512"><path d="M128 256c0-16 8-24 24-24s24 8 24 24-8 24-24 24-24-8-24-24zm72 0c0-16 8-24 24-24s24 8 24 24-8 24-24 24-24-8-24-24zm72 0c0-16 8-24 24-24s24 8 24 24-8 24-24 24-24-8-24-24zM136 392c-7 0-12-2-17-7L7 273c-5-5-7-10-7-17s2-12 7-17l112-112c5-5 10-7 17-7s12 2 17 7 7 10 7 17-2 12-7 17l-95 95 95 95c5 5 7 10 7 17s-2 12-7 17-10 7-17 7zm176 0c-7 0-12-2-17-7s-7-10-7-17 2-12 7-17l95-95-95-95c-5-5-7-10-7-17s2-12 7-17 10-7 17-7 12 2 17 7l112 112c5 5 7 10 7 17s-2 12-7 17L329 385c-5 5-10 7-17 7z"/></svg>