<svg version="1.1" xmlns="http://www.w3.org/2000/svg" xmlns:xlink="http://www.w3.org/1999/xlink" id="code-download" viewBox="0 0 448 512"><path d="M299 284l-63 63-1 1-2 1-1 1-2 1h-2c-1 0-3 1-4 1s-3-1-4-1h-2l-2-1-1-1c-1-1-2-1-3-2l-63-63c-6-6-6-17 0-23s18-6 24 0l35 34V177c0-9 7-17 16-17s16 8 16 17v118l35-34c6-6 18-6 24 0s6 17 0 23zM136 392c-6 0-12-2-17-7L7 273c-9-9-9-25 0-34l112-112c9-9 25-9 34 0s9 25 0 34l-95 95 95 95c9 9 9 25 0 34-5 5-11 7-17 7zm176 0c-6 0-12-2-17-7-9-9-9-25 0-34l95-95-95-95c-9-9-9-25 0-34s25-9 34 0l112 112c9 9 9 25 0 34L329 385c-5 5-11 7-17 7z"/></svg>