<svg version="1.1" xmlns="http://www.w3.org/2000/svg" xmlns:xlink="http://www.w3.org/1999/xlink" id="coffee" viewBox="0 0 384 512"><path d="M319 257c37 7 65 40 65 79 0 20-8 39-21 54-15 17-37 26-61 26-8 0-17-1-25-3-6-1-10-3-15-5-11 15-23 25-32 33-5 5-12 7-19 7H109c-7 0-14-2-19-7-17-15-41-36-62-86S0 264 0 244s3-20 16-20h101c-5-17-37-19-37-46 0-17 15-32 28-37-2 8-3 14-3 21 0 19 39 30 39 53 0 3 0 6-1 9h56c1-5 2-10 2-14 0-36-56-36-56-84 0-28 21-55 47-62-4 14-9 23-9 35 0 32 57 50 57 88 0 13-5 25-12 37h76c13 0 16 0 16 20 0 4 0 8-1 13zm-17 127c33 0 50-25 50-48s-17-43-39-47c-4 19-11 42-21 66-4 9-8 17-12 25 6 3 13 4 22 4z"/></svg>