<svg version="1.1" xmlns="http://www.w3.org/2000/svg" xmlns:xlink="http://www.w3.org/1999/xlink" id="compass" viewBox="0 0 448 512"><path d="M224 32c124 0 224 100 224 224S348 480 224 480 0 380 0 256c0-39 10-76 27-108-16-12-27-30-27-52 0-35 29-64 64-64 22 0 40 11 52 27 32-17 69-27 108-27zM32 96c0 10 5 20 13 26 13-17 28-32 45-45-6-8-16-13-26-13-18 0-32 14-32 32zm328 296c36-36 56-85 56-136s-20-100-56-136-85-56-136-56-100 20-136 56-56 85-56 136 20 100 56 136 85 56 136 56 100-20 136-56zm-40-264s-54 130-72 152-120 104-120 104 54-132 72-152 120-104 120-104z"/></svg>