<svg version="1.1" xmlns="http://www.w3.org/2000/svg" xmlns:xlink="http://www.w3.org/1999/xlink" id="cube" viewBox="0 0 448 512"><path d="M435 168c7 0 13 6 13 12v183c0 9-6 17-14 22v1l-175 92v1c-2 1-4 1-6 1-7 0-13-6-13-12V283c0-9 5-17 13-22l3-2 172-89 2-1c2-1 3-1 5-1zm-13-49s8 3 8 9c0 7-8 11-8 11l-183 97-2 1c-4 2-8 3-13 3s-9-1-13-3l-2-1-183-96s-8-5-8-12c0-6 8-9 8-9l181-82s11-5 17-5 17 5 17 5zM195 261c8 5 13 13 13 22v185c0 6-6 12-13 12-2 0-4-1-6-2L14 386v-1c-8-5-14-13-14-22V180c0-6 6-12 13-12 2 0 4 0 5 1l2 1 171 89z"/></svg>