<svg version="1.1" xmlns="http://www.w3.org/2000/svg" xmlns:xlink="http://www.w3.org/1999/xlink" id="earth" viewBox="0 0 448 512"><path d="M325 126c2 4 7 12 3 15-3 2-10 2-13-5s0-11-5-9-7-3-6-4c1-2 3-3 5-4 0-2-4-8 2-7 4 1 12 10 14 14zm19 45zm59 26s-2 0 0 0zM224 32c124 0 224 100 224 224S348 480 224 480 0 380 0 256 100 32 224 32zm-83 397l8 4c3 1 6 2 10 3 14 5 28 8 43 10 28 3 56 1 83-8 15-5 30-11 43-20 6-4 6-16 10-24 8-16-2-33 12-47 12-14 4-19 4-34 0-10 8-18 4-29-1-4-7 3-9-1-5-7-21-1-28-2-13-2-24-14-33-23-5-5 0-20 1-26 4-15 0-33 19-38 5-1 5-9 10-11 5-1 10-3 15-4 9-1 17 2 26 2 10 0 14 5 22 11 7 6 13 3 22 5 7 0 0-5-2-8-3-2-6-2-8-2-16-4-23-22-36-30-6-3-9-2-11 0-1 1 1 12 1 12-1 3-10 4-13 5-9 2-29-17-15-22 4-1 27-5 24-15-3-6 2-13-5-14-8-1-7-7-15-8-5-1-5-11-5-14 0-9 2-6 9-7-17-11-37-19-57-24-1 3-5 12-8 12-5 1-6 0-9 3-9 10-16 28-25 7-4-11 5-19 2-28h-9c6 12-5 18-8 19-8 0-10-5-17-4-4 1-7-4-11-2s-13 8-14 12c-3 12 6 13 14 6 6-6 17-12 25-6 6 5 5 9 5 14s-1 18-9 16c-4-1-7-6-11-3-8 7-18 6-29 9-10 2-16 6-25 9-8 3-11 4-12 12 0 2 0 14-3 15-5 2-8-22-22-20-12 1-30 13-25 28 2 5 28 3 10 14-2 1 2 17 2 20 1 8 13 18 21 10 6-6 6-5 14-2 15 8 33 15 45 27 6 6 9 24 17 28 9 5 19 5 26 14 6 7-2 19-8 23-4 2-12 24-16 29-2 4-12 6-16 7-3 0-7 9-9 11-7 7-8 13-17 19-18 12-22 23-18 44 2 8 5 13 11 16zm-41-27l2 2c7 6 15 11 23 16-21-21-23-49-21-78l3-24c1-3-4-7-4-11 0-10 0-5-8-13-4-4-10-11-12-17-7-16 1-30 10-43 9-14-7-20-10-32-1-6-7-6-6-12 1-7-4-5-9-9-12-8-1-20-7-26-43 70-36 162 16 224 1 1 0 1 1 2h1c3 4 6 8 9 11s7 6 10 9z"/></svg>