<svg version="1.1" xmlns="http://www.w3.org/2000/svg" xmlns:xlink="http://www.w3.org/1999/xlink" id="email-unread" viewBox="0 0 480 512"><path d="M352 160c0-43 21-64 64-64s64 21 64 64-21 64-64 64-64-21-64-64zm-143 0h127c0 17 5 33 15 47-6 3-14 8-22 12s-16 8-23 12-14 8-22 12-15 8-21 11-11 6-16 9-9 5-12 7-4 3-5 3c-6 3-13 4-21 4s-15-1-21-4c-1-1-15-8-42-23s-54-29-81-44-43-23-46-25c-7-4-12-8-13-11-1-4-1-6 1-8s6-2 11-2h191zm68 113c18-11 45-30 83-56 16 15 34 23 56 23v155c0 2-1 4-2 7s-3 5-5 7-4 4-7 5-6 2-8 2H24c-5 0-11-2-16-7s-8-9-8-14V190c0-6 3-8 9-5 2 1 11 7 26 17s32 22 53 36 39 26 53 35l-83 93c-2 2-2 4-1 5 2 1 4 1 6-1l98-83c16 10 25 16 27 17 6 3 13 4 21 4s15-1 21-4c2-1 11-7 27-17l98 83c2 2 5 2 6 1s0-3-2-5z"/></svg>