<svg version="1.1" xmlns="http://www.w3.org/2000/svg" xmlns:xlink="http://www.w3.org/1999/xlink" id="erlenmeyer-flask" viewBox="0 0 384 512"><path d="M375 396c6 9 9 20 9 32 0 28-16 52-63 52H63c-47 0-63-24-63-52 0-12 3-23 9-32l49-73 49-77c13-20 21-44 21-70V84s-14-34-16-43c-2-8 1-9 17-9h126c16 0 18 1 16 9-2 9-15 22-15 42v93c0 26 6 50 19 70zm-30 45c3-3 7-8 7-14 0-5-2-10-4-14L247 263c-16-26-23-56-23-87V64h-64v112c0 32-9 62-25 87L36 413c-2 4-4 9-4 14 0 6 3 11 6 14 4 4 12 7 25 7h258c13 0 20-3 24-7zm-20-30c1 2 3 6 3 8 0 7-6 15-14 15H70c-7 0-14-6-14-14 0-3 1-6 3-8l81-124h103l82 124v-1zm-87-69c2 1 4 2 6 2s3 0 5-2c1-2 3-4 3-6s-1-4-3-6c-1-2-3-2-5-2s-4 0-6 2c-1 2-2 4-2 6s0 4 2 6zm47 59c4-2 4-7 2-11l-23-36c-1-2-4-4-7-4-2 0-3 0-4 1-4 2-4 7-2 11l23 36c1 2 5 4 7 4 1 0 3 0 4-1z"/></svg>