<svg version="1.1" xmlns="http://www.w3.org/2000/svg" xmlns:xlink="http://www.w3.org/1999/xlink" id="eye-disabled" viewBox="0 0 448 512"><path d="M344 158c41 27 76 66 104 100-51 54-124 135-224 135-36 0-65-8-92-22l-77 77-23-23 71-71c-36-25-68-61-103-98 78-85 142-137 224-137 34 0 64 9 92 23l77-78 23 23zm-210 98c0 19 6 36 16 51l27-27c-4-7-5-15-5-24 0-29 23-53 52-53h8c-5 6-8 13-8 21 0 3 0 5 1 8l51-50c-15-11-33-17-52-17-49 0-90 41-90 91zm90 91c49 0 90-41 90-91 0-19-6-37-16-52l-50 51c3 1 5 1 8 1 8 0 14-3 20-7v7c0 29-23 53-52 53-9 0-17-2-24-6l-28 27c15 11 33 17 52 17z"/></svg>