<svg version="1.1" xmlns="http://www.w3.org/2000/svg" xmlns:xlink="http://www.w3.org/1999/xlink" id="flash-off" viewBox="0 0 448 512"><path d="M115 452C46 414 0 340 0 256 0 132 100 32 224 32c24 0 47 4 68 11 2 1 3 1 5 2 12 4 24 9 35 15 69 38 116 112 116 196 0 124-100 224-224 224-24 0-47-4-68-11-2-1-3-1-5-2-12-4-24-8-35-14zM86 157c-20 28-32 62-32 99 0 65 36 121 90 150 6 3 13 7 19 9 2 1 3 1 5 2 9 3 19 5 29 7 9 2 18 2 27 2 37 0 71-12 99-32l-52-53 36-40 55 54c20-28 32-62 32-99 0-66-37-123-91-151-6-3-12-6-18-8-2-1-3-1-5-2-9-3-19-5-29-7-9-2-18-2-27-2-37 0-72 12-100 32l53 52-36 41zm92 233l38-113h-85l139-155-38 113h85z"/></svg>