<svg version="1.1" xmlns="http://www.w3.org/2000/svg" xmlns:xlink="http://www.w3.org/1999/xlink" id="fork-repo" viewBox="0 0 320 512"><path d="M320 80v64h-48v48h-64v-48h-48V80h48V32h64v48h48zM208 240h64v5c0 43-7 70-38 95-23 19-51 20-75 22-9 1-18 2-26 3-6 1-13 5-20 10 9 11 15 25 15 41 0 35-29 64-64 64S0 451 0 416c0-24 13-44 32-55V151C13 140 0 120 0 96c0-35 29-64 64-64s64 29 64 64c0 24-13 44-32 55v160c8-4 18-7 27-9 11-2 21-2 31-3 17-1 33-3 40-9 10-8 14-11 14-50zM64 64c-18 0-32 14-32 32s14 32 32 32 32-14 32-32-14-32-32-32zm0 384c18 0 32-14 32-32s-14-32-32-32-32 14-32 32 14 32 32 32z"/></svg>