<svg version="1.1" xmlns="http://www.w3.org/2000/svg" xmlns:xlink="http://www.w3.org/1999/xlink" id="gear-a" viewBox="0 0 384 512"><path d="M347 256c0 24 15 43 37 56-4 13-10 26-16 38-25-6-45 3-62 20s-22 37-16 62c-12 6-25 12-38 16-13-22-36-37-60-37s-47 15-60 37c-13-4-27-10-39-16 6-25 2-45-15-62s-37-21-62-15c-6-12-12-26-16-39 22-13 37-36 37-60s-15-43-37-56c4-13 9-26 16-38 25 6 45-3 62-20s21-37 15-62c12-6 26-12 39-16 13 22 36 37 60 37s47-15 60-37c13 4 27 10 39 16-6 25-2 45 15 62s37 26 62 20c6 12 12 25 16 38-22 13-37 32-37 56zm-155 98c54 0 98-44 98-98s-44-98-98-98-98 44-98 98 44 98 98 98z"/></svg>