<svg version="1.1" xmlns="http://www.w3.org/2000/svg" xmlns:xlink="http://www.w3.org/1999/xlink" id="grid" viewBox="0 0 320 512"><path d="M64 153c0 4-3 7-7 7H7c-4 0-7-3-7-7v-50c0-4 3-7 7-7h50c4 0 7 3 7 7v50zm128 0c0 4-3 7-7 7h-50c-4 0-7-3-7-7v-50c0-4 3-7 7-7h50c4 0 7 3 7 7v50zm128 0c0 4-3 7-7 7h-50c-4 0-7-3-7-7v-50c0-4 3-7 7-7h50c4 0 7 3 7 7v50zM64 281c0 4-3 7-7 7H7c-4 0-7-3-7-7v-50c0-4 3-7 7-7h50c4 0 7 3 7 7v50zm128 0c0 4-3 7-7 7h-50c-4 0-7-3-7-7v-50c0-4 3-7 7-7h50c4 0 7 3 7 7v50zm128 0c0 4-3 7-7 7h-50c-4 0-7-3-7-7v-50c0-4 3-7 7-7h50c4 0 7 3 7 7v50zM64 409c0 4-3 7-7 7H7c-4 0-7-3-7-7v-50c0-4 3-7 7-7h50c4 0 7 3 7 7v50zm128 0c0 4-3 7-7 7h-50c-4 0-7-3-7-7v-50c0-4 3-7 7-7h50c4 0 7 3 7 7v50zm128 0c0 4-3 7-7 7h-50c-4 0-7-3-7-7v-50c0-4 3-7 7-7h50c4 0 7 3 7 7v50z"/></svg>