<svg version="1.1" xmlns="http://www.w3.org/2000/svg" xmlns:xlink="http://www.w3.org/1999/xlink" id="happy-outline" viewBox="0 0 448 512"><path d="M355 290c8 4 11 13 7 21-24 46-78 73-138 73-62 0-118-29-139-74-4-8 0-17 8-21 2-1 5-1 7-1 6 0 11 3 14 9 16 34 60 55 110 55 49 0 92-21 110-56 3-5 8-8 14-8 3 0 5 1 7 2zm26-59c5 7 4 17-4 22-3 2-6 3-10 3-5 0-11-2-14-6s-7-10-17-10-14 6-17 10-9 6-14 6c-4 0-7-1-10-3-8-6-9-15-3-22 11-14 23-23 44-23s35 9 45 23zm-224 0c5 7 4 17-4 22-3 2-6 3-10 3-5 0-11-2-14-6s-7-10-17-10-14 6-17 10-9 6-14 6c-4 0-7-1-10-3-8-6-9-15-3-22 11-14 23-23 44-23s35 9 45 23zm67-199c124 0 224 100 224 224S348 480 224 480 0 380 0 256 100 32 224 32zm136 360c36-36 56-85 56-136s-20-100-56-136-85-56-136-56-100 20-136 56-56 85-56 136 20 100 56 136 85 56 136 56 100-20 136-56z"/></svg>