<svg version="1.1" xmlns="http://www.w3.org/2000/svg" xmlns:xlink="http://www.w3.org/1999/xlink" id="happy" viewBox="0 0 448 512"><path d="M224 32c124 0 224 100 224 224S348 480 224 480 0 380 0 256 100 32 224 32zM71 253c3 2 6 3 10 3 5 0 11-2 14-6s7-10 17-10 14 6 17 10 9 6 14 6c4 0 7-1 10-3 8-5 9-15 4-22-10-14-24-23-45-23s-33 9-44 23c-6 7-5 16 3 22zm291 58c4-8 1-17-7-21-2-1-4-2-7-2-6 0-11 3-14 8-18 35-61 56-110 56-50 0-94-21-110-55-3-6-8-9-14-9-2 0-5 0-7 1-8 4-12 13-8 21 21 45 77 74 139 74 60 0 114-27 138-73zm15-58c8-5 9-15 4-22-10-14-24-23-45-23s-33 9-44 23c-6 7-5 16 3 22 3 2 6 3 10 3 5 0 11-2 14-6s7-10 17-10 14 6 17 10 9 6 14 6c4 0 7-1 10-3z"/></svg>