<svg version="1.1" xmlns="http://www.w3.org/2000/svg" xmlns:xlink="http://www.w3.org/1999/xlink" id="headphone" viewBox="0 0 384 512"><path d="M383 238c3 51-3 130-13 162-20 67-40 80-72 80s-58-27-58-59V315c0-33 23-59 53-59 18 0 34 9 44 24 0 0 11-7 13-22s4-34-5-64-21-19-36-38c-2-3-5-7-8-10l-10-10c-2-2-3-3-5-4-11-9-21-17-34-23-19-9-39-13-60-13s-42 4-61 13c-13 6-22 14-33 23-2 1-3 2-5 4l-10 10s-6 7-8 10c-15 19-27 8-36 38-9 31-7 49-5 64s13 22 13 22c10-15 26-24 44-24 30 0 53 27 53 59v106c0 32-26 59-58 59s-52-13-72-80C4 368-2 289 1 238c3-60 22-108 56-145 8-8 15-16 24-23s19-13 29-18c25-13 53-20 82-20s57 7 82 20c10 5 19 11 28 18s17 15 25 23c34 37 53 85 56 145z"/></svg>