<svg version="1.1" xmlns="http://www.w3.org/2000/svg" xmlns:xlink="http://www.w3.org/1999/xlink" id="heart-broken" viewBox="0 0 416.5 512"><path d="M181 288c0 36-2 71 4 107 2 10 2 20 2 31L34 267c-45-47-45-124 0-171 40-41 103-43 144-3-2 15-3 31-3 46-18 14-40 21-56 39l11-7c17-11 15-8 35-14 3-1 8-3 11-5 0 1-1 5-1 6 1 20 11 39 15 60 0 5 1 10-1 15-8 17-7 37-8 55zm93 13c8 18 23 29 38 39L208 448l-17-18c0-13-4-26-4-38-2-48 10-94 21-142 1 1 2 1 3 1 30 6 52 24 63 50zM382 96c46 47 46 124 0 171l-68 70c-28-24-42-54-65-81-12-13-26-23-41-32-3-13-8-26-11-39-3-12 14-21 16-31 3-12 3-26 3-39l19-19c40-42 107-42 147 0z"/></svg>