<svg version="1.1" xmlns="http://www.w3.org/2000/svg" xmlns:xlink="http://www.w3.org/1999/xlink" id="help" viewBox="0 0 256 512"><path d="M217 77c25 19 39 46 39 83 0 22-8 42-19 57-7 9-21 21-40 36l-21 14c-10 8-17 18-20 28-2 6-3 19-3 29 0 2-1 6-7 6H84c-7 0-7-3-7-5 1-26 4-49 15-66 15-23 57-48 57-48 6-5 11-9 15-15 7-10 12-21 12-32 0-13-3-26-11-36-10-12-21-18-41-18s-32 11-40 24-7 29-7 43H0c0-54 14-88 44-108 20-14 45-20 75-20 39 0 70 7 98 28zM114 370c27 1 47 20 46 48s-22 46-49 45c-26-1-46-19-45-47s22-47 48-46z"/></svg>