<svg version="1.1" xmlns="http://www.w3.org/2000/svg" xmlns:xlink="http://www.w3.org/1999/xlink" id="help-buoy" viewBox="0 0 448 512"><path d="M224 32c124 0 224 100 224 224S348 480 224 480 0 380 0 256 100 32 224 32zm178 152c-10-24-23-45-42-64s-41-32-65-42l-19 61c14 6 27 15 38 26s21 24 27 38zM224 352c53 0 96-43 96-96s-43-96-96-96-96 43-96 96 43 96 96 96zM88 120c-19 19-32 41-42 65l61 19c6-14 15-27 26-38s24-21 38-27l-19-61c-24 10-45 23-64 42zM46 328c10 24 23 45 42 64s41 32 65 42l19-61c-14-6-27-15-38-26s-21-24-27-38zm314 64c19-19 32-41 42-65l-61-19c-6 14-15 27-26 38s-24 21-38 27l19 61c24-10 45-23 64-42z"/></svg>