<svg version="1.1" xmlns="http://www.w3.org/2000/svg" xmlns:xlink="http://www.w3.org/1999/xlink" id="help-circled" viewBox="0 0 448 512"><path d="M224 32c124 0 224 100 224 224S348 480 224 480 0 380 0 256 100 32 224 32zm20 327c1-18-12-31-29-31-16 0-30 11-30 29s12 30 28 30c17 0 31-10 31-28zm49-128c7-10 12-22 12-36 0-23-9-40-25-52-17-13-37-18-62-18-19 0-34 4-47 13-19 13-28 34-28 68h49c0-9-1-19 4-27s13-15 26-15 19 3 25 11c5 7 8 15 8 23 0 7-4 14-8 20-2 4-6 7-10 10 0 0-26 15-35 30-7 11-9 24-10 41 0 1 0 4 4 4h39s5-3 5-4c0-6 1-15 2-19 2-7 6-12 12-17l14-9c12-9 21-17 25-23z"/></svg>