<svg version="1.1" xmlns="http://www.w3.org/2000/svg" xmlns:xlink="http://www.w3.org/1999/xlink" id="images" viewBox="0 0 448.1532 512"><path d="M426.084 140c13 1 23 12 22 24l-14 263c-1 13-12 22-25 21l-330-16c-13-1-23-10-22-23l2-46-15 1c-12 1-22-7-23-18l-21-236c-1-11 7-21 19-22l296-24c12-1 22 7 23 18l5 54zm-355 6c1-12 11-22 24-22l219 11-2-31h-1v-1c-1-5-5-8-10-8l-261 22c-5 0-10 4-10 9v1l16 178 18-25zm334 236l10-198v-1c0-6-5-10-11-10l-58-3-29-2-204-9c-6 0-11 4-12 9v1l-3 63-7 128v7l6-7 102-109c4-4 8-6 14-6s11 3 14 7l43 49 3 3c2 2 6 4 10 4s5-1 9-3l17-12c4-3 7-4 11-4s9 2 11 5l27 33zm-64-120c-20 0-35-15-35-35s16-35 35-35c20 0 35 16 35 35s-16 35-35 35z"/></svg>