<svg version="1.1" xmlns="http://www.w3.org/2000/svg" xmlns:xlink="http://www.w3.org/1999/xlink" id="ionic" viewBox="0 0 416 512"><path d="M376 133c25 34 40 77 40 123 0 115-93 208-208 208S0 371 0 256 93 48 208 48c46 0 89 15 123 40 5-3 11-5 18-5 18 0 32 14 32 32 0 7-2 13-5 18zm-32 259c18-18 31-38 41-61 10-24 15-49 15-75s-5-51-15-75c-6-13-13-26-21-38-4 2-10 4-15 4-18 0-32-14-32-32 0-5 2-11 4-15-12-8-25-15-38-21-24-10-49-15-75-15s-51 5-75 15c-23 10-43 23-61 41s-31 38-41 61c-10 24-15 49-15 75s5 51 15 75c10 23 23 43 41 61s38 31 61 41c24 10 49 15 75 15s51-5 75-15c23-10 43-23 61-41zM112 256c0-64 32-96 96-96s96 32 96 96-32 96-96 96-96-32-96-96z"/></svg>