<svg version="1.1" xmlns="http://www.w3.org/2000/svg" xmlns:xlink="http://www.w3.org/1999/xlink" id="ios-game-controller-b-outline" viewBox="0 0 448 512"><path d="M276 204c11 0 20 9 20 20s-9 20-20 20-20-9-20-20 9-20 20-20zm44 44c11 0 20 9 20 20s-9 20-20 20-20-9-20-20 9-20 20-20zm-217-64c22 0 39 18 39 40s-17 40-39 40-39-18-39-40 17-40 39-40zm0 59c11 0 19-8 19-19s-8-19-19-19-19 8-19 19 8 19 19 19zm217-83c11 0 20 9 20 20s-9 20-20 20-20-9-20-20 9-20 20-20zm44 44c11 0 20 9 20 20s-9 20-20 20-20-9-20-20 9-20 20-20zm70 45c21 88 18 152-7 164-4 2-9 3-13 3-22 0-45-24-68-52-26-32-32-33-110-33h-24c-78 0-84 1-110 33-23 28-46 52-68 52-4 0-9-1-13-3-25-12-28-76-7-164s43-136 88-149c10-3 18-4 26-4 28 0 47 15 96 15s68-15 96-15c8 0 16 1 26 4 45 13 67 61 88 149zm-14 150c10-5 23-48-1-146-21-90-43-128-78-138-8-2-14-3-21-3-10 0-19 2-30 5-16 4-36 10-66 10s-50-6-66-10c-11-3-20-5-30-5-7 0-13 1-21 3-35 10-57 48-78 138-24 98-11 141-1 146 2 1 4 1 6 1 6 0 14-4 23-12s19-18 32-34 24-28 44-34c17-5 38-5 79-5h24c41 0 62 0 79 5 20 6 31 18 44 34s23 26 32 34 17 12 23 12c2 0 4 0 6-1z"/></svg>