<svg version="1.1" xmlns="http://www.w3.org/2000/svg" xmlns:xlink="http://www.w3.org/1999/xlink" id="ios-reverse-camera" viewBox="0 0 384 512"><path d="M354 160c18 0 30 14 30 31v176c0 17-12 33-30 33H34c-18 0-34-16-34-33V191c0-17 16-31 34-31h13v-16h34v16h13c32-36 43-48 55-48h88c12 0 23 12 55 48h62zM249 331l2-2-11-12-2 2c-13 11-29 17-46 17-36 0-66-29-71-62h31l-39-50-38 50h30c5 42 42 78 87 78 21 0 41-7 57-21zm22-24l38-51h-30c-2-20-11-43-27-57-16-15-38-23-60-23-21 0-41 7-57 21l-2 2 11 12 2-2c13-11 29-17 46-17 36 0 66 29 71 64h-31z"/></svg>