<svg version="1.1" xmlns="http://www.w3.org/2000/svg" xmlns:xlink="http://www.w3.org/1999/xlink" id="ios-flask" viewBox="0 0 384 512"><path d="M327 383c5 8 8 18 8 24 0 8-3 14-7 18-5 4-13 7-23 7H79c-11 0-20-2-24-6-1-1-6-5-6-18 0-6 4-17 9-25l67-111h135l67 111zm46-13c8 16 11 32 11 46-1 36-27 64-63 64H65c-36 0-64-27-65-64 0-14 4-30 12-46l116-195V48h-16V32h160v16h-16v127zM144 64v16h48V64h-48zm0 48v16h32v-16h-32zm0 48v16h48v-16h-48zm-17 48l-9 16h58v-16h-49zm224 200c0-9-3-22-10-33l-72-119H115L44 375c-7 11-11 24-11 33 0 28 16 40 46 40h226c30 0 45-16 46-40z"/></svg>