<svg version="1.1" xmlns="http://www.w3.org/2000/svg" xmlns:xlink="http://www.w3.org/1999/xlink" id="ios-infinite-outline" viewBox="0 0 448 512"><path d="M419 188c19 19 29 43 29 68s-10 49-29 68c-19 18-44 28-70 28s-50-10-69-28L154 201c-15-15-35-22-56-22s-40 7-55 22c-31 30-31 80 0 110 15 15 34 22 55 22s41-7 56-22l43-42 13 14-42 41c-19 18-44 28-70 28s-50-10-69-28c-19-19-29-43-29-68s10-49 29-68c19-18 43-28 69-28s51 10 70 28l126 123c15 15 34 22 55 22s41-7 56-22c31-30 31-80 0-110-15-15-35-22-56-22s-40 7-55 22l-43 42-13-14 42-41c19-18 44-28 70-28s50 10 69 28z"/></svg>