<svg version="1.1" xmlns="http://www.w3.org/2000/svg" xmlns:xlink="http://www.w3.org/1999/xlink" id="ios-camera" viewBox="0 0 384 512"><path d="M354 160c18 0 30 13 30 31v176c0 18-12 33-30 33H34c-18 0-34-15-34-33V191c0-18 16-31 34-31h13v-16h34v16h13c32-36 43-48 55-48h88c12 0 23 12 55 48h62zM192 360c47 0 86-38 86-85s-39-85-86-85-86 38-86 85 39 85 86 85zm113-151v-17h-17v17h17zm-113-3c38 0 70 31 70 69s-32 69-70 69-70-31-70-69 32-69 70-69zm0 101c18 0 32-14 32-32s-14-32-32-32-32 14-32 32 14 32 32 32z"/></svg>