<svg version="1.1" xmlns="http://www.w3.org/2000/svg" xmlns:xlink="http://www.w3.org/1999/xlink" id="ios-body-outline" viewBox="0 0 384 512"><path d="M192 48c-18 0-32 14-32 32s14 32 32 32 32-14 32-32-14-32-32-32zm0-16c27 0 48 21 48 48s-21 48-48 48-48-21-48-48 21-48 48-48zm168 112c13 0 24 11 24 24s-11 24-24 24H260c-5 0-14 5-18 15-5 12-2 33 1 51l4 21v1l32 172c2 13-6 26-19 28h-5c-11 0-22-8-24-20l-21-120s-5-31-17-31h-2c-12 0-19 31-19 31l-21 120c-2 12-11 20-22 20h-5c-13-2-21-15-19-28l32-172v-1l4-21c3-18 6-39 1-51-4-10-12-15-18-15H24c-13 0-24-11-24-24s11-24 24-24h336zM24 176c-4 0-8-4-8-8s4-8 8-8h336c4 0 8 4 8 8s-4 8-8 8H258c-16 0-26 15-30 24-5 13-6 32-1 61l3 19 1 3 32 172c0 3 0 5-1 6s-2 2-5 3h-2c-4 0-7-2-8-6l-21-120c0-2-2-10-5-19-2-6-5-11-8-15-7-9-14-11-20-11h-2c-5 0-13 2-20 11-3 4-6 9-8 15-4 9-6 17-6 18v1l-21 120c-1 4-3 6-7 6h-2c-3 0-4-2-5-3s-2-3-1-6l32-172v-1l4-21c5-29 5-48 0-61-4-9-14-24-32-24z"/></svg>