<svg version="1.1" xmlns="http://www.w3.org/2000/svg" xmlns:xlink="http://www.w3.org/1999/xlink" id="ios-nutrition" viewBox="0 0 384 512"><path d="M295 234c6 6 9 13 9 22 0 11-5 20-13 26s-51 38-106 78l-38-32c-4-3-8-3-10-1s-2 6 1 10l29 35-114 84c-6 4-13 8-21 8-18 0-32-14-32-32 0-7 2-13 5-18 1-2 16-25 36-57l20 17c4 3 8 3 10 1s2-6-1-10l-20-23c27-43 60-96 84-134l36 30c4 3 8 3 10 1s2-6-1-10l-33-40c11-18 18-29 18-29 6-10 16-16 28-16 9 0 18 4 24 10l78 79 1 1zm89-95l-103 59-28-29 70-121 28 16-50 85 67-38z"/></svg>