<svg version="1.1" xmlns="http://www.w3.org/2000/svg" xmlns:xlink="http://www.w3.org/1999/xlink" id="ios-eye-outline" viewBox="0 0 384 512"><path d="M383 256l1 1-6 6c-21 21-47 48-78 69-36 24-72 36-108 36-83 0-130-49-185-105l-7-7 1-1c39-40 67-64 94-81 32-20 63-30 97-30 83 0 146 60 191 112zm-191-96c-62 0-111 36-170 96 24 24 48 50 76 68 30 20 60 28 94 28 75 0 133-56 171-95-26-29-50-50-74-66-32-21-64-31-97-31zm0 176c-44 0-80-36-80-80s36-80 80-80 80 36 80 80-36 80-80 80zm0-144c-35 0-64 29-64 64s29 64 64 64 64-29 64-64-29-64-64-64zm32 64h16c0 26-22 48-48 48s-48-21-48-48 22-48 48-48v16c-16 0-32 13-32 31s15 33 32 33 32-14 32-32z"/></svg>