<svg version="1.1" xmlns="http://www.w3.org/2000/svg" xmlns:xlink="http://www.w3.org/1999/xlink" id="ios-baseball" viewBox="0 0 416 512"><path d="M208 48c115 0 208 93 208 208 0 8 0 16-1 24-12 104-100 184-207 184C93 464 0 371 0 256 0 149 80 61 184 49c8-1 16-1 24-1zm4 399c5 0 11 0 16-1-1-10-2-20-4-30l24-8-5-15-23 7c-4-14-9-28-16-42l20-13-9-14-19 13c-8-13-17-25-28-37l17-17-11-11-17 17c-11-11-23-20-36-28l13-18-14-9-13 19c-14-7-28-12-42-16l7-22-15-5-8 23c-10-2-21-3-31-4-1 5-1 11-1 16 9 1 18 1 27 3l-7 23 15 5 8-24c8 2 16 5 23 8 5 2 10 5 15 7l-14 20 14 9 14-21c12 7 24 15 34 25l-17 17 11 11 17-17c10 11 19 23 26 35l-21 14 9 13 20-13c2 5 4 9 6 14 3 8 6 16 8 24l-23 7 5 16 22-7c2 8 2 17 3 26zm151-172c11 2 23 4 34 5 1-5 1-11 1-16-10-1-20-2-30-4l6-19-15-5-7 20c-8-2-15-4-22-7-5-2-10-5-15-7l12-17-14-9-12 18c-12-7-23-15-34-25l15-15-12-12-15 15c-10-10-18-21-25-33l19-13-9-13-17 12c-3-5-6-11-8-16-3-7-5-14-7-21l21-7-5-15-20 6c-2-10-3-20-4-31-5 0-11 0-16 1 1 12 3 23 5 35l-26 8 5 16 25-8c4 14 9 28 16 41l-22 15 9 13 21-14c8 13 17 25 27 36l-19 19 11 11 19-19c11 11 24 20 37 28l-14 21 13 9 15-23c13 7 27 13 41 17l-8 25 15 5z"/></svg>