<svg version="1.1" xmlns="http://www.w3.org/2000/svg" xmlns:xlink="http://www.w3.org/1999/xlink" id="ios-reverse-camera-outline" viewBox="0 0 384 512"><path d="M238 319l2-2 11 12-2 2c-16 14-36 21-57 21-45 0-82-36-87-78H75l38-50 39 50h-31c5 33 35 62 71 62 17 0 33-6 46-17zm14-120c16 14 25 37 27 57h30l-38 51-39-51h31c-5-35-35-64-71-64-17 0-33 6-46 17l-2 2-11-12 2-2c16-14 36-21 57-21 22 0 44 8 60 23zm102-39c18 0 30 14 30 31v176c0 17-12 33-30 33H34c-18 0-34-16-34-33V191c0-17 16-31 34-31h13v-16h34v16h13c32-36 43-48 55-48h88c12 0 23 12 55 48h62zm14 207V191c0-9-5-15-14-15h-68s-4-1-6-3-6-8-9-11c-12-13-21-24-27-30-5-5-7-4-7-4h-88s-1 0-6 4c-6 5-15 14-26 27-3 4-8 11-11 14s-4 3-6 3H34c-9 0-18 7-18 15v176c0 9 9 17 18 17h320c8 0 14-8 14-17z"/></svg>