<svg version="1.1" xmlns="http://www.w3.org/2000/svg" xmlns:xlink="http://www.w3.org/1999/xlink" id="ios-basketball" viewBox="0 0 416 512"><path d="M208 48c115 0 208 93 208 208s-93 208-208 208S0 371 0 256 93 48 208 48zm125 352c-22-51-53-97-89-138 11-12 21-25 31-38 34 27 77 45 123 48 0-5 1-11 1-16-22-2-44-7-65-16-18-8-34-17-49-29 21-30 38-61 52-95-4-4-8-8-12-11 0 1-1 1-1 2-14 33-32 64-52 93-2-1-2-2-4-4-19-19-35-41-45-66-9-21-13-43-15-65-5 0-11 1-16 1 4 58 31 110 71 147-9 13-19 25-30 37-48-50-105-91-169-119-4 4-7 9-10 13 59 26 112 62 158 108l10 10-8 8c-13 13-26 25-40 36-39-43-93-71-155-74-1 5-1 11-1 16 25 1 49 7 71 16 25 10 47 26 66 45l7 7c-31 24-66 44-102 60 4 4 7 9 11 13 36-16 70-37 101-61 11 14 21 30 28 47 10 23 15 46 16 71 5 0 11 0 16-1-2-48-19-92-47-127 17-14 33-28 48-44 36 41 65 86 87 136 4-3 9-6 13-10z"/></svg>