<svg version="1.1" xmlns="http://www.w3.org/2000/svg" xmlns:xlink="http://www.w3.org/1999/xlink" id="ios-game-controller-a" viewBox="0 0 448 512"><path d="M337 146c61 0 111 45 111 109s-50 111-111 111H111C50 366 0 319 0 255s50-109 111-109h226zM168 267v-22c0-3-2-5-5-5h-35v-35c0-3-2-5-5-5h-22c-3 0-5 2-5 5v35H61c-3 0-5 2-5 5v21c0 3 2 6 5 6h35v35c0 3 2 5 5 5h21c3 0 6-2 6-5v-35h35c3 0 5-2 5-5zm120 8c11 0 19-8 19-19s-8-19-19-19-20 8-20 19 9 19 20 19zm42 42c11 0 20-8 20-19s-9-19-20-19-19 8-19 19 8 19 19 19zm0-83c11 0 20-9 20-20s-9-19-20-19-19 8-19 19 8 20 19 20zm43 41c11 0 19-8 19-19s-8-19-19-19-20 8-20 19 9 19 20 19z"/></svg>