<svg version="1.1" xmlns="http://www.w3.org/2000/svg" xmlns:xlink="http://www.w3.org/1999/xlink" id="ios-toggle" viewBox="0 0 448 512"><path d="M96 320c26 0 48 22 48 48s-22 48-48 48-48-22-48-48 22-48 48-48zm256-48c53 0 96 43 96 96s-43 96-96 96H96c-53 0-96-43-96-96s43-96 96-96h256zM96 432c35 0 64-29 64-64s-29-64-64-64-64 29-64 64 29 64 64 64zm256-240c-26 0-48-22-48-48s22-48 48-48 48 22 48 48-22 48-48 48zM96 240c-53 0-96-43-96-96s43-96 96-96h256c53 0 96 43 96 96s-43 96-96 96H96zM352 80c-35 0-64 29-64 64s29 64 64 64 64-29 64-64-29-64-64-64z"/></svg>