<svg version="1.1" xmlns="http://www.w3.org/2000/svg" xmlns:xlink="http://www.w3.org/1999/xlink" id="ios-game-controller-a-outline" viewBox="0 0 448 512"><path d="M163 240c3 0 5 2 5 5v22c0 3-2 5-5 5h-35v35c0 3-3 5-6 5h-21c-3 0-5-2-5-5v-35H61c-3 0-5-3-5-6v-21c0-3 2-5 5-5h35v-35c0-3 2-5 5-5h22c3 0 5 2 5 5v35h35zm167 39c11 0 20 8 20 19s-9 19-20 19-19-8-19-19 8-19 19-19zm-42-42c11 0 19 8 19 19s-8 19-19 19-20-8-20-19 9-19 20-19zm85 0c11 0 19 8 19 19s-8 19-19 19-20-8-20-19 9-19 20-19zm-43-42c11 0 20 8 20 19s-9 20-20 20-19-9-19-20 8-19 19-19zm7-33H111c-26 0-49 9-67 26s-28 41-28 67 10 51 28 68 41 27 67 27h226c26 0 49-10 67-27s28-42 28-68-10-50-28-67-41-26-67-26zm0-16c61 0 111 45 111 109s-50 111-111 111H111C50 366 0 319 0 255s50-109 111-109h226z"/></svg>