<svg version="1.1" xmlns="http://www.w3.org/2000/svg" xmlns:xlink="http://www.w3.org/1999/xlink" id="ios-glasses-outline" viewBox="0 0 448 512"><path d="M433 247h15v18h-15c-2 22-13 43-29 58-17 16-39 25-62 25-51 0-92-41-92-92 0-10-12-22-26-22s-26 12-26 22c0 51-41 92-92 92-23 0-45-9-62-25-16-15-27-36-29-58H0v-18h15c2-22 13-43 29-59 17-16 39-24 62-24 42 0 78 27 89 67 7-7 18-12 29-12s22 5 29 12c11-40 47-67 89-67 23 0 45 9 62 25 16 15 27 36 29 58zm-91 86c42 0 77-35 77-77s-35-77-77-77-77 35-77 77 35 77 77 77zm-236 0c42 0 77-35 77-77s-35-77-77-77-77 35-77 77 35 77 77 77z"/></svg>