<svg version="1.1" xmlns="http://www.w3.org/2000/svg" xmlns:xlink="http://www.w3.org/1999/xlink" id="ios-location-outline" viewBox="0 0 288 512"><path d="M144 48c-34 0-67 13-91 37s-37 57-37 91c0 43 24 107 70 186 22 38 44 72 58 91 14-19 36-53 58-91 46-79 70-143 70-186 0-34-13-67-37-91s-57-37-91-37zm0-16c80 0 144 64 144 144 0 112-144 304-144 304S0 288 0 176C0 96 64 32 144 32zm0 80c35 0 64 29 64 64s-29 64-64 64-64-29-64-64 29-64 64-64zm0 111c26 0 47-21 47-47s-21-47-47-47-47 21-47 47 21 47 47 47z"/></svg>