<svg version="1.1" xmlns="http://www.w3.org/2000/svg" xmlns:xlink="http://www.w3.org/1999/xlink" id="ios-color-filter" viewBox="0 0 384 512"><path d="M302 212c47 13 82 57 82 108 0 62-50 112-112 112-31 0-60-13-80-34-20 21-49 34-80 34C50 432 0 382 0 320c0-51 35-95 82-108-1-7-2-13-2-20 0-62 50-112 112-112s112 50 112 112c0 7-1 13-2 20zM192 395l1 2c3-3 6-7 9-11 14-19 22-41 22-66 0-7-1-13-2-20 36-10 64-37 76-72 2-5 3-10 4-15-1 0-2-1-3-1v-1c-4-1-8-1-12-2-5-1-10-1-15-1-31 0-60 13-80 34-20-21-49-34-80-34-5 0-10 0-15 1-4 1-8 1-12 2v1c-1 0-2 1-3 1 1 5 2 10 4 15 12 35 40 62 76 72-1 7-2 13-2 20 0 25 8 47 22 66 3 4 6 8 9 11zm15-92c1 5 1 11 1 17 0 20-6 38-16 53-10-15-16-33-16-53 0-6 0-12 1-17 5 1 10 1 15 1s10 0 15-1zm75-78c-10 29-34 51-64 59-4-11-9-21-16-30 18-18 43-30 70-30 3 0 7 1 10 1zm-80 62c-3 0-7 1-10 1s-7-1-10-1c3-7 6-14 10-20 4 6 7 13 10 20zm-90-63c27 0 52 12 70 30-7 9-12 19-16 30-30-8-54-30-64-59 3 0 7-1 10-1z"/></svg>