<svg version="1.1" xmlns="http://www.w3.org/2000/svg" xmlns:xlink="http://www.w3.org/1999/xlink" id="ios-paw" viewBox="0 0 384 512"><path d="M380 196c6 17 5 38-3 57-10 25-31 43-51 43-5 0-10-1-15-3-22-10-30-45-17-79 10-28 31-46 51-46 5 0 10 1 14 3 10 4 17 13 21 25zM90 214c13 34 5 69-17 79-5 2-10 3-15 3-20 0-41-18-51-43-8-19-9-40-3-57 4-12 11-21 21-25 4-2 9-3 14-3 20 0 41 18 51 46zm44-3c-28-1-52-32-56-69-2-23 4-45 16-60 8-10 19-17 31-18h6c27 1 46 29 50 67 3 24-1 48-13 63-8 9-17 15-28 16-2 0-4 1-6 1zm58 29c64 0 128 76 128 149 0 22-11 40-22 47-13 9-23 12-42 12-23 0-29-8-40-15-8-5-14-10-24-10s-16 5-24 10c-11 7-17 15-40 15-19 0-29-3-42-12-11-7-22-25-22-47 0-73 64-149 128-149zm52-30c-11-1-20-7-28-16-12-15-16-39-13-63 4-38 23-66 50-67h7c12 1 22 8 30 18 12 15 18 37 16 60-4 37-28 67-56 68h-6z"/></svg>