<svg version="1.1" xmlns="http://www.w3.org/2000/svg" xmlns:xlink="http://www.w3.org/1999/xlink" id="ios-analytics-outline" viewBox="0 0 448 512"><path d="M224 48c-28 0-55 5-81 16-25 10-47 26-66 45s-35 41-45 66c-11 26-16 53-16 81s5 55 16 81c10 25 26 47 45 66s41 35 66 45c26 11 53 16 81 16s55-5 81-16c25-10 47-26 66-45s35-41 45-66c11-26 16-53 16-81s-5-55-16-81c-10-25-26-47-45-66s-41-35-66-45c-26-11-53-16-81-16zm0-16c124 0 224 100 224 224S348 480 224 480 0 380 0 256 100 32 224 32zM76 320c-25 0-41-18-42-19-3-3-2-9 1-12s8-2 11 1c1 1 15 17 36 14 12-2 27-26 38-42 4-6 9-12 12-16 17-21 34-23 45-21 24 3 45 28 54 50 7 18 18 28 32 29 15 1 31-11 43-30 1-2 3-4 4-7 9-17 24-43 52-43 31 0 52 35 53 36 2 4 1 9-3 11s-9 1-11-3c0 0-5-8-12-15-6-6-16-13-27-13-18 0-29 19-38 35-1 3-3 5-4 7-15 25-36 40-58 38-20-1-36-15-46-39s-28-39-41-41c-11-1-21 4-31 16-3 4-6 9-10 15-14 20-31 45-50 48-3 0-5 1-8 1z"/></svg>