<svg version="1.1" xmlns="http://www.w3.org/2000/svg" xmlns:xlink="http://www.w3.org/1999/xlink" id="ios-cloud-download-outline" viewBox="0 0 448 512"><path d="M161 381l55 54V193h16v242l55-54 12 12-75 73-74-73zm206-217c45 0 81 37 81 82s-37 82-82 82H265v-16h101c37 0 66-30 66-66s-29-67-66-67h-15v-20c0-55-46-97-101-97-38 0-73 22-90 56l-6 14-14-7c-6-3-13-5-20-5-22 0-40 18-44 39l-1 9-9 3c-30 10-50 36-50 67 0 40 33 74 74 74h91v16H90c-50 0-90-40-90-89 0-39 26-71 61-83 5-28 29-51 59-51 10 0 18 2 26 6 19-39 59-65 105-65 64 0 117 51 117 115 0 1-1 2-1 3z"/></svg>