<svg version="1.1" xmlns="http://www.w3.org/2000/svg" xmlns:xlink="http://www.w3.org/1999/xlink" id="ios-pint-outline" viewBox="0 0 224 512"><path d="M224 170c0 98-32 101-32 181 0 40 16 71 16 99 0 27-9 30-32 30H48c-23 0-32-2-32-29 0-28 16-60 16-100 0-80-32-83-32-181 0-21 1-89 19-125 4-9 13-13 32-13h122c19 0 28 4 32 13 18 36 19 104 19 125zM34 52c-8 16-14 43-17 76h190c-3-33-9-60-17-76-1-2-1-1-2-2-2-1-6-2-15-2H51c-9 0-13 1-15 2-1 1-1 0-2 2zm157 411c0-1 1-5 1-13 0-11-4-23-7-37-4-18-9-39-9-62 0-41 8-64 16-86 8-23 16-46 16-95 0-9-1-18-1-26H17c0 8-1 17-1 26 0 49 8 72 16 95 8 22 16 45 16 86 0 23-5 44-9 62-3 14-7 26-7 37 0 8 1 12 1 13 2 1 7 1 15 1h128c8 0 13 0 15-1z"/></svg>