<svg version="1.1" xmlns="http://www.w3.org/2000/svg" xmlns:xlink="http://www.w3.org/1999/xlink" id="ios-paw-outline" viewBox="0 0 384 512"><path d="M380 196c6 17 5 38-3 57-10 25-31 43-51 43-5 0-10-1-15-3-22-10-30-45-17-79 10-28 31-46 51-46 5 0 10 1 14 3 10 4 17 13 21 25zm-18 50c6-15 7-31 2-44-2-5-5-12-12-15-2-1-4-2-7-2-13 0-28 15-36 36-9 25-6 50 8 56 2 1 5 1 8 1 14 0 29-13 37-32zM90 214c13 34 5 69-17 79-5 2-10 3-15 3-20 0-41-18-51-43-8-19-9-40-3-57 4-12 11-21 21-25 4-2 9-3 14-3 20 0 41 18 51 46zm-23 63c14-6 17-31 8-56-8-21-23-36-36-36-3 0-5 1-7 2-7 3-10 10-12 15-5 13-4 29 2 44 8 19 23 32 37 32 3 0 6 0 8-1zm67-66c-28-1-52-32-56-69-2-23 4-45 16-60 8-10 19-17 31-18h6c27 1 46 29 50 67 3 24-1 48-13 63-8 9-17 15-28 16-2 0-4 1-6 1zM107 92c-10 12-14 29-12 48 3 29 21 53 40 54h3c6-1 12-4 17-10 10-12 12-31 10-51-3-29-17-52-35-53h-3c-9 1-16 7-20 12zm85 148c64 0 128 76 128 149 0 22-11 40-22 47-13 9-23 12-42 12-23 0-29-8-40-15-8-5-14-10-24-10s-16 5-24 10c-11 7-17 15-40 15-19 0-29-3-42-12-11-7-22-25-22-47 0-73 64-149 128-149zm98 181c6-4 14-16 14-32 0-30-14-64-36-91-11-13-23-24-36-31-13-8-27-11-40-11s-27 3-40 11c-13 7-25 18-36 31-22 27-36 61-36 91 0 16 8 28 14 32 11 7 18 10 34 10 14 0 19-4 26-9 2-1 4-3 6-4 9-6 18-12 32-12s23 6 32 12c2 1 4 3 6 4 7 5 12 9 26 9 16 0 23-3 34-10zm-46-211c-11-1-20-7-28-16-12-15-16-39-13-63 4-38 23-66 50-67h7c12 1 22 8 30 18 12 15 18 37 16 60-4 37-28 67-56 68h-6zm-25-77c-2 20 0 39 10 51 5 6 11 9 17 10h3c19-1 38-25 41-54 2-19-3-36-13-48-4-5-10-11-19-12h-4c-18 1-32 24-35 53z"/></svg>