<svg version="1.1" xmlns="http://www.w3.org/2000/svg" xmlns:xlink="http://www.w3.org/1999/xlink" id="ios-alarm-outline" viewBox="0 0 404 512"><path d="M384 192l-54-52-9 9c35 32 57 79 57 130 0 44-16 83-43 114l36 45-12 10-35-43c-32 30-75 49-122 49s-90-19-122-49l-35 43-12-10 36-45c-27-31-43-71-43-115 0-51 22-97 57-129l-9-9-54 52C8 178 0 160 0 140c0-44 35-80 80-82h5c20 0 39 7 54 18l-54 52 11 11c26-19 56-32 90-35 0-8 8-16 16-16s15 8 15 16c34 3 65 16 91 35l11-11-54-52c15-11 34-18 54-18h5c45 2 80 38 80 82 0 20-8 38-20 52zM22 168l91-89c-9-5-19-7-32-6-37 2-65 32-65 67 0 10 2 19 6 28zm340 108c0-88-72-158-160-158S42 188 42 276s72 158 160 158 160-70 160-158zM291 79l91 89c4-9 6-18 6-28 0-35-28-65-65-67-13-1-23 1-32 6zm-89 81h16v144H106v-16h96V160z"/></svg>