<svg version="1.1" xmlns="http://www.w3.org/2000/svg" xmlns:xlink="http://www.w3.org/1999/xlink" id="ios-bookmarks-outline" viewBox="0 0 418 512"><path d="M385 64c19 0 33 13 33 32v286c0 19-14 34-33 34H242s-25 4-25 19v13h-16v-13c0-15-11-19-25-19H33c-19 0-33-15-33-34V96c0-19 14-32 33-32h150c10 0 20 5 26 12 6-7 16-12 26-12h150zM201 411V102c0-9-12-22-25-22H33c-9 0-16 7-16 16v286c0 9 7 18 16 18h144c10 0 19 3 24 11zm72-331v100l23-14 9-6 9 6 23 14V80h-64zm128 302V96c0-9-7-16-16-16h-32v131l-48-32-48 32V80h-15c-13 0-25 13-25 22v309c5-9 14-11 24-11h144c9 0 16-9 16-18z"/></svg>