<svg version="1.1" xmlns="http://www.w3.org/2000/svg" xmlns:xlink="http://www.w3.org/1999/xlink" id="ios-partlysunny-outline" viewBox="0 0 384 512"><path d="M144 150V96h16v54h-16zM0 256v-16h55v16H0zm44-107l10-11 32 32-11 11zm179 31l-11-11 32-32 11 11zM56 352l-10-11 31-31 11 11zm73-57c-4 3-8 7-12 12-23-12-39-36-39-63 0-39 32-71 71-71 21 0 40 10 53 25-4 2-9 4-14 8-10-11-23-17-39-17-30 0-55 25-55 55 0 23 15 43 35 51zm106-55c-34 0-63 28-63 62v12l1 10c-5 0-12 1-14 1-19 3-33 18-33 37 0 10 3 19 10 26s16 11 26 11h157c27 0 49-22 49-49s-22-50-49-50c-2 0-4 1-6 1l-14 2-3-14c-3-14-11-26-22-35s-25-14-39-14zm0-16c37 0 68 26 76 61h8c36 0 65 29 65 65s-29 66-65 66H162c-28 0-52-24-52-53 0-27 21-51 47-53v-8c0-43 35-78 78-78z"/></svg>