<svg version="1.1" xmlns="http://www.w3.org/2000/svg" xmlns:xlink="http://www.w3.org/1999/xlink" id="ios-nutrition-outline" viewBox="0 0 384 512"><path d="M294 234c6 6 10 14 10 23 0 11-5 20-13 26s-51 37-106 77l-38-31c-2-2-4-3-6-3-1 0-2 0-3 1-2 2-2 6 1 10l29 35-115 84c-6 4-13 8-21 8-18 0-32-14-32-32 0-7 1-13 4-18 2-2 17-25 37-57l21 17c2 2 4 2 6 2 1 0 3 0 4-1 2-2 1-6-2-10l-19-23c27-43 60-96 84-134l36 30c2 2 4 3 6 3 1 0 2-1 3-2 2-2 2-5-1-9l-33-40c11-18 19-29 19-29 6-10 15-16 27-16 9 0 18 4 24 10l78 79zm-12 36c4-3 6-8 6-13 0-4-2-9-5-12l-5-4v-1l-69-69-5-5c-3-3-8-5-12-5-6 0-10 3-13 8l-5 8c-2 3-5 7-8 12l25 30 1 1c8 10 8 22 0 30l-1 1-1 1c-4 3-8 5-13 5s-11-2-16-6v-1h-1l-21-18-24 39-44 70 12 14c8 10 8 23 0 31-4 4-9 6-15 6-5 0-11-2-16-6l-7-5c-3 5-5 9-8 13-12 19-16 26-18 29-1 3-2 6-2 9 0 9 7 16 16 16 3 0 6-2 11-5l101-74-18-22h-1c-8-10-8-23 0-31 4-4 10-6 15-6s11 2 16 6h1l28 24c49-36 93-68 96-70zm94-155l8 14-5 3-103 60-17-17 71-123 2-4 14 8-3 4-63 111 91-53z"/></svg>