<svg version="1.1" xmlns="http://www.w3.org/2000/svg" xmlns:xlink="http://www.w3.org/1999/xlink" id="ios-shuffle-strong" viewBox="0 0 384 512"><path d="M301 152c-85 0-119 64-152 126-1 3-3 5-4 8l-1 1c-2 3-2 5-4 8-21 38-43 68-68 83-15 9-34 18-72 18v-32c45 0 76-18 112-84 2-3 2-6 4-9h1c1-2 3-4 4-7 34-64 76-144 180-144h15l-52-43 21-25 99 84-99 82-21-24 51-42h-14zm-16 142l99 82-99 84-21-25 52-43h-15c-78 0-122-45-153-95l18-33c29 51 64 96 135 96h14l-51-42zm-173-62c-36-66-67-84-112-84v-32c38 0 57 9 72 18 25 15 47 44 67 81-7 11-13 22-19 33-1-2-2-5-3-7h-1c-2-3-2-6-4-9z"/></svg>