<svg version="1.1" xmlns="http://www.w3.org/2000/svg" xmlns:xlink="http://www.w3.org/1999/xlink" id="ios-ionic-outline" viewBox="0 0 416 512"><path d="M378 135c24 34 38 76 38 121 0 115-92 208-207 208S0 371 0 256 94 48 209 48c45 0 86 14 120 38 6-5 13-8 21-8 19 0 35 16 35 35 0 8-2 16-7 22zm-28-44c-12 0-22 10-22 22s10 22 22 22 22-10 22-22-10-22-22-22zm-6 301c18-18 31-39 41-62 10-24 15-48 15-74s-5-51-15-75c-5-13-12-25-20-36-5 2-10 3-15 3-19 0-35-16-35-35 0-5 2-11 4-15-11-8-23-15-36-20-24-10-49-14-75-14s-51 4-75 14c-23 10-43 24-61 42s-31 38-41 61c-10 24-15 49-15 75s5 50 15 74c10 23 23 44 41 62s38 31 61 41c24 10 49 15 75 15s51-5 75-15c23-10 43-23 61-41zM208 160c53 0 96 43 96 96s-43 96-96 96-96-43-96-96 43-96 96-96zm0 176c44 0 80-36 80-80s-36-80-80-80-79 36-79 80 35 80 79 80z"/></svg>