<svg version="1.1" xmlns="http://www.w3.org/2000/svg" xmlns:xlink="http://www.w3.org/1999/xlink" id="ios-recording" viewBox="0 0 480 512"><path d="M370 144c61 0 110 50 110 112s-49 112-110 112H110C49 368 0 318 0 256s49-112 110-112 110 50 110 112c0 40-21 76-53 95h146c-32-19-53-55-53-95 0-62 49-112 110-112zM112 320c35 0 64-29 64-64s-29-64-64-64-64 29-64 64 29 64 64 64zm256 0c35 0 64-29 64-64s-29-64-64-64-64 29-64 64 29 64 64 64zm0-112c26 0 48 22 48 48s-22 48-48 48-48-22-48-48 22-48 48-48zm-256 0c26 0 48 22 48 48s-22 48-48 48-48-22-48-48 22-48 48-48z"/></svg>