<svg version="1.1" xmlns="http://www.w3.org/2000/svg" xmlns:xlink="http://www.w3.org/1999/xlink" id="ios-gear" viewBox="0 0 384 512"><path d="M352 256c0 21 14 39 32 46-5 20-13 40-24 57-6-3-13-4-20-4-13 0-25 4-35 14-15 15-18 37-10 55-17 11-37 19-57 24-7-18-25-32-46-32s-39 14-46 32c-20-5-40-13-57-24 8-18 5-40-10-55-10-10-22-14-35-14-7 0-14 1-20 4-11-17-19-37-24-57 18-7 32-25 32-46s-13-39-32-46c5-20 13-40 24-57 6 3 13 4 20 4 13 0 25-4 35-14 15-15 18-37 10-55 17-11 37-19 57-24 7 19 25 32 46 32s39-13 46-32c20 5 40 13 57 24-8 18-5 40 10 55 10 10 22 14 35 14 7 0 14-1 20-4 11 17 19 37 24 57-19 7-32 25-32 46zm-159 80c44 0 80-36 80-80s-36-80-80-80-80 36-80 80 36 80 80 80z"/></svg>