<svg version="1.1" xmlns="http://www.w3.org/2000/svg" xmlns:xlink="http://www.w3.org/1999/xlink" id="ios-flower" viewBox="0 0 448 512"><path d="M363 228c56 0 85 12 85 28s-29 28-85 28c-29 0-65-7-93-14-1 3-2 6-4 9 25 15 56 36 76 56 40 40 53 68 41 80s-40-1-80-41c-20-20-41-51-56-76-3 2-7 3-10 4 7 28 15 64 15 93 0 56-12 85-28 85s-28-29-28-85c0-29 8-65 15-93-3-1-7-2-10-4-15 25-36 56-56 76-40 40-68 53-80 41s1-40 41-80c20-20 51-41 76-56-2-3-3-6-4-9-28 7-64 14-93 14-56 0-85-12-85-28s29-28 85-28c29 0 65 8 93 15 1-3 2-7 4-10-25-15-56-35-76-55-40-40-53-68-41-80s40 0 80 40c20 20 41 51 56 76 3-2 6-3 9-4-7-28-14-64-14-93 0-56 12-85 28-85s28 29 28 85c0 29-7 65-14 93 3 1 6 2 9 4 15-25 36-56 56-76 40-40 68-52 80-40s-1 40-41 80c-20 20-51 40-76 55 2 3 3 7 4 10 28-7 64-15 93-15zm-99 126s24 34 49 52c10 34 7 53-5 58-2 1-3 1-5 1-11 0-25-13-37-35 5-35-2-76-2-76zm-81-196s-27-35-48-51c-10-35-7-54 5-59 2-1 3-1 5-1 11 0 24 12 37 36-6 35 1 75 1 75zm-57 139s-34 24-51 48c-12 4-26 6-35 6-13 0-21-4-24-11-5-11 7-25 34-41 35 4 76-2 76-2zm196-81s33-25 51-49c13-4 26-5 35-5 13 0 21 3 24 10 5 11-7 26-34 42-35-5-76 2-76 2zM131 409c31-24 53-55 53-55s-7 39-3 71c-15 26-28 39-39 39-2 0-4 0-6-1-11-5-13-24-5-54zm186-305c-29 21-53 55-53 55s8-48 3-71c13-25 28-39 39-39 2 0 4 0 6 1 11 5 13 22 5 54zM56 213c-28-15-43-32-38-44 3-7 10-11 22-11 8 0 21 1 31 5 18 24 55 53 55 53s-40-7-70-3zm336 86c30 17 43 33 38 45-3 7-10 10-22 10-8 0-19-1-31-5-20-27-55-52-55-52s45 8 70 2z"/></svg>