<svg version="1.1" xmlns="http://www.w3.org/2000/svg" xmlns:xlink="http://www.w3.org/1999/xlink" id="ios-americanfootball-outline" viewBox="0 0 416 512"><path d="M331 133c112 112 81 327 81 327s-26 4-65 4c-73 0-189-12-262-85C-27 267 4 52 4 52s26-4 65-4c73 0 189 12 262 85zM17 65c-2 19-5 60 0 107 1 8 2 16 3 23L147 68c-25-3-51-5-78-5-22 0-41 1-52 2zm79 303c30 30 72 53 124 66 10 3 20 5 31 7l142-142c-4-22-10-44-17-63-14-37-32-68-56-92-30-30-72-53-124-66-10-3-20-5-31-7L23 213c4 22 10 44 17 63 14 37 32 68 56 92zm303 79c2-19 5-60 0-107-1-8-2-16-3-23L269 444c25 3 51 5 78 5 22 0 41-1 52-2zM259 318l-28 29-12-12 29-28-23-23-28 29-12-12 29-28-23-23-28 29-12-12 29-28-23-23-28 29-12-12 29-28-22-23-29 29-11-12 67-67 12 11-29 29 23 22 28-29 12 12-29 28 23 23 28-29 12 12-29 28 23 23 28-29 12 12-29 28 22 23 29-29 12 12-29 28 22 23 29-29 11 12-67 67-12-11 29-29z"/></svg>