<svg version="1.1" xmlns="http://www.w3.org/2000/svg" xmlns:xlink="http://www.w3.org/1999/xlink" id="ios-tennisball" viewBox="0 0 416 512"><path d="M0 252zm212 212h1-1zm-4-416c115 0 208 93 208 208 0 8 0 16-1 24-11 97-90 174-187 183-6 1-13 1-20 1C93 464 0 371 0 256v-4c0-6 0-11 1-16 9-97 86-176 183-187 6-1 11-1 16-1h8zM83 267c26 10 48 26 68 46s36 42 46 68c8 21 14 44 15 66 5 0 11 0 16-1-3-53-25-105-65-145s-92-62-145-65c-1 5-1 11-1 16 22 1 45 7 66 15zm167-53c41 41 93 63 147 66 1-5 1-11 1-16-24-1-46-6-68-15-26-10-49-26-69-46s-36-43-46-69c-9-22-14-44-15-68-5 0-11 0-16 1 3 54 25 106 66 147z"/></svg>