<svg version="1.1" xmlns="http://www.w3.org/2000/svg" xmlns:xlink="http://www.w3.org/1999/xlink" id="ios-speedometer" viewBox="0 0 448 512"><path d="M385 279v15h30c-1 22-6 44-15 65-8 18-19 35-32 50-39-37-90-58-144-58s-105 21-144 58c-13-15-24-32-32-50-9-21-14-43-15-65h29v-16H33c1-23 6-45 15-66 9-20 20-38 35-54l25 24 10-10 1-1-25-25c16-15 36-26 56-35 21-9 43-14 66-15v34h15V96c23 1 46 6 67 15s39 20 55 35l-24 25 11 11 25-25c15 16 26 35 35 55 9 21 14 43 15 66h-30v1zm-113 9c0-10-3-20-9-28l63-76-2-1-73 65c-8-5-17-8-27-8-26 0-48 22-48 48 0 10 3 20 9 28l-12 12 11 11 13-12c8 5 17 9 27 9 26 0 48-22 48-48zM224 64c124 0 224 100 224 224 0 57-21 108-56 148-4 4-7 8-11 12h-23c-32-39-80-64-134-64s-102 25-134 64H67c-4-4-7-8-11-12-35-40-56-91-56-148C0 164 100 64 224 64zm155 357c34-37 52-86 52-136 0-55-22-106-61-145s-91-60-146-60-107 21-146 60-61 90-61 145c0 50 18 99 52 136l10 10 1 1v-1l9-9 1-1c17-17 38-30 60-39 24-10 48-15 74-15s50 5 74 15c22 9 43 22 60 39l1 1 9 9v1l1-1zM192 288c0-21 11-32 32-32s32 11 32 32-11 32-32 32-32-11-32-32z"/></svg>