<svg version="1.1" xmlns="http://www.w3.org/2000/svg" xmlns:xlink="http://www.w3.org/1999/xlink" id="ios-americanfootball" viewBox="0 0 416 512"><path d="M331 133c112 112 81 327 81 327s-26 4-65 4c-73 0-189-12-262-85C-27 267 4 52 4 52s26-4 65-4c73 0 189 12 262 85zM20 195l3 18L165 71l-18-3zm199 140l12 12 28-29 23 22-29 29 12 11 67-67-11-12-29 29-22-23 29-28-12-12-28 29-23-23 29-28-12-12-28 29-23-23 29-28-12-12-28 29-23-23 29-28-12-12-28 29-23-22 29-29-12-11-67 67 11 12 29-29 22 23-29 28 12 12 28-29 23 23-29 28 12 12 28-29 23 23-29 28 12 12 28-29 23 23zm50 109l127-127-3-18-142 142z"/></svg>