<svg version="1.1" xmlns="http://www.w3.org/2000/svg" xmlns:xlink="http://www.w3.org/1999/xlink" id="ios-time" viewBox="0 0 448 512"><path d="M224 32c124 0 224 100 224 224S348 480 224 480 0 380 0 256 100 32 224 32zm0 40c-4 0-8 4-8 8s4 8 8 8 8-4 8-8-4-8-8-8zM48 264c4 0 8-4 8-8s-4-8-8-8-8 4-8 8 4 8 8 8zm28 87c4-2 4-7 2-11s-6-5-10-3-5 7-3 11 7 5 11 3zm2-179c2-4 2-9-2-11s-9-1-11 3-1 9 3 11 8 1 10-3zm54-75c-4 2-5 7-3 11s7 4 11 2 5-6 3-10-7-5-11-3zm11 315c2-4 1-8-3-10s-9-2-11 2-1 9 3 11 9 1 11-3zm81 28c4 0 8-4 8-8s-4-8-8-8-8 4-8 8 4 8 8 8zm8-170c8-4 10-14 6-22-3-5-9-8-14-8l-38-64c-2-4-7-4-11-2s-4 7-2 11l37 63c-3 5-3 11 0 16 2 2 4 5 6 6v122c0 4 4 8 8 8s8-4 8-8V270zm84 145c4-2 5-7 3-11s-7-4-11-2-5 6-3 10 7 5 11 3zm3-307c2-4 1-9-3-11s-9-1-11 3-1 8 3 10 9 2 11-2zm64 240c2-4 1-9-3-11s-8-1-10 3-2 9 2 11 9 1 11-3zm-3-173c4-2 5-7 3-11s-7-5-11-3-4 7-2 11 6 5 10 3zm20 89c4 0 8-4 8-8s-4-8-8-8-8 4-8 8 4 8 8 8z"/></svg>