<svg version="1.1" xmlns="http://www.w3.org/2000/svg" xmlns:xlink="http://www.w3.org/1999/xlink" id="ios-football-outline" viewBox="0 0 416 512"><path d="M208 48c115 0 208 93 208 208s-93 208-208 208S0 371 0 256 93 48 208 48zm41 394c3-1 5-1 8-2l24-64-20-39v-1H155l-20 39 25 65c2 1 5 1 7 2 12 3 25 5 38 5 14 0 30-2 44-5zM41 164c-15 27-23 57-24 89l43-37zm101-87c-36 14-68 38-90 69l22 64 5 2 49 23 71-60v-58zm135 170l-70-58-69 58v1l18 72h104l18-72zm122 6c-1-32-9-63-24-90l-19 53zm-35-107c-22-31-54-56-90-69l-58 40v58l71 60 54-24zM18 273c3 34 15 66 33 92l70 1 21-39-20-77-1-1-49-22zm277 93l70-1c18-26 30-58 33-92l-54-46-50 23-20 77zm-88-263l47-32c-15-4-30-6-46-6s-32 2-47 6zm-89 279l-54-1c20 23 46 42 75 53l-20-50zm159 52c29-11 55-30 75-53l-56 1-2 3z"/></svg>