<svg version="1.1" xmlns="http://www.w3.org/2000/svg" xmlns:xlink="http://www.w3.org/1999/xlink" id="ios-infinite" viewBox="0 0 464 512"><path d="M433 182c20 20 31 46 31 74s-11 54-31 74-48 30-76 30-55-10-75-30L157 207c-13-13-32-20-51-20s-37 7-50 20-21 31-21 49c0 19 8 36 21 49s31 20 50 20 38-7 51-20l39-38 25 25-39 38c-20 20-48 30-76 30s-55-10-75-30-31-46-31-74 11-54 31-74 47-30 75-30 56 10 76 30l125 123c13 13 31 20 50 20s38-7 51-20 20-31 20-49c0-19-7-36-20-49s-32-20-51-20-37 7-50 20l-39 38-25-25 39-38c20-20 48-30 76-30s55 10 75 30z"/></svg>