<svg version="1.1" xmlns="http://www.w3.org/2000/svg" xmlns:xlink="http://www.w3.org/1999/xlink" id="ios-cog" viewBox="0 0 384 512"><path d="M229 150c16 5 30 15 42 27 21 21 33 49 33 79 0 27-10 54-28 74l-75-75zm-15-4l-28 104-104 28c-1-7-2-15-2-22 0-30 12-58 33-79s49-33 79-33c7 0 15 1 22 2zM86 294l104-28 75 75c-20 17-46 27-73 27-30 0-58-12-79-33-12-12-21-26-27-41zm298-21l-33 8-3 14 27 20-12 30-34-5-8 11 17 29-23 23-29-17-10 7 5 34-29 12-21-27-14 3-8 33h-32l-9-33-13-3-21 28-29-12 4-34-11-8-30 19-23-23 18-31-7-11-35 5-12-29 28-22-2-12-35-9v-32l35-9 2-12-29-22 12-30 36 5 7-10-19-32 22-22 32 19 11-8-4-35 29-13 22 29 12-2 9-35h32l9 35 12 2 22-28 29 12-5 35 11 8 30-18 22 23-17 30 7 10 35-5 12 30-28 21 3 13 33 9v32zM192 384c71 0 128-57 128-128s-57-128-128-128S64 185 64 256s57 128 128 128z"/></svg>