<svg version="1.1" xmlns="http://www.w3.org/2000/svg" xmlns:xlink="http://www.w3.org/1999/xlink" id="ios-flower-outline" viewBox="0 0 448 512"><path d="M363 284c-29 0-65-7-93-14-1 3-2 6-4 9 25 15 56 36 76 56 40 40 53 68 41 80-3 3-7 4-12 4-15 0-38-15-68-45-20-20-41-51-56-76-3 2-7 3-10 4 7 28 15 64 15 93 0 56-12 85-28 85s-28-29-28-85c0-29 8-65 15-93-3-1-7-2-10-4-15 25-36 56-56 76-30 30-53 45-68 45-5 0-9-1-12-4-12-12 1-40 41-80 20-20 51-41 76-56-2-3-3-6-4-9-28 7-64 14-93 14-56 0-85-12-85-28s29-28 85-28c29 0 65 8 93 15 1-3 2-7 4-10-25-15-56-35-76-55-40-40-53-68-41-80 3-3 7-4 12-4 15 0 38 14 68 44 20 20 41 51 56 76 3-2 7-3 10-4-7-28-15-64-15-93 0-56 12-85 28-85s28 29 28 85c0 29-8 65-15 93 3 1 7 2 10 4 15-25 36-56 56-76 30-30 53-44 68-44 5 0 9 1 12 4 12 12-1 40-41 80-20 20-51 40-76 55 2 3 3 7 4 10 28-7 64-15 93-15 56 0 85 12 85 28s-29 28-85 28zm-75-29v3c30 7 56 10 75 10 21 0 39-2 52-5 10-3 14-6 16-7-2-1-6-4-16-7-13-3-31-5-52-5-19 0-45 4-75 11zm26-106c-14 14-30 35-46 61l2 2c26-16 47-32 61-46 15-15 26-28 33-40 5-9 7-14 7-16-4 0-22 4-57 39zm-136 63l2-2c-16-26-32-47-46-61-35-35-53-39-57-39 0 2 2 7 7 16 7 12 18 25 33 40 14 14 35 30 61 46zm-93 56c19 0 45-3 75-10v-3c-30-7-56-11-75-11-21 0-39 2-52 5-10 3-14 6-16 7 2 1 5 4 15 7 13 3 32 5 53 5zm49 95c14-14 30-35 46-61l-2-2c-26 16-47 32-61 46-15 15-26 29-33 41-5 9-7 14-7 16 4 0 22-5 57-40zm136-63l-2 2c16 26 32 47 46 61 35 35 53 40 57 40 0-2-2-7-7-16-7-12-18-26-33-41-14-14-35-30-61-46zM217 65c-3 13-5 31-5 52 0 19 4 45 11 75h2c7-30 11-56 11-75 0-21-2-39-5-52-3-10-6-14-7-16-1 2-4 6-7 16zm14 383c3-13 5-32 5-53 0-19-4-45-11-75h-2c-7 30-11 56-11 75 0 21 2 40 5 53 3 10 6 13 7 15 1-2 4-5 7-15zm-7-160c18 0 32-14 32-32s-14-32-32-32-32 14-32 32 14 32 32 32zm89 118c10 34 7 53-5 58-2 1-3 1-5 1-11 0-25-13-37-35 5-35-2-76-2-76s24 34 49 52zm-11 43c1-4 2-14-3-34-5-4-10-9-15-14 0 9 0 17-1 25 10 16 16 22 19 23zM182 83c-6 35 1 75 1 75s-27-35-48-51c-10-35-7-54 5-59 2-1 3-1 5-1 11 0 24 12 37 36zm-18 28c0-9 0-17 1-25-10-16-16-21-19-22-1 4-2 14 3 34 5 4 10 8 15 13zM50 299c35 4 76-2 76-2s-34 24-51 48c-12 4-26 6-35 6-13 0-21-4-24-11-5-11 7-25 34-41zm16 32c4-5 8-10 13-15-9 0-17 0-25-1-16 10-21 16-22 19 1 0 4 1 8 1 7 0 16-1 26-4zm366-159c5 11-7 26-34 42-35-5-76 2-76 2s33-25 51-49c13-4 26-5 35-5 13 0 21 3 24 10zm-38 26c16-10 21-16 22-19-1 0-4-1-8-1-7 0-16 1-26 4-4 5-8 9-13 14 9 0 17 1 25 2zM131 409c31-24 53-55 53-55s-7 39-3 71c-15 26-28 39-39 39-2 0-4 0-6-1-11-5-13-24-5-54zm12 38c4-2 12-8 22-26 0-6-1-13-1-20-6 6-13 12-19 17-4 18-3 26-2 29zM312 50c11 5 13 22 5 54-29 21-53 55-53 55s8-48 3-71c13-25 28-39 39-39 2 0 4 0 6 1zm-9 45c5-18 3-27 2-30-4 2-12 8-22 26 0 6 1 14 1 21 6-6 13-12 19-17zM71 163c18 24 55 53 55 53s-40-7-70-3c-28-15-43-32-38-44 3-7 10-11 22-11 8 0 21 1 31 5zm-38 12c2 4 8 12 26 22 6 0 13-1 20-1-6-6-12-12-17-18-8-2-16-4-22-4-4 0-6 1-7 1zm359 124c30 17 43 33 38 45-3 7-10 10-22 10-8 0-19-1-31-5-20-27-55-52-55-52s45 8 70 2zm16 39c4 0 6-1 7-1-2-4-8-12-26-22-6 0-13 1-20 1 6 6 12 13 17 19 8 2 16 3 22 3z"/></svg>