<svg version="1.1" xmlns="http://www.w3.org/2000/svg" xmlns:xlink="http://www.w3.org/1999/xlink" id="ios-time-outline" viewBox="0 0 448 512"><path d="M224 32c124 0 224 100 224 224S348 480 224 480 0 380 0 256 100 32 224 32zm147 371c19-19 35-41 45-66 11-26 16-53 16-81s-5-55-16-81c-10-25-26-47-45-66s-41-35-66-45c-26-11-53-16-81-16s-55 5-81 16c-25 10-47 26-66 45s-35 41-45 66c-11 26-16 53-16 81s5 55 16 81c10 25 26 47 45 66s41 35 66 45c26 11 53 16 81 16s55-5 81-16c25-10 47-26 66-45zM216 80c0-5 3-8 8-8s8 3 8 8-3 8-8 8-8-3-8-8zm0 352c0-5 3-8 8-8s8 3 8 8-3 8-8 8-8-3-8-8zm176-176c0-5 3-8 8-8s8 3 8 8-3 8-8 8-8-3-8-8zm-352 0c0-5 3-8 8-8s8 3 8 8-3 8-8 8-8-3-8-8zm88-152c0-5 3-8 8-8s8 3 8 8-3 8-8 8-8-3-8-8zm176 304c0-5 3-8 8-8s8 3 8 8-3 8-8 8-8-3-8-8zm64-240c0-5 3-8 8-8s8 3 8 8-3 8-8 8-8-3-8-8zM64 344c0-5 3-8 8-8s8 3 8 8-3 8-8 8-8-3-8-8zm0-176c0-5 3-8 8-8s8 3 8 8-3 8-8 8-8-3-8-8zm304 176c0-5 3-8 8-8s8 3 8 8-3 8-8 8-8-3-8-8zm-64-240c0-5 3-8 8-8s8 3 8 8-3 8-8 8-8-3-8-8zM128 408c0-5 3-8 8-8s8 3 8 8-3 8-8 8-8-3-8-8zm110-160c4 8 2 18-6 22v122c0 4-4 8-8 8s-8-4-8-8V270c-2-1-4-4-6-6-3-5-3-11 0-16l-37-63c-2-4-1-9 3-11s8-1 10 3l38 63c5 0 11 3 14 8z"/></svg>