<svg version="1.1" xmlns="http://www.w3.org/2000/svg" xmlns:xlink="http://www.w3.org/1999/xlink" id="ios-lightbulb-outline" viewBox="0 0 288 512"><path d="M288 173c0 31-13 59-30 83-11 15-22 28-32 45-22 38-18 73-18 82v1H80v-1c0-7 3-44-19-82-10-17-20-30-31-45-17-24-30-52-30-83C0 95 66 32 144 32s144 63 144 141zm-49 81l6-8c16-22 27-47 27-73 0-33-16-65-40-89s-55-36-88-36-64 12-88 36-40 56-40 89c0 26 11 51 27 73l19 26c5 6 9 13 13 21 17 29 21 58 21 75h16V256l-32-64h17l31 64v112h32V256l31-64h17l-32 64v112h16c0-17 4-45 21-75 8-14 16-25 24-36 1-1 1-2 2-3zM112 480v-16h64v16h-64zm-16-32v-16h96v16H96zm0-32v-16h96v16H96z"/></svg>