<svg version="1.1" xmlns="http://www.w3.org/2000/svg" xmlns:xlink="http://www.w3.org/1999/xlink" id="ios-gear-outline" viewBox="0 0 384 512"><path d="M193 160c26 0 50 10 68 28s28 42 28 68-10 50-28 68-42 28-68 28-50-10-68-28-28-42-28-68 10-50 28-68 42-28 68-28zm0 176c44 0 80-36 80-80s-36-80-80-80-80 36-80 80 36 80 80 80zM138 83c-10 3-20 7-30 12 2 8 1 16 0 24-2 13-8 25-18 35-12 12-29 19-46 19-4 0-9 0-13-1-5 10-9 20-12 30 7 4 12 10 17 17 8 11 12 24 12 37s-4 26-12 37c-5 7-10 13-17 17 3 10 7 20 12 30 4-1 9-1 13-1 17 0 34 7 46 19 10 10 16 22 18 35 1 8 2 16 0 24 10 5 20 9 30 12 4-7 10-12 17-17 11-8 24-12 37-12s26 4 37 12c7 5 13 10 17 17 10-3 20-7 30-12-2-8-1-16 0-24 2-13 8-25 18-35 12-12 29-19 46-19 4 0 9 0 13 1 5-10 9-20 12-30-7-4-12-10-17-17-8-11-12-24-12-37s4-26 12-37c5-7 10-13 17-17-3-10-7-20-12-30-4 1-9 1-13 1-17 0-34-7-46-19-10-10-16-22-18-35-1-8-2-16 0-24-10-5-20-9-30-12-4 7-10 12-17 17-11 8-24 12-37 12s-26-4-37-12c-7-5-13-10-17-17zm100-19c20 5 40 13 57 24-8 18-5 40 10 55 10 10 22 14 35 14 7 0 14-1 20-4 11 17 19 37 24 57-19 7-32 25-32 46s14 39 32 46c-5 20-13 40-24 57-6-3-13-4-20-4-13 0-25 4-35 14-15 15-18 37-10 55-17 11-37 19-57 24-7-18-25-32-46-32s-39 14-46 32c-20-5-40-13-57-24 8-18 5-40-10-55-10-10-22-14-35-14-7 0-14 1-20 4-11-17-19-37-24-57 18-7 32-25 32-46s-13-39-32-46c5-20 13-40 24-57 6 3 13 4 20 4 13 0 25-4 35-14 15-15 18-37 10-55 17-11 37-19 57-24 7 19 25 32 46 32s39-13 46-32z"/></svg>