<svg version="1.1" xmlns="http://www.w3.org/2000/svg" xmlns:xlink="http://www.w3.org/1999/xlink" id="ios-settings" viewBox="0 0 448 512"><path d="M320 104c-9 0-16 7-16 16s7 16 16 16 16-7 16-16-7-16-16-16zm0-16c18 0 32 14 32 32s-14 32-32 32-32-14-32-32 14-32 32-32zm0 288c-9 0-16 7-16 16s7 16 16 16 16-7 16-16-7-16-16-16zm0-16c18 0 32 14 32 32s-14 32-32 32-32-14-32-32 14-32 32-32zM128 240c-9 0-16 7-16 16s7 16 16 16 16-7 16-16-7-16-16-16zm0-16c18 0 32 14 32 32s-14 32-32 32-32-14-32-32 14-32 32-32zm47 24h273v16H175c0-3 1-5 1-8s-1-5-1-8zm-95 8c0 3 1 5 1 8H0v-16h81c0 3-1 5-1 8zm287 128h81v16h-81c0-3 1-5 1-8s-1-5-1-8zm-95 8c0 3 1 5 1 8H0v-16h273c0 3-1 5-1 8zm95-280h81v16h-81c0-3 1-5 1-8s-1-5-1-8zm-94 0c0 3-1 5-1 8s1 5 1 8H0v-16h273z"/></svg>