<svg version="1.1" xmlns="http://www.w3.org/2000/svg" xmlns:xlink="http://www.w3.org/1999/xlink" id="ios-recording-outline" viewBox="0 0 480 512"><path d="M370 144c61 0 110 50 110 112s-49 112-110 112H110C49 368 0 318 0 256s49-112 110-112 110 50 110 112c0 40-21 75-53 95h146c-32-20-53-55-53-95 0-62 49-112 110-112zM16 256c0 53 42 95 94 95s93-42 93-95-41-95-93-95-94 42-94 95zm354 95c52 0 94-42 94-95s-42-95-94-95-93 42-93 95 41 95 93 95zm-2-143c-26 0-48 22-48 48s22 48 48 48 48-22 48-48-22-48-48-48zm0-16c35 0 64 29 64 64s-29 64-64 64-64-29-64-64 29-64 64-64zm-256 16c-26 0-48 22-48 48s22 48 48 48 48-22 48-48-22-48-48-48zm0-16c35 0 64 29 64 64s-29 64-64 64-64-29-64-64 29-64 64-64z"/></svg>