<svg version="1.1" xmlns="http://www.w3.org/2000/svg" xmlns:xlink="http://www.w3.org/1999/xlink" id="ios-more-outline" viewBox="0 0 320 512"><path d="M160 238c-10 0-18 8-18 18s8 18 18 18 18-8 18-18-8-18-18-18zm0-14c18 0 32 14 32 32s-14 32-32 32-32-14-32-32 14-32 32-32zM32 238c-10 0-18 8-18 18s8 18 18 18 18-8 18-18-8-18-18-18zm0-14c18 0 32 14 32 32s-14 32-32 32-32-14-32-32 14-32 32-32zm256 14c-10 0-18 8-18 18s8 18 18 18 18-8 18-18-8-18-18-18zm0-14c18 0 32 14 32 32s-14 32-32 32-32-14-32-32 14-32 32-32z"/></svg>