<svg version="1.1" xmlns="http://www.w3.org/2000/svg" xmlns:xlink="http://www.w3.org/1999/xlink" id="ios-rose" viewBox="0 0 320 512"><path d="M320 128c-77 96-16 151-16 224s-56 128-144 128S16 425 16 352s35-109 93-142c25-14 33-19 52-28 30-14 65-28 105-40 17-5 35-10 54-14zM0 96s66 15 115 43c15 8 28 18 37 29-12 6-24 12-36 19-7 4-14 8-20 12-25 16-44 31-57 42 5-41 2-98-39-145zm256-32s26 32 32 55c-33 8-84 25-121 42l-3-3c-9-11-22-22-39-32 52-60 131-62 131-62zM80 32s35 16 64 56c-12 9-23 20-33 31-26-13-40-21-61-27 5-15 15-38 30-60z"/></svg>