<svg version="1.1" xmlns="http://www.w3.org/2000/svg" xmlns:xlink="http://www.w3.org/1999/xlink" id="ios-baseball-outline" viewBox="0 0 416 512"><path d="M415 279v1c-11 97-90 174-187 183h-2c-2 0-3 1-5 1h-13C93 464 0 371 0 256v-13c0-2 1-3 1-5v-2c9-97 86-176 183-187 8-1 16-1 24-1 115 0 208 93 208 208 0 7 0 14-1 20v3zm-16-23c0-105-86-191-191-191-3 0-5 1-8 1 0 11 2 21 4 31l20-6 5 15-21 7c2 7 4 14 7 21 2 5 5 11 8 16l17-12 9 13-19 13c7 12 16 23 26 33l14-15 12 12-15 15c11 10 22 18 34 25l12-18 14 9-12 17c5 2 10 5 15 7 7 3 14 5 22 7l7-20 15 5-6 19c10 2 20 4 30 4 0-3 1-5 1-8zm-382 0c0 105 86 191 191 191h4c-1-9-1-17-3-26l-22 7-5-16 23-7c-2-8-5-16-8-24-2-5-4-9-6-14l-20 13-9-13 21-14c-7-12-16-24-26-35l-17 17-11-11 17-17c-10-10-22-18-34-25l-14 21-14-9 14-20c-5-2-10-5-15-7-7-3-15-6-23-8l-8 24-15-5 7-23c-9-2-18-2-27-3v4zm211 190c88-9 158-78 169-166-11-1-23-3-34-5l-9 27-15-5 8-25c-14-4-28-10-41-17l-15 23-13-9 14-21c-13-8-26-17-37-28l-19 19-11-11 19-19c-10-11-19-23-27-36l-21 14-9-13 22-15c-7-13-12-27-16-41l-25 8-5-16 26-8c-2-12-4-23-5-35C96 78 27 148 18 236c10 1 21 2 31 4l8-23 15 5-7 22c14 4 28 9 42 16l13-19 14 9-13 18c13 8 25 17 36 28l17-17 11 11-17 17c11 12 20 24 28 37l19-13 9 14-20 13c7 14 12 28 16 42l23-7 5 15-24 8c2 10 3 20 4 30z"/></svg>