<svg version="1.1" xmlns="http://www.w3.org/2000/svg" xmlns:xlink="http://www.w3.org/1999/xlink" id="ios-chatbubble-outline" viewBox="0 0 384 512"><path d="M192 112c-97 0-176 62-176 138 0 26 10 51 27 73 0 1 0 2 1 3s2 1 2 2c4 6 6 13 6 20 0 3 1 3-13 47l39-17c2-1 10-4 11-4h1c5-2 10-3 16-3 5 0 9 1 14 2l1 1h2c19 6 41 10 70 10 48 0 92-15 125-40 32-25 50-58 50-94 0-76-79-138-176-138zm0-16c106 0 192 69 192 154s-85 150-191 150c-27 0-52-3-75-11h-2c-3-1-6-2-10-2s-9 1-12 2h1-1c-1 0-9 4-10 4l-50 22-2 1h-6c-6-1-8-6-7-10s17-57 17-58c0-4-1-8-3-11l1 1-4-4c-19-24-30-53-30-84C0 165 86 96 192 96z"/></svg>