<svg version="1.1" xmlns="http://www.w3.org/2000/svg" xmlns:xlink="http://www.w3.org/1999/xlink" id="ios-rose-outline" viewBox="0 0 320 512"><path d="M284 153c-4 1-9 3-13 4-37 11-71 24-103 39-17 8-24 12-44 24l-7 4c-31 18-50 33-63 51-15 21-22 45-22 77 0 16 3 30 9 44 6 13 14 26 25 36 23 21 55 32 94 32s71-11 94-32c11-10 19-23 25-36 6-14 9-28 9-44 0-20-5-40-11-60-11-40-23-83 7-139zm36-25c-77 96-16 151-16 224s-56 128-144 128S16 425 16 352s35-109 93-142c25-14 33-19 52-28 30-14 65-28 105-40 17-5 35-10 54-14zm-282-5c14 28 18 57 19 83 9-7 20-13 30-20 7-4 14-9 21-13 5-3 10-6 16-9-5-4-11-7-17-11-22-13-48-23-69-30zM0 96s66 15 115 43c15 8 28 18 37 29-12 6-24 12-36 19-7 4-14 8-20 12-25 16-44 31-57 42 5-41 2-98-39-145zm249-15c-8 1-20 2-35 7-25 8-47 20-64 36 8 6 15 12 21 18 29-12 65-26 95-34-5-10-12-20-17-27zm7-17s26 32 32 55c-33 8-84 25-121 42l-3-3c-9-11-22-22-39-32 52-60 131-62 131-62zM85 54c-6 10-10 20-14 28 12 4 22 10 36 17 4-5 9-10 14-14-13-15-27-25-36-31zm-5-22s35 16 64 56c-12 9-23 20-33 31-26-13-40-21-61-27 5-15 15-38 30-60z"/></svg>