<svg version="1.1" xmlns="http://www.w3.org/2000/svg" xmlns:xlink="http://www.w3.org/1999/xlink" id="ios-analytics" viewBox="0 0 448 512"><path d="M224 32c124 0 224 100 224 224 0 13-1 25-3 37-1 6-2 12-3 17-24 98-113 170-218 170C102 480 3 382 0 261v-5c0-9 1-17 2-26C15 119 109 32 224 32zm207 248c1-8 1-16 1-24 0-28-5-55-16-81-10-25-26-47-45-66s-41-35-66-45c-26-11-53-16-81-16s-55 5-81 16c-25 10-47 26-66 45s-35 41-45 66c-11 26-16 53-16 81 14 21 29 34 29 34h1v1c1 1 15 16 36 13 12-2 27-26 38-42 4-6 9-12 12-16 17-21 34-23 45-21 24 3 45 27 54 50 7 18 18 28 32 29 15 1 31-9 43-29 1-2 3-4 4-7 9-17 24-44 52-44 31 0 52 35 53 36 3 4 9 12 16 20z"/></svg>