<svg version="1.1" xmlns="http://www.w3.org/2000/svg" xmlns:xlink="http://www.w3.org/1999/xlink" id="ios-speedometer-outline" viewBox="0 0 448 512"><path d="M224 64c124 0 224 100 224 224 0 57-21 108-56 148-4 4-7 8-11 12l-10-10-1-2c-19-18-41-33-65-43-26-11-53-16-81-16s-55 5-81 16c-24 10-46 25-65 43l-1 2-10 10c-4-4-7-8-11-12-35-40-56-91-56-148C0 164 100 64 224 64zm192 305c10-23 15-48 16-73h-32v-16h32c-1-25-6-50-16-73-9-22-23-42-39-60l-27 27-6-6-5-5h-1l27-27c-18-17-38-31-60-40-23-10-48-15-74-16v38h-16V80c-25 1-49 6-72 16-22 10-43 23-61 40l27 27-6 6-5 5-27-27c-16 18-30 38-39 60-10 23-15 49-16 74h32v16H16c1 25 6 49 16 72 9 20 20 39 35 56 40-40 96-64 157-64s117 24 157 64c15-17 26-36 35-56zm-80-194l2 1-75 84c6 8 9 18 9 28 0 26-22 48-48 48-10 0-19-4-27-9l-13 12-11-11 12-12c-6-8-9-18-9-28 0-26 22-48 48-48 10 0 19 3 27 8zM224 320c18 0 32-14 32-32s-14-32-32-32-32 14-32 32 14 32 32 32z"/></svg>