<svg version="1.1" xmlns="http://www.w3.org/2000/svg" xmlns:xlink="http://www.w3.org/1999/xlink" id="ios-pie-outline" viewBox="0 0 448 512"><path d="M256 81v219l-12 4-180 45c6 13 13 25 21 36 12 16 25 30 41 42 33 24 73 37 114 37 26 0 51-5 75-15 23-10 43-23 61-41s31-38 41-61c10-24 15-49 15-75 0-51-20-100-56-136-32-32-75-51-120-55zm-16-17c115 0 208 93 208 208s-93 208-208 208c-92 0-171-60-198-143l198-49V64zm-32-16c-31 1-60 7-85 18-24 11-44 26-61 46-29 34-46 80-46 127 0 13 3 46 12 70l180-46V48zm16-16v244L19 328C0 296 0 239 0 239 0 148 58 32 218 32h6z"/></svg>