<svg version="1.1" xmlns="http://www.w3.org/2000/svg" xmlns:xlink="http://www.w3.org/1999/xlink" id="ios-partlysunny" viewBox="0 0 384 512"><path d="M144 150V96h16v54h-16zM0 256v-16h55v16H0zm44-107l10-11 32 32-11 11zm179 31l-11-11 32-32 11 11zM56 352l-10-11 31-31 11 11zm179-128c37 0 68 26 76 61h8c36 0 65 29 65 65s-29 66-65 66H162c-28 0-52-24-52-53 0-27 21-51 47-53v-8c0-43 35-78 78-78zm-34-28l1 2c-31 5-62 43-62 75 0 2 1 5 1 7l-1 1h-1c-11 6-18 14-22 26v-1 1c-23-12-39-36-39-63 0-39 32-71 71-71 21 0 39 9 52 23z"/></svg>