<svg version="1.1" xmlns="http://www.w3.org/2000/svg" xmlns:xlink="http://www.w3.org/1999/xlink" id="ios-stopwatch-outline" viewBox="0 0 384 512"><path d="M334 147c32 35 50 80 50 128 0 104-86 189-192 189S0 379 0 275c0-48 18-94 51-129l1-1H34l-8 8-23-23 41-40 23 22-9 9v18c31-30 72-50 116-53h2V48h32v38c43 4 82 21 113 49l5 5v-19l-9-9 23-22 41 40-22 23-9-8h-18zM192 446c96 0 173-77 173-171s-77-171-173-171c-95 0-173 77-173 171s77 171 173 171zm8-189c14 4 24 17 24 31 0 15-10 26-24 30l-8 18-8-18c-14-4-24-15-24-30 0-14 12-27 24-31V128h16v129z"/></svg>