<svg version="1.1" xmlns="http://www.w3.org/2000/svg" xmlns:xlink="http://www.w3.org/1999/xlink" id="ios-basketball-outline" viewBox="0 0 416 512"><path d="M208 48c115 0 208 93 208 208s-93 208-208 208S0 371 0 256 93 48 208 48zm191 208c0-55-24-105-62-140-14 34-31 65-52 95 15 12 31 21 49 29 21 9 43 14 65 16zm-74-151c-32-25-73-40-117-40 2 22 6 44 15 65 10 25 26 47 45 66 2 1 2 3 4 4 20-29 38-60 52-93 0-1 1-1 1-2zM192 66c-51 4-96 29-128 65 64 28 121 69 169 119 11-12 21-24 30-37-40-37-67-89-71-147zm41 208c-15 16-31 30-48 44 28 35 45 79 47 127 33-4 63-17 88-35-22-50-51-95-87-136zm-19-4l8-8-10-10c-46-46-99-82-158-108-18 25-31 55-35 88 62 3 116 31 155 74 14-11 27-23 40-36zM18 248c0 3-1 5-1 8 0 45 16 87 43 120 36-16 71-36 102-60l-7-7c-19-19-41-35-66-45-22-9-46-15-71-16zm53 141c35 36 83 58 137 58 3 0 5-1 8-1-1-25-6-48-16-71-7-17-17-33-28-47-31 24-65 45-101 61zm262 11c37-32 61-77 65-128-46-3-89-21-123-48-10 13-20 26-31 38 36 41 67 87 89 138z"/></svg>