<svg version="1.1" xmlns="http://www.w3.org/2000/svg" xmlns:xlink="http://www.w3.org/1999/xlink" id="ios-body" viewBox="0 0 384 512"><path d="M144 80c0-32 16-48 48-48s48 16 48 48-16 48-48 48-48-16-48-48zm216 64c7 0 12 2 17 7s7 10 7 17-2 12-7 17-10 7-17 7h-98c-8 2-15 6-18 14-4 9-3 27 1 52l4 21v1l30 172c1 7 0 13-4 18s-8 9-15 10-13 0-18-4-9-9-10-16l-21-120v1l-2-9c-1-5-3-11-6-16s-6-8-10-8h-2c-8 0-14 11-18 33v-1l-21 120c-1 7-5 12-10 16s-11 5-18 4-11-5-15-10-5-11-4-18l30-172v-1l4-21c4-25 5-43 1-52-3-8-10-12-18-14H24c-7 0-12-2-17-7s-7-10-7-17 2-12 7-17 10-7 17-7h336z"/></svg>