<svg version="1.1" xmlns="http://www.w3.org/2000/svg" xmlns:xlink="http://www.w3.org/1999/xlink" id="ios-calculator-outline" viewBox="0 0 288 512"><path d="M32 160V96h224v64H32zm16-48v32h192v-32H48zm208-48c18 0 32 14 32 32v320c0 18-14 32-32 32H32c-18 0-32-14-32-32V96c0-18 14-32 32-32h224zm16 352V96c0-9-7-16-16-16H32c-9 0-16 7-16 16v320c0 9 7 16 16 16h224c9 0 16-7 16-16zM48 240h48v16H32v-64h16v48zm0 80h48v16H32v-64h16v48zm0 80h48v16H32v-64h16v48zm80-160h48v16h-64v-64h16v48zm80 0h48v16h-64v-64h16v48zm-80 80h48v16h-64v-64h16v48zm0 80h48v16h-64v-64h16v48zm80 0h48v16h-64V272h16v128z"/></svg>