<svg version="1.1" xmlns="http://www.w3.org/2000/svg" xmlns:xlink="http://www.w3.org/1999/xlink" id="ios-color-filter-outline" viewBox="0 0 384 512"><path d="M302 212c47 13 82 57 82 108 0 62-50 112-112 112-31 0-60-13-80-34-20 21-49 34-80 34C50 432 0 382 0 320c0-51 35-95 82-108-1-7-2-13-2-20 0-62 50-112 112-112s112 50 112 112c0 7-1 13-2 20zM96 192c0 6 0 12 1 17 5-1 10-1 15-1 31 0 60 13 80 34 20-21 49-34 80-34 5 0 10 0 15 1 1-5 1-11 1-17 0-53-43-96-96-96s-96 43-96 96zm112 128c0-6 0-12-1-17-5 1-10 1-15 1s-10 0-15-1c-1 5-1 11-1 17 0 20 6 38 16 53 10-15 16-33 16-53zm-16-32c3 0 7-1 10-1-3-7-6-14-10-20-4 6-7 13-10 20 3 0 7 1 10 1zm-26-4c4-11 9-21 16-30-18-18-43-30-70-30-3 0-7 1-10 1 10 29 34 51 64 59zm36-30c7 9 12 19 16 30 30-8 54-30 64-59-3 0-7-1-10-1-27 0-52 12-70 30zm-90 162c27 0 52-12 70-30-14-19-22-41-22-66 0-7 1-13 2-20-36-10-64-37-76-72-40 11-70 48-70 92 0 53 43 96 96 96zm160 0c53 0 96-43 96-96 0-44-30-81-70-92-12 35-40 62-76 72 1 7 2 13 2 20 0 25-8 47-22 66 18 18 43 30 70 30z"/></svg>