<svg version="1.1" xmlns="http://www.w3.org/2000/svg" xmlns:xlink="http://www.w3.org/1999/xlink" id="ios-world-outline" viewBox="0 0 416 512"><path d="M208 48c115 0 208 93 208 208s-93 208-208 208S0 371 0 256 93 48 208 48zm8 124v76h75c-1-31-5-60-11-84-21 5-42 7-64 8zm0-16c20-1 41-3 60-8-14-46-38-76-60-82v90zm-16-90c-23 6-45 36-60 82 19 5 39 7 60 8V66zm0 106c-22-1-44-3-65-8-6 24-10 53-11 84h76v-76zm-92 76c1-32 4-62 11-88-21-6-41-15-59-25-26 31-41 70-43 113h91zm0 16H17c2 43 17 82 43 113 19-10 38-19 59-25-7-26-10-56-11-88zm16 0c1 31 5 60 11 84 21-5 43-8 65-9v-75h-76zm76 92c-21 1-41 3-60 8 15 46 37 76 60 82v-90zm16 90c22-6 46-36 60-82-19-5-40-7-60-8v90zm0-107c22 1 43 4 64 9 6-24 10-53 11-84h-75v75zm92-75c-1 32-5 62-12 88 21 6 41 15 60 25 26-31 41-70 43-113h-91zm0-16h91c-2-43-17-82-43-113-19 10-38 19-59 25 7 26 10 56 11 88zm36-126c-25-25-56-44-91-52 16 17 29 43 39 74 18-6 35-13 52-22zM163 70c-35 8-67 27-91 52 16 9 34 15 52 21 10-31 23-56 39-73zM72 390c25 25 56 44 91 52-16-17-30-43-40-74-18 6-35 13-51 22zm181 52c35-8 66-27 91-52-17-9-34-16-52-22-10 31-23 57-39 74z"/></svg>