<svg version="1.1" xmlns="http://www.w3.org/2000/svg" xmlns:xlink="http://www.w3.org/1999/xlink" id="ios-heart-outline" viewBox="0 0 448 512"><path d="M327 80c69 0 121 43 121 116 0 31-13 71-41 105s-45 52-100 88-83 43-83 43-28-7-83-43-72-54-100-88S0 227 0 196C0 123 52 80 121 80c39 0 82 18 103 53 21-35 64-53 103-53zm68 211c12-14 22-31 28-49 6-16 9-31 9-46 0-30-10-56-29-74-9-8-20-15-33-19-13-5-28-7-43-7-38 0-73 18-89 45l-14 23-14-23c-16-27-51-45-89-45-15 0-30 2-43 7-13 4-24 11-33 19-19 18-29 44-29 74 0 15 3 30 9 46 6 18 16 35 28 49 27 32 42 49 97 85 40 27 65 36 74 39 9-3 34-12 74-39 55-36 70-53 97-85z"/></svg>