<svg version="1.1" xmlns="http://www.w3.org/2000/svg" xmlns:xlink="http://www.w3.org/1999/xlink" id="ios-flask-outline" viewBox="0 0 384 512"><path d="M373 370c8 16 11 32 11 46-1 36-27 64-63 64H65c-36 0-64-27-65-64 0-14 4-30 12-46l116-195V48h-16V32h32v32h48v16h-48v32h32v16h-32v32h48v16h-48v3l-2 4-15 25h49v16h-58L26 378c-13 25-14 43-2 63 9 14 23 23 41 23h256c17 0 33-8 41-22 5-8 6-17 6-26 0-12-2-25-9-38L243 183l-3-4V32h32v16h-16v127zm-329 5l72-119h153l72 119c7 11 10 24 10 33-1 24-16 40-46 40H79c-30 0-46-12-46-40 0-9 4-22 11-33zm216-103H125L58 383c-5 8-9 19-9 25 0 13 5 17 6 18 4 4 13 6 24 6h226c10 0 18-3 23-7 4-4 7-10 7-18 0-6-3-16-8-24z"/></svg>