<svg version="1.1" xmlns="http://www.w3.org/2000/svg" xmlns:xlink="http://www.w3.org/1999/xlink" id="ios-world" viewBox="0 0 416 512"><path d="M208 48c115 0 208 93 208 208s-93 208-208 208S0 371 0 256 93 48 208 48zm0 399c106 0 191-85 191-191S314 65 208 65 17 150 17 256s86 191 191 191zm66-275c6 22 9 48 10 76h-68v-68c20-1 39-4 58-8zm-58-90c20 6 41 34 54 75-17 4-36 6-54 7V82zm-71 75c13-42 35-69 55-75v82c-19-1-37-3-55-7zm188-24c-15 8-31 15-48 20-9-29-21-52-36-67 32 8 61 24 84 47zm-34 115c-1-29-4-56-10-80 19-6 37-14 54-23 23 28 38 64 40 103h-84zm-167 0c1-28 3-54 9-76 19 5 39 7 59 8v68h-68zm152 16c-1 28-4 54-10 76-19-5-38-7-58-8v-68h68zm-143 76c-6-22-8-48-9-76h68v68c-20 1-40 3-59 8zm59 90c-20-6-42-33-55-75 18-4 36-6 55-7v82zm49-4c15-15 27-38 36-67 17 5 33 11 48 19-23 23-52 40-84 48zM167 86c-15 15-27 39-36 67-16-5-33-11-48-19 22-23 52-40 84-48zm122 258c6-24 9-51 10-80h84c-2 39-17 75-40 103-17-9-35-17-54-23zm-73 4c18 1 37 3 54 7-13 42-34 69-54 75v-82zm-89-180c-6 24-11 51-11 80H33c2-39 17-75 40-103 17 9 35 17 54 23zm-11 96c1 29 4 56 10 80-19 6-36 14-53 23-23-28-38-64-40-103h83zM83 378c15-8 32-14 48-19 9 28 21 52 36 67-32-8-62-25-84-48z"/></svg>