<svg version="1.1" xmlns="http://www.w3.org/2000/svg" xmlns:xlink="http://www.w3.org/1999/xlink" id="ios-information-outline" viewBox="0 0 416 512"><path d="M184 172c0-13 7-20 20-20s20 7 20 20-7 20-20 20-20-7-20-20zm40 172h16v8h-64v-8h16V224h-16v-8h48v128zM208 48c57 0 106 20 147 61s61 90 61 147-20 106-61 147-90 61-147 61-106-20-147-61S0 313 0 256s20-106 61-147 90-61 147-61zm0 399c53 0 98-19 135-56s56-82 56-135-19-98-56-135-82-56-135-56-98 19-135 56-56 82-56 135 19 98 56 135 82 56 135 56z"/></svg>