<svg version="1.1" xmlns="http://www.w3.org/2000/svg" xmlns:xlink="http://www.w3.org/1999/xlink" id="ios-camera-outline" viewBox="0 0 384 512"><path d="M354 160c18 0 30 13 30 31v176c0 18-12 33-30 33H34c-18 0-34-15-34-33V191c0-18 16-31 34-31h13v-16h34v16h13c32-36 43-48 55-48h88c12 0 23 12 55 48h62zm14 207V191c0-9-5-15-14-15h-69l-5-3c-3-4-7-8-10-11-12-13-20-24-26-30-5-5-7-4-7-4h-88s-2 0-7 4c-6 5-14 14-25 27-3 4-7 10-11 14l-5 3H34c-9 0-18 7-18 15v176c0 9 9 17 18 17h320c8 0 14-8 14-17zM192 190c47 0 86 38 86 85s-39 85-86 85-86-38-86-85 39-85 86-85zm0 154c38 0 70-31 70-69s-32-69-70-69-70 31-70 69 32 69 70 69zm96-135v-17h17v17h-17zm-128 66c0-21 11-32 32-32s32 11 32 32-11 32-32 32-32-11-32-32z"/></svg>