<svg version="1.1" xmlns="http://www.w3.org/2000/svg" xmlns:xlink="http://www.w3.org/1999/xlink" id="ios-flame-outline" viewBox="0 0 256.0061 512"><path d="M96.006 32c87 64 170 179 159 288-13 134-104 160-127 160s-127-40-128-160c-1-146 122-143 96-288zm32 440s40-36 40-80-40-80-40-80-41 36-41 80 41 80 41 80zm111-154c5-47-10-99-41-151-22-36-50-70-83-99 0 57-24 91-49 123-26 34-50 65-50 129 0 25 5 48 15 68 8 17 20 32 35 45 8 7 16 12 23 16-9-16-18-35-18-57 0-51 44-90 46-92l11-9 11 9c2 2 45 41 45 92 0 23-9 44-19 60 7-4 13-8 20-14 14-12 25-27 34-44 11-21 17-47 20-76z"/></svg>