<svg version="1.1" xmlns="http://www.w3.org/2000/svg" xmlns:xlink="http://www.w3.org/1999/xlink" id="ios-contact-outline" viewBox="0 0 416 512"><path d="M208 48c115 0 208 93 208 208s-93 208-208 208S0 371 0 256 93 48 208 48zm0 17C103 65 17 151 17 256c0 47 17 89 45 122 18-8 62-24 90-32 2-1 3 0 3-10 0-11-1-18-4-24-4-8-7-20-9-31-4-5-10-15-14-33-3-16-1-22 1-28v-2c1-4 0-23-3-38-2-10 1-34 15-52 9-12 27-26 58-28h18c32 2 49 16 58 28 14 18 17 42 15 52-3 15-4 34-3 38 0 0 1 1 1 2 2 6 3 12 0 28-4 18-10 27-14 32-2 11-5 24-9 32-3 7-6 15-6 23 0 10 0 10 2 11 27 8 73 24 93 32 28-33 45-76 45-122 0-105-86-191-191-191z"/></svg>