<svg version="1.1" xmlns="http://www.w3.org/2000/svg" xmlns:xlink="http://www.w3.org/1999/xlink" id="ios-shuffle" viewBox="0 0 384 512"><path d="M298 207l-10-12 62-51h-46c-93 0-129 75-164 139-2 3-3 6-5 9-20 37-41 61-65 75-14 8-33 17-70 17v-16c48 0 83-14 121-84 2-3 3-6 5-9 35-65 75-147 178-147h46l-62-52 10-12 86 72zm-163 13c0 1 1 2 1 3-3 5-6 11-9 16 0-1-1-1-1-2-2-3-3-6-5-9-38-70-73-84-121-84v-16c37 0 56 9 70 17 24 14 45 38 65 75zm163 85l86 71-86 72-10-12 62-52h-46c-76 0-118-45-149-95 1-2 2-5 3-7 2-3 4-7 6-10 30 50 67 96 140 96h46l-62-51z"/></svg>