<svg version="1.1" xmlns="http://www.w3.org/2000/svg" xmlns:xlink="http://www.w3.org/1999/xlink" id="ios-cloudy-night" viewBox="0 0 384 512"><path d="M361 306c8 0 15-2 23-4-4 7-9 15-14 21-21 24-50 40-84 44h-3c4-10 7-21 7-32 0-22-9-43-24-58-14-15-33-23-53-24-6-16-16-29-29-40-10-8-20-13-32-17v-2c14-36 45-65 82-77 8-2 16-4 24-5-5 6-9 13-12 20-8 16-12 34-12 52 0 32 12 63 35 86s54 36 86 36h6zm-236-97c37 0 68 26 76 61h8c36 0 65 29 65 65s-29 66-65 66H52c-28 0-52-24-52-53 0-27 21-51 47-53v-7c0-43 35-79 78-79z"/></svg>