<svg version="1.1" xmlns="http://www.w3.org/2000/svg" xmlns:xlink="http://www.w3.org/1999/xlink" id="ios-cog-outline" viewBox="0 0 384 512"><path d="M384 273l-33 8-3 14 27 20-12 30-34-5-8 11 17 29-23 23-29-17-10 7 5 34-29 12-21-27-14 3-8 33h-32l-9-33-13-3-21 28-29-12 4-34-11-8-30 19-23-23 18-31-7-11-35 5-12-29 28-22-2-12-35-9v-32l35-9 2-12-29-22 12-30 36 5 7-10-19-32 22-22 32 19 11-8-4-35 29-13 22 29 12-2 9-35h32l9 35 12 2 22-28 29 12-5 35 11 8 30-18 22 23-17 30 7 10 35-5 12 30-28 21 3 13 33 9v32zm-28 48l-26-20 6-33 32-8v-7l-32-8-6-33 26-19-3-7-32 5-19-27 17-28-5-6-28 17-28-18 5-34-6-2-20 26-32-6-8-33h-7l-9 33-32 6-20-27-7 3 5 34-28 18-9-6-21-12-5 5 18 30-18 27-33-5-3 7 27 20-6 32-33 8v7l33 9 6 32-27 20 3 6 33-4 18 27-17 29 5 6 29-18 28 18-5 33 7 3 19-27 33 7 8 31h8l7-31 33-7 20 26 7-3-5-32 26-18 28 16 5-5-16-27 19-28 32 4zM192 128c71 0 128 57 128 128s-57 128-128 128S64 327 64 256s57-128 128-128zM80 256c0 7 1 15 2 22l104-28 28-104c-7-1-15-2-22-2-30 0-58 12-79 33s-33 49-33 79zm112 112c27 0 53-10 73-27l-75-75-104 28c6 15 15 29 27 41 21 21 49 33 79 33zm84-38c18-20 28-47 28-74 0-30-12-58-33-79-12-12-26-22-42-27l-28 105z"/></svg>