<svg version="1.1" xmlns="http://www.w3.org/2000/svg" xmlns:xlink="http://www.w3.org/1999/xlink" id="ios-football" viewBox="0 0 416 512"><path d="M208 48c115 0 208 93 208 208s-93 208-208 208S0 371 0 256 93 48 208 48zm41 394c3-1 5-1 8-2l24-64-20-39v-1H155l-20 39 25 65c2 1 5 1 7 2 12 3 25 5 38 5 14 0 30-2 44-5zM142 77c-36 14-68 38-90 69l22 64 5 2 49 23 71-60v-58zm222 69c-22-31-54-56-90-69l-58 40v58l71 60 54-24zM18 273c3 34 15 66 33 92l70 1 21-39-20-77-1-1-49-22zm277 93l70-1c18-26 30-58 33-92l-54-46-50 23-20 77z"/></svg>