<svg version="1.1" xmlns="http://www.w3.org/2000/svg" xmlns:xlink="http://www.w3.org/1999/xlink" id="ios-keypad" viewBox="0 0 384 512"><path d="M331 341c30 0 53 24 53 54s-23 53-53 53-54-23-54-53 24-54 54-54zm-139 0c30 0 53 24 53 54s-23 53-53 53-53-23-53-53 23-54 53-54zm-139 0c30 0 54 24 54 54s-24 53-54 53-53-23-53-53 23-54 53-54zm278-138c30 0 53 23 53 53s-23 53-53 53-54-23-54-53 24-53 54-53zm-139 0c30 0 53 23 53 53s-23 53-53 53-53-23-53-53 23-53 53-53zm-139 0c30 0 54 23 54 53s-24 53-54 53-53-23-53-53 23-53 53-53zm278-32c-30 0-54-24-54-54s24-53 54-53 53 23 53 53-23 54-53 54zM192 64c30 0 53 23 53 53s-23 54-53 54-53-24-53-54 23-53 53-53zM53 64c30 0 54 23 54 53s-24 54-54 54-53-24-53-54 23-53 53-53z"/></svg>