<svg version="1.1" xmlns="http://www.w3.org/2000/svg" xmlns:xlink="http://www.w3.org/1999/xlink" id="ios-game-controller-b" viewBox="0 0 448 512"><path d="M103 205c11 0 19 8 19 19s-8 19-19 19-19-8-19-19 8-19 19-19zm331 44c21 88 18 152-7 164-4 2-9 3-13 3-22 0-45-24-68-52-26-32-32-33-110-33h-24c-78 0-84 1-110 33-23 28-46 52-68 52-4 0-9-1-13-3-25-12-28-76-7-164s43-136 88-149c10-3 18-4 26-4 28 0 47 15 96 15s68-15 96-15c8 0 16 1 26 4 45 13 67 61 88 149zm-331 15c22 0 39-18 39-40s-17-40-39-40-39 18-39 40 17 40 39 40zm173-20c11 0 20-9 20-20s-9-20-20-20-20 9-20 20 9 20 20 20zm44 44c11 0 20-9 20-20s-9-20-20-20-20 9-20 20 9 20 20 20zm0-88c11 0 20-9 20-20s-9-20-20-20-20 9-20 20 9 20 20 20zm44 44c11 0 20-9 20-20s-9-20-20-20-20 9-20 20 9 20 20 20z"/></svg>