<svg version="1.1" xmlns="http://www.w3.org/2000/svg" xmlns:xlink="http://www.w3.org/1999/xlink" id="key" viewBox="0 0 192 512"><path d="M144 301c28 17 48 48 48 83 0 53-43 96-96 96S0 437 0 384c0-36 19-67 48-84 0 0 7-16 12-41 0-4 11-6 11-12v-20c0-5-7-9-7-11v-16c0-2 0-4 1-6 0-1 1-1 1-2l2-1 4-4v-1c2-2 3-4 3-6 0-1 1-8 1-9 0-3-2-6-4-8l-1-1-4-4-1-1c-2-2-3-5-3-8v-7c0-3 2-7 4-9l5-5c2-2 4-3 4-6V98c0-3-2-6-4-8v-1l-4-4-1-1c-2-2-3-5-3-8V58c0-11 0-19 9-23 3-1 14-3 23-3 20 0 30 8 32 36 0 0 7 81 9 143s7 90 7 90zM96 448c18 0 32-14 32-32s-14-32-32-32-32 14-32 32 14 32 32 32z"/></svg>