<svg version="1.1" xmlns="http://www.w3.org/2000/svg" xmlns:xlink="http://www.w3.org/1999/xlink" id="levels" viewBox="0 0 350 512"><path d="M46 99c11 5 18 16 18 29s-7 24-18 29v275c0 9-7 16-16 16s-16-7-16-16V154c-8-6-14-15-14-26s6-20 14-26V80c0-9 7-16 16-16s16 7 16 16v19zm96 194c9 6 15 16 15 27s-6 21-15 27v85c0 9-7 16-16 16s-16-7-16-16v-84c-10-5-17-16-17-28s7-23 17-28V80c0-9 7-16 16-16s16 7 16 16v213zm96-130c10 6 16 16 16 28s-6 22-16 28v213c0 9-7 16-16 16s-16-7-16-16V219c-10-6-16-16-16-28s6-22 16-28V80c0-9 7-16 16-16s16 7 16 16v83zm112 220c0 12-6 22-16 28v21c0 9-7 16-16 16s-16-7-16-16v-21c-10-6-16-16-16-28s6-22 16-28V80c0-9 7-16 16-16s16 7 16 16v275c10 6 16 16 16 28z"/></svg>