<svg version="1.1" xmlns="http://www.w3.org/2000/svg" xmlns:xlink="http://www.w3.org/1999/xlink" id="lightbulb" viewBox="0 0 256 512"><path d="M128 32c71 0 128 56 128 124 0 5 0 9-1 14s-2 11-3 16v2c-17 63-45 71-59 167v1c-2 9-10 12-20 12H83c-10 0-18-3-20-12v-1C49 259 21 251 4 188v-2c-1-5-2-11-3-16s-1-9-1-14C0 88 57 32 128 32zm62 364v1c-2 3-3 4-3 7s1 5 3 8v1c1 2 2 3 2 5s-1 4-2 6v1c-2 3-3 4-3 7s1 5 3 8v1c1 2 2 4 2 6 0 5-4 9-10 11h-1c-6 1-13 2-19 3h-2c-6 1-11 5-14 9-4 5-10 10-18 10s-15-6-19-11c-3-4-7-7-13-8h-2c-6-1-13-2-19-3h-1c-6-2-10-6-10-11 0-2 1-4 2-6v-1c2-2 3-4 3-7s-1-5-3-8v-1c-1-2-2-4-2-6s1-3 2-5v-1c2-3 3-5 3-8s-1-4-3-7v-1c-1-2-2-4-2-6 0-4-1-6 7-6h114c8 0 7 2 7 6 0 2-1 4-2 6z"/></svg>