<svg version="1.1" xmlns="http://www.w3.org/2000/svg" xmlns:xlink="http://www.w3.org/1999/xlink" id="load-d" viewBox="0 0 384 512"><path d="M368 240c9 0 16 7 16 16s-7 16-16 16h-80c-9 0-16-7-16-16s7-16 16-16h80zm-256 16c0 9-7 16-16 16H16c-9 0-16-7-16-16s7-16 16-16h80c9 0 16 7 16 16zm80 80c9 0 16 7 16 16v80c0 9-7 16-16 16s-16-7-16-16v-80c0-9 7-16 16-16zm0-272c9 0 16 7 16 16v80c0 9-7 16-16 16s-16-7-16-16V80c0-9 7-16 16-16zm69 152c-4-8-2-18 6-22l69-40c8-4 18-2 22 6s2 18-6 22l-69 40c-8 4-18 2-22-6zm-138 80c4 8 2 18-6 22l-69 40c-8 4-18 2-22-6s-2-18 6-22l69-40c8-4 18-2 22 6zm131 35l40 69c4 8 2 18-6 22s-18 2-22-6l-40-69c-4-8-2-18 6-22s18-2 22 6zM118 96l40 69c4 8 2 18-6 22s-18 2-22-6l-40-69c-4-8-2-18 6-22s18-2 22 6zm114 91c-8-4-10-14-6-22l40-69c4-8 14-10 22-6s10 14 6 22l-40 69c-4 8-14 10-22 6zm-80 138c8 4 10 14 6 22l-40 69c-4 8-14 10-22 6s-10-14-6-22l40-69c4-8 14-10 22-6zm200 5c8 4 10 14 6 22s-14 10-22 6l-69-40c-8-4-10-14-6-22s14-10 22-6zM32 182c-8-4-10-14-6-22s14-10 22-6l69 40c8 4 10 14 6 22s-14 10-22 6z"/></svg>