<svg version="1.1" xmlns="http://www.w3.org/2000/svg" xmlns:xlink="http://www.w3.org/1999/xlink" id="load-b" viewBox="0 0 448 512"><path d="M256 160c0 18-14 32-32 32s-32-14-32-32V64c0-18 14-32 32-32s32 14 32 32v96zm-32 160c18 0 32 14 32 32v96c0 18-14 32-32 32s-32-14-32-32v-96c0-18 14-32 32-32zm192-96c18 0 32 14 32 32s-14 32-32 32h-96c-18 0-32-14-32-32s14-32 32-32h96zm-288 0c18 0 32 14 32 32s-14 32-32 32H32c-18 0-32-14-32-32s14-32 32-32h96zm186-13c-12 12-33 12-45 0s-12-34 0-46l68-67c12-12 33-12 45 0s12 33 0 45zm-135 90c12 12 12 33 0 46l-68 67c-12 12-33 12-45 0s-12-33 0-45l67-68c12-12 34-12 46 0zm203 68c12 12 12 33 0 45s-33 12-45 0l-68-68c-12-12-12-33 0-45s33-12 45 0zM179 166c12 12 12 33 0 45s-34 12-46 0l-67-68c-12-12-12-33 0-45s33-12 45 0z"/></svg>