<svg version="1.1" xmlns="http://www.w3.org/2000/svg" xmlns:xlink="http://www.w3.org/1999/xlink" id="load-a" viewBox="0 0 384 512"><path d="M144 96c0-43 21-64 64-64s64 21 64 64-21 64-64 64-64-21-64-64zM0 256c0-32 16-48 48-48s48 16 48 48-16 48-48 48-48-16-48-48zm312-112c0-5 3-8 8-8s8 3 8 8-3 8-8 8-8-3-8-8zm-180-36c10 10 15 22 15 36s-5 26-15 36-22 15-36 15-26-5-36-15-15-22-15-36 5-26 15-36 22-15 36-15 26 5 36 15zm220 148c0-11 5-16 16-16s16 5 16 16-5 16-16 16-16-5-16-16zm-55 113c0-16 8-24 24-24s24 8 24 24-8 24-24 24-24-8-24-24zm-121 47c0-21 11-32 32-32s32 11 32 32-11 32-32 32-32-11-32-32zM56 368c0-27 13-40 40-40s40 13 40 40-13 40-40 40-40-13-40-40z"/></svg>