<svg version="1.1" xmlns="http://www.w3.org/2000/svg" xmlns:xlink="http://www.w3.org/1999/xlink" id="load-c" viewBox="0 0 448.2548 512"><path d="M448.255 226c0 3 0 6-1 9-4 8-15 12-23 7-4-2-6-7-7-11-1-5-1-9-2-14-4-20-12-40-22-58-12-21-28-41-47-56-18-15-40-26-62-33-21-6-42-9-64-9h-4c-3 0-6 1-9 1-6 0-14 1-20 2-13 2-25 6-37 11-21 8-40 20-57 35s-31 33-42 52c-12 22-20 45-24 70-2 11-2 23-2 34 0 6 0 11 1 16 1 6 2 13 3 19 5 24 14 47 28 67 13 20 29 38 48 52 20 15 42 26 65 33 25 7 50 9 76 7 25-2 50-9 73-20 11-5 22-12 32-19s19-15 27-24c4-4 8-9 12-14s7-10 10-15c6-10 12-20 17-31 4-8 8-16 11-25 2-4 3-9 4-13s1-7 2-11c1 9 1 18-1 26-1 5-2 11-4 16-1 5-3 10-5 15-4 10-8 19-13 28-6 11-12 21-20 30s-16 18-25 26c-18 15-40 27-62 36-23 9-48 14-73 15s-51-3-75-11c-23-7-45-19-65-33-19-14-36-31-50-50-7-10-13-20-18-31s-9-21-13-33c-6-18-9-37-10-56-1-20 1-39 5-58 5-24 15-47 28-68 12-19 26-35 42-50s35-27 55-36c23-11 48-19 74-21 10-1 19-1 29-1 13 0 26 2 38 4 24 5 47 14 68 26s41 29 57 48c15 18 27 37 36 58 4 10 7 21 10 32 2 8 5 17 6 26z"/></svg>