<svg version="1.1" xmlns="http://www.w3.org/2000/svg" xmlns:xlink="http://www.w3.org/1999/xlink" id="lock-combination" viewBox="0 0 384 512"><path d="M320 177c39 35 64 86 64 143 0 106-86 192-192 192S0 426 0 320c0-57 25-108 64-143v-49C64 57 121 0 192 0s128 57 128 128v49zM96 128v26c28-16 61-26 96-26s68 10 96 26v-26c0-53-43-96-96-96s-96 43-96 96zm96 352c88 0 160-72 160-160s-72-160-160-160S32 232 32 320s72 160 160 160zm0-304c80 0 144 64 144 144s-64 144-144 144S48 400 48 320s64-144 144-144zm123 177c2-9 4-18 4-29h-7v-7h8c0-11-2-20-5-30l-25 7-4-12 25-8c-4-10-8-18-14-26l-11 8-4-6 11-8c-6-8-13-16-21-22l-15 21-11-8 15-20c-8-6-17-11-27-14l-4 13-6-2 5-13c-9-3-20-5-29-5v19h-16v-19c-11 1-19 2-29 5l4 12-6 2-4-12c-10 3-19 8-27 14l15 20-10 8-15-21c-8 6-16 14-22 22l11 8-4 5-10-8c-6 8-10 17-14 27l24 8-5 12-25-7c-3 10-3 19-3 30h6v7h-5c0 11 2 20 4 29l24-7 4 12-24 8c4 10 8 19 14 27l9-7 4 5-9 7c6 8 13 16 21 22l15-21 10 8-15 20c8 5 17 11 27 14l3-11 7 2-4 11c10 3 18 4 29 5v-19h16v19c9-1 19-2 29-5l-5-12 6-2 4 12c10-3 19-8 27-14l-15-20 11-8 15 21c8-6 15-14 21-22l-11-7 4-6 10 8c6-8 11-17 15-27l-25-8 4-12zm-204-33c0-54 27-81 81-81s81 27 81 81-27 81-81 81-81-27-81-81z"/></svg>