<svg version="1.1" xmlns="http://www.w3.org/2000/svg" xmlns:xlink="http://www.w3.org/1999/xlink" id="magnet" viewBox="0 0 384 512"><path d="M192 32c115 0 192 78 192 200 0 49-3 77-15 128-16 66-39 113-39 113v1c-2 3-6 6-10 6-1 0-3-1-4-1l-2-1-50-20-2-1c-3-2-5-5-5-9 0-1 0-3 1-4v-1c7-16 27-59 37-101s13-63 13-108c0-71-52-122-116-122S76 163 76 234c0 45 3 66 13 108s30 85 37 101v1c1 1 1 3 1 4 0 4-2 7-5 9l-2 1-50 20-2 1c-1 0-3 1-4 1-4 0-8-3-10-6v-1s-24-47-40-113C2 309 0 281 0 232 0 110 77 32 192 32zm-83 412c-9-19-27-59-36-98l-42 12c13 53 30 92 35 104l43-17v-1zm208 18c5-12 23-51 36-104l-43-12c-9 39-26 79-35 98v1z"/></svg>