<svg version="1.1" xmlns="http://www.w3.org/2000/svg" xmlns:xlink="http://www.w3.org/1999/xlink" id="map" viewBox="0 0 448 512"><path d="M441 137c4 3 7 8 7 14v281c0 6-2 11-7 14-2 1-5 2-7 2-3 0-6 0-8-2l-97-66-97 66c-5 3-10 3-15 0l-97-66-97 66c-5 3-10 3-15 0s-8-8-8-14V151c0-6 3-11 7-14l105-71c5-3 10-3 15 0l97 66 98-66c5-3 10-3 15 0zM103 353V111l-71 50v242zm32 0l73 49V273l-4 11c-7-2-13-6-20-10l8-13c5 3 11 6 16 8V160l-73-49v101c4 2 9 4 13 7l-10 13c-1-1-2-1-3-2v123zm105 49l73-49V244c0 1-1 1-1 2l-6 6-12-11 6-6c3-3 5-7 8-10l5 5V111l-73 49v112h7l3 15c-3 0-6 1-9 1h-1v114zm176 0V160l-71-49v88c3-1 5-1 8-2l4 16c-4 1-8 1-12 3v137zM97 221c-3 1-11 5-14 7l-11-12c4-3 8-6 12-8 3-2 6-3 9-4l5 15c-2 1 1 1-1 2zm168 45c5-3 10-5 15-10l11 12c-6 6-12 10-19 13zM67 256v1l-15-5v-1c2-7 4-13 9-20l13 9c-4 5-5 10-7 16zm99-18c3 4 7 8 11 11l-11 12c-4-4-8-9-12-13l-3-3 12-11c1 1 2 3 3 4zm210-8l-11-12 10-10-10-10 11-12 10 11 11-11 11 12-10 10 10 10-11 12-11-11z"/></svg>