<svg version="1.1" xmlns="http://www.w3.org/2000/svg" xmlns:xlink="http://www.w3.org/1999/xlink" id="merge" viewBox="0 0 384 512"><path d="M320 224c35 0 64 29 64 64s-29 64-64 64c-24 0-44-13-55-32h-10c-61 0-115-25-159-74v115c19 11 32 31 32 55 0 35-29 64-64 64S0 451 0 416c0-24 13-44 32-55V151C13 140 0 120 0 96c0-35 29-64 64-64s64 29 64 64c0 19-8 37-22 49 4 9 17 35 37 58 32 35 70 53 112 53h10c11-19 31-32 55-32zM64 64c-18 0-32 14-32 32s14 32 32 32 32-14 32-32-14-32-32-32zm0 384c18 0 32-14 32-32s-14-32-32-32-32 14-32 32 14 32 32 32zm256-128c18 0 32-14 32-32s-14-32-32-32-32 14-32 32 14 32 32 32z"/></svg>