<svg version="1.1" xmlns="http://www.w3.org/2000/svg" xmlns:xlink="http://www.w3.org/1999/xlink" id="mic-b" viewBox="0 0 160 512"><path d="M80 32c35 0 65 23 76 59 6 18 4 45 2 55s-8 20-14 28c-3 4-7 7-11 9-1 0-1 1-2 1-3 1-6 2-10 3-12 3-25 5-39 5h-2c-14 0-29-2-41-5-4-1-7-2-10-3-1 0-1-1-2-1-4-2-8-5-11-9-6-8-12-18-14-28s-4-37 2-55c11-36 41-59 76-59zm39 169c6 0 12 5 12 12v2c-5 67-18 241-19 252 0 0-3 13-32 13s-32-13-32-13c-1-11-13-185-18-252v-2c0-7 5-12 11-12h1c1 0 1 1 2 1 2 0 4 1 6 1 9 2 21 2 31 2s20 0 29-2c2 0 4-1 6-1 1 0 1-1 2-1h1zm-29 81v-33c0-6-4-11-10-11s-10 5-10 11v33c0 6 4 11 10 11s10-5 10-11z"/></svg>