<svg version="1.1" xmlns="http://www.w3.org/2000/svg" xmlns:xlink="http://www.w3.org/1999/xlink" id="model-s" viewBox="0 0 512 512"><path d="M509 391v12c0 3-1 5-1 7-1 12-2 18-6 20-3 2-6 2-10 2h-43s-10-1-11-16v-8c20-1 39-1 52 0 10 0 13 0 16-6 2-3 2-7 3-11zM3 391c1 4 1 8 3 11 3 6 6 6 16 6 13-1 32-1 52 0v8c-1 15-8 16-11 16H20s-7 0-10-2c-4-2-6-8-7-20v-19zm509-94c0 31-2 58-2 68 0 4 0 11-1 18-1 4-1 8-3 11-3 6-6 6-16 6-13-1-32-1-52 0-13 0-27 2-39 2-30 1-21-4-34-4s-63 2-109 2-97-2-110-2-4 5-34 4c-12 0-25-2-38-2-20-1-39-1-52 0-10 0-13 0-16-6-2-3-2-7-3-11-1-7-1-14-1-18 0-10-2-37-2-68s4-61 6-64c1-2 8-9 26-21s17-10 20-18c-3-1-5-3-7-3-4 0-4 3-12 3s-24-1-28-5c-4-3-5-5-5-8s2-9 5-13 19-6 27-7 10 0 12 1c4 2 3 22 3 22l9 1c5-13 12-41 24-62 13-23 26-30 32-32s10-2 48-6 69-5 96-5 58 1 96 5 42 4 48 6 19 9 32 32c12 21 19 49 24 62l9-1s-1-20 3-22c2-1 4-2 12-1s24 3 27 7 5 10 5 13-1 4-5 8-20 5-28 5-8-3-12-3c-2 0-4 2-7 3 3 8 2 6 20 18s25 19 26 21c2 3 6 33 6 64zM86 145c-5 11-11 33-10 36s-1 5 15 4 117-3 165-3 149 2 165 3 14-1 15-4-5-25-10-36-17-31-26-37c-2-1-17-7-54-9-34-2-72-3-90-3s-56 1-90 3c-37 2-52 8-54 9-7 4-21 26-26 37zm37 125c7-2 11-2 11-2s-17-16-48-25-49-11-66-10c0 0-3 16 0 27s8 10 16 12 13 5 16 4 7-4 12-4 29 4 38 4 14-4 21-6zm235 79c15-2 34-19 21-33-18-19-15-19-55-24-35-4-61-4-68-4s-33 0-68 4c-40 5-37 5-55 24-13 14 6 31 21 33 14 2 74 3 102 3s88-1 102-3zm134-89c3-11 0-27 0-27-17-1-35 1-66 10s-48 26-48 26 4-1 11 1 12 6 21 6 33-4 38-4 9 3 12 4 8-2 16-4 13-1 16-12z"/></svg>