<svg version="1.1" xmlns="http://www.w3.org/2000/svg" xmlns:xlink="http://www.w3.org/1999/xlink" id="mouse" viewBox="0 0 256 512"><path d="M128 32h-1 5-4zm123 161c2-1 2-1 4-1h1v176c0 37-21 71-53 91-5 3-9 5-14 7v1c-18 9-39 13-61 13C57 480 0 430 0 368V192h1c2 0 3 0 5 1 34 13 76 23 122 23s88-10 122-23h1zm-62 273c5-2 10-4 14-7-5 3-9 5-14 7v1-1zm14-7c-4 3-9 5-14 7 5-2 9-4 14-7zM132 32c69 2 124 51 124 112v23c-2 2-4 4-6 5-1 1-3 0-4 1-23 10-50 16-82 19h-3c-11 0-17 0-17-10V96c0-9-7-16-16-16s-16 7-16 16v85c0 11-6 11-17 11h-2c-32-3-61-9-84-19-1 0-1-1-2-1-3-1-5-3-7-5v-23C0 83 57 33 127 32h5z"/></svg>