<svg version="1.1" xmlns="http://www.w3.org/2000/svg" xmlns:xlink="http://www.w3.org/1999/xlink" id="network" viewBox="0 0 384 512"><path d="M384 96c0 24-13 44-32 55v93l-128 64v53c19 11 32 31 32 55 0 35-29 64-64 64s-64-29-64-64c0-24 13-44 32-55v-53L32 244v-93C13 140 0 120 0 96c0-35 29-64 64-64s64 29 64 64c0 24-13 44-32 55v53l96 48 96-48v-53c-19-11-32-31-32-55 0-35 29-64 64-64s64 29 64 64zM64 64c-18 0-32 14-32 32s14 32 32 32 32-14 32-32-14-32-32-32zm128 384c18 0 32-14 32-32s-14-32-32-32-32 14-32 32 14 32 32 32zm128-320c18 0 32-14 32-32s-14-32-32-32-32 14-32 32 14 32 32 32z"/></svg>