<svg version="1.1" xmlns="http://www.w3.org/2000/svg" xmlns:xlink="http://www.w3.org/1999/xlink" id="no-smoking" viewBox="0 0 448 512"><path d="M328 304v-48h16v48h-16zm-248 0v-48h90l48 48H80zM332 60c69 38 116 112 116 196 0 124-100 224-224 224-24 0-47-4-68-11-2-1-3-1-5-2-12-4-24-9-35-15h-1C46 414 0 340 0 256 0 132 100 32 224 32c24 0 47 4 68 11 2 1 3 1 5 2 12 4 24 9 35 15zM224 426c37 0 72-12 100-32L86 156c-20 28-32 63-32 100 0 65 36 121 90 150 6 3 13 7 19 9 2 1 3 1 5 2 9 3 19 5 29 7 9 2 18 2 27 2zm138-71c20-28 32-62 32-99 0-66-37-123-91-151-6-3-12-6-18-8-2-1-3-1-5-2-9-3-19-5-29-7-9-2-18-2-27-2-37 0-71 12-99 32zm-42-57l-42-42h42v42zm32 6v-48h16v48h-16zm-24-91c16 7 16 27 16 34v1h-16v-1c0-8-1-17-7-20-4-2-13-4-39-4h-3c-13 0-24 0-33-13-5-8-5-19-2-29-4-1-8-1-12-3-17-7-26-20-26-38 0-33 27-44 39-44v16c-1 0-23 2-23 28 0 11 5 19 16 23 9 4 18 3 18 3 3 0 6 2 7 5s2 6 0 8c-5 7-7 18-4 22 4 6 7 6 20 6h3c24 0 37 2 46 6zm40 35h-16c0-28-4-41-7-46-6-10-14-14-25-14h-30c-3 0-5-2-6-4s-1-6 0-8c0 0 8-18 6-32-1-8-6-17-27-17v-16c24 0 40 11 43 30 2 11 0 23-3 31h17c16 0 30 8 39 22 6 10 9 28 9 54z"/></svg>