<svg version="1.1" xmlns="http://www.w3.org/2000/svg" xmlns:xlink="http://www.w3.org/1999/xlink" id="nuclear" viewBox="0 0 448 512"><path d="M176 272c0-32 16-48 48-48s48 16 48 48-16 48-48 48-48-16-48-48zm0 0c0-32 16-48 48-48s48 16 48 48-16 48-48 48-48-16-48-48zm272 0c0 27-5 53-15 78s-23 47-40 66-36 35-59 48l-79-136c22-12 33-31 33-56h160zm-224-64c-12 0-23 3-33 9L111 79c35-20 73-31 113-31s78 10 113 30l-81 139c-10-6-21-9-32-9zm-64 64c0 25 11 44 33 56l-79 136c-35-20-62-46-83-80S0 313 0 272h160z"/></svg>