<svg version="1.1" xmlns="http://www.w3.org/2000/svg" xmlns:xlink="http://www.w3.org/1999/xlink" id="outlet" viewBox="0 0 448 512"><path d="M338 32c61 0 110 51 110 113v222c0 62-49 113-110 113H110C49 480 0 429 0 367V145C0 83 49 32 110 32h228zM143 251V149c0-11-9-21-20-21h-23c-11 0-19 9-20 20v104c0 11 9 20 20 20h23c11 0 20-9 20-20v-1zm122 145v-29c0-23-18-42-41-42s-41 19-41 42v29c0 11 9 20 20 20h42c11 0 20-7 20-18v-2zm103-145V149c0-11-9-21-20-21h-24c-11 0-19 9-20 20v104c0 11 9 20 20 20h24c11 0 20-9 20-20v-1z"/></svg>