<svg version="1.1" xmlns="http://www.w3.org/2000/svg" xmlns:xlink="http://www.w3.org/1999/xlink" id="paperclip" viewBox="0 0 160 512"><path d="M149 155c6 0 11 5 11 12v195c0 28-10 49-24 63-15 15-36 23-56 23-40 0-80-31-80-88V126c0-24 11-44 29-54s39-11 57 0 29 30 29 54l-1 225c0 13-3 24-9 32s-16 12-25 12c-17 0-34-15-34-44V178c0-6 6-12 12-12s11 6 11 12v173c0 14 5 21 11 21 2 0 5-2 7-4 3-4 5-10 5-17V126c0-15-6-28-17-34s-24-6-35 0-17 19-17 34v234c0 44 29 64 57 64s57-19 57-63V166c0-6 6-11 12-11z"/></svg>