<svg version="1.1" xmlns="http://www.w3.org/2000/svg" xmlns:xlink="http://www.w3.org/1999/xlink" id="person-stalker" viewBox="0 0 448 512"><path d="M393 325c42 16 52 26 53 33 2 9 2 90 2 90h-98c0-18 0-71-1-77-1-10-1-29-55-50-8-3-14-5-19-7 18-8 15-15 15-28 0-19-9-11-15-47-2-14-4-5-9-28-3-12 1-12 1-18s-1-10-2-22c-1-14 11-52 57-52s59 38 58 52c-1 12-2 16-2 22-1 6 4 6 1 18-5 23-7 14-9 28-6 36-16 28-16 47 0 29-2 23 39 39zm-68 123H0s0-65 2-77c2-10 15-22 69-43 54-20 50-17 50-55 0-24-12-8-20-54-3-18-5-7-11-36-3-15 2-16 1-23s-2-14-3-29c-2-19 15-67 74-67s77 49 75 67c-1 15-2 22-3 29s5 8 2 23c-6 29-9 18-12 36-8 46-20 30-20 54 0 32-2 36 31 48 6 2 11 4 19 7 54 21 67 33 69 43 1 6 2 28 2 47v30z"/></svg>