<svg version="1.1" xmlns="http://www.w3.org/2000/svg" xmlns:xlink="http://www.w3.org/1999/xlink" id="pizza" viewBox="0 0 352 512"><path d="M315 130c10 4 12 13 9 20L176 480S33 160 28 149s2-16 9-19c39-18 90-28 139-28s96 9 139 28zm-203 62c18 0 32-14 32-32s-14-32-32-32-32 14-32 32 14 32 32 32zm64 147c18 0 32-14 32-32s-14-32-32-32-32 14-32 32 14 32 32 32zm64-115c18 0 32-14 32-32s-14-32-32-32-32 14-32 32 14 32 32 32zM342 66c6 3 10 6 10 13 0 1 0 3-1 5l-8 19c-3 5-8 9-14 9-1 0-3-1-6-2-41-18-95-30-147-30S74 91 29 110c-3 1-4 2-6 2-6 0-11-4-14-9L1 84s-1-2-1-5c0-8 6-12 10-14 49-21 107-33 166-33s118 13 166 34z"/></svg>