<svg version="1.1" xmlns="http://www.w3.org/2000/svg" xmlns:xlink="http://www.w3.org/1999/xlink" id="planet" viewBox="0 0 512 512"><path d="M96 266c39 24 85 48 134 69 44 19 87 35 126 46-27 22-62 35-100 35-85 0-155-66-160-150zm11-69c1-4 3-8 5-11 10-21 26-40 44-55 27-22 62-35 100-35 85 0 155 66 160 150v10c0 21-4 41-11 59-1 4-3 8-5 11-6-1-13-3-19-5-39-11-82-26-126-45-56-24-108-52-148-79zm323 88c57 35 87 62 81 82-4 12-19 17-44 17-50 0-136-23-231-64C95 259-10 180 1 145c4-12 20-20 44-17 22 3 47 9 73 18-8 9-8 12-14 22-23-5-44-8-59-8h-6c2 2 5 6 8 9 11 11 27 24 46 37 41 29 97 59 156 85 44 19 89 35 128 46 36 10 68 15 90 15h6c-2-2-5-6-8-9-10-10-24-22-41-34 4-11 5-12 6-24z"/></svg>