<svg version="1.1" xmlns="http://www.w3.org/2000/svg" xmlns:xlink="http://www.w3.org/1999/xlink" id="power" viewBox="0 0 448 512"><path d="M224 256c-18 0-32-14-32-32V64c0-18 14-32 32-32s32 14 32 32v160c0 18-14 32-32 32zM347 69c61 40 101 109 101 187 0 124-100 224-224 224S0 380 0 256c0-78 40-147 101-187 5-3 11-5 17-5 18 0 32 14 32 32 0 6-2 12-5 17-2 3-4 6-7 8-1 1-3 2-4 3-8 6-16 12-23 19-30 30-47 70-47 113s17 83 47 113 70 47 113 47 83-17 113-47 47-70 47-113-17-83-47-113c-7-7-15-13-23-19-1-1-3-2-4-3-3-2-5-5-7-8-3-5-5-11-5-17 0-18 14-32 32-32 6 0 12 2 17 5z"/></svg>