<svg version="1.1" xmlns="http://www.w3.org/2000/svg" xmlns:xlink="http://www.w3.org/1999/xlink" id="pricetags" viewBox="0 0 448 512"><path d="M440 239c10 11 11 28 0 39l-29 29c11-11 10-28 0-39L221 77l-1-1h-1c-8-7-16-12-27-12l-90-3h-4c-9 0-19 3-26 10l28-27c8-8 17-12 27-12h4l90 4c11 0 19 4 27 11h1l1 1 190 191zm-44 43c11 11 11 29 0 40L288 431v-1l-26 27-2 2-13 13c-10 10-26 10-37 1l-3-3L21 282l-5-5c-5-6-9-14-10-22v-2l-6-88v-4c0-11 4-21 12-29l44-45 1-1 1-1c7-6 17-9 26-9h4l90 3c11 0 19 4 27 11l2 1 189 191zM79 140c-12 8-21 21-21 37 0 24 19 43 43 43 16 0 29-9 37-21 4-7 7-14 7-22 0-24-20-44-44-44-8 0-15 3-22 7z"/></svg>