<svg version="1.1" xmlns="http://www.w3.org/2000/svg" xmlns:xlink="http://www.w3.org/1999/xlink" id="pull-request" viewBox="0 0 384 512"><path d="M64 64c35 0 64 29 64 64 0 24-13 44-32 55v178c19 11 32 31 32 55 0 35-29 64-64 64S0 451 0 416c0-24 13-44 32-55V183c-19-11-32-31-32-55 0-35 29-64 64-64zm0 384c18 0 32-14 32-32s-14-32-32-32-32 14-32 32 14 32 32 32zm0-288c18 0 32-14 32-32S82 96 64 96s-32 14-32 32 14 32 32 32zm287 200c20 11 33 32 33 56 0 35-29 64-64 64s-64-29-64-64c0-23 12-44 31-55V205c0-16-4-26-11-33-10-9-26-12-52-12v64l-96-96 96-96v64c42-1 74 8 96 29 21 19 31 46 31 80v155zm-31 88c18 0 32-14 32-32s-14-32-32-32-32 14-32 32 14 32 32 32z"/></svg>