<svg version="1.1" xmlns="http://www.w3.org/2000/svg" xmlns:xlink="http://www.w3.org/1999/xlink" id="radio-waves" viewBox="0 0 448 512"><path d="M160 256c0-43 21-64 64-64s64 21 64 64-21 64-64 64-64-21-64-64zm-48 0c0 18 5 35 13 50s19 28 33 37l-23 25c-6-5-13-10-18-16-25-26-37-59-37-96s12-70 37-96c5-6 12-11 18-16l23 25c-14 9-25 22-33 37s-13 32-13 50zm224 0c0-18-5-35-13-50s-19-28-33-37l23-25c6 5 13 10 18 16 25 26 37 59 37 96s-12 70-37 96c-5 6-12 11-18 16l-23-25c14-9 25-22 33-37s13-32 13-50zm-304 0c0 27 6 53 17 77s27 43 47 59l-23 24c-6-5-12-10-17-16-18-19-31-41-41-65-10-25-15-51-15-79s5-54 15-79c10-24 23-46 41-65 5-6 11-11 17-16l23 24c-10 8-18 17-26 27s-14 21-20 32-10 24-13 37-5 26-5 40zm384 0c0-27-6-53-17-77s-27-43-47-59l23-24c6 5 12 10 17 16 18 19 31 41 41 65 10 25 15 51 15 79s-5 54-15 79c-10 24-23 46-41 65-4 5-10 10-17 16l-23-24c20-16 36-35 47-59s17-50 17-77z"/></svg>