<svg version="1.1" xmlns="http://www.w3.org/2000/svg" xmlns:xlink="http://www.w3.org/1999/xlink" id="sad-outline" viewBox="0 0 448 512"><path d="M367 284c3 9-2 17-11 19-3 1-7 0-10-1-5-2-9-5-11-10s-4-12-13-15-14 0-19 3c-4 3-10 3-15 1-3-1-7-3-9-6-6-8-3-17 5-22 15-9 29-13 49-6s29 21 34 37zm-202-31c8 5 10 14 4 22-2 3-6 5-9 6-5 2-11 2-15-1-5-3-10-6-19-3s-11 10-13 15-6 8-11 10c-3 1-7 2-10 1-9-2-14-10-11-19 5-16 14-30 34-37s35-3 50 6zm59-221c124 0 224 100 224 224S348 480 224 480 0 380 0 256 100 32 224 32zm136 360c36-36 56-85 56-136s-20-100-56-136-85-56-136-56-100 20-136 56-56 85-56 136 20 100 56 136 85 56 136 56 100-20 136-56zm-43-33c5 7 3 17-4 22-3 2-6 3-9 3-5 0-10-3-13-7 0 0-19-25-67-25s-67 25-67 25c-3 4-8 7-13 7-3 0-6-1-9-3-7-5-9-15-4-22 1-2 28-39 93-39s92 37 93 39z"/></svg>