<svg version="1.1" xmlns="http://www.w3.org/2000/svg" xmlns:xlink="http://www.w3.org/1999/xlink" id="sad" viewBox="0 0 448 512"><path d="M224 32c124 0 224 100 224 224S348 480 224 480 0 380 0 256 100 32 224 32zM113 292c2-5 4-12 13-15s14 0 19 3c4 3 10 3 15 1 3-1 7-3 9-6 6-8 4-17-4-22-15-9-30-13-50-6s-29 21-34 37c-3 9 2 17 11 19 3 1 7 0 10-1 5-2 9-5 11-10zm200 89c7-5 9-15 4-22-1-2-28-39-93-39s-92 37-93 39c-5 7-3 17 4 22 3 2 6 3 9 3 5 0 10-3 13-7 0 0 19-25 67-25s67 25 67 25c3 4 8 7 13 7 3 0 6-1 9-3zm43-78c9-2 14-10 11-19-5-16-14-30-34-37s-34-3-49 6c-8 5-11 14-5 22 2 3 6 5 9 6 5 2 11 2 15-1 5-3 10-6 19-3s11 10 13 15 6 8 11 10c3 1 7 2 10 1z"/></svg>