<svg version="1.1" xmlns="http://www.w3.org/2000/svg" xmlns:xlink="http://www.w3.org/1999/xlink" id="scissors" viewBox="0 0 384 512"><path d="M341 116c-13 33-117 172-117 172l-32 32s-31 13-50 43-33 71-33 71c-7 26-28 46-53 46-31 0-56-29-56-64s25-64 56-64c13 0 25 5 34 13 2 1 3 3 4 4l2 2c4 4 7 2 14-11 8-15 17-35 27-54s38-59 38-59l17-23L336 32c23 20 18 51 5 84zM56 448c15 0 28-14 28-32s-13-32-28-32-28 14-28 32 13 32 28 32zm136-160c9 0 16-7 16-16s-7-16-16-16-16 7-16 16 7 16 16 16zm-49-23c-30-41-90-125-100-149-13-33-18-64 5-84l134 178-3 4-17 23v1c-1 1-10 13-19 27zm185 87c31 0 56 29 56 64s-25 64-56 64c-25 0-47-20-54-46s-13-41-32-71c-11-17-26-28-36-35l29-29 1-1h1c1-1 1-2 2-4 3 4 5 9 7 12 10 19 20 39 28 54 7 13 10 15 14 11 1-1 0-1 1-2h1c1-1 2-3 4-4 9-8 21-13 34-13zm0 96c15 0 28-14 28-32s-13-32-28-32-28 14-28 32 13 32 28 32z"/></svg>