<svg version="1.1" xmlns="http://www.w3.org/2000/svg" xmlns:xlink="http://www.w3.org/1999/xlink" id="settings" viewBox="0 0 416.13 512"><path d="M402.004 138c10 6 15 25 14 36-1 17-7 36-25 54-1 1-2 1-3 2-26 25-62 30-94 20-1-1-2-2-4-2-5-1-10 0-13 4l-36 39c52 50 107 96 107 96 2 2 2 5 0 7l-50 51c-2 2-5 2-7 0 0 0-44-55-93-107l-92 98c-14 16-40 15-55 0-15-16-15-42 1-56l97-93-12-12c-2-2-3-7-1-10l2-5c-25-26-36-33-56-32s-36 13-48 28-10 52-8 62-7 6-12 0c-9-10-23-50-6-93s42-69 48-75 16-15 24-21 21 1 27-5c4-4 5-11 5-16l-4-4c-2-2-2-5 0-7l31-31c2-2 5-2 7 0l50 50c2 2 2 6 0 8l-31 31c-2 2-5 2-7 0l-8-9c-7 0-15 5-17 10-3 6-6 21-3 33 3 11 13 20 36 43l5-3c4-2 8-1 10 1 0 0 1 2 13 14l38-37c4-3 5-7 4-13 0-2 0-4-1-5-10-33-6-69 19-96l2-2c18-18 36-25 53-26 10-1 30 5 35 15l-48 48-2 3-1 1c-1 1-1 2-1 4s0 3 1 5l2 2 2 2 41 42 3 3 1 1c1 1 2 1 4 1s3 0 4-1l2-1 2-3z"/></svg>