<svg version="1.1" xmlns="http://www.w3.org/2000/svg" xmlns:xlink="http://www.w3.org/1999/xlink" id="social-rss-outline" viewBox="0 0 384 512"><path d="M56 336c31 0 56 25 56 56s-25 56-56 56-56-25-56-56 25-56 56-56zm0 96c22 0 40-18 40-40s-18-40-40-40-40 18-40 40 18 40 40 40zM0 192c140 0 256 116 256 256h-80c0-48-14-94-48-128S48 272 0 272v-80zm240 240c-2-26-8-52-19-77-12-28-30-54-52-76s-48-40-76-52c-25-10-51-16-77-18v47c50 3 92 22 123 53s50 73 53 123h48zM0 64c212 0 384 172 384 384h-80c0-171-133-304-304-304V64zm227 156c56 56 89 131 93 212h48C360 242 206 88 16 80v48c81 4 155 36 211 92z"/></svg>