<svg version="1.1" xmlns="http://www.w3.org/2000/svg" xmlns:xlink="http://www.w3.org/1999/xlink" id="social-foursquare-outline" viewBox="0 0 320.5944 512"><path d="M302 164c-12 60-25 131-27 138zM281 32c35 0 45 20 37 57-3 16-10 44-16 75l-27 137c-3 13-8 35-39 35h-72c-3 0-3 0-6 3-2 2-115 133-115 133-9 10-23 8-28 6s-15-8-15-26V72s10-40 43-40h238zm-1 64c6-31 6-32-24-32H61c-29 0-29 3-29 28v297c0 38 1 38 3 38s10-8 29-31c0 0 78-89 79-90 2-2 3-2 6-2h62c26 0 28-6 33-31 4-21 36-177 36-177zm22 68c6-31 13-59 16-75zm-69-68c5 0 9 5 8 11l-8 44c-1 4-6 9-11 9h-75c-8 0-8 5-8 13v6c0 8 0 13 8 13h64s11 6 10 12-11 51-12 54-4 9-11 9h-62c-9 0-11 1-17 8l-54 63c-1 1-1 1-1 0V107c0-5 5-11 11-11h158z"/></svg>