<svg version="1.1" xmlns="http://www.w3.org/2000/svg" xmlns:xlink="http://www.w3.org/1999/xlink" id="social-google-outline" viewBox="0 0 256 512"><path d="M191 82c12 10 37 30 37 68 0 37-21 55-43 72-7 7-15 13-15 24s8 17 14 22l18 14c23 19 43 36 43 71 0 47-47 95-135 95-74 0-110-35-110-72 0-18 10-44 40-62 32-19 75-21 98-23-7-9-16-18-16-34 0-9 2-14 5-20-6 0-11 1-16 1-54 0-85-40-85-79 0-23 11-48 33-67 29-24 63-28 91-28h106l-33 18h-32zm-36 224c-4-1-7-1-12-1s-32 1-54 8c-11 4-44 16-44 52s36 62 91 62c49 0 75-24 75-55 0-26-17-39-56-66zm15-96c12-12 13-28 13-37 0-36-22-92-65-92-13 0-28 6-36 16-9 11-11 25-11 38 0 34 20 89 64 89 13 0 27-6 35-14z"/></svg>