<svg version="1.1" xmlns="http://www.w3.org/2000/svg" xmlns:xlink="http://www.w3.org/1999/xlink" id="social-codepen-outline" viewBox="0 0 448 512"><path d="M356 204c5 3 7 6 7 12v81c0 6-3 10-8 13-41 27-82 55-123 82-6 4-11 4-17 0-41-27-81-55-122-82-5-3-8-7-8-13v-80c0-6 3-11 8-14 41-27 81-54 122-81 6-4 11-4 17 0 41 27 83 55 124 82zm-120-52v54c0 1 1 2 2 3 16 11 31 21 47 32 1 1 3 1 4 0l40-26zm-24 1s-62 41-93 62c14 9 27 17 40 26 1 1 3 1 4 0 15-10 31-21 46-31 1-1 3-4 3-6v-51zm-103 84v40l30-20zm103 124v-53c0-1-2-3-3-4-15-10-31-21-46-31-2-1-3-1-5 0l-39 26c31 21 93 62 93 62zm15-78l39-26s-34-23-40-27c-1-1-4 0-5 1-5 3-9 6-14 9-8 6-25 17-25 17l39 26c2 1 4 1 6 0zm9 78l93-62-38-26c-2-2-5-2-7 0-15 10-30 21-45 31-2 2-3 3-3 6v51zm102-84v-40l-30 20zM224 64c-51 0-100 20-136 56s-56 85-56 136 20 100 56 136 85 56 136 56 100-20 136-56 56-85 56-136-20-100-56-136-85-56-136-56zm0-32c124 0 224 100 224 224S348 480 224 480 0 380 0 256 100 32 224 32z"/></svg>