<svg version="1.1" xmlns="http://www.w3.org/2000/svg" xmlns:xlink="http://www.w3.org/1999/xlink" id="social-dribbble" viewBox="0 0 384 512"><path d="M192 64c106 0 192 86 192 192s-86 192-192 192S0 362 0 256 86 64 192 64zm0 352c88 0 160-72 160-160S280 96 192 96 32 168 32 256s72 160 160 160zm50-169c-4-11-8-21-13-31 25-11 47-24 63-39 15 19 26 42 28 67-26 0-55 1-78 3zm29-91c-15 12-34 23-56 32-12-22-24-41-38-59 5-1 10-1 15-1 30 0 57 11 79 28zm-129-18c15 18 28 39 41 62-34 10-72 16-113 17 11-36 38-65 72-79zm177 134c-4 33-21 63-46 83-3-14-5-28-9-43-3-13-8-26-12-38 21-2 45-3 67-2zm-125-16c-43 18-79 46-104 78-16-22-26-49-26-78v-7c49-1 95-8 134-21 4 8 7 16 10 24-6 1-10 2-14 4zm25 22c6 16 11 32 15 49 4 15 7 31 10 46-16 7-34 11-52 11-31 0-59-11-81-29 22-30 53-54 90-71 4-2 11-4 18-6z"/></svg>