<svg version="1.1" xmlns="http://www.w3.org/2000/svg" xmlns:xlink="http://www.w3.org/1999/xlink" id="social-codepen" viewBox="0 0 448 512"><path d="M209 304c1 1 3 3 3 4v53s-62-41-93-62l39-26c2-1 3-1 5 0 15 10 31 21 46 31zm-46-63c-1 1-3 1-4 0-13-9-26-17-40-26 31-21 93-62 93-62v51c0 2-2 5-3 6-15 10-31 21-46 31zm75-32c-1-1-2-2-2-3v-54l93 63-40 26c-1 1-3 1-4 0-16-11-31-21-47-32zm-12 21c6 4 40 27 40 27l-39 26c-2 1-4 1-6 0l-39-26s17-11 25-17c5-3 9-6 14-9 1-1 4-2 5-1zm-117 7l30 20-30 20v-40zM224 32c124 0 224 100 224 224S348 480 224 480 0 380 0 256 100 32 224 32zm139 265v-81c0-6-2-9-7-12-41-27-83-55-124-82-6-4-11-4-17 0-41 27-81 54-122 81-5 3-8 8-8 14v80c0 6 3 10 8 13 41 27 81 55 122 82 6 4 11 4 17 0 41-27 82-55 123-82 5-3 8-7 8-13zm-79-24c2-2 5-2 7 0l38 26-93 62v-51c0-3 1-4 3-6 15-10 30-21 45-31zm54 4l-30-20 30-20v40z"/></svg>