<svg version="1.1" xmlns="http://www.w3.org/2000/svg" xmlns:xlink="http://www.w3.org/1999/xlink" id="social-usd-outline" viewBox="0 0 320 512"><path d="M125 103c11-2 19-3 19-3v131l-22-6c-15-5-27-11-36-19-12-10-19-25-19-43 0-13 4-24 11-33 6-8 13-14 22-19 7-4 17-6 25-8zm3 107v-92c-7 2-15 4-21 7-7 4-12 9-17 15s-7 14-7 23c0 13 4 24 13 31 8 7 20 12 32 16zm124 87c10 10 15 24 15 42 0 9-1 18-5 27s-11 17-20 24c-8 6-18 11-31 15-6 2-11 3-17 4s-18 1-18 1V265l20 5c10 3 19 6 28 9 10 4 20 10 28 18zm-5 62c3-7 4-13 4-20 0-14-3-24-10-31s-15-11-23-14-16-5-26-8v107c6-1 10-2 14-3 11-3 20-8 27-13s11-11 14-18zm68-56c3 10 5 19 5 29 0 21-5 38-14 53s-20 26-35 35-31 17-50 21c-10 2-19 3-29 4v35h-64v-35c-9-1-19-4-28-6-20-5-36-12-51-23s-26-24-35-41c-8-16-13-34-14-55h69c0 12 2 24 7 33 5 10 12 17 21 23s20 11 31 14V270c-8-2-18-4-27-6-17-4-30-9-41-16s-20-15-27-23-11-17-14-26-4-18-4-28c0-18 4-34 12-48s19-25 33-34 29-16 46-20c7-2 15-3 22-4V32h64v33c9 1 16 4 24 6 18 5 34 12 48 22s25 22 33 37c7 13 11 28 12 46h-69c-3-21-12-37-26-46-7-4-13-8-22-10v106c9 2 16 4 25 6 12 3 22 6 27 7 13 4 23 9 33 15 10 7 18 14 24 22s11 17 14 27zm-22 73c7-12 11-27 11-44 0-8-1-16-4-24s-7-15-12-22-12-13-20-19c-8-5-18-10-29-13-5-1-13-3-24-6h-1l-4-1c-7-2-13-4-21-6l-13-3V101s9 1 19 4 19 6 28 12c15 9 25 24 30 43h38c-2-8-4-15-8-22-7-13-16-24-28-32-12-9-27-16-43-20-8-2-16-4-23-5l-13-2V48h-32v31l-14 2c-7 1-14 2-20 4-15 4-29 10-41 18s-21 16-28 28c-7 11-10 24-10 40 0 8 1 15 3 23 2 7 6 14 11 21s14 13 23 19c10 6 22 10 37 14 4 1 8 2 11 3 5 1 11 3 16 4l12 3v151s-8-1-20-4-26-8-36-15c-11-8-20-18-26-30-4-7-6-16-8-24H18c2 11 5 23 10 32 8 14 17 26 30 35 13 10 28 16 46 21 8 2 17 4 26 5l14 2v33h32v-33l15-1c9-1 17-3 26-5 17-4 32-10 45-18s23-19 31-31z"/></svg>