<svg version="1.1" xmlns="http://www.w3.org/2000/svg" xmlns:xlink="http://www.w3.org/1999/xlink" id="social-designernews-outline" viewBox="0 0 448 512"><path d="M259 146v53L194 96zM0 260zM297 96l151 119v201H200L0 260h63c46 0 77-33 77-82 0-20-5-37-15-51l-3-3 37 29v107h41l-2-98 63 98h36V96zm135 304V222l-119-92v-1 147h-61l-4-8-33-50 1 42v16h-73v-45c-3 6-7 12-12 17-8 9-18 16-30 21s-24 7-38 7H47l159 124h226zM59 150h-4v57h4c8 0 13-2 17-6 5-6 6-15 6-22 0-26-12-29-23-29zm0-16c25 0 39 16 39 45 0 28-14 44-40 44H39v-89h20z"/></svg>