<svg version="1.1" xmlns="http://www.w3.org/2000/svg" xmlns:xlink="http://www.w3.org/1999/xlink" id="social-buffer-outline" viewBox="0 0 384 512"><path d="M7 164c-9-4-9-11 0-15l169-82c4-2 10-3 16-3s12 1 16 3l169 82c9 4 9 11 0 15l-169 82c-4 2-10 3-16 3s-12-1-16-3zm176-82L27 157l156 75c2 1 5 1 9 1s7 0 9-1l156-75-156-75c-2-1-5-2-9-2s-7 1-9 2zm194 166c9 4 9 12 0 16l-169 81c-4 2-10 4-16 4s-12-2-16-4L7 264c-9-4-9-12 0-16 0 0 27-13 33-16 5-3 7-3 13 0s123 60 123 60c4 2 10 3 16 3s12-1 16-3c0 0 121-59 125-61s5-2 9 0 35 17 35 17zm-176 83l156-75-19-9-123 59c-6 3-15 5-23 5s-17-2-23-5L46 247l-19 9 156 75c2 1 5 2 9 2s7-1 9-2zm176 17c9 4 9 11 0 15l-169 82c-4 2-10 3-16 3s-12-1-16-3L7 363c-9-4-9-11 0-15 0 0 27-14 33-17 5-3 7-2 13 1s123 59 123 59c4 2 10 3 16 3s12-1 16-3c0 0 121-58 125-60s5-2 9 0 35 17 35 17zm-176 82l156-75-19-9-123 60c-6 3-15 4-23 4s-17-1-23-4L46 346l-19 9 156 75c2 1 5 2 9 2s7-1 9-2z"/></svg>