<svg version="1.1" xmlns="http://www.w3.org/2000/svg" xmlns:xlink="http://www.w3.org/1999/xlink" id="social-android" viewBox="0 0 352 512"><path d="M64 268v-76h224v166c0 7-4 14-11 14h-28v52c0 13-11 24-24 24h-1c-6 0-10-2-14-5-5-4-9-11-9-19v-52h-49v52c0 13-11 24-24 24s-24-11-24-24v-52H75c-7 0-11-7-11-14v-90zm264-92c13 0 24 11 24 24v96c0 13-11 24-24 24s-24-11-24-24v-96c0-13 11-24 24-24zm-304 0c13 0 24 11 24 24v96c0 13-11 24-24 24S0 309 0 296v-96c0-13 11-24 24-24zm207-87c48 21 56 72 57 87H64c1-15 8-66 56-87l-18-22c0-1 0-1 1-2s3-1 3-1l19 23c14-5 31-9 51-9s36 4 50 9l20-23c0-1 1 0 2 1l2 2zm-104 50c8 0 13-6 13-13s-6-14-13-14c-8 0-14 7-14 14s7 13 14 13zm98 0c7 0 14-6 14-13s-7-14-14-14c-8 0-13 7-13 14s6 13 13 13z"/></svg>