<svg version="1.1" xmlns="http://www.w3.org/2000/svg" xmlns:xlink="http://www.w3.org/1999/xlink" id="social-javascript-outline" viewBox="0 0 448 512"><path d="M160 104h-48v196c0 30-6 50-17 64-11 13-26 20-48 20-9 0-18-1-25-2l-4 30c11 2 25 4 37 4 34 0 59-8 76-25 19-18 29-48 29-90V104zm16-16v213c0 97-49 131-121 131-18 0-40-3-55-8l8-62c10 4 24 6 39 6 31 0 49-15 49-68V88h80zm174 8c-34 0-62 9-82 26-19 15-28 36-28 60 0 20 7 36 21 51 14 14 34 26 61 36 23 8 38 15 48 24 12 11 18 23 18 38 0 16-7 31-20 40-12 9-28 14-48 14-28 0-52-8-70-15l-7 32c18 8 44 14 72 14 38 0 70-9 90-27 18-16 27-38 27-63 0-21-5-36-17-50s-31-27-58-37c-38-15-72-28-72-63 0-14 7-27 19-36 11-9 26-13 45-13 24 0 43 5 57 11l10-32c-19-6-42-10-66-10zm0-16c38 0 65 7 85 16l-19 64c-13-7-35-17-67-17s-48 16-48 33c0 22 19 31 62 48 58 22 85 53 85 102 0 57-42 106-133 106-38 0-72-10-91-21l15-63c20 11 49 21 81 21 34 0 52-15 52-38 0-21-15-33-55-47-55-20-93-52-93-102 0-58 49-102 126-102z"/></svg>