<svg version="1.1" xmlns="http://www.w3.org/2000/svg" xmlns:xlink="http://www.w3.org/1999/xlink" id="social-octocat" viewBox="0 0 448 512"><path d="M146 287c9 0 16 4 22 13s10 20 10 32-4 22-10 31-14 13-22 13c-9 0-17-4-23-13s-9-19-9-31 3-24 9-32c6-9 14-13 23-13zm157 0c9 0 16 4 22 13s9 20 9 32-3 22-9 31-13 13-22 13-18-4-24-13-9-19-9-31 3-24 9-32c6-9 15-13 24-13zm111-115c24 27 34 66 34 96 0 24-1 46-6 65-6 19-13 35-21 47-9 12-19 23-32 32s-24 17-34 21-22 8-36 10c-13 2-24 4-31 4 0 0-28 1-64 1s-64-1-64-1c-7 0-18-2-31-4-14-2-26-6-36-10s-22-12-34-21c-13-9-23-20-32-32-8-12-15-28-21-47-5-19-6-41-6-65 0-31 10-70 34-96 0 0-2-14 0-39s7-48 16-69c30 3 67 20 112 51 15-4 36-6 62-6 28 0 48 2 62 6 20-14 39-24 58-33 19-8 33-13 41-15s13-3 13-3c9 21 14 44 16 69s0 39 0 39zm-66 234c28-13 42-40 42-81 0-24-8-43-26-59-9-9-20-13-32-15s-31-1-56 1-40 4-52 4-25-2-42-3-30-3-39-3c-10 0-20-1-31 2s-21 7-28 14c-17 15-25 35-25 59 0 41 13 68 41 81 27 13 69 18 123 18h2c54 0 95-5 123-18z"/></svg>