<svg version="1.1" xmlns="http://www.w3.org/2000/svg" xmlns:xlink="http://www.w3.org/1999/xlink" id="social-instagram-outline" viewBox="0 0 384 512"><path d="M384 112v289c0 26-22 47-48 47H48c-26 0-48-21-48-47V112c0-26 22-48 48-48h288c26 0 48 22 48 48zm-192 64c-44 0-80 36-80 80s36 80 80 80 80-36 80-80-36-80-80-80zm160-16v-48c0-9-7-16-16-16h-48c-9 0-16 7-16 16v48c0 9 7 16 16 16h48c9 0 16-7 16-16zm-15 256c9 0 15-7 15-16V224h-52c3 10 4 21 4 32 0 30-11 58-32 79s-50 33-80 33-58-12-79-33-33-49-33-79c0-11 2-22 5-32H32v176c0 9 8 16 17 16h288z"/></svg>