<svg version="1.1" xmlns="http://www.w3.org/2000/svg" xmlns:xlink="http://www.w3.org/1999/xlink" id="social-whatsapp" viewBox="0 0 448 512"><path d="M228 32c121 0 220 97 220 218s-99 218-220 218c-39 0-74-10-106-27L0 480l40-117C20 330 8 291 8 250 8 129 107 32 228 32zm109 301c5-13 6-24 5-26s-5-4-11-7-32-18-37-20-9-2-13 3-16 17-19 21-6 4-12 1-23-10-44-30c-16-15-27-33-30-39s0-9 3-12c3-2 6-6 9-9s4-5 6-9 1-7 0-10-12-31-16-42-10-11-13-11h-10s-10 2-15 7-21 19-22 46 18 54 21 58 37 64 93 88 57 17 67 16 33-12 38-25z"/></svg>