<svg version="1.1" xmlns="http://www.w3.org/2000/svg" xmlns:xlink="http://www.w3.org/1999/xlink" id="social-whatsapp-outline" viewBox="0 0 448 512"><path d="M178 154c4 11 15 39 16 42s2 6 0 10-3 6-6 9-6 7-9 9c-3 3-6 6-3 12s14 24 30 39c21 20 38 27 44 30s9 3 12-1 15-16 19-21 8-5 13-3 31 17 37 20 10 5 11 7 0 13-5 26-28 24-38 25-11 8-67-16-90-84-93-88-22-31-21-58 17-41 22-46 11-7 15-7h10s9 0 13 11zm50-90c-50 0-97 20-133 55-35 35-55 81-55 131 0 34 9 67 27 96l8 13-5 14-19 57 61-19 13-4 12 6c28 15 59 23 91 23 50 0 97-19 133-54 35-35 55-82 55-132s-20-96-55-131c-36-35-83-55-133-55zm0-32c121 0 220 97 220 218s-99 218-220 218c-39 0-74-10-106-27L0 480l40-117C20 330 8 291 8 250 8 129 107 32 228 32z"/></svg>