<svg version="1.1" xmlns="http://www.w3.org/2000/svg" xmlns:xlink="http://www.w3.org/1999/xlink" id="social-snapchat" viewBox="0 0 480 512"><path d="M480 360c0 2 0 11-6 21-5 8-16 19-38 24-6 1-11 3-15 4-2 1-5 1-7 1v1c-1 7-1 13-4 18-2 5-9 12-22 12-2 0-6 0-9-1-2 0-3-1-5-1-7-1-15-2-23-2-10 0-19 2-26 6-4 3-9 7-14 10-18 13-38 27-71 27s-53-14-71-27c-5-3-9-7-14-10-7-4-15-6-25-6-8 0-17 1-24 2-2 0-3 1-5 1-3 1-7 1-9 1-13 0-20-7-22-12-3-5-3-11-4-18v-1c-2 0-4 0-6-1-4-1-10-3-16-4-22-5-33-16-38-24-6-10-6-18-6-20v-15l15-1c16-1 44-7 54-17 29-27 36-43 36-52 0-1 0-2-4-5-5-3-13-6-20-8-5-2-10-3-14-5-9-4-18-16-17-29 1-15 14-27 30-27 4 0 8 0 12 2 8 3 13 4 17 5-1-9-2-19-3-30-5-38 5-74 29-102 25-29 64-45 105-45s80 16 105 45c24 28 34 63 29 101-1 11-2 22-3 31 4-1 10-2 18-5 4-1 8-2 12-2 16 0 29 12 30 27 1 13-9 25-18 29-4 2-9 3-14 5-7 2-14 5-19 8-4 3-5 4-5 5 0 16 20 37 36 52 11 10 39 16 54 17l15 1v14zM192 128c-9 0-16 11-16 24s7 24 16 24 16-11 16-24-7-24-16-24zm104 78c3-3 3-9 0-12s-9-3-12 0c-12 12-28 19-44 19-17 0-32-7-44-19-3-3-9-3-12 0s-3 9 0 12c15 15 35 23 56 23s41-8 56-23zm-8-30c9 0 16-11 16-24s-7-24-16-24-16 11-16 24 7 24 16 24z"/></svg>