<svg version="1.1" xmlns="http://www.w3.org/2000/svg" xmlns:xlink="http://www.w3.org/1999/xlink" id="social-chrome-outline" viewBox="0 0 448 512"><path d="M224 32c123 0 224 101 224 224S347 480 224 480 0 379 0 256 101 32 224 32zm0 45c-57 0-109 27-141 68l54 93c8-40 43-72 87-72h155c-30-54-89-89-155-89zm67 179c0-37-30-67-67-67s-67 30-67 67 30 67 67 67 67-30 67-67zm-246 0c0 91 67 166 154 177l54-93c-9 3-19 6-29 6-34 0-61-18-77-45L69 166c-16 27-24 58-24 90zm179 179c99 0 179-80 179-179 0-24-4-46-13-67H282c19 17 32 40 32 67 0 17-5 32-13 45z"/></svg>