<svg version="1.1" xmlns="http://www.w3.org/2000/svg" xmlns:xlink="http://www.w3.org/1999/xlink" id="social-tux" viewBox="0 0 383.5405 512"><path d="M189.54 101c2-2-1 1 0 0 2-2 4-4 6-5-3 2-5 4-7 8 0-1 0-2 1-3zm172 295c7 4 23 11 21 22-2 10-17 15-24 19-15 8-28 14-41 25-9 8-17 15-29 17-11 2-25 1-33-8-5-5-7-11-15-12-25-5-54-4-79 0-13 2-21 11-32 17-10 5-20 5-30 1-13-5-27-10-41-13s-29-5-43-9c-31-8-5-30-11-50-3-12-10-29 8-30 9-1 27 1 31-11 2-7-2-15 2-22s-1-17 1-25c4-18 19-32 25-49 5-14 8-25 18-37 9-11 22-22 29-34 10-18 9-35 8-55-1-17-1-33-2-50 0-33 20-60 58-60h14c38 0 63 32 64 69 0 19-5 38 5 67 15 27 36 48 52 73 10 16 16 31 20 49 3 14 9 31 7 45-1 6-2 9-4 11 3 1 7 2 9 5 3 4 2 11 0 26-1 8 5 15 12 19zm-224 55c2-20-15-39-25-56-10-16-21-43-39-52-8-4-19-5-23 5-2 7 0 19-2 22-4 9-14 10-23 11-6 0-17 0-17 8 1 10 10 20 7 30-2 7-8 12-8 19 0 14 38 15 47 17 19 4 37 14 57 16 12 1 25-7 26-20zm116-65c-2-10 2 10 0 0s-5-28 1-35c4-5 10-6 17-5 0-4 1-9 3-12 8-13 29-8 39 0l-1-2c-3-4-8-9-13-10 0 0 4-12 2-34-4-40-33-62-33-62 27 30 27 58 27 72 0 6-1 18-4 24-4 1-7 2-11 4-10 5-8-2-8-10 0-18-2-36-7-54-3-9-7-17-13-24-4-5-4-9-5-15-3-12-9-22-16-32-7-9-7-17-5-28 1-7 2-14-6-17-6-2-26-5-27-14-1-6-1-16 5-20 16-14 30 11 17 24-3 3 7 4 8 4 4-1 4-7 5-10 1-4 1-9 1-13 0-17-18-32-34-21-6 4-9 11-10 17 0 2-1 20 0 20-4 0-7-5-11-5-3 0-7 0-10 1 0 0 2-14-2-22-4-9-18-16-24-4s-3 25 0 31 4 6 4 6c2-1 5-4 5-4s-6-3-7-11c-1-9 3-14 7-15s10 2 12 8 0 13 0 13c-7 6-30 18-22 28 14 18 33 15 52 9 8-3 18-5 24-12 3-3 11-2 8 4-2 5-18 7-22 9-9 4-18 8-28 10-6 1-13 5-28-9 7 6 8 16 17 20 13 6 33-9 44-15 1-1 16-5 14 0-1 4-11 7-15 9-11 6-23 21-36 22-8 1-21-16-25-22-1-1-5-9-6-4-1 8 2 14-3 21-6 9-11 18-13 29-1 6 0 11-3 16-11 15-17 33-19 51 0 4 3 43-5 41-18-5-17-33-14-47-3 12-8 30 2 44 12 15 99 55 53 80 7 14 14 25 12 41 8-7 2-20-1-28 0 0 17 12 38 10 17-2 32-7 46-16 6-4 11-9 16-14 1-2 4-6 6-7l1 11c2 17-12 27-10 34 4-8 11-14 13-24 3-12 0-24-2-36zm-98-261v3c2 0 2-5 1-8-1-4-3-6-4-6h-2c3 2 5 6 5 11zm55-12c3 2 0 0 0 0 3 2 5 5 5 10v3c2 0 3-4 2-7s-3-6-5-6h-2zm137 320c24-11-24 10 0 0 24-11 35-17 20-26-17-10-26-13-26-29 0-5 4-16 2-22-1-4-6-5-9-5-10 10-17 25-34 25-14 0-25-11-28-24-4-2-10-1-13 4-6 12 1 29 3 41 2 18-4 35-2 53 2 21 26 22 40 13 16-10 29-22 47-30z"/></svg>