<svg version="1.1" xmlns="http://www.w3.org/2000/svg" xmlns:xlink="http://www.w3.org/1999/xlink" id="social-instagram" viewBox="0 0 384 512"><path d="M112 256c0-53 27-80 80-80s80 27 80 80-27 80-80 80-80-27-80-80zm1-79c-14 14-23 29-28 47H0V112c0-13 4-25 14-34s22-14 35-14h288c13 0 24 5 33 14s14 21 14 34v112h-84c-5-18-14-33-28-47-22-22-49-33-80-33s-57 11-79 33zm239-29v-39c0-4-2-7-4-9s-5-4-9-4h-38c-4 0-7 2-9 4s-4 5-4 9v39c0 4 2 7 4 9s5 3 9 3h38c4 0 7-1 9-3s4-5 4-9zm-80 187c22-22 32-48 32-79h80v144c0 13-5 24-14 34s-20 14-33 14H49c-13 0-24-4-34-14S0 413 0 400V256h81c0 31 10 57 32 79s48 33 79 33 58-11 80-33z"/></svg>