<svg version="1.1" xmlns="http://www.w3.org/2000/svg" xmlns:xlink="http://www.w3.org/1999/xlink" id="social-chrome" viewBox="0 0 448 512"><path d="M157 256c0-37 30-67 67-67s67 30 67 67-30 67-67 67-67-30-67-67zm288-38c2 12 3 25 3 38 0 106-74 195-174 218-10 2-20 4-30 5-7 1-13 1-20 1-8 0-17 0-25-1v-1l102-177c8-13 13-28 13-45 0-27-13-50-32-67h156c3 9 5 19 7 29-2-10-4-20-7-29 3 9 5 19 7 29zM224 345c10 0 20-2 29-5l-78 135c-42-9-79-30-108-59-42-41-67-97-67-160 0-31 6-61 18-88 7-16 16-31 26-45l103 178c16 27 43 44 77 44zM59 105v-1c24-26 55-47 90-59 23-8 49-13 75-13 73 0 138 36 179 90h1c10 14 18 29 25 44-7-15-15-30-25-44h-1c10 14 19 29 26 44H224c-44 0-79 32-87 72z"/></svg>