<svg version="1.1" xmlns="http://www.w3.org/2000/svg" xmlns:xlink="http://www.w3.org/1999/xlink" id="social-python" viewBox="0 0 384 512"><path d="M129 249c-29 5-49 30-49 57v46H65c-29 0-54-29-62-69-2-9-3-17-3-27v-1c0-53 29-95 65-95h127v-16H96v-29c0-26 7-40 46-47 13-2 29-4 45-4s39 1 55 4c25 4 46 22 46 47v88c0 21-14 38-33 43-4 1-8 2-13 2H138h3c-4 0-8 0-12 1zm11-122c10 0 17-7 17-17s-7-18-17-18-18 8-18 18 8 17 18 17zm240 96c3 10 4 21 4 33 0 16-3 30-7 43-11 31-33 53-58 53H192v16h96v26c0 26-23 40-46 47-35 10-68 9-97 0-25-7-49-22-49-47v-87c0-21 14-36 33-41 4-1 8-2 13-2h104c3 0 6-1 9-1 27-4 49-28 49-62v-41h15c28 0 52 26 61 63zM244 383c-10 0-18 7-18 17s8 18 18 18 17-8 17-18-7-17-17-17z"/></svg>