<svg version="1.1" xmlns="http://www.w3.org/2000/svg" xmlns:xlink="http://www.w3.org/1999/xlink" id="social-linkedin-outline" viewBox="0 0 384 512"><path d="M119 384H64V213h55v171zM93 187c-18 0-29-13-29-29 0-17 12-30 30-30s29 13 29 30c0 16-12 29-30 29zm164 22c36 0 63 24 63 75v100h-55v-94c0-22-8-37-28-37-15 0-24 10-28 20-2 4-2 9-2 14v97h-55V213h55v24c8-11 21-28 50-28zm96-145c18 0 31 13 31 30v321c0 17-13 33-31 33H33c-18 0-33-16-33-33V94c0-17 15-30 33-30h320zm-3 352c1 0 2-1 2-2V98c0-1-1-2-2-2H34s-2 1-2 2v315s1 3 3 3h315z"/></svg>