<svg version="1.1" xmlns="http://www.w3.org/2000/svg" xmlns:xlink="http://www.w3.org/1999/xlink" id="social-euro-outline" viewBox="0 0 320 512"><path d="M214 64c-53 0-91 9-115 27-22 16-33 40-33 74v28H16v16h50v80H16v16h50v42c0 34 11 58 33 74 24 18 62 27 115 27 31 0 59-2 88-8l-5-35c-30 4-55 7-80 7-36 0-59-6-74-19-19-16-21-40-21-60v-28h119l3-16H122v-80h134l2-16H122v-19c0-16 2-39 21-55 16-13 39-19 74-19 24 0 51 3 80 7l5-35c-29-6-57-8-88-8zm0-16c35 0 68 3 106 12l-9 65c-37-6-68-9-94-9-64 0-79 22-79 58v3h139l-8 48H138v48h124l-7 48H138v12c0 44 15 63 79 63 26 0 57-3 94-9l9 65c-38 9-71 12-106 12-115 0-164-41-164-117v-26H0v-48h50v-48H0v-48h50v-12C50 89 99 48 214 48z"/></svg>