<svg version="1.1" xmlns="http://www.w3.org/2000/svg" xmlns:xlink="http://www.w3.org/1999/xlink" id="social-pinterest-outline" viewBox="0 0 448 512"><path d="M224 32c124 0 224 100 224 224S348 480 224 480 0 380 0 256 100 32 224 32zm136 360c36-36 56-85 56-136s-20-100-56-136-85-56-136-56-100 20-136 56-56 85-56 136 20 100 56 136c14 14 31 25 48 34 1-6 2-10 3-16 4-18 29-122 29-122s-8-15-8-36c0-33 20-58 44-58 20 0 30 16 30 34 0 20-13 51-20 79-6 24 12 43 35 43 42 0 71-54 71-119 0-49-33-85-93-85-68 0-110 50-110 107 0 20 6 33 15 44 4 5 5 6 3 12-1 4-4 14-5 18-2 6-6 8-11 6-31-13-46-48-46-86 0-64 54-140 160-140 86 0 142 63 142 129 0 88-49 153-121 153-24 0-47-13-55-28 0 0-12 52-15 62-2 6-4 13-7 19 15 4 31 6 47 6 51 0 100-20 136-56z"/></svg>