<svg version="1.1" xmlns="http://www.w3.org/2000/svg" xmlns:xlink="http://www.w3.org/1999/xlink" id="social-sass" viewBox="0 0 512 512"><path d="M512 329v8c-1 9-7 17-15 22s-12 4-13 3 1-3 4-5c13-8 17-20 10-33-5-10-15-16-26-20-24-8-48-7-72 0 4 12 7 23-2 34-10 12-23 19-39 22-7 2-14-2-15-9-3-19 17-36 30-47-7-11-11-24-14-37-15 17-31 40-26 61 3 14-1 27-14 36s-30 14-46 11c-4-1-6-5-5-8 2-14 25-32 35-43 2-2 3-4 1-7-6-12-10-23-14-36-13 29-30 80-57 98-9 6-17 4-21-5-3-8-2-20-1-29-6 13-11 27-20 38-7 8-24 7-30-1-16-21-13-50-5-73l-29 15c7 16 8 32 4 49-5 19-17 35-35 46-19 12-64 24-77-4-7-16-4-30 6-44 17-24 48-37 74-50-32-23-80-42-96-80-15-35 17-68 43-89 59-48 166-95 244-59 15 7 36 24 31 52-4 24-13 39-28 54-32 32-152 77-176 15-1-1-1-4 1-4 2 1 20 15 43 16 17 1 36-3 52-8 33-11 71-33 80-67 4-13-2-28-15-34-49-24-116 4-159 26-33 17-84 45-82 87 1 37 56 60 81 82 15-7 42-15 52-27 11-13 26-25 44-26 8 0 14 3 16 10 2 6 1 11 0 19 5-4 11-4 15 1 12 14-22 50-10 66 14-14 21-42 30-59 4-8 17-51 26-53 7-2 18-4 25 0 2 1 3 3 2 5-7 19-7 33 3 52 14-20 29-43 34-67 1-2 3-3 5-4 7-2 18-3 25 0 3 1 3 2 2 5-7 22-6 38 6 58 31-11 69-15 97 5-3-2-7-5 0 0 5 4 3 2 0 0 12 8 19 18 21 32zm-399 25c1-7-1-13-3-20-24 8-66 35-64 62 1 10 8 13 17 12s19-7 27-13c14-11 22-24 23-41zm103-72c1-3-2-5-5-4-29 8-43 57-33 81 1 3 4 3 6 1 17-16 28-56 32-78zm70 82c8 3 27-17 26-27-8 9-18 18-26 27zm81-18c11-6 16-19 12-30-8 6-21 19-20 31 0 2 6 0 8-1z"/></svg>