<svg version="1.1" xmlns="http://www.w3.org/2000/svg" xmlns:xlink="http://www.w3.org/1999/xlink" id="social-youtube-outline" viewBox="0 0 512 512"><path d="M265 96h-18c-65 0-118 2-168 4h-2c-23 0-42 22-42 49v2c-2 34-3 70-3 105s1 70 3 104v3c0 14 5 26 14 36 8 9 17 13 28 13h2c52 2 108 4 166 4h22c58 0 113-2 166-4h2c11 0 20-4 28-13 9-10 14-22 14-36v-3c2-34 3-68 3-104s-1-71-3-105v-3c0-27-19-49-42-49h-2c-49-2-103-3-168-3zm0-32c58 0 115 0 170 3 41 0 74 36 74 81 2 36 3 72 3 108s-1 71-3 107c0 45-33 81-74 81-55 3-111 4-168 4h-22c-57 0-113-1-168-4-41 0-74-36-74-81-2-36-3-71-3-107s2-71 4-107c0-45 32-82 73-82 55-2 112-3 170-3h18zm-58 290V157l145 99z"/></svg>