<svg version="1.1" xmlns="http://www.w3.org/2000/svg" xmlns:xlink="http://www.w3.org/1999/xlink" id="social-nodejs" viewBox="0 0 384 512"><path d="M192 480c-6 0-12-2-17-5l-53-32c-8-5-4-6-1-7 11-4 14-5 25-12 1-1 3-1 4 0l39 23c1 1 4 1 5 0l156-92c1-1 2-2 2-4V164c0-2 0-4-2-5L194 65c-1-1-3-1-4 0L35 159c-2 1-3 3-3 5v187c0 2 0 3 2 4l40 24c24 12 38-1 38-15V181c0-3 2-5 5-5h22c3 0 5 2 5 5v183c0 33-19 52-49 52-9 0-17-1-37-11l-41-24c-10-6-17-18-17-30V161c0-12 7-24 17-30l158-95c10-6 24-6 34 0l158 95c10 6 17 18 17 30v190c0 12-7 24-17 30l-158 94c-5 3-11 5-17 5zm49-128c-65 0-84-31-84-59 0-3 1-5 4-5h21c2 0 5 2 5 4 3 22 16 31 54 31 33 0 47-11 47-29 0-11-3-18-55-23-43-4-71-15-71-51 0-33 28-52 73-52 46 0 76 14 79 51 0 1-1 2-2 3s-2 2-3 2h-20c-2 0-5-2-5-4-4-17-16-23-49-23-36 0-41 12-41 22 0 12 5 16 54 23s72 16 72 51c0 36-29 59-79 59z"/></svg>