<svg version="1.1" xmlns="http://www.w3.org/2000/svg" xmlns:xlink="http://www.w3.org/1999/xlink" id="social-foursquare" viewBox="0 0 320.5944 512"><path d="M281 32c35 0 45 20 37 57-10 49-40 202-43 213-3 13-8 34-39 34h-72c-3 0-3 0-6 3-2 2-115 133-115 133-9 10-23 8-28 6s-15-8-15-26V72s10-40 43-40h238zm-6 270c3-11 33-164 43-213zm-8-205c2-9-5-16-12-16H64c-9 0-15 8-15 15v296c0 1 1 1 2 0 0 0 70-84 78-94s11-11 23-11h64c9 0 14-8 15-12s8-43 10-51-6-16-13-16h-82c-10 0-18-8-18-18v-13c0-10 8-17 18-17h96s14-6 15-12z"/></svg>