<svg version="1.1" xmlns="http://www.w3.org/2000/svg" xmlns:xlink="http://www.w3.org/1999/xlink" id="soup-can-outline" viewBox="0 0 320 512"><path d="M160 144C72 144 0 115 0 80s72-64 160-64 160 29 160 64-72 64-160 64zm0-111C90 33 34 52 34 76s56 43 126 43 126-19 126-43-56-43-126-43zm1 127c88 0 158-29 159-64 0 5 0 33-8 40v240c0 35-64 64-152 64S8 411 8 376V136c-8-6-8-40-8-40 0 35 73 64 161 64zm119 216v-80c-18 10-43 17-72 21h-2c-6 20-24 35-46 35s-40-15-46-35h-2c-29-4-54-11-72-21v80c1 2 9 10 30 18 24 9 55 14 90 14s67-5 91-14c21-8 29-16 29-18zm0-112v-91c-33 12-75 19-119 19-45 0-87-7-121-19v91c18 10 43 17 73 21h3c7-17 24-29 44-29s37 12 44 29h3c30-4 55-11 73-21zM178 464zm-18 0h1-1zm152-48l8 16c0 7-3 14-8 20-21 26-81 44-152 44S29 478 8 452c-5-6-8-13-8-20l8-16v-16c0 35 63 64 152 64s152-28 152-64v16z"/></svg>