<svg version="1.1" xmlns="http://www.w3.org/2000/svg" xmlns:xlink="http://www.w3.org/1999/xlink" id="soup-can" viewBox="0 0 320 512"><path d="M0 80c0-43 53-64 160-64s160 21 160 64-53 64-160 64S0 123 0 80zm160 360c-44 0-80-6-109-18S8 394 8 376V248c0 9 4 19 13 27s21 15 37 21 33 10 54 13c1 12 7 23 16 31s20 12 32 12 23-4 32-12 15-19 16-31c31-4 56-12 75-23s29-24 29-38v128c0 18-14 34-43 46s-65 18-109 18zm0-280c44 0 82-6 113-18s47-28 47-46v8c0 5-1 11-2 18s-3 11-6 14v96c0 14-10 27-29 38s-44 19-76 23c-2-11-8-19-17-26s-19-11-30-11-21 4-30 11-15 15-17 26c-32-4-57-12-76-23S8 246 8 232v-96c-5-5-8-18-8-40 0 18 16 34 47 46s69 18 113 18zm152 232v24l8 16c0 7-3 14-8 20-11 13-30 24-58 32s-59 12-94 12-66-4-94-12-47-19-58-32c-5-6-8-13-8-20l8-16v-24c0 18 14 34 43 46s65 18 109 18 80-6 109-18 43-28 43-46z"/></svg>