<svg version="1.1" xmlns="http://www.w3.org/2000/svg" xmlns:xlink="http://www.w3.org/1999/xlink" id="speakerphone" viewBox="0 0 448 512"><path d="M39 182c0 37 20 69 50 86-1 0-2-1-3-1s-4-1-5-1c-35-3-62-33-69-69-6 0-12-7-12-16 0-8 5-15 11-16 6-42 40-75 81-75h8c-36 15-61 51-61 92zm394-91c10 25 15 56 15 88s-5 63-15 88l-3 9c-6 14-15 26-24 34-10 10-22 19-34 20h-3c-7 0-15-2-22-5-3-2-10-5-10-5-22-10-84-28-115-29-4 8-10 20-12 30-2 9-6 27-7 61-1 32 1 59 3 82 0 2 1 5 1 7 0 6-2 9-9 9h-77c-6 0-9-3-9-6v-7c2-72 25-140 26-145 2-9 5-17 7-30 2-12-27-13-40-24-29-17-47-49-47-86 0-41 25-77 59-92h61c58-3 114-21 163-50 1-1 3-1 4-2 8-4 16-6 24-6 13 0 26 6 37 16 9 9 18 21 24 35 1 3 2 5 3 8zm-23 177c9-22 15-54 15-89s-6-66-15-88c-8-18-19-29-30-29s-21 11-29 29c-9 22-15 53-15 88s6 67 15 89c8 19 18 33 29 33s22-15 30-33z"/></svg>