<svg version="1.1" xmlns="http://www.w3.org/2000/svg" xmlns:xlink="http://www.w3.org/1999/xlink" id="speedometer" viewBox="0 0 448 512"><path d="M312 256l8 8-64 84v4c0 18-14 32-32 32s-32-14-32-32 14-32 32-32h4zM224 96c124 0 224 100 224 224 0 34-8 67-22 96h-36c15-27 25-57 26-88h-32v-16h32c-1-29-9-56-22-81l-27 15-8-13 27-16c-8-12-16-23-26-33s-21-18-33-26l-16 27-14-8 16-27c-25-13-52-21-81-22v32h-16v-32c-29 1-56 9-81 22l16 27-14 8-16-27c-12 8-23 16-33 26s-19 21-26 33l28 16-8 13-28-15c-13 25-21 52-22 81h32v16H32c1 31 11 61 26 88H22C8 387 0 354 0 320 0 196 100 96 224 96z"/></svg>