<svg version="1.1" xmlns="http://www.w3.org/2000/svg" xmlns:xlink="http://www.w3.org/1999/xlink" id="steam" viewBox="0 0 512 512"><path d="M480 208c0 20-16 37-37 37-20 0-37-16-37-37 0-20 16-37 37-37 20 0 37 17 37 37zm-37-69c38 0 69 31 69 69s-31 70-69 70l-67 48c-2 26-24 47-51 47-25 0-46-18-51-41L78 254c-8 5-16 7-26 7-28 0-52-24-52-52s24-52 52-52c25 0 45 18 50 41l196 79c8-5 17-8 27-8 2 0 3 1 5 1l43-62c0-38 32-69 70-69zm0 23c-26 0-47 20-47 46s21 47 47 47 46-21 46-47-20-46-46-46zm-391 9c-21 0-38 17-38 38s17 38 38 38c3 0 5 0 8-1l-16-6c-15-7-22-24-16-39s24-23 39-17l19 7c-6-12-19-20-34-20zm273 112c-3 0-6 1-9 1l16 6c16 6 23 24 17 40s-23 23-39 17c-6-3-13-6-19-8 6 12 19 20 34 20 21 0 38-17 38-38s-17-38-38-38z"/></svg>