<svg version="1.1" xmlns="http://www.w3.org/2000/svg" xmlns:xlink="http://www.w3.org/1999/xlink" id="umbrella" viewBox="0 0 448 512"><path d="M344 288zm-240 0zM240 49c116 8 208 109 208 227v12c-4-25-26-52-52-52-29 0-52 23-52 52 0-29-23-52-52-52s-49 12-52 45v135c0 17-6 33-18 45s-29 19-46 19c-35 0-63-29-63-64 0-9 7-16 16-16s16 7 16 16c0 18 14 32 31 32 18 0 32-14 32-32V282c-1-24-26-46-52-46-29 0-52 23-52 52 0-29-23-52-52-52-27 0-49 26-52 52v-18C0 152 92 57 208 49v-1c0-9 7-16 16-16s16 7 16 16v1z"/></svg>