<svg version="1.1" xmlns="http://www.w3.org/2000/svg" xmlns:xlink="http://www.w3.org/1999/xlink" id="volume-mute" viewBox="0 0 448 512"><path d="M224 217l47-51v180l-47-51h-65v-78h65zM332 60c69 38 116 112 116 196 0 124-100 224-224 224-39 0-76-10-108-27l-1-1C46 414 0 340 0 256 0 132 100 32 224 32c39 0 75 10 107 28h1zm30 295c20-28 33-62 33-99 0-66-38-123-92-151-6-3-11-6-17-8-19-7-40-11-62-11-37 0-71 12-99 32l73 74h-76l-36-35c-20 28-32 62-32 99 0 65 36 121 90 150 6 3 13 7 19 9 19 7 39 11 61 11 37 0 72-12 100-32l-20-20v-77z"/></svg>