<svg version="1.1" xmlns="http://www.w3.org/2000/svg" xmlns:xlink="http://www.w3.org/1999/xlink" id="wifi" viewBox="0 0 448 512"><path d="M224 96c80 0 156 30 214 84l10 10-10 9-32 32-10 10-9-9c-44-41-103-64-163-64s-119 23-163 64l-9 9-10-10-32-32-10-9 10-10c58-54 134-84 214-84zm141 160l11 10-10 10-33 32-9 9-10-8c-25-22-57-35-90-35s-65 13-90 35l-10 8-9-9-33-32-10-10 11-10c37-33 83-52 132-54h9c52 0 102 19 141 54zM224 416l-10-10-52-52-11-10 12-10c17-11 32-20 61-20s47 9 62 20l11 10-10 10-53 52z"/></svg>