<svg version="1.1" xmlns="http://www.w3.org/2000/svg" xmlns:xlink="http://www.w3.org/1999/xlink" id="wineglass" viewBox="0 0 256 512"><path d="M167 295c-11 4-24 8-24 32v94c0 11 4 19 12 25 3 2 7 4 15 6 32 9 48 16 50 18 2 1 4 3 4 7 0 0-14 3-96 3s-96-3-96-3c0-4 2-6 4-7 2-2 18-9 50-18 8-2 11-4 14-6 8-6 11-14 11-25v-94c0-24-11-28-22-32s-18-6-26-11c-12-7-23-16-32-26-20-23-31-52-31-87C0 121 4 71 8 57s14-25 31-25h178c17 0 27 11 31 25s8 65 8 115c0 35-11 63-31 86-9 10-20 19-32 26-8 5-15 7-26 11zm-39-25c26 0 50-11 67-28l6-6c16-18 22-35 23-65s-2-83-8-107H39c-7 35-8 80-7 108s7 46 23 64c2 3 4 6 7 8 17 16 41 26 66 26zm80-99c0 10-1 20-4 29s-8 18-15 25l-5 5c-14 14-34 23-56 23-21 0-41-8-55-22l-6-6c-7-7-12-16-15-25s-3-15-4-29c-1-9 0-34 1-53 1-10 2-19 3-22h153c1 6 2 14 2 22 1 21 1 45 1 53zm-16 8v-26c0-4-4-8-8-8s-8 4-8 8v26c0 3 1 6 3 7 1 1 3 1 5 1 4 0 8-3 8-8zm-1-47c1-2 1-4 1-6s-2-4-4-5-4-1-6-1-4 1-5 3-1 4-1 6 2 4 4 5 4 1 6 1 4-1 5-3z"/></svg>