<svg version="1.1" xmlns="http://www.w3.org/2000/svg" xmlns:xlink="http://www.w3.org/1999/xlink" id="xbox" viewBox="0 0 448 512"><path d="M95 248c-49 72-50 139-50 143-28-38-45-84-45-135 0-67 30-128 77-169l3 1c51 18 93 68 93 68s-38 33-78 92zm353 8c0 51-17 97-45 135 0-4-1-71-50-143-40-59-78-92-78-92s42-50 93-68l3-1c47 41 77 102 77 169zM169 81c-37-17-65-12-72-10 36-25 80-39 127-39s91 14 127 39c-7-2-35-6-72 10-29 13-55 35-55 35s-26-22-55-35zm158 212c40 49 54 85 62 108l2 5c-41 46-101 74-167 74S98 452 57 406l1-5c8-23 23-59 63-108 46-57 103-94 103-94s57 37 103 94z"/></svg>