<svg version="1.1" xmlns="http://www.w3.org/2000/svg"   viewBox="0 0 1500 1500">

<path d="M1429.688 1063.477c-8.789-17.578-14.648-35.156-23.438-52.734-11.719-26.367-23.438-52.734-35.156-76.172v-2.93c-105.469-225.586-216.797-454.102-331.055-679.688l-5.859-8.789c-11.719-23.438-23.438-46.875-35.156-70.313-14.648-26.367-32.227-55.664-55.664-82.031-49.805-58.594-117.188-90.82-190.43-90.82-76.172 0-143.555 32.227-193.359 90.82-23.438 26.367-38.086 55.664-52.734 82.031-14.648 23.438-26.367 46.875-38.086 70.313l-5.859 8.789c-114.258 225.586-225.586 454.102-331.055 679.688v2.93c-11.719 23.438-23.438 49.805-35.156 76.172-5.859 17.578-14.648 35.156-20.508 52.734-20.508 55.664-26.367 108.398-20.508 164.063 17.578 111.328 90.82 205.078 196.289 249.023 38.086 14.648 82.031 23.438 123.047 23.438 14.648 0 26.367 0 41.016-2.93 49.805-5.859 99.609-23.438 149.414-49.805 61.523-35.156 120.117-84.961 187.5-155.273 64.453 70.313 125.977 120.117 184.57 155.273 49.805 26.367 102.539 43.945 152.344 49.805 11.719 2.93 26.367 2.93 38.086 2.93 43.945 0 84.961-8.789 123.047-23.438 105.469-43.945 178.711-137.695 196.289-249.023 5.859-55.664 0-108.398-17.578-164.063zM752.93 1142.578c-82.031-102.539-134.766-199.219-152.344-278.32-8.789-35.156-8.789-64.453-5.859-93.75 2.93-23.438 11.719-43.945 23.438-61.523 29.297-41.016 79.102-64.453 134.766-64.453 52.734 0 102.539 23.438 131.836 64.453 11.719 17.578 20.508 38.086 23.438 61.523 5.859 29.297 2.93 58.594-5.859 93.75-17.578 79.102-70.313 175.781-149.414 278.32zM1350.586 1212.891c-8.789 79.102-61.523 143.555-134.766 175.781-35.156 14.648-76.172 17.578-117.188 14.648-38.086-5.859-73.242-17.578-114.258-41.016-52.734-29.297-108.398-76.172-169.922-143.555 99.609-123.047 161.133-234.375 181.641-333.984 11.719-46.875 14.648-87.891 5.859-128.906-5.859-38.086-17.578-70.313-38.086-102.539-46.875-67.383-125.977-105.469-210.938-105.469-87.891 0-166.992 38.086-213.867 105.469-20.508 32.227-32.227 64.453-38.086 102.539-5.859 41.016-5.859 82.031 5.859 128.906 23.438 99.609 84.961 210.938 181.641 333.984-61.523 67.383-117.188 114.258-169.922 143.555-38.086 23.438-76.172 35.156-114.258 41.016-41.016 2.93-79.102 0-117.188-14.648-70.313-32.227-123.047-96.68-134.766-175.781-5.859-38.086-2.93-76.172 11.719-117.188 5.859-14.648 11.719-29.297 20.508-46.875 11.719-23.438 23.438-49.805 35.156-73.242v-2.93c102.539-225.586 213.867-451.172 328.125-676.758l5.859-8.789c11.719-23.438 23.438-46.875 35.156-67.383 14.648-26.367 26.367-46.875 43.945-67.383 32.227-38.086 73.242-55.664 120.117-55.664s87.891 17.578 117.188 55.664c17.578 20.508 29.297 41.016 43.945 64.453 11.719 23.438 23.438 46.875 35.156 70.313l5.859 8.789c114.258 225.586 225.586 451.172 328.125 676.758v0c11.719 26.367 23.438 49.805 35.156 76.172 8.789 17.578 14.648 32.227 20.508 46.875 14.648 41.016 17.578 79.102 11.719 117.188z"></path>
</svg>
