<svg version="1.1" xmlns="http://www.w3.org/2000/svg"   viewBox="0 0 1500 1500">

<path d="M976.5 384c25.5 4.5 49.5 13.5 72 24 81 40.5 112.5 118.5 79.5 204-18 49.5-48 93-79.5 133.5-46.5 58.5-94.5 117-142.5 175.5-12 13.5-22.5 28.5-31.5 45-19.5 33-9 49.5 28.5 49.5 52.5-1.5 103.5-9 156-18 136.5-25.5 267-72 396-124.5 6-3 10.5-4.5 16.5-6 0 0 0 0 0 0 7.5-4.5 15-9 28.5-10.5-6 9-13.5 12-19.5 15-177 99-360 186-559.5 231-36 7.5-72 10.5-109.5 6-57-7.5-84-46.5-67.5-102 13.5-48 45-85.5 76.5-121.5 60-70.5 123-136.5 177-210 15-21 28.5-42 42-63 10.5-18 18-37.5 18-58.5 0 0 0 0 0 0s0 0 0 0c-1.5-4.5-1.5-7.5-3-12-7.5-22.5-24-36-43.5-48-46.5-25.5-99-39-150-54-10.5-3-18 4.5-25.5 9s0 7.5 3 10.5c12 10.5 24 19.5 37.5 31.5-45 9-87 16.5-129 25.5-120 25.5-235.5 60-351 100.5-10.5 4.5-16.5 7.5-9 19.5 19.5 28.5 12 51-15 72-16.5 12-30 28.5-46.5 45 103.5 27 196.5 10.5 282-45 9-6 6-9 0-15-4.5-4.5-9-7.5-13.5-12 28.5-6 61.5 28.5 61.5 64.5 0 7.5-4.5 9-10.5 9s-9 0-10.5-7.5c-6-25.5-6-25.5-27-12-94.5 58.5-193.5 73.5-300 43.5-13.5-3-21-6-19.5 13.5 1.5 24 7.5 49.5-1.5 69s-37.5 21-57 33c-25.5 16.5-49.5 33-69 58.5-13.5 18-19.5 36-15 58.5v0c4.5 4.5 7.5 10.5 7.5 16.5 37.5 28.5 81 34.5 124.5 36 105 4.5 207-16.5 307.5-40.5 3-1.5 6-1.5 10.5-1.5 1.5 0 1.5 1.5 6 1.5-57 28.5-112.5 54-171 70.5-76.5 22.5-154.5 36-234 34.5-34.5 0-67.5-7.5-100.5-19.5-73.5-30-106.5-91.5-90-169.5 9-54 34.5-97.5 63-139.5 118.5-175.5 283.5-289.5 480-361.5 78-28.5 157.5-49.5 238.5-60 0-1.5 94.5-10.5 189 6z"></path>
</svg>
