<svg version="1.1" xmlns="http://www.w3.org/2000/svg"   viewBox="0 0 1500 1500">

<path d="M205.078 304.688c0 0 0-2.93 2.93-2.93 17.578-14.648 35.156-23.438 61.523-20.508 17.578 2.93 32.227 8.789 52.734 14.648 20.508 8.789 38.086 17.578 61.523 23.438 11.719 5.859 26.367 8.789 38.086 8.789 41.016 0 67.383-29.297 64.453-67.383 0 0 0-2.93 2.93-2.93 5.859 8.789 17.578 14.648 29.297 17.578 17.578 2.93 32.227 0 46.875-5.859 23.438-8.789 35.156-26.367 29.297-52.734 0-8.789-2.93-17.578-5.859-26.367 0-8.789 0-11.719 5.859-11.719 14.648 0 29.297 0 43.945 2.93 29.297 5.859 55.664 20.508 82.031 35.156 5.859 2.93 11.719 5.859 20.508 11.719 0-8.789-2.93-14.648-2.93-23.438-2.93-20.508-2.93-38.086 5.859-55.664 0-8.789 2.93-14.648 8.789-14.648 2.93 0 2.93 5.859 5.859 11.719 5.859 17.578 2.93 38.086 2.93 58.594 0 5.859-2.93 11.719-2.93 17.578 5.859 0 8.789-2.93 8.789-5.859 17.578-8.789 35.156-20.508 55.664-26.367 26.367-11.719 55.664-17.578 82.031-14.648 8.789 2.93 8.789 2.93 5.859 11.719s-2.93 17.578-5.859 23.438c-2.93 29.297 8.789 49.805 35.156 55.664 26.367 8.789 52.734 5.859 76.172-11.719 0 2.93 0 5.859 0 5.859-2.93 29.297 20.508 58.594 49.805 61.523 14.648 2.93 29.297 0 41.016-2.93 23.438-5.859 43.945-14.648 64.453-23.438 20.508-5.859 38.086-11.719 55.664-14.648 26.367-2.93 49.805-2.93 67.383 17.578 0 2.93 2.93 5.859 8.789 2.93-8.789-17.578-23.438-26.367-43.945-32.227-20.508-2.93-43.945 0-64.453 2.93-26.367 2.93-49.805 8.789-76.172 8.789-17.578 0-35.156 0-52.734-11.719-5.859-2.93-11.719-5.859-11.719-11.719 2.93-5.859 11.719-8.789 17.578-8.789 11.719-2.93 23.438 0 35.156 2.93 8.789 0 20.508 2.93 32.227 0-43.945-29.297-90.82-35.156-137.695-38.086 23.438-8.789 46.875-17.578 73.242-32.227-5.859 0-8.789 0-14.648 0-26.367 2.93-55.664 2.93-84.961-2.93-8.789-2.93-8.789-2.93-2.93-11.719 8.789-14.648 23.438-20.508 41.016-26.367 11.719-5.859 23.438-5.859 35.156-8.789-8.789-5.859-20.508-8.789-32.227-8.789-32.227-2.93-64.453 0-96.68 8.789-26.367 2.93-49.805 8.789-76.172 11.719-5.859 0-8.789-2.93-8.789-8.789 0-20.508 5.859-35.156 20.508-43.945 11.719-8.789 26.367-14.648 41.016-17.578 2.93-2.93 8.789-2.93 14.648-5.859-2.93 0-5.859 0-8.789 0-32.227 0-61.523 8.789-87.891 26.367-5.859 2.93-8.789 2.93-14.648 0-20.508-14.648-32.227-35.156-38.086-58.594-2.93-11.719-2.93-20.508-2.93-35.156-5.859 5.859-2.93 11.719-8.789 17.578-2.93-5.859-2.93-11.719-8.789-20.508 0 11.719 0 23.438 0 32.227-5.859 26.367-17.578 49.805-41.016 64.453-5.859 2.93-8.789 2.93-14.648 0-17.578-11.719-38.086-20.508-58.594-23.438-11.719-2.93-23.438-2.93-35.156 0 2.93 0 5.859 2.93 8.789 2.93 17.578 2.93 32.227 8.789 46.875 17.578 11.719 14.648 20.508 29.297 17.578 49.805 0 5.859-2.93 8.789-8.789 5.859-20.508-2.93-43.945-5.859-64.453-11.719-38.086-5.859-73.242-11.719-108.398-8.789-11.719 2.93-20.508 2.93-32.227 8.789 0 2.93 2.93 0 5.859 0 14.648 2.93 29.297 5.859 46.875 11.719 8.789 5.859 20.508 11.719 26.367 23.438 2.93 5.859 2.93 8.789-5.859 8.789-29.297 5.859-58.594 5.859-87.891 2.93-2.93 0-5.859 0-8.789 2.93 26.367 11.719 49.805 20.508 76.172 32.227-49.805 0-99.609 5.859-140.625 38.086 2.93 2.93 5.859 0 8.789 0 17.578 0 32.227-5.859 49.805-5.859 5.859 0 11.719 2.93 20.508 5.859 5.859 2.93 5.859 5.859 0 11.719-11.719 8.789-26.367 14.648-41.016 14.648-20.508 2.93-41.016 0-64.453-2.93-26.367-5.859-49.805-8.789-76.172-8.789-14.648 0-23.438 0-35.156 5.859-11.719 2.93-17.578 11.719-23.438 23.438 0 2.93-2.93 2.93 0 5.859 0 2.93 0 0 2.93 0zM580.078 679.688c-11.719 11.719-23.438 17.578-32.227 26.367-8.789 11.719-17.578 23.438-17.578 38.086-2.93 70.313 26.367 123.047 79.102 164.063 5.859 5.859 11.719 8.789 20.508 11.719 32.227 14.648 70.313 5.859 93.75-23.438 26.367-26.367 29.297-64.453 11.719-96.68-8.789-11.719-17.578-23.438-26.367-32.227-11.719-14.648-23.438-26.367-32.227-41.016-17.578-26.367-20.508-52.734-11.719-82.031 5.859-14.648 11.719-29.297 20.508-41.016 11.719-23.438 20.508-49.805 20.508-73.242 0-8.789 0-8.789-8.789-8.789-14.648 2.93-23.438 8.789-35.156 14.648-11.719 2.93-20.508 8.789-29.297 11.719-26.367 2.93-41.016-5.859-49.805-26.367-2.93-8.789-5.859-14.648-5.859-23.438-2.93-20.508-5.859-38.086-8.789-55.664-2.93-5.859 0-5.859 2.93-8.789 17.578-2.93 32.227 0 46.875 11.719 8.789 5.859 14.648 11.719 23.438 17.578 23.438 17.578 52.734 23.438 82.031 26.367-2.93 0-2.93 0-2.93-2.93-35.156-20.508-61.523-43.945-87.891-76.172-5.859-8.789-14.648-14.648-23.438-23.438-23.438-17.578-46.875-17.578-67.383 5.859-2.93 2.93-5.859 8.789-8.789 11.719-17.578 23.438-26.367 55.664-29.297 84.961 0 32.227 11.719 52.734 38.086 64.453 8.789 2.93 14.648 5.859 26.367 11.719 8.789 2.93 14.648 5.859 23.438 11.719 32.227 17.578 38.086 49.805 17.578 79.102-11.719 8.789-20.508 17.578-29.297 23.438zM908.203 574.219c11.719-5.859 23.438-14.648 35.156-17.578 8.789-5.859 20.508-8.789 29.297-14.648 14.648-8.789 20.508-17.578 23.438-32.227 8.789-52.734-11.719-93.75-46.875-128.906 0-2.93-2.93-2.93-2.93-2.93-11.719-8.789-23.438-8.789-32.227-5.859-11.719 8.789-23.438 14.648-32.227 23.438-14.648 11.719-26.367 23.438-38.086 35.156-14.648 20.508-35.156 35.156-55.664 46.875-2.93 2.93-8.789 2.93-11.719 8.789 29.297-2.93 58.594-8.789 82.031-26.367 8.789-5.859 17.578-14.648 26.367-20.508 14.648-8.789 29.297-11.719 43.945-11.719 5.859 2.93 8.789 2.93 5.859 8.789-2.93 8.789-5.859 17.578-5.859 26.367-2.93 14.648-5.859 29.297-8.789 46.875-8.789 29.297-29.297 38.086-58.594 32.227-8.789-2.93-17.578-8.789-26.367-11.719-11.719-5.859-20.508-8.789-35.156-11.719-5.859-2.93-8.789 0-8.789 5.859 2.93 26.367 8.789 49.805 20.508 73.242 5.859 5.859 8.789 14.648 14.648 23.438 8.789 23.438 14.648 43.945 8.789 70.313-2.93 23.438-14.648 38.086-29.297 55.664-11.719 14.648-26.367 26.367-35.156 41.016-35.156 49.805-17.578 105.469 35.156 128.906 32.227 11.719 58.594 5.859 84.961-11.719 43.945-35.156 70.313-79.102 76.172-137.695 2.93-32.227-5.859-58.594-32.227-76.172-8.789-8.789-17.578-17.578-26.367-23.438-8.789-8.789-14.648-14.648-20.508-26.367-14.648-23.438-5.859-49.805 20.508-67.383zM278.32 952.148c5.859-8.789 11.719-17.578 17.578-26.367 5.859-14.648 11.719-29.297 20.508-41.016 5.859-17.578 14.648-35.156 23.438-49.805 14.648-26.367 35.156-35.156 64.453-26.367 5.859 0 14.648 5.859 20.508 8.789 0 0 2.93 2.93 5.859 0-5.859-17.578-14.648-29.297-32.227-35.156-11.719-5.859-26.367-5.859-38.086-5.859-29.297 0-55.664 8.789-82.031 23.438-2.93 2.93-5.859 5.859-5.859 0-5.859-46.875-8.789-93.75 0-140.625 5.859-43.945 29.297-79.102 67.383-102.539 8.789-2.93 17.578-8.789 29.297-14.648 11.719-8.789 23.438-14.648 32.227-23.438 5.859-5.859 14.648-11.719 17.578-20.508 0 0-2.93-2.93-2.93-2.93-2.93 0-2.93 0-5.859 0-38.086-2.93-73.242 0-111.328 11.719-5.859 2.93-5.859 0-8.789-2.93 0-11.719-5.859-20.508-14.648-23.438-5.859-2.93-8.789-5.859-14.648-5.859s-5.859-2.93-5.859-8.789c0-2.93 0-2.93 2.93-5.859 5.859-32.227 23.438-55.664 49.805-73.242 17.578-11.719 38.086-20.508 58.594-26.367 2.93-2.93 5.859-2.93 2.93-5.859-20.508-20.508-41.016-35.156-67.383-43.945-17.578-2.93-35.156-2.93-49.805 5.859-5.859 0-8.789 2.93-8.789 8.789 0 14.648 5.859 26.367 17.578 35.156 8.789 8.789 8.789 8.789 0 17.578-17.578 11.719-29.297 29.297-38.086 46.875-29.297 46.875-46.875 96.68-46.875 149.414 0 5.859 2.93 8.789 5.859 11.719 8.789 5.859 17.578 8.789 26.367 11.719 2.93 0 5.859 0 2.93 2.93-2.93 17.578 5.859 29.297 14.648 41.016 2.93 2.93 5.859 5.859 2.93 8.789-11.719 76.172-5.859 152.344 5.859 228.516 2.93 14.648 2.93 14.648-8.789 20.508-23.438 11.719-35.156 32.227-29.297 58.594 2.93 2.93 2.93 5.859 5.859 8.789 29.297 11.719 55.664 11.719 76.172-14.648zM1271.484 896.484c-5.859-2.93-8.789-2.93-5.859-8.789 14.648-79.102 20.508-158.203 5.859-234.375 0-5.859 0-5.859 2.93-8.789 11.719-11.719 17.578-26.367 14.648-41.016 0-2.93 0-5.859 5.859-5.859s14.648-2.93 23.438-8.789c5.859-2.93 8.789-8.789 8.789-14.648-2.93-61.523-23.438-114.258-58.594-161.133-8.789-11.719-20.508-20.508-29.297-32.227s-8.789-11.719 2.93-20.508c5.859-5.859 11.719-11.719 14.648-17.578 2.93-20.508 0-23.438-20.508-26.367-32.227-8.789-82.031 14.648-105.469 46.875 2.93 0 5.859 2.93 8.789 2.93 23.438 8.789 43.945 17.578 64.453 32.227 23.438 20.508 38.086 43.945 41.016 73.242 0 5.859 0 8.789-5.859 8.789-17.578 0-29.297 8.789-32.227 29.297-2.93 5.859-2.93 5.859-8.789 2.93-38.086-11.719-76.172-14.648-111.328-11.719-2.93 0-5.859 0-8.789 2.93 2.93 2.93 5.859 8.789 8.789 11.719 11.719 11.719 23.438 17.578 35.156 26.367 17.578 8.789 29.297 14.648 43.945 26.367 29.297 17.578 46.875 41.016 55.664 73.242 14.648 55.664 11.719 108.398 5.859 161.133 0 2.93-2.93 5.859-5.859 2.93-26.367-20.508-61.523-26.367-99.609-23.438-14.648 0-26.367 5.859-38.086 14.648-8.789 5.859-11.719 14.648-14.648 26.367 8.789-2.93 14.648-5.859 20.508-5.859 26.367-11.719 46.875-5.859 64.453 14.648 5.859 5.859 8.789 11.719 11.719 17.578 8.789 14.648 14.648 32.227 23.438 46.875 8.789 17.578 14.648 35.156 23.438 52.734 20.508 29.297 52.734 38.086 84.961 23.438 2.93-2.93 5.859-2.93 5.859-8.789 5.859-17.578 2.93-32.227-8.789-46.875-8.789-11.719-14.648-17.578-23.438-20.508zM946.289 1154.297c-14.648 2.93-20.508 8.789-26.367 20.508-5.859 14.648-5.859 26.367-8.789 38.086-5.859 29.297-17.578 55.664-38.086 79.102-23.438 29.297-49.805 55.664-82.031 79.102-2.93 5.859-8.789 8.789-14.648 11.719-14.648 8.789-32.227 8.789-49.805 2.93-8.789-5.859-20.508-11.719-29.297-20.508-32.227-23.438-58.594-55.664-84.961-87.891-11.719-17.578-20.508-38.086-23.438-61.523 0-11.719-2.93-26.367-8.789-41.016-2.93-8.789-11.719-17.578-26.367-17.578-11.719-2.93-20.508 2.93-29.297 14.648-5.859 8.789-8.789 23.438-11.719 35.156-2.93 20.508 0 41.016 8.789 61.523 5.859 8.789 14.648 17.578 26.367 17.578 0-2.93 0-2.93-2.93-5.859-8.789-14.648-14.648-35.156-11.719-55.664 0-5.859 2.93-11.719 5.859-17.578 5.859-2.93 8.789-2.93 11.719 2.93 2.93 2.93 2.93 8.789 2.93 14.648 2.93 29.297 17.578 52.734 32.227 73.242 11.719 20.508 26.367 38.086 41.016 55.664 2.93 5.859 5.859 8.789 2.93 14.648-2.93 23.438 0 43.945 8.789 64.453 2.93 5.859 8.789 11.719 14.648 17.578 0-5.859-2.93-8.789-2.93-14.648-2.93-11.719-5.859-23.438-2.93-35.156 0-5.859 5.859-11.719 14.648-11.719 17.578 0 35.156 8.789 46.875 20.508 11.719 8.789 8.789 8.789 2.93 17.578-8.789 8.789-17.578 23.438-23.438 35.156s-8.789 23.438-2.93 41.016c2.93-8.789 5.859-14.648 11.719-20.508 2.93-2.93 8.789-8.789 11.719-11.719 8.789-5.859 17.578-11.719 23.438-17.578 14.648-8.789 14.648-8.789 32.227 0 17.578 11.719 35.156 23.438 43.945 43.945 0 0 2.93 0 2.93 0 2.93-17.578-2.93-32.227-11.719-46.875-5.859-8.789-11.719-20.508-17.578-29.297-2.93-2.93-5.859-5.859-2.93-8.789 11.719-8.789 23.438-20.508 43.945-23.438 23.438-2.93 26.367 0 26.367 23.438 0 8.789-2.93 17.578-2.93 29.297 0 2.93-2.93 2.93-2.93 8.789 5.859-5.859 8.789-11.719 14.648-17.578 11.719-20.508 11.719-43.945 8.789-67.383-2.93-5.859 0-8.789 2.93-14.648 17.578-20.508 35.156-41.016 46.875-64.453 11.719-20.508 20.508-41.016 23.438-61.523 0-5.859 2.93-8.789 5.859-14.648 0-2.93 2.93-5.859 5.859-5.859s5.859 2.93 5.859 5.859c11.719 17.578 8.789 46.875-2.93 61.523-2.93 2.93-2.93 5.859-5.859 8.789s-2.93 2.93-2.93 5.859c2.93 0 2.93 0 5.859 0 8.789-2.93 14.648-8.789 20.508-14.648 14.648-32.227 17.578-64.453 0-96.68-2.93-14.648-11.719-20.508-26.367-20.508zM1239.258 1031.25c-8.789-5.859-20.508-11.719-32.227-20.508-8.789-2.93-14.648-8.789-20.508-20.508-2.93-2.93-5.859-5.859-2.93-11.719 5.859-2.93 8.789-5.859 14.648-2.93 5.859 0 11.719 2.93 17.578 2.93 2.93 2.93 5.859 2.93 11.719 0-8.789-2.93-14.648-8.789-20.508-14.648-5.859-2.93-11.719-5.859-20.508-2.93-5.859 0-5.859-2.93-5.859-5.859 2.93-11.719 2.93-26.367 2.93-38.086-2.93-26.367-14.648-49.805-35.156-64.453-26.367-17.578-55.664-14.648-76.172 2.93 17.578 5.859 17.578 5.859 35.156 23.438 5.859 5.859 11.719 11.719 23.438 8.789 5.859 0 8.789 2.93 8.789 8.789-2.93 23.438-5.859 49.805-11.719 76.172-14.648 67.383-49.805 128.906-90.82 187.5-2.93 2.93-5.859 2.93-5.859 0-11.719-11.719-20.508-23.438-32.227-32.227-11.719-14.648-23.438-23.438-38.086-32.227-14.648-5.859-29.297-5.859-43.945 0-8.789 5.859-17.578 8.789-29.297 8.789-2.93 0-2.93 0-2.93 2.93 2.93 23.438 20.508 35.156 41.016 29.297 8.789 0 17.578-5.859 23.438-5.859 26.367-11.719 41.016-2.93 49.805 26.367 0 0 2.93 2.93 2.93 5.859 2.93 17.578 2.93 35.156 2.93 52.734 2.93 17.578 2.93 41.016 11.719 58.594 0 5.859 2.93 8.789 8.789 14.648 0-2.93 0-5.859 0-8.789-2.93-35.156 5.859-67.383 20.508-96.68 14.648-26.367 35.156-46.875 58.594-67.383 8.789-5.859 8.789-5.859 14.648 2.93 8.789 8.789 11.719 17.578 17.578 23.438 2.93 5.859 8.789 11.719 17.578 14.648-11.719-29.297-14.648-61.523-11.719-90.82 0-20.508 5.859-41.016 17.578-58.594 2.93-5.859 5.859-5.859 11.719 0 5.859 2.93 8.789 8.789 8.789 14.648 0 11.719 0 23.438 0 32.227s2.93 17.578 8.789 23.438c0-5.859 2.93-11.719 2.93-17.578s0-11.719 2.93-14.648c2.93-14.648 14.648-17.578 26.367-14.648 14.648 2.93 23.438 11.719 32.227 23.438 5.859 14.648 2.93 26.367-8.789 35.156-2.93 2.93-8.789 5.859-11.719 8.789 8.789 0 14.648-2.93 20.508-2.93 23.438-11.719 29.297-38.086 11.719-55.664-8.789 0-17.578-5.859-26.367-8.789zM556.641 1133.789c8.789 2.93 17.578 5.859 26.367 8.789 5.859 0 14.648-2.93 20.508-5.859 5.859-5.859 8.789-17.578 11.719-23.438 2.93-2.93 0-5.859-2.93-5.859-8.789 0-17.578-2.93-23.438-5.859-20.508-11.719-38.086-8.789-55.664 2.93-14.648 8.789-26.367 20.508-38.086 32.227-8.789 8.789-14.648 14.648-23.438 23.438-2.93 2.93-5.859 2.93-8.789 0-20.508-29.297-38.086-58.594-52.734-90.82-26.367-52.734-43.945-111.328-46.875-172.852 0-5.859 0-8.789 8.789-8.789 8.789 2.93 14.648 0 20.508-5.859 11.719-11.719 20.508-23.438 38.086-26.367-26.367-20.508-61.523-17.578-84.961 2.93-14.648 11.719-20.508 32.227-23.438 49.805-2.93 14.648-2.93 32.227 0 46.875 0 2.93 2.93 5.859-2.93 5.859-20.508-5.859-32.227 8.789-43.945 17.578 2.93 0 5.859 0 11.719 0 5.859-2.93 11.719-5.859 17.578-5.859s11.719 2.93 14.648 5.859c2.93 5.859 0 8.789-2.93 11.719-5.859 5.859-8.789 11.719-14.648 17.578-11.719 5.859-23.438 11.719-32.227 17.578-11.719 5.859-20.508 11.719-29.297 20.508-8.789 11.719-11.719 26.367-2.93 41.016 5.859 11.719 20.508 17.578 35.156 17.578-2.93-2.93-5.859-5.859-11.719-8.789-11.719-8.789-14.648-17.578-5.859-32.227 2.93-8.789 11.719-17.578 20.508-23.438 20.508-11.719 35.156-5.859 41.016 17.578 0 5.859 0 11.719 2.93 17.578 0 0 0 2.93 2.93 2.93 2.93-5.859 2.93-11.719 5.859-20.508 0-11.719 0-23.438 0-32.227 2.93-8.789 2.93-14.648 8.789-17.578 5.859-5.859 8.789-5.859 14.648 2.93 2.93 5.859 5.859 11.719 8.789 20.508 8.789 26.367 8.789 55.664 5.859 84.961-2.93 14.648-5.859 29.297-8.789 43.945 8.789-5.859 14.648-11.719 20.508-20.508 5.859-5.859 8.789-17.578 14.648-23.438 2.93-2.93 5.859-2.93 8.789 0 35.156 29.297 61.523 64.453 76.172 108.398 5.859 20.508 8.789 43.945 5.859 64.453 2.93 0 2.93-2.93 2.93-2.93 8.789-17.578 11.719-35.156 11.719-52.734 5.859-23.438 2.93-46.875 8.789-70.313 2.93-32.227 17.578-41.016 49.805-29.297zM843.75 1028.32c8.789-14.648 11.719-29.297 11.719-46.875 0-11.719-2.93-14.648-14.648-17.578-2.93 0-5.859 0-11.719 0-8.789 0-17.578 0-29.297 0-20.508 2.93-26.367-2.93-35.156-23.438 0-8.789-2.93-14.648-8.789-17.578-5.859-5.859-8.789-5.859-14.648 0-2.93 5.859-5.859 14.648-8.789 20.508-5.859 14.648-14.648 20.508-29.297 20.508-5.859 0-14.648 0-23.438 0s-20.508-2.93-29.297 2.93c-5.859 0-5.859 2.93-8.789 8.789 0 20.508 5.859 41.016 17.578 58.594 8.789 8.789 14.648 20.508 23.438 32.227 11.719 14.648 14.648 29.297 14.648 46.875 0 0 0 2.93 2.93 2.93 5.859-2.93 5.859-11.719 8.789-17.578 2.93-8.789 2.93-17.578 5.859-23.438s8.789-5.859 14.648-2.93c2.93 0 8.789 2.93 5.859 11.719s0 20.508 2.93 32.227c5.859 17.578 17.578 35.156 20.508 52.734 2.93-5.859 2.93-14.648 2.93-20.508-2.93-11.719-5.859-26.367-8.789-38.086 0-8.789 0-17.578 2.93-29.297 5.859-8.789 11.719-11.719 17.578-11.719 8.789 2.93 11.719 8.789 14.648 14.648 0 8.789 2.93 14.648 2.93 23.438 2.93 2.93 2.93 8.789 8.789 8.789-5.859-23.438 2.93-38.086 17.578-55.664 11.719-11.719 17.578-23.438 26.367-32.227zM694.336 676.758c-8.789 2.93-11.719 5.859-8.789 11.719 0 23.438 8.789 43.945 23.438 61.523 11.719 14.648 23.438 26.367 35.156 41.016 2.93 2.93 5.859 2.93 8.789 0 11.719-11.719 26.367-23.438 38.086-38.086 14.648-20.508 23.438-41.016 23.438-64.453 0-5.859 0-8.789-8.789-11.719-17.578-2.93-35.156-5.859-55.664-5.859s-38.086 2.93-55.664 5.859zM708.984 360.352c-5.859 8.789-11.719 20.508-14.648 32.227-5.859 14.648-2.93 26.367 5.859 38.086 23.438 26.367 52.734 29.297 82.031 14.648 2.93 0 5.859-2.93 11.719-5.859 17.578-11.719 23.438-29.297 14.648-49.805-2.93-8.789-8.789-14.648-11.719-20.508-14.648-17.578-17.578-35.156-14.648-55.664 0-5.859 0-11.719-2.93-17.578-5.859 11.719-11.719 23.438-14.648 35.156-2.93 14.648-2.93 29.297-2.93 41.016 0 8.789 0 17.578-2.93 23.438-2.93 2.93-5.859 5.859-11.719 5.859-2.93 0-2.93-2.93-5.859-8.789-5.859-14.648-5.859-32.227-5.859-46.875 0-11.719 0-23.438-2.93-35.156-2.93-5.859-5.859-11.719-11.719-14.648 2.93 11.719 2.93 23.438 0 35.156s-8.789 20.508-11.719 29.297zM767.578 524.414c-2.93 2.93-2.93 8.789-2.93 11.719-2.93 14.648 2.93 29.297 5.859 41.016 5.859 11.719 8.789 23.438 8.789 35.156 0 2.93 0 5.859-5.859 8.789-11.719 5.859-26.367 8.789-41.016 5.859-11.719-5.859-14.648-8.789-11.719-20.508 2.93-14.648 8.789-26.367 11.719-41.016 2.93-11.719 5.859-23.438 0-38.086-5.859 20.508-20.508 41.016-29.297 58.594s-11.719 38.086-11.719 58.594c0 5.859 0 8.789 5.859 11.719 35.156 14.648 73.242 14.648 105.469 0 5.859-2.93 8.789-5.859 8.789-11.719 0-17.578-2.93-35.156-8.789-52.734-11.719-23.438-29.297-43.945-35.156-67.383zM205.078 685.547c0-8.789-2.93-14.648-14.648-11.719s-14.648 8.789-17.578 17.578c-5.859 20.508-2.93 38.086 5.859 55.664 0-14.648 5.859-26.367 14.648-38.086 5.859-8.789 8.789-14.648 11.719-23.438zM1327.148 688.477c-2.93-8.789-8.789-14.648-20.508-17.578-5.859 0-8.789 0-11.719 8.789 0 11.719 2.93 17.578 8.789 26.367 5.859 11.719 17.578 23.438 17.578 38.086 8.789-17.578 11.719-35.156 5.859-55.664z"></path>
</svg>
