<svg version="1.1" xmlns="http://www.w3.org/2000/svg"   viewBox="0 0 1500 1500">

<path d="M1333.008 1119.141c-184.57 79.102-383.789 117.188-568.359 117.188-269.531 0-530.273-73.242-741.211-196.289-17.578-11.719-32.227 8.789-17.578 20.508 196.289 178.711 454.102 284.18 741.211 284.18 205.078 0 445.313-64.453 609.375-184.57 26.367-20.508 2.93-52.734-23.438-41.016zM1494.141 1028.32c-17.578-23.438-172.852-41.016-266.602 23.438-14.648 11.719-11.719 23.438 5.859 23.438 52.734-5.859 169.922-20.508 190.43 5.859s-23.438 137.695-43.945 187.5c-5.859 14.648 8.789 20.508 20.508 8.789 87.891-73.242 111.328-228.516 93.75-249.023zM832.031 474.609c-84.961 8.789-196.289 14.648-275.391 49.805-93.75 41.016-158.203 120.117-158.203 240.234 0 152.344 96.68 228.516 219.727 228.516 105.469 0 161.133-26.367 243.164-108.398 26.367 41.016 35.156 58.594 82.031 99.609 11.719 5.859 26.367 5.859 35.156-2.93v0c29.297-26.367 82.031-73.242 114.258-96.68 11.719-11.719 8.789-26.367 0-41.016-26.367-35.156-55.664-67.383-55.664-134.766v-228.516c0-96.68 5.859-184.57-64.453-251.953-55.664-52.734-149.414-73.242-219.727-73.242-140.625 0-295.898 52.734-328.125 225.586-2.93 17.578 8.789 26.367 20.508 29.297l143.555 14.648c11.719 0 23.438-11.719 26.367-26.367 11.719-58.594 61.523-87.891 117.188-87.891 29.297 0 64.453 11.719 82.031 38.086 20.508 29.297 17.578 70.313 17.578 105.469v20.508zM802.734 779.297c-20.508 41.016-58.594 67.383-99.609 67.383-55.664 0-90.82-43.945-90.82-108.398 0-123.047 114.258-146.484 219.727-146.484v32.227c0 55.664 0 102.539-29.297 155.273z"></path>
</svg>
