<svg version="1.1" xmlns="http://www.w3.org/2000/svg"   viewBox="0 0 1500 1500">

<path d="M741.211 591.797c67.383-8.789 117.188-20.508 149.414-35.156 52.734-20.508 79.102-58.594 79.102-102.539 0-58.594-20.508-99.609-61.523-120.117-41.016-23.438-102.539-35.156-181.641-35.156-87.891 0-149.414 23.438-187.5 64.453-26.367 32.227-43.945 76.172-52.734 131.836h-357.422c5.859-125.977 41.016-225.586 102.539-304.688 99.609-125.977 266.602-190.43 506.836-190.43 158.203 0 295.898 32.227 418.945 93.75 120.117 61.523 181.641 178.711 181.641 348.633v653.32c0 43.945 0 99.609 2.93 164.063 2.93 46.875 8.789 82.031 20.508 99.609 14.648 17.578 32.227 32.227 55.664 43.945v52.734h-404.297c-11.719-29.297-20.508-55.664-23.438-82.031-5.859-26.367-8.789-52.734-11.719-84.961-49.805 55.664-111.328 102.539-178.711 140.625-79.102 46.875-169.922 70.313-269.531 70.313-128.906 0-237.305-35.156-322.266-108.398s-125.977-178.711-125.977-313.477c0-175.781 67.383-301.758 202.148-380.859 76.172-41.016 184.57-73.242 328.125-90.82zM969.727 764.648c-23.438 14.648-49.805 26.367-73.242 35.156s-55.664 20.508-99.609 26.367l-84.961 14.648c-79.102 14.648-134.766 32.227-169.922 52.734-58.594 32.227-87.891 84.961-87.891 155.273 0 64.453 17.578 111.328 52.734 140.625 35.156 26.367 79.102 41.016 131.836 41.016 79.102 0 155.273-23.438 222.656-70.313 70.313-46.875 105.469-131.836 108.398-257.813z"></path>
</svg>
