<svg version="1.1" xmlns="http://www.w3.org/2000/svg"   viewBox="0 0 1500 1500">

<path d="M1300.781 468.75c-49.805 0-90.82 43.945-90.82 93.75v363.281c0 49.805 41.016 90.82 90.82 90.82s90.82-41.016 90.82-90.82v-363.281c0-49.805-41.016-93.75-90.82-93.75zM199.219 468.75c-49.805 0-90.82 43.945-90.82 93.75v363.281c0 49.805 41.016 90.82 90.82 90.82s90.82-41.016 90.82-90.82v-363.281c0-49.805-41.016-93.75-90.82-93.75zM345.703 471.68v662.109c0 41.016 32.227 73.242 70.313 73.242h82.031v199.219c0 52.734 41.016 93.75 90.82 93.75s90.82-41.016 90.82-93.75v-199.219h143.555v199.219c0 52.734 41.016 93.75 90.82 93.75s90.82-41.016 90.82-93.75v-199.219h82.031c38.086 0 70.313-32.227 70.313-73.242v-662.109zM943.359 128.906l73.242-108.398c5.859-5.859 2.93-14.648-2.93-17.578-5.859-5.859-11.719-2.93-17.578 2.93l-76.172 114.258c-52.734-20.508-108.398-32.227-169.922-32.227s-117.188 11.719-169.922 32.227l-76.172-114.258c-5.859-5.859-11.719-8.789-17.578-2.93-5.859 2.93-8.789 11.719-2.93 17.578l73.242 108.398c-117.188 55.664-202.148 161.133-213.867 284.18h814.453c-11.719-123.047-96.68-228.516-213.867-284.18zM580.078 301.758c-26.367 0-46.875-20.508-46.875-43.945 0-26.367 20.508-46.875 46.875-46.875 23.438 0 43.945 20.508 43.945 46.875 0 23.438-20.508 43.945-43.945 43.945zM925.781 301.758c-23.438 0-43.945-20.508-43.945-43.945 0-26.367 20.508-46.875 43.945-46.875 26.367 0 46.875 20.508 46.875 46.875 0 23.438-20.508 43.945-46.875 43.945z"></path>
</svg>
