<svg version="1.1" xmlns="http://www.w3.org/2000/svg"   viewBox="0 0 1500 1500">

<path d="M222.656 1063.477c0-61.523 14.648-108.398 41.016-143.555 23.438-29.297 58.594-52.734 108.398-64.453-14.648-41.016-23.438-70.313-23.438-87.891 0-32.227 17.578-67.383 52.734-102.539s70.313-52.734 102.539-52.734c14.648 0 35.156 5.859 58.594 14.648-46.875-134.766-82.031-237.305-102.539-307.617-23.438-79.102-35.156-134.766-35.156-166.992 0-46.875 11.719-84.961 35.156-111.328s58.594-41.016 99.609-41.016c70.313 0 155.273 143.555 254.883 433.594l23.438 73.242c5.859-14.648 11.719-32.227 17.578-49.805 99.609-287.109 187.5-427.734 263.672-427.734 41.016 0 70.313 11.719 93.75 38.086s35.156 61.523 35.156 102.539c0 29.297-11.719 84.961-35.156 166.992-20.508 70.313-52.734 169.922-96.68 292.969 55.664 14.648 96.68 41.016 120.117 79.102 26.367 43.945 41.016 108.398 41.016 196.289 0 175.781-52.734 316.406-158.203 427.734s-237.305 166.992-401.367 166.992c-64.453 0-125.977-11.719-187.5-35.156-58.594-20.508-108.398-52.734-158.203-96.68-49.805-46.875-84.961-96.68-111.328-146.484-23.438-52.734-38.086-105.469-38.086-158.203zM319.336 1057.617c0 23.438 5.859 52.734 20.508 87.891 11.719 29.297 32.227 61.523 58.594 96.68 38.086 52.734 84.961 90.82 140.625 120.117 55.664 26.367 120.117 41.016 190.43 41.016 125.977 0 231.445-46.875 319.336-143.555 84.961-93.75 128.906-213.867 128.906-357.422 0-43.945-2.93-79.102-8.789-102.539s-14.648-38.086-29.297-52.734c-26.367-20.508-79.102-41.016-155.273-58.594-79.102-17.578-161.133-26.367-249.023-26.367-20.508 0-35.156 2.93-41.016 8.789-5.859 2.93-8.789 14.648-8.789 29.297 0 41.016 23.438 70.313 67.383 87.891 49.805 20.508 128.906 29.297 243.164 29.297h41.016c14.648 0 26.367 5.859 32.227 17.578 8.789 5.859 14.648 20.508 17.578 43.945-17.578 17.578-43.945 32.227-82.031 46.875-35.156 11.719-61.523 23.438-76.172 38.086-41.016 26.367-70.313 61.523-93.75 99.609s-35.156 76.172-35.156 111.328c0 20.508 5.859 43.945 14.648 73.242 11.719 32.227 17.578 52.734 17.578 64.453v8.789l-5.859 20.508c-43.945-2.93-76.172-23.438-96.68-58.594-14.648-32.227-23.438-73.242-26.367-120.117-2.93 0-8.789 0-17.578 0h-17.578c2.93 5.859 2.93 11.719 2.93 17.578 0 29.297-11.719 55.664-35.156 76.172-20.508 20.508-46.875 29.297-79.102 29.297-43.945 0-90.82-20.508-137.695-64.453-49.805-46.875-73.242-90.82-73.242-134.766 0-5.859 2.93-14.648 5.859-23.438 0-5.859 8.789-17.578 23.438-32.227 23.438 32.227 41.016 52.734 49.805 64.453 41.016 58.594 79.102 87.891 111.328 87.891 8.789 0 17.578-2.93 26.367-8.789 5.859-5.859 8.789-11.719 8.789-14.648 0-8.789-5.859-23.438-17.578-43.945-8.789-14.648-26.367-41.016-55.664-79.102-26.367-35.156-49.805-58.594-64.453-73.242-14.648-11.719-26.367-20.508-32.227-20.508-20.508 0-38.086 11.719-55.664 32.227-17.578 23.438-26.367 49.805-26.367 82.031zM451.172 776.367c0 11.719 8.789 35.156 23.438 67.383 14.648 26.367 35.156 58.594 67.383 99.609 29.297 38.086 55.664 70.313 82.031 90.82 23.438 20.508 41.016 29.297 52.734 29.297 5.859 0 14.648-2.93 20.508-11.719 5.859-5.859 8.789-14.648 8.789-23.438 0-11.719-8.789-38.086-26.367-84.961-20.508-49.805-41.016-93.75-67.383-134.766-20.508-35.156-41.016-58.594-55.664-73.242-17.578-14.648-32.227-20.508-46.875-20.508-11.719 0-23.438 5.859-35.156 20.508-14.648 17.578-23.438 29.297-23.438 41.016zM518.555 140.625c0 35.156 11.719 84.961 35.156 158.203 20.508 70.313 52.734 161.133 96.68 278.32 8.789-5.859 23.438-8.789 41.016-8.789 0 0 2.93 0 8.789 2.93 5.859 0 11.719 0 14.648 0 5.859 0 17.578 0 41.016 2.93l-102.539-295.898c-26.367-76.172-49.805-128.906-64.453-152.344-14.648-20.508-26.367-29.297-38.086-29.297-8.789 0-17.578 2.93-23.438 11.719s-8.789 20.508-8.789 32.227zM761.719 890.625c8.789 23.438 17.578 46.875 29.297 73.242 17.578-20.508 38.086-41.016 58.594-55.664-5.859 0-14.648-2.93-23.438-2.93-8.789-2.93-17.578-2.93-20.508-2.93-20.508-5.859-35.156-8.789-43.945-11.719zM916.992 591.797l96.68 17.578c43.945-123.047 79.102-219.727 102.539-292.969 23.438-79.102 38.086-125.977 38.086-140.625 0-17.578-5.859-29.297-11.719-38.086-2.93-5.859-11.719-8.789-23.438-8.789s-26.367 11.719-43.945 38.086c-17.578 29.297-41.016 79.102-64.453 149.414z"></path>
</svg>
