<svg version="1.1" xmlns="http://www.w3.org/2000/svg"   viewBox="0 0 1500 1500">

<path d="M1500 526.5c-6-180-156-322.5-336-324-276 0-553.5 0-829.5 0-31.5 0-63 3-93 12-157.5 45-255 195-240 370.5 12 141 142.5 282 283.5 291 67.5 4.5 96 31.5 115.5 91.5 37.5 109.5 81 217.5 124.5 330 24-18 27-39 33-55.5 36-94.5 73.5-187.5 105-283.5 18-55.5 45-78 106.5-76.5 136.5 4.5 274.5 3 412.5-3 187.5-9 324-165 318-352.5zM1147.5 724.5c-166.5 1.5-333 1.5-501 0-37.5 0-57 7.5-64.5 48-12 63-31.5 124.5-51 201-18-75-36-136.5-48-199.5-7.5-37.5-24-52.5-63-49.5-43.5 3-87 4.5-129-7.5-82.5-24-136.5-96-132-183s63-154.5 148.5-169.5c19.5-3 37.5-6 57-6 255 0 511.5 0 766.5 0 81 0 150 27 189 105 60 123-28.5 259.5-172.5 261z"></path>
</svg>
