<svg version="1.1" xmlns="http://www.w3.org/2000/svg"   viewBox="0 0 1500 1500">

<path d="M1356.445 503.906c-105.469 35.156-175.781 181.641-175.781 290.039 0 140.625 79.102 287.109 208.008 322.266-35.156 123.047-134.766 278.32-225.586 342.773-38.086 26.367-82.031 38.086-137.695 38.086-35.156 0-76.172-5.859-131.836-29.297-43.945-20.508-84.961-29.297-111.328-29.297-23.438 0-73.242 14.648-140.625 41.016-38.086 11.719-70.313 20.508-90.82 20.508-61.523 0-114.258-26.367-169.922-70.313-172.852-158.203-269.531-389.648-269.531-632.813 0-237.305 149.414-465.82 380.859-465.82 70.313 0 120.117 14.648 166.992 38.086 43.945 26.367 82.031 35.156 123.047 35.156 32.227 0 70.313-5.859 105.469-20.508 90.82-35.156 149.414-52.734 184.57-52.734 87.891 0 158.203 26.367 216.797 79.102 23.438 23.438 46.875 55.664 67.383 93.75zM741.211 339.844c0-82.031 35.156-155.273 90.82-225.586 55.664-61.523 131.836-99.609 213.867-114.258 0 84.961-29.297 169.922-84.961 237.305-64.453 70.313-134.766 102.539-219.727 102.539z"></path>
</svg>
