<svg version="1.1" xmlns="http://www.w3.org/2000/svg"   viewBox="0 0 1500 1500">

<path d="M1459.5 1149c-1.5-1.5-1.5-3-3-4.5 0 0 0 0 0-1.5-4.5-7.5-7.5-15-12-22.5 0 0 0 0 0 0-1.5-1.5-1.5-3-3-4.5 0 0 0 0 0 0-1.5-1.5-1.5-3-3-4.5 0 0 0 0 0 0-1.5-1.5-1.5-3-3-4.5 0 0 0 0 0 0-1.5-1.5-1.5-3-3-4.5 0 0 0 0 0 0-1.5-1.5-1.5-3-3-3 0 0 0 0 0 0-1.5-1.5-1.5-1.5-3-3 0 0 0 0 0 0-1.5-1.5-1.5-1.5-3-3 0 0 0 0 0 0-1.5-1.5-1.5-1.5-3-3 0 0 0 0 0 0-1.5-1.5-3-1.5-3-3 0 0 0 0 0 0-3-1.5-4.5-3-7.5-3-22.5-7.5-52.5 15-73.5 27s-54 25.5-58.5 49.5c-6 22.5 16.5 55.5 30 79.5 6 12 28.5 28.5 37.5 37.5 39 25.5 72 54 69 103.5 0 0 0 0 0 0 0 1.5 0 3 0 6s0 6-1.5 7.5c55.5-63 61.5-105 66-160.5 1.5-15-1.5-36-3-48-6-15-9-27-16.5-37.5zM855 126c-1.5-1.5-1.5-3-3-4.5 0 0 0 0 0-1.5-1.5-1.5-3-3-3-4.5 0 0 0 0 0 0-1.5-1.5-3-3-4.5-3 0 0 0 0 0 0-1.5-1.5-3-1.5-4.5-3 0 0 0 0 0 0s0 0 0 0c-13.5-4.5-25.5-4.5-37.5 3l-75 43.5c-18 10.5-24 33-13.5 51l442.5 762 139.5-81-441-762zM1311 912c-1.5 0-3 1.5-3 1.5v0c-46.5 27-90 52.5-136.5 79.5l78 133.5 3 6 139.5-81-81-139.5zM661.5 451.5l-141-78-375 661.5 141 79.5 3-6zM720 348c10.5-18 4.5-40.5-13.5-51l-75-42c-13.5-7.5-28.5-6-39 1.5 0 0 0 0 0 0-1.5 1.5-3 1.5-4.5 3 0 0 0 0 0 0-1.5 1.5-3 3-3 4.5 0 0 0 0 0 1.5-1.5 1.5-1.5 3-3 4.5l-42 75 141 78 39-75zM51 1359l220.5-220.5c-46.5-27-93-52.5-141-79.5l-79.5 300zM301.5 685.5v0l3-4.5h-301.5l-3 160.5h213zM951 685.5l-3-3-378-1.5-3 4.5-87 157.5h562.5l-91.5-157.5zM1222.5 682.5l96 162h181.5v-162z"></path>
</svg>
