<svg version="1.1" xmlns="http://www.w3.org/2000/svg"   viewBox="0 0 1500 1500">

<path d="M1497.435 539.925c-1.875-1.875-5.625-1.875-11.25 0-11.25 1.875-76.875 7.5-106.875 11.25-11.25 1.875-16.875 5.625-22.5 15s-151.875 256.875-151.875 256.875 112.5-600 114.375-615c3.75-20.625 0-26.25-16.875-26.25s-93.75 7.5-105 9.375c-15 1.875-20.625 7.5-24.375 26.25-1.875 13.125-166.875 900-168.75 916.875-3.75 24.375-3.75 26.25 18.75 22.5 13.125-1.875 78.75-13.125 105-16.875 7.5-1.875 13.125-1.875 15-15s52.5-271.875 52.5-271.875 84.375 238.125 88.125 247.5c3.75 9.375 5.625 13.125 18.75 11.25 30-5.625 99.375-16.875 106.875-16.875 11.25-1.875 13.125-5.625 11.25-15-3.75-11.25-90-256.875-90-256.875s159.375-258.75 165-270c5.625-5.625 5.625-11.25 1.875-13.125zM981.81 609.3c-20.625-7.5-61.875-20.625-112.5-15-75 9.375-127.5 41.25-155.625 93.75s-22.5 110.625-13.125 140.625c9.375 30 33.75 63.75 65.625 91.875 73.125 63.75 71.25 114.375 60 135-13.125 26.25-48.75 46.875-97.5 35.625s-65.625-43.125-65.625-43.125-24.375 84.375-30 101.25c-5.625 22.5-3.75 28.125 16.875 37.5 28.125 11.25 80.625 24.375 166.875 7.5 58.125-11.25 112.5-58.125 136.875-106.875 26.25-50.625 43.125-150-39.375-225-67.5-60-75-71.25-80.625-84.375-13.125-24.375-1.875-52.5 9.375-67.5 11.25-13.125 26.25-20.625 48.75-18.75 24.375 1.875 65.625 33.75 65.625 33.75s30-86.25 31.875-91.875c5.625-11.25 3.75-18.75-7.5-24.375zM295.56 986.175l142.5-335.625 1.875 313.125-144.375 22.5zM516.81 311.175c-1.875-26.25-24.375-22.5-33.75-1.875-31.875 67.5-474.375 980.625-480 991.875-7.5 16.875-1.875 18.75 15 16.875 11.25-1.875 108.75-16.875 138.75-22.5 9.375-1.875 13.125-3.75 16.875-11.25 1.875-3.75 71.25-168.75 71.25-168.75l195-30c0 0 1.875 125.625 1.875 148.125 0 9.375 1.875 15 16.875 13.125 18.75-3.75 95.625-15 105-16.875 18.75-3.75 20.625-7.5 20.625-26.25-1.875-13.125-61.875-828.75-67.5-892.5z"></path>
</svg>
