<svg version="1.1" xmlns="http://www.w3.org/2000/svg"   viewBox="0 0 1500 1500">

<path d="M960.938 477.539c120.117 17.578 196.289-111.328 213.867-208.008 14.648-96.68-64.453-210.938-149.414-231.445-84.961-17.578-190.43 117.188-199.219 208.008-11.719 108.398 14.648 216.797 134.766 231.445zM269.531 791.016c164.063-35.156 140.625-231.445 137.695-272.461-8.789-67.383-87.891-181.641-190.43-172.852-131.836 11.719-152.344 202.148-152.344 202.148-17.578 87.891 43.945 278.32 205.078 243.164zM571.289 462.891c90.82 0 164.063-102.539 164.063-231.445s-73.242-231.445-164.063-231.445c-87.891 0-161.133 102.539-161.133 231.445s73.242 231.445 161.133 231.445zM442.383 1130.859c-2.93 11.719-14.648 46.875-5.859 79.102 17.578 67.383 79.102 70.313 79.102 70.313h84.961v-208.008h-90.82c-41.016 11.719-61.523 43.945-67.383 58.594zM1438.477 641.602c0-46.875-38.086-187.5-181.641-187.5-146.484 0-164.063 134.766-164.063 228.516 0 87.891 8.789 213.867 187.5 208.008 175.781-2.93 158.203-202.148 158.203-249.023zM1256.836 1051.758c0 0-187.5-143.555-295.898-298.828-146.484-231.445-357.422-137.695-427.734-20.508s-178.711 190.43-193.359 210.938c-14.648 17.578-225.586 131.836-178.711 336.914 46.875 208.008 210.938 202.148 210.938 202.148s120.117 11.719 257.813-17.578c140.625-32.227 260.742 5.859 260.742 5.859s328.125 111.328 416.016-99.609c87.891-210.938-49.805-319.336-49.805-319.336zM697.266 1365.234h-210.938c-90.82-20.508-128.906-82.031-131.836-93.75-5.859-8.789-32.227-58.594-17.578-143.555 38.086-128.906 152.344-137.695 152.344-137.695h111.328v-140.625l96.68 2.93zM1092.773 1362.305h-243.164c-96.68-23.438-99.609-90.82-99.609-90.82v-269.531l99.609-2.93v243.164c5.859 26.367 38.086 32.227 38.086 32.227h99.609v-272.461h105.469z"></path>
</svg>
