<svg version="1.1" xmlns="http://www.w3.org/2000/svg"   viewBox="0 0 1500 1500">

<path d="M0 972.656h556.641l260.742-454.102h-556.641zM1107.422 685.547c-11.719-17.578-26.367-29.297-49.805-38.086-17.578-8.789-41.016-11.719-67.383-11.719-8.789 0-20.508 0-29.297 2.93s-17.578 5.859-29.297 8.789c-8.789 5.859-14.648 11.719-23.438 17.578-5.859 5.859-11.719 11.719-17.578 20.508v0-166.992h-73.242v454.102h67.383v-46.875h2.93c5.859 11.719 11.719 20.508 20.508 29.297 8.789 5.859 17.578 11.719 26.367 14.648 11.719 5.859 23.438 8.789 35.156 8.789 11.719 2.93 20.508 2.93 35.156 2.93 23.438 0 43.945-5.859 64.453-14.648 17.578-8.789 32.227-23.438 43.945-38.086 11.719-17.578 20.508-35.156 26.367-55.664s8.789-41.016 8.789-64.453c0-23.438-2.93-46.875-8.789-67.383-8.789-20.508-20.508-38.086-32.227-55.664zM1069.336 849.609c-2.93 14.648-11.719 26.367-17.578 38.086-8.789 11.719-17.578 20.508-29.297 26.367-11.719 8.789-26.367 11.719-41.016 11.719s-29.297-2.93-38.086-8.789c-14.648-5.859-23.438-14.648-32.227-23.438-5.859-11.719-14.648-23.438-17.578-38.086-2.93-11.719-5.859-29.297-5.859-46.875 0-32.227 8.789-61.523 23.438-82.031s41.016-32.227 70.313-32.227c14.648 0 29.297 2.93 41.016 11.719 11.719 5.859 20.508 14.648 29.297 23.438 5.859 11.719 14.648 23.438 17.578 38.086 5.859 14.648 5.859 29.297 5.859 43.945-2.93 11.719-2.93 26.367-5.859 38.086zM1400.391 905.273c-14.648 11.719-32.227 17.578-55.664 17.578-14.648 0-29.297-2.93-41.016-8.789-8.789-5.859-20.508-14.648-26.367-26.367-5.859-8.789-11.719-23.438-14.648-35.156-2.93-14.648-2.93-26.367-2.93-41.016 0-26.367 2.93-43.945 8.789-61.523 5.859-14.648 11.719-26.367 20.508-35.156s20.508-14.648 32.227-17.578c8.789-2.93 20.508-5.859 29.297-5.859 20.508 0 38.086 5.859 49.805 14.648 14.648 11.719 23.438 26.367 26.367 46.875h73.242c-2.93-20.508-8.789-38.086-14.648-52.734-8.789-14.648-20.508-26.367-32.227-38.086-14.648-8.789-29.297-14.648-46.875-20.508s-38.086-8.789-55.664-8.789c-26.367 0-52.734 5.859-73.242 14.648s-38.086 20.508-49.805 35.156c-14.648 17.578-23.438 35.156-32.227 58.594-5.859 20.508-11.719 43.945-11.719 67.383 0 26.367 5.859 46.875 11.719 70.313 8.789 20.508 17.578 38.086 32.227 52.734 11.719 14.648 29.297 26.367 49.805 35.156s43.945 14.648 70.313 14.648c43.945 0 76.172-11.719 102.539-35.156s41.016-55.664 49.805-99.609h-73.242c-2.93 26.367-11.719 43.945-26.367 58.594z"></path>
</svg>
