<svg version="1.1" xmlns="http://www.w3.org/2000/svg"   viewBox="0 0 1500 1500">

<path d="M1482.422 867.188c-8.789-20.508-20.508-38.086-32.227-55.664-41.016-46.875-87.891-84.961-134.766-117.188-5.859-2.93-8.789-8.789-14.648-5.859 32.227-2.93 58.594-8.789 87.891-23.438 20.508-11.719 29.297-29.297 26.367-55.664 0-20.508-8.789-38.086-17.578-58.594-23.438-35.156-55.664-61.523-87.891-84.961-17.578-11.719-35.156-20.508-55.664-32.227-5.859-2.93-8.789-5.859-2.93-11.719 5.859-8.789 8.789-14.648 11.719-23.438 26.367-49.805 55.664-99.609 79.102-152.344 5.859-14.648 14.648-29.297 17.578-46.875 0-5.859 0-14.648 0-20.508 0-2.93 0-2.93-2.93-5.859-2.93 0-5.859 2.93-5.859 2.93-2.93 5.859-5.859 14.648-11.719 20.508-20.508 32.227-41.016 70.313-64.453 102.539-20.508 35.156-41.016 70.313-64.453 105.469-2.93 5.859-5.859 5.859-11.719 2.93-38.086-14.648-73.242-26.367-108.398-38.086-46.875-14.648-96.68-26.367-143.555-32.227-5.859 0-11.719-2.93-14.648-8.789-2.93-8.789-8.789-17.578-14.648-26.367-49.805-87.891-108.398-172.852-181.641-243.164-32.227-29.297-70.313-55.664-120.117-61.523-2.93 0-5.859 0-11.719 0-14.648 2.93-26.367 5.859-38.086 14.648-23.438 14.648-38.086 35.156-46.875 61.523-23.438 46.875-35.156 96.68-41.016 149.414 0 17.578-2.93 35.156-2.93 52.734-5.859 0-5.859-5.859-8.789-8.789-14.648-17.578-32.227-35.156-52.734-46.875-14.648-11.719-32.227-11.719-52.734-2.93-26.367 11.719-43.945 35.156-58.594 61.523-14.648 38.086-23.438 76.172-23.438 117.188 0 17.578 0 35.156 0 52.734 0 5.859-2.93 8.789-8.789 8.789-8.789 0-17.578 0-26.367 0-35.156 2.93-73.242 2.93-108.398 5.859-32.227 0-64.453 2.93-93.75 8.789-8.789 0-17.578 2.93-26.367 8.789-2.93 0-8.789 2.93-5.859 5.859 0 2.93 5.859 2.93 8.789 2.93 46.875 2.93 90.82 2.93 140.625 2.93 35.156 2.93 67.383 2.93 102.539 2.93 2.93 0 5.859 0 8.789 2.93 14.648 0 14.648 0 14.648 14.648 11.719 84.961 32.227 166.992 64.453 246.094 2.93 5.859 0 11.719-2.93 14.648-8.789 17.578-17.578 32.227-29.297 49.805-41.016 70.313-73.242 143.555-93.75 222.656-11.719 43.945-20.508 84.961-14.648 128.906s32.227 70.313 70.313 82.031c26.367 5.859 55.664 5.859 82.031 0 46.875-8.789 93.75-23.438 137.695-43.945 14.648-5.859 23.438-11.719 38.086-17.578-2.93 8.789-5.859 14.648-8.789 23.438-5.859 14.648-11.719 29.297-11.719 46.875-5.859 32.227 2.93 52.734 35.156 67.383 8.789 2.93 20.508 5.859 29.297 8.789 23.438 2.93 49.805 0 70.313-2.93 46.875-11.719 84.961-32.227 125.977-55.664 5.859-5.859 8.789-5.859 14.648 2.93 23.438 38.086 46.875 76.172 73.242 114.258 17.578 29.297 38.086 58.594 58.594 82.031 8.789 8.789 17.578 14.648 29.297 14.648 2.93-5.859 0-8.789-2.93-11.719-8.789-11.719-14.648-23.438-20.508-32.227-8.789-20.508-20.508-35.156-29.297-52.734-23.438-46.875-49.805-90.82-73.242-134.766-5.859-11.719-5.859-11.719 5.859-20.508 29.297-23.438 58.594-46.875 87.891-76.172 32.227-29.297 64.453-61.523 93.75-99.609 5.859-8.789 11.719-8.789 20.508-8.789 38.086 0 76.172 0 117.188-2.93s76.172-5.859 114.258-11.719c55.664-8.789 108.398-20.508 158.203-46.875 32.227-17.578 61.523-41.016 64.453-82.031 0 0 0 0 0 0-2.93-5.859-2.93-11.719 0-17.578 0 0 0-2.93 0-2.93-2.93-8.789-2.93-20.508-5.859-29.297zM588.867 363.281c5.859-41.016 14.648-82.031 32.227-120.117 8.789-17.578 14.648-32.227 29.297-43.945 17.578-23.438 43.945-26.367 67.383-17.578 14.648 2.93 26.367 11.719 38.086 20.508 43.945 35.156 79.102 84.961 108.398 134.766-99.609 0-193.359 20.508-278.32 73.242-2.93-17.578 0-32.227 2.93-46.875zM354.492 454.102c2.93-32.227 5.859-64.453 17.578-93.75 5.859-14.648 14.648-29.297 26.367-38.086 23.438-20.508 64.453-14.648 76.172 14.648 2.93 0 2.93 2.93 2.93 5.859 0 35.156 2.93 70.313 8.789 108.398 0 5.859-2.93 2.93-5.859 2.93-20.508 0-38.086 0-58.594 0 0 0 0 2.93 0 2.93-20.508 0-38.086 0-58.594 0-5.859 2.93-8.789 2.93-8.789-2.93zM436.523 1089.844c-17.578 2.93-32.227 2.93-46.875 0-38.086-5.859-58.594-29.297-61.523-67.383 0-26.367 5.859-49.805 11.719-73.242 11.719-38.086 26.367-76.172 49.805-114.258 49.805 84.961 111.328 155.273 196.289 205.078 0 2.93-2.93 2.93-2.93 2.93-46.875 20.508-96.68 38.086-146.484 46.875zM744.141 1215.82c-32.227 17.578-64.453 29.297-99.609 32.227-5.859 0-8.789 0-11.719 0-46.875-5.859-58.594-41.016-43.945-79.102 0-2.93 2.93-5.859 5.859-5.859 14.648-8.789 29.297-20.508 43.945-29.297 14.648-11.719 29.297-20.508 43.945-29.297 5.859 8.789 11.719 17.578 17.578 29.297 14.648 23.438 29.297 49.805 46.875 76.172 0 0 5.859 2.93-2.93 5.859zM911.133 1086.914c-38.086 35.156-76.172 70.313-117.188 99.609-5.859 5.859-8.789 5.859-11.719-2.93-14.648-29.297-29.297-61.523-46.875-90.82 0-2.93-2.93-5.859-2.93-11.719 61.523 2.93 117.188-11.719 169.922-41.016-52.734 14.648-108.398 20.508-164.063 17.578 0-5.859 2.93-5.859 5.859-8.789 117.188-99.609 222.656-210.938 316.406-333.984 5.859-8.789 5.859-11.719-2.93-14.648-11.719-5.859-23.438-14.648-35.156-20.508-2.93 0-5.859-2.93-8.789 2.93-35.156 49.805-79.102 90.82-123.047 131.836-84.961 73.242-175.781 137.695-269.531 202.148-5.859 2.93-8.789 2.93-14.648 0-64.453-38.086-108.398-90.82-143.555-152.344-43.945-70.313-67.383-149.414-84.961-234.375-11.719-38.086-17.578-79.102-20.508-120.117-2.93-8.789 0-11.719 8.789-11.719 35.156 5.859 73.242 5.859 105.469 8.789 8.789 0 8.789 2.93 5.859 8.789-29.297 49.805-43.945 99.609-43.945 155.273 0 2.93 0 5.859 0 5.859 14.648-49.805 32.227-99.609 64.453-146.484 5.859 32.227 11.719 61.523 17.578 87.891 29.297 123.047 67.383 240.234 114.258 354.492 2.93 8.789 5.859 8.789 11.719 5.859 11.719-8.789 23.438-14.648 35.156-20.508 2.93-2.93 5.859-5.859 2.93-8.789-26.367-55.664-38.086-111.328-49.805-169.922-23.438-108.398-35.156-216.797-41.016-325.195 0-8.789 0-11.719 8.789-17.578 52.734-32.227 111.328-46.875 172.852-49.805 93.75-5.859 187.5 11.719 275.391 38.086 43.945 14.648 84.961 29.297 123.047 46.875 2.93 2.93 5.859 2.93 2.93 8.789-20.508 32.227-38.086 61.523-61.523 93.75-26.367-52.734-67.383-93.75-117.188-120.117 17.578 17.578 38.086 38.086 52.734 61.523 14.648 20.508 29.297 43.945 41.016 70.313-11.719-2.93-26.367-8.789-38.086-11.719-35.156-14.648-70.313-23.438-105.469-35.156-99.609-26.367-199.219-46.875-298.828-58.594-20.508-2.93-20.508-2.93-20.508 17.578 0 11.719 0 20.508 0 29.297 0 5.859 0 5.859 5.859 5.859 70.313 5.859 137.695 29.297 205.078 52.734 93.75 32.227 184.57 73.242 272.461 117.188 2.93 2.93 2.93 5.859 2.93 11.719 0 67.383-20.508 128.906-52.734 190.43-38.086 70.313-87.891 128.906-146.484 181.641zM1265.625 949.219c-17.578 14.648-38.086 23.438-58.594 29.297-46.875 11.719-96.68 17.578-146.484 17.578 49.805-84.961 82.031-175.781 82.031-275.391 2.93 0 5.859 2.93 8.789 2.93 43.945 35.156 84.961 67.383 120.117 114.258 8.789 11.719 14.648 23.438 20.508 38.086 5.859 29.297 0 52.734-26.367 73.242zM1274.414 653.32c-11.719 5.859-23.438 5.859-35.156 0-26.367-17.578-58.594-29.297-87.891-43.945-2.93 0-5.859-2.93-2.93-8.789 17.578-32.227 38.086-67.383 55.664-102.539 2.93-2.93 2.93-5.859 8.789-2.93 26.367 20.508 55.664 38.086 76.172 67.383 8.789 14.648 17.578 29.297 17.578 46.875 0 20.508-11.719 38.086-32.227 43.945z"></path>
</svg>
