<svg version="1.1" xmlns="http://www.w3.org/2000/svg"   viewBox="0 0 1500 1500">

<path d="M1294.365 828.87c0-300.18-244.185-544.38-544.351-544.38-300.149 0-544.334 244.2-544.334 544.38 0 138.885 52.38 271.14 147.541 372.495l0.015-0.029c12.779 13.515 34.080 14.19 47.654 1.425l58.68-55.23c13.515-12.705 14.175-33.945 1.56-47.52l0.045-0.075c-69.226-73.74-107.37-170.055-107.37-271.065 0-218.459 177.721-396.226 396.195-396.226 218.445 0 396.209 177.75 396.209 396.226 0 101.010-38.115 197.325-107.385 271.065l0.12 0.135c-12.601 13.589-11.895 34.786 1.605 47.459l58.695 55.23c13.56 12.779 34.904 12.105 47.67-1.455l-0.060-0.029c95.145-101.339 147.51-233.58 147.51-372.404zM1500 826.26c0-74.175-11.101-147.315-33.075-217.529h0.029c-0.029-0.060-0.089-0.12-0.089-0.18-0.029-0.060-0.029-0.105-0.060-0.226-5.714-17.49-24.435-27.27-42.105-21.795l-76.935 23.925c-17.791 5.505-27.721 24.36-22.214 42.135l-0.089 0.060c17.459 55.95 26.416 114.375 26.416 173.625 0 104.654-28.334 207.27-81.916 296.834l0.075 0.089c-9.42 15.93-4.23 36.541 11.7 46.080l69.105 41.445c15.959 9.584 36.63 4.395 46.26-11.565 67.32-112.545 102.899-241.455 102.899-372.899zM230.070 1123.11c-53.58-89.55-81.899-192.18-81.899-296.834 0-59.265 8.911-117.645 26.399-173.596h0.015v-0.060c5.49-17.791-4.44-36.63-22.185-42.166l-76.98-23.985c-17.654-5.476-36.404 4.32-42.075 21.899l-0.135-0.075c-22.020 70.365-33.209 143.67-33.209 217.98 0 131.416 35.625 260.339 102.916 372.87l0.12-0.045c9.615 15.81 30.195 20.94 46.14 11.399l69.089-41.445c15.885-9.524 21.060-29.985 11.774-45.93l0.029-0.015z"></path>
</svg>
