<svg version="1.1" xmlns="http://www.w3.org/2000/svg"   viewBox="0 0 1500 1500">

<path d="M468.75 779.297c61.523-26.367 87.891-134.766 325.195-187.5 0-38.086-123.047-445.313-377.93-571.289-263.672-120.117-304.688 319.336-193.359 509.766 8.789 35.156 184.57 272.461 246.094 249.023zM694.336 266.602c58.594 105.469 82.031 205.078 90.82 210.938s58.594 49.805 61.523 43.945c14.648-49.805 20.508-79.102 23.438-90.82-105.469-541.992-336.914-372.070-336.914-372.070s99.609 99.609 161.133 208.008zM1174.805 416.016c-8.789-5.859-17.578-8.789-29.297-14.648l2.93-2.93 120.117 32.227c0 0 20.508 2.93 23.438-20.508 5.859-20.508-8.789-32.227-8.789-32.227s-111.328-29.297-123.047-32.227c-23.438-5.859-64.453 8.789-90.82 20.508-2.93-2.93-5.859-2.93-8.789-2.93-5.859-11.719-29.297-67.383-17.578-73.242 8.789-5.859 152.344-11.719 152.344-11.719s20.508-11.719 17.578-35.156c0-20.508-29.297-23.438-29.297-23.438s-169.922 11.719-178.711 11.719c-38.086 5.859-20.508 52.734-20.508 52.734l17.578 73.242c-32.227 0-61.523 17.578-82.031 52.734-52.734 84.961-32.227 254.883 70.313 316.406s281.25 79.102 331.055-5.859c49.805-84.961-43.945-240.234-146.484-304.688zM1233.398 638.672c-32.227 26.367-99.609 2.93-143.555-52.734-46.875-55.664-58.594-123.047-23.438-152.344 32.227-26.367 99.609-2.93 143.555 52.734 46.875 55.664 58.594 123.047 23.438 152.344zM354.492 1160.156c0 0-49.805 134.766 32.227 331.055 272.461 35.156 369.141-76.172 369.141-76.172s-161.133-61.523-234.375-111.328c-70.313-43.945-166.992-143.555-166.992-143.555zM498.047 814.453c0 0-128.906 79.102-131.836 237.305 0 14.648 131.836 199.219 474.609 310.547 87.891-38.086 105.469-243.164 105.469-243.164s-172.852-84.961-251.953-128.906c-79.102-41.016-196.289-175.781-196.289-175.781zM834.961 644.531c-184.57 26.367-249.023 128.906-249.023 128.906s128.906 172.852 342.773 243.164c2.93-2.93-2.93-193.359 5.859-213.867 11.719-17.578 41.016-29.297 41.016-29.297s-46.875-35.156-76.172-67.383c-35.156-32.227-17.578-64.453-64.453-61.523z"></path>
</svg>
