<svg version="1.1" xmlns="http://www.w3.org/2000/svg"   viewBox="0 0 1500 1500">

<path d="M1350.586 433.594h-375v-87.891h375zM729.492 788.086c29.297 41.016 43.945 87.891 43.945 146.484 0 46.875-8.789 87.891-26.367 120.117-20.508 35.156-43.945 61.523-73.242 84.961-32.227 20.508-67.383 35.156-105.469 46.875-38.086 8.789-79.102 14.648-120.117 14.648h-448.242v-931.641h433.594c43.945 0 84.961 8.789 123.047 17.578 35.156 8.789 64.453 23.438 90.82 41.016s46.875 43.945 61.523 73.242c14.648 26.367 20.508 64.453 20.508 108.398s-8.789 84.961-32.227 114.258c-20.508 32.227-52.734 58.594-93.75 76.172 58.594 17.578 99.609 46.875 125.977 87.891zM196.289 644.531h210.938c38.086 0 67.383-2.93 90.82-20.508s35.156-41.016 35.156-82.031c0-20.508-2.93-38.086-11.719-52.734-8.789-11.719-17.578-23.438-32.227-32.227-11.719-5.859-26.367-14.648-43.945-17.578s-35.156-5.859-52.734-5.859h-196.289zM571.289 922.852c0-46.875-14.648-79.102-41.016-99.609s-61.523-29.297-105.469-29.297h-228.516v254.883h222.656c20.508 0 41.016-2.93 58.594-5.859 17.578-5.859 32.227-11.719 46.875-20.508s26.367-20.508 32.227-38.086c8.789-14.648 14.648-35.156 14.648-61.523zM1500 914.063h-483.398c0 46.875 17.578 102.539 46.875 128.906 26.367 26.367 67.383 41.016 117.188 41.016 38.086 0 70.313-11.719 96.68-32.227 26.367-17.578 41.016-32.227 49.805-61.523h161.133c-26.367 90.82-67.383 140.625-120.117 175.781s-117.188 55.664-193.359 55.664c-52.734 0-99.609-8.789-143.555-26.367-41.016-17.578-76.172-41.016-105.469-70.313-29.297-32.227-52.734-70.313-70.313-114.258-14.648-41.016-23.438-87.891-23.438-140.625 0-49.805 8.789-96.68 26.367-140.625 14.648-43.945 38.086-79.102 67.383-111.328 32.227-32.227 67.383-55.664 108.398-76.172 43.945-17.578 90.82-26.367 140.625-26.367 55.664 0 105.469 11.719 149.414 32.227 41.016 23.438 76.172 52.734 102.539 87.891 29.297 38.086 46.875 82.031 58.594 128.906s17.578 105.469 14.648 149.414zM1315.43 793.945c-5.859-43.945-20.508-79.102-41.016-102.539-23.438-26.367-61.523-38.086-105.469-38.086-29.297 0-52.734 5.859-73.242 17.578-17.578 8.789-35.156 20.508-46.875 35.156s-17.578 29.297-23.438 46.875c-5.859 14.648-8.789 26.367-8.789 41.016z"></path>
</svg>
