<svg version="1.1" xmlns="http://www.w3.org/2000/svg"   viewBox="0 0 1500 1500">

<path d="M1383 166.5c-9-13.5-21-25.5-34.5-34.5-28.5-22.5-61.5-39-94.5-52.5-72-28.5-147-46.5-222-58.5-93-15-186-21-285-21-88.5 0-180 6-271.5 21-64.5 10.5-129 24-190.5 45-40.5 13.5-81 31.5-117 55.5-18 10.5-34.5 24-46.5 40.5-16.5 21-24 43.5-19.5 70.5 9 52.5 15 103.5 24 154.5 12 76.5 25.5 153 37.5 228 15 84 30 169.5 43.5 253.5 3 19.5 12 36 25.5 51 9 9 18 18 27 25.5 34.5 28.5 73.5 48 115.5 64.5 99 39 201 57 307.5 63 76.5 4.5 153 1.5 229.5-9 64.5-9 127.5-22.5 190.5-45 46.5-16.5 90-37.5 129-66 16.5-12 33-25.5 45-42 9-12 15-24 16.5-37.5 19.5-111 39-222 57-331.5 16.5-103.5 33-205.5 49.5-309 3-24-3-46.5-16.5-66v0zM748.5 930c-114 0-205.5-93-205.5-207s93-205.5 207-205.5c114 0 207 93 205.5 208.5 0 112.5-93 204-207 204v0zM1161 208.5c-6 6-13.5 12-21 16.5-21 12-45 19.5-69 25.5-45 12-91.5 18-138 22.5-60 6-121.5 9-180 9-70.5 0-138-3-205.5-12-51-6-100.5-13.5-148.5-30-15-4.5-28.5-10.5-42-18-7.5-3-13.5-9-18-15-9-10.5-9-21 0-31.5 6-6 12-10.5 19.5-15 19.5-12 42-18 64.5-24 46.5-12 94.5-19.5 142.5-24 79.5-6 157.5-9 235.5-6 72 1.5 144 7.5 216 21 33 6 66 13.5 97.5 25.5 10.5 4.5 22.5 10.5 31.5 16.5 6 3 10.5 7.5 13.5 12 9 9 9 18 1.5 27v0zM1239 1077c0 4.5 0 9-1.5 13.5-15 76.5-28.5 151.5-43.5 228-4.5 25.5-16.5 46.5-34.5 64.5-19.5 21-43.5 36-69 48-46.5 24-96 39-145.5 49.5-64.5 13.5-130.5 19.5-169.5 19.5-114 0-198-9-280.5-33-37.5-10.5-75-25.5-109.5-45-18-10.5-34.5-22.5-49.5-37.5-18-18-30-40.5-34.5-66-13.5-76.5-28.5-151.5-43.5-228 0-4.5-1.5-7.5-1.5-12 1.5-18 18-28.5 34.5-19.5 1.5 1.5 3 1.5 4.5 3 55.5 40.5 117 67.5 183 88.5 60 19.5 121.5 30 183 36 72 6 144 4.5 214.5-4.5 94.5-13.5 184.5-40.5 270-87 16.5-9 33-21 48-30 3-1.5 4.5-3 7.5-4.5 21-9 37.5 0 37.5 16.5v0zM853.5 723c0 57-46.5 103.5-103.5 103.5s-103.5-46.5-102-103.5c0-57 46.5-103.5 103.5-103.5 55.5 0 102 46.5 102 103.5v0z"></path>
</svg>
