<svg version="1.1" xmlns="http://www.w3.org/2000/svg"   viewBox="0 0 1500 1500">

<path d="M486.27 342.48c0-47.955-34.245-116.445-157.515-116.445-47.955 0-198.63 0-198.63 0l-61.635 260.25c0 0 102.75 0 205.485 0 164.37 0 212.295-75.315 212.295-143.805zM1013.685 342.48c0-47.955-34.245-116.445-157.515-116.445-47.955 0-198.661 0-198.661 0l-54.779 260.265c0 0 102.75 0 205.485 0 157.515-0.015 205.471-75.33 205.471-143.82zM417.779 726.015c0-47.955-34.245-116.459-157.515-116.459-47.955 0-198.63 0-198.63 0l-61.635 260.339c0 0 102.735 0 205.471 0 164.385 0 212.31-68.49 212.31-143.88zM945.195 726.015c0-47.955-34.245-116.459-157.515-116.459-47.971 0-198.661 0-198.661 0l-54.779 260.325c0 0 102.75 0 205.485 0 157.5 0.015 205.471-68.476 205.471-143.865zM1500 568.5c0-47.955-34.245-116.459-157.56-116.459-47.925 0-198.63 0-198.63 0l-54.765 260.265c0 0 102.735 0 205.471 0 157.529 0 205.485-68.49 205.485-143.805zM1417.8 972.63c0-47.955-34.245-116.445-157.529-116.445-47.955 0-198.615 0-198.615 0l-54.825 260.265c0 0 102.735 0 205.471 0 164.385 0 205.5-68.505 205.5-143.82zM862.98 1130.161c0-47.955-34.23-116.459-157.515-116.459-47.955 0-198.63 0-198.63 0l-54.81 260.279c0 0 102.735 0 205.485 0 164.416 0 205.471-75.33 205.471-143.82z"></path>
</svg>
