<svg version="1.1" xmlns="http://www.w3.org/2000/svg"   viewBox="0 0 1500 1500">

<path d="M11.719 1265.625c26.367-2.93 29.297-26.367 35.156-46.875 5.859-26.367 11.719-52.734 11.719-82.031 0-23.438 5.859-46.875 2.93-70.313-2.93-32.227-5.859-64.453-8.789-99.609 0-35.156 0-67.383 0-102.539 0-26.367 0-49.805 0-79.102 0-2.93 2.93-8.789 5.859-11.719 0-2.93 5.859-8.789 5.859-11.719 0-20.508 2.93-35.156-5.859-52.734-5.859-8.789-2.93-23.438-2.93-35.156 2.93-17.578 0-32.227 8.789-52.734 5.859-11.719 5.859-26.367-2.93-41.016-2.93-2.93-5.859-8.789-5.859-14.648 0-67.383 0-134.766 0-202.148 0-5.859 5.859-8.789 5.859-14.648 2.93-8.789 2.93-20.508 2.93-29.297 0-2.93-8.789-2.93-14.648-2.93-2.93 0-5.859 0-5.859-2.93-14.648-14.648-26.367-26.367-41.016-41.016-8.789-5.859-2.93-17.578 0-26.367 0-8.789 8.789-8.789 17.578-8.789 20.508 2.93 43.945-5.859 64.453-5.859 23.438-2.93 49.805-2.93 73.242-2.93s46.875-2.93 70.313-2.93c17.578 0 38.086-2.93 55.664-2.93 8.789 0 14.648 2.93 17.578 11.719 8.789 8.789 20.508 17.578 35.156 20.508 8.789 0 17.578 5.859 23.438 11.719 23.438 23.438 32.227 49.805 32.227 82.031 0 17.578 2.93 35.156 5.859 52.734 2.93 14.648 0 26.367-5.859 38.086-8.789 11.719-14.648 23.438-23.438 38.086-14.648 32.227-32.227 58.594-58.594 84.961-5.859 8.789-5.859 11.719 2.93 17.578 11.719 2.93 20.508 8.789 32.227 11.719 8.789 2.93 11.719 8.789 8.789 17.578 0 5.859-2.93 8.789-5.859 17.578-5.859 8.789-2.93 17.578 8.789 20.508 2.93 0 2.93 0 5.859 0 8.789 11.719 20.508 23.438 17.578 43.945-8.789 23.438-8.789 49.805 0 76.172 0 5.859 2.93 11.719 5.859 14.648 8.789 5.859 8.789 14.648 8.789 26.367 2.93 35.156 2.93 73.242 5.859 108.398 0 17.578-2.93 35.156-11.719 49.805-2.93 8.789-2.93 17.578-2.93 26.367 8.789 41.016 0 76.172-20.508 105.469-17.578 26.367-23.438 52.734-26.367 82.031-2.93 8.789-5.859 11.719-8.789 14.648-26.367 11.719-46.875 26.367-70.313 41.016-2.93 2.93-5.859 5.859-8.789 8.789-8.789 11.719-20.508 17.578-32.227 17.578-14.648 2.93-26.367 8.789-41.016 11.719-2.93 0-5.859-2.93-8.789-2.93-8.789-8.789-17.578-11.719-26.367 0s-23.438 8.789-35.156 8.789c-20.508 0-38.086-2.93-58.594-2.93-11.719 0-23.438 0-32.227 0-2.93 0-5.859-2.93-8.789-5.859 2.93-2.93 2.93-2.93 2.93-5.859zM158.203 1177.734c17.578 0 29.297-5.859 43.945-14.648 14.648-14.648 32.227-20.508 43.945-41.016 2.93-2.93 5.859-5.859 8.789-8.789 2.93-5.859 8.789-11.719 8.789-17.578 2.93-38.086 11.719-73.242 20.508-108.398 5.859-20.508 2.93-41.016 0-64.453 0-5.859-5.859-11.719-5.859-20.508s0-17.578 2.93-26.367c5.859-14.648 5.859-26.367-2.93-38.086-2.93-5.859-2.93-11.719-5.859-17.578-2.93-20.508 11.719-38.086 5.859-58.594 0-5.859 0-14.648-2.93-23.438 0-8.789-5.859-17.578-5.859-23.438 2.93-17.578-5.859-23.438-14.648-32.227-17.578-14.648-35.156-29.297-49.805-41.016-5.859-2.93-8.789-8.789-14.648-11.719 0 8.789 0 14.648 0 20.508 0 29.297 2.93 58.594-5.859 87.891-2.93 8.789 0 23.438 2.93 35.156 2.93 20.508-2.93 41.016-11.719 58.594-2.93 2.93-2.93 11.719 0 17.578 0 5.859 2.93 11.719 2.93 14.648 0 46.875 0 93.75 0 140.625 0 5.859-2.93 8.789-5.859 14.648-2.93 8.789-5.859 14.648-5.859 23.438 0 20.508 0 41.016 2.93 61.523 0 23.438 0 46.875-14.648 67.383 2.93 2.93 2.93 2.93 2.93 5.859zM295.898 363.281c0-2.93 0-2.93 0-2.93-5.859-2.93-8.789-2.93-14.648-2.93-8.789-2.93-20.508-5.859-26.367-14.648 0-2.93-5.859-5.859-11.719-5.859s-11.719 2.93-20.508 2.93c-5.859 2.93-8.789 2.93-8.789-5.859-8.789 0-11.719 5.859-11.719 11.719 0 2.93-2.93 8.789-2.93 11.719-2.93 2.93-5.859 8.789-5.859 14.648 0 49.805 0 99.609 0 152.344 0 2.93 0 5.859 0 8.789 2.93 0 8.789 0 11.719 0 14.648 5.859 20.508-2.93 26.367-14.648 2.93-2.93 2.93-8.789 5.859-14.648 5.859-11.719 17.578-20.508 32.227-20.508 8.789-2.93 11.719-5.859 11.719-14.648 0-20.508-2.93-43.945 5.859-61.523 0-2.93 0-5.859 0-8.789-5.859-11.719-11.719-29.297 8.789-35.156zM568.359 1180.664c20.508 0 43.945 0 67.383 0 2.93 0 5.859-2.93 8.789-5.859 11.719-11.719 23.438-17.578 41.016-11.719 14.648 2.93 29.297 5.859 43.945 8.789 17.578 2.93 38.086 0 55.664-11.719 5.859-5.859 14.648-5.859 23.438-8.789 17.578 0 35.156-2.93 49.805-2.93 35.156 0 67.383 0 99.609 0 38.086 0 76.172 0 117.188 0 8.789 0 8.789 2.93 8.789 11.719 0 29.297 0 52.734 0 79.102 0 14.648 2.93 26.367 8.789 38.086 2.93 2.93 2.93 5.859 5.859 11.719-2.93 0-5.859 0-8.789 0-32.227 0-61.523 0-87.891 0-5.859 0-11.719-2.93-17.578-5.859 0 0-2.93-2.93-2.93-2.93-14.648 2.93-26.367-2.93-41.016-8.789-2.93 0-5.859 0-8.789-2.93-5.859-8.789-17.578-5.859-26.367-5.859-20.508 0-41.016 0-61.523 0-8.789 0-11.719-2.93-17.578-8.789-8.789-5.859-20.508-5.859-32.227-5.859-58.594 0-120.117 0-178.711-2.93-8.789 0-14.648-2.93-20.508-5.859-23.438-8.789-46.875-11.719-67.383 2.93-14.648 11.719-29.297 23.438-41.016 32.227-2.93 2.93-5.859 2.93-8.789 2.93-23.438 0-46.875 0-70.313 0-2.93 0-5.859-2.93-8.789-5.859 2.93-11.719 11.719-23.438 23.438-26.367 2.93-2.93 8.789-5.859 11.719-8.789 23.438-11.719 32.227-26.367 29.297-52.734 0-5.859 2.93-8.789 2.93-14.648 5.859-5.859 5.859-8.789 0-14.648-2.93-5.859-2.93-8.789-2.93-14.648 0-14.648 0-29.297 0-43.945 0-5.859 0-14.648 5.859-20.508 2.93-2.93 0-14.648 2.93-20.508 0-5.859 2.93-8.789 5.859-14.648 5.859-5.859 2.93-20.508-5.859-29.297-8.789-5.859-8.789-14.648-8.789-23.438 0-29.297 0-58.594 0-87.891 0-5.859 2.93-8.789 2.93-14.648 2.93-2.93 2.93-5.859 2.93-11.719-2.93-23.438 0-43.945 2.93-70.313 2.93-11.719 2.93-23.438 5.859-35.156 0-14.648 0-32.227 2.93-46.875 0-5.859 2.93-8.789 2.93-11.719 8.789-11.719 8.789-23.438 0-35.156-2.93-2.93-2.93-8.789-2.93-14.648 0-38.086 0-73.242 0-111.328 0-5.859-2.93-8.789-5.859-14.648 0-2.93-2.93-8.789-2.93-11.719 0-11.719 0-23.438 0-35.156 0-14.648 2.93-26.367 14.648-35.156 0-2.93 2.93-5.859 2.93-8.789 0-17.578 0-35.156 0-52.734 0-2.93 0-5.859 0-5.859-11.719-8.789-5.859-17.578 0-26.367 14.648-26.367 2.93-52.734-8.789-76.172-2.93-2.93-11.719-5.859-17.578-5.859-5.859-2.93-8.789-2.93-14.648-8.789-8.789-14.648-23.438-26.367-35.156-41.016 0 0 0-2.93 2.93-2.93 5.859-11.719 5.859-11.719 17.578-2.93 2.93 0 8.789 2.93 11.719 2.93 14.648 0 32.227 0 49.805 0 2.93 0 11.719 2.93 14.648 5.859 8.789 8.789 14.648 14.648 23.438 11.719 2.93 0 5.859 0 8.789 2.93 11.719 11.719 23.438 23.438 32.227 35.156 2.93 2.93 5.859 5.859 5.859 8.789 0 23.438 0 46.875 0 70.313 0 2.93-2.93 8.789-2.93 11.719-8.789 8.789-8.789 14.648 0 23.438s11.719 14.648 11.719 26.367c-2.93 8.789 2.93 20.508-8.789 26.367 0 2.93 0 5.859 0 8.789 0 58.594 0 117.188 0 172.852 0 2.93 0 8.789 2.93 11.719 17.578 8.789 17.578 26.367 17.578 41.016 0 52.734-2.93 102.539-5.859 155.273 0 0 0 2.93 0 5.859-14.648 23.438-8.789 52.734-2.93 79.102 2.93 14.648 2.93 32.227 2.93 46.875 0 0-2.93 2.93-5.859 2.93-11.719 8.789-11.719 23.438-5.859 35.156 2.93 5.859 2.93 14.648 0 17.578-5.859 8.789-5.859 17.578-5.859 23.438 0 11.719 2.93 23.438-5.859 32.227-2.93 0-2.93 5.859-2.93 8.789 0 8.789 0 20.508 0 32.227 0 8.789 0 17.578-5.859 23.438s-5.859 11.719 0 17.578c5.859 5.859 5.859 14.648 8.789 20.508-2.93 0-2.93 0-2.93 0zM1157.227 451.172c-5.859-2.93-5.859-8.789-5.859-17.578 2.93-5.859 2.93-14.648 0-23.438s0-17.578 5.859-23.438c2.93-5.859 5.859-11.719 5.859-17.578 0-41.016 0-84.961 0-128.906 0-20.508 0-17.578 17.578-17.578 87.891 0 172.852 0 260.742 0 5.859 0 14.648-2.93 20.508 5.859 0 2.93 5.859 2.93 8.789 5.859-8.789 20.508-20.508 41.016-29.297 58.594-5.859 8.789-8.789 14.648-8.789 26.367 2.93 14.648-2.93 26.367-14.648 38.086-5.859 5.859-11.719 11.719-8.789 26.367 2.93 8.789-2.93 17.578-11.719 26.367-5.859 5.859-5.859 14.648-8.789 23.438-2.93 29.297-8.789 55.664-20.508 82.031-5.859 14.648-2.93 32.227-2.93 49.805s0 35.156-2.93 49.805c0 14.648-5.859 23.438-11.719 35.156-5.859 17.578-8.789 35.156-20.508 52.734-2.93 5.859-2.93 14.648 0 23.438 0 8.789-2.93 14.648-8.789 20.508-14.648 11.719-20.508 23.438-17.578 41.016 0 2.93 0 5.859 0 8.789 2.93 49.805-2.93 96.68-23.438 143.555-2.93 5.859-2.93 11.719-2.93 20.508 2.93 32.227-8.789 61.523-20.508 87.891-8.789 14.648-14.648 32.227-20.508 46.875 0 5.859-2.93 11.719-5.859 17.578 0 2.93 0 8.789 2.93 8.789 2.93 2.93 8.789 0 11.719 0s8.789-2.93 11.719-2.93c14.648 0 26.367 0 41.016-2.93 2.93 0 8.789-5.859 8.789-8.789 0-20.508 17.578-29.297 35.156-35.156 23.438-11.719 46.875-23.438 70.313-35.156 8.789-2.93 17.578-14.648 26.367-23.438 11.719 11.719 26.367 5.859 38.086 8.789 8.789 0 14.648 2.93 20.508 8.789 5.859 8.789 5.859 14.648 0 20.508-5.859 11.719-5.859 23.438 0 35.156 2.93 8.789 5.859 14.648 5.859 23.438 0 20.508 0 38.086 0 58.594 0 11.719-11.719 23.438-23.438 23.438-32.227 0-67.383 0-99.609 0-5.859 0-11.719-5.859-17.578-8.789-5.859 0-14.648-2.93-23.438-5.859-2.93 0-8.789 0-14.648 0-2.93 0-8.789 0-14.648 2.93-14.648 14.648-26.367 20.508-43.945 17.578-20.508 0-35.156 0-52.734 2.93-11.719 0-23.438 5.859-35.156 11.719-20.508 8.789-23.438-2.93-23.438-20.508 0-11.719 2.93-26.367 2.93-38.086 0-2.93 0-5.859 2.93-8.789 8.789-5.859 8.789-17.578 5.859-29.297 0-2.93 2.93-8.789 5.859-11.719 11.719-8.789 14.648-17.578 11.719-32.227 0-5.859 2.93-11.719 2.93-14.648 2.93-5.859 5.859-14.648 5.859-20.508 2.93-8.789 0-14.648 2.93-20.508 11.719-32.227 11.719-61.523-2.93-93.75-8.789-20.508-11.719-43.945-8.789-70.313 0-23.438 2.93-49.805 8.789-73.242 2.93-20.508 11.719-41.016 20.508-58.594 8.789-23.438 17.578-52.734 29.297-76.172 2.93-5.859 2.93-11.719-2.93-17.578-2.93-2.93-2.93-14.648 0-17.578 5.859-8.789 8.789-17.578 8.789-29.297 0-5.859 5.859-14.648 8.789-20.508 11.719-23.438 23.438-43.945 20.508-73.242 0-2.93 0-5.859 0-8.789 14.648-35.156 29.297-73.242 55.664-105.469 2.93-2.93 2.93-5.859 2.93-8.789 0-11.719 0-23.438 8.789-32.227 2.93-2.93-2.93-14.648-11.719-14.648-11.719 0-23.438 0-32.227 0-2.93 0-8.789 0-8.789-2.93-5.859-8.789-14.648-11.719-26.367-11.719-32.227 5.859-35.156 5.859-46.875 32.227-8.789 23.438-11.719 49.805-17.578 76.172 0 5.859-2.93 11.719-5.859 20.508s-5.859 11.719-14.648 11.719-17.578 5.859-23.438 8.789zM1069.336 902.344c5.859 11.719 11.719 8.789 17.578 2.93s11.719-14.648 14.648-23.438c5.859-17.578 5.859-17.578 26.367-14.648 0 14.648 2.93 29.297 2.93 43.945 0 2.93-2.93 2.93-2.93 5.859-14.648 14.648-20.508 32.227-20.508 49.805 0 32.227 0 64.453 2.93 96.68 0 8.789-2.93 11.719-8.789 14.648-5.859 0-8.789 2.93-11.719 5.859-11.719 8.789-23.438 8.789-35.156 8.789-20.508 0-38.086 0-58.594 0-8.789 0-14.648 0-20.508-8.789-5.859-5.859-26.367 0-32.227 5.859-14.648 14.648-20.508 14.648-35.156 5.859-5.859-2.93-14.648-5.859-23.438-5.859-14.648-2.93-26.367-2.93-41.016 0-8.789 0-14.648-2.93-17.578-11.719 0 0 0 0 0 0 17.578-17.578 11.719-35.156 11.719-55.664 0-5.859-2.93-14.648 5.859-20.508 2.93-2.93 2.93-11.719 2.93-14.648 0-5.859-2.93-8.789-5.859-11.719-5.859-11.719-11.719-20.508-5.859-32.227 2.93-2.93 0-8.789 0-11.719-11.719-23.438-2.93-46.875 0-73.242 5.859-20.508 8.789-43.945 14.648-67.383 5.859-17.578 17.578-32.227 29.297-49.805 2.93-8.789 5.859-17.578 11.719-23.438 8.789-17.578 17.578-35.156 26.367-49.805 2.93-8.789 5.859-14.648 8.789-20.508 8.789-29.297 17.578-55.664 23.438-82.031 2.93-11.719 8.789-17.578 17.578-26.367 5.859-2.93 8.789-8.789 14.648-14.648 8.789-11.719 20.508-20.508 26.367-35.156 2.93-2.93 5.859-8.789 5.859-11.719 0-11.719-2.93-23.438-2.93-35.156 0-8.789 5.859-14.648 8.789-17.578 5.859-11.719 14.648-20.508 23.438-32.227 5.859-5.859 8.789-14.648 14.648-20.508 14.648-11.719 17.578-23.438 17.578-38.086-2.93-14.648 0-29.297 0-41.016-14.648-2.93-29.297-2.93-41.016-2.93-8.789 0-20.508 0-32.227 0-23.438-2.93-41.016 5.859-58.594 17.578s-23.438 23.438-26.367 41.016c0 5.859-2.93 8.789-8.789 11.719-2.93 2.93-8.789 5.859-14.648 8.789-5.859 5.859-11.719 14.648-8.789 23.438 0 14.648-2.93 29.297 0 41.016 0 20.508-5.859 38.086-20.508 52.734 0 0-2.93 0-2.93-2.93-5.859-23.438-11.719-46.875-17.578-70.313 0-8.789 5.859-20.508 5.859-29.297 2.93-17.578 2.93-32.227-11.719-43.945-2.93-2.93-2.93-5.859-2.93-8.789 0-23.438-2.93-43.945 0-64.453 0-8.789 5.859-20.508 8.789-29.297 82.031 0 166.992 0 251.953 0 0 14.648 0 26.367 0 38.086 0 5.859 2.93 11.719 2.93 17.578 2.93 5.859 2.93 8.789 2.93 14.648 0 49.805 0 96.68 0 143.555 0 2.93 0 8.789 0 8.789-11.719 14.648-11.719 32.227-8.789 49.805 0 5.859-2.93 8.789-2.93 11.719-8.789 20.508-20.508 38.086-29.297 58.594-8.789 14.648-14.648 26.367-17.578 43.945-2.93 8.789-2.93 20.508-2.93 29.297s0 11.719-8.789 17.578c-8.789 2.93-14.648 5.859-20.508 11.719-17.578 11.719-17.578 32.227-17.578 49.805 0 2.93 0 8.789 0 8.789-11.719 17.578-23.438 29.297-32.227 43.945-11.719 29.297-26.367 61.523-38.086 90.82 0 5.859-2.93 11.719-2.93 17.578 0 17.578-5.859 29.297-11.719 46.875-11.719 32.227-26.367 67.383-38.086 96.68-2.93 8.789 2.93 17.578 11.719 14.648 8.789 0 14.648-2.93 20.508-5.859 14.648-8.789 32.227-14.648 49.805-17.578 14.648 0 26.367-8.789 32.227-20.508 8.789-14.648 17.578-26.367 26.367-38.086s20.508-20.508 32.227-23.438c2.93 0 8.789-5.859 8.789-8.789 5.859-8.789 5.859-17.578 8.789-26.367 5.859-5.859 8.789-8.789 8.789-8.789zM603.516 246.094c5.859-11.719 8.789-11.719 17.578-11.719 49.805 0 99.609 0 149.414 0 8.789 0 11.719 5.859 14.648 11.719s0 11.719-5.859 14.648c-17.578 8.789-35.156 17.578-38.086 38.086-2.93 5.859 0 14.648 2.93 23.438 5.859 5.859 8.789 14.648 0 20.508-8.789 8.789-8.789 17.578-8.789 26.367 0 23.438 0 41.016 0 61.523 2.93 43.945 2.93 87.891 2.93 128.906 0 8.789 0 17.578-2.93 23.438 0 14.648 2.93 32.227 8.789 46.875 0 5.859 2.93 11.719 2.93 20.508 0 2.93-2.93 5.859-2.93 8.789-2.93 8.789-11.719 14.648-8.789 23.438 0 32.227 5.859 61.523 5.859 90.82 2.93 14.648 5.859 29.297-8.789 41.016-5.859 2.93-8.789 14.648-5.859 20.508 2.93 20.508 2.93 41.016 11.719 61.523 11.719 23.438 5.859 49.805 2.93 76.172 0 2.93-2.93 8.789-5.859 11.719-5.859 5.859-8.789 11.719-5.859 23.438 0 5.859 2.93 14.648 5.859 20.508 2.93 8.789 8.789 14.648 14.648 17.578 8.789 8.789 20.508 14.648 32.227 20.508s14.648 17.578 14.648 29.297c-29.297 0-58.594 0-84.961 0-11.719 0-26.367 0-38.086 2.93-8.789 2.93-17.578 5.859-26.367 11.719-11.719 8.789-11.719 8.789-23.438-5.859 11.719-8.789 23.438-20.508 35.156-32.227 2.93-2.93 5.859-8.789 5.859-14.648 2.93-32.227 5.859-67.383 8.789-99.609 0-5.859 2.93-8.789 2.93-14.648 2.93-8.789 5.859-17.578 2.93-23.438-11.719-17.578-8.789-35.156 2.93-55.664 0-2.93 0-8.789 0-11.719 0-46.875 0-93.75 0-140.625 0-70.313 0-140.625 0-210.938 0-2.93-2.93-8.789 0-8.789 11.719-8.789 2.93-14.648 0-26.367-5.859-14.648-2.93-32.227-5.859-46.875 0-29.297-2.93-58.594-2.93-90.82 0-11.719-2.93-26.367-2.93-41.016 0-8.789-5.859-14.648-14.648-17.578-8.789-5.859-17.578-5.859-26.367-14.648-8.789-2.93-17.578-2.93-26.367-8.789z"></path>
</svg>
