<svg version="1.1" xmlns="http://www.w3.org/2000/svg"   viewBox="0 0 1500 1500">

<path d="M783 730.5c115.5-24 210-127.5 210-280.5 0-162-118.5-310.5-351-310.5h-642v1219.5h663c234 0 355.5-147 355.5-330-1.5-151.5-103.5-277.5-235.5-298.5zM259.5 369h325.5c88.5 0 142.5 52.5 142.5 127.5 0 78-55.5 127.5-142.5 127.5h-325.5v-255zM597 1131h-337.5v-277.5h336c100.5 0 156 61.5 156 139.5 0 87-58.5 138-154.5 138zM1338 142.5c-78 0-144 66-144 144s55.5 132 124.5 132c15 0 28.5-1.5 34.5-6-15 66-82.5 142.5-141 174l100.5 82.5c112.5-79.5 187.5-202.5 187.5-340.5 0-118.5-76.5-186-162-186z"></path>
</svg>
