<svg version="1.1" xmlns="http://www.w3.org/2000/svg"   viewBox="0 0 1500 1500">

<path d="M1394.531 571.289h-64.453c-64.453 0-99.609-43.945-99.609-90.82v-41.016c0-213.867-237.305-439.453-439.453-439.453h-316.406c-266.602 0-474.609 210.938-474.609 477.539v568.359c0 249.023 213.867 454.102 436.523 454.102h600.586c246.094 0 462.891-208.008 462.891-459.961v-360.352c0-67.383-23.438-108.398-105.469-108.398zM474.609 389.648h272.461c46.875 0 87.891 41.016 87.891 90.82 0 46.875-41.016 90.82-87.891 90.82h-272.461c-46.875 0-87.891-43.945-87.891-90.82s41.016-90.82 87.891-90.82zM1016.602 1110.352h-541.992c-46.875 0-87.891-35.156-87.891-82.031 0-49.805 41.016-82.031 87.891-82.031h541.992c46.875 0 87.891 32.227 87.891 82.031 0 46.875-41.016 82.031-87.891 82.031z"></path>
</svg>
