<svg version="1.1" xmlns="http://www.w3.org/2000/svg"   viewBox="0 0 1500 1500">

<path d="M705 0c0 6-1.5 13.5-1.5 19.5 0 172.5 0 343.5 0 516 0 6 0 13.5 1.5 25.5 19.5-19.5 33-36 49.5-49.5 178.5-156 469.5-118.5 591 112.5 42 79.5 63 165 70.5 253.5 9 103.5 3 207-25.5 307.5-25.5 87-66 165-136.5 225-156 133.5-394.5 117-532.5-37.5-13.5-15-19.5-13.5-33 0-30 31.5-60 61.5-90 91.5-9 9-19.5 13.5-31.5 13.5-109.5 0-220.5 0-330 0-19.5 0-24-6-24-24 0-376.5 0-753 0-1128 0-31.5 0-31.5-30-31.5-25.5 0-51-1.5-75 0-19.5 1.5-25.5-4.5-25.5-24 1.5-90 0-180 0-270 207 0 414 0 622.5 0zM703.5 958.5c0 51 0 100.5 0 151.5 0 24 6 45 16.5 66 18 36 46.5 51 85.5 51s64.5-19.5 79.5-52.5c12-27 16.5-54 16.5-84 0-87 0-175.5 0-262.5 0-24-3-48-12-72-15-42-45-63-87-63s-73.5 21-88.5 63c-6 16.5-10.5 34.5-10.5 54 0 49.5 0 99 0 148.5z"></path>
</svg>
