<svg version="1.1" xmlns="http://www.w3.org/2000/svg"   viewBox="0 0 1500 1500">

<path d="M804 708c16.5-15 34.5-28.5 51-43.5 138-132 145.5-378 12-517.5-87-90-217.5-126-340.5-129-124.5 0-249 0-375 0-81-3-156 72-151.5 154.5 0 436.5 0 873 0 1309.5 180 0 360 0 538.5 0 154.5-3 322.5-60 412.5-193.5 82.5-121.5 90-289.5 25.5-420-36-73.5-100.5-124.5-172.5-160.5zM283.5 370.5c1.5-31.5 3-66 28.5-87 28.5-28.5 72-22.5 109.5-24 63 1.5 133.5-9 187.5 30 79.5 58.5 82.5 183 27 259.5-28.5 37.5-75 57-120 58.5-76.5 1.5-154.5 0-231 0-1.5-78-1.5-157.5-1.5-237zM700.5 1143c-28.5 54-90 87-151.5 88.5-88.5 1.5-177 0-265.5 0 0-96 0-192 0-288 1.5-33 6-72 36-90 37.5-24 82.5-15 124.5-16.5 73.5 0 156-6 217.5 45 73.5 61.5 82.5 178.5 39 261zM1498.5 1299c-4.5-100.5-115.5-178.5-211.5-148.5-79.5 19.5-135 102-123 183 7.5 88.5 96 159 184.5 148.5 88.5-6 160.5-94.5 150-183z"></path>
</svg>
