<svg version="1.1" xmlns="http://www.w3.org/2000/svg"   viewBox="0 0 1500 1500">

<path d="M0 1243.5v-987h336c102 0 181.5 19.5 238.5 60s85.5 97.5 85.5 169.5c0 52.5-16.5 99-51 139.5-33 40.5-78 69-135 87v1.5c69 9 124.5 34.5 166.5 78 40.5 43.5 61.5 96 61.5 159 0 88.5-31.5 159-94.5 211.5s-148.5 79.5-255 79.5h-352.5zM190.5 403.5v259.5h103.5c51 0 91.5-12 120-36s43.5-58.5 43.5-103.5c0-79.5-57-120-171-120h-96zM190.5 810v286.5h132c57 0 100.5-13.5 132-39s46.5-61.5 46.5-108c0-93-61.5-139.5-184.5-139.5h-126zM798 1243.5v-987h336c102 0 181.5 19.5 238.5 60s85.5 97.5 85.5 169.5c0 52.5-16.5 99-51 139.5-33 40.5-78 69-135 87v1.5c69 9 124.5 34.5 166.5 78 40.5 43.5 61.5 96 61.5 159 0 88.5-31.5 159-94.5 211.5s-148.5 79.5-255 79.5h-352.5zM988.5 403.5v259.5h103.5c51 0 91.5-12 120-36s43.5-58.5 43.5-103.5c0-79.5-57-120-171-120h-96zM988.5 810v286.5h132c57 0 100.5-13.5 132-39s46.5-61.5 46.5-108c0-93-61.5-139.5-184.5-139.5h-126z"></path>
</svg>
