<svg version="1.1" xmlns="http://www.w3.org/2000/svg"   viewBox="0 0 1500 1500">

<path d="M1473.633 1139.648c-2.93-2.93-8.789-5.859-11.719-8.789-38.086-17.578-79.102-35.156-117.188-52.734-32.227-17.578-67.383-17.578-102.539 0-146.484 67.383-292.969 137.695-439.453 205.078-35.156 14.648-70.313 17.578-102.539 0-146.484-67.383-295.898-137.695-442.383-205.078-35.156-17.578-70.313-17.578-105.469 0s-73.242 35.156-108.398 49.805c-11.719 5.859-29.297 11.719-29.297 29.297 0 14.648 17.578 17.578 29.297 23.438 216.797 102.539 433.594 205.078 653.32 304.688 35.156 17.578 70.313 17.578 102.539 2.93 219.727-102.539 439.453-205.078 659.18-307.617 5.859-2.93 11.719-5.859 14.648-8.789 14.648-8.789 14.648-23.438 0-32.227zM23.438 360.352c5.859 2.93 14.648 8.789 20.508 11.719 219.727 99.609 436.523 202.148 653.32 304.688 35.156 14.648 70.313 14.648 105.469 0 216.797-102.539 436.523-205.078 653.32-304.688 5.859-5.859 14.648-8.789 20.508-14.648 11.719-5.859 11.719-17.578 0-26.367-5.859-5.859-14.648-8.789-20.508-14.648-216.797-99.609-433.594-202.148-650.391-301.758-38.086-17.578-73.242-17.578-111.328 0-216.797 99.609-433.594 202.148-650.391 304.688-8.789 2.93-14.648 5.859-20.508 8.789-11.719 8.789-11.719 23.438 0 32.227zM1473.633 735.352c-2.93-2.93-8.789-5.859-11.719-8.789-38.086-17.578-79.102-35.156-117.188-52.734-32.227-17.578-67.383-17.578-102.539 0-146.484 67.383-292.969 137.695-439.453 205.078-35.156 14.648-70.313 14.648-102.539 0-146.484-67.383-295.898-137.695-442.383-205.078-35.156-17.578-70.313-17.578-105.469 0s-73.242 35.156-108.398 49.805c-11.719 5.859-29.297 11.719-29.297 26.367 0 17.578 17.578 20.508 29.297 26.367 216.797 102.539 433.594 205.078 653.32 304.688 35.156 17.578 70.313 17.578 102.539 2.93 219.727-102.539 439.453-205.078 659.18-307.617 5.859-2.93 11.719-5.859 14.648-8.789 14.648-8.789 14.648-23.438 0-32.227z"></path>
</svg>
