<svg version="1.1" xmlns="http://www.w3.org/2000/svg"   viewBox="0 0 1500 1500">

<path d="M1465.5 226.5c0-93-63-156-156-156-55.5 0-112.5 0-168 0-25.5 0-25.5 0-27-27 0-33-31.5-54-60-39-18 9-24 27-22.5 45 1.5 15-3 21-19.5 21-172.5 0-346.5 0-519 0-24 0-24 0-25.5-24-1.5-25.5-15-42-34.5-45-28.5-3-48 13.5-48 43.5 0 25.5 0 25.5-25.5 25.5-58.5 0-115.5 0-174 0-87 1.5-151.5 66-151.5 151.5 0 375 0 750 0 1125 0 87 64.5 151.5 151.5 151.5 187.5 0 375 0 562.5 0 186 0 373.5-1.5 559.5 1.5 78 1.5 156-58.5 156-156 0-372 1.5-745.5 1.5-1117.5zM1383 1341c0 51-25.5 78-78 78-370.5 0-739.5 0-1110 0-51 0-78-25.5-78-78 0-370.5 0-741 0-1111.5 0-49.5 25.5-76.5 75-78 60 0 120 0 178.5 0 12 0 15 3 15 15-1.5 28.5 0 58.5 0 87 0 27 15 45 40.5 45 24 0 42-16.5 42-43.5 0-30 0-58.5 0-88.5 0-12 4.5-15 15-15 178.5 0 357 0 535.5 0 12 0 15 3 15 15-1.5 28.5 0 58.5 0 87 0 27 16.5 43.5 40.5 45 24 0 40.5-16.5 42-42 0-30 0-60 0-90 0-12 4.5-15 15-15 58.5 0 118.5 0 177 0 51 0 76.5 27 76.5 78 0 186 0 370.5 0 556.5-1.5 184.5-1.5 369-1.5 555zM789 556.5c60 0 114 13.5 160.5 48 7.5 6 18 12 9 24s-16.5 4.5-25.5-1.5c-135-93-318-31.5-360 121.5-36 130.5 57 267 192 282 63 7.5 118.5-7.5 169.5-45 9-6 16.5-9 24 1.5 6 9 1.5 16.5-6 21-88.5 61.5-184.5 69-279 18s-141-132-135-241.5c9-129 133.5-234 250.5-228z"></path>
</svg>
