<svg version="1.1" xmlns="http://www.w3.org/2000/svg"   viewBox="0 0 1500 1500">

<path d="M1031.25 750c0 155.273-125.977 281.25-281.25 281.25s-281.25-125.977-281.25-281.25c0-155.273 125.977-281.25 281.25-281.25s281.25 125.977 281.25 281.25zM752.93 418.945h676.758c-123.047-249.023-380.859-418.945-673.828-418.945-240.234 0-454.102 111.328-591.797 287.109l257.813 439.453c11.719-172.852 155.273-307.617 331.055-307.617zM1447.266 468.75h-515.625c93.75 58.594 152.344 161.133 152.344 278.32 0 55.664-14.648 111.328-41.016 158.203l-339.844 591.797c17.578 0 32.227 0 49.805 0 413.086 0 747.070-333.984 747.070-750 0-96.68-20.508-193.359-52.734-278.32zM761.719 1086.914c-146.484 0-272.461-93.75-316.406-222.656l-316.406-536.133c-82.031 120.117-128.906 263.672-128.906 418.945 0 383.789 284.18 700.195 650.391 750l263.672-448.242c-46.875 23.438-96.68 38.086-152.344 38.086z"></path>
</svg>
