<svg version="1.1" xmlns="http://www.w3.org/2000/svg"   viewBox="0 0 1500 1500">

<path d="M1309.57 445.313c105.469 0 187.5-84.961 187.5-187.5s-82.031-187.5-187.5-187.5c-102.539 0-184.57 84.961-184.57 187.5s82.031 187.5 184.57 187.5zM1309.57 562.5c-102.539 0-184.57 84.961-184.57 187.5s82.031 187.5 184.57 187.5c105.469 0 187.5-84.961 187.5-187.5s-82.031-187.5-187.5-187.5zM1309.57 1054.688c-102.539 0-184.57 84.961-184.57 187.5s82.031 187.5 184.57 187.5c105.469 0 187.5-84.961 187.5-187.5s-82.031-187.5-187.5-187.5zM744.141 70.313c-102.539 0-187.5 84.961-187.5 187.5s84.961 187.5 187.5 187.5c102.539 0 187.5-84.961 187.5-187.5s-84.961-187.5-187.5-187.5zM744.141 562.5c-102.539 0-187.5 84.961-187.5 187.5s84.961 187.5 187.5 187.5c102.539 0 187.5-84.961 187.5-187.5s-84.961-187.5-187.5-187.5zM184.57 70.313c-102.539 0-187.5 84.961-187.5 187.5s84.961 187.5 187.5 187.5c102.539 0 187.5-84.961 187.5-187.5s-84.961-187.5-187.5-187.5z"></path>
</svg>
