<svg version="1.1" xmlns="http://www.w3.org/2000/svg"   viewBox="0 0 1500 1500">

<path d="M1500 522c0-3-1.5-7.5-1.5-10.5 0-1.5 0-3 0-4.5-1.5-7.5-4.5-15-9-22.5 0 0 0-1.5-1.5-1.5 0-1.5-1.5-1.5-1.5-1.5-4.5-6-10.5-13.5-18-18v0c0 0 0 0 0 0l-678-450c-3-1.5-4.5-3-7.5-3-3-1.5-4.5-3-7.5-3-16.5-6-33-6-49.5 0-3 1.5-4.5 1.5-7.5 3s-4.5 1.5-7.5 3l-678 450c0 0 0 0 0 0v0c-7.5 4.5-12 10.5-18 18 0 1.5-1.5 1.5-1.5 1.5s0 1.5-1.5 1.5c-4.5 7.5-7.5 15-9 22.5 0 1.5 0 3 0 4.5 0 3-1.5 7.5-1.5 10.5v457.5c0 3 1.5 7.5 1.5 10.5 0 1.5 0 3 0 4.5 1.5 7.5 4.5 15 9 22.5 0 0 0 1.5 1.5 1.5 0 1.5 1.5 1.5 1.5 1.5 4.5 6 10.5 13.5 18 18v0c0 0 0 0 0 0l678 450c3 1.5 4.5 3 7.5 3 3 1.5 4.5 3 7.5 3 7.5 3 16.5 4.5 24 4.5s16.5-1.5 24-4.5c3-1.5 4.5-1.5 7.5-3s4.5-1.5 7.5-3l679.5-450c1.5-1.5 1.5-3 3-3 3-1.5 4.5-4.5 7.5-6 1.5-1.5 4.5-4.5 6-7.5 1.5-1.5 3-3 3-4.5 0 0 0-1.5 1.5-1.5 4.5-7.5 7.5-15 9-22.5 0-1.5 0-3 0-4.5 0-3 1.5-7.5 1.5-10.5v-456zM750 892.5l-213-142.5 213-142.5 213 142.5-213 142.5zM820.5 483v-280.5l480 318-211.5 142.5-268.5-180zM679.5 483l-268.5 180-211.5-142.5 480-318v280.5zM283.5 750l-141 94.5v-190.5l141 96zM411 835.5l268.5 180v280.5l-480-318 211.5-142.5zM820.5 1015.5l268.5-180 211.5 142.5-480 318v-280.5zM1216.5 750l141-94.5v190.5l-141-96z"></path>
</svg>
