<svg version="1.1" xmlns="http://www.w3.org/2000/svg"   viewBox="0 0 1500 1500">

<path d="M6 835.5v1.5c1.5 10.5 3 21 4.5 31.5 3 16.5 6 31.5 9 49.5 7.5 34.5 18 69 31.5 102 9 24 19.5 48 31.5 70.5 12 24 25.5 48 40.5 70.5 24 36 51 70.5 81 102 37.5 40.5 81 76.5 126 108 30 19.5 60 37.5 91.5 54 43.5 21 90 39 138 51 19.5 4.5 39 9 58.5 13.5 13.5 3 27 4.5 43.5 6 15 1.5 30 3 42 4.5 3 0 6 0 10.5 0 3 0 6 0 9 0s4.5 0 7.5 0h40.5c3 0 4.5 0 7.5 0 4.5 0 7.5 0 12 0 6 0 12 0 18-1.5 10.5-1.5 21-1.5 30-3 10.5-1.5 22.5-3 33-4.5 13.5-1.5 28.5-4.5 43.5-9 21-4.5 42-10.5 63-16.5 31.5-10.5 61.5-22.5 90-36 33-15 66-34.5 97.5-55.5 34.5-24 67.5-49.5 99-78 40.5-37.5 76.5-79.5 106.5-126 36-52.5 64.5-111 87-171 10.5-31.5 19.5-64.5 27-96 3-18 6-34.5 9-52.5 3-19.5 4.5-36 4.5-51 0-7.5 0-16.5 1.5-24 0-12 0-25.5 0-37.5 0-10.5 0-21 0-31.5 0-9-1.5-16.5-1.5-25.5v-1.5c-1.5-7.5-1.5-16.5-3-24-1.5-10.5-3-22.5-6-37.5-4.5-25.5-10.5-51-18-76.5-12-39-27-78-43.5-115.5-15-30-31.5-60-49.5-87-22.5-34.5-49.5-69-78-99-39-42-82.5-79.5-130.5-111-43.5-30-91.5-55.5-141-75-31.5-12-64.5-22.5-97.5-31.5-21-4.5-39-9-57-12-15-3-28.5-4.5-43.5-6-9-1.5-18-1.5-27-1.5h-7.5c-21-3-40.5-3-61.5-3-13.5 0-27 0-40.5 1.5-16.5 1.5-31.5 3-45 4.5-49.5 6-99 18-145.5 34.5-33 12-64.5 25.5-96 40.5-52.5 27-102 60-147 99-16.5 15-33 30-48 45-40.5 40.5-75 87-105 135-25.5 45-48 91.5-64.5 139.5-12 33-21 67.5-27 100.5-4.5 19.5-7.5 39-9 57-1.5 16.5-3 31.5-4.5 45v9c0 3 0 7.5 0 10.5s0 6-1.5 9c0 1.5 0 3 0 3v34.5c0 4.5 0 9 1.5 13.5l1.5 12c0 7.5 1.5 16.5 1.5 24-1.5 6-1.5 12 0 18zM837 201v-12l9-4.5c7.5-3 13.5-1.5 15-1.5h3c6 1.5 13.5 3 19.5 4.5 34.5 9 69 19.5 100.5 34.5 36 16.5 70.5 37.5 103.5 60 22.5 16.5 43.5 34.5 63 54 42 42 78 90 106.5 142.5 24 45 42 93 52.5 142.5 4.5 18 7.5 36 9 54 1.5 16.5 3 33 4.5 48 0 10.5 0 19.5 0 28.5 0 15-1.5 28.5-1.5 42-1.5 18-3 36-6 52.5-9 51-25.5 102-46.5 148.5-7.5 16.5-16.5 33-25.5 48-1.5 1.5-3 6-7.5 9l-10.5 7.5-10.5-6c-1.5 0-1.5-1.5-3-1.5l-342-334.5c-7.5-7.5-16.5-15-24-24-6-4.5-7.5-12-7.5-19.5 0-36 0-70.5 0-106.5v-361.5c-1.5-1.5-1.5-3-1.5-4.5zM835.5 960l1.5-4.5 7.5-19.5 18 12c1.5 0 3 1.5 4.5 3 3 3 6 4.5 7.5 7.5l219 222c0 0 1.5 1.5 1.5 1.5l7.5 9-4.5 12c-3 6-7.5 7.5-9 9l-7.5 4.5c-6 4.5-13.5 9-19.5 13.5-34.5 22.5-70.5 40.5-112.5 55.5-30 10.5-61.5 19.5-93 27-1.5 0-3 0-4.5 0h-4.5l-7.5-3-4.5-9v-4.5c0-111 0-222 0-331.5v-4.5zM664.5 966c0 1.5 0 3 0 4.5l-3 327c0 1.5 0 1.5 0 3l-1.5 10.5-9 6c-3 1.5-6 1.5-9 1.5s-4.5 0-6 0c-22.5-4.5-43.5-9-63-16.5-25.5-7.5-49.5-18-73.5-28.5-33-16.5-66-34.5-96-57-1.5-1.5-1.5-1.5-3-3l-3-1.5-6-10.5 4.5-10.5 237-237 4.5-1.5 18-9 6 19.5c1.5-3 3 0 3 3zM175.5 669c7.5-58.5 25.5-114 49.5-168 24-49.5 54-96 90-136.5 37.5-42 79.5-78 126-106.5s96-51 147-64.5c12-3 42-12 54-12 0 0 0 0 0 0h13.5l3 13.5c0 1.5 1.5 3 1.5 6s0 4.5 0 6v117c0 49.5 0 97.5 0 147 0 37.5 0 75 0 111 0 28.5 0 58.5 0 87v1.5c0 7.5-1.5 12-7.5 18l-1.5 1.5c-15 15-28.5 28.5-43.5 42l-321 322.5c0 0-1.5 1.5-3 1.5l-13.5 10.5-12-12c-9-10.5-30-52.5-40.5-75-21-48-34.5-97.5-42-148.5-7.5-52.5-7.5-108 0-162zM1081.5 1198.5v0 0z"></path>
</svg>
