<svg version="1.1" xmlns="http://www.w3.org/2000/svg"   viewBox="0 0 1500 1500">

<path d="M1242.188 996.094c-46.875-140.625-123.047-178.711-123.047-178.711 38.086 52.734 46.875 131.836 20.508 193.359-23.438 46.875-102.539 111.328-143.555 46.875-14.648-20.508-14.648-43.945-11.719-70.313 5.859-20.508 8.789-43.945 20.508-67.383 11.719-20.508 26.367-43.945 41.016-61.523 17.578-26.367 29.297-55.664 35.156-87.891 5.859-26.367 2.93-82.031-23.438-99.609 8.789 32.227-14.648 64.453-41.016 79.102-5.859 2.93-8.789 2.93-11.719 5.859-8.789 0-17.578 0-23.438 0-20.508-2.93-43.945-20.508-52.734-41.016-14.648-32.227-5.859-70.313 20.508-96.68 20.508-20.508 46.875-26.367 76.172-14.648-14.648-82.031-70.313-134.766-111.328-196.289-55.664-79.102-82.031-172.852-46.875-260.742 0 0 0-2.93 0-5.859 35.156-76.172 125.977-128.906 210.938-143.555-5.859 0-8.789 0-14.648 0-140.625 0-257.813 76.172-257.813 76.172-202.148 137.695-67.383 336.914-49.805 366.211s5.859 87.891-52.734 90.82c-84.961 5.859-102.539-128.906-102.539-128.906-61.523 67.383-46.875 184.57 49.805 266.602 61.523 52.734 61.523 128.906 41.016 199.219-11.719 38.086-32.227 73.242-61.523 96.68-70.313 49.805-155.273 14.648-196.289-49.805-67.383-108.398 2.93-210.938 2.93-210.938-102.539 41.016-158.203 99.609-178.711 166.992 0 0 0 2.93-2.93 2.93 0 8.789-2.93 20.508-5.859 26.367s-2.93 11.719-2.93 17.578c0 2.93-2.93 5.859-2.93 11.719-5.859 67.383 0 184.57 102.539 281.25 149.414 140.625 263.672 131.836 325.195 146.484 61.523 17.578 120.117 52.734 161.133 146.484 0 0 26.367-52.734 64.453-79.102 58.594-41.016 152.344-41.016 237.305-96.68s155.273-199.219 108.398-331.055z"></path>
</svg>
