<svg version="1.1" xmlns="http://www.w3.org/2000/svg"   viewBox="0 0 1500 1500">

<path d="M1297.852 0l-319.336 64.453v471.68c-70.313-93.75-172.852-137.695-301.758-137.695-137.695 0-260.742 49.805-360.352 149.414-111.328 108.398-172.852 246.094-172.852 401.367 0 169.922 64.453 313.477 187.5 424.805 96.68 84.961 208.008 125.977 339.844 125.977 125.977 0 222.656-35.156 319.336-125.977v120.117h304.688v-1494.141zM741.211 1212.891c-164.063 0-281.25-114.258-281.25-266.602 0-143.555 117.188-266.602 269.531-266.602 146.484 0 260.742 117.188 260.742 272.461 0 149.414-114.258 260.742-249.023 260.742z"></path>
</svg>
