<svg version="1.1" xmlns="http://www.w3.org/2000/svg"   viewBox="0 0 1500 1500">

<path d="M0 1086.914h272.461v82.031h-272.461zM0 978.516h272.461v82.031h-272.461zM0 870.117h272.461v82.031h-272.461zM0 761.719h272.461v82.031h-272.461zM0 653.32h272.461v82.031h-272.461zM304.688 1086.914h275.391v82.031h-275.391zM304.688 978.516h275.391v82.031h-275.391zM304.688 870.117h275.391v82.031h-275.391zM612.305 1086.914h275.391v82.031h-275.391zM612.305 978.516h275.391v82.031h-275.391zM612.305 870.117h275.391v82.031h-275.391zM612.305 761.719h275.391v82.031h-275.391zM612.305 653.32h275.391v82.031h-275.391zM612.305 547.852h275.391v82.031h-275.391zM612.305 439.453h275.391v82.031h-275.391zM919.922 1086.914h272.461v82.031h-272.461zM919.922 978.516h272.461v82.031h-272.461zM919.922 870.117h272.461v82.031h-272.461zM919.922 761.719h272.461v82.031h-272.461zM919.922 653.32h272.461v82.031h-272.461zM1227.539 1086.914h272.461v82.031h-272.461zM1227.539 978.516h272.461v82.031h-272.461zM1227.539 870.117h272.461v82.031h-272.461zM1227.539 761.719h272.461v82.031h-272.461zM1227.539 653.32h272.461v82.031h-272.461zM1227.539 547.852h272.461v82.031h-272.461zM1227.539 439.453h272.461v82.031h-272.461zM1227.539 331.055h272.461v82.031h-272.461z"></path>
</svg>
