<svg version="1.1" xmlns="http://www.w3.org/2000/svg"   viewBox="0 0 1500 1500">

<path d="M1209.961 580.078c-41.016-17.578-79.102-52.734-128.906-67.383 46.875 67.383 99.609 140.625 93.75 263.672-5.859 93.75-49.805 161.133-99.609 213.867s-114.258 90.82-196.289 117.188c-41.016 11.719-87.891 23.438-134.766 23.438-149.414 0-301.758-11.719-448.242 5.859 0-14.648-2.93-26.367-5.859-38.086 58.594-14.648 140.625-32.227 146.484-105.469 2.93-38.086 5.859-468.75-2.93-500.977-11.719-43.945-93.75-58.594-140.625-67.383 0-11.719 5.859-23.438 2.93-38.086 99.609-11.719 199.219-14.648 301.758-17.578 272.461-11.719 509.766 43.945 612.305 210.938zM638.672 471.68c-14.648 2.93-8.789 46.875-8.789 58.594 0 111.328-2.93 240.234-2.93 348.633 0 35.156-8.789 108.398 11.719 125.977s99.609 8.789 134.766 8.789c164.063-11.719 240.234-193.359 184.57-357.422-38.086-105.469-120.117-175.781-251.953-184.57-17.578-2.93-43.945-2.93-58.594 0-2.93 0-5.859 0-8.789 0zM717.773 1174.805c11.719 184.57 35.156 325.195 58.594 325.195s43.945-143.555 55.664-336.914c-38.086 8.789-73.242 8.789-114.258 11.719zM550.781 1347.656c14.648 0 29.297-82.031 38.086-175.781-26.367 0-52.734 0-76.172 0 8.789 93.75 23.438 175.781 38.086 175.781zM966.797 1122.070c8.789 143.555 20.508 228.516 38.086 228.516s32.227-108.398 41.016-272.461c-26.367 14.648-52.734 32.227-79.102 43.945zM776.367 0c-23.438 0-46.875 134.766-58.594 319.336 41.016 2.93 76.172 5.859 114.258 11.719-11.719-190.43-32.227-331.055-55.664-331.055zM550.781 172.852c-14.648 0-29.297 58.594-38.086 155.273 23.438 0 49.805 0 76.172 0-8.789-96.68-23.438-155.273-38.086-155.273zM1004.883 172.852c-14.648 2.93-29.297 64.453-38.086 181.641 23.438 5.859 55.664 17.578 79.102 32.227-5.859-131.836-20.508-216.797-41.016-213.867z"></path>
</svg>
