<svg version="1.1" xmlns="http://www.w3.org/2000/svg"   viewBox="0 0 1500 1500">

<path d="M1315.43 348.633c-184.57-137.695-360.352-131.836-360.352-131.836l-17.578 20.508c219.727 64.453 319.336 161.133 319.336 161.133-134.766-70.313-266.602-108.398-386.719-120.117-93.75-11.719-181.641-8.789-260.742 2.93-5.859 0-11.719 0-20.508 2.93-46.875 2.93-155.273 20.508-292.969 79.102-49.805 23.438-76.172 38.086-76.172 38.086s105.469-102.539 336.914-166.992l-14.648-14.648c0 0-175.781-5.859-360.352 131.836 0 0-184.57 333.984-184.57 744.141 0 0 108.398 184.57 392.578 193.359 0 0 49.805-58.594 84.961-105.469-164.063-49.805-222.656-149.414-222.656-149.414s11.719 8.789 35.156 20.508c0 0 2.93 2.93 2.93 2.93 5.859 2.93 8.789 5.859 11.719 8.789 32.227 17.578 64.453 29.297 96.68 41.016 52.734 23.438 114.258 41.016 187.5 55.664 96.68 17.578 210.938 26.367 333.984 2.93 58.594-11.719 120.117-29.297 184.57-55.664 46.875-17.578 96.68-41.016 149.414-76.172 0 0-64.453 102.539-231.445 149.414 38.086 49.805 84.961 105.469 84.961 105.469 284.18-8.789 389.648-193.359 389.648-193.359 2.93-413.086-181.641-747.070-181.641-747.070zM509.766 972.656c-70.313 0-128.906-64.453-128.906-140.625 0-79.102 58.594-140.625 128.906-140.625 73.242 0 131.836 61.523 131.836 140.625 0 76.172-58.594 140.625-131.836 140.625zM978.516 972.656c-70.313 0-128.906-64.453-128.906-140.625 0-79.102 58.594-140.625 128.906-140.625 73.242 0 131.836 61.523 131.836 140.625 0 76.172-58.594 140.625-131.836 140.625z"></path>
</svg>
