<svg version="1.1" xmlns="http://www.w3.org/2000/svg"   viewBox="0 0 1500 1500">

<path d="M770.508 571.289h-79.102v357.422h79.102c120.117 0 205.078-58.594 205.078-178.711v0c0-117.188-84.961-178.711-205.078-178.711zM776.367 20.508c-398.438 0-720.703 328.125-720.703 729.492 0 108.398 23.438 210.938 64.453 301.758l-120.117 295.898 310.547-41.016c125.977 105.469 287.109 172.852 465.82 172.852 401.367 0 723.633-328.125 723.633-729.492s-322.266-729.492-723.633-729.492zM1168.945 747.070c0 210.938-146.484 363.281-404.297 363.281h-269.531v-720.703h272.461c254.883 0 401.367 146.484 401.367 357.422z"></path>
</svg>
