<svg version="1.1" xmlns="http://www.w3.org/2000/svg"   viewBox="0 0 1500 1500">

<path d="M747.070 5.859c-413.086 0-750 336.914-750 750s336.914 750 750 750c416.016 0 750-336.914 750-750s-333.984-750-750-750zM1245.117 351.563c87.891 108.398 143.555 246.094 143.555 398.438-20.508-5.859-231.445-46.875-445.313-20.508-5.859-11.719-8.789-23.438-14.648-32.227-11.719-32.227-26.367-64.453-41.016-93.75 234.375-96.68 342.773-234.375 357.422-251.953zM747.070 114.258c164.063 0 313.477 61.523 424.805 161.133-8.789 17.578-105.469 146.484-333.984 231.445-105.469-190.43-222.656-348.633-240.234-375 49.805-11.719 99.609-17.578 149.414-17.578zM477.539 175.781c14.648 23.438 128.906 181.641 237.305 372.070-301.758 79.102-565.43 76.172-594.727 76.172 43.945-199.219 175.781-363.281 357.422-448.242zM108.398 755.859c0-5.859 0-11.719 0-20.508 26.367 2.93 336.914 5.859 659.18-90.82 17.578 35.156 35.156 73.242 49.805 108.398-8.789 2.93-14.648 5.859-23.438 8.789-331.055 105.469-506.836 398.438-521.484 421.875-102.539-114.258-164.063-263.672-164.063-427.734zM747.070 1397.461c-146.484 0-284.18-52.734-392.578-134.766 11.719-26.367 140.625-275.391 503.906-401.367 0 0 2.93 0 2.93-2.93 90.82 234.375 128.906 430.664 137.695 486.328-76.172 32.227-161.133 52.734-251.953 52.734zM1107.422 1286.133c-8.789-38.086-41.016-225.586-125.977-457.031 202.148-32.227 377.93 20.508 398.438 29.297-26.367 178.711-128.906 331.055-272.461 427.734z"></path>
</svg>
