<svg version="1.1" xmlns="http://www.w3.org/2000/svg"   viewBox="0 0 1500 1500">

<path d="M1075.195 278.32c0 0 0 0-2.93 0-64.453-41.016-128.906-61.523-193.359-99.609-8.789-2.93-14.648-8.789-23.438-14.648-43.945-29.297-105.469-102.539-158.203-164.063 0 0 0 0 0 0s0 0 0 0c-2.93 32.227-8.789 55.664-14.648 76.172-14.648 43.945-32.227 70.313-55.664 87.891 0 2.93-2.93 2.93-5.859 5.859-73.242 58.594-120.117 76.172-184.57 108.398-2.93 2.93-11.719 8.789-20.508 14.648-38.086 23.438-105.469 70.313-169.922 143.555-79.102 93.75-152.344 228.516-152.344 416.016 0 120.117 32.227 228.516 87.891 322.266 58.594 99.609 143.555 181.641 246.094 237.305 0 2.93 0 2.93 0 2.93 2.93 0 5.859 0 5.859 2.93 2.93 0 2.93 0 5.859 2.93 0 0 2.93 0 5.859 2.93 0 0 2.93 0 5.859 2.93 0 0 0 0 2.93 0 0 2.93 2.93 2.93 5.859 5.859 0 0 0 0 0 0 90.82 43.945 193.359 67.383 295.898 67.383 348.633 0 650.391-251.953 650.391-635.742s-284.18-556.641-331.055-585.938zM1083.984 1365.234c-5.859 5.859-73.242 52.734-149.414 58.594-79.102 8.789-184.57 11.719-249.023-43.945-8.789-11.719-5.859-26.367 0-32.227 8.789-5.859 14.648-8.789 23.438-8.789s5.859 0 11.719 2.93c26.367 23.438 70.313 41.016 164.063 41.016 90.82 0 158.203-26.367 184.57-46.875 14.648-11.719 20.508-2.93 20.508 2.93 2.93 5.859 5.859 14.648-5.859 26.367zM832.031 1233.398c14.648-14.648 41.016-38.086 67.383-49.805 23.438-8.789 38.086-5.859 58.594-5.859 23.438 0 49.805 0 67.383 11.719s26.367 38.086 32.227 52.734c5.859 14.648 0 23.438-11.719 29.297-8.789 5.859-11.719 2.93-20.508-17.578-11.719-17.578-20.508-38.086-70.313-38.086s-67.383 17.578-90.82 38.086c-23.438 20.508-32.227 29.297-41.016 17.578s-5.859-23.438 8.789-38.086zM1215.82 1245.117c-52.734-5.859-158.203-166.992-222.656-169.922-84.961-2.93-266.602 175.781-410.156 175.781-84.961 0-111.328-14.648-140.625-32.227-43.945-32.227-64.453-76.172-64.453-140.625 2.93-111.328 108.398-216.797 240.234-219.727 169.922 0 287.109 166.992 372.070 166.992 70.313-2.93 210.938-143.555 278.32-143.555 73.242 0 90.82 76.172 90.82 120.117s-11.719 125.977-46.875 175.781c-35.156 49.805-58.594 70.313-96.68 67.383z"></path>
</svg>
