<svg version="1.1" xmlns="http://www.w3.org/2000/svg"   viewBox="0 0 1500 1500">

<path d="M1500 802.734v-87.891c-11.719-216.797-108.398-665.039-732.422-665.039-741.211-2.93-770.508 577.148-767.578 726.563 0 0-35.156 673.828 750 673.828 673.828 0 706.055-421.875 706.055-421.875h-310.547c0 0-58.594 234.375-395.508 225.586-430.664-5.859-448.242-424.805-448.242-424.805h1195.313c0 0 2.93-8.789 2.93-26.367zM310.547 624.023c0 0 23.438-377.93 448.242-377.93 427.734 0 427.734 377.93 427.734 377.93z"></path>
</svg>
