<svg version="1.1" xmlns="http://www.w3.org/2000/svg"   viewBox="0 0 1500 1500">

<path d="M750 0c-413.086 0-750 336.914-750 750s336.914 750 750 750c413.086 0 750-336.914 750-750s-336.914-750-750-750zM1186.523 861.328c-52.734 199.219-231.445 339.844-436.523 339.844s-383.789-140.625-436.523-339.844c-5.859-20.508 8.789-43.945 32.227-49.805s46.875 5.859 52.734 29.297c41.016 161.133 184.57 272.461 351.563 272.461s310.547-111.328 351.563-272.461c5.859-23.438 29.297-35.156 52.734-29.297s38.086 29.297 32.227 49.805z"></path>
</svg>
