<svg version="1.1" xmlns="http://www.w3.org/2000/svg"   viewBox="0 0 1500 1500">

<path d="M284.18 483.398c0-29.297-20.508-55.664-49.805-64.453h-184.57c-29.297 8.789-49.805 35.156-49.805 64.453 0 35.156 29.297 64.453 64.453 64.453h155.273c38.086 0 64.453-29.297 64.453-64.453zM1409.18 319.336c-76.172-117.188-210.938-178.711-436.523-178.711-32.227 0-64.453 2.93-93.75 5.859-5.859 0-11.719 0-17.578 0 0 0 0 0-2.93 0 0 0-2.93 0-5.859 2.93-117.188 11.719-184.57 11.719-184.57 11.719h-304.688c-35.156 0-64.453 29.297-64.453 64.453 0 38.086 29.297 64.453 64.453 64.453h275.391c35.156 0 64.453 29.297 64.453 64.453 0 32.227-20.508 55.664-49.805 64.453-2.93 0-8.789 0-14.648 0h-234.375c-26.367 8.789-49.805 35.156-49.805 64.453 0 35.156 29.297 64.453 64.453 64.453h58.594c35.156 0 64.453 29.297 64.453 64.453s-29.297 64.453-64.453 64.453h-295.898c-35.156 0-64.453 29.297-64.453 64.453s29.297 64.453 64.453 64.453h281.25c35.156 0 64.453 29.297 64.453 64.453s-29.297 64.453-64.453 64.453h-32.227c-35.156 0-64.453 29.297-64.453 64.453s29.297 64.453 64.453 64.453h125.977c38.086 0 64.453 29.297 64.453 64.453s-26.367 64.453-64.453 64.453h-26.367c-41.016 0-70.313 32.227-70.313 70.313s29.297 70.313 70.313 70.313h143.555c0 0 87.891 2.93 178.711 11.719 20.508 2.93 41.016 5.859 58.594 8.789 8.789 0 14.648 0 17.578 0 32.227 2.93 61.523 2.93 93.75 2.93 164.063 0 313.477-35.156 392.578-67.383 14.648-5.859 26.367-14.648 26.367-32.227 0-2.93 0-8.789-2.93-8.789l-26.367-102.539c-5.859-17.578-14.648-26.367-29.297-26.367 0 0-5.859 0-11.719 2.93-79.102 23.438-175.781 52.734-316.406 52.734-131.836 0-222.656-20.508-284.18-79.102-52.734-52.734-79.102-114.258-82.031-222.656h770.508c23.438 0 35.156-20.508 35.156-41.016 2.93-32.227 2.93-76.172 2.93-105.469 2.93-169.922-17.578-310.547-87.891-407.227zM1245.117 770.508c-67.383 0-123.047-55.664-123.047-123.047s55.664-120.117 123.047-120.117c55.664 0 102.539 38.086 117.188 87.891-8.789-11.719-23.438-17.578-35.156-17.578-29.297 0-49.805 23.438-49.805 49.805s20.508 49.805 49.805 49.805c14.648 0 26.367-5.859 35.156-17.578-14.648 52.734-61.523 90.82-117.188 90.82z"></path>
</svg>
