<svg version="1.1" xmlns="http://www.w3.org/2000/svg"   viewBox="0 0 1500 1500">

<path d="M164.063 58.594c-2.93-20.508 5.859-35.156 35.156-35.156 26.367 0 310.547 8.789 500.977 8.789 392.578 0 489.258-32.227 556.641-32.227 35.156 2.93 43.945 29.297 43.945 46.875s-17.578 52.734-17.578 99.609c0 46.875 11.719 93.75 11.719 137.695 0 41.016-35.156 52.734-55.664 52.734-17.578 0-29.297-5.859-29.297-41.016-2.93-67.383 46.875-164.063-433.594-164.063-243.164 0-249.023 29.297-249.023 105.469 0 79.102 0 333.984 0 372.070 0 41.016 11.719 52.734 43.945 52.734s281.25 0 348.633 0c67.383 0 137.695-35.156 146.484-131.836 2.93-49.805 14.648-52.734 41.016-52.734s46.875 20.508 43.945 67.383c-5.859 49.805-14.648 99.609-14.648 166.992 0 70.313 14.648 137.695 14.648 187.5s-67.383 61.523-79.102 5.859c-11.719-49.805-32.227-140.625-184.57-140.625s-275.391 0-310.547 0c-35.156 0-49.805 20.508-49.805 76.172s0 328.125 0 395.508c0 70.313 20.508 143.555 158.203 143.555 140.625 0 392.578 14.648 509.766-76.172 46.875-38.086 64.453-96.68 79.102-190.43 8.789-41.016 102.539-41.016 96.68 58.594-2.93 46.875-46.875 143.555-46.875 208.008 0 49.805 11.719 123.047-35.156 123.047-41.016 0-23.438-23.438-205.078-23.438s-805.664 5.859-911.133 5.859c-38.086 0-46.875-11.719-46.875-35.156s14.648-41.016 46.875-41.016c32.227 0 172.852 0 172.852-175.781 0-178.711 0-826.172 0-922.852 0-93.75-20.508-190.43-137.695-202.148-46.875-5.859-43.945-23.438-43.945-49.805z"></path>
</svg>
