<svg version="1.1" xmlns="http://www.w3.org/2000/svg"   viewBox="0 0 1500 1500">

<path d="M940.43 459.961c49.805 263.672-111.328 424.805-310.547 369.141 292.969-480.469-134.766-483.398-2.93-829.102-202.148 143.555-401.367 541.992-401.367 832.031 0 407.227 213.867 665.039 500.977 667.969 278.32 2.93 547.852-263.672 547.852-524.414 0-298.828-161.133-416.016-333.984-515.625zM726.563 1397.461c-284.18 5.859-518.555-298.828-254.883-729.492-55.664 249.023 93.75 436.523 237.305 436.523 161.133 2.93 254.883-149.414 301.758-345.703 257.813 196.289 140.625 629.883-284.18 638.672z"></path>
</svg>
