<svg version="1.1" xmlns="http://www.w3.org/2000/svg"   viewBox="0 0 1500 1500">

<path d="M750 0c-413.086 0-750 336.914-750 750s336.914 750 750 750c413.086 0 750-336.914 750-750s-336.914-750-750-750zM577.148 222.656c82.031 0 146.484 64.453 146.484 146.484 0 84.961-64.453 149.414-146.484 149.414-84.961 0-149.414-64.453-149.414-149.414 0-82.031 64.453-146.484 149.414-146.484zM199.219 750c0-82.031 67.383-149.414 149.414-149.414s146.484 67.383 146.484 149.414c0 82.031-64.453 149.414-146.484 149.414s-149.414-67.383-149.414-149.414zM577.148 1277.344c-84.961 0-149.414-64.453-149.414-146.484 0-84.961 64.453-149.414 149.414-149.414 82.031 0 146.484 64.453 146.484 149.414 0 82.031-64.453 146.484-146.484 146.484zM931.641 826.172h-251.953v-152.344h251.953zM1221.68 1034.18c-52.734 79.102-125.977 140.625-210.938 181.641l-58.594-128.906c128.906-58.594 208.008-187.5 208.008-333.984 0-76.172-20.508-146.484-58.594-208.008-35.156-58.594-87.891-105.469-149.414-134.766l61.523-125.977c84.961 41.016 155.273 105.469 208.008 187.5s79.102 178.711 79.102 281.25c0 99.609-26.367 199.219-79.102 281.25z"></path>
</svg>
