<svg version="1.1" xmlns="http://www.w3.org/2000/svg"   viewBox="0 0 1500 1500">

<path d="M1318.359 196.289c0 0 0 2.93 2.93 2.93-2.93 0-2.93 0-2.93-2.93M480.469 726.563c2.93 2.93 2.93 5.859 5.859 5.859-2.93-2.93-2.93-2.93-5.859-5.859M260.742 266.602c2.93 0 2.93-2.93 5.859-2.93 0 2.93 2.93 2.93 2.93 2.93-2.93 0-5.859 0-8.789 0M125.977 202.148c0 0 0 0 0 0M123.047 208.008c0 2.93 0 0 0-2.93v-2.93 5.859M123.047 202.148c0 0 0 0 0 0s0 0 0 0M41.016 565.43c0 0 0 0 0 0 0 2.93-2.93 2.93-2.93 2.93l2.93-2.93c0-2.93 2.93-5.859 2.93-8.789-2.93 0-2.93 2.93-2.93 8.789M685.547 474.609c2.93 0 5.859-2.93 8.789-5.859 2.93 0 2.93 0 2.93-2.93-2.93 2.93-5.859 5.859-8.789 8.789 0 0-2.93 0-5.859 2.93 2.93 0 2.93-2.93 2.93-2.93M711.914 451.172c0 0 0-2.93 0-5.859s2.93-5.859 2.93-8.789l2.93-5.859c0 0 2.93 0 2.93 0-2.93 2.93-2.93 5.859-2.93 8.789s0 2.93 0 2.93c0 2.93-2.93 5.859-5.859 8.789M720.703 418.945c0 0 0 0 0 2.93 0 0 0 0 0 2.93v-2.93c0-2.93 0-5.859 0-2.93M723.633 424.805c2.93 0 2.93 0 0 0 2.93 0 0 0 0 0v2.93c0-2.93 0-2.93 0-2.93M1426.758 922.852c0 2.93 0 2.93 0 0-2.93 2.93-2.93 5.859-5.859 8.789 2.93-2.93 2.93-5.859 5.859-8.789 43.945-84.961 96.68-249.023 55.664-392.578v-5.859c-2.93-2.93-2.93-5.859-2.93-8.789v-2.93c0 0-2.93-2.93-2.93-2.93 0 2.93-11.719 38.086-26.367 90.82 8.789-79.102 2.93-164.063-26.367-240.234-14.648-38.086-29.297-67.383-46.875-90.82-20.508-35.156-43.945-61.523-61.523-73.242l2.93 2.93c-2.93-2.93-2.93-2.93-2.93-2.93 0 2.93 2.93 8.789 5.859 23.438-38.086-58.594-93.75-87.891-102.539-90.82h-2.93c0 0 2.93 17.578 8.789 52.734-58.594-46.875-131.836-84.961-213.867-108.398 137.695 90.82 187.5 166.992 219.727 237.305-35.156-38.086-99.609-76.172-140.625-82.031 61.523 46.875 166.992 187.5 158.203 398.438-29.297-73.242-67.383-102.539-67.383-102.539s0 2.93 0 2.93l-2.93-2.93c11.719 76.172 11.719 131.836 11.719 172.852 0 0 0 2.93 0 2.93 0 2.93 0 5.859 0 11.719 0 2.93 0 5.859 0 8.789s0 5.859 0 8.789c0 2.93 0 5.859 0 8.789s0 5.859 0 8.789c-5.859 35.156-11.719 58.594-17.578 84.961-8.789-35.156-17.578-52.734-17.578-52.734v2.93c0 0 0-2.93 0-2.93s-2.93 67.383-46.875 161.133c-2.93 8.789-8.789 20.508-14.648 29.297 0 0 0 2.93-2.93 2.93 0 2.93 0 2.93-2.93 5.859l-2.93 5.859c0 0 0 2.93-2.93 2.93 0 2.93 0 2.93-2.93 5.859-17.578 20.508-29.297 32.227-41.016 35.156-2.93 2.93-5.859 2.93-8.789 2.93s-2.93-2.93-5.859-2.93c2.93-8.789 2.93-17.578 0-23.438 0 0-11.719 2.93-20.508 14.648-5.859 5.859-8.789 11.719-14.648 14.648 0 0 8.789-11.719 8.789-11.719-5.859 2.93-11.719 8.789-17.578 14.648-20.508 20.508-38.086 46.875-49.805 38.086 11.719-2.93 17.578-14.648 20.508-26.367-8.789 5.859-29.297 23.438-76.172 29.297-20.508 2.93-99.609 17.578-208.008-35.156 14.648-2.93 38.086-8.789 55.664 2.93-17.578-20.508-61.523-14.648-90.82-26.367-29.297-8.789-64.453-46.875-84.961-64.453 73.242 17.578 149.414 8.789 202.148-17.578 2.93-2.93 5.859-2.93 8.789-5.859 5.859-2.93 8.789-5.859 14.648-8.789 29.297-20.508 73.242-52.734 99.609-55.664 2.93 0 5.859 0 8.789 2.93 26.367 5.859 43.945-20.508 23.438-46.875-20.508-23.438-73.242-55.664-140.625-41.016-55.664 14.648-99.609 58.594-175.781 26.367-5.859 0-8.789-2.93-14.648-5.859-2.93-2.93 14.648 2.93 11.719 0-14.648-5.859-41.016-17.578-49.805-20.508 0-2.93 11.719 0 11.719 0-14.648-8.789-26.367-14.648-35.156-23.438 0 0-2.93 0-2.93-2.93 0 0-2.93-2.93-2.93-2.93-2.93-2.93-5.859-5.859-5.859-5.859v0c0 0-2.93-2.93-2.93-2.93-23.438-29.297-17.578-58.594-11.719-73.242 2.93-14.648 14.648-26.367 20.508-32.227 2.93 0 2.93 0 2.93 0 11.719 2.93 17.578 5.859 17.578 5.859s-5.859-5.859-8.789-8.789c2.93 0 2.93 0 2.93-2.93 8.789 2.93 26.367 11.719 35.156 14.648 14.648 5.859 20.508 14.648 20.508 14.648s2.93-2.93 0-8.789c-2.93-2.93-5.859-11.719-20.508-17.578 8.789 2.93 14.648 5.859 23.438 8.789 2.93-11.719 5.859-23.438 2.93-43.945-2.93-14.648 0-17.578-5.859-23.438-2.93-2.93 2.93-5.859 5.859-2.93 0-2.93-2.93-5.859-2.93-8.789-2.93-5.859-2.93-8.789-8.789-14.648 0-2.93 0-2.93-2.93-2.93l-5.859-8.789c-2.93-2.93-5.859-5.859-5.859-8.789 5.859 11.719 14.648 20.508 17.578 26.367 2.93 2.93 2.93 2.93 5.859 2.93 5.859-8.789 29.297-23.438 55.664-38.086 5.859-2.93 8.789-5.859 11.719-8.789-14.648 8.789-32.227 20.508-43.945 29.297s-20.508 17.578-23.438 23.438c23.438-26.367 111.328-70.313 131.836-90.82 2.93-2.93 5.859-2.93 5.859-5.859 0 0 0 0 0 0 11.719-8.789 17.578-17.578 20.508-29.297 5.859-11.719 11.719-41.016-5.859-49.805-11.719-2.93-23.438-5.859-43.945-5.859h-2.93c-17.578 0-41.016 0-73.242 0-43.945 0-67.383-41.016-76.172-58.594v0 0c14.648-49.805 43.945-93.75 84.961-128.906 2.93 0-11.719 2.93-8.789 0s23.438-14.648 26.367-14.648c2.93-2.93-20.508-8.789-41.016-5.859-20.508 5.859-23.438 5.859-35.156 14.648 0 0-2.93 0-2.93 0 5.859-5.859 20.508-11.719 17.578-11.719-23.438 5.859-49.805 20.508-73.242 38.086 0-2.93 0-5.859 0-8.789-11.719 5.859-35.156 26.367-43.945 41.016 0-2.93 0-5.859 0-8.789-5.859 5.859-14.648 14.648-20.508 23.438-20.508-2.93-41.016-8.789-58.594-8.789-5.859 0-8.789 0-8.789 0-2.93 0-2.93 0-5.859 0s-5.859 0-8.789 0c-2.93 0-5.859 0-8.789 0h-5.859c0 0-2.93 0-5.859 0-23.438 0-43.945 5.859-64.453 11.719-17.578-14.648-41.016-38.086-58.594-64.453 0 0 0 0-2.93 0 0 0 0 0 0 0 0 2.93 0 5.859 0 2.93-11.719-20.508-23.438-55.664-23.438-79.102 0 0 0 0 0 2.93 0 0 0 0 0-2.93 0 0-17.578 11.719-29.297 49.805-2.93 2.93-2.93 5.859-2.93 8.789 0 0 0 2.93 0 5.859 0-5.859 0-8.789 2.93-11.719 0 0 0-2.93 0-2.93 0 2.93 0 2.93 0 5.859 0 0 0 0 0 0v2.93c-2.93 2.93-2.93 5.859-2.93 8.789 0 0 0 0 0-2.93 0 0 0 0 0 2.93 0 0 0-2.93 0-5.859l-2.93 5.859c0 0 0-5.859 0-8.789 0 2.93-2.93 5.859-5.859 8.789 0 0 0 0 2.93-2.93 0-2.93 2.93-5.859 2.93-5.859 0-2.93 0-2.93 0-2.93 0 2.93-8.789 11.719-8.789 20.508-2.93 5.859-2.93 8.789-5.859 14.648 0-2.93 0-2.93 0-2.93v0c0 0 0 0 0 0-5.859 11.719-11.719 29.297-14.648 46.875-5.859 20.508-8.789 43.945-8.789 76.172-2.93 29.297 0 49.805 0 55.664 2.93-2.93 2.93-2.93 2.93-2.93s0 0 0 0-2.93 2.93-2.93 2.93c0 0 0 0 0-2.93-17.578 26.367-29.297 46.875-35.156 58.594-23.438 41.016-43.945 108.398-61.523 210.938v0c0 0 0 0 0 0s0 0 2.93-2.93c0 0 0 2.93-2.93 2.93 0 0 2.93-2.93 5.859-11.719 0-2.93 0-2.93 0-5.859 5.859-14.648 14.648-38.086 29.297-61.523-17.578 55.664-32.227 140.625-23.438 266.602 0 0 0 0 0 0s0 0 0 2.93c0 0 0-2.93 0-5.859 0 0 0 0 0 0s0 2.93 0 2.93c0 0 2.93-8.789 2.93-17.578 0-2.93 0-2.93 0-5.859 2.93-14.648 5.859-32.227 11.719-52.734 2.93 84.961 26.367 187.5 90.82 301.758 49.805 87.891 184.57 290.039 521.484 363.281-2.93 0-2.93 0-5.859 0 2.93 0 2.93 0 5.859 0-14.648-2.93-26.367-8.789-38.086-14.648 0 0 0 0-2.93-2.93-11.719-5.859-17.578-11.719-20.508-14.648 2.93 0 8.789 2.93 20.508 5.859 41.016 11.719 128.906 35.156 199.219 32.227h-2.93c0 0 0 0-2.93 0-5.859 0-11.719-2.93-14.648-5.859-11.719-5.859-14.648-11.719-14.648-11.719s2.93 0 8.789 0c46.875 0 266.602 2.93 389.648-93.75 29.297-23.438 49.805-49.805 55.664-70.313 0 0 0 0-2.93 0 0 0-5.859 2.93-11.719 5.859 5.859-2.93 8.789-5.859 11.719-5.859v-5.859h2.93c0 0 0 2.93-2.93 2.93v2.93c14.648-8.789 29.297-17.578 43.945-26.367 23.438-17.578 52.734-38.086 79.102-64.453 2.93-5.859 8.789-8.789 11.719-14.648v-2.93c0 0 2.93 0 2.93 0 2.93-2.93 2.93-5.859 5.859-8.789h2.93c2.93-2.93 5.859-8.789 8.789-11.719 11.719-14.648 23.438-29.297 29.297-43.945l2.93-2.93c17.578-29.297 29.297-61.523 29.297-99.609 0 8.789-2.93 17.578-5.859 26.367 0 0-2.93 2.93-2.93 2.93 2.93-2.93 2.93-2.93 5.859-5.859-2.93-41.016-5.859-64.453-14.648-84.961"></path>
</svg>
