<svg version="1.1" xmlns="http://www.w3.org/2000/svg"   viewBox="0 0 1500 1500">

<path d="M1303.5 850.5c0-124.5 0-247.5 0-372 0-19.5-4.5-24-24-24-229.5 0-459 0-688.5 0-19.5 0-46.5 9-58.5-4.5-10.5-12-3-37.5-3-57 0-64.5 42-106.5 106.5-106.5 33 0 67.5 0 100.5 0 13.5 0 19.5-3 19.5-18-1.5-73.5-1.5-148.5 0-222 0-16.5-6-19.5-19.5-19.5-61.5 1.5-123 0-184.5 1.5-75 1.5-144 21-207 60-99 63-159 148.5-153 271.5 1.5 25.5 0 51 0 78 0 13.5-4.5 18-18 18-36 0-72 0-108 0-16.5 0-21 6-21 21 1.5 67.5 1.5 133.5 0 201 0 16.5 6 21 22.5 21 34.5-1.5 70.5 0 105 0 15 0 19.5 4.5 19.5 19.5-1.5 169.5-1.5 340.5-1.5 510 0 18-6 21-22.5 21-34.5-1.5-69 0-103.5 0-16.5 0-21 6-21 21 0 70.5 1.5 141 0 210 0 16.5 4.5 21 21 21 196.5 0 391.5 0 588 0 15 0 21-3 21-19.5-1.5-70.5-1.5-141 0-210 0-16.5-6-21-21-21-34.5 1.5-70.5 0-105 0-13.5 0-19.5-4.5-19.5-18 0-172.5 0-345 0-517.5 0-13.5 4.5-16.5 18-16.5 133.5 0 268.5 0 402 0 15 0 18 6 18 19.5 0 171 0 343.5 0 514.5 0 13.5-4.5 19.5-19.5 19.5-34.5-1.5-70.5 0-105 0-15 0-19.5 4.5-18 19.5 0 70.5 0 142.5 0 213 0 15 4.5 18 18 18 198 0 394.5 0 592.5 0 13.5 0 16.5-4.5 16.5-18 0-72 0-144 0-216 0-13.5-3-18-16.5-18-33 0-66 0-99 0-40.5 0-34.5 3-34.5-33 3-123 3-244.5 3-367.5zM970.5 168c0 91.5 73.5 163.5 165 163.5s165-73.5 165-165c1.5-93-72-166.5-165-166.5s-165 73.5-165 168z"></path>
</svg>
