<svg version="1.1" xmlns="http://www.w3.org/2000/svg"   viewBox="0 0 1500 1500">

<path d="M1500 914.063c0 96.68-11.719 193.359-46.875 287.109-61.523 158.203-175.781 249.023-339.844 284.18-49.805 11.719-99.609 14.648-149.414 14.648-281.25 0-562.5 0-843.75 0-2.93 0-8.789 0-11.719 0 0 0 0-2.93 0-2.93 52.734-52.734 105.469-105.469 158.203-158.203 146.484-146.484 292.969-292.969 436.523-436.523 2.93-2.93 2.93-5.859 5.859-5.859 8.789-8.789 14.648-14.648 26.367-8.789s14.648 14.648 14.648 26.367c0 73.242 0 149.414 0 222.656 0 5.859 0 11.719 0 14.648s5.859 2.93 5.859 2.93c64.453 0 128.906 0 190.43-2.93 23.438-2.93 49.805-8.789 70.313-17.578 70.313-23.438 108.398-76.172 120.117-146.484 8.789-38.086 11.719-76.172 11.719-117.188 2.93-131.836 2.93-266.602 2.93-401.367 0-8.789 0-14.648 8.789-20.508 108.398-111.328 216.797-219.727 328.125-328.125 2.93-2.93 2.93-8.789 5.859-11.719 2.93 0 5.859 0 5.859 2.93s0 8.789 0 11.719c0 263.672 0 527.344 0 791.016zM348.633 1031.25c0-131.836 0-263.672 2.93-392.578 0-41.016 2.93-82.031 8.789-123.047 14.648-76.172 55.664-128.906 131.836-152.344 14.648-5.859 32.227-11.719 46.875-11.719 70.313-2.93 137.695-2.93 208.008-5.859 0 0 2.93 2.93 2.93 2.93 0 2.93 0 8.789 0 11.719 0 73.242 0 146.484 0 219.727 0 5.859-2.93 8.789 0 11.719 2.93 8.789 8.789 14.648 14.648 20.508s14.648 0 23.438-5.859c2.93-2.93 5.859-5.859 8.789-8.789 196.289-196.289 389.648-389.648 585.938-585.938 2.93-2.93 5.859-11.719 11.719-11.719-8.789 0-11.719 0-14.648 0-281.25 0-562.5 0-843.75 0-49.805 0-99.609 2.93-146.484 14.648-169.922 35.156-287.109 131.836-345.703 295.898-32.227 90.82-43.945 184.57-43.945 278.32 0 263.672 0 527.344 0 788.086 0 5.859 0 8.789 0 14.648 5.859-2.93 8.789-5.859 11.719-8.789 108.398-111.328 219.727-219.727 328.125-331.055 5.859-5.859 8.789-11.719 8.789-20.508z"></path>
</svg>
