<svg version="1.1" xmlns="http://www.w3.org/2000/svg"   viewBox="0 0 1500 1500">

<path d="M1154.297 0c0 0-688.477 0-799.805 0-108.398 0-140.625 82.031-140.625 134.766s0 1271.484 0 1271.484c0 58.594 29.297 82.031 46.875 87.891 20.508 8.789 67.383 14.648 96.68-20.508 0 0 377.93-439.453 383.789-445.313 11.719-8.789 11.719-8.789 20.508-8.789 20.508 0 166.992 0 246.094 0 102.539 0 117.188-73.242 128.906-117.188 8.789-35.156 108.398-547.852 143.555-711.914 23.438-123.047-5.859-190.43-125.977-190.43zM1136.719 902.344c8.789-35.156 108.398-547.852 143.555-711.914zM1107.422 216.797l-32.227 175.781c-5.859 17.578-29.297 38.086-49.805 38.086-23.438 0-313.477 0-313.477 0-35.156 0-58.594 23.438-58.594 58.594v38.086c0 35.156 23.438 58.594 58.594 58.594 0 0 240.234 0 266.602 0 23.438 0 46.875 29.297 43.945 55.664-5.859 26.367-32.227 158.203-35.156 172.852-2.93 11.719-17.578 38.086-49.805 38.086-23.438 0-213.867 0-213.867 0-41.016 0-52.734 5.859-79.102 38.086s-260.742 316.406-260.742 316.406c-2.93 2.93-5.859 2.93-5.859 0v-993.164c0-23.438 20.508-49.805 49.805-49.805 0 0 615.234 0 641.602 0 23.438 0 43.945 23.438 38.086 52.734z"></path>
</svg>
