<svg version="1.1" xmlns="http://www.w3.org/2000/svg"   viewBox="0 0 1500 1500">

<path d="M1188 1191c-12-16.5-28.5-28.5-45-39-4.5-1.5-4.5-3-1.5-7.5 16.5-16.5 31.5-33 45-51 39-49.5 69-103.5 88.5-163.5 1.5-4.5 3-6 7.5-3 10.5 6 21 12 33 16.5 18 6 34.5 10.5 54 6 31.5-6 54-24 69-51 10.5-18 15-37.5 12-58.5-4.5-30-21-52.5-43.5-72-16.5-13.5-34.5-21-57-19.5-12 1.5-25.5 3-37.5 6-7.5 4.5-7.5 4.5-7.5-4.5 0-28.5-3-58.5-7.5-87-9-54-25.5-106.5-49.5-156-3-4.5-1.5-6 3-7.5 13.5-4.5 25.5-10.5 39-16.5 18-10.5 33-22.5 43.5-42 10.5-22.5 12-46.5 6-70.5-6-22.5-16.5-42-37.5-54-13.5-9-28.5-13.5-43.5-16.5-25.5-6-49.5-1.5-72 15-15 12-27 25.5-37.5 42-3 3-3 4.5-7.5 1.5-9-9-18-16.5-27-25.5-22.5-21-48-39-73.5-55.5-36-22.5-73.5-42-114-55.5-4.5-1.5-4.5-3-3-6 4.5-7.5 9-15 12-24 7.5-18 12-37.5 9-57-6-30-21-52.5-46.5-69-18-12-37.5-16.5-58.5-15-18 1.5-34.5 7.5-51 18-21 13.5-36 31.5-42 57-4.5 19.5-4.5 40.5 0 60 1.5 4.5 0 6-4.5 6-18 0-36 1.5-54 3-39 3-76.5 12-114 24-25.5 7.5-51 18-76.5 30-4.5 1.5-6 1.5-7.5-3-1.5-9-4.5-16.5-9-24-9-21-21-39-40.5-49.5-27-15-57-18-85.5-7.5-33 10.5-52.5 36-63 69-9 31.5-4.5 60 16.5 85.5 10.5 13.5 22.5 24 37.5 33 4.5 3 4.5 4.5 1.5 7.5-7.5 6-13.5 13.5-19.5 21-31.5 34.5-57 72-79.5 114-13.5 25.5-25.5 52.5-34.5 79.5-1.5 4.5-4.5 6-7.5 3-4.5-3-10.5-6-16.5-7.5-15-6-31.5-12-48-12-42-1.5-84 30-94.5 72-9 31.5-3 60 16.5 87 15 22.5 36 34.5 63 39 16.5 3 33 1.5 49.5-1.5 4.5-1.5 6 0 7.5 4.5 3 22.5 6 45 9 66 6 42 15 82.5 30 121.5 7.5 18 13.5 37.5 19.5 57 1.5 4.5 0 6-4.5 7.5-3 0-7.5 1.5-10.5 3-24 7.5-45 19.5-60 42-12 18-15 37.5-15 63 0 24 7.5 46.5 28.5 64.5 16.5 15 37.5 22.5 60 27s43.5 0 61.5-12c16.5-12 30-27 42-43.5 4.5-7.5 4.5-7.5 10.5-1.5 15 15 33 28.5 49.5 42 30 22.5 61.5 42 96 60 22.5 10.5 43.5 21 67.5 28.5 4.5 1.5 6 3 3 7.5s-6 10.5-9 16.5c-7.5 16.5-13.5 34.5-13.5 52.5 0 37.5 18 64.5 48 84 19.5 12 40.5 16.5 61.5 13.5 19.5-3 36-10.5 51-21 12-9 21-19.5 27-33 7.5-18 9-37.5 9-57 0-9-1.5-18-3-28.5 0-3 1.5-4.5 4.5-4.5 13.5-1.5 28.5-3 42-4.5 46.5-4.5 93-13.5 138-30 22.5-7.5 45-15 66-22.5 4.5-1.5 6-1.5 6 3 0 3 1.5 6 1.5 9 6 24 18 45 37.5 60 21 16.5 45 19.5 69 21 18 1.5 34.5-6 49.5-16.5 24-16.5 37.5-40.5 43.5-69 9-28.5 4.5-51-12-73.5zM745.5 1188c-231 0-439.5-196.5-436.5-438-3-238.5 196.5-441 438-439.5 240 1.5 439.5 199.5 438 438-1.5 243-196.5 439.5-439.5 439.5zM1311 1026c-40.5-1.5-75 33-76.5 73.5 0 43.5 36 78 75 76.5 40.5 0 75-33 76.5-73.5 0-42-33-76.5-75-76.5zM397.5 1237.5c-39-1.5-75 30-75 75s36 75 73.5 75c42 0 76.5-31.5 76.5-76.5 1.5-42-33-73.5-75-73.5zM1098 267c40.5 0 75-34.5 75-75s-34.5-75-75-75c-40.5 0-75 31.5-75 75-1.5 40.5 33 75 75 75zM595.5 183c39 0 76.5-33 75-73.5 0-43.5-31.5-76.5-73.5-76.5s-76.5 33-76.5 75c0 42 33 73.5 75 75zM1317 600c0 42 30 76.5 75 78 40.5 0 75-34.5 75-75 0-43.5-36-75-75-73.5-39-4.5-75 28.5-75 70.5zM181.5 904.5c0-43.5-31.5-75-75-75-42 0-75 33-75 75s33 75 73.5 75c42 0 76.5-34.5 76.5-75zM900 1318.5c-42 0-76.5 34.5-75 75-1.5 39 31.5 76.5 75 75 40.5 0 75-34.5 75-75s-34.5-75-75-75zM189 477c42 0 75-33 75-75 1.5-37.5-30-75-73.5-75-45 0-76.5 36-76.5 75 0 40.5 34.5 75 75 75zM1449 1150.5c-27 0-51 22.5-51 51 0 27 24 51 51 51 28.5 0 51-22.5 51-51s-24-51-51-51zM145.5 216c0 36 22.5 55.5 49.5 55.5 28.5 0 49.5-22.5 51-51 0-27-22.5-51-51-51-25.5 1.5-49.5 22.5-49.5 46.5zM1074 1371c-28.5 0-52.5 22.5-51 49.5 0 25.5 21 49.5 52.5 51 25.5 0 48-22.5 48-49.5-1.5-27-22.5-51-49.5-51zM1353 1281c0-28.5-21-48-49.5-48-27-1.5-51 22.5-51 48 0 27 24 52.5 48 51 28.5 0 54-21 52.5-51zM100.5 306c0-27-24-52.5-49.5-52.5-27 0-49.5 22.5-49.5 49.5s22.5 51 49.5 51c25.5 0 49.5-22.5 49.5-48zM1230 1372.5c-30 0-51 22.5-51 48 0 28.5 22.5 52.5 49.5 52.5s51-22.5 51-49.5c0-27-22.5-51-49.5-51zM1474.5 1018.5c0-27-21-49.5-48-49.5-28.5 0-51 22.5-51 51s21 49.5 49.5 49.5c28.5-1.5 49.5-24 49.5-51zM67.5 537c27 0 49.5-25.5 49.5-52.5 0-25.5-24-48-48-48-28.5 0-51 22.5-51 48 0 28.5 22.5 52.5 49.5 52.5zM420 126c28.5 0 51-21 51-48s-22.5-49.5-49.5-49.5c-27 0-49.5 21-49.5 46.5 0 30 21 51 48 51zM268.5 132c27 0 48-21 48-49.5 0-27-21-49.5-49.5-49.5-27 0-51 22.5-49.5 49.5s24 49.5 51 49.5zM1447.5 1396.5c-13.5 0-25.5 12-25.5 25.5s12 25.5 27 25.5c13.5 0 24-10.5 24-25.5-1.5-15-12-25.5-25.5-25.5zM1450.5 1357.5c12 0 22.5-12 22.5-25.5 0-15-10.5-25.5-24-25.5s-25.5 10.5-25.5 24c-1.5 13.5 12 27 27 27zM1353 1398c-13.5 0-25.5 12-25.5 25.5s13.5 25.5 28.5 25.5c12 0 22.5-12 22.5-25.5 0-15-12-25.5-25.5-25.5zM49.5 198c13.5 0 24-10.5 24-24 0-12-10.5-25.5-24-24-13.5 0-25.5 10.5-25.5 24 1.5 12 12 24 25.5 24zM49.5 106.5c13.5 0 24-10.5 24-24s-10.5-24-24-24c-13.5 0-25.5 12-25.5 24 1.5 13.5 12 24 25.5 24zM145.5 106.5c13.5 0 24-10.5 24-24s-10.5-24-24-24c-12 0-24 12-24 24 0 13.5 10.5 24 24 24z"></path>
</svg>
