<svg version="1.1" xmlns="http://www.w3.org/2000/svg"   viewBox="0 0 1500 1500">

<path d="M308.789 1411.816h88.184v88.184h-88.184v-88.184zM397.119 0v176.514h-88.184v176.514h-88.184v176.514h-88.33v176.514h-88.33v176.514h529.395v176.514h-88.184v176.514h-88.184v176.514h88.184v-88.184h88.184v-88.184h88.184v-88.184h88.33v-88.184h88.184v-88.184h88.184v-88.184h88.184v-88.184h88.184v-88.184h88.184v-88.184h88.184v-88.184h88.184v-88.184h-264.404v-88.184h88.184v-88.184h88.184v-88.184h88.184v-89.355h88.184v-88.184h-1058.496zM1014.697 705.908h-88.184v-88.184h88.184v88.184zM1102.881 264.697h-88.184v88.184h-88.184v88.184h-88.184v88.184h-88.33v88.184h88.184v88.184h-88.184v-88.184h-88.184v88.184h-88.184v-88.184h-88.184v88.184h-88.184v-88.184h-88.184v-88.184h88.184v-176.367h88.184v-176.367h617.578v88.184zM397.119 529.395h88.184v88.184h-88.184v-88.184zM573.486 529.395h88.184v88.184h-88.184v-88.184z"></path>
</svg>
