<svg version="1.1" xmlns="http://www.w3.org/2000/svg"   viewBox="0 0 1500 1500">

<path d="M383.925 0c-224.76 0-343.44 133.86-343.44 368.714v762.615c0 234.839 116.175 366.166 343.44 368.67 224.745 0 343.44-133.83 343.44-368.67v-414.149c0-30.315-22.74-53.055-53.041-53.055h-217.2c-27.75 0-50.476 22.74-58.050 55.56v103.575c0 30.315 22.74 52.98 52.98 52.98 30.315 0 53.041 22.726 53.041 53.041v217.185c0 106.020-45.464 143.925-118.666 143.925-73.214 0-118.68-40.38-118.68-143.925v-790.38c0-106.096 47.971-121.245 121.245-121.245 73.214 0 118.666 17.7 118.666 121.245v103.515c0 30.315 22.74 53.041 52.98 53.041h113.67c30.315 0 53.041-22.74 53.041-53.041v-90.899c0.015-234.87-116.161-368.7-343.425-368.7zM1381.23 11.76h-469.68c-32.865 0-58.125 27.779-58.125 60.601v1325.774c0 42.945 35.385 78.286 78.286 78.286h70.726c42.945 0 78.286-35.325 78.286-78.286v-446.955c0-42.976 35.355-78.286 78.286-78.286h136.38c42.916 0 78.286-35.385 78.286-78.36v-50.476c0-42.899-35.355-78.286-78.286-78.286h-136.38c-45.404 0-80.805-37.89-75.735-85.86v-282.795c0-42.93 35.385-78.286 78.286-78.286h219.69c42.885 0 78.286-35.355 78.286-78.286v-50.505c-0.015-42.93-35.416-78.286-78.3-78.286z"></path>
</svg>
