<svg version="1.1" xmlns="http://www.w3.org/2000/svg"   viewBox="0 0 1500 1500">

<path d="M75 1200h451.5c39 0 70.5 31.5 70.5 70.5v159c0 39-31.5 70.5-70.5 70.5h-451.5c-39 0-70.5-31.5-70.5-70.5v-159c0-39 31.5-70.5 70.5-70.5zM966 1200h451.5c39 0 70.5 31.5 70.5 70.5v159c0 39-31.5 70.5-70.5 70.5h-451.5c-39 0-70.5-31.5-70.5-70.5v-159c0-39 31.5-70.5 70.5-70.5zM75 600h1342.5c39 0 70.5 31.5 70.5 70.5v159c0 39-31.5 70.5-70.5 70.5h-1342.5c-39 0-70.5-31.5-70.5-70.5v-159c0-39 31.5-70.5 70.5-70.5zM75 0h750c39 0 70.5 31.5 70.5 70.5v159c0 39-31.5 70.5-70.5 70.5h-750c-39 0-70.5-31.5-70.5-70.5v-159c0-39 31.5-70.5 70.5-70.5zM1261.5 0h156c39 0 70.5 31.5 70.5 70.5v159c0 39-31.5 70.5-70.5 70.5h-156c-39 0-70.5-31.5-70.5-70.5v-159c0-39 31.5-70.5 70.5-70.5z"></path>
</svg>
