<svg version="1.1" xmlns="http://www.w3.org/2000/svg"   viewBox="0 0 1500 1500">

<path d="M1417.969 521.484c0-105.469-35.156-193.359-99.609-260.742 11.719-23.438 43.945-123.047-8.789-257.813 0 0-82.031-26.367-266.602 99.609-79.102-20.508-161.133-32.227-246.094-32.227-82.031 0-164.063 11.719-243.164 32.227-187.5-125.977-266.602-99.609-266.602-99.609-55.664 134.766-20.508 234.375-11.719 257.813-61.523 67.383-99.609 155.273-99.609 260.742 0 375 228.516 457.031 445.313 483.398-29.297 23.438-55.664 67.383-64.453 128.906-55.664 26.367-196.289 67.383-281.25-82.031 0 0-52.734-90.82-149.414-99.609 0 0-96.68 0-8.789 58.594 0 0 64.453 32.227 108.398 143.555 0 0 58.594 172.852 328.125 114.258 2.93 82.031 2.93 208.008 2.93 231.445h483.398c0-32.227 0-187.5 0-316.406 0-90.82-29.297-149.414-64.453-181.641 216.797-23.438 442.383-105.469 442.383-480.469zM193.359 999.023c-2.93 2.93-11.719 5.859-17.578 2.93s-11.719-11.719-8.789-14.648c2.93-5.859 8.789-8.789 17.578-2.93 5.859 2.93 8.789 8.789 8.789 14.648zM231.445 1042.969c-2.93 2.93-14.648 0-20.508-5.859s-5.859-14.648-2.93-20.508c5.859-2.93 14.648-2.93 20.508 5.859 5.859 5.859 8.789 14.648 2.93 20.508zM269.531 1098.633c-5.859 2.93-14.648 0-20.508-8.789s-5.859-20.508 0-23.438c5.859-2.93 14.648 0 20.508 8.789s5.859 17.578 0 23.438zM322.266 1151.367c-5.859 5.859-17.578 5.859-23.438-2.93-8.789-8.789-11.719-17.578-5.859-23.438 5.859-8.789 17.578-5.859 23.438 2.93 8.789 5.859 11.719 17.578 5.859 23.438zM395.508 1183.594c-2.93 8.789-14.648 11.719-23.438 8.789-11.719-2.93-20.508-11.719-17.578-20.508s14.648-11.719 26.367-8.789c8.789 2.93 17.578 11.719 14.648 20.508zM454.102 1204.102c-11.719 0-20.508-5.859-20.508-14.648s8.789-14.648 20.508-14.648c11.719 0 20.508 5.859 20.508 14.648s-8.789 14.648-20.508 14.648zM530.273 1195.313c-11.719 2.93-20.508-2.93-23.438-11.719 0-5.859 8.789-14.648 20.508-17.578s20.508 2.93 23.438 11.719c0 5.859-8.789 14.648-20.508 17.578z"></path>
</svg>
