<svg version="1.1" xmlns="http://www.w3.org/2000/svg"   viewBox="0 0 1500 1500">

<path d="M1081.055 29.297v149.414c-76.172-111.328-202.148-175.781-342.773-175.781-281.25 0-468.75 213.867-468.75 536.133 0 140.625 38.086 266.602 108.398 360.352 79.102 108.398 196.289 166.992 342.773 166.992s284.18-64.453 360.352-169.922v155.273c0 228.516-105.469 333.984-339.844 333.984-196.289 0-295.898-82.031-304.688-240.234v-35.156h-105.469l2.93 32.227c5.859 225.586 155.273 357.422 413.086 357.422 292.969 0 454.102-158.203 454.102-448.242v-1022.461h-120.117zM1107.422 539.063c0 208.008-114.258 416.016-369.141 416.016-210.938 0-348.633-164.063-348.633-416.016 0-196.289 93.75-424.805 363.281-424.805 93.75 0 172.852 32.227 234.375 93.75 79.102 79.102 123.047 199.219 120.117 331.055z"></path>
</svg>
