<svg version="1.1" xmlns="http://www.w3.org/2000/svg"   viewBox="0 0 1500 1500">

<path d="M1341.797 166.992c14.648 0 23.438 5.859 23.438 11.719 2.93 8.789 2.93 17.578 2.93 29.297v503.906c0 11.719-5.859 20.508-11.719 29.297-8.789 8.789-17.578 11.719-29.297 11.719h-17.578c-11.719 0-20.508-5.859-29.297-11.719-8.789-8.789-11.719-17.578-11.719-29.297v-503.906c0-11.719 0-20.508 0-29.297 2.93-5.859 8.789-11.719 23.438-11.719v-67.383l-219.727 181.641c2.93 2.93 2.93 5.859 5.859 5.859 0 2.93 2.93 2.93 2.93 5.859 8.789 17.578 17.578 38.086 23.438 58.594 2.93 20.508 5.859 46.875 5.859 73.242 0 20.508 0 38.086-2.93 55.664s-8.789 38.086-14.648 52.734c-8.789 14.648-14.648 29.297-23.438 43.945-8.789 11.719-17.578 23.438-26.367 32.227-8.789 11.719-20.508 20.508-29.297 29.297s-20.508 17.578-29.297 26.367c-8.789 8.789-17.578 17.578-26.367 26.367s-14.648 17.578-23.438 26.367c-5.859 8.789-11.719 17.578-14.648 26.367-2.93 11.719-2.93 20.508-2.93 29.297 0 11.719 0 20.508 5.859 29.297 2.93 8.789 8.789 20.508 20.508 29.297 8.789 8.789 17.578 20.508 29.297 29.297 8.789 8.789 20.508 20.508 35.156 29.297 11.719 8.789 26.367 17.578 38.086 29.297 11.719 8.789 26.367 20.508 38.086 32.227s23.438 23.438 35.156 38.086c11.719 17.578 20.508 32.227 29.297 49.805s14.648 38.086 17.578 55.664c5.859 20.508 8.789 41.016 8.789 61.523 0 29.297-2.93 55.664-11.719 82.031-5.859 26.367-17.578 49.805-32.227 70.313-14.648 23.438-32.227 43.945-49.805 61.523-20.508 20.508-41.016 35.156-61.523 49.805-26.367 11.719-49.805 26.367-73.242 35.156-26.367 8.789-49.805 17.578-79.102 23.438-23.438 5.859-49.805 11.719-79.102 14.648-26.367 2.93-52.734 5.859-79.102 5.859-14.648 0-32.227 0-49.805-2.93-14.648 0-32.227-2.93-49.805-5.859-14.648-2.93-32.227-5.859-49.805-8.789-17.578-5.859-35.156-11.719-49.805-17.578-17.578-5.859-35.156-11.719-49.805-20.508s-29.297-17.578-41.016-29.297c-14.648-8.789-26.367-20.508-35.156-32.227-11.719-11.719-20.508-26.367-29.297-41.016s-14.648-32.227-20.508-49.805c-2.93-14.648-5.859-32.227-5.859-52.734 0-23.438 2.93-43.945 8.789-64.453s14.648-41.016 29.297-61.523c11.719-17.578 26.367-35.156 43.945-52.734 14.648-14.648 35.156-29.297 55.664-41.016 17.578-11.719 38.086-20.508 61.523-32.227 20.508-8.789 46.875-14.648 76.172-23.438 29.297-5.859 58.594-11.719 90.82-14.648 32.227-5.859 70.313-8.789 108.398-11.719-17.578-23.438-29.297-43.945-38.086-64.453s-14.648-41.016-14.648-58.594c0-11.719 2.93-23.438 5.859-35.156s5.859-23.438 11.719-38.086c-8.789 0-17.578 2.93-29.297 2.93-8.789 0-17.578 0-26.367 0-43.945 0-79.102-5.859-114.258-17.578-35.156-14.648-67.383-32.227-93.75-61.523-29.297-26.367-49.805-58.594-64.453-90.82s-20.508-70.313-20.508-111.328c0-2.93 0-8.789 0-11.719 0-5.859 0-8.789 0-11.719h-339.844l506.836-439.453h834.961l-76.172 58.594v108.398zM922.852 1037.109c0-2.93-5.859-5.859-11.719-8.789-5.859-5.859-11.719-8.789-20.508-17.578-8.789-5.859-17.578-11.719-23.438-17.578-2.93-2.93-5.859-5.859-8.789-5.859s-8.789 0-14.648 0c-5.859 0-14.648-2.93-23.438-2.93-20.508 0-38.086 2.93-55.664 2.93-20.508 2.93-38.086 5.859-55.664 8.789s-38.086 8.789-55.664 14.648c-17.578 5.859-35.156 11.719-52.734 17.578-17.578 8.789-32.227 17.578-49.805 29.297-11.719 11.719-26.367 23.438-35.156 38.086-11.719 14.648-20.508 32.227-26.367 49.805s-8.789 35.156-8.789 55.664c0 20.508 2.93 38.086 8.789 55.664 2.93 14.648 11.719 32.227 23.438 46.875 8.789 14.648 20.508 29.297 32.227 38.086 14.648 11.719 29.297 23.438 43.945 29.297 14.648 8.789 29.297 17.578 46.875 23.438s32.227 11.719 49.805 14.648c20.508 5.859 38.086 8.789 52.734 8.789 20.508 2.93 38.086 2.93 52.734 2.93 38.086 0 70.313-2.93 99.609-11.719 32.227-5.859 58.594-17.578 84.961-35.156s43.945-35.156 55.664-61.523c14.648-26.367 20.508-52.734 20.508-87.891 0-5.859 0-11.719-2.93-20.508 0-5.859 0-11.719-2.93-20.508s-5.859-14.648-5.859-20.508c-2.93-5.859-5.859-11.719-5.859-14.648-2.93-5.859-5.859-11.719-8.789-17.578s-8.789-11.719-14.648-17.578c-5.859-8.789-8.789-11.719-14.648-17.578s-8.789-8.789-11.719-11.719c-2.93-2.93-5.859-5.859-11.719-11.719-2.93-5.859-11.719-11.719-17.578-17.578-8.789-8.789-14.648-11.719-20.508-17.578-5.859 2.93-8.789 0-11.719 0zM911.133 641.602c11.719-14.648 23.438-35.156 32.227-58.594s11.719-46.875 11.719-70.313c0-23.438-2.93-46.875-5.859-70.313-5.859-23.438-8.789-46.875-17.578-73.242-8.789-23.438-17.578-46.875-32.227-70.313-11.719-20.508-26.367-41.016-43.945-61.523s-38.086-35.156-58.594-43.945c-17.578-11.719-41.016-14.648-64.453-14.648-26.367 0-49.805 2.93-70.313 14.648-17.578 8.789-35.156 23.438-49.805 41.016-14.648 20.508-23.438 38.086-32.227 61.523-5.859 23.438-8.789 49.805-8.789 76.172 0 23.438 0 46.875 5.859 70.313 2.93 20.508 8.789 43.945 14.648 70.313 8.789 23.438 17.578 43.945 32.227 67.383 11.719 20.508 26.367 38.086 43.945 58.594 17.578 17.578 38.086 32.227 58.594 41.016s41.016 14.648 64.453 14.648c26.367 0 49.805-5.859 70.313-14.648 17.578-5.859 35.156-20.508 49.805-38.086z"></path>
</svg>
