<svg version="1.1" xmlns="http://www.w3.org/2000/svg"   viewBox="0 0 1500 1500">

<path d="M1125 750c0-123.047 0-251.953 0-375v2.93c-120.117-123.047-243.164-246.094-363.281-366.211-2.93-2.93-5.859-8.789-11.719-8.789 0 123.047 0 249.023 0 372.070 0 52.734 0 105.469 0 161.133 20.508 49.805 41.016 102.539 61.523 152.344 49.805 20.508 102.539 41.016 152.344 61.523-43.945 17.578-84.961 35.156-125.977 49.805-8.789 5.859-17.578 5.859-29.297 14.648-17.578 49.805-38.086 99.609-58.594 149.414-20.508-49.805-41.016-102.539-61.523-152.344-49.805-20.508-102.539-41.016-152.344-61.523 43.945-20.508 87.891-35.156 131.836-52.734 5.859-2.93 14.648-5.859 23.438-11.719 17.578-49.805 38.086-99.609 61.523-149.414v-161.133c-125.977 0-251.953 0-375 0v2.93c-20.508 17.578-41.016 41.016-61.523 61.523-108.398 102.539-213.867 205.078-316.406 310.547 123.047 2.93 251.953 0 375 0 0 123.047 0 249.023 0 372.070 120.117 123.047 240.234 243.164 360.352 363.281 2.93 2.93 8.789 8.789 14.648 11.719 2.93-35.156 0-76.172 0-114.258 0-84.961 0-172.852 0-257.813 123.047 0 251.953 0 375 0 43.945-43.945 87.891-87.891 134.766-134.766 79.102-79.102 161.133-158.203 240.234-240.234-123.047 0-249.023 0-375 0z"></path>
</svg>
