<svg version="1.1" xmlns="http://www.w3.org/2000/svg"   viewBox="0 0 1500 1500">

<path d="M1482.422 700.195c-2.93-29.297-5.859-61.523-11.719-90.82-234.375 0-471.68 0-706.055 0 0 96.68 0 196.289 0 292.969 0 0 0 0 0 0s0 0 0 0c137.695 0 272.461 0 410.156 0-17.578 93.75-73.242 178.711-152.344 231.445 0 0 0 0 0 0-49.805 32.227-105.469 55.664-164.063 64.453-58.594 11.719-120.117 11.719-178.711 0-61.523-11.719-117.188-38.086-166.992-73.242-73.242-49.805-131.836-125.977-164.063-208.008-2.93-5.859-5.859-14.648-8.789-20.508 0 0 0 0 0 0s0 0 2.93 0c-32.227-93.75-32.227-199.219-2.93-292.969 23.438-64.453 61.523-125.977 111.328-175.781 58.594-61.523 137.695-105.469 222.656-125.977 73.242-14.648 149.414-11.719 219.727 8.789 61.523 20.508 117.188 52.734 161.133 96.68 46.875-46.875 93.75-90.82 137.695-137.695 26.367-23.438 49.805-49.805 73.242-73.242 0 0 0 0 0 0s0 0 0 0c-70.313-67.383-152.344-117.188-240.234-149.414-161.133-61.523-342.773-61.523-503.906-5.859-184.57 61.523-339.844 199.219-427.734 372.070-29.297 58.594-49.805 123.047-64.453 187.5-32.227 164.063-8.789 336.914 64.453 486.328 49.805 96.68 120.117 181.641 205.078 249.023 79.102 64.453 172.852 111.328 272.461 137.695 125.977 35.156 257.813 35.156 383.789 5.859 114.258-26.367 219.727-82.031 307.617-161.133 90.82-82.031 155.273-193.359 190.43-310.547 26.367-99.609 38.086-202.148 29.297-307.617z"></path>
</svg>
