<svg version="1.1" xmlns="http://www.w3.org/2000/svg"   viewBox="0 0 1500 1500">

<path d="M1110 1071l-97.5-97.5c-84-84-358.5-378-358.5-654 0-43.5 6-85.5 18-126h-441c-88.5 0-159 70.5-159 159v990c0 88.5 70.5 159 159 159h990c88.5 0 159-70.5 159-159v-568.5c-48 63-105 129-172.5 198l-97.5 99zM492 1362c-156 0-282-124.5-282-280.5s126-282 282-282c73.5 0 138 28.5 187.5 73.5l-79.5 79.5c-30-25.5-67.5-40.5-109.5-40.5-93 0-169.5 76.5-169.5 169.5s76.5 169.5 169.5 169.5c78 0 132-46.5 151.5-112.5h-150v-108h264c22.5 111-18 331.5-264 331.5zM1428 318c0-175.5-142.5-318-319.5-318s-318 142.5-318 318 166.5 406.5 318 556.5c181.5-183 319.5-379.5 319.5-556.5zM975 303c0-73.5 60-133.5 133.5-133.5s133.5 60 133.5 133.5c0 73.5-60 133.5-133.5 133.5s-133.5-60-133.5-133.5z"></path>
</svg>
