<svg version="1.1" xmlns="http://www.w3.org/2000/svg"   viewBox="0 0 1500 1500">

<path d="M1267.5 376.5c42 0 85.5 0 127.5 0 10.5-76.5 21-153 30-229.5 0-4.5 0-9 0-13.5-1.5-18-15-33-31.5-37.5 0-16.5 0-31.5 0-48 0-7.5-1.5-15-4.5-21-6-16.5-24-27-42-27-165 0-330 0-495 0-7.5 0-16.5 0-24 3-16.5 7.5-28.5 24-28.5 43.5 0 16.5 0 33 0 49.5-15 6-27 18-30 34.5-1.5 7.5-1.5 15 0 21 10.5 75 21 150 30 223.5 58.5 0 117 0 177 0 0-6 0-10.5 0-16.5v0c18 0 36 1.5 52.5-6 13.5-6 24-19.5 25.5-33s0-30-7.5-40.5c-6-9-18-15-28.5-16.5-15-1.5-31.5 0-43.5 9s-19.5 24-18 39c-12 0-22.5 0-34.5 0 0-6 0-12 3-18 4.5-16.5 13.5-30 27-39 15-10.5 33-16.5 51-18 18 0 37.5 3 52.5 12 12 7.5 22.5 19.5 28.5 33s7.5 28.5 6 43.5c-3 22.5-21 42-42 51 3 1.5 6 1.5 9 3s4.5 0 7.5 0c49.5 0 99 0 148.5 0-4.5 0-10.5 0-15 0-42 0-82.5 0-124.5 0-4.5 0-7.5 0-12 0 9 4.5 16.5 10.5 22.5 18 10.5 13.5 15 30 13.5 46.5-1.5 18-7.5 34.5-18 48-12 15-31.5 22.5-49.5 25.5-19.5 3-39 1.5-57-6-15-6-27-15-36-28.5-7.5-12-12-27-12-40.5 10.5 0 22.5 0 33 0 0 6 1.5 10.5 3 16.5 3 12 13.5 22.5 24 27 15 6 31.5 7.5 48 1.5 12-3 24-13.5 28.5-25.5 4.5-13.5 6-28.5 1.5-42-4.5-12-13.5-22.5-25.5-27-18-7.5-37.5-4.5-55.5-6 0-3 0-7.5 0-10.5-58.5 0-117 0-175.5 0-4.5 70.5-9 142.5-15 213 0 10.5-3 22.5 0 33v0c4.5 15 16.5 28.5 31.5 33 6 1.5 13.5 1.5 21 1.5 171 0 343.5 0 514.5 0 9 0 18 0 25.5-1.5 15-4.5 27-16.5 31.5-31.5v0c3-9 1.5-16.5 1.5-25.5-4.5-73.5-10.5-147-15-222-43.5 0-88.5 0-132 0-4.5 0-10.5 0-15 0-1.5 1.5 4.5 1.5 12 1.5zM1246.5 376.5v0c0 48 0 94.5 0 141-12 0-24 0-34.5 0 0-46.5 0-93 0-141v0c0-33 0-64.5 0-97.5-24 7.5-46.5 16.5-70.5 24 0-10.5 0-21 0-31.5 33-12 64.5-22.5 97.5-34.5 3-1.5 6-1.5 9-1.5-1.5 46.5-1.5 93-1.5 141zM1356 778.5h-520.5c-12 0-31.5-1.5-52.5-7.5-45-13.5-82.5-46.5-102-88.5l-6-6-6-21c-7.5-28.5-6-52.5-4.5-64.5 0-1.5 0-3 0-3v-3c1.5-31.5 4.5-63 6-93 3-36 4.5-72 7.5-106.5-6-42-10.5-82.5-16.5-124.5l-9-63h-429c-82.5 0-150 67.5-150 150v1002c0 82.5 67.5 150 150 150h1008c82.5 0 150-67.5 150-150v-573c-7.5 1.5-15 1.5-21 1.5h-4.5zM469.5 1362c-156 0-282-124.5-282-280.5s126-282 282-282c73.5 0 138 28.5 187.5 73.5l-79.5 79.5c-30-25.5-67.5-40.5-109.5-40.5-93 0-169.5 76.5-169.5 169.5s76.5 169.5 169.5 169.5c78 0 132-46.5 151.5-112.5h-150v-108h264c22.5 111-18 331.5-264 331.5z"></path>
</svg>
