<svg version="1.1" xmlns="http://www.w3.org/2000/svg"   viewBox="0 0 1500 1500">

<path d="M1447.266 0h-1394.531c-8.789 0-14.648 8.789-14.648 14.648v1019.531c0 8.789 5.859 14.648 14.648 14.648h811.523l583.008 451.172c8.789 0 14.648-8.789 14.648-14.648v-1470.703c0-5.859-5.859-14.648-14.648-14.648zM583.008 231.445c73.242 0 131.836 58.594 131.836 131.836 0 76.172-58.594 131.836-131.836 131.836s-131.836-55.664-131.836-131.836c0-73.242 61.523-131.836 131.836-131.836zM867.188 814.453h-571.289v-73.242c0-125.977 125.977-166.992 287.109-166.992 8.789 0 17.578 0 23.438 0 2.93 0 5.859 0 8.789 0 5.859 0 11.719 0 17.578 2.93 2.93 0 5.859 0 8.789 0 5.859 0 14.648 0 20.508 0 2.93 0 5.859 2.93 8.789 2.93 5.859 0 8.789 0 14.648 0s8.789 2.93 11.719 2.93c2.93 0 5.859 0 8.789 0 14.648 2.93 29.297 8.789 43.945 11.719 2.93 0 2.93 2.93 5.859 2.93 20.508 5.859 38.086 14.648 52.734 26.367 11.719 8.789 23.438 17.578 32.227 29.297 17.578 23.438 26.367 52.734 26.367 84.961v76.172zM987.305 377.93c55.664 0 99.609 43.945 99.609 96.68 0 55.664-43.945 99.609-99.609 99.609-52.734 0-96.68-43.945-96.68-99.609 0-52.734 41.016-96.68 96.68-96.68zM1204.102 814.453h-275.391v-73.242c0-38.086-8.789-73.242-26.367-102.539 26.367-5.859 55.664-5.859 84.961-5.859 117.188 0 216.797 29.297 216.797 125.977z"></path>
</svg>
