<svg version="1.1" xmlns="http://www.w3.org/2000/svg"   viewBox="0 0 1500 1500">

<path d="M480.469 659.18c0 64.453 0 125.977 0 187.5 87.891 0 175.781 0 263.672 0-11.719 61.523-46.875 114.258-96.68 149.414-32.227 20.508-70.313 35.156-105.469 41.016-38.086 5.859-79.102 8.789-117.188 0-38.086-5.859-73.242-23.438-105.469-46.875-52.734-35.156-90.82-87.891-111.328-146.484-20.508-61.523-20.508-125.977 0-187.5 14.648-41.016 38.086-82.031 70.313-114.258 38.086-38.086 90.82-67.383 143.555-79.102 46.875-8.789 96.68-8.789 140.625 5.859 41.016 11.719 76.172 32.227 105.469 61.523 29.297-29.297 58.594-58.594 87.891-87.891 14.648-17.578 32.227-32.227 46.875-46.875-43.945-43.945-96.68-76.172-155.273-96.68-102.539-38.086-219.727-38.086-325.195-2.93-117.188 41.016-216.797 128.906-272.461 237.305-17.578 38.086-32.227 79.102-41.016 123.047-20.508 102.539-5.859 213.867 41.016 310.547 32.227 61.523 76.172 117.188 131.836 158.203 52.734 41.016 111.328 73.242 175.781 90.82 79.102 20.508 164.063 20.508 246.094 0 73.242-14.648 140.625-49.805 196.289-99.609 58.594-55.664 99.609-125.977 120.117-202.148 26.367-82.031 29.297-169.922 14.648-254.883-152.344 0-301.758 0-454.102 0zM1500 670.898h-164.063v-164.063h-120.117v164.063h-164.063v120.117h164.063v164.063h120.117v-164.063h164.063z"></path>
</svg>
