<svg version="1.1" xmlns="http://www.w3.org/2000/svg"   viewBox="0 0 1500 1500">

<path d="M963 669c15 0 31.5 4.5 42 12 39 19.5 81 15 115.5-4.5 61.5-31.5 81-108 46.5-166.5-31.5-61.5-108-81-166.5-46.5-34.5 19.5-58.5 54-61.5 96 0 15-4.5 31.5-12 42-22.5 39-73.5 54-112.5 31.5s-54-73.5-31.5-112.5c7.5-12 19.5-22.5 31.5-31.5 34.5-22.5 54-58.5 54-100.5 0-69-58.5-123-123-123-69 0-123 58.5-123 123 0 39 19.5 78 54 100.5 12 7.5 22.5 19.5 31.5 31.5 19.5 39 7.5 88.5-31.5 112.5s-88.5 7.5-112.5-31.5c-7.5-12-12-27-12-42-4.5-39-27-78-61.5-96-58.5-31.5-132-12-166.5 46.5-31.5 58.5-12 132 46.5 166.5 34.5 19.5 81 22.5 115.5 4.5 12-7.5 27-12 42-12 42 0 81 34.5 81 81 0 42-34.5 81-81 81-15 0-31.5-4.5-42-12-39-19.5-81-15-115.5 4.5-61.5 31.5-81 108-46.5 166.5 31.5 61.5 108 81 166.5 46.5 34.5-19.5 58.5-54 61.5-96 0-15 4.5-31.5 12-42 22.5-39 73.5-54 112.5-31.5s54 73.5 31.5 112.5c-7.5 12-19.5 22.5-31.5 31.5-34.5 22.5-54 58.5-54 100.5 0 69 58.5 123 123 123 69 0 123-58.5 123-123 0-39-19.5-78-54-100.5-12-7.5-22.5-19.5-31.5-31.5-19.5-39-7.5-88.5 31.5-112.5 39-22.5 88.5-7.5 112.5 31.5 7.5 12 12 27 12 42 4.5 39 27 78 61.5 96 58.5 31.5 132 12 166.5-46.5 31.5-58.5 12-132-46.5-166.5-34.5-19.5-81-22.5-115.5-4.5-12 7.5-27 12-42 12-42 0-81-39-81-81s34.5-81 81-81zM1407 750c61.5-115.5 61.5-255-7.5-375-66-115.5-189-189-321-193.5-69-112.5-193.5-181.5-328.5-181.5s-259.5 69-328.5 181.5c-132 4.5-255 78-321 193.5-69 115.5-69 259.5-7.5 375-15 27-22.5 54-31.5 81-27 100.5-10.5 205.5 39 294 66 115.5 189 189 321 193.5 69 112.5 193.5 181.5 328.5 181.5s259.5-69 328.5-181.5c132-4.5 255-78 321-193.5 51-88.5 66-193.5 39-294-7.5-27-19.5-54-31.5-81zM1306.5 865.5c19.5 66 7.5 132-19.5 193.5-46.5 78-127.5 127.5-220.5 127.5-19.5 0-42 0-66-7.5-31.5 108-127.5 189-247.5 189s-220.5-81-247.5-189c-19.5 4.5-42 7.5-66 7.5-88.5 0-174-51-220.5-127.5-34.5-58.5-46.5-127.5-27-193.5 12-46.5 34.5-85.5 66-115.5-81-81-100.5-205.5-42-309 46.5-78 127.5-127.5 220.5-127.5 19.5 0 42 0 66 7.5 31.5-108 127.5-189 247.5-189s220.5 81 247.5 189c19.5-4.5 42-7.5 66-7.5 88.5 0 174 51 220.5 127.5 58.5 105 39 228-42 309 30 31.5 52.5 69 64.5 115.5z"></path>
</svg>
