<svg version="1.1" xmlns="http://www.w3.org/2000/svg"   viewBox="0 0 1500 1500">

<path d="M750 0c-413.086 0-750 336.914-750 750s336.914 750 750 750c413.086 0 750-336.914 750-750s-336.914-750-750-750zM1189.453 899.414c-55.664-23.438-102.539-70.313-137.695-120.117-38.086-55.664-79.102-111.328-123.047-164.063-43.945-46.875-87.891-93.75-137.695-137.695-46.875-41.016-99.609-82.031-158.203-111.328-41.016-17.578-79.102-32.227-120.117-43.945-5.859 0-17.578-5.859-23.438 0 0 2.93 0 8.789 0 14.648 2.93 8.789 2.93 14.648 2.93 23.438 14.648 105.469 17.578 213.867-14.648 313.477-17.578 52.734-46.875 102.539-90.82 140.625-32.227 32.227-82.031 64.453-131.836 61.523-8.789 0-17.578 0-26.367-2.93-52.734-17.578-55.664-76.172-55.664-123.047-2.93-49.805 2.93-99.609 17.578-149.414 2.93-14.648 8.789-29.297 11.719-43.945 58.594-166.992 190.43-301.758 357.422-360.352 64.453-23.438 128.906-35.156 196.289-35.156 196.289 0 380.859 99.609 489.258 263.672 26.367 41.016 46.875 84.961 64.453 128.906v0c2.93 17.578 8.789 32.227 11.719 46.875 14.648 49.805 20.508 99.609 20.508 149.414-2.93 93.75-32.227 199.219-152.344 149.414z"></path>
</svg>
