<svg version="1.1" xmlns="http://www.w3.org/2000/svg"   viewBox="0 0 1500 1500">

<path d="M954 894c231 61.5 405 198 529.5 399-4.5 4.5-7.5 3-9 3-66 0-130.5 0-196.5 0-6 0-10.5-1.5-13.5-6-102-117-228-196.5-379.5-231-148.5-33-292.5-16.5-429 48-91.5 43.5-169.5 103.5-234 180-4.5 6-10.5 9-18 9-64.5 0-127.5 0-192 0-3 0-6 0-12 0 123-208.5 303-337.5 532.5-402 0-1.5-3-1.5-4.5-1.5-130.5-34.5-244.5-99-343.5-190.5-42-40.5-79.5-85.5-114-132-3-4.5-3-7.5 0-12 24-36 51-69 81-99 39-40.5 82.5-76.5 127.5-108 4.5-3 6-6 7.5-12 10.5-55.5 43.5-93 96-114 49.5-19.5 96-7.5 135 27 48 40.5 64.5 100.5 45 154.5-21 58.5-75 96-136.5 96-16.5 0-33-1.5-48-10.5-3-1.5-6-3-9 0-24 21-49.5 37.5-73.5 60-12 10.5-10.5 12 0 21 55.5 49.5 114 93 181.5 123 102 43.5 207 63 318 54 142.5-12 268.5-64.5 376.5-160.5 10.5-9 19.5-18 30-25.5 3-3 1.5-6 1.5-9 0-19.5 0-40.5 6-60 19.5-64.5 76.5-105 148.5-103.5 82.5 3 126 63 138 118.5 13.5 63-21 130.5-81 160.5-25.5 12-52.5 16.5-79.5 15 0 0 0 0-1.5 0-13.5-7.5-21 3-28.5 10.5-100.5 93-214.5 160.5-348 193.5 0 3-1.5 3-3 4.5 0-1.5 0 0 0 0zM651 355.5c0-42-9-81-33-115.5-4.5-6-7.5-12-10.5-18-3-4.5-1.5-6 3-7.5 22.5-3 43.5-4.5 66-6 58.5-6 115.5-4.5 172.5 3 126 16.5 241.5 60 348 130.5 6 4.5 12 9 19.5 13.5 3 1.5 4.5 3 0 6-46.5 34.5-72 81-85.5 135-1.5 7.5-4.5 3-7.5 1.5-25.5-19.5-52.5-36-81-49.5-76.5-39-156-63-243-69-39-3-78-3-117-1.5-9 0-18 1.5-28.5 4.5-4.5 1.5-4.5 0-4.5-4.5 1.5-9 1.5-15 1.5-22.5zM897 576c0 81-63 144-145.5 144-73.5 0-144-70.5-142.5-145.5s69-142.5 145.5-142.5c79.5 0 142.5 63 142.5 144z"></path>
</svg>
