<svg version="1.1" xmlns="http://www.w3.org/2000/svg"   viewBox="0 0 1500 1500">

<path d="M1461 405c-4.5 4.5-231 264-567 454.5-3 3-4.5-3-3-4.5 112.5-79.5 208.5-174 291-256.5 18-18 18-51-3-69l-16.5-19.5c-135 139.5-318 321-546 435-3 3-4.5-3-3-4.5 100.5-69 204-157.5 294-247.5 18-18 21-51 0-69l-18-18c-153 151.5-321 306-487.5 384-3 3-4.5-3-3-4.5 100.5-64.5 208.5-163.5 264-216 21-18 21-51 3-69l-13.5-13.5c0 0-238.5 243-373.5 304.5-133.5 61.5-225 60-273 51-4.5 0-7.5 4.5-3 7.5 55.5 21 157.5 51 309 46.5 429-13.5 859.5-274.5 1174.5-600 21-21 18-52.5-4.5-70.5l-21-21z"></path>
</svg>
