<svg version="1.1" xmlns="http://www.w3.org/2000/svg"   viewBox="0 0 1500 1500">

<path d="M524.55 18.87c-20.505-12.541-45.135-18.87-73.935-18.87-30.33 0-55.050 6.33-73.964 18.87-19.17 12.346-28.815 28.815-28.815 48.555v1363.096c0 17.295 9.899 32.895 29.7 47.625 19.635 14.445 44.070 21.855 73.065 21.855 27.555 0 51.81-7.411 72.855-21.855 20.955-14.445 31.649-30.315 31.649-47.625v-1362.825c0.029-20.010-10.214-36.149-30.555-48.825zM1121.565 560.295c-20.25-12.795-45.661-18.899-75.916-18.899-30.24 0-54.584 6.105-73.065 18.899l-277.305 173.774c-12.39 11.58-17.834 29.295-15.51 53.43 2.145 23.911 13.2 46.77 32.82 68.145 19.635 21.675 41.565 35.25 66.721 40.904 24.795 5.7 43.455 2.596 56.010-9.029l109.8-68.265v611.279c0 17.295 9.464 32.895 28.709 47.625 18.661 14.43 42.825 21.839 71.82 21.839s53.971-7.411 74.911-21.855c21.060-14.714 31.589-30.315 31.589-47.625v-821.865c0.015-19.995-10.351-36.089-30.584-48.36z"></path>
</svg>
