<svg version="1.1" xmlns="http://www.w3.org/2000/svg"   viewBox="0 0 1500 1500">

<path d="M963.867 846.68v433.594h-73.242c-14.648 0-29.297 11.719-29.297 29.297 0 8.789 5.859 17.578 14.648 20.508l164.063 158.203c5.859 5.859 14.648 11.719 23.438 11.719s17.578-5.859 20.508-11.719l175.781-158.203c8.789-2.93 11.719-11.719 11.719-20.508 0-17.578-11.719-29.297-26.367-29.297h-73.242v-1045.898c0-14.648-11.719-26.367-26.367-26.367h-155.273c-14.648 0-26.367 11.719-26.367 26.367v404.297h-427.734v-418.945h73.242c14.648 0 29.297-11.719 29.297-29.297 0-8.789-5.859-17.578-14.648-20.508l-164.063-158.203c-5.859-5.859-14.648-11.719-23.438-11.719s-17.578 5.859-20.508 11.719l-175.781 158.203c-8.789 2.93-11.719 11.719-11.719 20.508 0 17.578 11.719 29.297 26.367 29.297h73.242v1045.898c0 14.648 11.719 26.367 26.367 26.367h155.273c14.648 0 26.367-11.719 26.367-26.367v-418.945h427.734z"></path>
</svg>
