<svg version="1.1" xmlns="http://www.w3.org/2000/svg"   viewBox="0 0 1500 1500">

<path d="M1204.102 925.781l295.898-175.781-295.898-175.781c-14.648-38.086-32.227-73.242-55.664-105.469l67.383-184.57-184.57 67.383c-32.227-23.438-67.383-43.945-105.469-55.664l-175.781-295.898-175.781 295.898c-38.086 14.648-73.242 32.227-105.469 55.664l-184.57-67.383 67.383 184.57c-23.438 32.227-43.945 67.383-55.664 105.469l-295.898 175.781 295.898 175.781c14.648 38.086 32.227 73.242 55.664 105.469l-67.383 184.57 184.57-67.383c32.227 23.438 67.383 43.945 105.469 55.664l175.781 295.898 175.781-295.898c38.086-14.648 73.242-32.227 105.469-55.664l184.57 67.383-67.383-184.57c23.438-32.227 43.945-67.383 55.664-105.469zM750 1154.297c-222.656 0-404.297-181.641-404.297-404.297s181.641-404.297 404.297-404.297c222.656 0 404.297 181.641 404.297 404.297s-181.641 404.297-404.297 404.297zM1019.531 738.281c2.93-17.578-14.648-38.086-14.648-58.594 0-11.719-5.859-17.578-8.789-29.297-2.93-8.789-2.93-17.578-5.859-29.297 0 0-2.93 0-2.93 0 11.719-26.367-23.438-55.664-41.016-73.242-20.508-20.508-32.227-46.875-61.523-58.594-17.578-5.859-32.227-14.648-46.875-20.508s-29.297-8.789-43.945-14.648c-14.648-5.859-26.367-20.508-41.016-14.648-20.508 5.859-26.367 14.648-46.875 8.789-38.086-14.648-64.453 5.859-93.75 26.367-14.648 11.719-29.297 20.508-41.016 32.227-5.859 2.93-11.719 11.719-14.648 17.578-5.859 5.859-11.719 11.719-17.578 17.578-8.789 11.719-17.578 17.578-32.227 29.297-5.859 5.859-11.719 11.719-17.578 17.578-8.789 5.859-14.648 2.93-11.719 14.648 0 14.648 8.789 29.297 8.789 46.875 0 8.789 0 14.648 0 23.438 2.93 8.789 5.859 14.648 8.789 23.438 2.93 11.719 0 29.297 8.789 43.945 5.859 11.719 17.578 26.367 26.367 38.086 11.719 11.719 20.508 26.367 29.297 41.016 8.789 8.789 29.297 20.508 29.297 32.227 17.578 2.93 20.508 23.438 38.086 20.508 8.789 0 14.648 0 23.438 2.93 5.859 2.93 14.648 5.859 20.508 5.859 14.648 2.93 26.367-14.648 41.016-17.578 17.578-2.93 32.227 2.93 46.875-5.859 29.297-17.578 43.945-46.875 43.945-79.102 0-17.578-2.93-29.297-14.648-46.875-5.859-11.719-2.93-29.297-14.648-38.086-14.648-11.719-35.156-11.719-49.805-14.648s-38.086-5.859-49.805 2.93c-26.367 17.578 32.227 61.523 0 76.172s-52.734-23.438-61.523-52.734c-5.859-14.648-2.93-38.086 0-52.734 0-5.859 0-14.648 2.93-20.508 2.93-8.789 14.648-11.719 20.508-14.648 11.719-8.789 20.508-20.508 32.227-29.297 14.648-8.789 29.297-14.648 46.875-17.578s38.086-2.93 55.664-2.93c8.789 0 14.648 2.93 23.438 2.93s14.648-2.93 26.367-2.93c11.719 0 8.789 2.93 8.789 14.648 0 5.859 2.93 11.719 8.789 17.578 8.789 11.719 17.578 26.367 29.297 38.086 20.508 23.438 17.578 64.453 14.648 96.68 0 17.578 0 32.227 5.859 49.805s-8.789 17.578-20.508 29.297c-11.719 8.789-14.648 23.438-23.438 35.156-11.719 11.719-20.508 20.508-35.156 32.227-11.719 8.789-20.508 17.578-32.227 26.367-14.648 5.859-29.297 14.648-43.945 20.508-17.578 8.789-35.156 11.719-52.734 17.578-8.789 0-17.578 2.93-26.367 8.789-5.859 2.93-8.789 11.719-17.578 14.648-20.508 14.648-43.945 8.789-64.453 20.508-14.648 5.859-55.664 8.789-55.664 23.438h-2.93c8.789 11.719 17.578 23.438 32.227 26.367 14.648 0 29.297 5.859 43.945 11.719 11.719 2.93 26.367 8.789 41.016 8.789 14.648 2.93 26.367 8.789 41.016 11.719 20.508 2.93 29.297-11.719 46.875-14.648 14.648-2.93 32.227 0 49.805-2.93 14.648-2.93 29.297-5.859 46.875-11.719 14.648-2.93 29.297-5.859 43.945-11.719 11.719-2.93 29.297-11.719 41.016-17.578 11.719-8.789 11.719-26.367 26.367-32.227 11.719-8.789 23.438-17.578 32.227-26.367s11.719-29.297 14.648-41.016c5.859-14.648 14.648-23.438 23.438-35.156 8.789-14.648 11.719-29.297 14.648-43.945 2.93-11.719 8.789-32.227 5.859-43.945 0-8.789-8.789-11.719-5.859-23.438 2.93-17.578 8.789-20.508 8.789-29.297z"></path>
</svg>
