<svg version="1.1" xmlns="http://www.w3.org/2000/svg"   viewBox="0 0 1500 1500">

<path d="M298.828 972.656c-20.508-2.93-38.086-8.789-55.664-11.719-49.805-14.648-96.68-38.086-137.695-70.313-49.805-43.945-82.031-99.609-96.68-164.063-29.297-117.188 23.438-246.094 131.836-310.547 35.156-20.508 73.242-35.156 114.258-43.945 49.805-5.859 99.609 0 149.414 20.508 8.789 2.93 17.578 8.789 26.367 11.719 2.93 2.93 5.859 2.93 8.789 5.859 0-11.719-2.93-23.438-2.93-38.086-5.859-61.523 0-125.977 26.367-181.641 38.086-79.102 93.75-137.695 178.711-161.133 117.188-35.156 219.727-5.859 307.617 82.031 41.016 46.875 67.383 102.539 73.242 164.063 2.93 26.367 2.93 55.664-2.93 82.031 0 0-2.93 2.93-2.93 5.859 0 0 0 2.93 0 5.859 2.93-2.93 5.859-2.93 8.789-5.859 35.156-17.578 73.242-29.297 114.258-38.086 117.188-23.438 234.375 23.438 301.758 114.258 20.508 26.367 38.086 58.594 46.875 93.75 5.859 26.367 14.648 58.594 11.719 87.891-5.859 93.75-43.945 169.922-120.117 228.516-26.367 17.578-52.734 35.156-82.031 43.945-17.578 2.93-35.156 5.859-52.734 8.789-2.93 0-5.859 2.93-8.789 2.93 5.859 2.93 8.789 5.859 11.719 8.789 29.297 35.156 58.594 67.383 76.172 108.398 38.086 82.031 41.016 166.992 8.789 249.023-43.945 96.68-117.188 155.273-222.656 175.781-114.258 17.578-208.008-23.438-281.25-114.258-8.789-11.719-17.578-26.367-26.367-41.016-2.93-2.93-5.859-8.789-8.789-17.578-2.93 5.859-5.859 11.719-5.859 14.648-23.438 41.016-49.805 79.102-84.961 111.328-43.945 41.016-96.68 67.383-155.273 76.172-134.766 26.367-254.883-52.734-307.617-149.414-17.578-35.156-29.297-70.313-32.227-111.328s0-82.031 14.648-123.047c11.719-41.016 35.156-76.172 64.453-105.469 2.93-2.93 5.859-8.789 11.719-14.648zM723.633 823.242c0 0 0 0 0 0-2.93 2.93-2.93 5.859-5.859 8.789-49.805 46.875-108.398 82.031-172.852 111.328-67.383 29.297-140.625 41.016-213.867 32.227-5.859 0-8.789 0-14.648 0 2.93 2.93 2.93 5.859 5.859 8.789 11.719 17.578 26.367 32.227 41.016 46.875 20.508 14.648 43.945 29.297 67.383 41.016 55.664 20.508 114.258 26.367 175.781 14.648 29.297-2.93 55.664-14.648 79.102-32.227 41.016-32.227 70.313-73.242 84.961-123.047 8.789-29.297 11.719-61.523 8.789-93.75 0-2.93 0-2.93 2.93-5.859 0 2.93 2.93 5.859 2.93 5.859 17.578 35.156 32.227 73.242 41.016 114.258 8.789 32.227 11.719 67.383 14.648 102.539 2.93 29.297 2.93 55.664-2.93 84.961-5.859 41.016-17.578 79.102-35.156 117.188 0 2.93 0 5.859-2.93 8.789 0 0 2.93 2.93 2.93 2.93 14.648-8.789 32.227-14.648 46.875-23.438 41.016-17.578 73.242-49.805 99.609-87.891 23.438-38.086 38.086-76.172 46.875-120.117 5.859-32.227 5.859-64.453-2.93-93.75-11.719-35.156-29.297-64.453-52.734-90.82-32.227-32.227-73.242-58.594-120.117-70.313-2.93 0-2.93-2.93-5.859-2.93 14.648-2.93 32.227-5.859 49.805-8.789 49.805-2.93 96.68 2.93 146.484 11.719 29.297 8.789 61.523 14.648 87.891 26.367 43.945 20.508 82.031 46.875 120.117 79.102 2.93 2.93 5.859 2.93 8.789 5.859 0 0 2.93 0 2.93 0-2.93-17.578-2.93-35.156-5.859-52.734-5.859-38.086-20.508-70.313-41.016-102.539-32.227-46.875-73.242-82.031-125.977-105.469-29.297-14.648-64.453-23.438-99.609-20.508-38.086 5.859-73.242 17.578-108.398 38.086-29.297 20.508-58.594 46.875-79.102 79.102 0 2.93-2.93 2.93-2.93 5.859 0 0-2.93-2.93-2.93-2.93 5.859-20.508 8.789-41.016 14.648-64.453 14.648-49.805 38.086-93.75 64.453-137.695 14.648-26.367 35.156-52.734 55.664-76.172 29.297-29.297 61.523-52.734 96.68-73.242 2.93 0 5.859-2.93 8.789-5.859 0 0 0-2.93 0-2.93-11.719-2.93-26.367-5.859-38.086-8.789-38.086-8.789-73.242-5.859-111.328 2.93-49.805 14.648-93.75 38.086-134.766 73.242s-64.453 79.102-70.313 134.766c-2.93 35.156 2.93 73.242 14.648 108.398 8.789 26.367 26.367 49.805 43.945 73.242 2.93 2.93 5.859 5.859 5.859 8.789 0 0 0 0-2.93 0s-2.93 0-5.859-2.93c-46.875-23.438-87.891-52.734-123.047-87.891-32.227-29.297-61.523-64.453-84.961-102.539-26.367-41.016-43.945-87.891-52.734-137.695 0-2.93-2.93-5.859-2.93-11.719-20.508 32.227-38.086 58.594-46.875 90.82-8.789 35.156-11.719 70.313-5.859 105.469 2.93 35.156 14.648 70.313 29.297 102.539 29.297 67.383 84.961 102.539 152.344 117.188 17.578 5.859 35.156 2.93 55.664 5.859 29.297 0 58.594-5.859 87.891-20.508 2.93 0 5.859 0 8.789 0z"></path>
</svg>
