<svg version="1.1" xmlns="http://www.w3.org/2000/svg"   viewBox="0 0 1500 1500">

<path d="M750 0l-665.039 375v750l665.039 375 665.039-375v-750zM181.641 659.18c38.086-380.859 351.563-448.242 351.563-448.242-416.016 445.313 70.313 755.859 70.313 755.859l-333.984 73.242c-108.398-155.273-87.891-380.859-87.891-380.859zM603.516 750c0-82.031 64.453-149.414 146.484-149.414s146.484 67.383 146.484 149.414c0 82.031-64.453 149.414-146.484 149.414s-146.484-67.383-146.484-149.414zM966.797 1268.555c-348.633 152.344-559.57-90.82-559.57-90.82 585.938 152.344 615.234-433.594 615.234-433.594l228.516 260.742c-82.031 172.852-284.18 263.672-284.18 263.672zM1306.641 823.242c-178.711-585.938-685.547-307.617-685.547-307.617l99.609-333.984c190.43-20.508 369.141 108.398 369.141 108.398 310.547 222.656 216.797 533.203 216.797 533.203z"></path>
</svg>
