<svg version="1.1" xmlns="http://www.w3.org/2000/svg"   viewBox="0 0 1500 1500">

<path d="M1274.355 659.791c0 1.5 0 3 0 3v3c-6 145.5-3 709.5-3 739.5 0 67.5-51 121.5-99 79.5l-436.5-345c-99 103.5-198 207-298.5 307.5-61.5 58.5-111-82.5-66-112.5 4.5-3 139.5-121.5 288-253.5l-322.5-255c-28.5-22.5-39-58.5-22.5-79.5 6-6 13.5-7.5 21-7.5 3 0 7.5 1.5 10.5 3 99 45 247.5 156 394.5 270 153-135 300-262.5 319.5-273 24-13.5 30 22.5 22.5 31.5-7.5 10.5-135 145.5-276 292.5 138 108 268.5 211.5 351 258l13.5-664.5c-10.5-10.5-333-445.5-367.5-483-55.5 49.5-348 382.5-363 396 66 7.5 349.5 24 528 43.5 45 4.5 75 37.5-21 37.5l-694.5-1.5c-10.5 0-21-7.5-24-16.5-4.5-10.5-1.5-21 6-28.5 3-3 501-558 543-592.5 7.5-7.5 19.5-12 30-12 12 1.5 22.5 6 30 13.5 6 6 268.5 372 397.5 550.5 30 42 39 70.5 39 93 0 1.5 0 3 0 3z"></path>
</svg>
