<svg version="1.1" xmlns="http://www.w3.org/2000/svg"   viewBox="0 0 1500 1500">

<path d="M244.5 835.5c0-45 0-90 0-133.5 0-21 6-37.5 21-52.5 96-96 192-192 288-289.5 19.5-19.5 28.5-4.5 40.5 6 115.5 115.5 232.5 231 346.5 348 19.5 19.5 39 30 67.5 28.5 69-1.5 139.5 0 208.5-1.5 27 0 36 9 36 36-1.5 63 0 126 0 190.5-1.5 69-34.5 100.5-102 100.5-36 0-73.5 1.5-109.5 0-30-1.5-36 10.5-36 39 1.5 73.5 0 147 0 220.5 0 9 4.5 21-6 24-9 3-13.5-7.5-19.5-13.5-82.5-79.5-163.5-160.5-244.5-243-18-18-34.5-25.5-60-25.5-109.5 1.5-217.5 0-327 0-69 0-102-31.5-103.5-100.5-1.5-43.5 0-88.5 0-133.5zM750 147c73.5 0 147 0 220.5 0 21 0 37.5 6 52.5 21 153 151.5 307.5 303 460.5 456 7.5 6 21 12 15 24-4.5 9-16.5 4.5-25.5 4.5-145.5 0-291 0-436.5 0-22.5 0-39-7.5-55.5-22.5-127.5-129-256.5-255-384-382.5-19.5-19.5-30-24-51-1.5-126 126-255 250.5-381 376.5-21 21-42 31.5-72 28.5-21-1.5-43.5 0-66 0-9 0-24 4.5-28.5-7.5-3-9 7.5-16.5 15-22.5 24-24 49.5-46.5 73.5-70.5 127.5-126 255-253.5 382.5-379.5 18-18 36-25.5 60-25.5 75 1.5 147 1.5 220.5 1.5z"></path>
</svg>
