<svg version="1.1" xmlns="http://www.w3.org/2000/svg"   viewBox="0 0 1500 1500">

<path d="M151.5 900c0-94.5 0-189 0-283.5 0-15 0-15-13.5-22.5-18-10.5-37.5-19.5-55.5-30-6-1.5-7.5-4.5-7.5-10.5 0-49.5 0-100.5 0-150 0-9 0-9 9-4.5 16.5 9 34.5 16.5 51 25.5 45 22.5 90 45 135 69 96 48 190.5 96 286.5 145.5 25.5 12 49.5 25.5 75 39 9 4.5 9 4.5 15-3 60-66 120-133.5 181.5-199.5 54-60 109.5-120 163.5-180 1.5-1.5 3-3 4.5-4.5 6-6 6-6 13.5-1.5 22.5 12 46.5 22.5 69 34.5 58.5 30 117 58.5 175.5 88.5 54 27 109.5 55.5 163.5 82.5 6 3 9 7.5 9 15 0 48 0 96 0 144 0 0 0 1.5 0 1.5 0 7.5 0 9-9 4.5-16.5-9-33-16.5-51-25.5-3-1.5-6-3-9-4.5-6-1.5-7.5-1.5-7.5 4.5 0 3 0 7.5 0 10.5 0 180 0 360 0 540 0 3 0 6 0 9 1.5 7.5-3 10.5-9 13.5-42 21-84 42-126 63-115.5 58.5-231 117-346.5 175.5-36 18-72 36-106.5 54-7.5 4.5-13.5 4.5-22.5 0-97.5-49.5-196.5-99-294-148.5-94.5-48-187.5-94.5-282-142.5-3-1.5-4.5-3-7.5-3-3-1.5-4.5-4.5-4.5-7.5s0-6 0-9c0-100.5 0-195 0-289.5zM1096.5 892.5c1.5 3 1.5 7.5 1.5 10.5 0 82.5 0 165 0 246 0 12 1.5 13.5 12 7.5 40.5-19.5 79.5-40.5 120-60 1.5 0 1.5-1.5 3-1.5 6-3 9-6 9-13.5 0-3 0-6 0-9 0-93 0-184.5 0-277.5 0-72 0-144 0-216 0-9-3-13.5-10.5-18-61.5-31.5-123-63-184.5-93-1.5 0-3-1.5-4.5-1.5-6-1.5-7.5-1.5-10.5 0-1.5 1.5-3 3-4.5 4.5-54 58.5-108 117-160.5 175.5-61.5 67.5-124.5 136.5-186 204-7.5 7.5-7.5 7.5-16.5 3-46.5-24-93-46.5-139.5-70.5-70.5-36-142.5-72-213-108-15-7.5-15-7.5-15 9 0 136.5 0 273 0 408 0 3 0 4.5 0 7.5 0 4.5 1.5 7.5 6 9 1.5 1.5 4.5 1.5 6 3 124.5 63 250.5 124.5 375 187.5 18 9 37.5 18 55.5 28.5 7.5 4.5 13.5 4.5 21 0 18-9 36-18 54-27 42-21 84-42 126-63 7.5-3 10.5-7.5 9-15 0-3 0-6 0-9 0-81 0-160.5 0-241.5 0-7.5 3-12 9-15 42-21 85.5-42 127.5-63 4.5 0 7.5-3 10.5-1.5zM334.5 195c0-25.5 0-51 0-78 0-6 1.5-12 6-16.5 28.5-31.5 57-63 87-96 6-6 6-6 13.5-3 48 24 94.5 48 142.5 72 6 3 7.5 6 7.5 12 0 46.5 0 91.5 0 138 0 6-3 10.5-6 15-30 33-60 67.5-90 100.5-3 3-6 7.5-9 10.5-6 6-6 6-13.5 3-19.5-9-37.5-19.5-57-28.5-24-12-46.5-24-70.5-34.5-7.5-3-9-7.5-9-15-1.5-27-1.5-54-1.5-79.5z"></path>
</svg>
