<svg version="1.1" xmlns="http://www.w3.org/2000/svg"   viewBox="0 0 1500 1500">

<path d="M1010.742 621.094c2.93-161.133 146.484-187.5 146.484-199.219 0-20.508-128.906-178.711-128.906-178.711 0-246.094-20.508-102.539-114.258-99.609-32.227-41.016-181.641-143.555-181.641-143.555s-131.836 102.539-166.992 143.555c-102.539 14.648-114.258-178.711-114.258 99.609 0 0-128.906 152.344-128.906 187.5 0 14.648 149.414 17.578 149.414 178.711-84.961 8.789-123.047-43.945-164.063-73.242 8.789 64.453 76.172 208.008 137.695 237.305 23.438-46.875 84.961-111.328 146.484 35.156 58.594 143.555 2.93 199.219-82.031 117.188-2.93 58.594 90.82 251.953 149.414 295.898 17.578-17.578 55.664-164.063 52.734-190.43-5.859-20.508-38.086-272.461-76.172-304.688-70.313-58.594-234.375-380.859 99.609-498.047 333.984 117.188 178.711 430.664 111.328 495.117-64.453 61.523-61.523 697.266-46.875 776.367 46.875-43.945 20.508-246.094 149.414-377.93-38.086 2.93-155.273-14.648-67.383-263.672 76.172-208.008 131.836-140.625 172.852-49.805 32.227-23.438 131.836-213.867 137.695-278.32-41.016 26.367-93.75 102.539-181.641 90.82zM837.891 483.398c-14.648-38.086-96.68-114.258-96.68-114.258l-11.719 8.789c-46.875 61.523-55.664 49.805-90.82 108.398-11.719 14.648 11.719 23.438 43.945 76.172 43.945 70.313 52.734 131.836 52.734 131.836l8.789-11.719c20.508-23.438 26.367-64.453 49.805-105.469 20.508-38.086 49.805-73.242 43.945-93.75z"></path>
</svg>
