<svg version="1.1" xmlns="http://www.w3.org/2000/svg"   viewBox="0 0 1500 1500">

<path d="M1456.055 823.242l-8.789-17.578c-17.578-23.438-35.156-49.805-58.594-67.383-23.438-14.648-46.875-23.438-70.313-35.156 64.453-32.227 111.328-76.172 131.836-134.766 14.648-43.945 11.719-82.031-8.789-120.117v-5.859c-26.367-41.016-61.523-70.313-114.258-84.961-29.297-5.859-67.383-5.859-99.609-2.93l-67.383 14.648 23.438-52.734c20.508-67.383 14.648-134.766-23.438-196.289l-5.859-8.789c-32.227-52.734-79.102-84.961-140.625-102.539-67.383-17.578-125.977-8.789-187.5 20.508-58.594 32.227-99.609 82.031-120.117 143.555v5.859l-2.93 14.648-5.859-14.648-23.438-38.086c-32.227-52.734-76.172-84.961-128.906-99.609-46.875-11.719-84.961-5.859-123.047 14.648-43.945 26.367-70.313 70.313-82.031 128.906-8.789 61.523 0 120.117 32.227 178.711l14.648 23.438-49.805-17.578c-64.453-14.648-123.047-5.859-181.641 26.367-61.523 29.297-99.609 76.172-125.977 134.766-23.438 61.523-20.508 117.188 8.789 169.922 11.719 23.438 32.227 43.945 49.805 55.664 23.438 26.367 55.664 41.016 93.75 46.875l14.648 2.93-32.227 29.297c-29.297 23.438-46.875 55.664-55.664 87.891-11.719 38.086-5.859 76.172 14.648 111.328 11.719 17.578 20.508 32.227 38.086 43.945 17.578 14.648 38.086 23.438 64.453 26.367 43.945 11.719 93.75 11.719 146.484-5.859l-38.086 64.453-11.719 26.367c-20.508 67.383-14.648 125.977 17.578 187.5 14.648 23.438 32.227 43.945 49.805 64.453 26.367 23.438 55.664 38.086 93.75 46.875 64.453 17.578 128.906 14.648 190.43-14.648 58.594-32.227 96.68-84.961 114.258-146.484l2.93-11.719c41.016 43.945 79.102 73.242 120.117 82.031 43.945 14.648 84.961 11.719 123.047-14.648 35.156-20.508 61.523-55.664 73.242-99.609 11.719-46.875 11.719-93.75 0-146.484 23.438 14.648 43.945 26.367 67.383 32.227 67.383 20.508 128.906 17.578 187.5-14.648 55.664-29.297 93.75-82.031 114.258-146.484 17.578-64.453 11.719-125.977-20.508-184.57zM1151.367 471.68l23.438-11.719c38.086-17.578 76.172-20.508 114.258-17.578 35.156 5.859 61.523 20.508 73.242 46.875l8.789 26.367-5.859 23.438c-14.648 38.086-46.875 67.383-99.609 90.82-20.508 8.789-43.945 14.648-67.383 17.578l-260.742 32.227-5.859-14.648-2.93-5.859 8.789-11.719zM791.016 205.078c11.719-43.945 41.016-76.172 79.102-96.68s79.102-26.367 120.117-11.719c43.945 11.719 76.172 35.156 93.75 70.313 11.719 20.508 17.578 46.875 17.578 76.172l-5.859 43.945c-8.789 23.438-20.508 46.875-32.227 64.453l-190.43 231.445c-17.578-14.648-41.016-23.438-61.523-35.156l-20.508-237.305-2.93-84.961zM430.664 210.938c0-38.086 14.648-64.453 41.016-79.102 11.719-11.719 32.227-11.719 49.805-2.93 38.086 11.719 67.383 38.086 93.75 90.82 11.719 23.438 20.508 43.945 26.367 67.383l41.016 251.953-32.227 8.789-187.5-205.078-8.789-20.508c-17.578-38.086-29.297-73.242-23.438-111.328zM117.188 659.18c-14.648-32.227-14.648-64.453-2.93-96.68 14.648-38.086 41.016-70.313 82.031-87.891 38.086-20.508 76.172-26.367 120.117-17.578l55.664 23.438 187.5 134.766c-17.578 23.438-29.297 43.945-35.156 64.453l-304.688 38.086-20.508-2.93c-38.086-8.789-64.453-23.438-82.031-55.664zM706.055 1283.203l-2.93 20.508c-14.648 38.086-38.086 70.313-76.172 87.891-38.086 20.508-79.102 23.438-117.188 14.648-41.016-11.719-73.242-38.086-90.82-70.313-11.719-20.508-20.508-46.875-20.508-73.242l11.719-46.875c5.859-23.438 14.648-43.945 32.227-61.523l178.711-210.938c20.508 11.719 41.016 20.508 64.453 23.438 2.93 73.242 11.719 149.414 20.508 231.445zM635.742 858.398c-26.367-23.438-41.016-61.523-41.016-99.609s14.648-67.383 41.016-99.609c26.367-20.508 61.523-38.086 99.609-38.086s76.172 17.578 96.68 38.086c32.227 32.227 43.945 61.523 43.945 99.609s-11.719 76.172-43.945 99.609c-26.367 29.297-58.594 43.945-96.68 43.945s-73.242-14.648-99.609-43.945zM1028.32 1230.469c-5.859 38.086-17.578 64.453-43.945 76.172-14.648 8.789-29.297 8.789-46.875 8.789-41.016-11.719-73.242-43.945-96.68-93.75l-23.438-70.313-32.227-184.57 35.156-11.719 29.297-14.648 87.891 90.82 55.664 67.383 8.789 20.508c20.508 35.156 29.297 70.313 26.367 111.328zM1391.602 981.445c-11.719 43.945-35.156 73.242-73.242 90.82-38.086 20.508-73.242 26.367-117.188 11.719-26.367-5.859-41.016-17.578-55.664-35.156l-222.656-181.641 14.648-32.227 5.859-26.367 240.234-20.508 82.031-2.93 23.438 2.93c29.297 8.789 61.523 29.297 76.172 61.523 23.438 23.438 32.227 52.734 32.227 90.82z"></path>
</svg>
