<svg version="1.1" xmlns="http://www.w3.org/2000/svg"   viewBox="0 0 1500 1500">

<path d="M0 708.984c0 369.141 304.688 667.969 682.617 667.969 108.398 0 210.938-26.367 301.758-70.313l515.625 152.344-166.992-536.133c23.438-67.383 35.156-140.625 35.156-213.867 0-369.141-304.688-667.969-682.617-667.969s-685.547 298.828-685.547 667.969zM1148.438 708.984c0 55.664-11.719 111.328-29.297 161.133l84.961 240.234 8.789 23.438c0 0 0-2.93 0-2.93l29.297 79.102-108.398-26.367-234.375-73.242c-64.453 32.227-137.695 49.805-216.797 49.805-254.883 2.93-462.891-202.148-462.891-451.172s208.008-451.172 465.82-454.102c254.883 0 462.891 205.078 462.891 454.102z"></path>
</svg>
