<svg version="1.1" xmlns="http://www.w3.org/2000/svg"   viewBox="0 0 1500 1500">

<path d="M0 448.242h155.273v597.656h-155.273zM486.328 448.242l-35.156 278.32-23.438-152.344c-5.859-46.875-11.719-90.82-17.578-125.977h-202.148v597.656h137.695v-395.508l55.664 395.508h96.68l55.664-404.297v404.297h134.766v-597.656zM931.641 553.711c8.789 2.93 11.719 11.719 14.648 17.578 0 8.789 2.93 26.367 2.93 52.734v231.445c0 41.016-2.93 64.453-8.789 73.242s-20.508 14.648-41.016 14.648v-395.508c14.648 0 26.367 2.93 32.227 5.859zM928.711 1045.898c38.086 0 64.453-2.93 84.961-5.859 17.578-5.859 35.156-11.719 46.875-20.508 11.719-11.719 20.508-26.367 26.367-43.945s8.789-52.734 8.789-108.398v-208.008c0-58.594-2.93-93.75-5.859-114.258s-11.719-38.086-26.367-52.734c-14.648-14.648-35.156-26.367-58.594-35.156-29.297-5.859-70.313-8.789-146.484-8.789h-117.188v597.656zM1350.586 899.414c0 29.297-2.93 46.875-5.859 55.664s-14.648 11.719-23.438 11.719c-11.719 0-17.578-2.93-20.508-8.789-2.93-8.789-2.93-26.367-2.93-52.734v-158.203c0-26.367 0-43.945 2.93-49.805s8.789-11.719 20.508-11.719c8.789 0 20.508 5.859 23.438 11.719 2.93 8.789 5.859 23.438 5.859 49.805zM1148.438 448.242v597.656h137.695l8.789-38.086c11.719 14.648 29.297 26.367 43.945 35.156 14.648 5.859 38.086 11.719 55.664 11.719 23.438 0 43.945-5.859 61.523-20.508 17.578-11.719 29.297-26.367 35.156-43.945 2.93-17.578 5.859-43.945 5.859-79.102v-172.852c0-35.156 0-58.594-2.93-70.313 0-8.789-5.859-20.508-14.648-32.227-5.859-14.648-17.578-23.438-32.227-29.297-17.578-5.859-35.156-8.789-55.664-8.789-17.578 0-41.016 2.93-55.664 11.719-14.648 5.859-29.297 17.578-41.016 32.227v-196.289h-146.484z"></path>
</svg>
