<svg version="1.1" xmlns="http://www.w3.org/2000/svg"   viewBox="0 0 1500 1500">

<path d="M1494.149 595.98c-9.661-48.435-30.555-94.83-62.895-132.226-31.8-38.596-78.705-61.411-125.355-72.45-79.709-19.964-163.89-6.57-236.19 28.411-1.846-3.195-3.435-6.18-4.185-8.955-2.49-9.045-27.209 1.274-48.51 12.105-24.93-14.145-56.279-64.274-229.575-68.399-186.346-4.44-394.89 133.125-474.75 208.529-79.86 75.45-35.505 133.125 13.305 137.55 48.779 4.455 181.89-75.435 252.899-48.795 69.885 26.205 113.895 87 119.49 241.245-46.23-7.11-93.375-13.2-141.795-14.805-99.555-4.365-201.286 11.52-295.44 44.31-94.395 33.045-184.755 81.42-261.149 151.875l63.3 65.834c125.834-121.274 311.101-191.070 491.49-189.735 49.23-0.149 98.94 5.161 149.445 11.445 20.536 134.985 95.505 243.375 207.45 146.851 38.7-33.36 73.815-78.435 104.145-128.19 37.425-2.25 74.685-6.24 111.48-11.985 93.18-15.045 196.68-33.464 274.245-101.355 78.99-64.92 113.115-174.464 92.596-271.26zM1373.625 833.52c-67.98 56.010-160.425 70.515-253.365 82.23-24.060 2.925-48.089 5.055-72.135 6.45 51.404-101.895 82.44-211.846 82.44-279.33 0-63.135-32.31-122.161-61.589-162.779 15.149-19.11 13.695-33.795 8.625-45.63 69.555-30.48 149.925-40.305 221.895-19.274 90.015 19.44 147.195 99.12 160.904 186.675 14.94 87.209-17.82 178.649-86.774 231.661z"></path>
</svg>
