<svg version="1.1" xmlns="http://www.w3.org/2000/svg"   viewBox="0 0 1500 1500">

<path d="M1324.305 528.42c-126.226 11.355-297.735-60.51-391.89-54.045 148.214 198.135-98.416 443.505-243.24 243.226-9.3-144.435 54.524-215.76 148.666-256.77-46.77-20.791-123.226-11.925-189.209-13.5 202.334-57.524 492.286 29.76 675.675 81.089zM837.839 514.904c24.885 33.645 69.435 47.67 81.029 94.589-4.786 40.23-21.495 68.565-40.5 94.589-75.795-9.81-124.635-46.545-108.12-148.649-58.755-9.226-21.675 77.43-54.060 94.605 20.625 81.57 153.075 130.815 216.226 54.045 20.010-68.279 7.471-263.175-94.575-189.18zM797.279 582.48c-11.445 56.505 36.584 53.476 54.060 81.075 19.471-7.56 32.971-21.089 40.529-40.545 1.050-46.065-50.055-40.020-94.589-40.529zM1189.154 798.675c-82.26 10.245-114.166-29.971-162.166-54.029-2.445-290.024 374.145-125.43 162.166 54.029zM1135.096 595.995c39.661 23.416 50.536 75.645 94.635 94.589 7.89-70.964-35.49-90.661-94.635-94.589zM1121.596 650.041c-12.209-36.615-49.726 11.385-54.045 27.029 7.726 37.334 14.31 75.779 67.529 67.575-14.76-13.485-50.67-73.68-13.485-94.605zM1135.096 663.555c-6.24 42.3 11.76 60.315 54.060 54.045 6.3-42.3-11.73-60.315-54.060-54.045zM459.45 825.735c-15.839 2.161-11.399 24.63-13.515 40.5 302.745 36.195 550.245 129.029 810.825 108.135-42.27-69.255-140.76-34.32-202.695-40.529-187.185-18.899-375.375-90.3-567.584-94.605-15.69 2.175-24.045-3-27.029-13.5zM27.029 1325.714c37.334-131.911 45.87-260.834 22.351-398.041-7.096-41.205-43.17-86.94-49.38-129v-40.529c72.721-172.365 90.315-148.786 110.73-193.709 75.899-167.175 142.86-347.805 321.705-387.375 103.274-22.846 279.81 14.31 391.875 27.029 187.786 21.3 372.48 74.055 540.524 108.105-7.98 102.916-9.615 207.495 18 274.77 47.31-34.904 91.005 107.55 117.166 184.68l-13.529 40.56c3.39 115.964-48.3 176.88-108.089 229.709 3.916 81.675-10.83 182.010 13.515 243.226zM445.935 217.605c-92.685 291.404-105.916 649.395-121.605 972.976 330.661-54.945 700.32 12.060 1026.99 67.56-44.145-327.661 15.675-611.115-27.015-918.899-250.096-83.25-572.055-94.635-878.37-121.635zM364.86 271.649c-91.8 43.351-133.334 136.95-189.195 216.24 68.7 154.096 123.075 373.32 13.515 499.995-41.88 1.32-74.955-6.135-94.589-27.060-23.161 85.17-34.154 238.5-27.045 351.375 82.589-30.029 152.221-72.99 216.226-121.62 2.476-354.615 62.295-613.455 81.089-918.93zM175.666 582.48c-129.69 37.545-192.81 346.455 13.515 351.36 28.589-118.575 9.899-268.8-13.515-351.36zM1405.395 623.010c-52.755 92.791-45.45 266.325-40.56 378.39 122.685-37.245 118.334-292.425 40.56-378.39z"></path>
</svg>
