<svg version="1.1" xmlns="http://www.w3.org/2000/svg"   viewBox="0 0 1500 1500">

<path d="M750 0c-414.209 0-750 335.791-750 750s335.791 750 750 750 750-335.791 750-750c-0.555-413.985-336.015-749.445-750-750zM1262.7 276.060c-53.010 22.125-107.67 40.036-163.485 53.596-33.404-96.541-89.596-183.615-163.815-253.815 125.64 34.92 239.010 104.265 327.3 200.221v0zM775.274 420.33c98.205-1.245 196.065-11.865 292.245-31.68 34.036 109.17 51.976 222.735 53.265 337.080h-345.51v-305.399zM775.274 369.779v-316.86c113.265 14.49 212.355 124.38 275.399 287.536-90.69 18.24-182.895 28.065-275.399 29.325zM724.726 52.92v316.86c-92.49-1.14-184.68-10.846-275.399-28.995 63.029-163.815 162.135-273.375 275.399-287.865zM724.726 420.33v303.375h-345.51c1.291-114.346 19.23-227.895 53.265-337.080 96.12 20.505 193.98 31.8 292.245 33.705zM328.32 723.705h-276.404c5.19-148.8 58.005-292.005 150.675-408.541 58.515 26.476 119.19 47.895 181.351 64.050-35.19 111.87-53.925 228.255-55.62 345.51v-1.020zM328.32 774.27c1.589 117.601 20.325 234.33 55.62 346.515-62.084 15.27-122.745 35.791-181.351 61.351-92.67-116.536-145.485-259.74-150.675-408.541l276.404 0.675zM379.214 774.27h345.51v303.375c-98.205 1.245-196.065 11.865-292.245 31.68-33.735-108.209-51.675-220.709-53.265-334.050v-1.005zM724.726 1130.221v316.86c-113.265-14.49-212.355-124.38-275.399-287.536 90.69-18.255 182.895-28.065 275.399-29.325zM775.274 1447.080v-316.86c92.49 1.14 184.68 10.846 275.399 28.995-63.029 163.815-162.135 273.375-275.399 287.865zM775.274 1079.67v-303.375h345.51c-1.291 114.346-19.23 227.895-53.265 337.080-96.12-20.505-193.98-31.8-292.245-33.705zM1171.68 776.295h276.404c-5.19 148.8-58.005 292.005-150.675 408.541-58.515-26.476-119.19-47.911-181.351-64.050 35.19-111.87 53.925-228.255 55.62-345.51v1.020zM1171.68 725.73c-1.529-117.825-20.265-234.795-55.62-347.19 62.084-15.27 122.745-35.791 181.351-61.351 92.67 116.536 145.485 259.74 150.675 408.541h-276.404zM564.601 75.839c-74.25 69.976-130.56 156.81-164.161 253.14-55.815-13.56-110.476-31.471-163.485-53.596 88.485-95.76 201.976-164.88 327.645-199.545zM236.971 1221.916c53.010-22.125 107.67-40.050 163.485-53.596 33.209 97.305 89.55 185.101 164.161 255.839-125.76-34.86-239.25-104.205-327.645-200.221v-2.024zM935.399 1424.161c74.295-70.080 130.605-157.020 164.161-253.485 55.815 13.545 110.476 31.471 163.485 53.596-88.44 95.895-201.93 165.135-327.645 199.89z"></path>
</svg>
