<svg version="1.1" xmlns="http://www.w3.org/2000/svg"   viewBox="0 0 1500 1500">

<path d="M752.93 369.141c-210.938-2.93-383.789 166.992-386.719 377.93 0 210.938 166.992 383.789 377.93 386.719 210.938 0 383.789-166.992 386.719-377.93 2.93-213.867-166.992-386.719-377.93-386.719zM747.070 943.359c-105.469 0-190.43-87.891-190.43-196.289 0-105.469 87.891-190.43 196.289-190.43 105.469 0 190.43 87.891 190.43 196.289 0 105.469-87.891 190.43-196.289 190.43zM750 0c-2.93 0-2.93 0-2.93 0h-682.617c-35.156 0-64.453 29.297-64.453 64.453v685.547c0 413.086 336.914 750 750 750s750-336.914 750-750c0-413.086-336.914-750-750-750zM750 1265.625c-287.109-2.93-518.555-240.234-515.625-527.344s237.305-518.555 524.414-515.625c287.109 2.93 518.555 240.234 515.625 524.414 0 290.039-237.305 521.484-524.414 518.555z"></path>
</svg>
