<svg version="1.1" xmlns="http://www.w3.org/2000/svg"   viewBox="0 0 1500 1500">

<path d="M87.891 468.75h269.531v1004.883h-269.531zM618.164 1086.914c82.031 93.75 208.008 158.203 342.773 158.203 125.977 0 208.008-76.172 208.008-181.641 0-187.5-269.531-208.008-462.891-325.195-117.188-64.453-205.078-164.063-205.078-331.055 0-257.813 237.305-407.227 480.469-407.227 149.414 0 281.25 32.227 418.945 137.695l-143.555 210.938c-61.523-55.664-155.273-93.75-249.023-93.75-102.539 0-225.586 43.945-225.586 158.203 0 231.445 667.969 161.133 667.969 650.391 0 260.742-231.445 436.523-489.258 436.523-193.359 0-375-82.031-524.414-213.867zM49.805 175.781c0-99.609 76.172-175.781 175.781-175.781s175.781 76.172 175.781 175.781c0 99.609-76.172 175.781-175.781 175.781s-175.781-76.172-175.781-175.781z"></path>
</svg>
