<svg version="1.1" xmlns="http://www.w3.org/2000/svg"   viewBox="0 0 1500 1500">

<path d="M1341.797 67.383c0-20.508-2.93-43.945-20.508-58.594-23.438-17.578-55.664-5.859-82.031 0-125.977 23.438-254.883 49.805-380.859 76.172-64.453 14.648-128.906 26.367-193.359 38.086-32.227 8.789-64.453 14.648-93.75 20.508-23.438 5.859-43.945 14.648-58.594 35.156-14.648 23.438-8.789 46.875-8.789 73.242 0 32.227 0 67.383 0 99.609 0 67.383 0 131.836 0 199.219 0 131.836 0 187.5 0 319.336v2.93c0 35.156 0 67.383 0 102.539 0 29.297 5.859 61.523 0 93.75-8.789 52.734-64.453 55.664-108.398 67.383-52.734 11.719-114.258 20.508-161.133 52.734-76.172 49.805-96.68 155.273-46.875 231.445 55.664 87.891 172.852 93.75 260.742 61.523 49.805-17.578 93.75-49.805 120.117-96.68 23.438-49.805 23.438-111.328 23.438-166.992 0-131.836 0-263.672 0-398.438l-2.93-199.219c0-29.297-2.93-61.523 0-90.82 5.859-49.805 58.594-46.875 96.68-55.664 128.906-26.367 260.742-52.734 389.648-79.102 32.227-5.859 64.453-14.648 96.68-20.508 20.508-5.859 46.875-14.648 64.453-2.93 20.508 11.719 17.578 41.016 17.578 58.594 0 32.227 0 64.453 0 99.609 0 64.453 0 128.906 0 193.359 0 35.156 0 67.383 0 102.539 0 29.297 2.93 61.523 0 90.82-11.719 55.664-67.383 58.594-111.328 67.383-52.734 11.719-114.258 23.438-158.203 52.734-76.172 52.734-96.68 158.203-49.805 234.375 55.664 84.961 172.852 93.75 263.672 61.523 46.875-17.578 93.75-49.805 117.188-96.68 26.367-52.734 23.438-111.328 23.438-166.992 0-134.766 0-266.602 0-398.438 0-134.766 0-266.602 0-398.438 0-70.313 2.93-137.695 2.93-205.078z"></path>
</svg>
