<svg version="1.1" xmlns="http://www.w3.org/2000/svg"   viewBox="0 0 1500 1500">

<path d="M1246.5 697.5c-76.5-79.5-166.5-136.5-265.5-171-3-1.5-7.5-3-10.5-3 1.5-3 3-6 3-9 25.5-66 22.5-136.5-7.5-201-30-63-84-111-150-133.5-40.5-13.5-76.5-19.5-106.5-19.5 0 0-1.5 0-1.5 0s-15-24 30-121.5l-69-39c-6 9-12 16.5-18 25.5-22.5 31.5-43.5 61.5-64.5 90 0 0-1.5-1.5-1.5-1.5-19.5-22.5-46.5-34.5-75-36l-87-6c-1.5 0-4.5 0-6 0-57 0-105 45-109.5 102l-6 87c-3 60 42 111 102 115.5l67.5 4.5c-6 55.5 3 108 25.5 154.5-85.5 34.5-163.5 88.5-231 156-205.5 208.5-205.5 436.5-205.5 621v100.5l79.5-84c16.5 61.5 42 118.5 73.5 172.5h96c-52.5-70.5-88.5-153-105-241.5l133.5-141-63 198 99-72c193.5-141 424.5-172.5 687-96 111 33 219 3 276-76.5 4.5-6 9-12 12-19.5 7.5 34.5 10.5 70.5 10.5 105 0 97.5-16.5 231-85.5 345h91.5c49.5-97.5 75-214.5 75-345 0-168-70.5-334.5-193.5-460.5zM532.5 187.5l-1.5 15c-18 33-33 64.5-43.5 99l-79.5-4.5c-16.5-1.5-28.5-15-27-30l6-87c1.5-15 13.5-27 28.5-27 0 0 1.5 0 1.5 0l87 6c7.5 0 15 4.5 19.5 9 7.5 4.5 10.5 12 9 19.5zM946.5 823.5c-3 1.5-4.5 3-7.5 4.5-1.5 0-3 0-4.5 0-6 0-10.5-3-15-7.5l-19.5-22.5-66 54c-1.5 1.5-4.5 3-9 3s-9-1.5-12-6l-30-36c-4.5-6-4.5-16.5 1.5-21l66-54-25.5-33-33 27c-3 1.5-6 3-9 3-4.5 0-9-1.5-10.5-6l-7.5-7.5c-4.5-6-4.5-16.5 1.5-21l31.5-27-66-81c-7.5-9-6-21 3-27 3-3 7.5-4.5 12-4.5 6 0 10.5 3 15 7.5l186 228c7.5 7.5 6 21-1.5 27zM652.5 1335c0 33.138-26.862 60-60 60s-60-26.862-60-60c0-33.138 26.862-60 60-60s60 26.862 60 60zM1023 1335c0 33.138-26.862 60-60 60s-60-26.862-60-60c0-33.138 26.862-60 60-60s60 26.862 60 60zM429.565 251.489l3.231-52.4 52.4 3.231-3.231 52.4-52.4-3.231z"></path>
</svg>
