<svg version="1.1" xmlns="http://www.w3.org/2000/svg"   viewBox="0 0 1500 1500">

<path d="M561 1500c33 0 57-7.5 81-15 193.5-63 385.5-124.5 579-187.5 54-18 109.5-34.5 162-54s70.5-55.5 63-111c-7.5-45-18-88.5-28.5-132-3-13.5-7.5-25.5-13.5-37.5-15-31.5-37.5-43.5-72-37.5-19.5 3-37.5 9-55.5 15-151.5 49.5-303 99-454.5 148.5-15 4.5-21 1.5-25.5-13.5-52.5-165-106.5-330-159-495-46.5-145.5-85.5-294-135-439.5-10.5-33-21-66-39-96-21-36-46.5-48-87-40.5-75 13.5-145.5 42-217.5 66-25.5 6-49.5 16.5-72 30-31.5 19.5-40.5 42-31.5 76.5 6 27 15 54 24 79.5 57 163.5 120 327 175.5 492 66 198 129 396 195 595.5 12 37.5 25.5 75 45 109.5 13.5 28.5 36 48 66 46.5z"></path>
</svg>
