<svg version="1.1" xmlns="http://www.w3.org/2000/svg"   viewBox="0 0 1500 1500">

<path d="M1142.578 1166.016c-295.898 0-401.367-134.766-454.102-298.828l-55.664-172.852c-41.016-125.977-90.82-222.656-240.234-222.656-105.469 0-210.938 76.172-210.938 287.109 0 164.063 82.031 266.602 202.148 266.602 134.766 0 222.656-99.609 222.656-99.609l55.664 149.414c0 0-93.75 90.82-287.109 90.82-240.234 0-375-140.625-375-401.367 0-272.461 134.766-430.664 386.719-430.664 228.516 0 342.773 82.031 416.016 304.688l55.664 172.852c41.016 125.977 114.258 216.797 287.109 216.797 117.188 0 178.711-26.367 178.711-90.82 0-49.805-29.297-84.961-117.188-105.469l-117.188-29.297c-140.625-32.227-199.219-105.469-199.219-222.656 0-187.5 152.344-246.094 307.617-246.094 175.781 0 281.25 61.523 295.898 216.797l-172.852 20.508c-5.859-73.242-52.734-102.539-134.766-102.539-76.172 0-120.117 32.227-120.117 90.82 0 52.734 20.508 82.031 96.68 99.609l111.328 23.438c146.484 35.156 225.586 108.398 225.586 246.094 0 172.852-143.555 237.305-357.422 237.305z"></path>
</svg>
