<svg version="1.1" xmlns="http://www.w3.org/2000/svg"   viewBox="0 0 1500 1500">

<path d="M1485.352 524.414c-29.297-125.977-102.539-225.586-202.148-307.617-155.273-125.977-333.984-178.711-533.203-181.641-67.383 0-134.766 5.859-199.219 20.508-164.063 38.086-307.617 114.258-416.016 240.234-82.031 96.68-128.906 208.008-134.766 333.984-2.93 128.906 38.086 243.164 120.117 345.703 114.258 140.625 263.672 219.727 436.523 257.813 35.156 5.859 67.383 11.719 99.609 20.508s41.016 23.438 41.016 55.664c0 17.578-2.93 29.297-2.93 43.945-2.93 23.438-11.719 46.875-11.719 70.313-2.93 35.156 11.719 49.805 46.875 38.086 23.438-8.789 46.875-17.578 67.383-32.227 114.258-64.453 225.586-140.625 333.984-222.656 93.75-70.313 184.57-149.414 254.883-246.094 99.609-128.906 137.695-275.391 99.609-436.523zM486.328 820.313c0 5.859-5.859 14.648-14.648 14.648h-208.008c-5.859 0-8.789-2.93-11.719-5.859s-5.859-5.859-5.859-8.789v-328.125c0-8.789 8.789-14.648 17.578-14.648h52.734c5.859 0 14.648 5.859 14.648 14.648v260.742h140.625c8.789 0 14.648 5.859 14.648 14.648zM615.234 820.313c0 5.859-5.859 14.648-14.648 14.648h-52.734c-8.789 0-14.648-5.859-14.648-14.648v-328.125c0-8.789 5.859-14.648 14.648-14.648h52.734c5.859 0 14.648 5.859 14.648 14.648zM975.586 820.313c0 5.859-5.859 14.648-14.648 14.648h-52.734c-2.93 0-2.93 0-2.93 0s0 0-2.93 0c0 0 0 0 0 0-2.93-2.93-2.93-2.93-2.93-2.93l-152.344-202.148v193.359c0 5.859-5.859 14.648-14.648 14.648h-52.734c-5.859 0-14.648-5.859-14.648-14.648v-331.055c0-8.789 5.859-14.648 14.648-14.648h52.734c0 0 0 0 2.93 0 0 0 0 0 0 0s0 0 2.93 0c0 0 0 0 0 0s0 0 2.93 0c0 0 0 0 0 0s0 0 2.93 0c0 0 0 0 0 0s0 0 2.93 0c0 0 0 2.93 0 2.93l152.344 199.219v-187.5c0-8.789 5.859-14.648 14.648-14.648h52.734c5.859 0 14.648 5.859 14.648 14.648v328.125zM1265.625 544.922c0 5.859-5.859 14.648-14.648 14.648h-143.555v55.664h143.555c8.789 0 14.648 5.859 14.648 14.648v52.734c0 8.789-5.859 14.648-14.648 14.648h-143.555v55.664h143.555c8.789 0 14.648 5.859 14.648 14.648v52.734c0 8.789-5.859 14.648-14.648 14.648h-210.938c-2.93 0-5.859 0-8.789-2.93s-5.859-5.859-5.859-11.719v-328.125c0-2.93 2.93-5.859 5.859-8.789s5.859-5.859 8.789-5.859h210.938c8.789 0 14.648 5.859 14.648 14.648z"></path>
</svg>
