<svg version="1.1" xmlns="http://www.w3.org/2000/svg"   viewBox="0 0 1500 1500">

<path d="M750 517.5c-129 0-232.5 105-232.5 232.5s105 232.5 232.5 232.5 232.5-105 232.5-232.5-103.5-232.5-232.5-232.5zM750 934.5c-102 0-184.5-82.5-184.5-184.5s82.5-184.5 184.5-184.5 184.5 82.5 184.5 184.5-82.5 184.5-184.5 184.5zM1123.5 678c-28.5-10.5-51-31.5-63-57-10.5-27-10.5-57 3-85.5 19.5-39 21-70.5 7.5-93-18-28.5-57-31.5-108-7.5-15 7.5-31.5 10.5-46.5 10.5-43.5 0-81-27-96-70.5-21-60-51-72-70.5-72-21 0-49.5 12-72 72-15 42-52.5 70.5-96 70.5-16.5 0-31.5-3-46.5-10.5-51-24-90-19.5-108 7.5-13.5 22.5-12 52.5 7.5 93 13.5 28.5 15 58.5 3 85.5-10.5 27-33 48-63 57-60 21-72 51-72 72s12 49.5 72 72c28.5 10.5 51 31.5 61.5 57 10.5 27 10.5 57-3 85.5-19.5 39-21 70.5-7.5 93 18 28.5 57 31.5 108 7.5 15-7.5 31.5-10.5 46.5-10.5 43.5 0 81 27 96 70.5 21 60 51 72 70.5 72s49.5-12 72-72c15-42 52.5-70.5 96-70.5 16.5 0 31.5 3 46.5 10.5 51 24 90 19.5 108-7.5 13.5-22.5 12-52.5-7.5-93-13.5-28.5-15-58.5-3-85.5 10.5-27 33-48 63-57 60-21 72-51 72-72s-10.5-49.5-70.5-72zM1107 774c-42 15-75 45-91.5 85.5s-15 84 4.5 124.5c13.5 30 12 43.5 10.5 45 0 0-3 1.5-6 1.5-6 0-18-1.5-39-12-22.5-10.5-45-15-67.5-15-64.5 0-120 40.5-142.5 103.5-10.5 30-22.5 39-24 39-3 0-13.5-9-24-39-22.5-63-78-103.5-142.5-103.5-24 0-46.5 4.5-67.5 15s-33 12-39 12c-4.5 0-6-1.5-6-1.5-1.5-1.5-4.5-15 10.5-45 19.5-40.5 21-85.5 4.5-124.5-16.5-40.5-49.5-70.5-91.5-85.5-31.5-10.5-39-22.5-39-24s7.5-13.5 39-24c42-15 75-45 91.5-85.5s15-84-4.5-124.5c-13.5-30-12-43.5-10.5-45 0 0 3-1.5 6-1.5 6 0 18 1.5 39 12 22.5 10.5 45 15 67.5 15 64.5 0 120-40.5 142.5-103.5 10.5-31.5 22.5-39 24-39s13.5 7.5 24 39c22.5 63 78 103.5 142.5 103.5 24 0 46.5-6 67.5-15 21-10.5 33-12 39-12 4.5 0 6 1.5 6 1.5 1.5 1.5 3 15-10.5 45-19.5 40.5-21 85.5-4.5 124.5 16.5 40.5 49.5 70.5 91.5 85.5 31.5 10.5 39 22.5 39 24s-9 13.5-39 24zM1257 886.5l243-136.5-243-136.5 142.5-238.5-279 4.5 4.5-279-238.5 142.5-136.5-243-136.5 243-238.5-142.5 4.5 277.5-279-3 142.5 238.5-243 136.5 243 136.5-142.5 238.5 279-4.5-4.5 279 238.5-142.5 136.5 243 136.5-243 238.5 142.5-4.5-279 279 4.5-142.5-238.5zM1075.5 1314l-208.5-123-117 210-118.5-211.5-207 124.5 3-241.5-241.5 3 123-207-210-118.5 211.5-118.5-123-208.5 241.5 3-3-241.5 208.5 123 115.5-208.5 118.5 211.5 208.5-123-3 241.5 241.5-3-124.5 208.5 210 115.5-211.5 118.5 123 207-241.5-3 4.5 241.5z"></path>
</svg>
