<svg version="1.1" xmlns="http://www.w3.org/2000/svg"   viewBox="0 0 1500 1500">

<path d="M515.625 146.484c0 0 0 0 0 0s0 0 0 0 0 0 0 0zM793.945 87.891c-99.609 0-193.359 20.508-278.32 58.594 5.859 2.93 8.789 5.859 14.648 11.719 14.648 14.648 29.297 29.297 43.945 43.945 2.93 2.93 2.93 2.93 2.93 2.93l503.906 503.906c-155.273 90.82-275.391 213.867-363.281 375l-506.836-506.836c-2.93-2.93-2.93-2.93-5.859-5.859-14.648-17.578-32.227-32.227-46.875-46.875-2.93-2.93-5.859-5.859-8.789-11.719 76.172-166.992 196.289-290.039 369.141-363.281-2.93-2.93-2.93-2.93-2.93-2.93s0 0 0 0c-43.945-43.945-87.891-84.961-128.906-128.906-17.578-14.648-32.227-20.508-52.734-8.789-26.367 11.719-49.805 26.367-73.242 41.016-82.031 55.664-149.414 123.047-205.078 202.148-17.578 26.367-35.156 52.734-49.805 84.961-8.789 17.578-8.789 29.297 8.789 43.945 43.945 43.945 87.891 87.891 131.836 131.836-38.086 84.961-55.664 181.641-55.664 278.32 0 389.648 316.406 706.055 703.125 706.055 389.648 0 706.055-316.406 706.055-706.055 0-386.719-316.406-703.125-706.055-703.125zM867.188 1139.648c58.594-134.766 152.344-225.586 281.25-287.109 23.438 120.117 46.875 234.375 70.313 360.352-123.047-26.367-234.375-49.805-351.563-73.242z"></path>
</svg>
