<svg version="1.1" xmlns="http://www.w3.org/2000/svg"   viewBox="0 0 1500 1500">

<path d="M519 948c0 0 0 0 0 0-1.5 24-1.5 46.5-1.5 70.5 0 132-1.5 265.5 0 397.5 0 51 13.5 64.5 64.5 66 48 1.5 96 1.5 142.5 0 67.5-1.5 81-15 81-84 0-127.5 0-256.5 0-384 0-79.5-1.5-160.5 16.5-240 25.5-106.5 112.5-163.5 228-153 90 7.5 144 73.5 154.5 181.5 10.5 118.5 4.5 237 6 355.5 1.5 87 0 174 1.5 262.5 0 45 15 60 61.5 61.5 52.5 1.5 105 1.5 157.5 1.5 57-1.5 69-13.5 69-70.5 0-115.5 1.5-231 0-345-1.5-121.5 7.5-244.5-6-366-19.5-157.5-99-262.5-237-295.5-153-36-298.5-24-417 97.5-22.5 24-34.5 19.5-46.5-12-3-7.5-6-15-6-24-1.5-39-27-51-61.5-52.5-48-1.5-96-1.5-142.5 0-51 1.5-64.5 16.5-64.5 69 0 156 0 310.5 0 463.5zM0 750c0 0 1.5 0 1.5 0 0 222 0 444 0 666 0 51 12 63 64.5 64.5 54 1.5 109.5 3 163.5 3 73.5 0 88.5-13.5 88.5-87 0-433.5 0-868.5-1.5-1302 0-13.5-1.5-28.5-3-42-3-22.5-19.5-37.5-45-37.5-72 0-144 0-216 0-30 0-48 16.5-49.5 46.5-3 16.5-3 31.5-3 46.5 0 214.5 0 429 0 642z"></path>
</svg>
