<svg version="1.1" xmlns="http://www.w3.org/2000/svg"   viewBox="0 0 1500 1500">

<path d="M1408.5 505.5c-27-45-58.5-87-97.5-123-13.5-13.5-19.5-27-18-46.5 1.5-42 0-82.5 0-124.5 0-39 0-78 0-117 0-9 0-19.5-1.5-28.5-7.5-52.5-57-79.5-105-57-9 4.5-18 10.5-28.5 16.5-70.5 43.5-142.5 85.5-213 130.5-21 13.5-40.5 16.5-64.5 12-60-9-120-16.5-180-7.5-33 4.5-60-4.5-87-21-60-39-121.5-73.5-181.5-111-13.5-10.5-27-18-42-22.5-63-19.5-132 19.5-147 84-3 13.5-3 27-3 40.5 0 57-1.5 112.5 0 169.5 0 25.5-6 45-27 63-37.5 31.5-69 67.5-96 108-133.5 199.5-156 409.5-51 628.5 70.5 148.5 187.5 252 336 322.5 153 73.5 315 91.5 483 66 171-25.5 319.5-100.5 438-226.5 114-120 177-264 178.5-432 0-115.5-33-223.5-93-324zM1302 1093.5c-52.5 84-123 147-207 196.5-88.5 51-213 91.5-319.5 88.5-187.5 0-334.5-49.5-462-154.5-90-75-153-169.5-180-283.5-36-151.5-1.5-289.5 88.5-414 27-37.5 60-72 97.5-100.5 27-21 39-45 37.5-79.5-1.5-55.5 0-112.5 0-169.5 0-10.5 0-21 0-31.5 1.5-13.5 7.5-18 18-12s21 12 31.5 18c61.5 37.5 124.5 75 186 112.5 21 13.5 43.5 19.5 69 16.5 48-4.5 96-6 144-3 166.5 13.5 310.5 76.5 427.5 196.5 88.5 91.5 138 201 145.5 327 7.5 106.5-19.5 204-76.5 292.5z"></path>
</svg>
