<svg version="1.1" xmlns="http://www.w3.org/2000/svg"   viewBox="0 0 1500 1500">

<path d="M187.5 1054.688c-32.227 0-76.172-5.859-117.188-41.016-43.945-38.086-70.313-99.609-70.313-166.992v-606.445h210.938v606.445c0 105.469 46.875 161.133 73.242 181.641-17.578 11.719-55.664 26.367-96.68 26.367zM849.609 1037.109c-5.859 0-14.648 0-20.508 0v-521.484c0-164.063 131.836-295.898 292.969-295.898 137.695 0 260.742 99.609 287.109 231.445l2.93 5.859h76.172v210.938h-70.313v73.242c0 43.945 35.156 82.031 79.102 84.961v208.008c-155.273-5.859-284.18-134.766-284.18-292.969v-228.516c0-46.875-38.086-87.891-87.891-87.891-43.945 0-82.031 35.156-84.961 79.102v87.891h117.188v208.008h-117.188v29.297c0 70.313-23.438 131.836-67.383 166.992-38.086 29.297-76.172 41.016-123.047 41.016zM471.68 1274.414c-43.945 0-90.82-5.859-137.695-20.508v-187.5c29.297 8.789 70.313 20.508 108.398 20.508 5.859 0 11.719 0 17.578 0 64.453-5.859 108.398-38.086 114.258-84.961l2.93-29.297-20.508 20.508c0 0-41.016 38.086-105.469 38.086-20.508 0-38.086-2.93-58.594-5.859-102.539-29.297-125.977-114.258-125.977-181.641v-386.719h210.938v328.125c0 26.367 17.578 43.945 43.945 43.945 23.438 0 43.945-20.508 43.945-43.945v-325.195h208.008v515.625c0 149.414-87.891 260.742-219.727 287.109-26.367 11.719-52.734 11.719-82.031 11.719z"></path>
</svg>
