<svg version="1.1" xmlns="http://www.w3.org/2000/svg"   viewBox="0 0 1500 1500">

<path d="M1449 492c0-325.5-213-421.5-213-421.5-106.5-48-291-69-483-70.5h-4.5c-192 1.5-376.5 22.5-484.5 72 0 0-213 96-213 421.5 0 75-1.5 163.5 1.5 258 7.5 318 57 631.5 352.5 709.5 135 36 252 43.5 346.5 39 169.5-9 265.5-60 265.5-60l-6-123c0 0-121.5 39-258 33-135-4.5-277.5-15-300-180-1.5-15-3-30-3-46.5 0 0 133.5 33 301.5 40.5 103.5 4.5 199.5-6 297-18 187.5-22.5 351-138 372-244.5 31.5-169.5 28.5-409.5 28.5-409.5zM1198.5 912h-156v-382.5c0-81-34.5-121.5-102-121.5-75 0-112.5 48-112.5 144v210h-156v-210c0-96-37.5-144-112.5-144-67.5 0-102 40.5-102 121.5v382.5h-156v-394.5c0-81 21-144 61.5-192 42-48 97.5-72 166.5-72 79.5 0 141 30 180 91.5l39 64.5 39-64.5c40.5-61.5 100.5-91.5 180-91.5 69 0 124.5 24 166.5 72 40.5 48 61.5 111 61.5 192v394.5z"></path>
</svg>
