<svg version="1.1" xmlns="http://www.w3.org/2000/svg"   viewBox="0 0 1500 1500">

<path d="M1002.209 1093.83c4.649 109.995 56.61 192.3 156.45 236.596 83.55 37.065 173.865 48.555 265.529 31.68 49.68-9.166 74.58-34.755 75.75-75.346 1.32-46.38-18.075-70.214-70.935-82.56-36.81-8.596-74.851-12.166-111.375-21.69-55.050-14.37-74.88-41.64-74.61-97.695 0.105-18.18 2.101-36.63 5.67-54.48 21.541-107.685 69.36-205.8 112.305-305.67 46.26-107.596 102.075-211.74 119.971-329.685 14.084-92.745-43.38-182.82-134.19-202.755-66.495-14.58-133.649-17.070-195.255 21.464-24.045 15.045-46.036 12.765-66.615-6.959-10.575-10.14-22.214-19.14-32.971-29.101-65.791-60.976-148.8-63.27-218.565-5.55-16.935 14.024-33.089 28.995-49.77 43.334-36.57 31.471-74.161 42.315-120.39 16.096-42.36-24.029-86.024-47.445-133.425-60.27-105.105-28.395-234.63 40.68-284.596 151.291-30.721 67.995-55.351 138.42-79.005 209.175-57.721 172.755-113.73 346.17-159.286 522.48-27.779 107.52 30.765 204.899 132.015 237.541 116.52 37.56 203.19 0.015 250.5-112.334 44.101-104.745 84.825-210.93 127.036-316.5 40.846-102.135 80.925-204.601 122.925-306.27 16.575-40.14 54.75-59.64 87.524-49.395 34.83 10.89 54.855 50.115 46.545 92.925-2.55 13.125-6.661 26.084-11.37 38.654-17.52 46.935-35.235 93.825-53.52 140.476-33.899 86.49-69.93 172.185-101.865 259.365-20.58 56.175-3.27 100.62 39.69 118.635 49.305 20.714 111.57 7.411 148.695-31.56 19.695-20.654 32.565-45.601 45.3-70.74 87.346-172.291 174.765-344.536 262.26-516.75 12.765-25.125 25.98-50.13 48.045-68.64 19.245-16.14 41.265-22.245 64.695-10.635 23.955 11.88 24.675 34.62 22.32 57.226-2.279 22.2-11.955 42.209-21.346 62.13-62.58 132.675-125.43 265.2-187.8 397.964-17.295 36.899-28.44 75.51-26.339 117.555z"></path>
</svg>
