<svg version="1.1" xmlns="http://www.w3.org/2000/svg"   viewBox="0 0 1500 1500">

<path d="M1371.094 1192.383c-8.789 0-17.578-2.93-26.367-8.789-23.438-14.648-29.297-46.875-14.648-70.313 46.875-67.383 70.313-149.414 70.313-231.445 0-84.961-23.438-164.063-70.313-231.445-14.648-23.438-8.789-55.664 14.648-70.313 20.508-14.648 52.734-8.789 67.383 14.648 58.594 84.961 87.891 184.57 87.891 287.109s-29.297 202.148-87.891 287.109c-8.789 14.648-23.438 23.438-41.016 23.438zM1227.539 1110.352c-8.789 0-17.578-2.93-26.367-8.789-23.438-14.648-29.297-46.875-14.648-67.383 32.227-46.875 46.875-99.609 46.875-152.344 0-55.664-14.648-105.469-46.875-152.344-14.648-23.438-8.789-52.734 14.648-67.383 23.438-17.578 52.734-11.719 67.383 11.719 43.945 61.523 64.453 134.766 64.453 208.008s-20.508 146.484-64.453 208.008c-8.789 14.648-23.438 20.508-41.016 20.508zM996.094 665.039c-20.508-199.219-190.43-357.422-395.508-357.422-169.922 0-319.336 108.398-375 269.531-125.977 17.578-225.586 128.906-225.586 260.742 0 146.484 120.117 266.602 266.602 266.602h679.688c123.047 0 222.656-99.609 222.656-222.656 0-105.469-73.242-196.289-172.852-216.797zM946.289 1004.883h-679.688c-90.82 0-166.992-76.172-166.992-166.992s76.172-164.063 166.992-164.063c43.945 0 84.961 14.648 117.188 46.875 20.508 20.508 49.805 20.508 70.313 0 20.508-17.578 20.508-49.805 0-70.313-35.156-35.156-76.172-58.594-123.047-70.313 46.875-102.539 152.344-172.852 269.531-172.852 164.063 0 295.898 131.836 295.898 295.898 0 32.227-2.93 64.453-14.648 93.75-8.789 26.367 5.859 52.734 32.227 61.523 5.859 2.93 11.719 2.93 14.648 2.93 23.438 0 41.016-11.719 49.805-35.156 5.859-17.578 11.719-38.086 14.648-58.594 43.945 17.578 76.172 61.523 76.172 114.258 0 67.383-52.734 123.047-123.047 123.047z"></path>
</svg>
