<svg version="1.1" xmlns="http://www.w3.org/2000/svg"   viewBox="0 0 1500 1500">

<path d="M339.932 227.578c-46.172-62.373-136.875-72.1-196.025-18.633-51.035 46.992-55.078 126.357-13.77 182.256l266.484 357.188-268.096 360.439c-41.309 55.898-38.057 135.264 13.77 182.256 59.121 53.467 149.854 43.74 196.025-18.633l374.209-502.998c8.906-12.158 8.906-29.15 0-41.309l-372.598-500.566zM1161.24 227.578c46.172-62.373 136.875-72.1 196.025-18.633 51.035 46.992 55.078 126.357 13.77 182.256l-266.484 357.188 268.096 360.439c41.309 55.898 38.057 135.264-13.77 182.256-59.121 53.467-149.854 43.74-196.025-18.633l-373.389-503.818c-8.906-12.158-8.906-29.15 0-41.309l371.777-499.746z"></path>
</svg>
