<svg version="1.1" xmlns="http://www.w3.org/2000/svg"   viewBox="0 0 1500 1500">

<path d="M1174.62 344.625c-9.81-79.964-40.245-151.351-92.339-212.221-56.399-65.911-122.279-118.605-211.815-132.404-24.615 0-49.214 0-73.83 0-7.935 9.36-6.149 20.745-6.166 31.56-0.149 98.221 0.166 196.44-0.18 294.661-0.226 59.971 7.020 51.601-52.904 52.185-31.365 0.315-31.62-0.166-31.649-30.87-0.060-105.315 0.045-210.645-0.105-315.976 0-10.815 1.77-22.2-6.149-31.56-23.325 0-46.635 0-69.959 0-15.93 4.74-32.73 4.395-48.69 10.635-39.149 15.3-73.125 38.82-105.705 64.32-52.44 41.041-90.435 93.899-117.93 154.096-20.82 45.57-30.825 94.125-34.666 144 0 23.325 0 46.635 0 69.945 4.68 9.105 1.77 19.036 2.834 28.529 11.175 99.51 54.75 183.541 127.83 249.959 28.425 25.83 35.596 51.555 35.31 87.135-1.38 178.471-0.976 356.985-0.435 535.471 0.166 57.57 19.274 105.945 71.070 138.045 20.925 12.959 44.19 12.524 66.495 17.851 84.195 0 168.39 0 252.584 0 5.101-3.81 11.339-2.43 16.875-2.851 40.425-3.135 70.080-23.67 93.255-55.605 21.57-29.7 27.346-64.020 27.42-99.24 0.435-188.834 0.346-377.67-0.029-566.505-0.029-17.536 5.355-29.76 18.899-41.76 56.101-49.77 97.86-109.589 122.084-181.23 12.075-35.745 17.115-72.584 20.745-109.8 0-23.31 0-46.62 0-69.945-4.83-9.029-1.695-18.959-2.851-28.425zM922.2 685.005c-4.726 3.135-10.786 4.695-13.589 10.395 0.029 19.56 0.060 39.089 0.089 58.649 0.209 109.964 0.48 219.945 0.615 329.911 0.089 88.649 0.029 177.286 0 265.935-0.015 32.445-15.825 48.825-48.63 48.976-72.45 0.315-144.93 0.315-217.38 0-32.73-0.149-48.721-16.649-48.735-48.976-0.029-193.455-0.015-386.911 0.015-580.351 0-5.175 0.39-10.32 0.601-15.48-0.209-19.485-0.42-38.971-0.645-58.44-81.209-47.505-136.83-114.87-160.709-206.925-42.029-162 50.43-336.464 207.36-387.435 0 6.045 0 11.459 0 16.875 0 91.26 0 182.52 0 273.779 0 36.825 5.31 42.029 42.81 42.045 45.945 0 91.89 0.089 137.865-0.045 27.51-0.075 33.045-5.625 33.045-32.61 0.029-95.145 0.346-190.291-0.315-285.42-0.12-16.125 4.395-16.605 17.115-10.935 120.675 53.865 192.541 145.68 202.98 277.56 10.23 129.33-43.875 230.73-152.49 302.49z"></path>
</svg>
