<svg version="1.1" xmlns="http://www.w3.org/2000/svg"   viewBox="0 0 1500 1500">

<path d="M1497.070 867.188c-2.93-61.523-5.859-120.117-23.438-178.711-14.648-55.664-41.016-108.398-73.242-158.203-29.297-43.945-67.383-87.891-117.188-114.258-46.875-23.438-96.68-29.297-149.414-23.438-123.047 14.648-216.797 99.609-295.898 193.359-41.016 46.875-79.102 99.609-117.188 152.344-8.789 17.578-20.508 32.227-29.297 49.805-8.789 11.719-14.648 29.297-26.367 38.086-20.508 20.508-32.227-49.805-35.156-61.523-35.156-128.906-67.383-263.672-125.977-386.719-23.438-49.805-49.805-99.609-87.891-137.695-41.016-41.016-90.82-43.945-149.414-43.945-26.367 5.859-49.805 5.859-73.242 29.297-23.438 20.508-46.875 41.016-67.383 61.523s-38.086 46.875-64.453 61.523c-20.508 11.719-46.875 8.789-55.664 32.227-14.648 26.367 2.93 55.664 2.93 84.961 0 32.227 5.859 99.609 5.859 99.609s0 70.313 0 105.469c0 17.578 0 35.156 0 52.734 0 14.648 0 43.945 0 43.945v418.945c0 0-5.859 61.523 8.789 82.031 11.719 20.508 38.086 17.578 58.594 17.578 41.016 2.93 93.75 5.859 99.609-43.945 5.859-32.227 2.93-64.453 2.93-96.68 0-35.156 0-73.242 0-108.398 0-140.625-23.438-284.18 2.93-424.805 5.859-41.016 29.297-134.766 87.891-120.117 52.734 11.719 87.891 82.031 105.469 125.977 49.805 128.906 76.172 266.602 105.469 401.367 5.859 35.156 11.719 70.313 23.438 102.539 5.859 23.438 11.719 49.805 35.156 58.594 43.945 26.367 108.398-2.93 143.555-32.227 49.805-38.086 82.031-87.891 108.398-143.555 32.227-61.523 61.523-123.047 90.82-187.5 26.367-52.734 43.945-111.328 93.75-149.414 41.016-29.297 99.609-49.805 149.414-43.945 134.766 8.789 166.992 190.43 169.922 295.898 2.93 70.313-5.859 140.625-8.789 210.938-2.93 35.156-2.93 70.313-2.93 105.469 0 14.648-2.93 35.156 5.859 49.805 17.578 29.297 76.172 17.578 102.539 14.648 38.086-2.93 52.734-20.508 67.383-58.594 20.508-61.523 29.297-123.047 32.227-190.43 2.93-61.523 5.859-123.047 0-184.57z"></path>
</svg>
