<svg version="1.1" xmlns="http://www.w3.org/2000/svg"   viewBox="0 0 1500 1500">

<path d="M891 1426.5c0-40.5-57-73.5-127.5-73.5 0 0 0 0 0 0-34.5 0-66 7.5-90 22.5-24 13.5-37.5 31.5-37.5 51 0 40.5 57 73.5 127.5 73.5 0 0 0 0 0 0 34.5 0 66-7.5 90-22.5 24-13.5 37.5-31.5 37.5-51v0zM381 547.5c0 0 0 0 0 0-1.5-1.5-3-3-4.5-3 0 0 0 0 0 0-1.5 0-1.5 0-3-1.5 0 0 0 0 0 0-1.5 0-1.5 0-3 0h-25.5c-9 0-15 6-15 15v777c0 7.5 7.5 15 15 15h25.5c9 0 15-6 15-15v-777c0-4.5-1.5-7.5-4.5-10.5v0zM511.5 114h1.5v1.5c0 40.5 0 81 0 120 0 66 0 133.5 1.5 199.5 3 40.5 24 81 57 109.5s75 42 115.5 39c19.5 0 37.5 0 57 0 34.5 0 72 1.5 106.5-3 79.5-15 138-94.5 129-178.5v-289.5h1.5c31.5-3 60 9 85.5 30 30 27 49.5 69 52.5 108 1.5 66 1.5 133.5 0 199.5 0 27 0 55.5 0 84 3-1.5 4.5-1.5 7.5-1.5h25.5c12 0 21 9 21 19.5v13.5h1.5v-21h3c18 1.5 37.5 6 55.5 12v-306c-4.5-37.5-10.5-76.5-27-108-45-91.5-154.5-150-265.5-141v0 0c-30-4.5-61.5 16.5-70.5 45 0 121.5 1.5 249 0 378-1.5 25.5-15 49.5-34.5 66-21 18-48 25.5-75 22.5-39 1.5-79.5-1.5-105-33-27-28.5-25.5-66-25.5-102 0-10.5 0-21 0-31.5 0-28.5 0-57 0-85.5 0-72 0-147 0-222-15-28.5-46.5-45-81-40.5h-12c-120-3-232.5 78-261 187.5-6 25.5-9 51-10.5 81v294c18-6 34.5-10.5 52.5-12h3v6c0-10.5 9-19.5 19.5-19.5h25.5c4.5 0 7.5 1.5 12 3 0-30 0-60 0-90 0-64.5 0-132 0-198 7.5-66 60-138 133.5-136.5-1.5-1.5 0-1.5 0 0zM1377 678c-45-63-105-106.5-169.5-121.5 0 0-1.5 0-1.5 0-4.5-1.5-7.5-1.5-12-3s-9-1.5-13.5-1.5v792c75-9 144-54 196.5-126 52.5-73.5 81-169.5 81-270s-28.5-196.5-81-270zM298.5 559.5c-1.5 0-3 0-4.5 1.5-3 1.5-6 1.5-10.5 3 0 0-1.5 0-1.5 0-3 1.5-7.5 1.5-10.5 3 0 0 0 0 0 0v0c-57 19.5-108 58.5-148.5 115.5-52.5 73.5-81 169.5-81 270s28.5 196.5 81 270c51 72 121.5 117 196.5 126v-793.5c-4.5 0-9 1.5-12 1.5-4.5 1.5-6 1.5-9 3zM1153.5 538.5h-25.5c-1.5 0-1.5 0-3 0 0 0 0 0-1.5 0 0 0 0 0-1.5 0-6 1.5-10.5 7.5-10.5 13.5v777c0 7.5 7.5 15 16.5 15h25.5c9 0 16.5-6 16.5-15v-775.5c0-9-7.5-15-16.5-15zM1179 1348.5h-3v-25.5c0 0-1.5 0-1.5 0v6c0 10.5-9 19.5-21 19.5h-3c-1.5 1.5-1.5 1.5-3 3-15 10.5-28.5 21-43.5 31.5-13.5 9-28.5 18-42 25.5-10.5 4.5-19.5 6-19.5 6h-148.5c1.5 4.5 1.5 9 1.5 13.5v0c0 9-1.5 16.5-6 24 1.5 0 1.5 0 3 0h159c3 0 16.5-4.5 25.5-7.5 19.5-9 33-19.5 55.5-33 24-15 69-51 69-51 6-3 7.5-9 7.5-15-10.5 1.5-19.5 3-30 3zM579 978c-3-3-9-4.5-15-4.5s-15 0-24 0h-10.5v105h3c15 0 25.5 0 31.5 0s12-3 18-7.5c4.5-4.5 9-10.5 12-18s3-16.5 3-27l-4.5-30c-3-9-7.5-15-13.5-18zM556.5 901.5c4.5 0 7.5-3 12-6 4.5-4.5 7.5-9 9-16.5s3-15 3-24c0-6-1.5-13.5-3-21s-4.5-12-9-15c-4.5-3-9-4.5-13.5-4.5s-13.5 0-22.5 0h-4.5v88.5h7.5c10.5-1.5 18-1.5 21-1.5zM1068 694.5h-633v502.5h631.5v-502.5zM649.5 1081.5c-4.5 15-10.5 28.5-18 39-9 12-18 21-28.5 27-10.5 4.5-24 7.5-39 7.5h-91.5v-418.5h81c16.5 0 30 1.5 39 3 9 3 16.5 7.5 24 15s15 19.5 18 33c4.5 13.5 6 28.5 6 46.5 0 21-3 39-9 54-6 16.5-13.5 27-22.5 34.5v1.5c13.5 6 25.5 16.5 34.5 33s13.5 39 13.5 67.5c-1.5 22.5-3 40.5-7.5 57zM844.5 1158h-159v-424.5h63v337.5h96v87zM1026 820.5h-96v67.5h88.5v84h-88.5v100.5h96v87h-159v-426h159v87z"></path>
</svg>
