<svg version="1.1" xmlns="http://www.w3.org/2000/svg"   viewBox="0 0 1500 1500">

<path d="M529.589 424.365h-141.839l-124.365 167.714-121.545-167.714h-141.839v570.795h149.536v-345.105h1.395l112.455 153.69 115.291-153.69h1.455v345.089h149.476v-570.779zM1062.12 570.555h-149.49v115.26h-148.815c5.52-17.024 14.25-35.73 26.221-56.13 12.029-20.399 31.815-38.084 59.49-53.055 27.69-14.971 67.8-22.8 120.36-23.58h117.36l-34.89-128.55h-73.395c-53.791-1.080-103.935 4.455-150.555 16.74-46.605 12.195-89.805 37.83-129.57 76.92-35.505 36.39-61.485 78.495-78.075 126.45-16.605 47.88-24.839 97.020-24.69 147.435 0.315 50.596 8.205 100.096 23.7 148.351 15.524 48.3 37.23 93.36 65.041 135.286l121.56-80.355c-16.68-27.375-30.27-56.295-40.666-86.805-10.411-30.495-15.93-61.89-16.589-94.125h163.485v180.93h149.49v-424.77zM1303.709 424.365h-149.536v570.795h310.935l34.89-128.55h-196.291v-442.245z"></path>
</svg>
