<svg version="1.1" xmlns="http://www.w3.org/2000/svg"   viewBox="0 0 1500 1500">

<path d="M1239.258 817.383c143.555 0 260.742 114.258 260.742 260.742 0 46.875 0 131.836 0 131.836h-524.414c0 0 0-84.961 0-131.836 0-146.484 117.188-260.742 263.672-260.742zM999.023 530.273c0-131.836 105.469-240.234 240.234-240.234 131.836 0 240.234 108.398 240.234 240.234 0 134.766-108.398 240.234-240.234 240.234-134.766 0-240.234-105.469-240.234-240.234zM697.266 858.398c128.906 0 234.375 105.469 234.375 234.375 0 41.016 0 117.188 0 117.188h-465.82c0 0 0-76.172 0-117.188 0-128.906 102.539-234.375 231.445-234.375zM483.398 597.656c0-120.117 96.68-216.797 213.867-216.797 120.117 0 216.797 96.68 216.797 216.797 0 117.188-96.68 213.867-216.797 213.867s-213.867-96.68-213.867-213.867zM208.008 893.555c117.188 0 210.938 93.75 210.938 210.938 0 38.086 0 105.469 0 105.469h-418.945c0 0 0-67.383 0-105.469 0-117.188 93.75-210.938 208.008-210.938zM14.648 659.18c0-108.398 87.891-193.359 193.359-193.359 108.398 0 193.359 84.961 193.359 193.359 0 105.469-84.961 193.359-193.359 193.359-105.469 0-193.359-87.891-193.359-193.359z"></path>
</svg>
