<svg version="1.1" xmlns="http://www.w3.org/2000/svg"   viewBox="0 0 1500 1500">

<path d="M903.99 1072.964c-42.779 41.339-95.52 72.705-152.536 92.73-57.060-18.57-108.404-51.39-151.14-92.73h303.675zM466.26 468.435c-59.911-49.935-131.19-88.455-209.596-109.846v489.060c0 273.721 221.010 493.411 496.185 493.411 275.221 0 496.17-219.69 496.17-493.411v-489.060c-78.404 21.39-149.64 58.455-209.64 109.846-81.209-57.105-178.185-91.365-285.089-91.365-108.375 1.455-208.17 34.274-288.029 91.365zM467.67 325.786c84.149-44.13 181.096-68.43 285.18-68.43 102.645 0 199.62 25.649 283.815 68.43 19.935-12.779 41.25-24.195 61.274-34.245-91.274-84.029-212.445-135.404-345.089-135.404-134.010 0-255.226 51.39-346.5 135.404 18.541 10.036 41.385 22.83 61.32 34.245zM286.589 245.94c114.105-126.885 279.464-208.185 464.865-208.185 185.339 0 350.76 79.846 464.851 208.185 48.42-12.855 99.795-21.39 151.096-21.39v209.64c79.846 49.935 132.601 138.315 132.601 239.459 0 101.25-52.755 189.69-134.055 239.64l-1.365 5.625c-32.805 308.055-298.080 543.33-617.43 543.33-319.395 0-581.73-239.64-614.55-548.985-79.846-49.92-132.601-139.74-132.601-239.625 0-101.145 52.755-189.524 132.601-239.459v-209.625c54.195 1.44 105.541 8.52 153.99 21.39zM905.43 847.666c82.666-9.976 221.055-8.52 221.055-8.52-2.895 24.195 0 98.339-79.935 142.575-12.795 8.52-45.584 18.48-76.95 19.935-76.95 2.82-185.339 4.351-185.339 4.351 19.935-85.575 52.755-149.82 121.17-158.339zM597.464 847.666c68.43 8.52 101.25 72.779 119.774 158.339 0 0-108.39-1.545-185.385-4.351-31.351-1.455-64.17-12.855-76.995-19.935-79.86-45.615-77.010-118.38-79.86-142.589 0 0 139.755 0 222.464 8.536zM896.911 1239.825c-41.416 25.56-91.351 39.885-145.455 39.885-54.195 0-104.084-14.325-145.471-39.885 0 0 2.851-17.205 11.416-28.635 9.976-15.675 18.524-19.935 18.524-19.935 35.67 10.065 74.145 15.675 115.515 15.675 39.959 0 79.846-5.61 115.471-15.675 0 0 11.416 5.805 21.39 21.48 7.154 15.675 8.61 27.089 8.61 27.089z"></path>
</svg>
