<svg version="1.1" xmlns="http://www.w3.org/2000/svg"   viewBox="0 0 1500 1500">

<path d="M802.734 1283.203l128.906-93.75c0-5.859 0-8.789 0-11.719 0-58.594 46.875-108.398 105.469-108.398s108.398 49.805 108.398 108.398c0 58.594-49.805 105.469-108.398 105.469-20.508 0-41.016-5.859-55.664-17.578l-178.711 128.906v105.469h-105.469v-316.406l-181.641-131.836c-17.578 8.789-35.156 14.648-52.734 14.648-58.594 0-108.398-49.805-108.398-108.398s49.805-105.469 108.398-105.469c58.594 0 105.469 46.875 105.469 105.469 0 5.859 0 11.719-2.93 17.578l131.836 96.68v-316.406l-181.641-131.836c-17.578 8.789-35.156 14.648-52.734 14.648-58.594 0-108.398-49.805-108.398-108.398s49.805-105.469 108.398-105.469c58.594 0 105.469 46.875 105.469 105.469 0 5.859 0 14.648-2.93 20.508l131.836 93.75v-295.898l-184.57-134.766c-14.648 8.789-32.227 14.648-49.805 14.648-58.594 0-108.398-46.875-108.398-105.469s49.805-108.398 108.398-108.398c58.594 0 105.469 49.805 105.469 108.398 0 5.859 0 11.719-2.93 17.578l131.836 96.68v-237.305h105.469v448.242l128.906-93.75c0-5.859 0-11.719 0-14.648 0-58.594 46.875-108.398 105.469-108.398s108.398 49.805 108.398 108.398c0 58.594-49.805 105.469-108.398 105.469-20.508 0-38.086-5.859-55.664-14.648l-178.711 128.906v295.898l128.906-93.75c0-5.859 0-8.789 0-11.719 0-61.523 46.875-108.398 105.469-108.398s108.398 46.875 108.398 108.398c0 58.594-49.805 105.469-108.398 105.469-20.508 0-38.086-5.859-55.664-17.578l-178.711 131.836v313.477z"></path>
</svg>
