<svg version="1.1" xmlns="http://www.w3.org/2000/svg"   viewBox="0 0 1500 1500">

<path d="M1371 339h-501l259.5-259.5c7.5-7.5 7.5-21 0-30l-43.5-43.5c-7.5-7.5-21-7.5-30 0l-310.5 310.5-310.5-310.5c-7.5-7.5-21-7.5-30 0l-43.5 43.5c-7.5 7.5-7.5 21 0 30l259.5 259.5h-492c-57 0-103.5 46.5-103.5 103.5v796.5c0 57 46.5 103.5 103.5 103.5h133.5c0 1.5 1.5 3 3 3l123 145.5c4.5 4.5 9 7.5 15 7.5 0 0 0 0 0 0 6 0 10.5-3 15-6l138-145.5c1.5-1.5 3-3 3-4.5h370.5c0 1.5 1.5 3 3 3l123 145.5c4.5 4.5 9 7.5 15 7.5 0 0 0 0 0 0 6 0 10.5-3 15-6l138-145.5c1.5-1.5 3-3 3-4.5h141c57 0 103.5-46.5 103.5-103.5v-796.5c3-57-43.5-103.5-100.5-103.5zM561 576c0 0-280.5 28.5-286.5 309v42c0 57-55.5 102-112.5 102 0 0 0 0 0 0v0c0 0 0 0 0 0-57 0-82.5-46.5-82.5-103.5v-429c0-57 46.5-103.5 103.5-103.5h378c57 0 103.5 7.5 103.5 75 1.5 57-16.5 103.5-103.5 108z"></path>
</svg>
