<svg version="1.1" xmlns="http://www.w3.org/2000/svg"   viewBox="0 0 1500 1500">

<path d="M632.813 395.508c-123.047 0-237.305 38.086-333.984 99.609-11.719 8.789-20.508 14.648-32.227 14.648h-146.484c-32.227 0-58.594 26.367-58.594 55.664h-2.93v878.906c0 29.297 26.367 52.734 58.594 52.734h187.5c32.227 0 58.594-23.438 58.594-52.734v-500.977c0-143.555 120.117-257.813 269.531-257.813 146.484 0 266.602 114.258 266.602 257.813v500.977c0 29.297 26.367 55.664 58.594 55.664h187.5c29.297 0 58.594-26.367 58.594-55.664v-500.977c-2.93-301.758-254.883-547.852-571.289-547.852zM1429.688 398.438c-172.852-240.234-465.82-398.438-796.875-398.438-146.484 0-284.18 29.297-410.156 84.961-20.508 8.789-29.297 32.227-20.508 55.664 11.719 20.508 35.156 29.297 55.664 20.508 114.258-52.734 240.234-79.102 375-79.102 301.758 0 571.289 143.555 732.422 366.211 11.719 17.578 38.086 20.508 55.664 8.789 20.508-14.648 23.438-41.016 8.789-58.594zM632.813 184.57c-114.258 0-225.586 23.438-328.125 67.383-20.508 11.719-29.297 32.227-20.508 52.734 11.719 23.438 35.156 32.227 55.664 23.438 90.82-41.016 190.43-61.523 295.898-61.523 228.516 0 448.242 105.469 580.078 284.18 5.859 11.719 20.508 17.578 32.227 17.578 8.789 0 17.578-2.93 23.438-8.789 17.578-14.648 20.508-38.086 8.789-55.664-149.414-199.219-392.578-319.336-647.461-319.336z"></path>
</svg>
