<svg version="1.1" xmlns="http://www.w3.org/2000/svg"   viewBox="0 0 1500 1500">

<path d="M750 758.789c210.938 0 380.859-169.922 380.859-377.93 0-210.938-169.922-380.859-380.859-380.859s-380.859 169.922-380.859 380.859c0 208.008 169.922 377.93 380.859 377.93zM750 193.359c102.539 0 187.5 82.031 187.5 187.5 0 102.539-84.961 184.57-187.5 184.57s-187.5-82.031-187.5-184.57c0-105.469 84.961-187.5 187.5-187.5zM1186.523 805.664c-20.508-43.945-79.102-79.102-158.203-17.578-108.398 84.961-278.32 84.961-278.32 84.961s-169.922 0-278.32-84.961c-79.102-61.523-137.695-26.367-158.203 17.578-38.086 76.172 2.93 111.328 99.609 172.852 82.031 52.734 193.359 70.313 263.672 79.102l-58.594 61.523c-84.961 82.031-166.992 164.063-225.586 222.656-32.227 32.227-32.227 87.891 0 123.047l11.719 8.789c35.156 35.156 87.891 35.156 123.047 0l222.656-222.656c84.961 84.961 166.992 166.992 225.586 222.656 32.227 35.156 87.891 35.156 123.047 0l8.789-8.789c35.156-35.156 35.156-90.82 0-123.047l-284.18-284.18c73.242-8.789 184.57-26.367 263.672-79.102 96.68-61.523 137.695-96.68 99.609-172.852z"></path>
</svg>
