<svg version="1.1" xmlns="http://www.w3.org/2000/svg"   viewBox="0 0 1500 1500">

<path d="M750 0c-414 0-750 336-750 750s336 750 750 750 750-336 750-750-336-750-750-750zM306 1107c-96-118.5-139.5-267-123-418.5s90-286.5 208.5-382.5c85.5-69 187.5-111 297-123l7.5 73.5c-94.5 10.5-184.5 46.5-259.5 106.5-103.5 82.5-168 201-181.5 333s24 261 106.5 364.5l-55.5 46.5zM1194 1107l-57-46.5c60-75 97.5-163.5 106.5-258 15-141-31.5-273-115.5-373.5l-93 91.5c6 6 10.5 13.5 15 19.5 115.5 165 75 394.5-90 510-54 37.5-112.5 58.5-174 64.5v129c97.5-7.5 193.5-43.5 274.5-108l46.5 57c-102 84-229.5 126-357 126s-253.5-42-358.5-126l46.5-57c81 64.5 177 100.5 274.5 108v-129c-102-10.5-199.5-63-262.5-154.5-88.5-126-88.5-295.5 0-421.5l60 42c-70.5 100.5-70.5 235.5 0 336 93 132 276 165 408 72s165-276 72-408c-93-132-276-165-408-72l-42-58.5c138-96 319.5-84 442.5 18l91.5-91.5c-73.5-64.5-168-108-273-118.5l7.5-73.5c313.5 33 541.5 313.5 508.5 625.5-12 109.5-55.5 211.5-123 297zM834 723c-7.5-22.5-22.5-40.5-43.5-51s-45-12-67.5-6c-22.5 7.5-40.5 22.5-51 43.5-22.5 43.5-4.5 96 37.5 118.5l-33 66c-39-19.5-67.5-52.5-79.5-94.5-13.5-40.5-9-85.5 10.5-123 19.5-39 52.5-67.5 94.5-79.5 40.5-13.5 85.5-9 123 10.5 39 19.5 67.5 52.5 79.5 94.5 13.5 40.5 9 85.5-10.5 123-15 30-40.5 54-70.5 70.5l-33-66c16.5-9 30-21 37.5-37.5 10.5-24 12-46.5 6-69z"></path>
</svg>
