<svg version="1.1" xmlns="http://www.w3.org/2000/svg"   viewBox="0 0 1500 1500">

<path d="M1248.047 190.43c-131.836-117.188-304.688-190.43-495.117-190.43 0 0 0 0-2.93 0-413.086 0-750 336.914-750 750 0 401.367 316.406 729.492 714.844 747.070 11.719 0 23.438 2.93 35.156 2.93 193.359 0 366.211-73.242 498.047-190.43 155.273-137.695 251.953-336.914 251.953-559.57s-96.68-421.875-251.953-559.57zM363.281 767.578c0 0 0-35.156 0-35.156 2.93-161.133 55.664-307.617 140.625-404.297 70.313-82.031 158.203-131.836 254.883-131.836 219.727 0 395.508 249.023 395.508 553.711s-175.781 553.711-395.508 553.711c-96.68 0-184.57-49.805-254.883-131.836-84.961-96.68-137.695-243.164-140.625-404.297z"></path>
</svg>
