<svg version="1.1" xmlns="http://www.w3.org/2000/svg"   viewBox="0 0 1500 1500">

<path d="M178.5 747c0-34.5 3-69 7.5-103.5 10.5-79.5 34.5-156 72-228 28.5-54 63-103.5 103.5-150 66-75 144-135 228-187.5 40.5-24 82.5-46.5 123-69 4.5-3 9-6 13.5-7.5 7.5-3 13.5-3 18 3 4.5 4.5 4.5 12 0 18-22.5 34.5-42 72-54 112.5-4.5 13.5-7.5 28.5-9 42 0 4.5 0 6 6 6 22.5-3 45-4.5 67.5-4.5 78 1.5 153 16.5 223.5 48 132 58.5 228 153 289.5 282 22.5 46.5 37.5 94.5 45 145.5 4.5 27 6 54 7.5 81 1.5 21 0 40.5 0 61.5-1.5 27-4.5 54-9 79.5-9 55.5-24 111-46.5 162-27 63-63 121.5-106.5 174-69 85.5-153 151.5-246 208.5-42 25.5-87 48-130.5 72-3 1.5-6 3-9 4.5-6 3-13.5 1.5-18-3s-4.5-10.5 0-16.5c9-13.5 16.5-25.5 24-40.5 16.5-30 30-61.5 37.5-94.5 1.5-7.5 3-15 3-21 0-4.5 0-6-4.5-4.5-13.5 1.5-28.5 3-42 3-13.5 1.5-27 1.5-39 0-13.5 0-25.5-1.5-39-3-31.5-3-61.5-9-91.5-16.5-115.5-31.5-211.5-93-288-184.5-55.5-66-94.5-142.5-115.5-226.5-7.5-27-12-55.5-15-84-4.5-18-6-37.5-6-58.5zM750 966c117 1.5 214.5-96 216-213 1.5-120-97.5-216-214.5-217.5-118.5 0-216 97.5-216 214.5-1.5 118.5 96 216 214.5 216z"></path>
</svg>
