<svg version="1.1" xmlns="http://www.w3.org/2000/svg"   viewBox="0 0 1500 1500">

<path d="M937.5 319.336v292.969l102.539 64.453c2.93 0 8.789 0 11.719 0l439.453-298.828c0-35.156-32.227-58.594-49.805-58.594zM937.5 720.703l93.75 64.453c11.719 8.789 29.297 0 29.297 0-17.578 8.789 430.664-287.109 430.664-287.109v539.063c0 58.594-38.086 82.031-79.102 82.031h-474.609v-398.438zM451.172 585.938c-32.227 0-55.664 14.648-76.172 43.945-17.578 29.297-26.367 70.313-26.367 120.117s8.789 87.891 26.367 117.188c20.508 29.297 43.945 43.945 76.172 43.945 29.297 0 55.664-14.648 73.242-41.016 17.578-29.297 26.367-67.383 26.367-120.117 0-49.805-8.789-90.82-26.367-120.117s-41.016-43.945-73.242-43.945zM8.789 169.922v1148.438l873.047 181.641v-1500zM591.797 937.5c-35.156 46.875-84.961 73.242-143.555 73.242s-105.469-23.438-140.625-70.313c-38.086-46.875-55.664-108.398-55.664-184.57 0-79.102 17.578-143.555 55.664-193.359s84.961-76.172 146.484-76.172c58.594 0 105.469 23.438 140.625 73.242 35.156 46.875 52.734 108.398 52.734 184.57 0 79.102-17.578 143.555-55.664 193.359z"></path>
</svg>
