<svg version="1.1" xmlns="http://www.w3.org/2000/svg"   viewBox="0 0 1500 1500">

<path d="M292.969 149.414c131.836-99.609 287.109-149.414 448.242-149.414h17.578c161.133 0 316.406 49.805 448.242 149.414l-117.188 137.695c-96.68-70.313-210.938-111.328-331.055-111.328h-14.648c-120.117 0-234.375 41.016-331.055 111.328zM750 1500h-8.789c-8.789 0-17.578 0-26.367 0h-8.789c-5.859 0-29.297-2.93-29.297-2.93h-14.648c-5.859 0-11.719-2.93-17.578-2.93-2.93 0-8.789 0-14.648 0-5.859-2.93-20.508-2.93-20.508-2.93s-17.578-5.859-23.438-8.789h-5.859c-29.297-5.859-55.664-14.648-82.031-23.438-2.93 0-8.789-2.93-14.648-5.859l-5.859-2.93c-8.789-2.93-14.648-5.859-20.508-5.859-90.82-38.086-169.922-90.82-237.305-155.273l-8.789-8.789c-140.625-140.625-219.727-331.055-219.727-530.273 0-205.078 87.891-401.367 234.375-541.992l120.117 143.555c-105.469 105.469-166.992 249.023-166.992 398.438 0 99.609 26.367 196.289 76.172 281.25l8.789 17.578 316.406-313.477 99.609-246.094v401.367l-301.758 298.828 20.508 11.719c14.648 11.719 32.227 23.438 49.805 32.227l11.719 5.859v2.93c84.961 49.805 181.641 79.102 281.25 79.102h14.648c99.609 0 196.289-29.297 281.25-79.102v-2.93l8.789-5.859c17.578-8.789 32.227-20.508 49.805-32.227l5.859-11.719-319.336-301.758v-398.438l117.188 246.094 331.055 313.477 11.719-17.578c49.805-84.961 79.102-181.641 79.102-281.25 0-149.414-61.523-292.969-166.992-401.367l117.188-143.555c149.414 140.625 237.305 339.844 237.305 544.922 0 199.219-79.102 389.648-219.727 530.273l-14.648 11.719c-64.453 64.453-143.555 114.258-228.516 149.414-8.789 5.859-17.578 5.859-23.438 8.789l-5.859 5.859c-5.859 0-11.719 2.93-14.648 5.859-26.367 8.789-52.734 14.648-82.031 20.508 0 0-17.578 2.93-20.508 5.859h-8.789c-5.859 2.93-11.719 2.93-17.578 2.93-5.859 2.93-11.719 2.93-14.648 2.93-5.859 0-11.719 0-20.508 2.93h-14.648c0 0-23.438 2.93-29.297 2.93h-8.789c-8.789 0-17.578 0-26.367 0z"></path>
</svg>
