<svg version="1.1" xmlns="http://www.w3.org/2000/svg"   viewBox="0 0 1500 1500">

<path d="M117 750c0-243 0-486 0-727.5 0-22.5 0-22.5 21-22.5 222 0 444 0 666 0 93 0 184.5 16.5 270 52.5 123 51 213 133.5 265.5 256.5 24 55.5 36 114 40.5 174 6 69 1.5 138-12 205.5-24 115.5-79.5 213-168 291-60 52.5-129 87-202.5 112.5-79.5 25.5-160.5 39-244.5 43.5-48 3-94.5 1.5-142.5 1.5-18 0-18 0-18 18 0 90 0 178.5 0 268.5 0 22.5-6 42-22.5 57-12 12-27 18-45 18-130.5 0-259.5 0-390 0-18 0-18 0-18-18 0-243 0-487.5 0-730.5z"></path>
</svg>
