<svg version="1.1" xmlns="http://www.w3.org/2000/svg"   viewBox="0 0 1500 1500">

<path d="M931.641 0h-541.992c-35.156 0-67.383 26.367-73.242 64.453l-216.797 1382.813c-5.859 29.297 14.648 52.734 43.945 52.734h257.813c35.156 0 67.383-26.367 73.242-64.453l58.594-372.070c5.859-38.086 38.086-64.453 73.242-64.453h172.852c354.492 0 559.57-169.922 615.234-512.695 23.438-149.414 0-266.602-70.313-348.633-76.172-90.82-213.867-137.695-392.578-137.695zM993.164 506.836c-29.297 193.359-178.711 193.359-322.266 193.359h-79.102l55.664-363.281c2.93-20.508 23.438-38.086 43.945-38.086h38.086c96.68 0 190.43 0 237.305 55.664 29.297 35.156 38.086 82.031 26.367 152.344z"></path>
</svg>
