<svg version="1.1" xmlns="http://www.w3.org/2000/svg"   viewBox="0 0 1500 1500">

<path d="M1177.734 187.5c-114.258-120.117-263.672-187.5-418.945-187.5-336.914 0-609.375 281.25-609.375 626.953 0 222.656 166.992 468.75 240.234 565.43 108.398 143.555 269.531 307.617 369.141 307.617 120.117 0 331.055-275.391 351.563-307.617 73.242-96.68 240.234-345.703 240.234-565.43 0-164.063-61.523-322.266-172.852-439.453zM758.789 1447.266c-125.977 0-556.641-489.258-556.641-820.313 0-313.477 246.094-574.219 556.641-574.219 292.969 0 539.063 260.742 539.063 574.219 0 331.055-430.664 820.313-539.063 820.313zM758.789 266.602c-29.297 0-58.594 2.93-87.891 8.789 46.875 20.508 79.102 67.383 79.102 120.117 0 73.242-58.594 128.906-131.836 128.906s-131.836-55.664-131.836-128.906c0 0 0 0 0 0-43.945 55.664-70.313 128.906-70.313 210.938 0 172.852 149.414 319.336 342.773 319.336 175.781 0 325.195-146.484 325.195-319.336 0-193.359-149.414-339.844-325.195-339.844z"></path>
</svg>
