<svg version="1.1" xmlns="http://www.w3.org/2000/svg"   viewBox="0 0 1500 1500">

<path d="M1007.813 175.781h-952.148c-32.227 0-55.664 23.438-55.664 52.734v1042.969c0 29.297 23.438 52.734 55.664 52.734h952.148l492.188-574.219zM606.445 1095.703c-231.445 0-307.617-8.789-307.617-8.789s11.719-184.57 96.68-216.797c82.031-32.227 102.539-29.297 131.836-46.875 0 0 2.93 0 2.93 0v-49.805c-29.297-23.438-49.805-61.523-64.453-102.539-14.648-17.578-23.438-35.156-23.438-55.664 0-14.648 5.859-29.297 11.719-41.016 5.859-102.539 70.313-169.922 152.344-169.922 79.102 0 146.484 67.383 149.414 169.922 8.789 11.719 11.719 26.367 11.719 41.016 0 20.508-8.789 38.086-23.438 55.664-11.719 41.016-35.156 79.102-61.523 102.539v49.805c0 0 0 0 0 0 29.297 17.578 49.805 14.648 134.766 46.875s96.68 216.797 96.68 216.797c0 0-79.102 8.789-307.617 8.789z"></path>
</svg>
