<svg version="1.1" xmlns="http://www.w3.org/2000/svg"   viewBox="0 0 1500 1500">

<path d="M498.047 574.219c0-64.453 14.648-117.188 49.805-161.133 32.227-43.945 73.242-67.383 120.117-67.383 38.086 0 67.383 11.719 87.891 38.086s32.227 58.594 32.227 96.68c0 23.438-5.859 52.734-14.648 84.961-8.789 35.156-17.578 76.172-32.227 120.117-14.648 46.875-26.367 82.031-32.227 108.398-11.719 46.875-2.93 87.891 26.367 123.047 29.297 32.227 67.383 49.805 114.258 49.805 82.031 0 149.414-46.875 202.148-137.695 52.734-93.75 79.102-205.078 79.102-336.914 0-99.609-32.227-181.641-96.68-246.094-64.453-61.523-155.273-93.75-272.461-93.75-131.836 0-237.305 41.016-316.406 125.977-82.031 82.031-123.047 181.641-123.047 298.828 0 70.313 20.508 128.906 58.594 175.781 14.648 14.648 17.578 32.227 14.648 49.805-5.859 14.648-11.719 38.086-17.578 70.313-2.93 11.719-8.789 20.508-17.578 23.438s-17.578 2.93-26.367 0c-61.523-26.367-105.469-67.383-137.695-128.906s-46.875-131.836-46.875-210.938c0-52.734 8.789-102.539 26.367-155.273s41.016-102.539 76.172-149.414c35.156-49.805 79.102-90.82 125.977-128.906 49.805-38.086 108.398-67.383 181.641-90.82 70.313-20.508 146.484-32.227 225.586-32.227 84.961 0 161.133 14.648 231.445 43.945 70.313 26.367 131.836 64.453 178.711 111.328 49.805 49.805 84.961 102.539 114.258 164.063 26.367 61.523 41.016 125.977 41.016 190.43 0 175.781-43.945 322.266-134.766 436.523-90.82 117.188-205.078 172.852-345.703 172.852-46.875 0-90.82-8.789-131.836-32.227-41.016-20.508-70.313-46.875-87.891-79.102-32.227 137.695-52.734 219.727-61.523 246.094-17.578 67.383-58.594 149.414-125.977 246.094h-61.523c-11.719-120.117-8.789-219.727 8.789-298.828l114.258-483.398c-17.578-38.086-26.367-84.961-26.367-143.555z"></path>
</svg>
