<svg version="1.1" xmlns="http://www.w3.org/2000/svg"   viewBox="0 0 1500 1500">

<path d="M1314.045 238.32c-117.855-102.24-282.779-161.265-474.48-161.265-499.726 0.015-839.565 383.084-839.565 383.084l95.745 150.976c0 0 53.024 4.411 24.959-84.51 24.226-45.464 71.625-106.666 164.205-177.255v1005.675c-39.916 11.175-92.685 32.205-56.73 67.92h275.161c36.315-36.060-20.895-57.795-55.74-67.92v-237.27c0 0 188.61 73.56 391.964 73.56 178.62 0 341.19-52.815 462.105-148.185 120.899-94.815 198.855-236.385 198.346-398.19 0.36-158.895-68.115-304.755-185.985-406.589l0.015-0.029zM1168.2 963.75c-83.596 81.99-205.2 133.815-345.42 133.709-156.495 0.105-288.195-30-375.18-72.541v-754.471c95.43-67.38 250.2-108.87 375.18-108.63 151.86 0.135 271.065 57.135 351.721 143.596 80.459 87 124.395 202.589 124.8 336.916-0.51 130.904-47.49 238.74-131.101 321.39v0.029z"></path>
</svg>
