<svg version="1.1" xmlns="http://www.w3.org/2000/svg"   viewBox="0 0 1500 1500">

<path d="M750 0c-307.617 0-559.57 251.953-559.57 559.57 0 2.93 0 5.859 0 8.789s0 2.93 0 2.93c0 2.93 0 2.93 0 5.859s0 2.93 0 5.859v0c14.648 407.227 439.453 916.992 439.453 916.992v-673.828c-146.484-67.383-210.938-240.234-146.484-383.789 67.383-149.414 240.234-213.867 383.789-146.484 146.484 64.453 213.867 237.305 146.484 383.789-32.227 76.172-96.68 128.906-172.852 158.203v275.391c304.688-49.805 509.766-336.914 459.961-644.531-41.016-269.531-275.391-468.75-550.781-468.75z"></path>
</svg>
