<svg version="1.1" xmlns="http://www.w3.org/2000/svg"   viewBox="0 0 1500 1500">

<path d="M1497.070 1001.953c-14.648-70.313-125.977-108.398-301.758-123.047-123.047-8.789-246.094 20.508-366.211 61.523l-20.508 5.859v-530.273c0-43.945 93.75-41.016 93.75 8.789v413.086c190.43 55.664 287.109-29.297 290.039-240.234 0-178.711-120.117-284.18-316.406-336.914l-310.547-79.102v626.953l-93.75 32.227 93.75 29.297v158.203l-222.656 76.172c-76.172 26.367-137.695-35.156-70.313-58.594l55.664-20.508-208.008-64.453c-64.453 20.508-123.047 67.383-120.117 131.836s155.273 82.031 269.531 99.609c108.398 17.578 208.008 8.789 295.898-23.438v-67.383 140.625l243.164 79.102v-5.859l2.93 5.859 210.938-76.172 351.563-123.047-228.516-70.313-336.914 114.258v-79.102l213.867-73.242 125.977-43.945c131.836-23.438 184.57 20.508 58.594 61.523l-61.523 20.508 228.516 70.313h2.93c90.82-32.227 131.836-79.102 123.047-120.117zM120.117 960.938l208.008 64.453 237.305-84.961v-70.313l-93.75-29.297-345.703 117.188c-2.93 0-2.93 2.93-5.859 2.93z"></path>
</svg>
