<svg version="1.1" xmlns="http://www.w3.org/2000/svg"   viewBox="0 0 1500 1500">

<path d="M864.258 717.773l193.359-193.359-292.969-169.922c0 0-574.219-331.055-606.445-348.633-2.93-2.93-5.859-5.859-11.719-5.859zM1385.742 714.844c-26.367-14.648-251.953-146.484-295.898-172.852l-199.219 199.219 202.148 205.078c55.664-32.227 260.742-149.414 290.039-166.992 35.156-20.508 32.227-49.805 2.93-64.453zM102.539 2.93c-5.859 8.789-11.719 20.508-11.719 35.156 0 67.383 0 708.984 0 708.984s0 691.406 0 720.703c0 8.789 2.93 14.648 5.859 20.508l744.141-747.070zM864.258 767.578l-732.422 732.422c2.93 0 8.789-2.93 11.719-5.859 29.297-17.578 621.094-357.422 621.094-357.422l298.828-172.852z"></path>
</svg>
