<svg version="1.1" xmlns="http://www.w3.org/2000/svg"   viewBox="0 0 1500 1500">

<path d="M0 82.5c0-7.5 3-15 13.5-15 81-4.5 201-6 325.5-6 349.5 0 501 192 501 438 0 321-232.5 459-517.5 459-48 0-64.5-3-99-3v486c0 10.5-4.5 13.5-13.5 13.5h-195c-10.5 0-13.5-4.5-13.5-13.5l-1.5-1359zM225 753c30 3 52.5 3 102 3 147 0 286.5-52.5 286.5-252 0-160.5-99-241.5-267-241.5-51 0-99 3-120 4.5l-1.5 486zM976.5 664.5c-7.5 0-10.5-4.5-10.5-13.5v-174c0-10.5 3-13.5 10.5-13.5h117v-64.5c0-78 13.5-144 42-201 51-105 141-153 265.5-153 37.5 0 64.5 3 85.5 10.5 10.5 4.5 13.5 7.5 13.5 18v166.5c0 10.5-4.5 13.5-13.5 13.5-16.5-4.5-40.5-6-55.5-6-72 0-109.5 52.5-109.5 153v64.5h165c10.5 0 13.5 3 13.5 10.5v174c0 10.5-3 13.5-13.5 13.5h-165v778.5c0 7.5-3 13.5-13.5 13.5h-199.5c-10.5 0-13.5-6-13.5-13.5v-778.5l-118.5 1.5z"></path>
</svg>
