<svg version="1.1" xmlns="http://www.w3.org/2000/svg"   viewBox="0 0 1500 1500">

<path d="M370.5 985.5c0 1.5 7.5 22.5 12 33 24 58.5 60 111 105 156s97.5 81 156 105c60 25.5 124.5 39 190.5 39s130.5-13.5 190.5-39c58.5-24 111-60 156-105s81-97.5 105-156c25.5-60 39-124.5 39-190.5s-13.5-130.5-39-190.5c-24-58.5-60-111-105-156s-97.5-81-156-105c-60-25.5-124.5-39-190.5-39-67.5 0-133.5 13.5-193.5 39-48 19.5-129 72-175.5 121.5v0-406.5h679.5c24 0 24-34.5 24-46.5s0-46.5-25.5-46.5l-732 1.5c-19.5 0-33 16.5-33 31.5v568.5c0 18 22.5 31.5 43.5 36 42 9 51-4.5 61.5-18l1.5-1.5c15-22.5 64.5-72 64.5-72 75-75 177-117 285-117s208.5 42 283.5 117c76.5 76.5 117 177 117 283.5s-42 207-117 283.5c-75 75-178.5 117-285 117-72 0-142.5-19.5-202.5-55.5v-346.5c0-46.5 19.5-96 54-133.5 39-43.5 91.5-67.5 148.5-67.5 55.5 0 108 21 147 60 39 37.5 60 88.5 60 142.5 0 115.5-91.5 205.5-207 205.5-22.5 0-63-10.5-64.5-10.5-24-7.5-33 25.5-36 36-12 40.5 6 49.5 10.5 51 37.5 12 61.5 13.5 94.5 13.5 163.5 0 297-133.5 297-297 0-162-133.5-295.5-297-295.5-79.5 0-156 30-211.5 87-54 52.5-85.5 123-85.5 193.5v1.5c0 9 0 216 0 283.5v0c-31.5-34.5-61.5-87-81-139.5-7.5-21-25.5-16.5-49.5-9-13.5 4.5-46.5 13.5-39 37.5v0zM720 904.5c0 10.5 9 18 15 24v1.5c9 9 18 13.5 27 13.5 7.5 0 10.5-3 12-4.5 4.5-4.5 51-51 55.5-55.5l52.5 51c4.5 6 10.5 7.5 16.5 9 9 0 18-4.5 27-15 22.5-22.5 10.5-34.5 6-40.5l-52.5-52.5 54-55.5c12-13.5 1.5-27-9-37.5-15-15-30-19.5-39-10.5l-54 54-55.5-55.5c-3-3-6-4.5-10.5-4.5-7.5 0-16.5 4.5-25.5 15-16.5 16.5-21 28.5-12 37.5l55.5 55.5-54 55.5c-7.5 4.5-9 10.5-9 15zM840 160.5c-88.5 0-181.5 18-250.5 48-7.5 3-12 9-12 16.5-1.5 7.5 1.5 18 6 31.5 4.5 10.5 15 40.5 37.5 31.5 70.5-27 148.5-42 219-42 81 0 157.5 15 231 46.5 58.5 24 112.5 60 172.5 112.5 4.5 4.5 9 6 13.5 6 12 0 22.5-12 33-22.5 16.5-18 27-33 10.5-48-57-54-120-94.5-196.5-127.5-84-34.5-172.5-52.5-264-52.5zM1312.5 1246.5v0c-10.5-10.5-19.5-16.5-27-19.5s-15 0-21 4.5l-4.5 6c-54 54-118.5 97.5-189 127.5-73.5 31.5-151.5 46.5-231 46.5s-157.5-15-231-46.5c-70.5-30-133.5-72-189-127.5-57-57-99-120-127.5-189-27-66-36-117-39-133.5 0-1.5 0-3 0-3-3-19.5-21-21-46.5-16.5-10.5 1.5-43.5 6-40.5 30v0c9 54 24 106.5 45 157.5 34.5 81 84 154.5 145.5 216 63 63 135 112.5 216 145.5 84 36 174 54 265.5 54s181.5-18 265.5-54c81-34.5 154.5-84 216-145.5 0 0 3-3 6-6 9-6 15-19.5-13.5-46.5z"></path>
</svg>
