<svg version="1.1" xmlns="http://www.w3.org/2000/svg"   viewBox="0 0 1500 1500">

<path d="M1308 1251c120-133.5 192-309 192-501 0-414-336-750-750-750s-750 336-750 750 336 750 750 750c193.5 0 369-73.5 502.5-192l49.5 48c7.5 7.5 18 12 28.5 12s19.5-4.5 28.5-12c15-15 15-40.5 0-55.5l-51-49.5zM750 1414.5c-367.5 0-664.5-297-664.5-664.5s297-664.5 664.5-664.5 664.5 297 664.5 664.5c0 169.5-63 324-168 441l-166.5-165c-15-15-40.5-15-55.5 0s-15 40.5 0 55.5l166.5 166.5c-117 103.5-271.5 166.5-441 166.5z"></path>
</svg>
