<svg version="1.1" xmlns="http://www.w3.org/2000/svg"   viewBox="0 0 1500 1500">

<path d="M1412.109 867.188c-43.945-105.469-105.469-181.641-149.414-199.219 0-5.859 0-11.719 0-20.508 0-38.086-11.719-76.172-29.297-105.469 0-2.93 0-5.859 0-8.789 0-17.578-5.859-35.156-11.719-49.805-11.719-269.531-187.5-483.398-471.68-483.398s-459.961 213.867-471.68 483.398c-8.789 14.648-11.719 32.227-11.719 49.805 0 2.93 0 5.859 0 8.789-17.578 29.297-29.297 67.383-29.297 105.469 0 8.789 0 14.648 0 20.508-43.945 17.578-105.469 93.75-149.414 199.219-55.664 131.836-64.453 257.813-20.508 281.25 32.227 14.648 82.031-20.508 125.977-90.82 17.578 76.172 64.453 140.625 125.977 196.289-64.453 23.438-108.398 64.453-108.398 111.328 0 73.242 117.188 134.766 263.672 134.766 131.836 0 240.234-49.805 260.742-114.258 5.859 0 26.367 0 29.297 0 20.508 64.453 131.836 114.258 260.742 114.258 146.484 0 266.602-61.523 266.602-134.766 0-46.875-43.945-87.891-111.328-111.328 64.453-55.664 108.398-120.117 125.977-196.289 46.875 70.313 93.75 105.469 125.977 90.82 43.945-23.438 35.156-149.414-20.508-281.25zM615.234 483.398c-79.102-8.789-96.68-155.273-58.594-225.586 14.648-23.438 38.086-43.945 67.383-43.945 52.734 0 84.961 67.383 84.961 131.836s-29.297 143.555-93.75 137.695zM896.484 483.398c-8.789 2.93-26.367 5.859-38.086 0-76.172-20.508-90.82-161.133-49.805-225.586 11.719-20.508 32.227-41.016 58.594-43.945 5.859-2.93 20.508-2.93 29.297 0 87.891 35.156 84.961 237.305 0 269.531zM875.977 310.547c-23.438-11.719-43.945 5.859-49.805 23.438-2.93 14.648-8.789 38.086 11.719 41.016 8.789-8.789 5.859-41.016 23.438-38.086s5.859 41.016 32.227 35.156c8.789-23.438 0-55.664-17.578-61.523zM662.109 295.898c-41.016 5.859-41.016 105.469 2.93 108.398s46.875-114.258-2.93-108.398z"></path>
</svg>
