<svg version="1.1" xmlns="http://www.w3.org/2000/svg"   viewBox="0 0 1500 1500">

<path d="M796.875 1168.945c-52.734-99.609-114.258-205.078-231.445-205.078-23.438 0-46.875 5.859-67.383 14.648l-41.016-82.031c49.805-41.016 128.906-73.242 231.445-73.242 158.203 0 240.234 76.172 304.688 172.852 41.016-84.961 58.594-196.289 58.594-336.914 0-348.633-108.398-527.344-366.211-527.344-251.953 0-357.422 178.711-357.422 527.344s105.469 524.414 357.422 524.414c41.016 0 76.172-5.859 111.328-14.648zM858.398 1291.992c-55.664 14.648-114.258 23.438-172.852 23.438-333.984 0-662.109-269.531-662.109-656.25 0-392.578 328.125-659.18 662.109-659.18 342.773 0 665.039 266.602 665.039 659.18 0 219.727-102.539 395.508-249.023 509.766 46.875 73.242 96.68 120.117 166.992 120.117 73.242 0 102.539-58.594 111.328-102.539h96.68c5.859 58.594-23.438 310.547-298.828 310.547-166.992 2.93-254.883-93.75-319.336-205.078z"></path>
</svg>
