<svg version="1.1" xmlns="http://www.w3.org/2000/svg"   viewBox="0 0 1500 1500">

<path d="M290.039 626.953l125.977-90.82c-29.297-249.023 123.047-433.594 123.047-433.594s-32.227 14.648-284.18 175.781c-251.953 161.133-254.883 225.586-254.883 225.586v653.32l228.516 342.773h345.703l-345.703-547.852c-73.242-108.398-43.945-254.883 61.523-325.195zM1151.367 726.563c-120.117 73.242-278.32 43.945-363.281-73.242-82.031-114.258-61.523-275.391 46.875-366.211 2.93-5.859 8.789-8.789 14.648-11.719 5.859-5.859 8.789-8.789 14.648-11.719l369.141-263.672h-536.133l-32.227 20.508c-243.164 178.711-298.828 524.414-123.047 770.508l35.156 46.875c178.711 246.094 524.414 301.758 770.508 123.047l152.344-111.328v-375z"></path>
</svg>
