<svg version="1.1" xmlns="http://www.w3.org/2000/svg"   viewBox="0 0 1500 1500">

<path d="M1359.375 313.477c-313.477-357.422-791.016-134.766-791.016-134.766-26.367 11.719-43.945 20.508-58.594 32.227s-26.367 23.438-32.227 35.156c-20.508 43.945-35.156 87.891-46.875 128.906-55.664 73.242-96.68 161.133-111.328 257.813-55.664 79.102-90.82 172.852-96.68 269.531-134.766-35.156-222.656-79.102-222.656-79.102 76.172 43.945 149.414 79.102 222.656 102.539 0 46.875 5.859 93.75 17.578 140.625 29.297 102.539 90.82 184.57 169.922 249.023-46.875-52.734-82.031-114.258-102.539-181.641-17.578-61.523-20.508-123.047-14.648-184.57 14.648 5.859 32.227 8.789 49.805 14.648 67.383 205.078 246.094 357.422 465.82 392.578 79.102 35.156 161.133 43.945 237.305 20.508 38.086-14.648 70.313-32.227 99.609-55.664 8.789-8.789 17.578-17.578 26.367-26.367 149.414-79.102 260.742-219.727 298.828-389.648 0 8.789 0 11.719 0 11.719s117.188-342.773-111.328-603.516zM421.875 410.156c-11.719 55.664-17.578 99.609-20.508 128.906-23.438 20.508-43.945 43.945-64.453 70.313 17.578-73.242 43.945-140.625 84.961-199.219zM401.367 685.547c2.93 73.242 17.578 146.484 43.945 222.656 2.93 11.719 5.859 23.438 11.719 32.227-38.086-2.93-76.172-5.859-111.328-11.719-8.789-38.086-17.578-76.172-20.508-114.258 20.508-46.875 43.945-90.82 76.172-128.906zM295.898 916.992c5.859-23.438 11.719-49.805 20.508-73.242 2.93 26.367 5.859 55.664 14.648 82.031-11.719-2.93-23.438-5.859-35.156-8.789zM357.422 966.797c41.016 8.789 79.102 17.578 117.188 20.508 67.383 158.203 172.852 278.32 287.109 345.703-187.5-46.875-339.844-184.57-404.297-366.211zM1186.523 1271.484c-2.93-8.789-32.227 5.859-32.227 5.859-20.508 11.719-41.016 23.438-61.523 29.297-184.57 58.594-398.438-76.172-524.414-310.547 322.266 14.648 541.992-108.398 541.992-108.398s52.734 0 43.945-73.242c-11.719-73.242-64.453-17.578-64.453-17.578-178.711 117.188-372.070 152.344-547.852 149.414-14.648-32.227-26.367-64.453-38.086-96.68-26.367-79.102-38.086-155.273-41.016-231.445 61.523-58.594 143.555-105.469 234.375-131.836 82.031-23.438 166.992-29.297 246.094-17.578 0 0 14.648 8.789 11.719-29.297-5.859-38.086-32.227-43.945-32.227-43.945-90.82-17.578-190.43-14.648-287.109 11.719-61.523 20.508-117.188 46.875-169.922 82.031 5.859-43.945 17.578-87.891 29.297-125.977 0 0 14.648-41.016 79.102-73.242 87.891-35.156 357.422-123.047 530.273-49.805 295.898 125.977 354.492 424.805 363.281 580.078-14.648 193.359-123.047 357.422-281.25 451.172z"></path>
</svg>
