<svg version="1.1" xmlns="http://www.w3.org/2000/svg"   viewBox="0 0 1500 1500">

<path d="M0 754.5c42-40.5 84-82.5 124.5-123 175.5-174 349.5-349.5 525-523.5 28.5-28.5 57-55.5 84-84 10.5-10.5 16.5-10.5 27 0 112.5 114 225 226.5 337.5 339 130.5 130.5 261 261 391.5 391.5 3 3 7.5 7.5 10.5 12-4.5 4.5-9 3-13.5 3-72 0-144 0-217.5-1.5-12 0-15 3-15 15 0 228 0 456 0 684 0 13.5-4.5 18-18 18-337.5 0-675 0-1012.5 0-15 0-16.5-6-16.5-18 0-229.5 0-460.5 1.5-690 0-13.5-4.5-16.5-18-16.5-58.5 0-117 0-175.5 0-4.5 0-9 0-13.5 0 0-3-1.5-4.5-1.5-6zM712.5 637.5c0-48 0-91.5 0-136.5 0-28.5-6-36-34.5-36-94.5 0-189 0-285 0-13.5 0-18 4.5-18 18 0 16.5 12 13.5 21 15 46.5 6 72 28.5 79.5 73.5 9 49.5 4.5 99 4.5 148.5 0 138 0 276 0 415.5 0 57 1.5 114-12 169.5-6 25.5-19.5 43.5-43.5 54-18 7.5-34.5 15-54 19.5-6 1.5-10.5 3-10.5 12-1.5 18 0 18 18 18 145.5 0 291 0 436.5 0 6 0 13.5 1.5 12-7.5 0-9 4.5-19.5-9-22.5-15-3-28.5-10.5-43.5-15-36-12-54-36-60-73.5-6-34.5-7.5-70.5-7.5-105 0-91.5 1.5-183 1.5-276 0-34.5 0-70.5 9-105 16.5-66 34.5-129 73.5-186 16.5-25.5 39-46.5 66-61.5 12-6 19.5-3 24 9 3 9 6 18 9 28.5 6 19.5 13.5 39 24 57 42 76.5 150 87 199.5 19.5 36-48 33-135-7.5-180-37.5-43.5-88.5-52.5-142.5-45-82.5 13.5-148.5 57-205.5 118.5-16.5 22.5-30 46.5-45 73.5z"></path>
</svg>
