<svg version="1.1" xmlns="http://www.w3.org/2000/svg"   viewBox="0 0 1500 1500">

<path d="M1500 738.281c0-82.031-64.453-146.484-146.484-146.484-46.875 0-87.891 20.508-114.258 55.664-117.188-84.961-281.25-137.695-465.82-140.625l108.398-322.266 269.531 64.453c5.859 0 8.789 0 11.719 0 2.93 61.523 52.734 111.328 117.188 111.328s114.258-52.734 114.258-117.188c0-64.453-49.805-114.258-114.258-114.258-49.805 0-87.891 26.367-108.398 67.383 0 0-2.93-2.93-5.859-2.93l-295.898-70.313c-14.648-2.93-29.297 5.859-32.227 17.578l-125.977 366.211c-178.711 5.859-336.914 55.664-454.102 137.695-26.367-32.227-64.453-52.734-111.328-52.734-82.031 0-146.484 64.453-146.484 146.484 0 58.594 35.156 111.328 87.891 134.766-5.859 20.508-8.789 43.945-8.789 67.383 0 240.234 298.828 436.523 667.969 436.523s667.969-196.289 667.969-436.523c0-20.508-2.93-43.945-8.789-64.453 55.664-23.438 93.75-76.172 93.75-137.695zM407.227 855.469c0-58.594 49.805-108.398 108.398-108.398s108.398 49.805 108.398 108.398c0 58.594-49.805 108.398-108.398 108.398s-108.398-49.805-108.398-108.398zM993.164 1154.297c-49.805 49.805-128.906 73.242-243.164 73.242s-193.359-23.438-243.164-73.242c-5.859-5.859-5.859-17.578 0-26.367 5.859-5.859 17.578-5.859 23.438 0 43.945 43.945 114.258 64.453 219.727 64.453 102.539 0 175.781-20.508 219.727-64.453 5.859-5.859 17.578-5.859 23.438 0 5.859 8.789 5.859 20.508 0 26.367zM987.305 963.867c-61.523 0-111.328-46.875-111.328-108.398 0-58.594 49.805-108.398 111.328-108.398 58.594 0 105.469 49.805 105.469 108.398 0 61.523-46.875 108.398-105.469 108.398z"></path>
</svg>
