<svg version="1.1" xmlns="http://www.w3.org/2000/svg"   viewBox="0 0 1500 1500">

<path d="M1302 1422c-21-10.5-46.5-25.5-108-129l-123-201-145.5-237-10.5-19.5c4.5 0 15-4.5 21-4.5 165-57 262.5-205.5 262.5-423 0-108-40.5-205.5-123-279-10.5-10.5-25.5-21-36-31.5-114-72-262.5-97.5-459-97.5h-376.5c-21 0-25.5 15-15 25.5s21 25.5 21 67.5v1185c-4.5 46.5-15 61.5-21 72-10.5 10.5-4.5 25.5 21 25.5h273v-499.5h123l87 150 108 186 51 93c61.5 103.5 118.5 169.5 216 186 10.5 0 61.5 10.5 82.5 10.5h21c40.5 0 82.5-15 108-25.5 0 0 4.5-4.5 10.5-4.5 37.5-22.5 27-43.5 12-49.5zM658.5 681h-175.5v-484.5h175.5c87 0 154.5 10.5 201 57 21 15 31.5 36 40.5 61.5 10.5 31.5 21 67.5 21 114 0 60-6 252-262.5 252z"></path>
</svg>
