<svg version="1.1" xmlns="http://www.w3.org/2000/svg"   viewBox="0 0 1500 1500">

<path d="M750 1034.18c0 0 0 0 0 0s0 0 0 0zM348.633 735.352c2.93-20.508 8.789-41.016 11.719-61.523 5.859-20.508 2.93-43.945 2.93-64.453v-114.258c0-58.594 0-114.258 0-169.922-11.719 0-26.367 2.93-35.156 5.859-35.156 11.719-64.453 20.508-90.82 35.156-108.398 52.734-190.43 146.484-225.586 275.391-32.227 120.117 0 249.023 49.805 328.125 11.719 17.578 26.367 43.945 41.016 55.664 14.648 0 26.367-11.719 35.156-20.508 20.508-11.719 41.016-26.367 58.594-41.016 8.789-5.859 14.648-14.648 23.438-20.508 58.594-49.805 99.609-125.977 128.906-208.008zM750 1034.18c0 0 0 0 0 0s0 0 0 0zM465.82 949.219c-8.789-17.578-14.648-35.156-23.438-52.734-2.93-8.789-5.859-17.578-8.789-26.367v0c-8.789 17.578-17.578 32.227-26.367 46.875-14.648 29.297-32.227 55.664-49.805 79.102-26.367 32.227-52.734 64.453-82.031 87.891-14.648 14.648-32.227 26.367-46.875 41.016 0 0 0 2.93 0 2.93 8.789 2.93 17.578 8.789 26.367 11.719 20.508 8.789 41.016 17.578 61.523 23.438 76.172 20.508 169.922 14.648 240.234-5.859 17.578-5.859 58.594-17.578 70.313-29.297v0c-17.578-8.789-32.227-23.438-46.875-35.156-43.945-41.016-82.031-87.891-114.258-143.555zM1485.352 641.602c-32.227-131.836-114.258-222.656-222.656-278.32-26.367-11.719-55.664-23.438-90.82-32.227-8.789-2.93-23.438-5.859-35.156-5.859 0 55.664 0 111.328-2.93 169.922v111.328c0 23.438 0 46.875 2.93 67.383 5.859 20.508 11.719 41.016 14.648 61.523 29.297 82.031 70.313 158.203 128.906 208.008 8.789 5.859 14.648 11.719 23.438 20.508 17.578 14.648 38.086 29.297 58.594 41.016 8.789 5.859 20.508 20.508 35.156 20.508 14.648-11.719 29.297-38.086 41.016-55.664 49.805-79.102 82.031-208.008 46.875-328.125zM1142.578 996.094c-17.578-23.438-35.156-49.805-49.805-79.102-8.789-14.648-17.578-29.297-26.367-46.875v0c-2.93 8.789-5.859 17.578-8.789 26.367-8.789 17.578-14.648 35.156-23.438 52.734-32.227 55.664-70.313 102.539-114.258 140.625-14.648 14.648-29.297 29.297-46.875 38.086v0c11.719 11.719 52.734 23.438 70.313 29.297 70.313 20.508 164.063 26.367 240.234 5.859 20.508-5.859 41.016-14.648 61.523-23.438 8.789-2.93 17.578-8.789 26.367-11.719 0-2.93 0-2.93 0-2.93-14.648-14.648-32.227-26.367-46.875-41.016-29.297-23.438-55.664-55.664-82.031-87.891zM990.234 741.211c5.859-17.578 8.789-38.086 11.719-58.594 5.859-17.578 2.93-43.945 2.93-67.383v-125.977c0-55.664 0-108.398 0-164.063-2.93 0-2.93 0-5.859 0-17.578 2.93-29.297 2.93-55.664 11.719-32.227 8.789-64.453 26.367-90.82 41.016-29.297 14.648-49.805 38.086-73.242 55.664-8.789 5.859-20.508 17.578-29.297 29.297 0 0 0 0 0 0s0 2.93 0 2.93c11.719 14.648 23.438 29.297 32.227 43.945 23.438 32.227 43.945 70.313 55.664 114.258 29.297 99.609 17.578 225.586-20.508 304.688-14.648 26.367-26.367 49.805-43.945 70.313-5.859 11.719-14.648 20.508-23.438 32.227 0 0 0 0 0 0s0 0 0 2.93c0 0 2.93 0 2.93 0 35.156-20.508 64.453-55.664 93.75-79.102 20.508-14.648 35.156-35.156 49.805-52.734 38.086-46.875 70.313-96.68 93.75-161.133zM750 1031.25c-8.789-11.719-17.578-20.508-23.438-32.227-17.578-20.508-32.227-43.945-43.945-70.313-38.086-79.102-52.734-205.078-20.508-307.617 11.719-41.016 32.227-79.102 52.734-111.328 11.719-14.648 23.438-29.297 35.156-43.945 0 0 0-2.93 0-2.93s0 0 0 0c-8.789-11.719-20.508-23.438-29.297-29.297-23.438-17.578-46.875-41.016-73.242-55.664s-58.594-32.227-90.82-41.016c-26.367-8.789-38.086-8.789-55.664-11.719-2.93 0-2.93 0-5.859 0 0 55.664 0 108.398 0 164.063v125.977c0 23.438-2.93 49.805 2.93 67.383 2.93 20.508 5.859 41.016 11.719 58.594 23.438 64.453 55.664 114.258 93.75 161.133 14.648 17.578 29.297 38.086 49.805 52.734 29.297 23.438 58.594 58.594 93.75 79.102 0 0 0 0 2.93 0 0-2.93 0-2.93 0-2.93s0 0 0 0z"></path>
</svg>
