<svg version="1.1" xmlns="http://www.w3.org/2000/svg"   viewBox="0 0 1500 1500">

<path d="M984.375 1500c32.227 0 64.453-5.859 84.961-14.648v-46.875c-64.453 0-128.906-43.945-175.781-93.75-79.102-84.961-184.57-225.586-272.461-380.859 146.484-35.156 251.953-169.922 251.953-304.688 0-202.148-155.273-295.898-360.352-295.898-105.469 0-190.43 5.859-269.531 5.859-70.313 0-143.555 0-187.5 0v49.805l67.383 11.719c46.875 11.719 76.172 32.227 76.172 143.555v703.125c0 111.328-29.297 131.836-76.172 140.625l-67.383 11.719v55.664c49.805-2.93 134.766-5.859 216.797-5.859s184.57 2.93 231.445 5.859v-52.734l-93.75-11.719c-49.805-8.789-73.242-29.297-73.242-140.625v-298.828c43.945 2.93 79.102 2.93 137.695 2.93 108.398 193.359 210.938 342.773 269.531 410.156 55.664 64.453 137.695 105.469 240.234 105.469M465.82 902.344c-61.523 0-87.891 0-128.906-5.859v-448.242c41.016-2.93 93.75-2.93 143.555-2.93 152.344 0 240.234 79.102 240.234 219.727 0 143.555-96.68 237.305-254.883 237.305M1010.742 451.172c0-8.789-2.93-20.508-2.93-32.227-2.93-11.719-2.93-29.297-2.93-46.875s-2.93-38.086-2.93-61.523c0-23.438 0-46.875 2.93-64.453 0-17.578 0-32.227 2.93-43.945 0-11.719 2.93-23.438 2.93-32.227 2.93-8.789 5.859-17.578 8.789-26.367 14.648-46.875 38.086-82.031 76.172-105.469 35.156-26.367 76.172-38.086 128.906-38.086 26.367 0 49.805 2.93 70.313 8.789 23.438 5.859 41.016 14.648 58.594 26.367 14.648 8.789 29.297 23.438 41.016 38.086s20.508 29.297 29.297 43.945c2.93 5.859 0 11.719-2.93 14.648l-64.453 26.367c-5.859 2.93-8.789 0-11.719-5.859-14.648-26.367-26.367-43.945-49.805-58.594-20.508-11.719-38.086-17.578-70.313-17.578-35.156 0-49.805 5.859-70.313 20.508s-38.086 35.156-46.875 64.453c-2.93 5.859-2.93 11.719-5.859 17.578-2.93 8.789-2.93 17.578-5.859 29.297 0 11.719 0 26.367 0 41.016 0 17.578-2.93 35.156-2.93 58.594s0 41.016 2.93 58.594c0 17.578 0 29.297 0 41.016 2.93 8.789 2.93 20.508 5.859 26.367 0 8.789 2.93 14.648 5.859 20.508 8.789 29.297 23.438 43.945 41.016 58.594 20.508 11.719 43.945 20.508 76.172 20.508 29.297 0 58.594-8.789 76.172-20.508 17.578-14.648 32.227-32.227 41.016-55.664 2.93-8.789 5.859-23.438 8.789-38.086s2.93-29.297 2.93-52.734c0-2.93-2.93-5.859-5.859-5.859h-105.469c-5.859 0-8.789-2.93-8.789-8.789v-61.523c0-5.859 2.93-8.789 8.789-8.789h193.359c5.859 0 8.789 2.93 8.789 8.789v55.664c0 26.367 0 52.734-2.93 73.242-2.93 23.438-5.859 43.945-11.719 58.594-14.648 46.875-35.156 79.102-73.242 105.469-35.156 23.438-79.102 35.156-131.836 35.156-49.805 0-93.75-11.719-128.906-35.156s-58.594-58.594-76.172-105.469c-2.93-5.859-5.859-17.578-8.789-26.367"></path>
</svg>
