<svg version="1.1" xmlns="http://www.w3.org/2000/svg"   viewBox="0 0 1500 1500">

<path d="M0 840.82c0-149.414 0-301.758 0-451.172 155.273 0 307.617 0 462.891 0 8.789 2.93 14.648 2.93 20.508 2.93 17.578 2.93 35.156 5.859 49.805 8.789 35.156 5.859 67.383 20.508 96.68 38.086 26.367 14.648 52.734 32.227 76.172 55.664 52.734 52.734 102.539 105.469 155.273 158.203 2.93 0 5.859 2.93 5.859 2.93-41.016 43.945-84.961 84.961-125.977 128.906-49.805-49.805-99.609-102.539-149.414-149.414-20.508-23.438-43.945-38.086-70.313-49.805-20.508-8.789-41.016-11.719-64.453-11.719-90.82 0-178.711 0-269.531 0-2.93 0-5.859 0-5.859 0 0 29.297 0 58.594 0 87.891 2.93 0 2.93 0 8.789 0 82.031 0 164.063 0 249.023 0 5.859 0 14.648 0 20.508 2.93 23.438 2.93 46.875 11.719 64.453 32.227 64.453 64.453 128.906 128.906 193.359 193.359 5.859 5.859 14.648 14.648 23.438 23.438 14.648 11.719 32.227 17.578 49.805 17.578 158.203 0 313.477 0 471.68 0 0 0 2.93 0 5.859 0-111.328-114.258-222.656-225.586-333.984-336.914 43.945-41.016 84.961-82.031 125.977-125.977 0 0 2.93 2.93 5.859 2.93 137.695 140.625 278.32 281.25 416.016 418.945 5.859 5.859 8.789 8.789 11.719 14.648s2.93 11.719 5.859 20.508c0 2.93 0 2.93 0 5.859 0 0-2.93 2.93-2.93 2.93 0 14.648-5.859 23.438-14.648 32.227-38.086 38.086-79.102 79.102-117.188 117.188-11.719 11.719-23.438 17.578-38.086 20.508-5.859 2.93-8.789 2.93-17.578 2.93-193.359 0-389.648 0-583.008 0-5.859 0-8.789 0-11.719-2.93-23.438-2.93-43.945-11.719-61.523-29.297-70.313-67.383-137.695-140.625-208.008-210.938-20.508-17.578-41.016-26.367-67.383-26.367-125.977 2.93-251.953 2.93-377.93 2.93z"></path>
</svg>
