<svg version="1.1" xmlns="http://www.w3.org/2000/svg"   viewBox="0 0 1500 1500">

<path d="M1482.422 594.727c-143.555 102.539-284.18 205.078-430.664 310.547-14.648 8.789-14.648 17.578-11.719 35.156 55.664 166.992 111.328 336.914 166.992 506.836 0 2.93 2.93 8.789 5.859 17.578-8.789-5.859-14.648-11.719-20.508-14.648-140.625-102.539-284.18-205.078-424.805-307.617-11.719-8.789-23.438-11.719-35.156 0-146.484 105.469-290.039 210.938-439.453 316.406-2.93 2.93-5.859 2.93-11.719 8.789 20.508-64.453 41.016-125.977 58.594-187.5 38.086-117.188 76.172-231.445 114.258-348.633 2.93-11.719 0-17.578-11.719-26.367-143.555-102.539-284.18-205.078-427.734-310.547-5.859-2.93-8.789-8.789-14.648-14.648h38.086c169.922 0 339.844 0 506.836 0 17.578 0 26.367-2.93 32.227-20.508 52.734-169.922 108.398-339.844 164.063-512.695 0-2.93 2.93-5.859 5.859-14.648 2.93 8.789 5.859 11.719 5.859 17.578 55.664 169.922 111.328 339.844 166.992 509.766 5.859 17.578 11.719 20.508 32.227 20.508 175.781 0 351.563 0 527.344 0h20.508c-8.789 8.789-11.719 11.719-17.578 14.648z"></path>
</svg>
