<svg version="1.1" xmlns="http://www.w3.org/2000/svg"   viewBox="0 0 1500 1500">

<path d="M530.273 750c0 5.859-2.93 11.719-2.93 14.648l539.063 269.531c43.945-41.016 102.539-64.453 166.992-64.453 146.484 0 263.672 120.117 263.672 263.672 0 149.414-117.188 266.602-263.672 266.602s-263.672-117.188-263.672-266.602c0-5.859 2.93-8.789 2.93-14.648l-539.063-266.602c-43.945 38.086-102.539 61.523-166.992 61.523-149.414 0-266.602-117.188-266.602-263.672s117.188-266.602 263.672-266.602c64.453 0 125.977 26.367 169.922 64.453l536.133-269.531c0-2.93 0-8.789 0-14.648 0-146.484 120.117-263.672 266.602-263.672s263.672 117.188 263.672 263.672c0 146.484-117.188 266.602-263.672 266.602-64.453 0-125.977-23.438-169.922-64.453l-539.063 269.531c0 2.93 2.93 8.789 2.93 14.648z"></path>
</svg>
