<svg version="1.1" xmlns="http://www.w3.org/2000/svg"   viewBox="0 0 1500 1500">

<path d="M958.5 1500l451.5-99c0 0-162-1102.5-165-1108.5-1.5-7.5-7.5-12-13.5-12-4.5 0-121.5-9-121.5-9l-88.5-88.5c-1.5-1.5-4.5-3-7.5-4.5 1.5 0-55.5 1321.5-55.5 1321.5zM994.5 178.5c-1.5 0-3 0-4.5 1.5-1.5 0-18 4.5-45 13.5-25.5-78-75-147-157.5-147h-7.5c-22.5-33-51-46.5-76.5-46.5-193.5 0-286.5 241.5-313.5 364.5-75 22.5-127.5 40.5-135 42-42 13.5-43.5 13.5-48 54-6 31.5-117 880.5-117 880.5l847.5 159c0 0 57-1321.5 57-1321.5zM775.5 237v9c-46.5 13.5-99 31.5-150 46.5 30-111 82.5-165 130.5-184.5 12 28.5 19.5 72 19.5 129zM699 52.5c9 0 18 3 24 9-63 30-127.5 102-157.5 249-42 12-81 25.5-117 36 33-111 111-294 250.5-294zM732 708c0 0-49.5-25.5-111-25.5-90 0-94.5 57-94.5 70.5 0 78 202.5 108 202.5 289.5 0 144-91.5 235.5-213 235.5-147 0-222-91.5-222-91.5l40.5-130.5c0 0 78 66 142.5 66 43.5 0 60-33 60-58.5 0-102-166.5-105-166.5-273 0-139.5 100.5-277.5 304.5-277.5 78 0 117 22.5 117 22.5l-60 172.5zM810 97.5c43.5 4.5 70.5 54 90 111-21 7.5-46.5 13.5-72 22.5v-15c-1.5-49.5-7.5-88.5-18-118.5z"></path>
</svg>
