<svg version="1.1" xmlns="http://www.w3.org/2000/svg"   viewBox="0 0 1500 1500">

<path d="M1447.266 908.203c11.719-46.875 14.648-99.609 14.648-149.414 0-389.648-313.477-706.055-703.125-706.055-41.016 0-82.031 2.93-120.117 8.789-64.453-38.086-137.695-61.523-219.727-61.523-225.586 0-407.227 184.57-407.227 410.156 0 73.242 20.508 146.484 55.664 205.078-8.789 46.875-14.648 93.75-14.648 143.555 0 389.648 316.406 703.125 706.055 703.125 43.945 0 84.961-2.93 128.906-11.719 55.664 32.227 123.047 49.805 193.359 49.805 225.586 0 407.227-184.57 407.227-410.156 0-64.453-14.648-125.977-41.016-181.641zM1113.281 1092.773c-32.227 46.875-79.102 82.031-143.555 108.398-61.523 26.367-134.766 38.086-219.727 38.086-99.609 0-184.57-17.578-251.953-52.734-46.875-23.438-87.891-58.594-117.188-102.539s-43.945-84.961-43.945-125.977c0-26.367 8.789-49.805 29.297-67.383s43.945-26.367 73.242-26.367c23.438 0 43.945 5.859 61.523 20.508s32.227 35.156 41.016 61.523c14.648 26.367 26.367 52.734 41.016 70.313s35.156 35.156 58.594 46.875c26.367 11.719 61.523 17.578 102.539 17.578 58.594 0 108.398-11.719 143.555-38.086 35.156-23.438 52.734-52.734 52.734-87.891 0-26.367-8.789-49.805-29.297-67.383-17.578-17.578-43.945-29.297-73.242-41.016-32.227-8.789-76.172-20.508-128.906-32.227-73.242-14.648-137.695-32.227-187.5-55.664-49.805-20.508-90.82-49.805-120.117-87.891s-46.875-84.961-46.875-140.625c0-52.734 17.578-102.539 49.805-143.555s76.172-73.242 137.695-93.75c58.594-23.438 125.977-32.227 205.078-32.227 64.453 0 120.117 5.859 164.063 20.508 46.875 14.648 87.891 35.156 117.188 58.594 32.227 23.438 55.664 49.805 70.313 76.172s20.508 55.664 20.508 82.031c0 23.438-8.789 46.875-29.297 67.383-17.578 20.508-43.945 29.297-73.242 29.297-23.438 0-43.945-5.859-58.594-17.578s-26.367-32.227-43.945-55.664c-17.578-35.156-38.086-61.523-61.523-79.102s-64.453-26.367-117.188-26.367c-52.734 0-93.75 8.789-123.047 29.297-29.297 17.578-43.945 41.016-43.945 67.383 0 14.648 2.93 29.297 14.648 41.016 8.789 11.719 23.438 23.438 41.016 32.227s38.086 17.578 55.664 20.508c20.508 5.859 52.734 14.648 99.609 26.367 55.664 11.719 108.398 23.438 155.273 38.086 46.875 17.578 87.891 35.156 120.117 55.664 35.156 23.438 61.523 49.805 79.102 84.961 20.508 32.227 29.297 76.172 29.297 123.047 0 58.594-17.578 111.328-49.805 158.203z"></path>
</svg>
