<svg version="1.1" xmlns="http://www.w3.org/2000/svg"   viewBox="0 0 1500 1500">

<path d="M553.711 457.031c-96.68 0-175.781 73.242-175.781 164.063s79.102 164.063 175.781 164.063c96.68 0 175.781-73.242 175.781-164.063s-79.102-164.063-175.781-164.063zM969.727 454.102c-96.68 0-175.781 73.242-175.781 164.063 0 93.75 79.102 166.992 175.781 166.992 99.609 0 178.711-73.242 178.711-166.992 0-90.82-79.102-164.063-178.711-164.063zM1432.617 714.844c-5.859 2.93-8.789 8.789-23.438 11.719v-580.078c0-82.031-52.734-146.484-125.977-146.484h-1051.758c-73.242 0-140.625 64.453-140.625 146.484v580.078c0-2.93-8.789-8.789-14.648-11.719-46.875-32.227-73.242 11.719-46.875 52.734 55.664 64.453 155.273 146.484 313.477 210.938-166.992 559.57 401.367 650.391 392.578 360.352 0 5.859 0-161.133 0-281.25 17.578 2.93 29.297 5.859 41.016 8.789 0 120.117 0 278.32 0 272.461-8.789 290.039 559.57 199.219 395.508-360.352 155.273-64.453 254.883-146.484 307.617-210.938 29.297-41.016-2.93-84.961-46.875-52.734zM1335.938 770.508c-196.289 108.398-372.070 90.82-465.82 87.891-70.313-5.859-93.75 26.367-96.68 70.313-14.648-11.719-32.227-26.367-49.805-41.016-2.93-2.93-2.93-5.859-5.859-8.789-17.578-14.648-38.086-23.438-79.102-20.508-90.82 2.93-278.32 20.508-459.961-84.961v-562.5c0-102.539 23.438-134.766 117.188-134.766h931.641c87.891 0 108.398 41.016 108.398 134.766z"></path>
</svg>
