<svg version="1.1" xmlns="http://www.w3.org/2000/svg"   viewBox="0 0 1500 1500">

<path d="M979.5 4.5c9-3 18-6 27-4.5 10.5 3 13.5 13.5 13.5 22.5 0 21-16.5 36-19.5 55.5-7.5 33-13.5 64.5-22.5 97.5-4.5 15-25.5 18-34.5 7.5-10.5-12 0-28.5 0-43.5-4.5-30 4.5-58.5 6-88.5 0-19.5 10.5-40.5 30-46.5v0zM450 28.5c15-6 30 1.5 40.5 12 13.5 12 13.5 30 16.5 45 10.5 19.5 28.5 34.5 36 55.5 4.5 12 1.5 25.5-1.5 39-3 12-16.5 16.5-28.5 15-15-12-22.5-28.5-31.5-45-15-28.5-30-57-42-87-4.5-10.5-3-28.5 10.5-34.5v0zM1333.5 267c16.5-13.5 34.5-27 55.5-31.5 22.5-6 31.5 31.5 13.5 42-25.5 22.5-57 39-84 60-10.5 6-21 18-34.5 18-12 0-22.5 7.5-33 13.5-4.5-3-7.5-6-12-9 10.5-10.5 21-21 30-33 3-6 9-9 15-13.5 16.5-13.5 30-33 49.5-46.5v0zM117 241.5c10.5-4.5 22.5-1.5 31.5 4.5 18 10.5 27 28.5 42 42 12 10.5 22.5 22.5 34.5 34.5 9 9 21 15 30 22.5 10.5 9 6 28.5-6 33s-22.5-4.5-33-7.5c-15-4.5-27-13.5-40.5-19.5-15-3-25.5-12-40.5-15-16.5-3-30-12-40.5-25.5-13.5-24-3-60 22.5-69v0zM1287 463.5c-270-3-541.5-7.5-811.5-6-22.5-1.5-40.5 15-48 36-51-3-103.5-3-154.5-6 0 9 1.5 19.5 1.5 28.5-13.5 0-27-1.5-40.5 1.5-12 3-22.5 15-19.5 27 16.5 189 33 378 49.5 567 1.5 24 16.5 48 40.5 57 34.5 12 72 13.5 108 6 40.5-1.5 81-1.5 121.5-3 12 27 25.5 52.5 39 78 19.5 37.5 55.5 60 87 85.5 9 7.5 19.5 15 25.5 25.5 3 13.5 3 27 0 40.5-6 27-10.5 55.5-16.5 82.5 18 4.5 36 10.5 52.5 15 1.5-37.5 4.5-75 7.5-112.5 0-19.5 0-40.5-13.5-54-25.5-28.5-60-48-87-75-22.5-22.5-33-54-48-82.5 30-1.5 58.5-1.5 88.5 0-1.5 3-4.5 6-6 9 4.5 4.5 9 9 13.5 13.5 13.5-10.5 27-19.5 42-30s21-30 24-46.5c9-45 10.5-90 12-135 1.5-54-9-108-12-162 0-9 0-21 7.5-28.5 12-9 28.5-10.5 43.5-13.5 6 27 12 55.5 18 82.5 9 69 15 138 18 208.5 7.5 0 16.5 0 25.5-1.5 3-12 3-24 3-37.5-1.5-45-6-90-10.5-133.5-1.5-36-6-72-6-109.5 0-15-1.5-34.5 10.5-45 10.5-9 27-9 40.5-7.5 4.5 31.5 10.5 61.5 15 93 6 78 1.5 157.5 0 235.5 9 0 18 0 27 0 6-25.5 3-52.5 4.5-78 0-54 3-108-4.5-162-4.5-16.5-3-37.5 10.5-51 10.5-9 24-4.5 36-3 3 67.5 3 135 1.5 202.5 0 30-3 60-7.5 90 9 1.5 16.5 1.5 25.5 3 16.5-67.5 15-139.5 28.5-207 9-4.5 18-1.5 27-1.5 0 90-9 180-15 270-3 19.5-9 39-13.5 60-1.5 12-12 18-19.5 27-18 19.5-37.5 37.5-55.5 57-18 24-39 45-58.5 66 6 3 12 9 19.5 6-9 51-9 102-12 153 16.5-4.5 34.5-9 51-13.5-1.5-51-12-103.5 6-153 25.5-40.5 64.5-70.5 94.5-108 13.5-18 15-40.5 21-61.5 45 0 88.5-1.5 133.5-1.5 16.5 0 33-3 45-12 22.5-16.5 31.5-46.5 31.5-73.5 12-192 22.5-384 34.5-574.5 4.5-19.5-12-40.5-31.5-37.5zM402 1068c-9 25.5-45 27-67.5 16.5-12-175.5-24-351-36-526.5 6 0 12 0 16.5 0 10.5 99 19.5 198 30 297 1.5 16.5 1.5 33 6 49.5 3-25.5 0-52.5 0-78 0-97.5-3-196.5-3-294 10.5 0 21 1.5 31.5 1.5 3 81 4.5 162 7.5 244.5 0 15 0 28.5 3 43.5 1.5-6 3-12 3-18 7.5-88.5 15-178.5 22.5-267 9 0 18 0 27 1.5-12 174-25.5 351-40.5 529.5z"></path>
</svg>
