<svg version="1.1" xmlns="http://www.w3.org/2000/svg"   viewBox="0 0 1500 1500">

<path d="M384 595.5c-10.5 0-22.5 0-33-6l-220.5-93c-45-16.5-61.5-66-45-111s66-61.5 111-45l222 94.5c45 16.5 61.5 66 45 111-12 27-45 49.5-79.5 49.5zM1336.5 1005c-10.5 0-22.5 0-33-6l-210-94.5c-45-16.5-61.5-66-45-111s66-61.5 111-45l210 94.5c45 16.5 61.5 66 45 111-16.5 34.5-45 51-78 51zM474 1414.5c-10.5 0-22.5 0-33-6-45-16.5-61.5-66-45-111l127.5-292.5c16.5-45 66-61.5 111-45s61.5 66 45 111l-129 294c-16.5 27-49.5 49.5-76.5 49.5zM916.5 385.5c-10.5 0-22.5 0-33-6-45-16.5-61.5-66-45-111l55.5-133.5c16.5-45 66-61.5 111-45s61.5 66 45 111l-55.5 133.5c-18 28.5-45 51-78 51zM969 1500c-33 0-66-22.5-78-49.5l-115.5-294c-16.5-45 6-88.5 45-111 45-16.5 88.5 6 111 45l115.5 294c16.5 45-6 88.5-45 111-10.5 4.5-22.5 4.5-33 4.5zM1074 681c-33 0-66-22.5-78-49.5-16.5-45 6-88.5 45-111l294-115.5c45-16.5 88.5 6 111 45 16.5 45-6 88.5-45 111l-294 114c-10.5 6-22.5 6-33 6zM553.5 459c-33 0-66-22.5-78-49.5l-115.5-292.5c-16.5-45 6-88.5 45-111 45-16.5 88.5 6 111 45l115.5 294c16.5 45-6 88.5-45 111-10.5 3-22.5 3-33 3zM133.5 1057.5c-33 0-66-22.5-78-49.5-16.5-45 6-88.5 45-111l193.5-78c45-16.5 94.5 6 111 45 16.5 45-6 88.5-45 111l-193.5 78c-12 4.5-22.5 4.5-33 4.5z"></path>
</svg>
