<svg version="1.1" xmlns="http://www.w3.org/2000/svg"   viewBox="0 0 1500 1500">

<path d="M421.875 295.898c137.695 0 205.078-82.031 196.289-155.273-8.789-61.523-67.383-117.188-181.641-120.117-93.75 0-155.273 70.313-164.063 137.695-8.789 70.313 35.156 140.625 149.414 137.695zM1113.281 278.32c131.836-5.859 187.5-73.242 190.43-137.695 0-76.172-70.313-149.414-190.43-140.625-93.75 8.789-152.344 73.242-158.203 140.625-11.719 73.242 38.086 146.484 158.203 137.695zM1195.313 574.219c-328.125 32.227-345.703 35.156-952.148 49.805-254.883 0-199.219 875.977 345.703 875.977 518.555 0 1148.438-981.445 606.445-925.781zM603.516 1344.727c-477.539 0-413.086-568.359-331.055-571.289 550.781-20.508 694.336-43.945 890.625-43.945 202.148 0-181.641 615.234-559.57 615.234z"></path>
</svg>
