<svg version="1.1" xmlns="http://www.w3.org/2000/svg"   viewBox="0 0 1500 1500">

<path d="M1470 1099.5c-199.5-33-291-240-294-249-12-21-15-37.5-9-52.5 12-24 52.5-37.5 82.5-46.5 6-3 15-6 21-9 27-9 46.5-21 61.5-34.5 15-15 18-30 18-40.5 0-24-21-43.5-49.5-55.5-9-3-21-6-33-6-9 0-21 0-30 6-24 12-43.5 18-64.5 18-9 0-15-3-21-3 3-12 3-21 3-30v-6c6-100.5 15-229.5-18-301.5-24-52.5-55.5-97.5-94.5-132-30-33-67.5-55.5-108-73.5-70.5-33-138-37.5-169.5-37.5-3 0-3 0-3 0-9 0-27 0-27 0-33 0-100.5 6-172.5 37.5-40.5 18-76.5 40.5-108 73.5-37.5 34.5-67.5 79.5-91.5 129-34.5 76.5-27 202.5-21 304.5 0 12 3 24 3 33-6 3-15 6-27 6-18 0-40.5-6-64.5-18-9-3-18-6-27-6-15 0-33 6-43.5 12-18 12-30 27-33 40.5-3 12-3 33 21 52.5 12 12 33 24 55.5 33 6 3 15 6 24 9 27 9 67.5 21 79.5 46.5 6 15 3 33-6 52.5-3 0-3 0-3 0-3 6-27 61.5-76.5 117-27 33-55.5 61.5-91.5 82.5-37.5 27-82.5 40.5-126 49.5-18 3-33 18-30 34.5 0 6 0 12 3 18 6 15 24 30 49.5 43.5 33 15 82.5 27 147 37.5 3 6 6 21 9 33s6 24 9 34.5c6 12 15 30 40.5 30 9 0 21-3 34.5-6 18-3 43.5-9 79.5-9 18 0 34.5 3 55.5 6 34.5 6 67.5 27 105 52.5 52.5 37.5 114 82.5 205.5 82.5 3 0 6 0 9 0s6 0 12 0c91.5 0 153-43.5 205.5-82.5 37.5-27 70.5-46.5 105-52.5 21-3 37.5-6 58.5-6 30 0 55.5 3 76.5 9 15 3 27 3 34.5 3h9c18 0 33-9 37.5-27 3-12 6-24 9-34.5 3-12 6-27 9-33 64.5-12 114-24 147-37.5 27-15 43.5-27 49.5-43.5 3-6 3-12 3-18 3-19.5-12-33-30-36z"></path>
</svg>
