<svg version="1.1" xmlns="http://www.w3.org/2000/svg"   viewBox="0 0 1500 1500">

<path d="M1300.781 164.063c-102.539-73.242-213.867-125.977-357.422-149.414v679.688l205.078-284.18h222.656l-257.813 357.422c0 0 58.594 93.75 93.75 149.414 35.156 58.594 70.313 73.242 123.047 73.242 14.648 0 14.648 0 35.156 0v175.781h-52.734c-111.328 0-181.641-20.508-231.445-99.609-32.227-49.805-137.695-213.867-137.695-213.867v310.547h-184.57v-1163.086c-2.93 0-5.859 0-8.789 0-240.234 0-407.227 58.594-550.781 164.063-208.008 158.203-199.219 363.281-199.219 585.938s-8.789 427.734 199.219 585.938c143.555 108.398 310.547 164.063 550.781 164.063s407.227-58.594 550.781-164.063c208.008-158.203 199.219-363.281 199.219-585.938s8.789-427.734-199.219-585.938zM410.156 1174.805c-117.188 0-210.938-20.508-290.039-99.609l120.117-120.117c38.086 38.086 108.398 52.734 169.922 52.734 73.242 0 108.398-23.438 108.398-67.383 0-17.578-5.859-32.227-14.648-43.945-11.719-8.789-26.367-17.578-49.805-20.508l-93.75-11.719c-67.383-8.789-117.188-32.227-149.414-67.383-35.156-35.156-52.734-87.891-52.734-152.344 0-137.695 102.539-240.234 275.391-240.234 108.398 0 190.43 26.367 254.883 90.82l-117.188 117.188c-46.875-46.875-111.328-43.945-143.555-43.945-64.453 0-90.82 35.156-90.82 70.313 0 8.789 2.93 23.438 14.648 32.227 8.789 8.789 26.367 20.508 52.734 23.438l90.82 14.648c67.383 8.789 117.188 29.297 149.414 61.523 38.086 38.086 55.664 96.68 55.664 166.992 2.93 152.344-131.836 237.305-290.039 237.305z"></path>
</svg>
