<svg version="1.1" xmlns="http://www.w3.org/2000/svg"   viewBox="0 0 1500 1500">

<path d="M29.297 990.234h-29.297v-181.641h29.297zM105.469 1048.828h-29.297v-284.18h29.297zM164.063 1066.406h-29.297v-331.055h29.297zM225.586 1081.055h-29.297v-331.055h29.297zM298.828 1081.055h-29.297v-436.523h29.297zM360.352 1081.055h-29.297v-495.117h29.297zM433.594 1081.055h-29.297v-527.344h29.297zM495.117 1081.055h-29.297v-541.992h29.297zM571.289 1081.055h-32.227v-527.344h32.227zM629.883 1081.055h-29.297v-509.766h29.297zM691.406 1081.055h-32.227v-571.289h32.227zM764.648 1081.055h-29.297v-615.234h29.297zM1315.43 1075.195c-2.93 0-512.695 0-512.695 0-11.719 0-23.438-8.789-23.438-20.508v-585.938c0-11.719 5.859-17.578 20.508-23.438 35.156-14.648 76.172-20.508 117.188-20.508 169.922 0 310.547 128.906 325.195 295.898 23.438-8.789 46.875-14.648 73.242-14.648 102.539 0 184.57 82.031 184.57 184.57s-82.031 184.57-184.57 184.57z"></path>
</svg>
