<svg version="1.1" xmlns="http://www.w3.org/2000/svg"   viewBox="0 0 1500 1500">

<path d="M1182 1184.834c-4.425 0-4.425 0 0 0-69.27-271.305-350.94-243.286-396.63-427.589-30.945-129.75 53.084-228.524 182.82-259.529 76.695-19.14 151.875 0 209.385 50.145 7.365 7.38 19.17 14.745 26.565 26.565v0 0c0 4.425 4.395 4.425 4.395 7.38l4.44 4.425 4.425 4.395c11.805 14.745 19.14 26.565 30.945 23.625 7.38-4.425 14.76-23.625 14.76-33.93 7.365-60.464 4.425-122.37-11.82-187.26-69.286-278.685-346.5-446.76-625.17-377.476-278.67 69.33-446.745 346.5-377.459 625.17 91.411 373.036 442.351 434.985 629.61 529.334 41.279 19.17 72.226 57.51 84.045 103.214 19.185 84.045-30.945 168.12-114.99 187.26v0c-4.44 0-4.44 0-7.38 0-14.745 4.395-19.17 0-19.17 7.365 0 4.395 11.805 11.774 19.17 14.745 45.721 19.14 98.791 23.58 151.875 7.38 137.115-29.49 219.69-166.62 190.185-305.221v0 0 0z"></path>
</svg>
