<svg version="1.1" xmlns="http://www.w3.org/2000/svg"   viewBox="0 0 1500 1500">

<path d="M1209.961 1215.82c-17.578 29.297-58.594 41.016-87.891 20.508-249.023-149.414-559.57-184.57-925.781-99.609-35.156 5.859-70.313-14.648-79.102-49.805s14.648-70.313 49.805-79.102c401.367-90.82 744.141-52.734 1022.461 117.188 32.227 17.578 41.016 58.594 20.508 90.82zM1338.867 928.711c-23.438 38.086-73.242 49.805-111.328 26.367-284.18-172.852-714.844-222.656-1051.758-123.047-41.016 14.648-87.891-11.719-102.539-52.734-11.719-43.945 11.719-90.82 55.664-102.539 383.789-117.188 858.398-61.523 1183.594 137.695 38.086 26.367 52.734 76.172 26.367 114.258zM1485.352 594.727c-26.367 46.875-87.891 61.523-134.766 35.156-339.844-202.148-899.414-219.727-1224.609-123.047-49.805 17.578-105.469-11.719-123.047-64.453-14.648-52.734 14.648-108.398 67.383-123.047 372.070-114.258 990.234-90.82 1382.813 140.625 46.875 29.297 61.523 87.891 32.227 134.766z"></path>
</svg>
