<svg version="1.1" xmlns="http://www.w3.org/2000/svg"   viewBox="0 0 1500 1500">

<path d="M489.645 131.49c86.774 86.791 173.955 173.971 261.81 261.825 86.955-87.87 173.55-175.38 259.666-262.395 163.411 163.44 326.37 326.399 488.88 488.895-249.286 249.27-499.065 499.065-749.265 749.25-250.125-249.195-500.73-498.855-750.735-747.945 163.334-163.334 326.279-326.279 489.645-489.63zM1011.24 357.645c-86.161 87.060-172.755 174.57-260.654 263.385-88.036-88.065-175.485-175.515-263.055-263.101-86.041 86.955-172.334 174.166-257.339 260.101 174.795 174.81 349.020 349.005 523.005 523.005 173.115-173.115 347.101-347.115 520.709-520.709-87.3-87.3-174.81-174.81-262.666-262.68z"></path>
</svg>
