<svg version="1.1" xmlns="http://www.w3.org/2000/svg"   viewBox="0 0 1500 1500">

<path d="M945 469.5c19.5-19.5 19.5-52.5 0-72s-52.5-19.5-72 0l-475.5 475.5c-67.5 67.5-177 67.5-244.5 0s-67.5-177 0-244.5l382.5-382.5c19.5-19.5 19.5-52.5 0-72s-52.5-19.5-72 0l-382.5 381c-106.5 106.5-106.5 282 0 388.5s282 106.5 388.5 0l475.5-474zM238.5 786c19.5 19.5 52.5 19.5 72 0l475.5-475.5c67.5-67.5 177-67.5 244.5 0 19.5 19.5 52.5 19.5 72 0s19.5-52.5 0-72c-106.5-106.5-282-106.5-388.5 0l-475.5 475.5c-19.5 19.5-19.5 52.5 0 72zM1261.5 714c-19.5-19.5-52.5-19.5-72 0l-475.5 475.5c-67.5 67.5-177 67.5-244.5 0-19.5-19.5-52.5-19.5-72 0s-19.5 52.5 0 72c106.5 106.5 282 106.5 388.5 0l475.5-475.5c19.5-19.5 19.5-52.5 0-72zM1030.5 555l-475.5 475.5c-19.5 19.5-19.5 52.5 0 72s52.5 19.5 72 0l475.5-475.5c67.5-67.5 177-67.5 244.5 0s67.5 177 0 244.5l-381 382.5c-19.5 19.5-19.5 52.5 0 72s52.5 19.5 72 0l381-381c106.5-106.5 106.5-282 0-388.5-106.5-108-280.5-108-388.5-1.5z"></path>
</svg>
