<svg version="1.1" xmlns="http://www.w3.org/2000/svg"   viewBox="0 0 1500 1500">

<path d="M448.242 1136.719c-2.93 76.172-2.93-8.789-2.93 11.719v2.93c29.297 82.031 131.836 208.008 257.813 278.32 2.93 0 2.93 2.93 5.859 2.93 0 0 2.93 0 2.93-2.93 2.93 0 5.859-2.93 5.859-5.859 0-52.734 0-73.242 0-284.18-14.648 8.789-269.531-2.93-269.531-2.93zM782.227 1104.492c0 275.391 0 254.883 0 319.336 0 2.93 0 5.859 2.93 5.859s2.93 2.93 5.859 2.93c0 0 2.93 0 2.93-2.93 128.906-70.313 225.586-181.641 254.883-263.672 0 0-96.68 5.859-222.656-111.328-23.438 41.016-26.367 38.086-43.945 49.805zM711.914 166.992l-249.023-96.68h-5.859l-257.813 46.875c-2.93 0-5.859 2.93-5.859 5.859 0 5.859 0 8.789 2.93 8.789 0 0 41.016 17.578 87.891 41.016 46.875 26.367 99.609 61.523 117.188 93.75 8.789 14.648 2.93 0 8.789 23.438l304.688-2.93c0-93.75 0-114.258 0-114.258 0-2.93 0-5.859-2.93-5.859zM1303.711 117.188l-257.813-46.875h-5.859l-254.883 96.68c-2.93 0-2.93 2.93-2.93 5.859 0 0 0 117.188 0 128.906l32.227 38.086c8.789-8.789 32.227-55.664 84.961-55.664 49.805 0 111.328 0 193.359 0 55.664-79.102 213.867-149.414 213.867-149.414 2.93-2.93 2.93-5.859 2.93-8.789 0-5.859-2.93-8.789-5.859-8.789zM114.258 480.469h416.016l55.664 52.734c0 0 2.93 0 5.859 0 0 0 2.93 0 5.859-2.93l143.555-161.133c2.93-2.93 2.93-5.859 2.93-8.789-2.93-2.93-5.859-2.93-8.789-2.93 0 0-518.555 0-536.133 0-23.438 0-43.945 2.93-61.523 17.578-20.508 14.648-29.297 38.086-29.297 79.102 0 17.578 0 17.578 0 17.578 0 2.93 2.93 8.789 5.859 8.789zM1491.211 363.281h-597.656l-105.469 102.539c-2.93 2.93-2.93 5.859-2.93 8.789 2.93 2.93 5.859 5.859 8.789 5.859h474.609l23.438 32.227c2.93 2.93 5.859 2.93 5.859 2.93 2.93 0 2.93 0 5.859 0l193.359-137.695c2.93-2.93 5.859-8.789 2.93-11.719s-5.859-2.93-8.789-2.93zM1294.922 993.164c-14.648 2.93-32.227 2.93-49.805 2.93-128.906 0-251.953-102.539-263.672-251.953-2.93-29.297-2.93-26.367-2.93-49.805 0-64.453 5.859-114.258 8.789-140.625 0-2.93 0-5.859 0-5.859-2.93-2.93-2.93-2.93-5.859-2.93h-210.938c-2.93 0-5.859 0-5.859 5.859-11.719 29.297-29.297 87.891-29.297 166.992 0 46.875 5.859 67.383 23.438 123.047 41.016 125.977 193.359 246.094 313.477 246.094 184.57 0 228.516-64.453 228.516-84.961 0-2.93 0-5.859-2.93-5.859 0-2.93 0-5.859-2.93-2.93zM407.227 547.852l-5.859-2.93h-240.234c-2.93 0-5.859 2.93-8.789 5.859 0 2.93 0 5.859 2.93 8.789 0 0 322.266 372.070 331.055 383.789 0 2.93 0 2.93 0 2.93s-2.93 2.93-2.93 2.93c-5.859 0-131.836 0-190.43 0-35.156 0-61.523-14.648-76.172-26.367s-20.508-23.438-20.508-23.438c-2.93-2.93-2.93-2.93-5.859-5.859-5.859 0-5.859 0-8.789 2.93l-175.781 164.063c-5.859 5.859-5.859 8.789-5.859 11.719 2.93 2.93 5.859 2.93 8.789 2.93 0 0 618.164 0 665.039 0 38.086 0 64.453-41.016 64.453-82.031 0-14.648-5.859-29.297-14.648-41.016-23.438-32.227-316.406-401.367-316.406-404.297zM565.43 618.164c5.859 2.93 8.789 2.93 14.648 2.93h2.93c23.438-2.93 43.945-11.719 61.523-29.297l17.578-20.508c-11.719 43.945-17.578 93.75-17.578 143.555 0 2.93 0 5.859 0 8.789-26.367-32.227-52.734-70.313-79.102-105.469z"></path>
</svg>
