<svg version="1.1" xmlns="http://www.w3.org/2000/svg"   viewBox="0 0 1500 1500">

<path d="M462.891 916.992c0 0 2.93-84.961 20.508-111.328s38.086-46.875 64.453-61.523c26.367-11.719 43.945-17.578 64.453-29.297 0 0 5.859-2.93 11.719-5.859 17.578-11.719 49.805-32.227 52.734-52.734 0-20.508 0-20.508 0-32.227 0-8.789-5.859-32.227-8.789-38.086-8.789-17.578-20.508-5.859-26.367-29.297 0-5.859-2.93-38.086 0-41.016 0-5.859 5.859-8.789 5.859-8.789s0-17.578 0-26.367c0-5.859 0-41.016 14.648-61.523 17.578-20.508 23.438-35.156 84.961-35.156 58.594 2.93 67.383 20.508 79.102 35.156 11.719 20.508 14.648 58.594 14.648 84.961 0 5.859 5.859-5.859 5.859 11.719 2.93 8.789 0 29.297 0 41.016-2.93 23.438-17.578 8.789-26.367 32.227-2.93 11.719-2.93 26.367 0 43.945 0 17.578 0 23.438 11.719 38.086 8.789 14.648 23.438 26.367 49.805 38.086h2.93c29.297 11.719 55.664 20.508 79.102 38.086s29.297 23.438 38.086 41.016c5.859 17.578 11.719 61.523 11.719 76.172 2.93 17.578 5.859 38.086 5.859 38.086s5.859-35.156 26.367-49.805c20.508-17.578 23.438-20.508 49.805-32.227 23.438-11.719 20.508-5.859 46.875-20.508s35.156-20.508 41.016-29.297c5.859-8.789 8.789-23.438 2.93-32.227s-5.859-20.508-17.578-26.367c-14.648-11.719-11.719-32.227-20.508-38.086s-14.648-8.789-14.648-17.578c-2.93-11.719-5.859-23.438-2.93-46.875 2.93-20.508 2.93-11.719 5.859-20.508s5.859-32.227 8.789-43.945c5.859-8.789 8.789-23.438 17.578-32.227s29.297-32.227 73.242-38.086c26.367-2.93 43.945 0 64.453 5.859 23.438 8.789 49.805 41.016 55.664 58.594s5.859 26.367 5.859 41.016c0 2.93 0 8.789 0 23.438 0 5.859 5.859 11.719-2.93 55.664-5.859 14.648-5.859 20.508-20.508 32.227-8.789 5.859-11.719 20.508-20.508 26.367-11.719 8.789-8.789 23.438-5.859 38.086s11.719 14.648 26.367 23.438c14.648 8.789 87.891 41.016 108.398 70.313 17.578 29.297 43.945 43.945 49.805 128.906 5.859 29.297 2.93 35.156 2.93 67.383s2.93 38.086 2.93 67.383h-483.398c0 0-8.789-96.68-17.578-82.031-11.719 14.648-26.367 84.961-26.367 84.961h-477.539c0 0-14.648-70.313-20.508-84.961-5.859-8.789-11.719 84.961-11.719 84.961h-465.82c0 0 2.93-38.086 5.859-58.594 2.93-32.227 2.93-70.313 11.719-99.609 8.789-32.227 8.789-46.875 26.367-64.453 20.508-14.648 32.227-26.367 46.875-35.156 26.367-11.719 64.453-41.016 38.086-111.328-20.508-46.875 2.93-117.188 29.297-158.203 26.367-38.086 38.086-70.313 93.75-70.313s96.68 61.523 108.398 102.539c8.789 43.945 14.648 96.68 2.93 134.766-14.648 43.945 0 67.383 61.523 99.609 23.438 11.719 32.227 49.805 38.086 61.523z"></path>
</svg>
