<svg version="1.1" xmlns="http://www.w3.org/2000/svg"   viewBox="0 0 1500 1500">

<path d="M1306.641 465.82c0 123.047-99.609 219.727-219.727 219.727-123.047 0-222.656-96.68-222.656-219.727 0-120.117 99.609-219.727 222.656-219.727 120.117 0 219.727 99.609 219.727 219.727zM0 1168.945l84.961 32.227c29.297 137.695 152.344 243.164 298.828 243.164 161.133 0 290.039-123.047 307.617-278.32l392.578-287.109c228.516 0 413.086-184.57 413.086-410.156 0-228.516-184.57-413.086-413.086-413.086-225.586 0-410.156 181.641-410.156 407.227l-257.813 369.141c-8.789-2.93-20.508-2.93-32.227-2.93-55.664 0-111.328 14.648-155.273 43.945l-228.516-93.75v389.648zM1083.984 190.43c152.344 0 275.391 125.977 275.391 278.32s-123.047 275.391-275.391 275.391c-152.344 0-275.391-123.047-275.391-275.391s123.047-278.32 275.391-278.32zM383.789 911.133c125.977 0 225.586 99.609 225.586 225.586s-99.609 225.586-225.586 225.586c-84.961 0-161.133-46.875-199.219-120.117 38.086 14.648 73.242 29.297 111.328 43.945 90.82 38.086 196.289-5.859 234.375-99.609 38.086-90.82-8.789-196.289-99.609-231.445l-93.75-38.086c14.648-2.93 32.227-5.859 46.875-5.859z"></path>
</svg>
