<svg version="1.1" xmlns="http://www.w3.org/2000/svg"   viewBox="0 0 1500 1500">

<path d="M1218.75 172.852c-108.398 23.438-281.25 38.086-477.539 38.086s-372.070-14.648-477.539-38.086c-67.383 14.648-99.609 17.578-90.82 52.734 11.719 46.875 243.164 90.82 568.359 90.82s574.219-43.945 585.938-90.82c8.789-35.156-41.016-38.086-108.398-52.734zM1221.68 155.273c-208.008 29.297-375 35.156-489.258 35.156-76.172 0-152.344 0-254.883-11.719-82.031-8.789-208.008-26.367-208.008-26.367 2.93-41.016 5.859-93.75 58.594-125.977 29.297-17.578 70.313-23.438 84.961-23.438 84.961-2.93 588.867-2.93 676.758 0 11.719 0 55.664 5.859 82.031 23.438 55.664 32.227 55.664 84.961 61.523 125.977 0 0-125.977 17.578-210.938 26.367-102.539 11.719-178.711 11.719-251.953 11.719-114.258 0-284.18-5.859-489.258-35.156M1262.695 392.578c-5.859 0-14.648 0-26.367-2.93 0 0-79.102-8.789-161.133 29.297-5.859 2.93-14.648 5.859-20.508 11.719 0 0-11.719 11.719-20.508 26.367-5.859 11.719-82.031 325.195-108.398 369.141s-84.961 146.484-152.344 205.078c-99.609 79.102-249.023 143.555-319.336 152.344-35.156 5.859-70.313 11.719-108.398 14.648-11.719 0-41.016 0-76.172 8.789-8.789 0-26.367 26.367-29.297 38.086s-5.859 49.805 2.93 99.609c5.859 35.156 14.648 76.172 46.875 111.328 35.156 29.297 73.242 38.086 96.68 38.086 8.789 2.93 17.578 5.859 32.227 2.93h691.406c84.961 0 152.344-67.383 152.344-149.414z"></path>
</svg>
