<svg version="1.1" xmlns="http://www.w3.org/2000/svg"   viewBox="0 0 1500 1500">

<path d="M750 433.594c-43.945 0-79.102 35.156-79.102 79.102v480.469c-2.93 181.641-152.344 331.055-336.914 331.055s-333.984-152.344-333.984-336.914c0-2.93 0-208.008 0-208.008h257.813v205.078c0 43.945 35.156 79.102 79.102 79.102s79.102-35.156 79.102-79.102v-483.398c5.859-178.711 152.344-322.266 333.984-322.266s328.125 143.555 333.984 322.266v108.398l-152.344 43.945-102.539-46.875v-93.75c0-43.945-35.156-79.102-79.102-79.102zM1500 987.305c0 184.57-149.414 336.914-333.984 336.914s-333.984-149.414-336.914-333.984v-208.008l102.539 46.875 152.344-46.875v210.938c0 43.945 35.156 79.102 79.102 79.102s79.102-35.156 79.102-79.102v-213.867h257.813c0 0 0 205.078 0 208.008z"></path>
</svg>
