<svg version="1.1" xmlns="http://www.w3.org/2000/svg"   viewBox="0 0 1500 1500">

<path d="M559.57 934.57c-61.523 93.75-105.469 187.5-137.695 257.813 0 2.93-23.438 58.594-29.297 76.172-8.789 20.508 2.93 43.945 23.438 52.734 17.578 5.859 73.242 26.367 76.172 29.297 73.242 23.438 169.922 52.734 278.32 70.313-61.523-61.523-114.258-137.695-152.344-219.727s-55.664-172.852-58.594-266.602zM773.438 547.852c0 0 0 0 0 0-2.93-5.859-8.789-20.508-11.719-23.438-210.938-433.594-679.688-416.016-752.93-222.656-58.594 146.484 190.43 500.977 764.648 246.094zM867.188 506.836c0 0 0 0 0 0 325.195-143.555 278.32-392.578 196.289-424.805-114.258-43.945-319.336 123.047-202.148 413.086 2.93 2.93 5.859 8.789 5.859 11.719zM1461.914 823.242c-46.875-108.398-137.695-187.5-243.164-225.586-8.789-2.93-20.508-5.859-32.227-5.859-52.734 0-105.469 43.945-111.328 102.539-5.859 93.75 11.719 187.5 52.734 281.25 41.016 90.82 96.68 166.992 172.852 225.586 17.578 14.648 41.016 20.508 64.453 20.508 43.945 0 84.961-23.438 102.539-61.523 43.945-105.469 43.945-225.586-5.859-336.914zM1004.883 1031.25c-52.734-117.188-73.242-234.375-64.453-348.633 2.93-32.227 14.648-64.453 29.297-93.75-2.93 2.93-8.789 2.93-8.789 2.93-46.875 11.719-93.75 32.227-134.766 58.594-58.594 41.016-111.328 99.609-134.766 166.992-5.859 17.578-11.719 38.086-11.719 58.594-8.789 90.82 5.859 187.5 46.875 278.32 41.016 87.891 96.68 161.133 166.992 216.797 43.945 32.227 123.047 55.664 184.57 55.664 58.594 0 117.188-17.578 169.922-43.945 17.578-8.789 52.734-32.227 55.664-35.156-32.227-5.859-61.523-20.508-84.961-41.016-90.82-67.383-164.063-161.133-213.867-275.391z"></path>
</svg>
