<svg version="1.1" xmlns="http://www.w3.org/2000/svg"   viewBox="0 0 1500 1500">

<path d="M691.406 1256.836c331.055-55.664 580.078-287.109 580.078-565.43 0-319.336-328.125-577.148-732.422-577.148-26.367 0-55.664 0-82.031 2.93 35.156 17.578 70.313 46.875 99.609 82.031 231.445 8.789 427.734 123.047 503.906 281.25 2.93 2.93 5.859 5.859 5.859 8.789 2.93 5.859 5.859 14.648 8.789 20.508 14.648 38.086 23.438 82.031 23.438 125.977 0 184.57-152.344 348.633-366.211 413.086 5.859 8.789 11.719 23.438 2.93 38.086l-2.93 2.93-5.859 2.93c-17.578 11.719-17.578 26.367-14.648 49.805 2.93 11.719 8.789 26.367 8.789 41.016 2.93 17.578 0 35.156-8.789 52.734-2.93 5.859-11.719 11.719-20.508 20.508zM735.352 1025.391c-2.93 2.93-2.93 5.859-5.859 5.859l-5.859 5.859c-2.93 0-2.93 2.93-2.93 2.93 114.258-52.734 193.359-149.414 193.359-257.813s-76.172-202.148-187.5-254.883c2.93 11.719 2.93 23.438 2.93 35.156s-2.93 23.438-8.789 32.227c-2.93 2.93-2.93 5.859-5.859 8.789s-5.859 5.859-8.789 8.789c-8.789 11.719-8.789 17.578-8.789 26.367l2.93 8.789c38.086 61.523 82.031 125.977 123.047 190.43l2.93 2.93c8.789 20.508 0 43.945-17.578 55.664-8.789 8.789-17.578 11.719-26.367 14.648-8.789 0-17.578 2.93-23.438 2.93-14.648 2.93-20.508 5.859-23.438 14.648s-2.93 17.578 0 26.367c2.93 2.93 2.93 8.789 5.859 14.648s5.859 11.719 8.789 14.648l2.93 5.859v5.859c-5.859 17.578-11.719 23.438-17.578 29.297zM418.945 1236.328c169.922 32.227 225.586 5.859 240.234-17.578 26.367-52.734-41.016-111.328 20.508-149.414 8.789-14.648-8.789-20.508-14.648-29.297-11.719-23.438 26.367-26.367 26.367-49.805-11.719-23.438-23.438-43.945-14.648-73.242 14.648-35.156 55.664-20.508 82.031-41.016 8.789-8.789 14.648-23.438 8.789-35.156-41.016-61.523-84.961-128.906-125.977-193.359l-2.93-11.719c-2.93-35.156 32.227-46.875 35.156-82.031-2.93-99.609-120.117-389.648-287.109-424.805 0 0 0 149.414 0 336.914 134.766 102.539 210.938 269.531 181.641 457.031-14.648 114.258-70.313 222.656-149.414 313.477zM600.586 11.719c-93.75 0-187.5 11.719-272.461 32.227l-58.594 17.578c-41.016 14.648-61.523 38.086-70.313 70.313l-64.453 322.266c-79.102 32.227-134.766 108.398-134.766 199.219 0 120.117 96.68 216.797 216.797 216.797s216.797-96.68 216.797-216.797c0-79.102-41.016-146.484-102.539-184.57v-401.367c70.313-17.578 143.555-26.367 219.727-26.367 468.75 0 849.609 313.477 849.609 697.266 0 386.719-380.859 697.266-849.609 697.266-111.328 0-219.727-17.578-319.336-49.805-14.648 8.789-26.367 14.648-38.086 20.508 123.047 52.734 260.742 82.031 410.156 82.031 495.117 0 896.484-331.055 896.484-738.281s-401.367-738.281-899.414-738.281zM375 647.461c0 87.891-73.242 158.203-158.203 158.203-87.891 0-161.133-70.313-161.133-158.203 0-90.82 73.242-161.133 161.133-161.133s158.203 73.242 158.203 161.133z"></path>
</svg>
