<svg version="1.1" xmlns="http://www.w3.org/2000/svg"   viewBox="0 0 1500 1500">

<path d="M1500 0v1037.109c-254.883 155.273-559.57 187.5-840.82 134.766-140.625 73.242-266.602 175.781-404.297 254.883 8.789-108.398 23.438-213.867 35.156-322.266 2.93-43.945 17.578-99.609-29.297-125.977-172.852-137.695-290.039-363.281-263.672-588.867 14.648-146.484 90.82-269.531 181.641-389.648zM1239.258 190.43c-114.258-84.961-263.672-123.047-404.297-117.188-161.133 2.93-322.266 61.523-430.664 178.711-61.523 64.453-108.398 152.344-108.398 243.164-5.859 125.977 64.453 246.094 161.133 319.336 205.078 155.273 506.836 169.922 729.492 43.945 125.977-70.313 225.586-196.289 228.516-342.773 2.93-131.836-70.313-251.953-175.781-325.195z"></path>
</svg>
