<svg version="1.1" xmlns="http://www.w3.org/2000/svg"   viewBox="0 0 1500 1500">

<path d="M1391.602 117.188l-1333.008 521.484c0 0-64.453 20.508-58.594 61.523s55.664 58.594 55.664 58.594l331.055 111.328c26.367 84.961 105.469 357.422 120.117 410.156 17.578 58.594 29.297 70.313 38.086 73.242 2.93 0 5.859 0 5.859 0 23.438 2.93 41.016-11.719 41.016-11.719l210.938-208.008 333.984 254.883c90.82 38.086 125.977-43.945 125.977-43.945l237.305-1195.313c0-79.102-108.398-32.227-108.398-32.227zM1224.609 389.648c-23.438 20.508-577.148 527.344-632.813 580.078l-32.227 275.391c-2.93 26.367-26.367 26.367-38.086 5.859-23.438-76.172-79.102-278.32-108.398-369.141l785.156-521.484c0 0 43.945-29.297 43.945 0 0 0 0 11.719-17.578 29.297z"></path>
</svg>
