<svg version="1.1" xmlns="http://www.w3.org/2000/svg"   viewBox="0 0 1500 1500">

<path d="M1495.5 838.5c-4.5-40.5-12-81-22.5-120-28.5-97.5-73.5-186-136.5-264-36-45-76.5-85.5-123-121.5-57-45-120-79.5-186-108-88.5-36-181.5-52.5-286.5-52.5-30 0-69 3-108 9-75 10.5-145.5 34.5-213 67.5-132 66-237 162-313.5 288-60 100.5-96 210-103.5 328.5-4.5 60-1.5 121.5 7.5 181.5 9 55.5 25.5 109.5 46.5 160.5 9 22.5 19.5 45 31.5 67.5 6 10.5 12 19.5 19.5 27 30 27 64.5 31.5 102 24 33-7.5 58.5-27 75-55.5 15-27 18-55.5 7.5-85.5-4.5-13.5-12-27-18-40.5-27-60-42-121.5-46.5-186-3-45 0-90 7.5-133.5 13.5-72 42-138 84-198 37.5-54 82.5-99 136.5-136.5 73.5-51 154.5-79.5 243-88.5 45-4.5 88.5-3 133.5 3 43.5 6 85.5 18 126 36 81 34.5 147 87 202.5 154.5 31.5 39 57 81 78 127.5 22.5 51 34.5 105 39 162 3 42 1.5 84-6 126-7.5 43.5-19.5 85.5-37.5 124.5-6 12-9 25.5-16.5 36-10.5 18-13.5 37.5-10.5 57 7.5 42 31.5 72 70.5 88.5 31.5 12 63 9 94.5-4.5 18-9 30-24 42-39 3-4.5 4.5-9 6-15 40.5-82.5 66-168 75-259.5 6-55.5 6-108 0-160.5zM759 889.5c-103.5 0-187.5 84-189 186 0 102 84 187.5 187.5 186 99 1.5 186-82.5 186-184.5 1.5-103.5-84-187.5-184.5-187.5z"></path>
</svg>
