<svg version="1.1" xmlns="http://www.w3.org/2000/svg"   viewBox="0 0 1500 1500">

<path d="M413.086 676.758c-228.516 0-413.086 184.57-413.086 410.156 0 228.516 184.57 413.086 413.086 413.086 225.586 0 410.156-184.57 410.156-413.086 0-114.258 0-67.383 0-117.188h-146.484c0 0 0 2.93 0 117.188 0 73.242-29.297 140.625-79.102 187.5-46.875 46.875-111.328 76.172-184.57 76.172s-140.625-29.297-187.5-76.172c-49.805-46.875-79.102-114.258-79.102-187.5s29.297-137.695 79.102-187.5c46.875-46.875 114.258-76.172 187.5-76.172 134.766 0 533.203 0 673.828 0 228.516 0 413.086-184.57 413.086-410.156 0-228.516-184.57-413.086-413.086-413.086-225.586 0-410.156 184.57-410.156 413.086 0 114.258 0 117.188 0 117.188h146.484c0 0 0-2.93 0-117.188 0-73.242 29.297-140.625 79.102-187.5 46.875-46.875 111.328-76.172 184.57-76.172s140.625 29.297 187.5 76.172c49.805 46.875 79.102 114.258 79.102 187.5s-29.297 137.695-79.102 187.5c-46.875 46.875-114.258 76.172-187.5 76.172h-673.828z"></path>
</svg>
