<svg version="1.1" xmlns="http://www.w3.org/2000/svg"   viewBox="0 0 1500 1500">

<path d="M1441.709 683.851c4.2-28.545 5.805-56.505 6.375-99.18 4.529-329.279-281.536-582.464-600.51-584.295-78.060-0.51-117.105-0.51-195.195 0-319.080 1.83-604.245 251.895-600.495 584.295 0.45 41.805 1.846 71.25 5.791 99.99-40.935 59.851-61.995 139.56-53.070 224.505l2.64 25.245c17.536 167.041 144.075 290.714 282.555 276.149l7.351-0.779c94.545 177.3 261.825 289.471 452.714 290.19v0.029h0.435c15.51 0 28.080-12.555 28.080-28.096v-99.885c0-15.464-12.57-27.99-28.005-28.065v-0.209c-193.98 0-368.82-237.195-368.82-475.89 0-235.904 174.839-477.089 368.041-477.089v0.029h0.39c15.51 0 28.065-12.555 28.065-28.11v-98.654c0-15.36-12.36-27.839-27.675-28.065v-0.255c-208.2 0.555-388.365 133.68-476.791 339.315l-50.041 5.279c-2.596 0.286-5.084 0.916-7.649 1.291-11.55-249.48 218.31-429.524 464.596-430.89 62.985-0.39 94.455-0.39 157.44 0 246 1.365 458.024 181.95 450.089 431.536-3.87-0.63-7.635-1.529-11.565-1.935l-80.175-8.355c-0.255-0.045-0.495-0.12-0.765-0.18-17.399-1.83-33.015 10.77-34.83 28.17l-59.596 567.3c-1.83 17.385 10.77 33 28.17 34.77 0.3 0.045 0.51-0.029 0.795 0v0.12l80.145 8.416c138.464 14.565 264.976-109.11 282.524-276.166l2.67-25.245c8.971-85.32-12.346-165.346-53.685-225.286z"></path>
</svg>
