<svg version="1.1" xmlns="http://www.w3.org/2000/svg"   viewBox="0 0 1500 1500">

<path d="M1312.5 0h-1125c-103.564 0-187.5 83.936-187.5 187.5v1125c0 103.564 83.936 187.5 187.5 187.5h1125c103.564 0 187.5-83.936 187.5-187.5v-1125c0-103.564-83.936-187.5-187.5-187.5zM652.441 1136.279c0 49.658-40.283 89.941-89.941 89.941h-277.588c-49.658 0-89.941-40.283-89.941-89.941v-851.367c0-49.658 40.283-89.941 89.941-89.941h277.588c49.658 0 89.941 40.283 89.941 89.941v851.367zM1305.029 761.133c0 49.805-40.283 90.088-89.941 90.088h-277.588c-49.658 0-89.941-40.283-89.941-90.088v-476.074c0-49.805 40.283-90.088 89.941-90.088h277.588c49.658 0 89.941 40.283 89.941 90.088v476.074z"></path>
</svg>
