<svg version="1.1" xmlns="http://www.w3.org/2000/svg"   viewBox="0 0 1500 1500">

<path d="M439.453 814.453c0 32.227-26.367 61.523-61.523 61.523-32.227 0-61.523-29.297-61.523-61.523 0-35.156 29.297-61.523 61.523-61.523 35.156 0 61.523 26.367 61.523 61.523zM1183.594 814.453c0 32.227-29.297 61.523-61.523 61.523-35.156 0-61.523-29.297-61.523-61.523 0-35.156 26.367-61.523 61.523-61.523 32.227 0 61.523 26.367 61.523 61.523zM377.93 632.813c-46.875 0-93.75 17.578-128.906 52.734-32.227 35.156-52.734 79.102-52.734 128.906 0 46.875 20.508 93.75 52.734 128.906 35.156 32.227 82.031 52.734 128.906 52.734 102.539 0 181.641-82.031 181.641-181.641s-79.102-181.641-181.641-181.641zM377.93 940.43c-32.227 0-64.453-14.648-87.891-38.086s-38.086-55.664-38.086-87.891c0-35.156 14.648-67.383 38.086-90.82s55.664-35.156 87.891-35.156c70.313 0 125.977 55.664 125.977 125.977s-55.664 125.977-125.977 125.977zM1122.070 632.813c-49.805 0-93.75 17.578-128.906 52.734s-52.734 79.102-52.734 128.906c0 46.875 17.578 93.75 52.734 128.906 35.156 32.227 79.102 52.734 128.906 52.734 99.609 0 181.641-82.031 181.641-181.641s-82.031-181.641-181.641-181.641zM1122.070 940.43c-35.156 0-67.383-14.648-90.82-38.086s-35.156-55.664-35.156-87.891c0-35.156 11.719-67.383 35.156-90.82s55.664-35.156 90.82-35.156c67.383 0 125.977 55.664 125.977 125.977s-58.594 125.977-125.977 125.977zM1415.039 574.219c14.648-43.945 35.156-93.75 64.453-123.047h-246.094c-5.859 0-8.789-2.93-14.648-2.93-11.719-20.508-105.469-140.625-474.609-140.625-407.227 0-477.539 143.555-477.539 143.555h-260.742c32.227 29.297 55.664 90.82 70.313 134.766-46.875 64.453-76.172 143.555-76.172 228.516 0 208.008 169.922 377.93 377.93 377.93 117.188 0 219.727-52.734 290.039-134.766l84.961 120.117 76.172-123.047c67.383 84.961 172.852 137.695 292.969 137.695 208.008 0 377.93-169.922 377.93-377.93 0-90.82-32.227-175.781-84.961-240.234zM377.93 1119.141c-166.992 0-304.688-137.695-304.688-304.688 0-169.922 137.695-304.688 304.688-304.688 169.922 0 304.688 134.766 304.688 304.688 0 166.992-134.766 304.688-304.688 304.688zM383.789 457.031c0 0 96.68-111.328 357.422-111.328h26.367c257.813 0 357.422 111.328 357.422 111.328s-278.32-46.875-372.070 295.898c-90.82-342.773-369.141-295.898-369.141-295.898zM1122.070 1119.141c-169.922 0-304.688-137.695-304.688-304.688 0-169.922 134.766-304.688 304.688-304.688 166.992 0 304.688 134.766 304.688 304.688 0 166.992-137.695 304.688-304.688 304.688z"></path>
</svg>
