<svg version="1.1" xmlns="http://www.w3.org/2000/svg"   viewBox="0 0 1500 1500">

<path d="M536.133 125.977c38.086 87.891 76.172 175.781 117.188 263.672 2.93 8.789 11.719 43.945 26.367 38.086 29.297-11.719 23.438-8.789 14.648-38.086-14.648-43.945-32.227-84.961-43.945-125.977-23.438-64.453-52.734-128.906-73.242-193.359-5.859-17.578-26.367-84.961-55.664-67.383-46.875 26.367 0 87.891 14.648 123.047 5.859 11.719-5.859-14.648 0 0zM1048.828 571.289c-32.227 0-46.875 49.805-20.508 67.383 8.789 5.859 17.578 8.789 20.508 8.789 14.648 0 38.086-23.438 38.086-41.016 0-8.789 14.648-29.297 52.734-70.313 29.297-29.297 87.891-90.82 131.836-134.766 41.016-43.945 102.539-108.398 134.766-143.555 76.172-79.102 76.172-79.102 67.383-96.68-2.93-8.789-14.648-17.578-23.438-17.578-2.93-2.93-2.93-2.93-5.859-2.93-11.719 2.93-26.367 17.578-79.102 79.102-14.648 17.578-38.086 43.945-49.805 58.594-11.719 11.719-38.086 41.016-55.664 64.453-20.508 20.508-49.805 55.664-64.453 73.242-52.734 58.594-82.031 93.75-108.398 125.977-17.578 20.508-29.297 29.297-38.086 29.297zM1042.969 858.398c82.031-35.156 181.641-105.469 213.867-152.344 8.789-8.789 17.578-20.508 20.508-26.367 26.367-29.297 43.945-99.609 32.227-140.625-5.859-26.367-35.156-73.242-46.875-73.242-8.789 0-82.031 82.031-84.961 93.75-5.859 23.438 5.859 29.297 49.805 29.297s41.016 5.859-8.789 23.438c-64.453 23.438-73.242 43.945-49.805 93.75 5.859 14.648 11.719 26.367 8.789 26.367 0 2.93-14.648 0-29.297-5.859-35.156-8.789-49.805-11.719-70.313-2.93-17.578 8.789-43.945 58.594-43.945 79.102 0 8.789-2.93 14.648-5.859 17.578-8.789 2.93-17.578-20.508-17.578-41.016 0-5.859-8.789-23.438-20.508-35.156-20.508-23.438-20.508-23.438-58.594-23.438-20.508 0-46.875 2.93-61.523 5.859l-23.438 2.93 35.156-35.156c29.297-29.297 35.156-35.156 35.156-58.594 0-29.297-14.648-49.805-46.875-76.172l-17.578-17.578 23.438 5.859c82.031 14.648 120.117-8.789 131.836-84.961 0-14.648 5.859-26.367 5.859-26.367 2.93 0 11.719 14.648 17.578 29.297 17.578 38.086 29.297 46.875 52.734 29.297 17.578-11.719 67.383-67.383 70.313-79.102 5.859-14.648-67.383-23.438-149.414-23.438-64.453 0-134.766 5.859-175.781 14.648-87.891 23.438-108.398 29.297-105.469 41.016 2.93 5.859 8.789 20.508 14.648 32.227 11.719 38.086 20.508 55.664 26.367 55.664 8.789 0 32.227 32.227 32.227 41.016 0 5.859-5.859 17.578-14.648 26.367-17.578 17.578-41.016 20.508-61.523 2.93-8.789-11.719-11.719-17.578-8.789-35.156 2.93-23.438-2.93-38.086-32.227-102.539l-5.859-11.719-43.945 20.508c-128.906 64.453-210.938 143.555-237.305 234.375-5.859 11.719-5.859 26.367-5.859 26.367 2.93 0 49.805 2.93 105.469 5.859 90.82 2.93 108.398 2.93 117.188-2.93 17.578-14.648 29.297-17.578 49.805-8.789s23.438 20.508 20.508 43.945c-2.93 26.367-46.875 41.016-67.383 20.508-8.789-8.789-20.508-8.789-111.328-5.859-52.734 0-99.609 2.93-102.539 5.859-2.93 5.859 17.578 38.086 41.016 58.594 43.945 38.086 111.328 64.453 202.148 73.242 111.328 11.719 275.391-17.578 401.367-70.313zM1391.602 978.516c-2.93-32.227-8.789-84.961-14.648-114.258-2.93-29.297-8.789-76.172-11.719-99.609-2.93-32.227-5.859-46.875-8.789-46.875s-5.859 5.859-8.789 20.508c-2.93 29.297-38.086 205.078-43.945 213.867 0 2.93-5.859 26.367-8.789 49.805-5.859 20.508-11.719 52.734-14.648 70.313-2.93 14.648-11.719 55.664-17.578 87.891-14.648 70.313-23.438 99.609-29.297 99.609-2.93 0-70.313-61.523-149.414-137.695l-140.625-140.625-11.719 20.508c-5.859 14.648-11.719 35.156-14.648 49.805 0 14.648-5.859 29.297-8.789 35.156-2.93 2.93-11.719 38.086-23.438 76.172-8.789 35.156-20.508 79.102-26.367 93.75-2.93 17.578-11.719 46.875-17.578 70.313-11.719 46.875-20.508 49.805-49.805 17.578-26.367-29.297-99.609-114.258-108.398-123.047-2.93-2.93-20.508-20.508-38.086-41.016s-38.086-43.945-43.945-49.805c-5.859-8.789-29.297-32.227-49.805-55.664s-41.016-46.875-43.945-49.805c-2.93-2.93-20.508-20.508-35.156-38.086-29.297-32.227-32.227-29.297-14.648 14.648 5.859 14.648 17.578 38.086 20.508 49.805 5.859 11.719 11.719 26.367 17.578 38.086 8.789 14.648 17.578 38.086 41.016 93.75 5.859 11.719 14.648 29.297 17.578 38.086 5.859 17.578 23.438 52.734 38.086 87.891 29.297 70.313 38.086 84.961 64.453 111.328 35.156 32.227 87.891 58.594 143.555 70.313 87.891 17.578 208.008 8.789 304.688-23.438 96.68-29.297 158.203-67.383 219.727-128.906 49.805-49.805 49.805-49.805 67.383-84.961 20.508-38.086 23.438-73.242 14.648-149.414-2.93-38.086-11.719-93.75-14.648-125.977zM336.914 744.141c-11.719-2.93-58.594-2.93-111.328-2.93-84.961 0-193.359 2.93-196.289 5.859-8.789 11.719-8.789 38.086 0 46.875 5.859 5.859 38.086 5.859 166.992 2.93 90.82-2.93 164.063-5.859 164.063-5.859 2.93 0 2.93-11.719 0-23.438-2.93-14.648-5.859-20.508-23.438-23.438z"></path>
</svg>
