<svg version="1.1" xmlns="http://www.w3.org/2000/svg"   viewBox="0 0 1500 1500">

<path d="M708.984 858.398l-530.273-5.859c-8.789 0-14.648 0-20.508 5.859s-8.789 11.719-14.648 17.578-23.438 20.508-38.086 26.367c-32.227 5.859-64.453 0-87.891-20.508-20.508-20.508-23.438-52.734-8.789-79.102 23.438-43.945 90.82-58.594 131.836-26.367 11.719 11.719 20.508 23.438 23.438 41.016 0 5.859 2.93 5.859 8.789 5.859l539.063-5.859c8.789 0 5.859 0 5.859 5.859 0 8.789 0 17.578 0 29.297 0 5.859-2.93 5.859-8.789 5.859zM969.727 858.398c14.648-41.016-2.93-84.961-35.156-108.398-55.664-35.156-134.766-17.578-169.922 35.156-20.508 32.227-23.438 70.313-2.93 102.539 20.508 29.297 55.664 41.016 90.82 43.945-2.93 0-2.93 0 5.859 0 14.648 0 11.719 0 5.859 0 46.875-2.93 90.82-32.227 105.469-73.242zM1441.406 767.578c-35.156-2.93-67.383 17.578-76.172 49.805-2.93 5.859-2.93 5.859-8.789 5.859l-348.633-2.93c-2.93 0-2.93 8.789-2.93 11.719 0 5.859 0 11.719-2.93 17.578 0 5.859 0 5.859 5.859 5.859l351.563-5.859c5.859 2.93 8.789 17.578 11.719 23.438 5.859 5.859 11.719 14.648 17.578 20.508 14.648 11.719 35.156 14.648 52.734 11.719 32.227-2.93 58.594-32.227 58.594-67.383s-23.438-64.453-58.594-70.313zM846.68 606.445c5.859 0 5.859 2.93 5.859 8.789l-5.859 82.031c-2.93 5.859 2.93 8.789 8.789 8.789 8.789-2.93 17.578-2.93 26.367 0 5.859 0 5.859-2.93 5.859-8.789 0-26.367-2.93-55.664-2.93-84.961 0-8.789 11.719-8.789 20.508-11.719 5.859-5.859 14.648-11.719 20.508-17.578 11.719-11.719 17.578-29.297 17.578-49.805 2.93-32.227-17.578-61.523-49.805-73.242-29.297-11.719-64.453 0-84.961 26.367-32.227 41.016-14.648 102.539 38.086 120.117zM1215.82 547.852c0 2.93 2.93 2.93 2.93 2.93s-2.93 0-2.93-2.93zM975.586 747.070c2.93 5.859 8.789 11.719 11.719 14.648 2.93 5.859 8.789 2.93 11.719 0l178.711-114.258c2.93 0 5.859 2.93 11.719 5.859 17.578 8.789 41.016 8.789 58.594-5.859 41.016-32.227 17.578-96.68-32.227-99.609-35.156 0-61.523 32.227-55.664 67.383 2.93 5.859 0 8.789-2.93 8.789-64.453 35.156-125.977 73.242-187.5 111.328-5.859 5.859 2.93 8.789 5.859 11.719zM568.359 984.375c0-20.508 0 8.789 0 0zM750 919.922c-5.859-5.859-8.789-11.719-11.719-14.648-2.93-5.859-5.859-5.859-8.789-2.93-20.508 14.648-41.016 26.367-64.453 41.016-2.93 2.93-5.859 2.93-8.789 0-17.578-14.648-38.086-17.578-58.594-5.859-17.578 8.789-29.297 26.367-29.297 46.875-2.93 38.086 35.156 64.453 67.383 55.664 29.297-8.789 46.875-35.156 41.016-61.523 0-5.859 0-5.859 5.859-8.789 23.438-11.719 46.875-26.367 70.313-41.016 5.859-2.93 0-5.859-2.93-8.789zM583.008 670.898c2.93 0 5.859-2.93 8.789-2.93 5.859 0 8.789 2.93 11.719 5.859l125.977 99.609c5.859 2.93 5.859 2.93 8.789-2.93 5.859-5.859 11.719-14.648 17.578-20.508s-5.859-8.789-11.719-11.719l-120.117-87.891c-8.789-5.859-17.578-8.789-14.648-20.508 0 0 0-2.93 0-2.93-2.93-41.016-61.523-55.664-82.031-17.578-8.789 17.578-5.859 41.016 8.789 52.734 11.719 11.719 29.297 17.578 46.875 8.789zM1010.742 925.781c-11.719 2.93-17.578 0-26.367-8.789-2.93 0-2.93-2.93-5.859-2.93-2.93-5.859-5.859-5.859-11.719 0-2.93 2.93-8.789 8.789-14.648 11.719-2.93 2.93-2.93 2.93 2.93 5.859 5.859 5.859 14.648 8.789 23.438 14.648 5.859 2.93 2.93 8.789 2.93 14.648s0 11.719 2.93 17.578c5.859 8.789 14.648 17.578 29.297 17.578 20.508 2.93 35.156-14.648 35.156-35.156 0 0 0 0 0 0v0c0-20.508-17.578-38.086-38.086-35.156z"></path>
</svg>
