<svg version="1.1" xmlns="http://www.w3.org/2000/svg"   viewBox="0 0 1500 1500">

<path d="M287.109 615.234v-213.867c58.594-17.578 111.328-46.875 152.344-82.031s76.172-79.102 99.609-128.906c26.367-49.805 43.945-114.258 52.734-190.43h213.867v377.93h357.422v237.305h-357.422v383.789c0 87.891 5.859 143.555 14.648 166.992 8.789 26.367 26.367 43.945 49.805 58.594 35.156 20.508 73.242 32.227 114.258 32.227 76.172 0 152.344-26.367 228.516-76.172v237.305c-64.453 29.297-123.047 52.734-175.781 64.453-49.805 11.719-108.398 17.578-166.992 17.578-70.313 0-128.906-8.789-181.641-26.367s-99.609-41.016-134.766-73.242c-38.086-32.227-64.453-67.383-79.102-102.539s-20.508-87.891-20.508-158.203v-524.414z"></path>
</svg>
