<svg version="1.1" xmlns="http://www.w3.org/2000/svg"   viewBox="0 0 1500 1500">

<path d="M51 594c0-13.5 10.5-24 24-24h664.5c120 0 217.5 97.5 217.5 217.5v193.5c0 13.5-10.5 24-24 24 0 0-1.5 0-1.5 0h-664.5c-120 0-217.5-97.5-217.5-217.5v-193.5zM1236 570h190.5c13.5 0 24 10.5 24 24v193.5c0 120-97.5 217.5-217.5 217.5h-190.5c-13.5 0-24-10.5-24-24v-193.5c0-120 97.5-217.5 217.5-217.5zM933 1066.5h-384c-13.5 0-24 10.5-24 24v387c0 13.5 10.5 24 24 24h190.5c120 0 217.5-97.5 217.5-217.5v-193.5c0-13.5-10.5-24-24-24zM988.5 247.5c0 136.5-111 247.5-247.5 247.5s-247.5-111-247.5-247.5c0-136.5 111-247.5 247.5-247.5s247.5 111 247.5 247.5z"></path>
</svg>
