<svg version="1.1" xmlns="http://www.w3.org/2000/svg"   viewBox="0 0 1500 1500">

<path d="M1347.656 445.313c0 11.719 0 26.367 0 38.086 0 407.227-310.547 875.977-875.977 875.977-172.852 0-336.914-49.805-471.68-137.695 23.438 2.93 49.805 2.93 73.242 2.93 143.555 0 278.32-46.875 383.789-131.836-134.766 0-249.023-90.82-290.039-213.867 20.508 5.859 38.086 5.859 58.594 5.859 29.297 0 55.664-2.93 82.031-8.789-140.625-29.297-246.094-155.273-246.094-301.758 0-2.93 0-2.93 0-5.859 41.016 23.438 87.891 38.086 137.695 38.086-82.031-52.734-137.695-149.414-137.695-254.883 0-55.664 17.578-108.398 43.945-155.273 149.414 187.5 377.93 310.547 632.813 322.266-5.859-23.438-8.789-46.875-8.789-70.313 0-169.922 137.695-307.617 307.617-307.617 90.82 0 169.922 38.086 225.586 96.68 70.313-14.648 137.695-38.086 196.289-73.242-23.438 70.313-73.242 131.836-134.766 169.922 61.523-8.789 120.117-23.438 175.781-49.805-41.016 61.523-93.75 117.188-152.344 161.133z"></path>
</svg>
