<svg version="1.1" xmlns="http://www.w3.org/2000/svg"   viewBox="0 0 1500 1500">

<path d="M234.375 600.586v172.852c0 58.594-23.438 82.031-84.961 82.031-58.594 0-84.961-23.438-84.961-82.031v-178.711h-55.664c-5.859 0-8.789 2.93-8.789 5.859v175.781c0 96.68 61.523 131.836 149.414 131.836s149.414-35.156 149.414-131.836v-181.641h-55.664c-5.859 0-8.789 0-8.789 5.859zM1072.266 644.531c2.93 0 5.859-2.93 8.789-5.859l14.648-41.016c2.93-2.93 0-5.859-2.93-5.859h-231.445c-20.508 0-29.297 5.859-29.297 20.508v269.531c0 11.719 5.859 17.578 23.438 17.578h216.797c2.93 0 5.859 0 8.789-2.93l14.648-43.945c2.93-2.93 0-2.93-2.93-2.93h-196.289v-55.664c0-17.578 8.789-26.367 38.086-26.367h84.961c5.859 0 8.789 0 8.789-2.93l17.578-41.016c0-2.93 0-2.93-2.93-2.93h-146.484v-76.172zM662.109 738.281c26.367-11.719 38.086-35.156 38.086-67.383 0-67.383-55.664-76.172-114.258-76.172h-128.906c-23.438 0-32.227 5.859-32.227 20.508v269.531c0 11.719 5.859 17.578 23.438 17.578h161.133c61.523 0 105.469-23.438 105.469-84.961 0-38.086-17.578-70.313-52.734-79.102zM489.258 644.531h102.539c35.156 0 43.945 11.719 43.945 38.086s-8.789 38.086-43.945 38.086h-102.539zM603.516 852.539h-114.258v-58.594c0-17.578 8.789-26.367 38.086-26.367h76.172c35.156 0 46.875 14.648 46.875 41.016 0 29.297-11.719 43.945-46.875 43.945zM1500 896.484l-70.313-120.117c35.156-8.789 61.523-32.227 61.523-87.891 0-76.172-43.945-93.75-123.047-93.75h-131.836c-20.508 0-29.297 5.859-29.297 20.508v278.32c0 5.859 2.93 8.789 8.789 8.789h55.664v-90.82c0-20.508 11.719-26.367 38.086-26.367h58.594l61.523 111.328c2.93 2.93 5.859 5.859 11.719 5.859h55.664c2.93 0 2.93-5.859 2.93-5.859zM1379.883 735.352h-108.398v-90.82h108.398c38.086 0 46.875 14.648 46.875 46.875 0 29.297-8.789 43.945-46.875 43.945z"></path>
</svg>
