<svg version="1.1" xmlns="http://www.w3.org/2000/svg"   viewBox="0 0 1500 1500">

<path d="M1399.5 60c0-33-28.5-60-63-60-3 0-4.5 0-7.5 0-84 9-142.5 33-184.5 79.5-22.5 24-37.5 54-49.5 87-10.5 34.5-18 78-18 126v594c0 55.5-6 102-19.5 141s-31.5 70.5-58.5 94.5c-27 25.5-60 42-100.5 54s-90 18-150 18-109.5-6-150-18c-42-12-75-28.5-100.5-54-27-25.5-45-55.5-58.5-94.5s-19.5-84-19.5-141v-825c0-31.5-28.5-60-63-60-3 0-4.5 0-7.5 0-84 9-142.5 33-184.5 79.5-19.5 22.5-36 54-48 87-10.5 34.5-18 78-18 126v603c1.5 181.5 42 318 126 415.5 108 126 279 187.5 525 187.5 247.5 0 417-61.5 526.5-187.5 84-97.5 124.5-234 124.5-417v-835.5h-1.5z"></path>
</svg>
