<svg version="1.1" xmlns="http://www.w3.org/2000/svg"   viewBox="0 0 1500 1500">

<path d="M0 1215c0-243 0-484.5 0-727.5 1.5-3 0-4.5 1.5-7.5 4.5-46.5 24-87 57-120 39-40.5 87-61.5 142.5-61.5 57 0 114 0 171 0 3 0 4.5-1.5 6-4.5 10.5-31.5 22.5-63 33-94.5 9-30 27-52.5 51-70.5 27-19.5 55.5-31.5 88.5-31.5 133.5 0 267 0 400.5 0 6 0 12 0 16.5 1.5 27 4.5 52.5 15 73.5 31.5 24 18 40.5 40.5 49.5 69 10.5 33 22.5 66 33 100.5 1.5 3 3 4.5 6 4.5 55.5 0 112.5 0 168 0 22.5 0 45 3 66 10.5 73.5 27 118.5 79.5 133.5 156 1.5 7.5 1.5 15 3 22.5 0 241.5 0 481.5 0 723-1.5 7.5-1.5 15-3 22.5-16.5 96-102 166.5-199.5 166.5-364.5 0-730.5 0-1095 0-27 0-54-4.5-79.5-15-66-30-106.5-79.5-120-151.5-1.5-9-1.5-16.5-3-24zM393 855c0 193.5 157.5 352.5 351 351 195-1.5 352.5-156 352.5-351s-156-351-351-351c-192 0-352.5 159-352.5 351zM748.5 625.5c39 1.5 78 12 114 33 52.5 31.5 88.5 76.5 105 135 25.5 91.5-12 189-90 243-42 28.5-88.5 42-139.5 39-103.5-4.5-190.5-82.5-208.5-184.5-22.5-120 55.5-237 175.5-261 13.5-3 28.5-4.5 43.5-4.5z"></path>
</svg>
