<svg version="1.1" xmlns="http://www.w3.org/2000/svg"   viewBox="0 0 1500 1500">

<path d="M1159.5 313.5c-159 0-282 103.5-331.5 273-76.5-114-135-252-168-369h-171v444c0 87-72 159-159 159s-159-72-159-159v-442.5h-171v444c0 181.5 148.5 331.5 330 331.5s330-150 330-331.5v-75c33 69 73.5 139.5 123 201l-105 492h175.5l76.5-355.5c66 42 142.5 69 231 69 187.5 0 340.5-153 340.5-340.5-1.5-187.5-154.5-340.5-342-340.5zM1159.5 822c-69 0-133.5-28.5-192-76.5l15-67.5v-3c13.5-72 52.5-190.5 177-190.5 93 0 169.5 76.5 169.5 169.5s-75 168-169.5 168z"></path>
</svg>
