<svg version="1.1" xmlns="http://www.w3.org/2000/svg"   viewBox="0 0 1500 1500">

<path d="M1344.727 474.609c-26.367-105.469-70.313-199.219-143.555-275.391-105.469-102.539-254.883-155.273-451.172-155.273-193.359 0-342.773 52.734-448.242 155.273-73.242 76.172-117.188 169.922-143.555 272.461-87.891 14.648-158.203 93.75-158.203 187.5v193.359c0 105.469 84.961 190.43 190.43 190.43v-222.656l125.977 73.242c8.789 2.93 17.578 5.859 26.367 5.859h249.023c14.648 0 29.297-5.859 43.945-17.578 0-2.93 0-2.93 2.93-2.93l76.172-93.75c0 0 14.648-17.578 35.156-17.578 11.719 0 23.438 2.93 35.156 14.648l76.172 96.68c2.93 0 2.93 2.93 2.93 2.93 14.648 11.719 29.297 17.578 43.945 17.578h249.023c8.789 0 17.578-2.93 26.367-5.859l125.977-73.242v166.992l-354.492 413.086h-213.867c-14.648 0-26.367 11.719-26.367 26.367s11.719 26.367 26.367 26.367h237.305l363.281-416.016c90.82-14.648 158.203-93.75 158.203-187.5v-190.43c0-90.82-67.383-169.922-155.273-184.57zM729.492 764.648l2.93-2.93c0 2.93-2.93 2.93-2.93 2.93zM767.578 764.648c2.93 0 2.93 0 0 0zM1157.227 416.016h-814.453c-8.789 0-17.578 0-26.367 5.859l-102.539 58.594c23.438-93.75 64.453-178.711 128.906-243.164 93.75-90.82 225.586-137.695 407.227-137.695s316.406 46.875 410.156 137.695c64.453 64.453 102.539 149.414 128.906 243.164l-105.469-61.523c-8.789-2.93-17.578-2.93-26.367-2.93z"></path>
</svg>
