<svg version="1.1" xmlns="http://www.w3.org/2000/svg"   viewBox="0 0 1500 1500">

<path d="M290.039 1171.875c35.156 64.453 84.961 114.258 143.555 149.414 41.016 23.438 84.961 38.086 128.906 46.875 389.648-152.344 342.773-887.695 339.844-925.781-14.648-43.945-82.031-231.445-208.008-442.383 0 0 175.781 117.188 208.008 439.453 0 0 0 2.93 0 2.93 2.93 5.859 2.93 8.789 2.93 8.789 228.516 609.375-266.602 922.852-269.531 922.852 73.242 0 137.695-17.578 196.289-52.734 61.523-35.156 108.398-84.961 146.484-149.414 35.156-64.453 52.734-131.836 52.734-208.008 0-58.594-11.719-114.258-32.227-166.992 35.156-5.859 79.102-20.508 123.047-49.805 26.367 67.383 41.016 137.695 41.016 213.867 0 143.555-49.805 269.531-149.414 377.93-96.68 108.398-225.586 161.133-377.93 161.133-158.203 0-284.18-52.734-383.789-161.133-96.68-108.398-146.484-234.375-146.484-377.93 0-140.625 46.875-266.602 140.625-369.141 102.539-117.188 231.445-172.852 389.648-172.852 64.453 0 125.977 8.789 181.641 29.297-17.578 35.156-35.156 79.102-38.086 125.977-46.875-17.578-93.75-26.367-146.484-26.367-108.398 0-199.219 41.016-278.32 120.117-79.102 82.031-117.188 181.641-117.188 295.898 0 76.172 17.578 143.555 52.734 208.008zM987.305 568.359c0 0 301.758-164.063 313.477-304.688 0 0-93.75 208.008-348.633 266.602 0 0-90.82-143.555 26.367-260.742 0 0 41.016-46.875 158.203-76.172 0 0 117.188-23.438 181.641-158.203 0 0 131.836 181.641 49.805 424.805 0 0-41.016 108.398-123.047 158.203-64.453 38.086-158.203 49.805-257.813-49.805zM635.742 1374.023c0 0-2.93 0-2.93 0s0 0 0 0c2.93 0 2.93 0 2.93 0z"></path>
</svg>
