<svg version="1.1" xmlns="http://www.w3.org/2000/svg"   viewBox="0 0 1500 1500">

<path d="M864.258 377.93c-17.578-2.93-35.156 11.719-35.156 32.227-2.93 17.578 11.719 35.156 32.227 38.086 117.188 5.859 172.852 64.453 178.711 187.5 2.93 17.578 17.578 32.227 38.086 32.227 0 0 0 0 0 0 20.508 0 35.156-17.578 35.156-35.156-8.789-161.133-93.75-246.094-249.023-254.883zM1259.766 729.492c17.578 0 35.156-14.648 35.156-32.227 2.93-140.625-38.086-257.813-125.977-351.563-84.961-93.75-205.078-146.484-357.422-161.133-20.508 0-35.156 14.648-38.086 35.156 0 17.578 14.648 35.156 32.227 38.086 137.695 8.789 237.305 52.734 310.547 134.766 76.172 79.102 111.328 178.711 108.398 301.758 0 17.578 14.648 35.156 35.156 35.156zM1268.555 208.008c-137.695-134.766-313.477-205.078-521.484-208.008-20.508 0-35.156 17.578-35.156 35.156 0 20.508 14.648 38.086 35.156 38.086 187.5 0 348.633 64.453 474.609 187.5s190.43 290.039 190.43 509.766c0 17.578 17.578 35.156 38.086 35.156 17.578 0 35.156-17.578 35.156-35.156-5.859-237.305-76.172-427.734-216.797-562.5zM1400.391 1174.805c0 0-82.031-67.383-123.047-96.68-38.086-29.297-96.68-64.453-128.906-84.961-61.523-32.227-123.047-11.719-146.484 23.438l-52.734 64.453c-29.297 32.227-79.102 29.297-79.102 29.297-366.211-93.75-462.891-465.82-462.891-465.82s-5.859-49.805 26.367-76.172l67.383-52.734c32.227-26.367 52.734-87.891 20.508-146.484-17.578-32.227-55.664-93.75-82.031-131.836-32.227-38.086-99.609-120.117-99.609-120.117-32.227-38.086-79.102-46.875-131.836-20.508 0 0 0 0 0 0-49.805 26.367-93.75 61.523-134.766 108.398 0 0 0 0 0 2.93-32.227 35.156-49.805 73.242-55.664 111.328 0 2.93 0 8.789 0 14.648 0 17.578 0 32.227 5.859 49.805h2.93c14.648 55.664 55.664 149.414 140.625 307.617 55.664 99.609 111.328 184.57 169.922 254.883 29.297 38.086 61.523 76.172 102.539 114.258 0 2.93 2.93 5.859 2.93 5.859 2.93 2.93 2.93 2.93 5.859 5.859 0 0 2.93 2.93 2.93 2.93 2.93 2.93 2.93 2.93 5.859 5.859 38.086 38.086 76.172 70.313 114.258 99.609 70.313 58.594 155.273 114.258 257.813 169.922 155.273 87.891 249.023 125.977 304.688 140.625l2.93 2.93c14.648 2.93 29.297 8.789 46.875 8.789 5.859 0 11.719 0 17.578-2.93 35.156-5.859 73.242-23.438 108.398-52.734 0 0 0 0 2.93-2.93 46.875-41.016 82.031-87.891 108.398-134.766 0 0 0 0 0-2.93 26.367-49.805 17.578-96.68-20.508-131.836z"></path>
</svg>
