<svg version="1.1" xmlns="http://www.w3.org/2000/svg"   viewBox="0 0 1500 1500">

<path d="M1330.078 597.656c0 0 140.625-70.313 93.75-272.461-43.945-225.586-316.406-181.641-316.406-181.641l-553.711 96.68-108.398 785.156-366.211-697.266-79.102 11.719c-2.93 0 0 328.125 0 328.125l369.141 691.406 263.672-46.875 46.875-357.422 55.664 336.914c0 0 442.383-76.172 583.008-102.539 134.766-46.875 181.641-111.328 181.641-111.328s0-257.813 0-392.578c-46.875-70.313-169.922-87.891-169.922-87.891zM817.383 380.859c0-2.93 213.867-41.016 213.867-41.016s169.922-41.016 181.641 96.68c29.297 137.695-146.484 149.414-146.484 149.414l-208.008 41.016zM1180.664 1028.32l-243.164 43.945-49.805-287.109c-2.93 0 243.164-43.945 243.164-43.945s172.852-46.875 199.219 111.328c38.086 161.133-149.414 175.781-149.414 175.781z"></path>
</svg>
