<svg version="1.1" xmlns="http://www.w3.org/2000/svg"   viewBox="0 0 1500 1500">

<path d="M969.727 427.734c-35.156 0-73.242 8.789-111.328 26.367 73.242-243.164 213.867-360.352 421.875-351.563 155.273 2.93 228.516 102.539 219.727 298.828-8.789 146.484-108.398 345.703-307.617 600.586-202.148 263.672-375 398.438-515.625 398.438-87.891 0-161.133-82.031-222.656-243.164-41.016-149.414-82.031-295.898-120.117-445.313-46.875-161.133-93.75-240.234-146.484-240.234-11.719 0-49.805 23.438-117.188 70.313l-70.313-90.82c73.242-67.383 146.484-131.836 219.727-196.289 96.68-84.961 172.852-128.906 222.656-134.766 114.258-11.719 187.5 67.383 213.867 240.234 29.297 184.57 49.805 298.828 61.523 342.773 32.227 152.344 70.313 228.516 111.328 228.516 32.227 0 79.102-49.805 140.625-146.484 61.523-99.609 96.68-175.781 102.539-228.516 8.789-84.961-26.367-128.906-102.539-128.906z"></path>
</svg>
