<svg version="1.1" xmlns="http://www.w3.org/2000/svg"   viewBox="0 0 1500 1500">

<path d="M1069.336 225.586c-64.453 0-105.469 58.594-105.469 169.922 0 231.445 146.484 363.281 333.984 363.281 35.156 0 67.383-2.93 111.328-14.648v178.711c-58.594 14.648-125.977 20.508-178.711 20.508-125.977 266.602-354.492 492.188-427.734 536.133-49.805 26.367-93.75 29.297-146.484-2.93-93.75-55.664-445.313-351.563-562.5-1250.977h254.883c64.453 553.711 219.727 823.242 392.578 1031.25 96.68-93.75 187.5-219.727 257.813-366.211-169.922-84.961-272.461-275.391-272.461-498.047s128.906-392.578 348.633-392.578c213.867 0 331.055 134.766 331.055 363.281 0 84.961-17.578 181.641-49.805 257.813-161.133 32.227-219.727-70.313-219.727-70.313 11.719-38.086 29.297-105.469 29.297-166.992 0-105.469-38.086-158.203-96.68-158.203z"></path>
</svg>
