<svg version="1.1" xmlns="http://www.w3.org/2000/svg"   viewBox="0 0 1500 1500">

<path d="M1450.195 1034.18c-43.945-58.594-82.031-93.75-137.695-146.484-23.438-23.438-55.664-46.875-58.594-79.102-2.93-43.945 38.086-84.961 58.594-114.258 2.93-2.93 5.859-5.859 8.789-8.789s2.93-2.93 5.859-5.859c0-2.93 2.93-2.93 2.93-5.859 2.93-2.93 2.93-5.859 5.859-5.859 0-2.93 2.93-2.93 2.93-2.93 2.93-2.93 2.93-5.859 5.859-8.789 38.086-49.805 76.172-93.75 114.258-152.344 11.719-20.508 49.805-93.75 38.086-123.047-17.578-35.156-108.398-23.438-158.203-23.438-61.523 0-128.906-11.719-172.852 5.859-26.367 8.789-43.945 67.383-58.594 99.609-23.438 49.805-43.945 90.82-67.383 128.906 0 2.93-2.93 5.859-5.859 8.789 0 0 0 0 0 0 0 2.93-2.93 5.859-5.859 8.789 0 0 0 0 0 0-2.93 5.859-5.859 11.719-8.789 14.648 0 2.93-2.93 2.93-2.93 2.93 0 2.93-2.93 2.93-2.93 5.859-2.93 2.93-2.93 2.93-2.93 5.859-2.93 0-2.93 2.93-5.859 5.859 0 0-2.93 2.93-2.93 5.859-2.93 0-2.93 2.93-2.93 2.93-2.93 2.93-5.859 5.859-8.789 11.719-20.508 29.297-41.016 64.453-79.102 70.313-2.93-2.93-2.93-2.93-5.859-2.93 0 0 0-2.93 0-2.93-2.93 0-2.93 0-2.93 0 0-2.93-2.93-2.93-2.93-2.93s0 0-2.93-2.93c0 0 0 0 0 0s0-2.93-2.93-2.93c0 0 0 0 0 0 0-2.93-2.93-2.93-2.93-2.93s0-2.93 0-2.93c0 0-2.93 0-2.93-2.93 0 0 0 0 0 0 0-2.93 0-2.93-2.93-2.93 0 0 0-2.93 0-2.93s0 0 0-2.93c0 0-2.93 0-2.93 0 0-2.93 0-2.93 0-5.859 0 0 0 0 0 0-2.93-2.93-2.93-2.93-2.93-2.93 0-2.93 0-2.93 0-2.93s0-2.93 0-2.93c0 0 0-2.93-2.93-2.93 0 0 0-2.93 0-2.93s0 0 0-2.93c0 0 0 0 0-2.93 0 0 0 0 0 0 0-2.93 0-2.93-2.93-2.93 0-2.93 0-2.93 0-2.93 0-2.93 0-2.93 0-2.93 0-2.93 0-2.93 0-2.93 0-2.93 0-2.93 0-2.93 0-2.93 0-2.93 0-2.93 0-2.93 0-2.93 0-5.859 0 0 0 0 0 0 0-2.93 0-2.93 0-5.859 0 0 0 0 0 0 0-2.93 0-2.93 0-5.859 0 0-2.93 0-2.93-2.93 0 0 0-2.93 0-2.93s0-2.93 0-2.93c0 0 0-2.93 0-2.93s0-2.93 0-2.93c0 0 0-2.93 0-2.93 0-2.93 2.93-2.93 2.93-2.93 0-2.93 0-2.93 0-2.93 0-2.93 0-2.93 0-2.93 0-2.93 0-2.93 0-5.859 0 0 0 0 0 0 0-2.93 0-2.93 0-5.859 0 0 0 0 0 0 0-8.789 0-14.648 0-23.438 0 0 0-2.93 0-2.93 0-5.859 0-14.648 2.93-20.508 0-64.453 20.508-149.414-8.789-199.219-26.367-43.945-125.977-38.086-196.289-38.086-84.961 0-152.344 5.859-178.711 55.664 29.297 20.508 61.523 20.508 76.172 49.805 17.578 32.227 20.508 99.609 17.578 161.133 0 2.93 0 5.859 0 8.789 0 52.734-2.93 137.695-38.086 143.555s-64.453-46.875-84.961-73.242c-2.93-5.859-5.859-8.789-8.789-14.648 0 0-2.93-2.93-2.93-2.93-2.93-2.93-2.93-5.859-5.859-11.719 0 0-2.93-2.93-2.93-2.93-2.93-2.93-5.859-5.859-5.859-8.789-2.93-2.93-2.93-2.93-2.93-5.859-2.93-2.93-5.859-8.789-8.789-11.719-26.367-43.945-52.734-87.891-76.172-143.555-17.578-32.227-38.086-87.891-55.664-96.68-35.156-17.578-105.469-8.789-152.344-8.789-52.734 0-108.398-8.789-140.625 17.578 0 58.594 29.297 108.398 52.734 155.273 32.227 64.453 64.453 125.977 99.609 184.57 0 2.93 2.93 5.859 2.93 8.789 5.859 5.859 8.789 14.648 14.648 20.508 0 2.93 2.93 5.859 2.93 8.789 5.859 5.859 8.789 14.648 14.648 20.508 0 2.93 2.93 5.859 5.859 8.789 5.859 8.789 11.719 17.578 17.578 26.367 0 0 0 0 0 0 5.859 8.789 11.719 20.508 17.578 29.297 2.93 2.93 2.93 5.859 5.859 5.859 5.859 8.789 8.789 14.648 14.648 20.508 0 2.93 2.93 5.859 5.859 8.789 2.93 5.859 8.789 14.648 14.648 20.508 0 2.93 2.93 5.859 5.859 8.789 5.859 8.789 11.719 17.578 20.508 26.367 90.82 114.258 193.359 222.656 395.508 246.094 64.453 5.859 158.203 11.719 178.711-26.367 29.297-46.875-2.93-158.203 61.523-166.992 43.945-8.789 82.031 58.594 108.398 84.961 43.945 49.805 96.68 102.539 172.852 117.188 0 0 2.93 0 5.859 0 67.383-29.297 269.531 32.227 281.25-52.734 2.93-29.297-32.227-76.172-49.805-96.68z"></path>
</svg>
