<svg version="1.1" xmlns="http://www.w3.org/2000/svg"   viewBox="0 0 1500 1500">

<path d="M750 131.836c342.773 0 618.164 275.391 618.164 618.164s-275.391 618.164-618.164 618.164c-342.773 0-618.164-275.391-618.164-618.164s275.391-618.164 618.164-618.164M750 0c-413.086 0-750 336.914-750 750s336.914 750 750 750c413.086 0 750-336.914 750-750s-336.914-750-750-750zM1368.164 416.016v-272.461c0-2.93-2.93-5.859-2.93-8.789-2.93 0-5.859-2.93-8.789-2.93h-275.391c17.578 96.68 199.219 263.672 287.109 284.18zM134.766 1083.984v275.391c0 2.93 0 5.859 2.93 5.859 0 2.93 2.93 2.93 5.859 2.93h275.391c-14.648-96.68-196.289-260.742-284.18-284.18zM1081.055 1365.234h275.391c2.93 0 5.859 0 8.789-2.93 0 0 2.93-2.93 2.93-5.859v-275.391c-99.609 14.648-263.672 196.289-287.109 284.18zM418.945 131.836h-275.391c-2.93 0-5.859 0-5.859 2.93-2.93 2.93-2.93 2.93-2.93 5.859v275.391c96.68-14.648 260.742-196.289 284.18-284.18zM348.633 424.805h231.445c0 0-11.719 52.734-8.789 79.102 11.719 99.609 76.172 380.859 76.172 380.859l108.398-439.453 111.328 430.664c0 0 64.453-377.93 64.453-404.297 0-23.438-23.438-49.805-23.438-49.805h240.234c0 0-49.805 46.875-67.383 111.328-23.438 82.031-96.68 500.977-96.68 527.344 0 43.945 29.297 76.172 29.297 76.172h-225.586c0 0 5.859-23.438 5.859-61.523s-35.156-222.656-35.156-222.656c0 0-43.945 190.43-43.945 225.586 0 32.227 14.648 58.594 14.648 58.594h-234.375c0 0 43.945-32.227 43.945-61.523-5.859-87.891-125.977-533.203-134.766-568.359-14.648-58.594-55.664-82.031-55.664-82.031z"></path>
</svg>
