<svg version="1.1" xmlns="http://www.w3.org/2000/svg"   viewBox="0 0 1500 1500">

<path d="M1042.969 530.273c-140.625 5.859-260.742 49.805-360.352 143.555-96.68 96.68-143.555 216.797-131.836 363.281-52.734-5.859-102.539-14.648-152.344-17.578-17.578-2.93-38.086 0-52.734 8.789-49.805 26.367-93.75 58.594-149.414 90.82 8.789-43.945 14.648-84.961 26.367-123.047 8.789-29.297 5.859-43.945-20.508-64.453-166.992-117.188-237.305-292.969-184.57-474.609 49.805-169.922 166.992-272.461 331.055-325.195 222.656-73.242 474.609 2.93 609.375 178.711 46.875 61.523 76.172 134.766 84.961 219.727zM401.367 471.68c2.93-32.227-26.367-61.523-61.523-64.453-35.156 0-64.453 26.367-64.453 61.523s26.367 61.523 61.523 64.453c32.227 0 64.453-26.367 64.453-61.523zM735.352 407.227c-32.227 0-61.523 32.227-61.523 64.453 0 35.156 29.297 61.523 64.453 61.523s61.523-29.297 61.523-64.453c0-35.156-29.297-61.523-64.453-61.523zM1356.445 1397.461c-43.945-17.578-84.961-49.805-128.906-52.734-43.945-5.859-87.891 20.508-131.836 23.438-137.695 14.648-260.742-23.438-360.352-114.258-193.359-178.711-164.063-451.172 55.664-597.656 199.219-128.906 489.258-84.961 626.953 93.75 123.047 155.273 108.398 363.281-38.086 495.117-43.945 38.086-58.594 70.313-32.227 120.117 2.93 8.789 5.859 20.508 8.789 32.227zM852.539 911.133c29.297 0 52.734-20.508 52.734-49.805 2.93-29.297-20.508-52.734-52.734-52.734-26.367 0-52.734 26.367-52.734 52.734 2.93 29.297 26.367 49.805 52.734 49.805zM1177.734 808.594c-26.367 0-49.805 23.438-49.805 49.805-2.93 29.297 20.508 52.734 49.805 52.734s49.805-20.508 49.805-49.805c0-29.297-20.508-52.734-49.805-52.734z"></path>
</svg>
