<svg version="1.1" xmlns="http://www.w3.org/2000/svg"   viewBox="0 0 1500 1500">

<path d="M1122.070 729.492c-20.508-5.859-35.156-11.719-26.367-38.086 26.367-61.523 26.367-111.328 2.93-149.414-49.805-70.313-181.641-67.383-336.914-2.93 0 0-46.875 20.508-35.156-17.578 23.438-73.242 20.508-137.695-14.648-172.852-84.961-84.961-304.688 2.93-492.188 190.43-143.555 140.625-225.586 292.969-225.586 421.875 0 249.023 319.336 398.438 629.883 398.438 407.227 0 679.688-237.305 679.688-424.805 0-114.258-96.68-178.711-181.641-205.078zM624.023 1271.484c-249.023 23.438-462.891-87.891-477.539-251.953-17.578-164.063 172.852-313.477 418.945-339.844 249.023-23.438 462.891 87.891 480.469 251.953 14.648 161.133-172.852 313.477-421.875 339.844zM1391.602 275.391c-96.68-108.398-243.164-152.344-377.93-123.047-29.297 5.859-49.805 38.086-43.945 67.383 5.859 32.227 38.086 52.734 67.383 46.875 96.68-20.508 199.219 8.789 269.531 84.961 70.313 79.102 90.82 184.57 58.594 278.32-8.789 29.297 8.789 61.523 38.086 70.313 29.297 11.719 61.523-5.859 73.242-35.156 0 0 0 0 0 0 41.016-131.836 14.648-281.25-84.961-389.648zM1218.75 632.813c26.367 8.789 52.734-5.859 61.523-32.227 20.508-61.523 8.789-134.766-38.086-187.5-49.805-55.664-120.117-73.242-184.57-61.523-26.367 5.859-43.945 32.227-38.086 58.594 5.859 29.297 32.227 43.945 58.594 38.086 29.297-5.859 64.453 2.93 87.891 29.297s29.297 61.523 20.508 93.75c-8.789 26.367 5.859 52.734 32.227 61.523zM650.391 805.664c-120.117-29.297-251.953 29.297-304.688 131.836-52.734 105.469 0 225.586 117.188 263.672 125.977 38.086 269.531-20.508 322.266-137.695 49.805-111.328-14.648-225.586-134.766-257.813zM559.57 1078.125c-23.438 38.086-76.172 52.734-114.258 35.156s-49.805-61.523-26.367-96.68c23.438-38.086 73.242-55.664 111.328-38.086 41.016 14.648 52.734 58.594 29.297 99.609zM638.672 975.586c-8.789 14.648-29.297 20.508-43.945 14.648s-17.578-20.508-11.719-35.156c8.789-14.648 29.297-23.438 43.945-17.578s20.508 23.438 11.719 38.086z"></path>
</svg>
