<svg version="1.1" xmlns="http://www.w3.org/2000/svg"   viewBox="0 0 1500 1500">

<path d="M140.625 439.453c-35.156-55.664-90.82-111.328-134.766-128.906l-5.859-2.93v-52.734l2.93-2.93h383.789c0 11.719 0 32.227 0 52.734-52.734 5.859-111.328 32.227-96.68 87.891 96.68 210.938 184.57 427.734 278.32 641.602l164.063-304.688c-64.453-128.906-108.398-260.742-178.711-386.719-20.508-35.156-82.031-38.086-125.977-38.086v-49.805h360.352v49.805c-32.227 2.93-70.313 11.719-64.453 49.805l102.539 225.586c32.227-70.313 70.313-140.625 99.609-213.867 14.648-58.594-52.734-61.523-93.75-64.453v-46.875h322.266v46.875c-49.805 2.93-93.75 17.578-120.117 52.734-61.523 96.68-108.398 208.008-158.203 313.477 49.805 114.258 99.609 228.516 149.414 333.984l275.391-632.813c-20.508-41.016-61.523-55.664-102.539-64.453l-2.93-49.805h304.688v49.805c-14.648 2.93-26.367 5.859-38.086 11.719-23.438 11.719-46.875 35.156-61.523 61.523l-377.93 870.117h-64.453l-178.711-424.805-219.727 424.805h-64.453c-128.906-266.602-219.727-544.922-354.492-808.594z"></path>
</svg>
