<svg version="1.1" xmlns="http://www.w3.org/2000/svg"   viewBox="0 0 1500 1500">

<path d="M1494 153c-6-6-13.5-9-22.5-12-7.5-1.5-16.5-1.5-25.5-1.5-7.5 0-15 0-19.5 0v0c-31.5 0-64.5 0-96 0-22.5 0-45 0-67.5 0v0 0c-28.5 0-55.5 10.5-79.5 25.5s-46.5 33-64.5 49.5c-33 28.5-61.5 63-88.5 96-10.5-25.5-22.5-49.5-34.5-72-21-39-58.5-76.5-105-87-12 0-24-1.5-36-1.5s-22.5 0-33 0c-6 0-16.5 0-27 0-21 0-45 0-45 0s-24 0-45 0c-10.5 0-21 0-27 0-10.5 0-21 0-33 0s-24 0-36 3c-46.5 9-84 48-105 87v0c-12 22.5-24 46.5-34.5 70.5-27-34.5-55.5-67.5-88.5-96-19.5-16.5-40.5-34.5-64.5-49.5s-51-25.5-79.5-25.5v0c-22.5 0-45 0-67.5 0-31.5 0-64.5 0-96 0v0c-4.5 0-12 0-19.5 0-10.5 0-22.5 0-33 4.5-6 3-10.5 4.5-15 9s-6 12-6 18c0 4.5 1.5 9 1.5 13.5 3 6 6 12 10.5 16.5s7.5 9 10.5 12c6 9 13.5 18 18 25.5v0c9 15 18 30 27 45 21 36 39 75 60 112.5 46.5 82.5 94.5 163.5 154.5 237 42 52.5 93 105 156 133.5-46.5 88.5-94.5 178.5-142.5 267-42 79.5-85.5 157.5-130.5 235.5v0c-1.5 3-4.5 7.5-6 12-3 6-6 12-9 19.5s-6 15-6 24v0 0c0 9 3 16.5 9 21 7.5 7.5 18 10.5 28.5 12s19.5 1.5 27 1.5c1.5 0 4.5 0 6 0 18 0 34.5 0 52.5 0 34.5 0 67.5-1.5 102-1.5 3 0 6 0 9 0 4.5 0 9 0 15 0 12 0 25.5 0 37.5-1.5 52.5-4.5 102-31.5 133.5-75 1.5-1.5 4.5-6 7.5-12 24-39 97.5-159 130.5-211.5 7.5-12 21-34.5 34.5-54 6-9 12-18 16.5-25.5 4.5 6 10.5 15 16.5 25.5 12 19.5 27 42 34.5 54 18 30 49.5 82.5 78 129 15 22.5 27 45 37.5 61.5 4.5 9 9 15 13.5 21 3 6 6 9 7.5 12 31.5 43.5 79.5 70.5 133.5 75 12 1.5 25.5 1.5 37.5 1.5 4.5 0 9 0 15 0 3 0 6 0 9 0 33 0 67.5 1.5 102 1.5 16.5 0 34.5 0 52.5 0 1.5 0 4.5 0 6 0 9 0 24 0 37.5-4.5 6-1.5 13.5-4.5 18-10.5 6-4.5 9-12 9-21v0c0-9-3-16.5-6-24s-7.5-15-10.5-19.5c-1.5-4.5-4.5-7.5-6-12v0c-45-78-87-157.5-130.5-235.5-51-87-99-177-147-265.5 63-28.5 114-81 156-133.5 60-73.5 109.5-154.5 154.5-237 21-37.5 39-76.5 60-112.5 9-15 18-30 27-45v0c6-9 12-18 18-25.5v0c3-3 6-7.5 10.5-12s7.5-9 10.5-16.5c1.5-4.5 3-9 3-13.5 0-6-1.5-13.5-6-18zM643.5 330c4.5 0 7.5 9 9 30 0 1.5-9 0-18 0-4.5 0-9-1.5-10.5-1.5-4.5-1.5-9-3-13.5-4.5-12-4.5-19.5-10.5-25.5-15-4.5-3-7.5-7.5-9-9 30 1.5 52.5 1.5 67.5 0zM654 478.5c0 0 0 0 0 0s0 0 0 0 0 0 0 0zM664.5 454.5c0 7.5-3 16.5-9 22.5-7.5 7.5-16.5 10.5-25.5 12s-19.5 3-28.5-1.5c-10.5-6-15-18-16.5-28.5-3-13.5-7.5-27-6-40.5 0-7.5 3-15 6-22.5s7.5-12 10.5-15c13.5-9 33-10.5 45 1.5 6 6 9 12 12 19.5 7.5 16.5 12 34.5 12 52.5zM784.5 501c-1.5 1.5-3 3-4.5 3-9 6-19.5 9-31.5 9s-22.5-3-31.5-9c-1.5-1.5-3-3-4.5-3 0 0-1.5-1.5-1.5-1.5s0-1.5 0-1.5c1.5-1.5 3-1.5 3 0 1.5 1.5 3 1.5 4.5 3 0 0 0 0 0 0 7.5 6 18 9 28.5 9 12 0 21-3 28.5-9v0c1.5-1.5 3-1.5 4.5-3s3-1.5 4.5 0c1.5 1.5 1.5 3 0 3zM841.5 478.5c0 0 0 0 0 0s0 0 0 0 0 0 0 0zM912 459c-3 10.5-7.5 22.5-16.5 28.5-9 4.5-19.5 3-28.5 1.5s-19.5-4.5-25.5-12c-6-6-9-13.5-9-22.5-1.5-18 4.5-36 10.5-52.5 3-7.5 7.5-13.5 12-19.5 12-12 31.5-12 45-1.5 4.5 3 7.5 7.5 12 15 3 7.5 6 15 6 22.5 0 13.5-3 27-6 40.5zM910.5 340.5c-6 4.5-13.5 10.5-25.5 15-4.5 1.5-9 3-13.5 4.5-1.5 0-6 1.5-10.5 1.5-7.5 1.5-18 1.5-18 0 1.5-21 4.5-31.5 9-30 15 1.5 36 1.5 66 1.5 0 0-3 4.5-7.5 7.5z"></path>
</svg>
