<svg version="1.1" xmlns="http://www.w3.org/2000/svg"   viewBox="0 0 1500 1500">

<path d="M750 0c-413.086 0-750 336.914-750 750s336.914 750 750 750c413.086 0 750-336.914 750-750s-336.914-750-750-750zM76.172 750c0-96.68 20.508-190.43 58.594-275.391l322.266 881.836c-225.586-108.398-380.859-339.844-380.859-606.445zM750 1423.828c-67.383 0-128.906-8.789-190.43-26.367l202.148-588.867 208.008 568.359c0 2.93 2.93 5.859 2.93 8.789-67.383 26.367-143.555 38.086-222.656 38.086zM843.75 433.594c41.016-2.93 76.172-5.859 76.172-5.859 35.156-5.859 32.227-58.594-2.93-55.664 0 0-111.328 8.789-181.641 8.789-64.453 0-175.781-8.789-175.781-8.789-38.086-2.93-41.016 52.734-5.859 55.664 0 0 35.156 2.93 70.313 5.859l105.469 287.109-146.484 442.383-246.094-729.492c41.016-2.93 76.172-5.859 76.172-5.859 38.086-5.859 32.227-58.594-2.93-55.664 0 0-108.398 8.789-178.711 8.789-14.648 0-29.297 0-43.945 0 120.117-184.57 328.125-304.688 562.5-304.688 175.781 0 333.984 67.383 454.102 175.781-2.93 0-5.859 0-8.789 0-64.453 0-111.328 58.594-111.328 120.117 0 55.664 32.227 102.539 64.453 158.203 26.367 43.945 55.664 102.539 55.664 184.57 0 58.594-20.508 125.977-49.805 219.727l-67.383 222.656zM1089.844 1333.008l205.078-594.727c38.086-96.68 52.734-172.852 52.734-243.164 0-23.438-2.93-46.875-5.859-67.383 52.734 93.75 82.031 205.078 82.031 322.266 0 249.023-134.766 465.82-333.984 583.008z"></path>
</svg>
