<svg version="1.1" xmlns="http://www.w3.org/2000/svg"   viewBox="0 0 1500 1500">

<path d="M943.359 328.125l-134.766 67.383c-11.719 5.859-14.648 17.578-8.789 29.297l210.938 421.875c5.859 11.719 0 26.367-11.719 32.227l-41.016 20.508c-11.719 5.859-26.367 2.93-32.227-8.789l-2.93-8.789-205.078-416.016c-5.859-11.719-20.508-14.648-32.227-8.789l-131.836 64.453c-11.719 5.859-17.578 20.508-11.719 29.297l205.078 416.016 5.859 8.789c5.859 11.719 0 26.367-11.719 29.297l-41.016 20.508c-14.648 5.859-26.367 2.93-32.227-8.789l-2.93-8.789-205.078-410.156c-5.859-11.719-20.508-17.578-32.227-11.719l-131.836 67.383c-11.719 5.859-17.578 17.578-11.719 29.297l240.234 477.539c5.859 11.719 17.578 17.578 29.297 11.719l17.578-8.789 114.258-58.594 125.977-61.523 134.766-64.453 257.813-128.906c11.719-5.859 14.648-17.578 8.789-29.297l-237.305-480.469c-5.859-11.719-20.508-17.578-32.227-11.719zM1119.141 93.75h-741.211c-208.008 0-380.859 169.922-380.859 377.93v553.711c0 208.008 172.852 380.859 380.859 380.859h741.211c210.938 0 380.859-172.852 380.859-380.859v-553.711c-2.93-208.008-172.852-377.93-380.859-377.93zM1341.797 1016.602c0 125.977-102.539 228.516-228.516 228.516h-729.492c-125.977 0-228.516-102.539-228.516-228.516v-536.133c0-125.977 102.539-228.516 228.516-228.516h729.492c123.047 0 228.516 102.539 228.516 228.516z"></path>
</svg>
