<svg version="1.1" xmlns="http://www.w3.org/2000/svg"   viewBox="0 0 1500 1500">

<path d="M744.141 281.25v0c0 0 0 0 0 0 298.828-216.797 486.328-108.398 486.328-108.398-131.836-111.328-301.758-178.711-486.328-178.711s-354.492 67.383-486.328 178.711c0 0 184.57-111.328 486.328 108.398zM547.852 424.805c-219.727-134.766-351.563-193.359-351.563-193.359-125.977 134.766-202.148 313.477-202.148 512.695 0 175.781 61.523 336.914 164.063 465.82 0 0-102.539-275.391 389.648-785.156zM1494.141 744.141c0-199.219-76.172-377.93-202.148-512.695 0 0-128.906 58.594-351.563 193.359 492.188 509.766 389.648 785.156 389.648 785.156 102.539-128.906 164.063-290.039 164.063-465.82zM741.211 588.867c-416.016 307.617-539.063 670.898-539.063 670.898 137.695 143.555 328.125 231.445 541.992 231.445s407.227-87.891 541.992-231.445c0 0-79.102-328.125-544.922-670.898z"></path>
</svg>
