<svg version="1.1" xmlns="http://www.w3.org/2000/svg"   viewBox="0 0 1500 1500">

<path d="M360.352 1051.758h-216.797c-11.719 0-20.508-5.859-26.367-14.648s-5.859-23.438 0-35.156l228.516-404.297c0 0 0 0 0-2.93l-146.484-251.953c-5.859-11.719-5.859-23.438 0-32.227s14.648-14.648 29.297-14.648h216.797c32.227 0 49.805 20.508 58.594 41.016 0 0 149.414 257.813 149.414 257.813-8.789 17.578-234.375 413.086-234.375 413.086-11.719 20.508-26.367 43.945-58.594 43.945zM1382.813 46.875l-477.539 846.68c0 0 0 2.93 0 2.93l304.688 556.641c5.859 11.719 5.859 23.438 0 32.227s-14.648 14.648-29.297 14.648h-216.797c-32.227 0-46.875-23.438-58.594-41.016 0 0-307.617-562.5-307.617-565.43 14.648-26.367 480.469-852.539 480.469-852.539 11.719-20.508 26.367-41.016 58.594-41.016h219.727c11.719 0 23.438 5.859 26.367 14.648 5.859 8.789 5.859 20.508 0 32.227z"></path>
</svg>
