<svg version="1.1" xmlns="http://www.w3.org/2000/svg"   viewBox="0 0 1500 1500">

<path d="M1456.055 474.609c-26.367 0-134.766 26.367-172.852 32.227-38.086 11.719-395.508 287.109-418.945 354.492-5.859 23.438-8.789 61.523-8.789 93.75l-2.93 55.664c0 38.086 11.719 102.539 17.578 134.766 23.438 5.859 193.359 2.93 225.586 5.859l-5.859 70.313c-29.297-2.93-246.094 0-369.141 0-61.523 0-263.672 5.859-325.195 2.93l11.719-64.453c35.156-2.93 172.852 5.859 205.078-26.367 14.648-17.578 11.719-35.156 11.719-128.906v-43.945c0-20.508 0-61.523-5.859-96.68-14.648-38.086-328.125-430.664-410.156-495.117-23.438-5.859-169.922-23.438-205.078-29.297l-2.93-61.523c17.578-8.789 181.641 2.93 339.844-2.93 105.469-2.93 342.773 0 372.070 2.93l-5.859 52.734c-32.227 8.789-184.57 11.719-222.656 23.438 102.539 149.414 263.672 345.703 316.406 418.945 26.367-41.016 278.32-213.867 287.109-272.461-38.086-8.789-169.922-29.297-190.43-29.297l-11.719-67.383c35.156-5.859 222.656 0 316.406 0 79.102 0 249.023 0 298.828 5.859z"></path>
</svg>
