<svg version="1.1" xmlns="http://www.w3.org/2000/svg"   viewBox="0 0 1500 1500">

<path d="M729.492 169.922c-38.086-11.719-76.172 5.859-90.82 43.945 0 0 0 5.859-2.93 5.859 0 2.93 0 5.859 0 5.859v0c-23.438 58.594-231.445 615.234-231.445 615.234h-5.859l-246.094-629.883c0 0 0 0 0 0l-2.93-8.789c-17.578-38.086-58.594-55.664-96.68-41.016s-58.594 58.594-46.875 96.68c29.297 76.172 316.406 770.508 316.406 770.508l-20.508 41.016c-29.297 84.961-64.453 140.625-161.133 140.625-8.789 0-38.086 0-41.016 0-32.227-2.93-58.594 17.578-67.383 46.875-8.789 35.156 11.719 70.313 46.875 82.031 23.438 2.93 49.805 5.859 73.242 5.859 172.852 0 231.445-99.609 287.109-246.094 0 0 316.406-788.086 331.055-820.313 0-5.859 2.93-11.719 5.859-14.648v0c0 0 0-2.93 0-2.93 11.719-38.086-8.789-79.102-46.875-90.82zM1300.781 1086.914c-123.047-67.383-333.984-166.992-410.156-166.992-11.719 0-17.578 2.93-26.367 8.789-5.859 2.93-8.789 8.789-8.789 17.578 2.93 58.594 328.125 275.391 354.492 290.039l11.719 5.859c8.789 2.93 17.578 5.859 26.367 5.859 29.297 0 55.664-17.578 73.242-41.016 23.438-38.086 14.648-87.891-20.508-120.117zM864.258 571.289c8.789 5.859 14.648 8.789 26.367 8.789 76.172 0 287.109-99.609 410.156-169.922 35.156-29.297 43.945-79.102 20.508-117.188-17.578-23.438-43.945-41.016-73.242-41.016-8.789 0-17.578 2.93-29.297 5.859l-8.789 5.859c-26.367 14.648-351.563 231.445-354.492 290.039 0 8.789 2.93 14.648 8.789 17.578zM1429.688 659.18h-8.789c-32.227 0-418.945 35.156-451.172 84.961-2.93 5.859-5.859 17.578 0 23.438 32.227 67.383 451.172 73.242 459.961 67.383 43.945-5.859 76.172-46.875 73.242-93.75-2.93-38.086-32.227-73.242-73.242-82.031z"></path>
</svg>
