<svg version="1.1" xmlns="http://www.w3.org/2000/svg"   viewBox="0 0 1500 1500">

<path d="M1142.578 0h-125.977c-11.719 0-17.578 5.859-20.508 14.648 0 5.859-190.43 583.008-202.148 629.883-11.719 35.156-43.945 155.273-49.805 184.57l-67.383-181.641c-14.648-49.805-166.992-474.609-172.852-492.188-2.93-8.789-5.859-20.508-23.438-20.508h-123.047c-11.719 0-17.578 11.719-14.648 20.508 2.93 5.859 225.586 603.516 316.406 829.102v500.977c0 8.789 5.859 14.648 14.648 14.648h117.188c5.859 0 11.719-5.859 11.719-14.648v-495.117c76.172-210.938 351.563-960.938 354.492-969.727s2.93-20.508-14.648-20.508z"></path>
</svg>
