<svg version="1.1" xmlns="http://www.w3.org/2000/svg"   viewBox="0 0 1500 1500">

<path d="M307.617 149.414c14.648-23.438 43.945-35.156 43.945-35.156l295.898-108.398c11.719-2.93 26.367-17.578 70.313 11.719 26.367 14.648 32.227 79.102 32.227 79.102l2.93 506.836c0 0-5.859 58.594-46.875 70.313-38.086 8.789-70.313-23.438-70.313-23.438l-304.688-416.016c0 0-43.945-52.734-23.438-84.961zM152.344 1013.672c-11.719-20.508-8.789-64.453-8.789-64.453l20.508-254.883c0-14.648 17.578-35.156 35.156-43.945 20.508-14.648 70.313 5.859 70.313 5.859l316.406 161.133c0 0 46.875 23.438 46.875 61.523 0 52.734-26.367 52.734-41.016 61.523l-372.070 82.031c0 0-52.734 20.508-67.383-8.789zM723.633 1497.070c-23.438 5.859-52.734 0-52.734 0l-249.023-79.102c-17.578-8.789-32.227-20.508-38.086-43.945-8.789-26.367 23.438-67.383 23.438-67.383l249.023-272.461c0 0 38.086-35.156 67.383-17.578 29.297 14.648 32.227 49.805 32.227 49.805l-5.859 369.141c0 0 5.859 52.734-26.367 61.523zM875.977 738.281l199.219-316.406c0 0 20.508-41.016 55.664-38.086 29.297 0 43.945 26.367 43.945 26.367l169.922 199.219c0 0 14.648 32.227 8.789 58.594s-55.664 46.875-55.664 46.875l-354.492 102.539c0 0-52.734 11.719-70.313-20.508-14.648-29.297 2.93-58.594 2.93-58.594zM1341.797 1151.367l-149.414 216.797c0 0-29.297 20.508-55.664 20.508s-58.594-41.016-58.594-41.016l-190.43-319.336c0 0-20.508-46.875 2.93-70.313s58.594-14.648 58.594-14.648l357.422 114.258c0 0 49.805 8.789 49.805 43.945 0 23.438-14.648 49.805-14.648 49.805z"></path>
</svg>
