<svg version="1.1" xmlns="http://www.w3.org/2000/svg"   viewBox="0 0 1500 1500">

<path d="M1034.18 837.891c2.93-52.734 8.789-105.469 14.648-158.203 2.93-41.016 8.789-84.961 14.648-125.977 5.859-46.875 11.719-96.68 17.578-146.484 2.93-14.648 5.859-29.297 5.859-46.875 0-2.93 2.93-5.859 5.859-5.859 52.734-14.648 105.469-29.297 155.273-43.945 5.859 0 5.859 0 8.789 5.859 17.578 84.961 32.227 169.922 49.805 257.813 14.648 58.594 23.438 111.328 35.156 169.922 0 0 0 2.93 2.93 2.93 0-5.859 0-11.719 0-17.578-2.93-58.594 0-117.188 2.93-175.781 2.93-38.086 2.93-79.102 5.859-117.188 2.93-49.805 5.859-99.609 5.859-149.414 0-5.859 2.93-8.789 8.789-8.789 41.016-11.719 82.031-23.438 123.047-35.156 2.93 0 5.859 0 5.859 0 0 14.648 0 26.367-2.93 41.016-2.93 32.227-5.859 64.453-8.789 99.609-2.93 43.945-5.859 87.891-11.719 134.766-2.93 41.016-5.859 79.102-8.789 120.117-5.859 43.945-8.789 90.82-11.719 137.695-2.93 29.297-5.859 61.523-8.789 90.82 0 2.93 0 5.859-2.93 5.859-55.664 17.578-108.398 29.297-164.063 43.945-2.93 2.93-5.859 0-5.859-2.93-26.367-108.398-49.805-213.867-73.242-322.266-5.859-32.227-11.719-64.453-17.578-96.68 0-2.93 0-2.93-2.93-5.859 0 23.438-2.93 46.875-2.93 70.313-2.93 38.086-8.789 76.172-11.719 114.258-5.859 38.086-11.719 79.102-14.648 114.258-5.859 43.945-11.719 87.891-17.578 128.906-2.93 11.719-2.93 26.367-5.859 38.086 0 2.93-2.93 2.93-5.859 5.859-52.734 14.648-108.398 29.297-166.992 43.945-2.93 2.93-2.93 0-5.859-2.93-11.719-67.383-23.438-134.766-35.156-202.148s-20.508-134.766-32.227-202.148c-11.719-58.594-20.508-117.188-32.227-175.781 0-2.93 0-2.93 2.93-5.859 43.945-11.719 84.961-20.508 125.977-32.227 2.93-2.93 5.859 0 5.859 2.93 2.93 29.297 5.859 58.594 8.789 87.891 5.859 46.875 14.648 96.68 20.508 143.555 5.859 67.383 17.578 134.766 20.508 205.078 0 5.859 0 8.789 2.93 14.648 0 2.93-2.93 2.93 0 5.859 0-2.93 0-5.859 0-5.859zM269.531 949.219c-2.93-35.156-8.789-70.313-8.789-105.469-2.93-38.086-5.859-73.242-5.859-111.328-2.93-46.875-5.859-93.75-8.789-143.555 0-5.859 0-5.859 5.859-8.789 38.086-8.789 76.172-20.508 114.258-29.297 2.93-2.93 5.859-2.93 5.859 2.93 0 73.242 5.859 143.555 8.789 213.867 0 55.664 2.93 111.328 5.859 164.063 2.93 70.313 2.93 137.695 5.859 205.078 0 5.859 0 11.719 2.93 17.578 0 2.93 0 5.859-2.93 5.859-43.945 8.789-84.961 20.508-125.977 35.156-2.93 0-2.93-2.93-5.859-5.859-20.508-46.875-38.086-93.75-55.664-140.625-26.367-64.453-52.734-125.977-73.242-190.43-2.93 2.93-2.93 5.859 0 8.789 0 35.156 2.93 64.453 5.859 99.609 0 29.297 2.93 64.453 5.859 93.75 2.93 49.805 5.859 99.609 8.789 146.484 0 5.859 0 8.789 2.93 14.648 0 2.93-2.93 2.93-5.859 5.859-32.227 5.859-61.523 14.648-90.82 26.367-8.789 2.93-17.578 2.93-26.367 5.859-5.859 2.93-5.859 0-5.859-2.93 0-43.945-2.93-87.891-2.93-134.766-2.93-76.172-5.859-152.344-8.789-231.445 0-49.805-2.93-102.539-5.859-155.273 0-26.367 0-52.734-2.93-79.102 0-2.93 2.93-2.93 5.859-5.859 41.016-8.789 82.031-20.508 123.047-32.227 2.93-2.93 5.859 0 8.789 2.93 43.945 111.328 87.891 222.656 131.836 333.984 0 0 0 2.93 0 2.93s0 0 0-2.93c-5.859-2.93-5.859-5.859-5.859-5.859zM832.031 779.297c-2.93-55.664-2.93-108.398-5.859-164.063-2.93-23.438-5.859-46.875-11.719-70.313-14.648-43.945-41.016-73.242-87.891-82.031-23.438-2.93-49.805-2.93-73.242 0-41.016 5.859-79.102 17.578-117.188 35.156-41.016 23.438-67.383 52.734-76.172 99.609-5.859 26.367-5.859 49.805-5.859 76.172 0 58.594 2.93 120.117 2.93 178.711 2.93 35.156 2.93 64.453 2.93 99.609 2.93 20.508 5.859 43.945 11.719 67.383 11.719 41.016 41.016 70.313 82.031 82.031 23.438 2.93 43.945 5.859 64.453 2.93 46.875-5.859 90.82-17.578 128.906-38.086s61.523-46.875 76.172-84.961c5.859-20.508 8.789-43.945 8.789-64.453 2.93-46.875 0-90.82 0-137.695zM691.406 946.289c-5.859 29.297-20.508 41.016-49.805 43.945-5.859 0-8.789 0-14.648 0-14.648-2.93-23.438-11.719-26.367-26.367-2.93-23.438-2.93-46.875-2.93-70.313 0-38.086 0-76.172 0-111.328 0-52.734 0-105.469 0-155.273 0-32.227 29.297-55.664 61.523-49.805 11.719 2.93 23.438 14.648 26.367 29.297 0 11.719 0 23.438 0 35.156 5.859 82.031 5.859 164.063 8.789 246.094 0 17.578 2.93 38.086-2.93 58.594z"></path>
</svg>
