<svg version="1.1" xmlns="http://www.w3.org/2000/svg"   viewBox="0 0 1500 1500">

<path d="M1125 262.5l-375 193.5-376.5-195c-124.5 64.5-249 130.5-373.5 193.5v394.5c250.5 129 499.5 259.5 750 388.5 250.5-129 501-259.5 750-388.5 0-130.5 0-262.5 0-393-124.5-64.5-250.5-129-375-193.5zM18 477l345 178.5-345 178.5v-357zM364.5 1018.5l-328.5-171 328.5-171v342zM364.5 624v10.5l-336-172.5 336-174v336zM1125 633v-349.5c100.5 64.5 201 129 303 193.5l-303 159v-3zM384 624v-336l345 178.5-345 180h-1.5v-22.5zM384 672v-4.5h1.5l339 177-340.5 175.5v-348zM741 1212l-345-178.5 345-178.5v357zM744 832.5l-339-175.5 345-178.5 340.5 175.5-346.5 178.5zM1107 676.5v355.5l-348 180v-366l348-180v10.5zM1107 631.5v9l-337.5-174 336-175.5v340.5zM1125 1023v-349.5l337.5 175.5-337.5 174zM1480.5 835.5l-351-181.5 351-183v364.5z"></path>
</svg>
