<svg version="1.1" xmlns="http://www.w3.org/2000/svg"   viewBox="0 0 1500 1500">

<path d="M1488.281 626.953h-436.523l310.547-310.547c-23.438-35.156-52.734-67.383-82.031-96.68s-61.523-58.594-96.68-82.031l-310.547 310.547v-436.523c-38.086-8.789-79.102-11.719-123.047-11.719-41.016 0-84.961 2.93-123.047 11.719v436.523l-310.547-310.547c-35.156 23.438-67.383 52.734-96.68 82.031s-58.594 61.523-82.031 96.68l310.547 307.617h-436.523c0 0-11.719 82.031-11.719 123.047 0 43.945 2.93 84.961 11.719 125.977h436.523l-310.547 310.547c46.875 70.313 108.398 128.906 178.711 178.711l307.617-310.547v439.453c41.016 5.859 82.031 11.719 123.047 11.719h2.93c41.016 0 84.961-5.859 123.047-11.719v-439.453l310.547 310.547c35.156-23.438 67.383-52.734 96.68-82.031s58.594-61.523 82.031-96.68l-310.547-310.547h436.523c8.789-38.086 11.719-82.031 11.719-123.047 0-43.945-2.93-84.961-11.719-123.047M937.5 750c0 55.664-11.719 108.398-29.297 158.203-49.805 17.578-102.539 29.297-158.203 29.297s-108.398-11.719-158.203-29.297c-17.578-49.805-29.297-102.539-29.297-158.203s11.719-108.398 29.297-158.203c49.805-17.578 102.539-29.297 158.203-29.297s108.398 11.719 158.203 29.297c17.578 49.805 29.297 102.539 29.297 158.203z"></path>
</svg>
