<svg version="1.1" xmlns="http://www.w3.org/2000/svg"   viewBox="0 0 1500 1500">

<path d="M805.664 292.969c-23.438 2.93-46.875 8.789-67.383 11.719-67.383 8.789-134.766 14.648-202.148 5.859-29.297-2.93-58.594-8.789-84.961-23.438-38.086-17.578-49.805-38.086-46.875-82.031 2.93-32.227 8.789-67.383 26.367-96.68 17.578-32.227 38.086-61.523 58.594-90.82 14.648-20.508 29.297-23.438 49.805-11.719 32.227 20.508 70.313 32.227 108.398 38.086 76.172 14.648 152.344 17.578 228.516 17.578 102.539 0 205.078-14.648 304.688-35.156 5.859 0 8.789 0 11.719 0 17.578 0 26.367 5.859 23.438 23.438-5.859 38.086-8.789 79.102-14.648 117.188 0 8.789-5.859 20.508-11.719 26.367-216.797 249.023-433.594 498.047-647.461 747.070-17.578 20.508-20.508 29.297-17.578 55.664 14.648 2.93 26.367 2.93 41.016 2.93 64.453 8.789 123.047 35.156 178.711 67.383 46.875 29.297 90.82 55.664 137.695 82.031s90.82 49.805 140.625 58.594c61.523 14.648 120.117 17.578 178.711 2.93 26.367-8.789 52.734-20.508 73.242-35.156 2.93-2.93 5.859-2.93 11.719-8.789 2.93 26.367 5.859 49.805 5.859 73.242-2.93 61.523-14.648 117.188-46.875 169.922-32.227 49.805-73.242 82.031-131.836 90.82-41.016 2.93-76.172-5.859-114.258-14.648-82.031-26.367-155.273-67.383-225.586-117.188-35.156-23.438-70.313-52.734-105.469-79.102-70.313-49.805-146.484-84.961-231.445-93.75-38.086-5.859-79.102-8.789-120.117-8.789-26.367-2.93-52.734 0-79.102 0-17.578 0-29.297-8.789-29.297-26.367 0-49.805 0-96.68 2.93-143.555 0-14.648 5.859-29.297 14.648-38.086 190.43-225.586 380.859-451.172 571.289-676.758 2.93-2.93 5.859-5.859 8.789-8.789z"></path>
</svg>
