<svg version="1.1" xmlns="http://www.w3.org/2000/svg"   viewBox="0 0 1500 1500">

<path d="M817.5 151.5c-82.5 39-322.5 225-451.5 322.5 157.5-52.5 535.5-136.5 729-141-61.5-43.5-231-159-277.5-181.5zM63 1348.5c54-24 558-192 1023-219 10.5-39 61.5-171 70.5-205.5-481.5 33-873 177-1030.5 249l-63 175.5zM1129.5 358.5c0 0-468 471-541.5 538.5 142.5-51 435-112.5 619.5-124.5 21-66 45-114 45-114l247.5-25.5c0 1.5-189-151.5-370.5-274.5zM144 1123.5c147-153 679.5-643.5 679.5-643.5-276 64.5-565.5 151.5-667.5 199.5l-156 159c129-27 171-33 265.5-46.5l-121.5 331.5z"></path>
</svg>
