<svg version="1.1" xmlns="http://www.w3.org/2000/svg"   viewBox="0 0 1500 1500">

<path d="M1192.383 457.031c0 0-251.953-93.75-442.383-41.016-193.359 52.734-272.461 175.781-272.461 175.781s-87.891 96.68-152.344 105.469c-64.453 8.789-114.258 11.719-325.195 0v102.539c210.938-8.789 260.742-5.859 325.195 2.93 64.453 5.859 152.344 105.469 152.344 105.469s79.102 123.047 272.461 175.781c193.359 52.734 445.313-41.016 445.313-41.016 298.828-108.398 304.688-284.18 304.688-284.18v-17.578c0 0-5.859-175.781-307.617-284.18zM899.414 512.695c-93.75 2.93-155.273 29.297-196.289 52.734 0 0 0 2.93 0 2.93-2.93 0-5.859 0-8.789 0-11.719 0-17.578-8.789-17.578-17.578s2.93-14.648 8.789-17.578c26.367-11.719 52.734-20.508 87.891-29.297 29.297-11.719 67.383-14.648 108.398-14.648 90.82 0 184.57 23.438 234.375 38.086 0 0-108.398-20.508-216.797-14.648z"></path>
</svg>
