<svg version="1.1" xmlns="http://www.w3.org/2000/svg"   viewBox="0 0 1500 1500">

<path d="M448.5 334.5c-130.5 0-261 0-390 0-40.5 0-57 15-57 57 0 172.5-1.5 343.5 0 516 1.5 156 109.5 259.5 265.5 259.5 250.5 0 501 0 753 0 51 0 64.5-12 64.5-61.5 0-168 0-334.5 0-502.5 0-162-105-267-267-267-124.5-3-246-1.5-369-1.5zM1500 751.5c0 0 0 0 0 0 0-120 0-241.5 0-361.5 0-18-1.5-36-19.5-45-19.5-10.5-33 4.5-46.5 13.5-1.5 1.5-4.5 3-6 4.5-94.5 76.5-187.5 154.5-282 231-13.5 12-21 24-19.5 42 0 79.5 0 159 0 240 0 18 6 28.5 19.5 39 58.5 45 115.5 91.5 172.5 138 40.5 33 81 66 123 96 31.5 22.5 55.5 10.5 58.5-28.5 0-9 0-18 0-25.5 0-115.5 0-229.5 0-343.5z"></path>
</svg>
