<svg version="1.1" xmlns="http://www.w3.org/2000/svg"   viewBox="0 0 1500 1500">

<path d="M1119.141 5.859c0 0 102.539-8.789 184.57 43.945 29.297-2.93 52.734 11.719 67.383 38.086 14.648 29.297 43.945 96.68 20.508 137.695-5.859 5.859-23.438-26.367-23.438-26.367s-8.789 41.016-32.227 55.664c2.93 84.961-29.297 143.555-38.086 164.063-5.859 8.789-2.93 20.508 2.93 32.227 2.93 8.789 58.594 208.008 55.664 272.461-2.93 67.383-35.156 143.555-61.523 172.852 5.859 52.734-20.508 99.609-32.227 123.047-14.648 20.508-41.016 105.469-46.875 143.555-8.789 41.016-11.719 82.031-2.93 93.75 8.789 14.648 46.875 52.734 43.945 73.242-2.93 17.578-43.945 41.016-64.453 41.016-17.578 0-58.594-11.719-67.383-38.086-11.719-26.367-11.719-73.242-5.859-99.609 8.789-26.367 55.664-222.656 26.367-336.914-67.383 32.227-181.641 29.297-181.641 29.297s-20.508 102.539-43.945 161.133c-8.789 14.648-5.859 108.398-5.859 169.922 0 58.594 20.508 152.344 20.508 152.344s29.297 23.438 23.438 49.805c-2.93 26.367-38.086 41.016-67.383 41.016s-67.383-23.438-67.383-58.594c0-35.156 5.859-120.117 2.93-178.711-2.93-61.523 0-99.609-11.719-137.695-8.789-38.086-38.086-137.695-41.016-213.867-8.789 0-17.578-8.789-17.578-8.789s-46.875 55.664-79.102 84.961c5.859 20.508 14.648 58.594 14.648 67.383s8.789 14.648 23.438 20.508c14.648 5.859 58.594 29.297 55.664 52.734 0 23.438-55.664 29.297-102.539 8.789-11.719-5.859-52.734-143.555-58.594-161.133s-8.789-26.367-2.93-43.945c8.789-14.648 26.367-64.453 23.438-93.75s-55.664-76.172-93.75-76.172c-26.367 0-70.313 43.945-99.609 67.383-38.086 29.297-82.031 73.242-93.75 82.031-11.719 5.859-99.609 166.992-114.258 210.938-8.789 20.508-20.508 111.328-96.68 108.398-32.227-2.93-64.453-41.016 32.227-105.469 23.438-55.664 55.664-114.258 58.594-125.977s26.367-155.273 70.313-290.039c41.016-137.695 102.539-202.148 114.258-210.938 8.789-8.789 14.648-11.719 5.859-17.578s-108.398-90.82-90.82-272.461c2.93-20.508 11.719-14.648 20.508 32.227 5.859 49.805 43.945 164.063 128.906 199.219 8.789 2.93 70.313-43.945 386.719-67.383 0-55.664 8.789-114.258 8.789-114.258s-20.508-17.578-23.438-49.805c-11.719 14.648-17.578 20.508-32.227 17.578-11.719-2.93-11.719-67.383-8.789-114.258 2.93-43.945 55.664-64.453 76.172-67.383 26.367-14.648 55.664-11.719 55.664-11.719s46.875-49.805 184.57-26.367z"></path>
</svg>
