<svg version="1.1" xmlns="http://www.w3.org/2000/svg" xmlns:xlink="http://www.w3.org/1999/xlink" id="address-book-o" viewBox="0 0 1664 1896.0833"><path d="M1028 644q0 107-76.5 183T768 903t-183.5-76T508 644q0-108 76.5-184T768 384t183.5 76 76.5 184zm-48 220q46 0 82.5 17t60 47.5 39.5 67 24 81 11.5 82.5 3.5 79q0 67-39.5 118.5T1056 1408H480q-66 0-105.5-51.5T335 1238q0-48 4.5-93.5T358 1046t36.5-91.5 63-64.5 93.5-26h5q7 4 32 19.5t35.5 21 33 17 37 16 35 9T768 951t39.5-4.5 35-9 37-16 33-17 35.5-21 32-19.5zm684-256q0 13-9.5 22.5T1632 640h-96v128h96q13 0 22.5 9.5t9.5 22.5v192q0 13-9.5 22.5t-22.5 9.5h-96v128h96q13 0 22.5 9.5t9.5 22.5v192q0 13-9.5 22.5t-22.5 9.5h-96v224q0 66-47 113t-113 47H160q-66 0-113-47T0 1632V160Q0 94 47 47T160 0h1216q66 0 113 47t47 113v224h96q13 0 22.5 9.5t9.5 22.5v192zm-256 1024V160q0-13-9.5-22.5T1376 128H160q-13 0-22.5 9.5T128 160v1472q0 13 9.5 22.5t22.5 9.5h1216q13 0 22.5-9.5t9.5-22.5z"/></svg>