<svg version="1.1" xmlns="http://www.w3.org/2000/svg" xmlns:xlink="http://www.w3.org/1999/xlink" id="bluetooth" viewBox="0 0 1536 1896.0833"><path d="M841 1053l148 148-149 149zm-1-611l149 149-148 148zM710 1666l464-464-306-306 306-306-464-464v611L455 482l-93 93 320 321-320 321 93 93 255-255v611zm719-770q0 209-32 365.5t-87.5 257T1169 1681t-181.5 86.5T768 1792t-219.5-24.5T367 1681t-140.5-162.5-87.5-257T107 896t32-365.5 87.5-257T367 111t181.5-86.5T768 0t219.5 24.5T1169 111t140.5 162.5 87.5 257 32 365.5z"/></svg>