<svg version="1.1" xmlns="http://www.w3.org/2000/svg" xmlns:xlink="http://www.w3.org/1999/xlink" id="braille" viewBox="0 0 2176 1896.0833"><path d="M192 1184q-66 0-113 47t-47 113 47 113 113 47 113-47 47-113-47-113-113-47zm512 0q-66 0-113 47t-47 113 47 113 113 47 113-47 47-113-47-113-113-47zm0-512q-66 0-113 47t-47 113 47 113 113 47 113-47 47-113-47-113-113-47zm768 512q-66 0-113 47t-47 113 47 113 113 47 113-47 47-113-47-113-113-47zm512 0q-66 0-113 47t-47 113 47 113 113 47 113-47 47-113-47-113-113-47zm-512-512q-66 0-113 47t-47 113 47 113 113 47 113-47 47-113-47-113-113-47zm512 0q-66 0-113 47t-47 113 47 113 113 47 113-47 47-113-47-113-113-47zm0-512q-66 0-113 47t-47 113 47 113 113 47 113-47 47-113-47-113-113-47zM384 1344q0 80-56 136t-136 56-136-56-56-136 56-136 136-56 136 56 56 136zm512 0q0 80-56 136t-136 56-136-56-56-136 56-136 136-56 136 56 56 136zM384 832q0 80-56 136t-136 56-136-56T0 832t56-136 136-56 136 56 56 136zm512 0q0 80-56 136t-136 56-136-56-56-136 56-136 136-56 136 56 56 136zM384 320q0 80-56 136t-136 56-136-56T0 320t56-136 136-56 136 56 56 136zm1280 1024q0 80-56 136t-136 56-136-56-56-136 56-136 136-56 136 56 56 136zM896 320q0 80-56 136t-136 56-136-56-56-136 56-136 136-56 136 56 56 136zm1280 1024q0 80-56 136t-136 56-136-56-56-136 56-136 136-56 136 56 56 136zm-512-512q0 80-56 136t-136 56-136-56-56-136 56-136 136-56 136 56 56 136zm512 0q0 80-56 136t-136 56-136-56-56-136 56-136 136-56 136 56 56 136zm-512-512q0 80-56 136t-136 56-136-56-56-136 56-136 136-56 136 56 56 136zm512 0q0 80-56 136t-136 56-136-56-56-136 56-136 136-56 136 56 56 136z"/></svg>