<svg version="1.1" xmlns="http://www.w3.org/2000/svg" xmlns:xlink="http://www.w3.org/1999/xlink" id="glide" viewBox="0 0 1536 1896.0833"><path d="M866 515q0 27-13 94-11 50-31.5 150T791 909q-2 11-4.5 12.5T773 924q-20 2-31 2-58 0-84-49.5T632 763q0-88 35-174t103-124q28-14 51-14 28 0 36.5 16.5T866 515zm486 424q0-14-39-75.5t-52-66.5q-21-8-34-8-91 0-226 77l-2-2q3-22 27.5-135t24.5-178q0-233-242-233-24 0-68 6-94 17-168.5 89.5T461 580t-37 189q0 146 80.5 225t227.5 79q25 0 25 3t-1 5q-4 34-26 117-14 52-51.5 101t-82.5 49q-42 0-42-47 0-24 10.5-47.5t25-39.5 29.5-28.5 26-20 11-8.5q0-3-7-10-24-22-58.5-36.5T525 1096q-35 0-63.5 34t-41 75-12.5 75q0 88 51.5 142t138.5 54q82 0 155-53t117.5-126 65.5-153q6-22 15.5-66.5T966 1011q3-12 14-18 118-60 227-60 48 0 127 18 1 1 4 1 5 0 9.5-4.5t4.5-8.5zm184-523v960q0 119-84.5 203.5T1248 1664H288q-119 0-203.5-84.5T0 1376V416q0-119 84.5-203.5T288 128h960q119 0 203.5 84.5T1536 416z"/></svg>