<svg version="1.1" xmlns="http://www.w3.org/2000/svg" xmlns:xlink="http://www.w3.org/1999/xlink" id="google-plus-square" viewBox="0 0 1536 1896.0833"><path d="M917 905q0-26-6-64H549v132h217q-3 24-16.5 50t-37.5 53-66.5 44.5T549 1138q-99 0-169-71t-70-171 70-171 169-71q92 0 153 59l104-101Q698 512 549 512q-160 0-272 112.5T165 896t112 271.5T549 1280q165 0 266.5-105T917 905zm345 46h109V841h-109V731h-110v110h-110v110h110v110h110V951zm274-535v960q0 119-84.5 203.5T1248 1664H288q-119 0-203.5-84.5T0 1376V416q0-119 84.5-203.5T288 128h960q119 0 203.5 84.5T1536 416z"/></svg>