<svg version="1.1" xmlns="http://www.w3.org/2000/svg" xmlns:xlink="http://www.w3.org/1999/xlink" id="google-plus-official" viewBox="0 0 1536 1896.0833"><path d="M917 905q0-33-6-64H549v132h217q-12 76-74.5 120.5T549 1138q-99 0-169-71.5T310 896t70-170.5T549 654q93 0 153 59l104-101Q698 512 549 512q-160 0-272 112.5T165 896t112 271.5T549 1280q165 0 266.5-105T917 905zm345 46h109V841h-109V731h-110v110h-110v110h110v110h110V951zm274-55q0 209-103 385.5T1153.5 1561 768 1664t-385.5-103T103 1281.5 0 896t103-385.5T382.5 231 768 128t385.5 103T1433 510.5 1536 896z"/></svg>