<svg version="1.1" xmlns="http://www.w3.org/2000/svg" xmlns:xlink="http://www.w3.org/1999/xlink" id="hand-grab-o" viewBox="0 0 1536 1896.0833"><path d="M768 384q-53 0-90.5 37.5T640 512v128h-32v-93q0-48-32-81.5T496 432q-46 0-79 33t-33 79v429l-32-30V771q0-48-32-81.5T240 656q-46 0-79 33t-33 79v224q0 47 35 82l310 296q39 39 39 102 0 26 19 45t45 19h640q26 0 45-19t19-45v-25q0-41 10-77l108-436q10-36 10-77V611q0-48-32-81.5t-80-33.5q-46 0-79 33t-33 79v32h-32V515q0-40-25-72.5t-64-40.5q-14-2-23-2-46 0-79 33t-33 79v128h-32V518q0-51-32.5-89.5T781 385q-5-1-13-1zm0-128q84 0 149 50 57-34 123-34 59 0 111 27t86 76q27-7 59-7 100 0 170 71.5t70 171.5v246q0 51-13 108l-109 436q-6 24-6 71 0 80-56 136t-136 56H576q-84 0-138-58.5T384 1463L76 1167Q0 1094 0 992V768q0-99 70.5-169.5T240 528q11 0 16 1 6-95 75.5-160T496 304q52 0 98 21 72-69 174-69z"/></svg>