<svg version="1.1" xmlns="http://www.w3.org/2000/svg" xmlns:xlink="http://www.w3.org/1999/xlink" id="mars" viewBox="0 0 1536 1896.0833"><path d="M1472 128q26 0 45 19t19 45v416q0 14-9 23t-23 9h-64q-14 0-23-9t-9-23V346l-382 383q126 156 126 359 0 117-45.5 223.5t-123 184-184 123T576 1664t-223.5-45.5-184-123-123-184T0 1088t45.5-223.5 123-184 184-123T576 512q203 0 359 126l382-382h-261q-14 0-23-9t-9-23v-64q0-14 9-23t23-9h416zM576 1536q185 0 316.5-131.5T1024 1088 892.5 771.5 576 640 259.5 771.5 128 1088t131.5 316.5T576 1536z"/></svg>