<svg version="1.1" xmlns="http://www.w3.org/2000/svg" xmlns:xlink="http://www.w3.org/1999/xlink" id="pause-circle-o" viewBox="0 0 1536 1896.0833"><path d="M768 128q209 0 385.5 103T1433 510.5 1536 896t-103 385.5-279.5 279.5T768 1664t-385.5-103T103 1281.5 0 896t103-385.5T382.5 231 768 128zm0 1312q148 0 273-73t198-198 73-273-73-273-198-198-273-73-273 73-198 198-73 273 73 273 198 198 273 73zm96-224q-14 0-23-9t-9-23V608q0-14 9-23t23-9h192q14 0 23 9t9 23v576q0 14-9 23t-23 9H864zm-384 0q-14 0-23-9t-9-23V608q0-14 9-23t23-9h192q14 0 23 9t9 23v576q0 14-9 23t-23 9H480z"/></svg>