<svg version="1.1" xmlns="http://www.w3.org/2000/svg" xmlns:xlink="http://www.w3.org/1999/xlink" id="percent" viewBox="0 0 1536 1896.0833"><path d="M1280 1280q0-52-38-90t-90-38-90 38-38 90 38 90 90 38 90-38 38-90zM512 512q0-52-38-90t-90-38-90 38-38 90 38 90 90 38 90-38 38-90zm1024 768q0 159-112.5 271.5T1152 1664t-271.5-112.5T768 1280t112.5-271.5T1152 896t271.5 112.5T1536 1280zm-96-1088q0 20-13 38L371 1638q-19 26-51 26H160q-26 0-45-19t-19-45q0-20 13-38L1165 154q19-26 51-26h160q26 0 45 19t19 45zM768 512q0 159-112.5 271.5T384 896 112.5 783.5 0 512t112.5-271.5T384 128t271.5 112.5T768 512z"/></svg>