<svg version="1.1" xmlns="http://www.w3.org/2000/svg" xmlns:xlink="http://www.w3.org/1999/xlink" id="thermometer-full" viewBox="0 0 1115.0285 1896.0833"><path d="M640 1344q0 80-56 136t-136 56-136-56-56-136q0-60 35-110t93-71V256h128v907q58 21 93 71t35 110zm128 0q0-77-34-144t-94-112V320q0-80-56-136t-136-56-136 56-56 136v768q-60 45-94 112t-34 144q0 133 93.5 226.5T448 1664t226.5-93.5T768 1344zm128 0q0 185-131.5 316.5T448 1792t-316.5-131.5T0 1344q0-182 128-313V320q0-133 93.5-226.5T448 0t226.5 93.5T768 320v711q128 131 128 313zm128-576v128H832V768h192zm0-256v128H832V512h192zm0-256v128H832V256h192z"/></svg>