<svg version="1.1" xmlns="http://www.w3.org/2000/svg" xmlns:xlink="http://www.w3.org/1999/xlink" id="viadeo-square" viewBox="0 0 1536 1896.0833"><path d="M1050 1041q0-78-28-147-41 25-85 34 22 50 22 114 0 117-77 198.5T689 1322t-193.5-81.5T418 1042q0-115 78-199.5T689 758q53 0 98 19 4-43 27-87-60-21-125-21-154 0-257.5 108.5T328 1041t103.5 261T689 1408t257.5-106.5T1050 1041zM872 686q2 24 2 71 0 63-5 123t-20.5 132.5-40.5 130-68.5 106T639 1319q21 3 42 3h10q219-139 219-411 0-116-38-225zm0 0q-4-80-44-171.5T730 384q92 156 142 302zm335-105q0-102-51-174-41 86-124 109-69 19-109 53.5T883 669q0 40 24 77 74-17 140.5-67t95.5-115q-4 52-74.5 111.5T930 773q52 52 110 52 51 0 90-37t60-90q17-42 17-117zm329-165v960q0 119-84.5 203.5T1248 1664H288q-119 0-203.5-84.5T0 1376V416q0-119 84.5-203.5T288 128h960q119 0 203.5 84.5T1536 416z"/></svg>