<svg version="1.1" xmlns="http://www.w3.org/2000/svg" xmlns:xlink="http://www.w3.org/1999/xlink" id="adjust-brightness" viewBox="0 0 24 24"><path d="M12 6.934L13 4c.072-.213.078-.452 0-.682-.188-.553-.79-.848-1.34-.66-.554.19-.848.79-.66 1.342l1 2.934zM4 11c-.213-.072-.452-.078-.682 0-.553.188-.848.79-.66 1.34.19.554.79.848 1.342.66l2.934-1L4 11zm8 6.066L11 20c-.072.213-.078.452 0 .682.188.553.79.848 1.34.66.554-.19.848-.79.66-1.342l-1-2.934zm9.34-5.41c-.187-.552-.787-.847-1.34-.658l-2.934 1 2.934 1c.213.072.452.078.682 0 .552-.188.847-.79.66-1.34zM5.637 7.05l2.78 1.367-1.366-2.78c-.1-.203-.265-.376-.482-.483-.524-.258-1.157-.042-1.415.482-.257.523-.04 1.157.483 1.414zm-.483 10.382c-.257.523-.04 1.156.482 1.414.523.257 1.157.04 1.414-.482l1.366-2.78-2.78 1.366c-.202.1-.375.263-.483.482zm13.21-.483l-2.78-1.368 1.366 2.78c.1.203.263.376.48.483.524.257 1.157.04 1.415-.482s.042-1.157-.482-1.414zm.48-10.384c.26-.524.043-1.157-.48-1.415-.523-.256-1.157-.04-1.414.483l-1.37 2.783 2.782-1.368c.202-.1.375-.264.482-.482zM12 7.5c-2.48 0-4.5 2.02-4.5 4.5s2.02 4.5 4.5 4.5 4.5-2.02 4.5-4.5-2.02-4.5-4.5-4.5z"/></svg>