<svg version="1.1" xmlns="http://www.w3.org/2000/svg" xmlns:xlink="http://www.w3.org/1999/xlink" id="anchor" viewBox="0 0 24 24"><path d="M18 13.5c-.553 0-1 .447-1 1 0 2.414-1.72 4.434-4 4.898V12h4c.553 0 1-.447 1-1s-.447-1-1-1h-4V8.816c1.162-.413 2-1.51 2-2.816 0-1.657-1.343-3-3-3S9 4.343 9 6c0 1.305.838 2.403 2 2.816V10H7c-.553 0-1 .447-1 1s.447 1 1 1h4v7.398c-2.28-.465-4-2.484-4-4.898 0-.553-.447-1-1-1s-1 .447-1 1c0 3.86 3.14 7 7 7s7-3.14 7-7c0-.553-.447-1-1-1zM12 5c.55 0 1 .45 1 1s-.45 1-1 1-1-.45-1-1 .45-1 1-1z"/></svg>