<svg version="1.1" xmlns="http://www.w3.org/2000/svg" xmlns:xlink="http://www.w3.org/1999/xlink" id="arrow-sync-outline" viewBox="0 0 24 24"><path d="M21.5 12.473c0-2.495-.818-4.426-2.653-6.26-.31-.308-.676-.532-1.073-.68l-.946-.947L13.12.88C12.556.31 11.8 0 11 0S9.445.312 8.88.88C8.31 1.444 8 2.2 8 3c0 .277.037.55.11.81-1.03.46-1.974 1.12-2.827 1.973C3.488 7.576 2.5 9.96 2.5 12.5c0 2.495.818 4.426 2.653 6.26.3.297.652.52 1.034.668l.985.986 3.707 3.707c.565.568 1.32.88 2.12.88s1.555-.312 2.12-.88c.568-.565.88-1.32.88-2.12 0-.286-.04-.566-.117-.834 1.03-.46 1.978-1.12 2.833-1.975 1.796-1.793 2.784-4.18 2.784-6.717zm-9.13 7.484l1.337 1.336c.39.39.39 1.023 0 1.414-.195.195-.45.293-.707.293s-.512-.098-.707-.293L8.586 19l3.707-3.707c.195-.195.45-.293.707-.293s.512.098.707.293c.39.39.39 1.023 0 1.414l-1.247 1.247c1.35-.09 2.425-.59 3.428-1.593 1.04-1.037 1.61-2.418 1.61-3.887 0-1.422-.4-2.35-1.48-3.43-.39-.39-.39-1.022 0-1.414.196-.196.452-.294.71-.294.255 0 .51.098.706.292 1.448 1.447 2.066 2.896 2.066 4.844 0 2.004-.78 3.887-2.197 5.303-1.39 1.39-3.01 2.1-4.933 2.182zm-.766-14.94l-1.31-1.31c-.392-.39-.392-1.023 0-1.414.194-.195.45-.293.706-.293s.512.098.707.293L15.414 6l-3.707 3.707c-.195.195-.45.293-.707.293s-.512-.098-.707-.293c-.39-.39-.39-1.023 0-1.414l1.275-1.275c-1.365.086-2.448.584-3.456 1.593C7.072 9.65 6.5 11.03 6.5 12.5c0 1.422.4 2.35 1.48 3.43.39.39.39 1.022 0 1.414-.195.195-.452.293-.708.293s-.512-.098-.707-.292C5.118 15.897 4.5 14.448 4.5 12.5c0-2.004.78-3.887 2.197-5.303 1.382-1.383 2.993-2.093 4.907-2.18zM8.688 15.223C7.8 14.335 7.5 13.648 7.5 12.5c0-1.202.468-2.332 1.318-3.18l.187-.18c.033.48.236.93.58 1.274.38.378.88.586 1.415.586s1.036-.208 1.414-.586l2.34-2.34c-.08.597.103 1.22.56 1.676.887.887 1.187 1.574 1.187 2.722 0 1.202-.467 2.332-1.317 3.18l-.188.182c-.04-.472-.24-.91-.58-1.248-.38-.378-.88-.586-1.415-.586s-1.036.208-1.414.586l-2.342 2.342c.09-.605-.093-1.242-.556-1.706z"/></svg>