<svg version="1.1" xmlns="http://www.w3.org/2000/svg" xmlns:xlink="http://www.w3.org/1999/xlink" id="arrow-sync" viewBox="0 0 24 24"><path d="M19.5 12.473c0-1.948-.618-3.397-2.066-4.844-.39-.39-1.023-.39-1.414 0-.39.39-.39 1.023 0 1.414 1.08 1.078 1.48 2.007 1.48 3.43 0 1.468-.572 2.85-1.61 3.887-1.005 1.004-2.08 1.503-3.43 1.594l1.247-1.247c.39-.39.39-1.023 0-1.414s-1.023-.39-1.414 0L8.586 19l3.707 3.707c.195.195.45.293.707.293s.512-.098.707-.293c.39-.39.39-1.023 0-1.414l-1.337-1.336c1.923-.082 3.542-.792 4.933-2.18 1.417-1.417 2.197-3.3 2.197-5.304zm-13 .027c0-1.47.572-2.85 1.61-3.89 1.01-1.008 2.093-1.507 3.458-1.593l-1.275 1.275c-.39.39-.39 1.023 0 1.414.195.196.45.294.707.294s.512-.098.707-.293L15.414 6l-3.707-3.707c-.39-.39-1.023-.39-1.414 0s-.39 1.023 0 1.414l1.31 1.31c-1.913.087-3.524.797-4.906 2.18C5.28 8.613 4.5 10.497 4.5 12.5c0 1.948.618 3.397 2.066 4.844.195.195.45.292.707.292s.512-.098.707-.293c.39-.39.39-1.024 0-1.415C6.9 14.85 6.5 13.922 6.5 12.5z"/></svg>