<svg version="1.1" xmlns="http://www.w3.org/2000/svg" xmlns:xlink="http://www.w3.org/1999/xlink" id="arrow-shuffle" viewBox="0 0 24 24"><path d="M4 9h3.5c.736 0 1.393.39 1.85 1 .326-.603.73-1.162 1.192-1.66C9.74 7.515 8.676 7 7.5 7H4c-.553 0-1 .448-1 1s.447 1 1 1zm7.685 3.11c.55-1.656 2.256-3.11 3.65-3.11h1.837l-1.293 1.293c-.392.39-.392 1.023 0 1.414.194.195.45.293.706.293s.512-.098.707-.293L21 8l-3.707-3.707c-.39-.39-1.023-.39-1.414 0s-.392 1.023 0 1.414L17.17 7h-1.838c-2.274 0-4.71 1.967-5.547 4.48l-.472 1.41C8.675 14.816 7.243 16 6.5 16H4c-.553 0-1 .448-1 1s.447 1 1 1h2.5c1.837 0 3.863-1.925 4.713-4.48l.472-1.41zm4.194 1.183c-.392.39-.392 1.023 0 1.414L17.17 16h-2.338c-1.268 0-2.33-.89-2.69-2.108-.257.75-.628 1.5-1.09 2.185.885 1.162 2.242 1.923 3.78 1.923h2.338l-1.293 1.293c-.392.39-.392 1.023 0 1.414.194.195.45.293.706.293s.512-.098.707-.293L21 17l-3.707-3.707c-.39-.39-1.023-.39-1.414 0z"/></svg>