<svg version="1.1" xmlns="http://www.w3.org/2000/svg" xmlns:xlink="http://www.w3.org/1999/xlink" id="arrow-move" viewBox="0 0 24 24"><path d="M17.707 8.293c-.39-.39-1.023-.39-1.414 0s-.39 1.023 0 1.414L17.586 11H13V6.414l1.293 1.293c.195.195.45.293.707.293s.512-.098.707-.293c.39-.39.39-1.023 0-1.414L12 2.586 8.293 6.293c-.39.39-.39 1.023 0 1.414s1.023.39 1.414 0L11 6.414V11H6.414l1.293-1.293c.39-.39.39-1.023 0-1.414s-1.023-.39-1.414 0L2.586 12l3.707 3.707c.195.195.45.293.707.293s.512-.098.707-.293c.39-.39.39-1.023 0-1.414L6.414 13H11v4.586l-1.293-1.293c-.39-.39-1.023-.39-1.414 0s-.39 1.023 0 1.414L12 21.414l3.707-3.707c.39-.39.39-1.023 0-1.414s-1.023-.39-1.414 0L13 17.586V13h4.586l-1.293 1.293c-.39.39-.39 1.023 0 1.414.195.195.45.293.707.293s.512-.098.707-.293L21.414 12l-3.707-3.707z"/></svg>