<svg version="1.1" xmlns="http://www.w3.org/2000/svg" xmlns:xlink="http://www.w3.org/1999/xlink" id="arrow-minimise" viewBox="0 0 24 24"><path d="M6.12 13c-.552 0-1 .448-1 1s.448 1 1 1h1.466l-3.293 3.293c-.39.39-.39 1.023 0 1.414.195.195.45.293.707.293s.512-.098.707-.293l3.414-3.414V18c0 .552.448 1 1 1s.88-.448.88-1v-5H6.12zM7 11c.552 0 1-.448 1-1V8h2c.553 0 1-.448 1-1s-.447-1-1-1H6v4c0 .552.447 1 1 1zm10 2c-.553 0-1 .448-1 1v2h-2c-.553 0-1 .448-1 1s.447 1 1 1h4v-4c0-.552-.447-1-1-1zm1.293-8.707L15 7.586V6c0-.552-.447-1-1-1s-1 .448-1 1v5h5c.552 0 1-.448 1-1s-.447-1-1-1h-1.586l3.293-3.292c.39-.39.39-1.023 0-1.414s-1.023-.392-1.414 0z"/></svg>