<svg version="1.1" xmlns="http://www.w3.org/2000/svg" xmlns:xlink="http://www.w3.org/1999/xlink" id="arrow-down-outline" viewBox="0 0 24 24"><path d="M12 21.312l-7.12-7.12c-1.17-1.17-1.17-3.074 0-4.243C5.972 8.854 7.856 8.81 9 9.833V5c0-1.654 1.346-3 3-3s3 1.346 3 3v4.834c1.143-1.023 3.027-.98 4.12.115 1.17 1.168 1.17 3.07 0 4.24L12 21.313zM7 11.07c-.268 0-.518.104-.707.293-.39.39-.39 1.023 0 1.414L12 18.484l5.707-5.707c.39-.39.39-1.024 0-1.414-.38-.38-1.035-.38-1.414 0L13 14.656V5c0-.55-.448-1-1-1s-1 .45-1 1v9.656l-3.293-3.293c-.19-.19-.44-.293-.707-.293z"/></svg>