<svg version="1.1" xmlns="http://www.w3.org/2000/svg" xmlns:xlink="http://www.w3.org/1999/xlink" id="arrow-back-outline" viewBox="0 0 24 24"><path d="M19.164 19.547c-1.64-2.5-3.67-3.285-6.164-3.484V17.5c0 .534-.208 1.036-.586 1.414-.756.756-2.077.75-2.823.005L3.3 12.71C3.108 12.522 3 12.268 3 12s.107-.525.298-.713l6.288-6.203c.754-.755 2.073-.756 2.83 0 .376.38.584.88.584 1.415v1.703c4.62.933 8 4.997 8 9.796v1c0 .44-.29.83-.714.957-.095.027-.19.042-.286.042-.33 0-.646-.166-.836-.453zm-7.14-5.536c2.206.057 4.637.395 6.757 2.122-.767-3.216-3.476-5.702-6.892-6.08C11.384 9.996 11 10 11 10V6.503L5.424 12 11 17.5V14l1.023.01z"/></svg>