<svg version="1.1" xmlns="http://www.w3.org/2000/svg" xmlns:xlink="http://www.w3.org/1999/xlink" id="arrow-left-outline" viewBox="0 0 24 24"><path d="M10.928 21c-.8 0-1.555-.312-2.12-.88L1.685 13l7.12-7.12c1.134-1.135 3.11-1.135 4.243 0 .565.563.878 1.316.878 2.118 0 .746-.27 1.45-.764 2.002H18c1.654 0 3 1.346 3 3s-1.346 3-3 3h-4.836c.493.55.764 1.252.764 1.998.002.802-.312 1.557-.88 2.124-.566.566-1.32.878-2.12.878zm-6.414-8l5.707 5.707c.38.378 1.036.378 1.415 0 .19-.19.293-.44.293-.708s-.104-.518-.29-.706L8.34 14H18c.552 0 1-.45 1-1s-.448-1-1-1H8.342l3.293-3.293c.19-.19.293-.44.293-.708s-.104-.518-.292-.706c-.38-.38-1.036-.38-1.415 0L4.515 13z"/></svg>