<svg version="1.1" xmlns="http://www.w3.org/2000/svg" xmlns:xlink="http://www.w3.org/1999/xlink" id="arrow-maximise" viewBox="0 0 24 24"><path d="M15 4c-.553 0-1 .448-1 1s.447 1 1 1h1.586l-3.293 3.293c-.39.39-.39 1.023 0 1.414.195.195.45.293.707.293s.512-.098.707-.293L18 7.414V9c0 .552.447 1 1 1s1-.448 1-1V4h-5zm-5.707 9.293L6 16.586V15c0-.552-.447-1-1-1s-1 .448-1 1v5h5c.552 0 1-.448 1-1s-.447-1-1-1H7.414l3.293-3.292c.39-.39.39-1.023 0-1.414s-1.023-.392-1.414 0zM7 12c.552 0 1-.448 1-1V8h3c.553 0 1-.448 1-1s-.447-1-1-1H6v5c0 .552.447 1 1 1zm10 0c-.553 0-1 .448-1 1v3h-3c-.553 0-1 .448-1 1s.447 1 1 1h5v-5c0-.552-.447-1-1-1z"/></svg>