<svg version="1.1" xmlns="http://www.w3.org/2000/svg" xmlns:xlink="http://www.w3.org/1999/xlink" id="arrow-forward-outline" viewBox="0 0 24 24"><path d="M4 20c-.096 0-.19-.016-.286-.043C3.29 19.83 3 19.44 3 19v-1c0-4.8 3.38-8.865 8-9.797V6.5c0-.535.208-1.037.585-1.415.756-.757 2.075-.756 2.83 0l6.287 6.202c.19.188.298.443.298.712s-.107.523-.298.71L14.41 18.92c-.747.746-2.068.75-2.824-.005-.378-.378-.586-.88-.586-1.414V16.06c-2.495.2-4.523.985-6.164 3.484-.19.288-.505.453-.836.453zm8-5.99l1-.01v3.5l5.576-5.5L13 6.502V10s-.384-.004-.89.052c-3.417.378-6.126 2.864-6.893 6.08 2.12-1.728 4.55-2.066 6.783-2.122z"/></svg>