<svg version="1.1" xmlns="http://www.w3.org/2000/svg" xmlns:xlink="http://www.w3.org/1999/xlink" id="arrow-maximise-outline" viewBox="0 0 24 24"><path d="M19 3h-5.243c-1.302 0-2.4.838-2.815 2H4v7.06l.012.12C2.845 12.59 2 13.694 2 15v7h7c1.31 0 2.593-.826 3-2h7v-7.06l-.012-.12C20.155 12.41 21 11.306 21 10V3h-2zm-2 15h-5c-.553 0-1-.448-1-1s.447-1 1-1h3v-3.06c0-.553.447-1 1-1s1 .447 1 1V18zM6 7h5.06c.554 0 1 .448 1 1s-.446 1-1 1H8v3.06c0 .553-.448 1-1 1-.553 0-1-.447-1-1V7zm13 3c0 .552-.447 1-1 1s-1-.448-1-1V8.414l-3.293 3.293c-.195.195-.45.293-.707.293s-.512-.098-.707-.293c-.39-.39-.39-1.023 0-1.414L15.586 7H14c-.553 0-1-.448-1-1s.447-1 1-1h5v5zM9 20H4v-5c0-.552.447-1 1-1s1 .448 1 1v1.586l3.293-3.293c.195-.195.45-.293.707-.293s.512.098.707.293c.39.39.39 1.023 0 1.414L7.414 18H9c.553 0 1 .448 1 1s-.448 1-1 1zm2.414-7.414C11.036 12.208 10.534 12 10 12c-.367 0-.716.105-1.023.29L9 12.06V10h2.06l.23-.023c-.186.307-.29.656-.29 1.023 0 .534.208 1.036.586 1.414S12.466 13 13 13c.367 0 .716-.105 1.023-.29l-.023.23V15h-1.94c-.12 0-.24.015-.355.036.19-.31.295-.664.295-1.036 0-.534-.208-1.036-.586-1.414z"/></svg>