<svg version="1.1" xmlns="http://www.w3.org/2000/svg" xmlns:xlink="http://www.w3.org/1999/xlink" id="arrow-repeat" viewBox="0 0 24 24"><path d="M16.5 7h-2.086l1.293-1.293c.39-.39.39-1.023 0-1.414s-1.023-.39-1.414 0L10.586 8l3.707 3.707c.195.195.45.293.707.293s.512-.098.707-.293c.39-.39.39-1.023 0-1.414L14.414 9H16.5c1.38 0 2.5 1.346 2.5 3s-1.346 3-3 3c-.553 0-1 .448-1 1s.447 1 1 1c2.757 0 5-2.243 5-5s-2.02-5-4.5-5zm-8.207 5.293c-.39.39-.39 1.023 0 1.414L9.586 15H7.5C6.12 15 5 13.654 5 12s1.346-3 3-3c.553 0 1-.448 1-1s-.447-1-1-1c-2.757 0-5 2.243-5 5s2.02 5 4.5 5h2.086l-1.293 1.293c-.39.39-.39 1.023 0 1.414.195.195.45.293.707.293s.512-.098.707-.293L13.414 16l-3.707-3.707c-.39-.39-1.023-.39-1.414 0z"/></svg>