<svg version="1.1" xmlns="http://www.w3.org/2000/svg" xmlns:xlink="http://www.w3.org/1999/xlink" id="arrow-minimise-outline" viewBox="0 0 24 24"><path d="M22 6c0-.8-.312-1.555-.88-2.12C20.556 3.31 19.8 3 19 3s-1.555.312-2.12.88l-.884.882C15.466 4.288 14.766 4 14 4c-.92 0-1.732.424-2.283 1.077-.212-.047-.43-.077-.656-.077H5v6.06c0 .255.042.5.102.736-.598.55-.98 1.33-.98 2.204 0 .735.266 1.41.705 1.93l-.947.95C3.312 17.444 3 18.2 3 19s.312 1.555.88 2.12C4.444 21.69 5.2 22 6 22c.54 0 1.334-.152 2.06-.88l.904-.918C9.5 20.697 10.214 21 11 21c.934 0 1.758-.437 2.31-1.107.24.063.49.107.75.107H20v-6.06c0-.227-.03-.445-.077-.657C20.576 12.733 21 11.92 21 11c0-.766-.288-1.465-.762-1.996l.883-.883C21.69 7.556 22 6.8 22 6zM7 7h4c.553 0 1 .448 1 1s-.447 1-1 1H9v2c0 .552-.448 1-1 1-.553 0-1-.448-1-1V7zm12.707-.293L16.414 10H18c.553 0 1 .448 1 1s-.448 1-1 1h-5V7c0-.552.447-1 1-1s1 .448 1 1v1.586l3.293-3.293c.195-.195.45-.293.707-.293s.512.098.707.293c.39.39.39 1.023 0 1.414zM12 18c0 .552-.447 1-1 1s-1-.448-1-1v-1.707l-3.354 3.414C6.45 19.902 6.256 20 6 20s-.512-.098-.707-.293c-.39-.39-.39-1.023 0-1.414L8.586 15H7.12c-.552 0-1-.448-1-1s.448-1 1-1H12v5zm0-6H9.722c.173-.295.278-.634.278-1v-1h1.06c.343 0 .66-.094.94-.245V12zm1 1h2.713c-.433.094-.713.33-.713.94V15h-.94c-.39 0-.75.117-1.06.31V13zm.06 4c0-.552.448-1 1-1H16v-2c0-.552.447-1 1-1s1 .448 1 1v4h-3.94c-.552 0-1-.448-1-1z"/></svg>