<svg version="1.1" xmlns="http://www.w3.org/2000/svg" xmlns:xlink="http://www.w3.org/1999/xlink" id="arrow-up-outline" viewBox="0 0 24 24"><path d="M12 21c-1.654 0-3-1.346-3-3v-4.764c-1.143 1.024-3.025.98-4.12-.115-1.17-1.168-1.17-3.072 0-4.24L12 1.757l7.12 7.12c1.17 1.17 1.17 3.074 0 4.243-1.093 1.096-2.978 1.14-4.12.116V18c0 1.654-1.346 3-3 3zM11 8.414V18c0 .55.448 1 1 1s1-.45 1-1V8.414l3.293 3.293c.38.378 1.035.378 1.414 0 .39-.39.39-1.023 0-1.414L12 4.586l-5.707 5.707c-.39.39-.39 1.023 0 1.414.38.378 1.035.378 1.414 0L11 8.414z"/></svg>