<svg version="1.1" xmlns="http://www.w3.org/2000/svg" xmlns:xlink="http://www.w3.org/1999/xlink" id="arrow-right-outline" viewBox="0 0 24 24"><path d="M12 21c-.8 0-1.555-.312-2.12-.88S9 18.8 9 18c0-.746.27-.998.764-1.998H4.928c-1.654 0-3-1.347-3-3 0-1.654 1.346-3 3-3h4.836C9.27 9 9 8.745 9 8c0-.803.312-1.555.88-2.122 1.132-1.132 3.108-1.133 4.24 0L21.243 13l-7.12 7.12c-.567.568-1.32.88-2.122.88zm-7.072-9c-.552 0-1 .45-1 1s.448 1 1 1h9.658l-3.293 3.293c-.19.19-.293.44-.293.706 0 .268.104.518.293.707.38.378 1.035.378 1.414 0L18.414 13l-5.707-5.707c-.38-.378-1.035-.378-1.414 0-.19.19-.293.44-.293.706 0 .267.104.518.293.707L14.586 12H4.928z"/></svg>