<svg version="1.1" xmlns="http://www.w3.org/2000/svg" xmlns:xlink="http://www.w3.org/1999/xlink" id="arrow-loop-outline" viewBox="0 0 24 24"><path d="M18.994 7.187L19 7c0-.8-.312-1.555-.88-2.12C17.556 4.31 16.8 4 16 4s-1.555.312-2.12.88L10.995 7.76C10.466 7.288 9.766 7 9 7H8c-3.86 0-7 3.14-7 7s3.14 7 7 7h9c3.86 0 7-3.14 7-7 0-3.306-2.14-6.084-5.006-6.813zM17 19H8c-2.757 0-5-2.243-5-5s2.243-5 5-5h1c.553 0 1 .448 1 1s-.447 1-1 1H8c-1.654 0-3 1.346-3 3s1.346 3 3 3h9c1.654 0 3-1.346 3-3s-1.12-3-2.5-3h-2.086l1.293 1.293c.39.39.39 1.023 0 1.414-.195.195-.45.293-.707.293s-.512-.098-.707-.293L11.586 10l3.707-3.707c.195-.195.45-.293.707-.293s.512.098.707.293c.39.39.39 1.023 0 1.414L15.414 9H17.5c2.48 0 4.5 2.243 4.5 5s-2.243 5-5 5zm.75-6.97c.7.163 1.25 1 1.25 1.97 0 1.103-.897 2-2 2H8c-1.103 0-2-.897-2-2s.897-2 2-2h1c.856 0 1.588-.54 1.873-1.3l3.713 3.714c.378.378.88.586 1.414.586s1.036-.208 1.414-.586S18 13.534 18 13c0-.345-.087-.677-.25-.97z"/></svg>