<svg version="1.1" xmlns="http://www.w3.org/2000/svg" xmlns:xlink="http://www.w3.org/1999/xlink" id="arrow-move-outline" viewBox="0 0 24 24"><path d="M22.828 10.586l-9.414-9.414c-.39-.39-.902-.586-1.414-.586s-1.023.195-1.414.586l-9.414 9.414c-.78.78-.78 2.047 0 2.828l9.414 9.414c.39.39.902.586 1.414.586s1.023-.195 1.414-.586l9.414-9.414c.78-.78.78-2.05 0-2.828zM17 16c-.256 0-.512-.098-.707-.293-.39-.39-.39-1.023 0-1.414L17.586 13H13v4.586l1.293-1.293c.195-.195.45-.293.707-.293s.512.098.707.293c.39.39.39 1.023 0 1.414L12 21.414l-3.707-3.707c-.39-.39-.39-1.023 0-1.414.195-.195.45-.293.707-.293s.512.098.707.293L11 17.586V13H6.414l1.293 1.293c.39.39.39 1.023 0 1.414-.195.195-.45.293-.707.293s-.512-.098-.707-.293L2.586 12l3.707-3.707C6.488 8.098 6.743 8 7 8s.512.098.707.293c.39.39.39 1.023 0 1.414L6.414 11H11V6.414L9.707 7.707C9.512 7.902 9.257 8 9 8s-.512-.098-.707-.293c-.39-.39-.39-1.023 0-1.414L12 2.586l3.707 3.707c.39.39.39 1.023 0 1.414-.195.195-.45.293-.707.293s-.512-.098-.707-.293L13 6.414V11h4.586l-1.293-1.293c-.39-.39-.39-1.023 0-1.414.195-.195.45-.293.707-.293s.512.098.707.293L21.414 12l-3.707 3.707c-.195.195-.45.293-.707.293zm-1.732-2c-.175.3-.268.643-.268 1-.357 0-.7.093-1 .268V14h1.268zm-6.536 0H10v1.268C9.7 15.093 9.357 15 9 15c0-.357-.093-.7-.268-1zm0-4C8.907 9.7 9 9.357 9 9c.357 0 .7-.093 1-.268V10H8.732zm6.536 0H14V8.732c.3.175.643.268 1 .268 0 .357.093.7.268 1z"/></svg>