<svg version="1.1" xmlns="http://www.w3.org/2000/svg" xmlns:xlink="http://www.w3.org/1999/xlink" id="at" viewBox="0 0 24 24"><path d="M12 4c-4.41 0-8 3.59-8 8s3.59 8 8 8c1.616 0 3.172-.48 4.5-1.384.455-.312.573-.934.262-1.39-.31-.457-.932-.572-1.39-.263C14.378 17.643 13.212 18 12 18c-3.31 0-6-2.69-6-6s2.69-6 6-6 6 2.69 6 6v.5c0 .552-.448 1-1 1s-1-.448-1-1v-3c0-.553-.447-1-1-1-.44 0-.805.29-.938.688-.58-.427-1.29-.688-2.062-.688-1.93 0-3.5 1.57-3.5 3.5s1.57 3.5 3.5 3.5c1.045 0 1.975-.47 2.616-1.2.548.724 1.408 1.2 2.384 1.2 1.654 0 3-1.346 3-3V12c0-4.41-3.59-8-8-8zm0 9.5c-.827 0-1.5-.673-1.5-1.5s.673-1.5 1.5-1.5 1.5.673 1.5 1.5-.673 1.5-1.5 1.5z"/></svg>