<svg version="1.1" xmlns="http://www.w3.org/2000/svg" xmlns:xlink="http://www.w3.org/1999/xlink" id="attachment-outline" viewBox="0 0 24 24"><path d="M15.534 4.466c1.024 0 2.05.39 2.83 1.17 1.56 1.56 1.56 4.097 0 5.655l-7.072 7.073c-.778.78-1.804 1.17-2.828 1.17s-2.05-.39-2.828-1.17c-1.56-1.56-1.56-4.098 0-5.656l.807-.807c-.004.805.25 1.524.7 2.125l-.093.096c-.78.78-.78 2.05 0 2.83.39.39.9.583 1.414.583s1.024-.195 1.414-.584l2.535-2.536 4.537-4.537c.778-.78.778-2.05 0-2.828-.392-.39-.904-.585-1.417-.585-.512 0-1.023.195-1.413.584l-4.535 4.536c-.128.127-.146.275-.146.354 0 .076.018.226.145.353.1.1.228.147.356.147.128 0 .255-.05.353-.146l2.122-2.12 1.414-1.415c.39.39.585.9.585 1.413 0 .51-.194 1.02-.584 1.41l-2.123 2.125c-.486.487-1.127.73-1.768.73s-1.28-.245-1.77-.73c-.472-.474-.73-1.1-.73-1.77 0-.67.26-1.296.73-1.77l4.535-4.534c.78-.78 1.805-1.168 2.83-1.168m0-2c-1.605 0-3.11.623-4.243 1.755l-7.07 7.074c-1.132 1.13-1.756 2.638-1.756 4.242s.624 3.11 1.757 4.243c1.13 1.13 2.64 1.754 4.24 1.754s3.11-.624 4.243-1.757l7.07-7.07c1.134-1.132 1.758-2.64 1.758-4.243 0-1.603-.623-3.11-1.755-4.24-1.134-1.135-2.64-1.758-4.246-1.758z"/></svg>