<svg version="1.1" xmlns="http://www.w3.org/2000/svg" xmlns:xlink="http://www.w3.org/1999/xlink" id="attachment" viewBox="0 0 24 24"><path d="M18.364 6.635c-1.56-1.56-4.1-1.56-5.658 0L8.172 11.17c-.473.473-.733 1.1-.733 1.77 0 .668.26 1.295.73 1.768.488.486 1.13.73 1.77.73.64 0 1.28-.242 1.767-.73l2.122-2.12c.39-.396.585-.905.585-1.415 0-.512-.195-1.023-.586-1.414l-3.537 3.534c-.193.195-.51.195-.708-.002-.127-.127-.146-.275-.146-.352 0-.078.018-.227.145-.354L14.12 8.05c.778-.78 2.048-.78 2.83 0 .78.778.78 2.048 0 2.827l-4.537 4.537-2.535 2.535c-.78.778-2.05.778-2.828 0-.78-.78-.78-2.05 0-2.83l.095-.095c-.45-.6-.702-1.36-.702-2.125l-.807.807c-1.56 1.56-1.56 4.098 0 5.656.78.78 1.804 1.17 2.828 1.17s2.05-.39 2.828-1.17l7.072-7.072c1.56-1.558 1.56-4.095 0-5.655z"/></svg>