<svg version="1.1" xmlns="http://www.w3.org/2000/svg" xmlns:xlink="http://www.w3.org/1999/xlink" id="backspace" viewBox="0 0 24 24"><path d="M19.5 5h-10c-1.266 0-2.834.807-3.57 1.837L3.32 10.49l-1.2 1.68c-.12.174-.12.49.004.663l1.188 1.664 2.62 3.667C6.665 19.194 8.23 20 9.5 20h10c1.38 0 2.5-1.122 2.5-2.5v-10C22 6.122 20.88 5 19.5 5zm-2.293 9.793c.39.39.39 1.023 0 1.414-.195.195-.45.293-.707.293s-.512-.098-.707-.293L13.5 13.914l-2.293 2.293c-.195.195-.45.293-.707.293s-.512-.098-.707-.293c-.39-.39-.39-1.023 0-1.414l2.293-2.293-2.293-2.293c-.39-.39-.39-1.023 0-1.414s1.023-.39 1.414 0l2.293 2.293 2.293-2.293c.39-.39 1.023-.39 1.414 0s.39 1.023 0 1.414L14.914 12.5l2.293 2.293z"/></svg>