<svg version="1.1" xmlns="http://www.w3.org/2000/svg" xmlns:xlink="http://www.w3.org/1999/xlink" id="backspace-outline" viewBox="0 0 24 24"><path d="M19 21H9c-1.436 0-3.145-.88-3.977-2.046l-2.62-3.667-1.187-1.66c-.246-.345-.25-.895-.008-1.242L2.412 10.7 5.02 7.045C5.855 5.88 7.566 5 9 5h10c1.654 0 3 1.346 3 3v10c0 1.654-1.346 3-3 3zM3.23 13l.805 1.124 2.618 3.667C7.103 18.425 8.223 19 9 19h10c.553 0 1-.45 1-1V8c0-.55-.447-1-1-1H9c-.775 0-1.896.576-2.35 1.21l-2.608 3.65L3.23 13zm10.477 0l2.646-2.646c.194-.194.194-.512 0-.707-.195-.194-.513-.194-.707 0L13 12.293l-2.646-2.646c-.195-.194-.513-.194-.707 0-.195.195-.195.513 0 .707L12.293 13l-2.646 2.646c-.195.195-.195.513 0 .707.097.098.225.147.353.147s.256-.05.354-.146L13 13.707l2.646 2.646c.098.098.226.147.354.147s.256-.05.354-.146c.194-.194.194-.512 0-.707L13.707 13z"/></svg>