<svg version="1.1" xmlns="http://www.w3.org/2000/svg" xmlns:xlink="http://www.w3.org/1999/xlink" id="beaker" viewBox="0 0 24 24"><path d="M19.445 16.81L16.805 7H18c.552 0 1-.448 1-1s-.448-1-1-1H6c-.552 0-1 .448-1 1s.448 1 1 1h1.135c-.013.176-.048.402-.12.67l-2.46 9.14c-.218.808-.074 1.622.393 2.23.466.61 1.214.96 2.052.96h10c.838 0 1.586-.35 2.055-.96.466-.608.61-1.422.39-2.23zM14.732 7l1.352 5.018L16 12H8l-.084.018 1.03-3.826c.083-.312.172-.744.19-1.192h5.596zm2.734 10.824c-.087.114-.252.176-.466.176H7c-.214 0-.38-.062-.466-.176-.086-.113-.104-.29-.048-.496l1.197-4.45c.088.073.195.122.317.122h8c.122 0 .23-.05.316-.12l1.197 4.45c.057.205.04.38-.047.494z"/></svg>