<svg version="1.1" xmlns="http://www.w3.org/2000/svg" xmlns:xlink="http://www.w3.org/1999/xlink" id="beer" viewBox="0 0 24 24"><path d="M10 16.5c0 .275-.225.5-.5.5s-.5-.225-.5-.5v-6c0-.275.225-.5.5-.5s.5.225.5.5v6zm2 0c0 .275-.225.5-.5.5s-.5-.225-.5-.5v-6c0-.275.225-.5.5-.5s.5.225.5.5v6zm2 0c0 .275-.225.5-.5.5s-.5-.225-.5-.5v-6c0-.275.225-.5.5-.5s.5.225.5.5v6zM18.5 6H18V5c0-1.104-.896-2-2-2H7c-1.104 0-2 .896-2 2v13c0 1.656 1.344 3 3 3h7c1.656 0 3-1.344 3-3h.5c1.93 0 3.5-1.57 3.5-3.5v-5C22 7.57 20.43 6 18.5 6zM7 5h9v1h-4.444l-.118.332c-.164.458-.663.73-1.117.648l-.347-.058-.173.307c-.267.474-.765.77-1.3.77C7.673 8 7 7.327 7 6.5V5zm9 13c0 .552-.448 1-1 1H8c-.552 0-1-.448-1-1V8.49c.42.317.936.51 1.5.51.784 0 1.52-.376 1.99-1 .727 0 1.382-.39 1.735-1H16v11zm4-3.5c0 .827-.673 1.5-1.5 1.5H17V8h1.5c.827 0 1.5.673 1.5 1.5v5z"/></svg>