<svg version="1.1" xmlns="http://www.w3.org/2000/svg" xmlns:xlink="http://www.w3.org/1999/xlink" id="bell" viewBox="0 0 24 24"><path d="M19.715 17.3c-.017-.017-1.717-1.853-1.73-6.32-.01-2.606-1.69-4.823-4.02-5.64L14 5c0-1.103-.896-2-2-2s-2 .897-2 2l.034.338c-2.336.816-4.02 3.036-4.02 5.646 0 4.462-1.71 6.296-1.72 6.306-.287.286-.374.716-.22 1.09s.52.62.926.62h3.143c.447 1.72 2 3 3.857 3s3.41-1.28 3.857-3H19c.4 0 .758-.243.915-.61s.076-.8-.2-1.09zM12 7c2.19 0 3.978 1.79 3.984 3.987.002.728.046 1.396.118 2.013h-8.2c.07-.617.113-1.286.113-2.016C8.015 8.788 9.803 7 12 7zm0 13c-.737 0-1.375-.405-1.722-1h3.443c-.345.595-.983 1-1.72 1zm-5.186-3c.352-.736.705-1.73.938-3h8.502c.234 1.27.588 2.264.938 3H6.814z"/></svg>