<svg version="1.1" xmlns="http://www.w3.org/2000/svg" xmlns:xlink="http://www.w3.org/1999/xlink" id="bookmark" viewBox="0 0 24 24"><path d="M17 2H9C7.346 2 6 3.346 6 5v14c0 .514.104.946.308 1.285.564.935 1.815 1.008 2.813.008l3.173-3.172c.375-.373 1.04-.373 1.414 0l3.172 3.173c.49.49 1 .74 1.52.74.796 0 1.6-.63 1.6-2.033V5c0-1.654-1.346-3-3-3zM9 4h8c.55 0 1 .45 1 1v9.905l-2.45-2.247c-1.407-1.29-3.694-1.288-5.1 0L8 14.905V5c0-.55.45-1 1-1zm6.12 11.707c-.564-.565-1.317-.876-2.12-.876s-1.556.313-2.12.877L8 18.587V16.26l3.126-2.866c1.033-.947 2.714-.947 3.747 0L18 16.262v2.324l-2.88-2.88z"/></svg>