<svg version="1.1" xmlns="http://www.w3.org/2000/svg" xmlns:xlink="http://www.w3.org/1999/xlink" id="brush" viewBox="0 0 24 24"><path d="M20.177 3.823c-.382-.383-.894-.586-1.415-.586-.25 0-.503.047-.744.144C13.568 5.17 10.226 8.14 7.5 12.74c-.1.172-.162.355-.208.542-1.38.215-2.6.903-3.442 1.993-.916 1.185-1.295 2.695-1.066 4.254L3 21l1.473.217c.293.043.59.064.88.064 2.743 0 4.95-1.908 5.367-4.563.188-.047.37-.115.544-.218 4.598-2.73 7.57-6.07 9.355-10.518.297-.743.122-1.593-.443-2.16zM5.353 19.28c-.192 0-.39-.015-.59-.043-.31-2.104 1.055-3.81 3-4.02l1.02 1.02c-.19 1.76-1.604 3.044-3.43 3.044zm4.89-4.5l-1.02-1.022c.38-.64.773-1.233 1.177-1.804.027.04 1.64 1.653 1.64 1.653-.57.4-1.16.794-1.797 1.172zm2.608-1.774s-1.82-1.8-1.878-1.824c2.147-2.784 4.65-4.685 7.79-5.943-1.254 3.126-3.143 5.622-5.91 7.766z"/></svg>