<svg version="1.1" xmlns="http://www.w3.org/2000/svg" xmlns:xlink="http://www.w3.org/1999/xlink" id="business-card" viewBox="0 0 24 24"><path d="M20 20H4c-1.654 0-3-1.346-3-3V7c0-1.654 1.346-3 3-3h16c1.654 0 3 1.346 3 3v10c0 1.654-1.346 3-3 3zM4 6c-.55 0-1 .45-1 1v10c0 .55.45 1 1 1h16c.55 0 1-.45 1-1V7c0-.55-.45-1-1-1H4zm6 9H6c-.553 0-1-.448-1-1s.447-1 1-1h4c.553 0 1 .448 1 1s-.447 1-1 1zm0-4H6c-.553 0-1-.448-1-1s.447-1 1-1h4c.553 0 1 .448 1 1s-.447 1-1 1z"/><circle cx="16" cy="10.5" r="2"/><path d="M16 13.356c-1.562 0-2.5.715-2.5 1.43 0 .356.938.714 2.5.714 1.466 0 2.5-.357 2.5-.715 0-.714-.98-1.43-2.5-1.43z"/></svg>