<svg version="1.1" xmlns="http://www.w3.org/2000/svg" xmlns:xlink="http://www.w3.org/1999/xlink" id="calendar" viewBox="0 0 24 24"><path d="M19 6.184V6c0-1.657-1.343-3-3-3s-3 1.343-3 3h-2c0-1.657-1.343-3-3-3S5 4.343 5 6v.184C3.84 6.6 3 7.698 3 9v9c0 1.654 1.346 3 3 3h12c1.654 0 3-1.346 3-3V9c0-1.302-.84-2.4-2-2.816zM15 6c0-.552.447-1 1-1s1 .448 1 1v2c0 .552-.447 1-1 1s-1-.448-1-1V6zM7 6c0-.552.447-1 1-1s1 .448 1 1v2c0 .552-.447 1-1 1s-1-.448-1-1V6zm12 12c0 .55-.448 1-1 1H6c-.552 0-1-.45-1-1v-6h14v6z"/></svg>