<svg version="1.1" xmlns="http://www.w3.org/2000/svg" xmlns:xlink="http://www.w3.org/1999/xlink" id="camera-outline" viewBox="0 0 24 24"><path d="M19 20H5c-1.654 0-3-1.346-3-3V9c0-1.654 1.346-3 3-3h1.586l1-1c.58-.58 1.596-1 2.414-1h4c.818 0 1.835.42 2.414 1l1 1H19c1.654 0 3 1.346 3 3v8c0 1.654-1.346 3-3 3zM5 8c-.552 0-1 .448-1 1v8c0 .552.448 1 1 1h14c.552 0 1-.448 1-1V9c0-.552-.448-1-1-1h-2c-.266 0-.52-.105-.707-.293L15 6.414c-.2-.2-.715-.414-1-.414h-4c-.285 0-.8.213-1 .414L7.707 7.707C7.52 7.895 7.267 8 7 8H5zm7 2c1.38 0 2.5 1.12 2.5 2.5S13.38 15 12 15s-2.5-1.12-2.5-2.5S10.62 10 12 10m0-1c-1.934 0-3.5 1.566-3.5 3.5 0 1.932 1.566 3.5 3.5 3.5s3.5-1.568 3.5-3.5c0-1.934-1.566-3.5-3.5-3.5zm6-.3c-.72 0-1.3.58-1.3 1.3s.58 1.3 1.3 1.3 1.3-.58 1.3-1.3-.58-1.3-1.3-1.3z"/></svg>