<svg version="1.1" xmlns="http://www.w3.org/2000/svg" xmlns:xlink="http://www.w3.org/1999/xlink" id="cancel-outline" viewBox="0 0 24 24"><path d="M12 20.5c-4.688 0-8.5-3.812-8.5-8.5s3.812-8.5 8.497-8.5c4.69 0 8.503 3.812 8.503 8.5s-3.812 8.5-8.5 8.5zm0-15c-3.586 0-6.5 2.916-6.5 6.5s2.916 6.5 6.5 6.5 6.5-2.916 6.5-6.5-2.916-6.5-6.5-6.5zm.003 3c1.93 0 3.497 1.57 3.497 3.5 0 .206-.02.412-.057.615l-4.057-4.06c.203-.035.408-.055.614-.055m.003-1c-.882 0-1.696.262-2.39.697l6.188 6.188c.44-.692.7-1.508.7-2.387 0-2.48-2.014-4.498-4.497-4.498zm-3.446 3.884l4.06 4.06c-.205.036-.41.056-.617.056-1.93 0-3.5-1.57-3.5-3.502 0-.206.02-.412.057-.614M8.2 9.61c-.436.695-.7 1.51-.7 2.388 0 2.486 2.016 4.502 4.5 4.502.88 0 1.693-.264 2.387-.7L8.2 9.61z"/></svg>