<svg version="1.1" xmlns="http://www.w3.org/2000/svg" xmlns:xlink="http://www.w3.org/1999/xlink" id="chart-pie-outline" viewBox="0 0 24 24"><path d="M18.227 7.61l.557-.56c.396-.396.607-.943.582-1.504-.026-.56-.286-1.084-.717-1.443-2.13-1.775-4.712-2.848-7.47-3.097L11 1c-.497 0-.98.186-1.35.523C9.236 1.903 9 2.438 9 3v2.23c-3.657.864-6.333 4.187-6.333 8.005 0 4.547 3.688 8.244 8.224 8.244 1.595 0 3.11-.48 4.442-1.346.277.142.583.226.9.226l.11-.004c.568-.03 1.097-.305 1.452-.75 1.42-1.78 2.204-4.02 2.204-6.297.002-2.033-.625-4.028-1.77-5.7zM10.89 19.48c-3.437 0-6.223-2.794-6.223-6.245 0-3.137 2.317-5.73 5.333-6.164v6.41l4.61 4.753c-1.038.78-2.323 1.246-3.72 1.246zm.11-7.455V3c2.41.218 4.607 1.173 6.366 2.64L11 12.026zm.214 1.27l5.02-5.03C17.336 9.652 18 11.408 18 13.31c0 1.913-.664 3.665-1.77 5.05l-5.018-5.066z"/></svg>