<svg version="1.1" xmlns="http://www.w3.org/2000/svg" xmlns:xlink="http://www.w3.org/1999/xlink" id="chart-area-outline" viewBox="0 0 24 24"><path d="M20 17H4c-.552 0-1-.447-1-1v-3c0-.68.234-1.346.658-1.874l4-5c.98-1.226 2.885-1.47 4.143-.524l1.675 1.254 2.185-2.73C16.23 3.41 17.084 3 18 3c.68 0 1.344.232 1.874.657C20.59 4.23 21 5.083 21 6v10c0 .553-.448 1-1 1zM5 15h14V6c0-.307-.137-.59-.375-.78C18.398 5.04 18.16 5 18 5c-.305 0-.59.137-.78.376L14.43 8.86c-.337.424-.95.5-1.38.177L10.6 7.2c-.422-.316-1.055-.233-1.38.176l-4 5c-.182.228-.22.464-.22.624v2zm15 6H4c-.552 0-1-.447-1-1s.448-1 1-1h16c.552 0 1 .447 1 1s-.448 1-1 1z"/></svg>