<svg version="1.1" xmlns="http://www.w3.org/2000/svg" xmlns:xlink="http://www.w3.org/1999/xlink" id="chart-line-outline" viewBox="0 0 24 24"><path d="M6 17c-.678 0-1.343-.234-1.874-.658-.626-.5-1.02-1.215-1.107-2.01-.09-.797.137-1.58.638-2.207l4-5c.978-1.225 2.883-1.47 4.143-.523l1.675 1.254 2.184-2.73C16.23 4.412 17.083 4 18 4c.68 0 1.344.232 1.874.657.626.5 1.02 1.216 1.108 2.013s-.14 1.58-.64 2.204l-4 5c-.978 1.226-2.883 1.47-4.144.526l-1.674-1.256-2.184 2.73C7.77 16.588 6.916 17 6 17zm4-9c-.306 0-.59.137-.78.374l-4 5c-.168.21-.244.472-.214.735.03.265.16.503.37.67.227.182.464.22.623.22.305 0 .59-.137.78-.376l3.396-4.244L13.4 12.8c.42.316 1.056.23 1.38-.176l4-5c.168-.21.243-.47.214-.735-.03-.267-.16-.505-.37-.67-.226-.183-.463-.22-.623-.22-.305 0-.59.136-.78.375l-3.396 4.242L10.6 8.2c-.175-.132-.382-.2-.6-.2zm9 13H5c-.552 0-1-.447-1-1s.448-1 1-1h14c.552 0 1 .447 1 1s-.448 1-1 1z"/></svg>