<svg version="1.1" xmlns="http://www.w3.org/2000/svg" xmlns:xlink="http://www.w3.org/1999/xlink" id="chevron-left-outline" viewBox="0 0 24 24"><path d="M13 20c-.802 0-1.555-.312-2.122-.88L3.758 12l7.12-7.12c1.134-1.134 3.11-1.134 4.244 0C15.688 5.444 16 6.2 16 7s-.312 1.555-.88 2.122L12.244 12l2.878 2.88c.568.565.88 1.32.88 2.12s-.312 1.555-.88 2.122c-.565.566-1.318.878-2.12.878zm-6.415-8l5.708 5.707c.378.378 1.037.377 1.414 0 .19-.19.293-.44.293-.707s-.104-.518-.293-.707L9.415 12l4.292-4.293c.19-.19.293-.44.293-.707s-.104-.518-.293-.707c-.378-.38-1.037-.378-1.414 0L6.585 12z"/></svg>