<svg version="1.1" xmlns="http://www.w3.org/2000/svg" xmlns:xlink="http://www.w3.org/1999/xlink" id="chevron-right-outline" viewBox="0 0 24 24"><path d="M10 20c-.802 0-1.555-.312-2.122-.88C7.312 18.556 7 17.8 7 17s.312-1.555.88-2.122L10.756 12 7.88 9.12C7.31 8.556 7 7.8 7 7s.312-1.555.88-2.122c1.132-1.132 3.108-1.133 4.242 0L19.242 12l-7.12 7.12c-.567.568-1.32.88-2.122.88zm0-14c-.268 0-.518.104-.707.292-.19.19-.293.44-.293.708s.104.518.293.707L13.585 12l-4.292 4.293c-.19.19-.293.44-.293.707s.104.518.293.707c.378.38 1.037.378 1.414 0L16.415 12l-5.708-5.707C10.517 6.103 10.267 6 10 6z"/></svg>