<svg version="1.1" xmlns="http://www.w3.org/2000/svg" xmlns:xlink="http://www.w3.org/1999/xlink" id="clipboard" viewBox="0 0 24 24"><path d="M17 3H7C5.346 3 4 4.346 4 6v12c0 1.654 1.346 3 3 3h10c1.654 0 3-1.346 3-3V6c0-1.654-1.346-3-3-3zM9 5h6v1c0 .55-.45 1-1 1h-4c-.55 0-1-.45-1-1V5zm9 13c0 .55-.45 1-1 1H7c-.55 0-1-.45-1-1V6c0-.55.45-1 1-1h1v1c0 1.1.9 2 2 2h4c1.1 0 2-.9 2-2V5h1c.55 0 1 .45 1 1v12zm-2-1H8c-.276 0-.5-.224-.5-.5s.224-.5.5-.5h8c.276 0 .5.224.5.5s-.224.5-.5.5zm0-3H8c-.276 0-.5-.224-.5-.5s.224-.5.5-.5h8c.276 0 .5.224.5.5s-.224.5-.5.5zm0-3H8c-.276 0-.5-.224-.5-.5s.224-.5.5-.5h8c.276 0 .5.224.5.5s-.224.5-.5.5z"/></svg>