<svg version="1.1" xmlns="http://www.w3.org/2000/svg" xmlns:xlink="http://www.w3.org/1999/xlink" id="cloud-storage" viewBox="0 0 24 24"><path d="M17 9l-.35.015C15.823 6.638 13.586 5 11 5c-3.31 0-6 2.69-6 6v.126C3.278 11.57 2 13.14 2 15c0 2.206 1.794 4 4 4h5v-4.586l-1.293 1.293c-.195.195-.45.293-.707.293s-.512-.098-.707-.293c-.39-.39-.39-1.023 0-1.414l3-3c.092-.092.202-.165.325-.216.244-.1.52-.1.764 0 .123.05.233.124.326.217l3 3c.39.39.39 1.022 0 1.413-.196.195-.452.293-.708.293s-.512-.098-.707-.293L13 14.414V19h4c2.757 0 5-2.243 5-5s-2.243-5-5-5z"/></svg>