<svg version="1.1" xmlns="http://www.w3.org/2000/svg" xmlns:xlink="http://www.w3.org/1999/xlink" id="cloud-storage-outline" viewBox="0 0 24 24"><path d="M16.5 9l-.352.014C15.324 6.64 12.836 5 10.25 5 6.94 5 4 7.69 4 11v.125C3 11.57 1.25 13.14 1.25 15c0 2.206 2.044 4 4.25 4h11c2.757 0 5-2.244 5-5s-2.243-5-5-5zm0 8H12v-3.794l2.146 2.146c.098.1.226.146.354.146s.256-.05.354-.146c.195-.194.195-.512 0-.707l-2.998-3-.164-.107c-.123-.05-.26-.05-.383 0l-.163.107-3 3c-.194.195-.194.513 0 .707.1.1.227.146.354.146s.257-.05.355-.146L11 13.206V17H5.5c-1.104 0-2-.896-2-2s.896-2 1.908-2.005l1.422.015-.248-1.2c-.055-.265-.082-.537-.082-.81 0-2.206 1.794-4 4-4 1.95 0 3.604 1.402 3.93 3.334l.187 1.102 1.073-.306c.312-.09.57-.13.812-.13 1.653 0 3 1.346 3 3s-1.348 3-3.002 3z"/></svg>