<svg version="1.1" xmlns="http://www.w3.org/2000/svg" xmlns:xlink="http://www.w3.org/1999/xlink" id="code-outline" viewBox="0 0 24 24"><path d="M7.828 19c-.8 0-1.555-.312-2.12-.88L.585 13l5.12-5.12c1.134-1.135 3.113-1.135 4.244 0 1.17 1.168 1.17 3.072 0 4.24l-.88.88.88.88c1.17 1.168 1.17 3.072 0 4.24-.565.568-1.32.88-2.122.88zm-4.414-6l3.707 3.707c.38.38 1.04.377 1.414 0 .39-.39.39-1.024 0-1.414L6.245 13l2.29-2.293c.39-.39.39-1.024 0-1.414-.377-.38-1.035-.377-1.413 0L3.415 13zm12.758 6c-.803 0-1.557-.312-2.122-.88-1.17-1.168-1.17-3.072 0-4.24l.88-.88-.88-.88c-1.17-1.168-1.17-3.072 0-4.24 1.13-1.134 3.11-1.135 4.243 0l5.12 5.12-5.12 5.12c-.566.568-1.32.88-2.12.88zm0-10c-.268 0-.52.104-.706.292-.39.39-.39 1.025 0 1.415L17.755 13l-2.29 2.293c-.39.39-.39 1.024 0 1.414.376.378 1.034.38 1.413 0L20.585 13 16.88 9.293c-.19-.19-.442-.293-.71-.293z"/></svg>