<svg version="1.1" xmlns="http://www.w3.org/2000/svg" xmlns:xlink="http://www.w3.org/1999/xlink" id="code" viewBox="0 0 24 24"><path d="M8.17 18c-.51 0-1.022-.195-1.413-.586L2.343 13l4.414-4.414c.78-.78 2.05-.78 2.828 0 .78.78.78 2.047 0 2.828L8 13l1.585 1.586c.78.78.78 2.047 0 2.828-.39.39-.902.586-1.414.586zm7.66 0c-.513 0-1.025-.195-1.415-.586-.78-.78-.78-2.047 0-2.828L16 13l-1.585-1.586c-.78-.78-.78-2.047 0-2.828.78-.78 2.047-.78 2.828 0L21.657 13l-4.414 4.414c-.39.39-.902.586-1.414.586z"/></svg>