<svg version="1.1" xmlns="http://www.w3.org/2000/svg" xmlns:xlink="http://www.w3.org/1999/xlink" id="cog-outline" viewBox="0 0 24 24"><path d="M13 5l.855 3.42 3.39-.97 1.5 2.6-2.535 2.448 2.535 2.45-1.5 2.6-3.39-.97L13 20h-3l-.855-3.422-3.39.97-1.5-2.6 2.534-2.45-2.535-2.45 1.5-2.6 3.39.972L10 5h3m0-2h-3c-.918 0-1.718.625-1.94 1.516l-.353 1.412-1.4-.4c-.184-.053-.37-.078-.552-.078-.7 0-1.368.37-1.73 1l-1.5 2.6c-.46.796-.318 1.802.34 2.438l1.048 1.01-1.048 1.016c-.66.637-.802 1.643-.343 2.438l1.502 2.6c.363.63 1.03 1 1.73 1 .184 0 .37-.025.553-.076l1.4-.4.353 1.414C8.282 21.375 9.082 22 10 22h3c.918 0 1.718-.625 1.94-1.516l.353-1.414 1.4.4c.183.053.368.077.55.077.7 0 1.37-.37 1.732-1l1.5-2.6c.46-.796.317-1.8-.342-2.438l-1.047-1.014 1.047-1.013c.66-.637.8-1.644.342-2.438l-1.5-2.6c-.365-.63-1.03-1-1.732-1-.184 0-.368.025-.55.076l-1.4.402-.355-1.413C14.718 3.624 13.918 3 13 3zm-1.5 7.5c1.104 0 2 .895 2 2 0 1.104-.896 2-2 2s-2-.896-2-2c0-1.105.896-2 2-2m0-1c-1.654 0-3 1.346-3 3s1.346 3 3 3 3-1.346 3-3-1.346-3-3-3z"/></svg>