<svg version="1.1" xmlns="http://www.w3.org/2000/svg" xmlns:xlink="http://www.w3.org/1999/xlink" id="cog" viewBox="0 0 24 24"><path d="M9.387 17.548l.37 1.482c.134.533.693.97 1.243.97h1c.55 0 1.11-.437 1.242-.97l.37-1.482c.134-.533.676-.846 1.204-.694l1.467.42c.53.15 1.188-.114 1.462-.59l.5-.868c.274-.477.177-1.18-.22-1.562l-1.097-1.06c-.396-.384-.396-1.01 0-1.39l1.097-1.062c.396-.382.494-1.084.22-1.56l-.5-.868c-.276-.477-.934-.742-1.462-.59l-1.467.42c-.53.15-1.07-.162-1.204-.695l-.37-1.48C13.11 5.436 12.55 5 12 5h-1c-.55 0-1.11.437-1.242.97l-.37 1.48c-.134.533-.675.846-1.204.695l-1.467-.42c-.53-.152-1.188.114-1.462.59l-.5.867c-.274.477-.177 1.18.22 1.562l1.096 1.06c.396.382.396 1.007 0 1.39l-1.097 1.06c-.395.384-.494 1.086-.22 1.563l.502.867c.274.477.933.742 1.462.59l1.467-.42c.528-.152 1.07.16 1.203.694zM11.5 10.5c1.104 0 2 .895 2 2 0 1.104-.896 2-2 2s-2-.896-2-2c0-1.105.896-2 2-2z"/></svg>