<svg version="1.1" xmlns="http://www.w3.org/2000/svg" xmlns:xlink="http://www.w3.org/1999/xlink" id="compass" viewBox="0 0 24 24"><path d="M12 5c3.86 0 7 3.142 7 7 0 3.86-3.14 7-7 7s-7-3.14-7-7 3.14-7 7-7m0-2c-4.97 0-9 4.03-9 9s4.03 9 9 9 9-4.03 9-9-4.03-9-9-9zm4.182 4.82c-.13-.13-.315-.18-.49-.128L9.74 9.398c-.166.048-.295.177-.342.343L7.69 15.693c-.05.175 0 .363.128.49.095.096.223.147.354.147l.138-.02 5.95-1.71c.165-.046.295-.176.342-.342l1.707-5.95c.05-.172 0-.36-.128-.49zM8.9 15.1l1.383-4.816 3.434 3.435L8.9 15.1z"/></svg>