<svg version="1.1" xmlns="http://www.w3.org/2000/svg" xmlns:xlink="http://www.w3.org/1999/xlink" id="contacts" viewBox="0 0 24 24"><path d="M19 3H8C6.346 3 5 4.346 5 6v1H4c-.553 0-1 .448-1 1s.447 1 1 1h1v2H4c-.553 0-1 .448-1 1s.447 1 1 1h1v2H4c-.553 0-1 .448-1 1s.447 1 1 1h1v1c0 1.654 1.346 3 3 3h11c1.654 0 3-1.346 3-3V6c0-1.654-1.346-3-3-3zM7 6c0-.55.45-1 1-1v2H7V6zm0 3h1v2H7V9zm0 4h1v2H7v-2zm0 5v-1h1v2c-.55 0-1-.45-1-1zm13 0c0 .55-.45 1-1 1H9V5h10c.55 0 1 .45 1 1v12z"/><circle cx="14" cy="10.5" r="2"/><path d="M14 13.356c-1.562 0-2.5.715-2.5 1.43 0 .356.938.714 2.5.714 1.466 0 2.5-.357 2.5-.715 0-.714-.98-1.43-2.5-1.43z"/></svg>