<svg version="1.1" xmlns="http://www.w3.org/2000/svg" xmlns:xlink="http://www.w3.org/1999/xlink" id="database" viewBox="0 0 24 24"><path d="M18.983 8.79C18.807 5.088 15.747 2.126 12 2.126S5.193 5.087 5.017 8.79L5 8.876v6.25c0 3.86 3.14 7 7 7s7-3.14 7-7v-6.25l-.017-.084zM12 17.626c-2.22 0-4.132-1.324-5-3.222v-.388c1.27 1.3 3.042 2.11 5 2.11s3.73-.81 5-2.11v.388c-.868 1.898-2.78 3.222-5 3.222zm0-13.5c2.757 0 5 2.243 5 5s-2.243 5-5 5-5-2.243-5-5 2.243-5 5-5zm0 16c-2.27 0-4.172-1.532-4.778-3.61 1.188 1.294 2.888 2.11 4.778 2.11s3.59-.816 4.778-2.11c-.606 2.078-2.507 3.61-4.778 3.61z"/></svg>