<svg version="1.1" xmlns="http://www.w3.org/2000/svg" xmlns:xlink="http://www.w3.org/1999/xlink" id="delete-outline" viewBox="0 0 24 24"><path d="M12 3c-4.963 0-9 4.038-9 9s4.037 9 9 9 9-4.038 9-9-4.037-9-9-9zm0 16c-3.86 0-7-3.14-7-7s3.14-7 7-7 7 3.14 7 7-3.14 7-7 7zm.707-7l2.646-2.646c.194-.194.194-.512 0-.707-.195-.194-.513-.194-.707 0L12 11.293 9.354 8.646c-.195-.194-.513-.194-.707 0-.195.195-.195.513 0 .707L11.293 12l-2.646 2.646c-.195.195-.195.513 0 .707.097.098.225.147.353.147s.256-.05.354-.146L12 12.707l2.646 2.646c.098.098.226.147.354.147s.256-.05.354-.146c.194-.194.194-.512 0-.707L12.707 12z"/></svg>