<svg version="1.1" xmlns="http://www.w3.org/2000/svg" xmlns:xlink="http://www.w3.org/1999/xlink" id="delete" viewBox="0 0 24 24"><path d="M12 4c-4.42 0-8 3.582-8 8s3.58 8 8 8 8-3.582 8-8-3.58-8-8-8zm3.707 10.293c.39.39.39 1.023 0 1.414-.195.195-.45.293-.707.293s-.512-.098-.707-.293L12 13.414l-2.293 2.293c-.195.195-.45.293-.707.293s-.512-.098-.707-.293c-.39-.39-.39-1.023 0-1.414L10.586 12 8.293 9.707c-.39-.39-.39-1.023 0-1.414s1.023-.39 1.414 0L12 10.586l2.293-2.293c.39-.39 1.023-.39 1.414 0s.39 1.023 0 1.414L13.414 12l2.293 2.293z"/></svg>