<svg version="1.1" xmlns="http://www.w3.org/2000/svg" xmlns:xlink="http://www.w3.org/1999/xlink" id="device-laptop" viewBox="0 0 24 24"><path d="M21.99 16.05c.008-.316.01-.658.01-1.05V6c0-1.654-1.346-3-3-3H5C3.346 3 2 4.346 2 6v9c0 .385.002.73.012 1.05C.867 16.276 0 17.29 0 18.5 0 19.878 1.122 21 2.5 21h19c1.378 0 2.5-1.122 2.5-2.5 0-1.21-.866-2.222-2.01-2.45zM4 6c0-.55.45-1 1-1h14c.55 0 1 .45 1 1v9c0 .388-.005.726-.014 1H19V7c0-.55-.45-1-1-1H6c-.55 0-1 .45-1 1v9h-.98c-.012-.264-.02-.6-.02-1V6zm14 10H6V7h12v9zm3.5 3h-19c-.27 0-.5-.23-.5-.5s.23-.5.5-.5h19c.27 0 .5.23.5.5s-.23.5-.5.5z"/></svg>