<svg version="1.1" xmlns="http://www.w3.org/2000/svg" xmlns:xlink="http://www.w3.org/1999/xlink" id="directions" viewBox="0 0 24 24"><path d="M20.908 9.5l-2.754-2.607C17.586 6.353 16.707 6 15.917 6H13v-.5c0-.828-.672-1.5-1.5-1.5S10 4.672 10 5.5V6H6.5C4.57 6 3 7.57 3 9.5c0 1.396.828 2.596 2.016 3.157L3.172 14.5l2.56 2.56c.57.57 1.46.94 2.27.94h2.2l.8 4h1l.8-4h2.7c1.93 0 3.5-1.57 3.5-3.5 0-.902-.354-1.718-.916-2.34l.072-.055 2.75-2.605zM15.5 16H8c-.275 0-.658-.158-.854-.354L6 14.5l1.146-1.146C7.34 13.16 7.723 13 8 13h7.5c.828 0 1.5.672 1.5 1.5s-.672 1.5-1.5 1.5zm1.28-5.344c-.2.19-.587.344-.863.344H6.5C5.672 11 5 10.328 5 9.5S5.672 8 6.5 8h9.417c.276 0 .663.154.862.344L18 9.5l-1.22 1.156z"/></svg>