<svg version="1.1" xmlns="http://www.w3.org/2000/svg" xmlns:xlink="http://www.w3.org/1999/xlink" id="document-add" viewBox="0 0 24 24"><path d="M15 12h-2v-2c0-.553-.447-1-1-1s-1 .447-1 1v2H9c-.553 0-1 .447-1 1s.447 1 1 1h2v2c0 .553.447 1 1 1s1-.447 1-1v-2h2c.553 0 1-.447 1-1s-.447-1-1-1zm4.707-4.707l-4-4C15.52 3.105 15.267 3 15 3H7C5.346 3 4 4.346 4 6v12c0 1.654 1.346 3 3 3h10c1.654 0 3-1.346 3-3V8c0-.266-.105-.52-.293-.707zM17.587 8H16.5c-.827 0-1.5-.673-1.5-1.5V5.414L17.586 8zM17 19H7c-.552 0-1-.448-1-1V6c0-.552.448-1 1-1h7v1.5C14 7.88 15.12 9 16.5 9H18v9c0 .552-.448 1-1 1z"/></svg>