<svg version="1.1" xmlns="http://www.w3.org/2000/svg" xmlns:xlink="http://www.w3.org/1999/xlink" id="download" viewBox="0 0 24 24"><path d="M16.707 7.404c-.19-.188-.448-.283-.707-.283s-.518.096-.707.284L13 9.697V3c0-.552-.448-1-1-1s-1 .448-1 1v6.697L8.707 7.404c-.19-.188-.44-.293-.707-.293s-.518.106-.707.294c-.39.39-.39 1.024 0 1.414L12 13.5l4.71-4.684c.387-.387.387-1.022-.003-1.412zM20.987 16c0-.105-.004-.21-.04-.316l-2-6C18.813 9.274 18.432 9 18 9h-.22c-.093.188-.21.368-.366.525L15.932 11h1.348l1.667 5H5.054l1.667-5h1.35L6.585 9.525C6.43 9.368 6.312 9.188 6.22 9H6c-.43 0-.812.275-.948.684l-2 6c-.035.105-.04.21-.04.316C3 16 3 21 3 21c0 .553.447 1 1 1h16c.553 0 1-.447 1-1 0 0 0-5-.013-5z"/></svg>