<svg version="1.1" xmlns="http://www.w3.org/2000/svg" xmlns:xlink="http://www.w3.org/1999/xlink" id="download-outline" viewBox="0 0 24 24"><path d="M20.986 17c0-.105-.004-.21-.038-.316l-2-6c-.136-.41-.516-.684-.948-.684h-.56l.68-.678c1.17-1.17 1.17-3.072 0-4.242-.81-.812-2.067-1.078-3.12-.71V3c0-1.654-1.346-3-3-3S9 1.346 9 3v1.37c-1.052-.368-2.31-.102-3.12.71-1.17 1.17-1.17 3.072 0 4.244l.68.676H6c-.432 0-.812.275-.948.684l-2 6c-.034.105-.038.21-.038.316C3 17 3 22 3 22c0 .553.447 1 1 1h16c.553 0 1-.447 1-1 0 0 0-5-.014-5zM7.293 6.494c.19-.187.44-.293.707-.293s.518.105.707.294L11 8.787V3c0-.552.448-1 1-1s1 .448 1 1v5.787l2.293-2.293c.38-.377 1.035-.377 1.414 0 .39.39.39 1.023.002 1.412L12 12.59 7.293 7.908c-.39-.388-.39-1.024 0-1.414zM6.72 12h1.853l3.43 3.41L15.43 12h1.852l1.667 5H5.054l1.666-5zM19 21H5v-3h14v3z"/></svg>