<svg version="1.1" xmlns="http://www.w3.org/2000/svg" xmlns:xlink="http://www.w3.org/1999/xlink" id="edit" viewBox="0 0 24 24"><path d="M21.56 5.318l-2.878-2.88C18.39 2.147 18.005 2 17.622 2c-.386 0-.77.146-1.062.44L13 6H4c-.552 0-1 .447-1 1v13c0 .553.448 1 1 1h13c.552 0 1-.447 1-1v-9l3.56-3.56c.294-.294.44-.678.44-1.062s-.146-.767-.44-1.06zM11.5 14.672L9.328 12.5l6.293-6.293 2.173 2.172L11.5 14.67zm-2.56-1.34l1.755 1.73L9 15l-.06-1.667zM16 19H5V8h6l-3.18 3.18c-.293.293-.478.812-.63 1.29-.16.5-.19 1.055-.19 1.47V17h3.06c.415 0 1.11-.1 1.572-.29.464-.19.896-.347 1.188-.64L16 13v6zm2.5-11.328L16.328 5.5l1.293-1.293 2.172 2.172L18.5 7.67z"/></svg>