<svg version="1.1" xmlns="http://www.w3.org/2000/svg" xmlns:xlink="http://www.w3.org/1999/xlink" id="eject" viewBox="0 0 24 24"><path d="M13 17.5c-2.48 0-4.5-2.02-4.5-4.5 0-.553-.447-1-1-1s-1 .447-1 1c0 3.584 2.916 6.5 6.5 6.5s6.5-2.916 6.5-6.5-2.916-6.5-6.5-6.5c-.553 0-1 .447-1 1s.447 1 1 1c2.48 0 4.5 2.02 4.5 4.5s-2.02 4.5-4.5 4.5zM10.656 4c.552 0 1 .448 1 1s-.448 1-1 1H7.413L9.12 7.707l4.094 4.092c.39.39.39 1.024 0 1.414-.188.188-.44.292-.707.292s-.52-.104-.707-.29L7.707 9.12 6 7.414v3.243c0 .552-.448 1-1 1s-1-.448-1-1V4h6.656"/></svg>