<svg version="1.1" xmlns="http://www.w3.org/2000/svg" xmlns:xlink="http://www.w3.org/1999/xlink" id="eject-outline" viewBox="0 0 24 24"><path d="M16 8.55V7c0-1.105-.896-2-2-2H4v10c0 1.104.896 2 2 2h1.066c.893 2.887 3.646 5 6.81 5 3.858 0 7.06-3.016 7.06-6.875.002-3.16-2.067-5.74-4.936-6.574zm-8 1.863v3.243c0 .552-.448 1-1 1s-1-.448-1-1V7h6.656c.552 0 1 .448 1 1s-.448 1-1 1H9.413l4.8 4.8c.393.39.393 1.024.002 1.414-.19.188-.44.292-.708.292-.268 0-.52-.104-.707-.29L8 10.412zm6 9.618c-2.757 0-5-2.26-5-5.015 0-.705-.004-1.37.21-1.98l2.883 2.885c.39.39.9.584 1.414.584s1.022-.194 1.414-.584c.782-.78.782-2.05 0-2.83l-2.566-2.567c.517-.226 1.065-.398 1.646-.398 2.757 0 5 2.182 5 4.938 0 2.757-2.243 4.968-5 4.968z"/></svg>