<svg version="1.1" xmlns="http://www.w3.org/2000/svg" xmlns:xlink="http://www.w3.org/1999/xlink" id="export-outline" viewBox="0 0 24 24"><path d="M22.71 9.796c-.04-.04-4.054-4.096-5.98-6.146-.42-.414-1-.65-1.587-.65C13.96 3 13 3.896 13 5H5c-.553 0-1 .448-1 1v14c0 .552.447 1 1 1h14c.553 0 1-.448 1-1v-6.045c1.434-1.46 2.688-2.73 2.71-2.75.388-.39.388-1.02 0-1.41zm-7.43 6.145l-.137.06-.144-.04V12h-1c-1.772.034-3.337.68-4.754 1.958C9.676 11.743 10.846 9 14 9h1V5.042L15.142 5l.154.05c1.436 1.525 4.05 4.187 5.297 5.45-.253.257-4.342 4.422-5.315 5.44zM6 19V7h8v1c-4.66 0-6 4.87-6 8.5v.5c1.69-2.578 3.6-3.953 6-4v3c0 .55.512 1 1.143 1 .364 0 .676-.158.883-.39.54-.566 1.242-1.292 1.976-2.044V19H6z"/></svg>