<svg version="1.1" xmlns="http://www.w3.org/2000/svg" xmlns:xlink="http://www.w3.org/1999/xlink" id="eye-outline" viewBox="0 0 24 24"><path d="M12 9c1.21 0 2.38.355 3.297 1.004 1.3.92 2.43 2.124 3.165 2.996-.735.872-1.864 2.077-3.166 2.996C14.38 16.646 13.21 17 12 17s-2.382-.355-3.3-1.004c-1.3-.92-2.43-2.124-3.163-2.996.734-.872 1.863-2.076 3.164-2.995C9.62 9.355 10.79 9 12 9m0-2c-1.69 0-3.242.516-4.453 1.37C4.927 10.224 3 13 3 13s1.928 2.777 4.547 4.63C8.757 18.483 10.31 19 12 19s3.242-.516 4.45-1.37C19.07 15.776 21 13 21 13s-1.93-2.777-4.55-4.63C15.243 7.517 13.69 7 12 7zm0 5c-.553 0-1 .447-1 1 0 .55.447 1 1 1 .55 0 1-.45 1-1 0-.553-.45-1-1-1zm0 4c-1.654 0-3-1.346-3-3s1.346-3 3-3 3 1.346 3 3-1.346 3-3 3zm0-5c-1.104 0-2 .896-2 2s.896 2 2 2 2-.896 2-2-.896-2-2-2z"/></svg>