<svg version="1.1" xmlns="http://www.w3.org/2000/svg" xmlns:xlink="http://www.w3.org/1999/xlink" id="eye" viewBox="0 0 24 24"><path d="M21.82 12.43c-.082-.12-2.06-2.944-4.792-4.875C15.612 6.552 13.826 6 12 6c-1.825 0-3.61.552-5.03 1.555-2.73 1.93-4.708 4.756-4.79 4.875-.24.343-.24.798 0 1.14.082.12 2.06 2.945 4.79 4.876C8.39 19.448 10.175 20 12 20c1.826 0 3.612-.552 5.028-1.555 2.73-1.93 4.71-4.756 4.793-4.875.24-.342.24-.798 0-1.14zM12 16.5c-1.934 0-3.5-1.57-3.5-3.5 0-1.934 1.566-3.5 3.5-3.5 1.93 0 3.5 1.566 3.5 3.5 0 1.93-1.57 3.5-3.5 3.5zm2-3.5c0 1.102-.898 2-2 2-1.105 0-2-.898-2-2 0-1.105.895-2 2-2 1.102 0 2 .895 2 2z"/></svg>