<svg version="1.1" xmlns="http://www.w3.org/2000/svg" xmlns:xlink="http://www.w3.org/1999/xlink" id="feather" viewBox="0 0 24 24"><path d="M11.68 1.017L11.5.983l-.18.033C6.5 1.9 3 6.1 3 11c0 4.617 3.108 8.61 7.5 9.795V22c0 .553.448 1 1 1s1-.447 1-1v-1.205C16.892 19.61 20 15.617 20 11c0-4.9-3.5-9.1-8.32-9.983zM12.5 18.7V7c0-.553-.448-1-1-1s-1 .447-1 1v11.7c-3.18-1.093-5.4-4.054-5.49-7.483l3.137 3.137c.097.097.225.146.353.146s.256-.05.354-.146c.195-.195.195-.512 0-.707l-3.77-3.77c.134-.963.435-1.876.878-2.708l2.184 2.184c.098.097.226.146.354.146s.256-.05.354-.146c.195-.195.195-.512 0-.707L6.5 6.294c1.163-1.64 2.92-2.846 5-3.275 2.08.43 3.837 1.634 5 3.274l-2.354 2.353c-.195.195-.195.512 0 .707.098.097.226.146.354.146s.256-.05.354-.146l2.184-2.185c.444.83.744 1.744.877 2.708l-3.77 3.77c-.194.194-.194.51 0 .706.1.098.227.146.355.146s.256-.05.354-.146l3.137-3.137c-.09 3.43-2.31 6.39-5.49 7.483z"/></svg>