<svg version="1.1" xmlns="http://www.w3.org/2000/svg" xmlns:xlink="http://www.w3.org/1999/xlink" id="flag-outline" viewBox="0 0 24 24"><path d="M18.383 4.318c-.374-.155-.804-.07-1.09.217-1.264 1.263-3.32 1.264-4.586 0-2.045-2.043-5.37-2.043-7.414 0-.188.187-.293.442-.293.707v13c0 .552.448 1 1 1s1-.448 1-1V13.69c1.27-.998 3.12-.912 4.293.26 2.045 2.042 5.37 2.042 7.414 0 .188-.19.293-.443.293-.708v-8c0-.405-.244-.77-.617-.924zm-7.09 1.63C12.833 7.49 15.1 7.87 17 7.09v2.31c-1.446.916-3.387.75-4.646-.51C10.906 7.44 8.756 7.145 7 7.96V5.69c1.27-.998 3.12-.913 4.293.26zm1.414 6.586c-1.022-1.02-2.365-1.532-3.707-1.532-.68 0-1.36.13-2 .394v-2.31c1.446-.917 3.387-.75 4.646.51.925.923 2.14 1.385 3.354 1.385.687 0 1.366-.163 2-.458v2.272c-1.272.997-3.122.91-4.293-.26z"/></svg>