<svg version="1.1" xmlns="http://www.w3.org/2000/svg" xmlns:xlink="http://www.w3.org/1999/xlink" id="flash-outline" viewBox="0 0 24 24"><path d="M14.5 4h.005M14.5 4L12 10l5 2.898L9.5 20l2.5-6-5-2.9L14.5 4m0-2c-.562.012-1.03.22-1.38.55L5.625 9.647c-.458.435-.685 1.06-.61 1.686.072.626.437 1.182.982 1.498l3.482 2.02-1.826 4.382c-.362.87-.066 1.88.712 2.416.344.236.74.354 1.135.354.497 0 .992-.186 1.374-.548l7.5-7.103c.458-.433.685-1.057.61-1.684-.073-.627-.438-1.183-.982-1.498L14.52 9.15l1.79-4.293c.122-.26.19-.55.19-.857 0-1.102-.89-1.996-2-2z"/></svg>