<svg version="1.1" xmlns="http://www.w3.org/2000/svg" xmlns:xlink="http://www.w3.org/1999/xlink" id="flow-switch" viewBox="0 0 24 24"><path d="M8 16.184V15.5c0-.848.512-1.595 1.287-2.047-.667-.282-1.28-.667-1.822-1.13C6.56 13.135 6 14.26 6 15.5v.684C4.84 16.6 4 17.698 4 19c0 1.654 1.346 3 3 3s3-1.346 3-3c0-1.302-.84-2.4-2-2.816zM7 20c-.552 0-1-.45-1-1s.448-1 1-1 1 .45 1 1-.448 1-1 1zm9-12.185v.35c0 .986-.535 1.853-1.345 2.36.665.275 1.28.647 1.823 1.1.936-.877 1.522-2.1 1.522-3.458v-.35C19.16 7.4 20 6.3 20 5c0-1.654-1.346-3-3-3s-3 1.346-3 3c0 1.302.84 2.4 2 2.815zM17 4c.552 0 1 .45 1 1s-.448 1-1 1-1-.45-1-1 .448-1 1-1zm.935 12.164C17.525 13.25 15.025 11 12 11c-1.936 0-3.552-1.38-3.92-3.21C9.2 7.356 10 6.273 10 5c0-1.654-1.346-3-3-3S4 3.346 4 5c0 1.326.87 2.44 2.065 2.836C6.475 10.75 8.975 13 12 13c1.936 0 3.552 1.38 3.92 3.21C14.8 16.644 14 17.727 14 19c0 1.654 1.346 3 3 3s3-1.346 3-3c0-1.326-.87-2.44-2.065-2.836zM7 4c.552 0 1 .45 1 1s-.448 1-1 1-1-.45-1-1 .448-1 1-1zm10 16c-.552 0-1-.45-1-1s.448-1 1-1 1 .45 1 1-.448 1-1 1z"/></svg>