<svg version="1.1" xmlns="http://www.w3.org/2000/svg" xmlns:xlink="http://www.w3.org/1999/xlink" id="flow-parallel" viewBox="0 0 24 24"><path d="M18 16.184V7.816C19.16 7.4 20 6.302 20 5c0-1.654-1.346-3-3-3s-3 1.346-3 3c0 1.302.84 2.4 2 2.815v8.37c-1.16.414-2 1.513-2 2.815 0 1.654 1.346 3 3 3s3-1.346 3-3c0-1.302-.84-2.4-2-2.816zM17 4c.552 0 1 .45 1 1s-.448 1-1 1-1-.45-1-1 .448-1 1-1zm0 16c-.552 0-1-.45-1-1s.448-1 1-1 1 .45 1 1-.448 1-1 1zM10 5c0-1.654-1.346-3-3-3S4 3.346 4 5c0 1.302.84 2.4 2 2.815v8.37c-1.16.414-2 1.513-2 2.815 0 1.654 1.346 3 3 3s3-1.346 3-3c0-1.302-.84-2.4-2-2.816V7.816C9.16 7.4 10 6.302 10 5zM7 4c.552 0 1 .45 1 1s-.448 1-1 1-1-.45-1-1 .448-1 1-1zm0 16c-.552 0-1-.45-1-1s.448-1 1-1 1 .45 1 1-.448 1-1 1z"/></svg>