<svg version="1.1" xmlns="http://www.w3.org/2000/svg" xmlns:xlink="http://www.w3.org/1999/xlink" id="flow-merge" viewBox="0 0 24 24"><path d="M18 16.184v-1.85c0-1.93-1.57-3.5-3.5-3.5-.827 0-1.5-.674-1.5-1.5V7.815C14.16 7.4 15 6.302 15 5c0-1.654-1.346-3-3-3S9 3.346 9 5c0 1.302.84 2.4 2 2.815v1.518c0 .827-.673 1.5-1.5 1.5-1.93 0-3.5 1.57-3.5 3.5v1.85C4.84 16.6 4 17.7 4 19c0 1.654 1.346 3 3 3s3-1.346 3-3c0-1.302-.84-2.4-2-2.816v-1.85c0-.828.673-1.5 1.5-1.5.98 0 1.864-.408 2.5-1.06.636.652 1.52 1.06 2.5 1.06.827 0 1.5.672 1.5 1.5v1.85c-1.16.415-2 1.514-2 2.816 0 1.654 1.346 3 3 3s3-1.346 3-3c0-1.302-.84-2.4-2-2.816zM7 20c-.552 0-1-.45-1-1s.448-1 1-1 1 .45 1 1-.448 1-1 1zm5-16c.552 0 1 .45 1 1s-.448 1-1 1-1-.45-1-1 .448-1 1-1zm5 16c-.552 0-1-.45-1-1s.448-1 1-1 1 .45 1 1-.448 1-1 1z"/></svg>