<svg version="1.1" xmlns="http://www.w3.org/2000/svg" xmlns:xlink="http://www.w3.org/1999/xlink" id="folder-add" viewBox="0 0 24 24"><path d="M18 6h-6c0-1.104-.896-2-2-2H6C4.346 4 3 5.346 3 7v10c0 1.654 1.346 3 3 3h12c1.654 0 3-1.346 3-3V9c0-1.654-1.346-3-3-3zm0 12H6c-.552 0-1-.448-1-1v-7h4c.275 0 .5-.225.5-.5S9.275 9 9 9H5V7c0-.552.448-1 1-1h4c0 1.104.896 2 2 2h6c.552 0 1 .448 1 1h-4c-.275 0-.5.225-.5.5s.225.5.5.5h4v7c0 .552-.448 1-1 1zm-3-6h-2v-2c0-.553-.447-1-1-1s-1 .447-1 1v2H9c-.553 0-1 .447-1 1s.447 1 1 1h2v2c0 .553.447 1 1 1s1-.447 1-1v-2h2c.553 0 1-.447 1-1s-.447-1-1-1z"/></svg>