<svg version="1.1" xmlns="http://www.w3.org/2000/svg" xmlns:xlink="http://www.w3.org/1999/xlink" id="gift" viewBox="0 0 24 24"><path d="M19 8h-2.352c.22-.457.352-.96.352-1.5C17 4.57 15.43 3 13.5 3c-.98 0-1.864.407-2.5 1.058C10.364 3.408 9.48 3 8.5 3 6.57 3 5 4.57 5 6.5c0 .54.133 1.043.352 1.5H3c-.553 0-1 .448-1 1v4c0 .552.447 1 1 1v5c0 1.654 1.346 3 3 3h10c1.654 0 3-1.346 3-3v-5c.553 0 1-.448 1-1V9c0-.552-.447-1-1-1zm-1 4h-5v-2h5v2zm-8-5h2v1h-2V7zm2 3v2h-2v-2h2zm1.5-5c.827 0 1.5.673 1.5 1.5S14.327 8 13.5 8c-.177 0-.344-.04-.5-.097V7c0-.52-.404-.937-.913-.982C12.29 5.428 12.843 5 13.5 5zM7 6.5C7 5.673 7.673 5 8.5 5c.657 0 1.21.428 1.413 1.018C9.403 6.063 9 6.478 9 7v.903C8.844 7.96 8.677 8 8.5 8 7.673 8 7 7.327 7 6.5zM9 10v2H4v-2h5zM6 20c-.55 0-1-.45-1-1v-6h4v7H6zm4 0v-7h2v7h-2zm6 0h-3v-7h4v6c0 .55-.45 1-1 1z"/></svg>