<svg version="1.1" xmlns="http://www.w3.org/2000/svg" xmlns:xlink="http://www.w3.org/1999/xlink" id="globe-outline" viewBox="0 0 24 24"><path d="M11 6c2.206 0 4 1.794 4 4s-1.794 4-4 4c-2.204 0-3.998-1.794-3.998-4S8.796 6 11 6m0-2c-3.314 0-5.998 2.686-5.998 6S7.686 16 11 16c3.312 0 6-2.688 6-6 0-3.314-2.688-6-6-6zm6 16h-4v-1.23c1.64-.37 3.146-1.188 4.363-2.406C19.063 14.664 20 12.404 20 10c0-2.066-.69-4.027-1.968-5.618l.675-.673c.39-.392.39-1.024 0-1.416-.39-.392-1.023-.39-1.414 0L15.24 4.34l.71.708C17.27 6.37 18 8.13 18 10s-.73 3.627-2.05 4.95S12.87 17 11 17s-3.627-.73-4.95-2.05c-.39-.392-1.022-.392-1.413 0-.39.39-.39 1.022 0 1.413C6.337 18.063 8.597 19 11 19v1H7c-.553 0-1 .447-1 1s.447 1 1 1h10c.553 0 1-.447 1-1s-.447-1-1-1z"/></svg>