<svg version="1.1" xmlns="http://www.w3.org/2000/svg" xmlns:xlink="http://www.w3.org/1999/xlink" id="globe" viewBox="0 0 24 24"><path d="M11 20H7c-.553 0-1 .447-1 1s.447 1 1 1h10c.553 0 1-.447 1-1s-.447-1-1-1h-4v-1.23c1.64-.37 3.146-1.188 4.363-2.406C19.063 14.664 20 12.404 20 10c0-2.067-.692-4.03-1.968-5.62l.675-.672c.39-.39.39-1.023 0-1.415-.39-.39-1.023-.39-1.414 0L15.24 4.34l.71.71C17.27 6.37 18 8.13 18 10s-.73 3.627-2.05 4.95S12.87 17 11 17s-3.627-.73-4.95-2.05c-.39-.392-1.022-.392-1.413 0-.39.39-.39 1.022 0 1.413C6.337 18.063 8.597 19 11 19v1zm0-16c1.657 0 3.157.672 4.243 1.757C16.328 6.843 17 8.343 17 10c0 1.656-.672 3.156-1.757 4.242C14.157 15.328 12.657 16 11 16c-1.658 0-3.157-.672-4.242-1.757C5.673 13.157 5.002 11.657 5.002 10s.67-3.157 1.756-4.243C7.843 4.672 9.342 4 11 4z"/></svg>