<svg version="1.1" xmlns="http://www.w3.org/2000/svg" xmlns:xlink="http://www.w3.org/1999/xlink" id="group-outline" viewBox="0 0 24 24"><path d="M12 14c2.764 0 5-2.238 5-5s-2.236-5-5-5-5 2.238-5 5 2.236 5 5 5zm0-8c1.654 0 3 1.346 3 3s-1.346 3-3 3-3-1.346-3-3 1.346-3 3-3zm8 9c1.38 0 2.5-1.117 2.5-2.5 0-1.38-1.12-2.5-2.5-2.5-1.382 0-2.5 1.12-2.5 2.5 0 1.383 1.118 2.5 2.5 2.5zm0-4c.827 0 1.5.673 1.5 1.5S20.827 14 20 14s-1.5-.673-1.5-1.5.673-1.5 1.5-1.5zm0 4.59c-1.33 0-2.332.406-2.917.97C15.968 15.64 14.205 15 12 15c-2.266 0-3.995.648-5.092 1.564C6.312 16 5.3 15.59 4 15.59c-2.188 0-3.5 1.09-3.5 2.182 0 .545 1.312 1.092 3.5 1.092.604 0 1.146-.05 1.623-.133l-.04.27c0 1 2.405 2 6.417 2 3.762 0 6.417-1 6.417-2l-.02-.254c.462.073.995.118 1.603.118 2.05 0 3.5-.547 3.5-1.092 0-1.092-1.373-2.182-3.5-2.182zM4 17.863c-1.31 0-2.068-.207-2.417-.354.24-.406 1.003-.92 2.417-.92 1.107 0 1.837.35 2.208.705l-.235.344c-.452.118-1.108.223-1.973.223zM12 19c-2.163 0-3.5-.312-4.184-.56C8.336 17.76 9.734 17 12 17c2.17 0 3.59.76 4.148 1.425-.755.27-2.162.575-4.148.575zm8-1.137c-.914 0-1.546-.103-1.973-.213-.072-.127-.155-.252-.248-.375.355-.345 1.07-.685 2.22-.685 1.324 0 2.14.5 2.404.91-.39.164-1.205.363-2.404.363zM4 15c1.38 0 2.5-1.12 2.5-2.5S5.38 10 4 10c-1.382 0-2.5 1.12-2.5 2.5S2.618 15 4 15zm0-4c.827 0 1.5.673 1.5 1.5S4.827 14 4 14s-1.5-.673-1.5-1.5S3.173 11 4 11z"/></svg>