<svg version="1.1" xmlns="http://www.w3.org/2000/svg" xmlns:xlink="http://www.w3.org/1999/xlink" id="group" viewBox="0 0 24 24"><path d="M12 14c1.38 0 2.63-.56 3.536-1.465C16.44 11.63 17 10.38 17 9s-.56-2.63-1.464-3.535C14.63 4.56 13.38 4 12 4s-2.63.56-3.536 1.465C7.56 6.37 7 7.62 7 9s.56 2.63 1.464 3.535C9.37 13.44 10.62 14 12 14zm8 1c.69 0 1.315-.28 1.768-.73.453-.453.732-1.078.732-1.77 0-.69-.28-1.315-.732-1.768C21.315 10.28 20.69 10 20 10s-1.316.28-1.77.732c-.45.453-.73 1.078-.73 1.768s.28 1.316.73 1.77S19.31 15 20 15zm0 .59c-1.33 0-2.332.406-2.917.968C15.968 15.64 14.205 15 12 15c-2.266 0-3.995.648-5.092 1.564C6.312 16 5.3 15.59 4 15.59c-2.188 0-3.5 1.09-3.5 2.182 0 .545 1.312 1.092 3.5 1.092.604 0 1.146-.05 1.623-.133l-.04.27c0 1 2.406 2 6.417 2 3.762 0 6.417-1 6.417-2l-.02-.254c.463.073.995.118 1.603.118 2.05 0 3.5-.547 3.5-1.092 0-1.092-1.373-2.182-3.5-2.182zM4 15c.69 0 1.315-.28 1.768-.732.453-.453.732-1.078.732-1.768s-.28-1.314-.732-1.768C5.315 10.28 4.69 10 4 10s-1.316.28-1.77.732c-.45.454-.73 1.08-.73 1.768 0 .69.28 1.315.73 1.768C2.685 14.72 3.31 15 4 15z"/></svg>