<svg version="1.1" xmlns="http://www.w3.org/2000/svg" xmlns:xlink="http://www.w3.org/1999/xlink" id="headphones" viewBox="0 0 24 24"><path d="M21 13c0-4.963-4.037-9-9-9s-9 4.037-9 9v2.6l.023.113c-.013.243-.023.5-.023.787v2C3 20.43 4.57 22 6.5 22s3.5-1.57 3.5-3.5v-2c0-1.51-.83-2.79-1.982-3.278C8.113 11.1 9.855 9.4 12 9.4s3.887 1.7 3.982 3.82C14.83 13.71 14 14.99 14 16.5v2c0 1.93 1.57 3.5 3.5 3.5s3.5-1.57 3.5-3.5v-2c0-.287-.01-.544-.023-.787L21 15.6V13zM5 13c0-1.586.538-3.046 1.432-4.22l.89.888C6.58 10.596 6.104 11.743 6.02 13 6 13 6 14 6 14H5v-1zm3 5.5c0 .827-.673 1.5-1.5 1.5S5 19.327 5 18.5v-2c0-.666.057-1.176.114-1.5H7c.473 0 1 .616 1 1.5v2zm7.77-9.338l-.354.354C14.504 8.603 13.29 8.1 12 8.1s-2.504.503-3.417 1.416l-.354-.354-1.142-1.14-.627-.627C7.94 5.915 9.91 5.1 12 5.1c2.093 0 4.06.815 5.54 2.295l-.628.626-1.142 1.142zM19 18.5c0 .827-.673 1.5-1.5 1.5s-1.5-.673-1.5-1.5v-2c0-.884.527-1.5 1-1.5h1.886c.057.324.114.834.114 1.5v2zm0-4.5h-1v-1c-.104-1.257-.58-2.404-1.322-3.332l.89-.89C18.463 9.955 19 11.414 19 13v1z"/></svg>