<svg version="1.1" xmlns="http://www.w3.org/2000/svg" xmlns:xlink="http://www.w3.org/1999/xlink" id="heart-outline" viewBox="0 0 24 24"><path d="M12 20c-.195 0-.39-.057-.56-.172-.226-.15-5.51-3.73-7.147-5.37-1.83-1.832-2.043-3.778-2.043-5.083C2.25 6.41 4.66 4 7.625 4c1.802 0 3.398.89 4.375 2.256C12.977 4.89 14.573 4 16.375 4c2.964 0 5.375 2.41 5.375 5.375 0 1.305-.212 3.25-2.043 5.082-1.64 1.64-6.923 5.22-7.146 5.37-.17.116-.365.173-.56.173zM7.625 6C5.765 6 4.25 7.514 4.25 9.375c0 1.093.173 2.384 1.457 3.668C6.92 14.255 10.59 16.818 12 17.79c1.41-.972 5.08-3.535 6.293-4.747 1.284-1.284 1.457-2.575 1.457-3.668C19.75 7.515 18.236 6 16.375 6S13 7.514 13 9.375c0 .552-.447 1-1 1s-1-.448-1-1C11 7.515 9.486 6 7.625 6z"/></svg>