<svg version="1.1" xmlns="http://www.w3.org/2000/svg" xmlns:xlink="http://www.w3.org/1999/xlink" id="home-outline" viewBox="0 0 24 24"><path d="M22.262 10.468c-3.39-2.854-9.546-8.17-9.607-8.225L12 1.68l-.652.563c-.062.053-6.22 5.368-9.66 8.248C1.25 10.886 1 11.437 1 12c0 1.104.896 2 2 2h1v6c0 1.104.896 2 2 2h12c1.104 0 2-.896 2-2v-6h1c1.104 0 2-.896 2-2 0-.598-.275-1.16-.738-1.532zM14 20h-4v-5h4v5zm4-8l.002 8H15v-6H9v6H6v-8H3c2.764-2.312 7.314-6.227 9-7.68 1.686 1.453 6.234 5.367 9 7.68h-3z"/></svg>