<svg version="1.1" xmlns="http://www.w3.org/2000/svg" xmlns:xlink="http://www.w3.org/1999/xlink" id="image-outline" viewBox="0 0 24 24"><path d="M8.5 8c.827 0 1.5.672 1.5 1.5S9.327 11 8.5 11 7 10.325 7 9.5 7.673 8 8.5 8m0-1C7.12 7 6 8.117 6 9.5S7.12 12 8.5 12 11 10.88 11 9.5 9.88 7 8.5 7zm7.5 5c.45.05 1.27 1.803 1.78 4H6.386C6.82 14.966 7.442 14 8 14c.805 0 1.124.184 1.53.42.446.257 1.005.58 1.97.58 1.137 0 1.94-.886 2.652-1.667C14.78 12.646 15.37 12 16 12m0-1c-2 0-3 3-4.5 3S10 13 8 13s-3 4-3 4h14s-1-6-3-6zm6-5c0-1.104-.896-2-2-2H4c-1.104 0-2 .896-2 2v12c0 1.104.896 2 2 2h16c1.104 0 2-.896 2-2V6zm-2 12H4V6h16.003L20 18z"/></svg>