<svg version="1.1" xmlns="http://www.w3.org/2000/svg" xmlns:xlink="http://www.w3.org/1999/xlink" id="infinity-outline" viewBox="0 0 24 24"><path d="M16.434 8.596c1.152 0 2.237.45 3.053 1.264.815.816 1.266 1.9 1.266 3.056s-.45 2.24-1.268 3.056c-.813.815-1.898 1.266-3.053 1.266s-2.238-.45-3.055-1.266L12 14.652l-1.394 1.338c-.797.8-1.882 1.248-3.036 1.248-1.154 0-2.24-.45-3.054-1.267C3.7 15.16 3.25 14.073 3.25 12.92S3.7 10.68 4.52 9.862c.814-.813 1.898-1.266 3.053-1.266s2.24.45 3.056 1.266L12 11.182l1.397-1.34c.798-.797 1.882-1.246 3.037-1.246m0-2c-1.68 0-3.25.645-4.433 1.813-1.162-1.16-2.745-1.814-4.43-1.814-1.687 0-3.273.657-4.466 1.853-1.194 1.19-1.852 2.78-1.852 4.468s.658 3.274 1.852 4.468c1.19 1.192 2.78 1.852 4.468 1.852 1.68 0 3.25-.645 4.43-1.814 1.164 1.16 2.747 1.814 4.432 1.814 1.69 0 3.276-.658 4.47-1.854 1.192-1.188 1.85-2.776 1.85-4.467 0-1.688-.657-3.274-1.85-4.47-1.198-1.195-2.784-1.85-4.47-1.85zm-8.863 5.5c.226 0 .427.088.613.27l.57.55-.603.578c-.14.142-.352.223-.578.223-.227 0-.438-.08-.58-.223-.155-.155-.24-.36-.24-.578 0-.22.084-.422.243-.58.156-.156.355-.24.576-.24m0-1c-.485 0-.94.19-1.284.533-.345.345-.535.8-.535 1.286 0 .484.19.94.534 1.285.344.345.815.517 1.287.517s.943-.172 1.286-.516l1.34-1.284-1.322-1.27c-.36-.36-.817-.55-1.303-.55zm8.864 1.017c.228 0 .438.08.576.22.158.158.242.358.242.58s-.083.423-.243.582c-.145.146-.353.228-.572.228-.23 0-.444-.088-.617-.26l-.57-.55.603-.577c.14-.143.353-.223.58-.223m0-1c-.47 0-.942.172-1.286.516l-1.34 1.284 1.322 1.27c.36.36.837.54 1.31.54.472 0 .937-.178 1.28-.522.345-.344.533-.8.533-1.287s-.188-.94-.532-1.287c-.345-.344-.816-.515-1.286-.515z"/></svg>