<svg version="1.1" xmlns="http://www.w3.org/2000/svg" xmlns:xlink="http://www.w3.org/1999/xlink" id="infinity" viewBox="0 0 24 24"><path d="M16.433 8.596c-1.153 0-2.237.45-3.036 1.246L12 11.182l-1.374-1.32c-.815-.817-1.9-1.266-3.055-1.266-1.153 0-2.238.45-3.052 1.266-.817.816-1.267 1.9-1.267 3.055 0 1.152.45 2.238 1.267 3.053.814.816 1.9 1.266 3.054 1.266s2.24-.45 3.037-1.248l1.395-1.338 1.376 1.32c.815.816 1.9 1.266 3.055 1.266s2.238-.45 3.053-1.266c.817-.814 1.267-1.9 1.267-3.055s-.45-2.238-1.266-3.055c-.817-.815-1.9-1.264-3.054-1.264zM8.857 14.2c-.687.69-1.884.69-2.572 0-.344-.343-.533-.8-.533-1.284 0-.486.19-.94.535-1.287.342-.345.8-.534 1.284-.534s.943.19 1.306.55l1.32 1.27-1.34 1.285zm8.86 0c-.686.69-1.865.706-2.59-.017l-1.32-1.27 1.34-1.285c.687-.688 1.885-.688 2.572-.002.343.346.532.8.532 1.287s-.19.944-.534 1.288z"/></svg>