<svg version="1.1" xmlns="http://www.w3.org/2000/svg" xmlns:xlink="http://www.w3.org/1999/xlink" id="info-large" viewBox="0 0 24 24"><path d="M13.84 17.525c-.007.002-.56.186-1.04.186-.265 0-.372-.054-.406-.078-.168-.117-.48-.336.054-1.4l1-1.994c.593-1.184.68-2.33.245-3.225-.356-.733-1.04-1.236-1.92-1.416-.317-.065-.64-.097-.958-.097-1.85 0-3.094 1.08-3.146 1.126-.18.158-.222.42-.103.626.12.206.367.3.595.222.005-.002.56-.187 1.04-.187.262 0 .368.055.4.078.17.118.483.34-.05 1.402l-1 1.995c-.594 1.185-.68 2.33-.245 3.225.356.733 1.038 1.236 1.92 1.416.315.063.637.097.955.097 1.85 0 3.096-1.08 3.148-1.126.18-.157.22-.42.102-.626-.12-.205-.37-.297-.593-.223z"/><circle cx="13" cy="6.001" r="2.5"/></svg>