<svg version="1.1" xmlns="http://www.w3.org/2000/svg" xmlns:xlink="http://www.w3.org/1999/xlink" id="info-large-outline" viewBox="0 0 24 24"><path d="M14.234 16.014l.554-1.104c.808-1.61.897-3.228.253-4.552-.12-.252-.276-.48-.442-.693C16.008 9.045 17 7.64 17 6c0-2.205-1.794-4-4-4S9 3.796 9 6c0 .784.234 1.51.624 2.127-1.696.33-2.806 1.248-2.947 1.375-.716.63-.885 1.68-.405 2.504.324.56.886.91 1.494.98l-.554 1.104c-.808 1.61-.897 3.228-.254 4.552.565 1.164 1.62 1.955 2.972 2.23.413.083.836.126 1.254.126 2.368 0 3.965-1.347 4.14-1.5.716-.63.887-1.68.407-2.504-.324-.556-.886-.91-1.496-.98zM13 4c1.104 0 2 .897 2 2s-.896 2-2 2c-1.105 0-2-.895-2-2s.895-2 2-2zm-1.816 15c-.27 0-.56-.025-.854-.087-1.642-.334-2.328-1.933-1.328-3.927l1-1.995c.5-.995.47-1.63-.108-2.034-.18-.125-.43-.17-.69-.17-.576 0-1.2.215-1.2.215s1.133-1 2.812-1c.27 0 .56.025.856.087C13.312 10.42 14 12.02 13 14.014l-1 1.993c-.5.998-.472 1.632.106 2.035.18.126.433.17.692.17.577 0 1.2-.213 1.2-.213s-1.133 1-2.814 1z"/></svg>