<svg version="1.1" xmlns="http://www.w3.org/2000/svg" xmlns:xlink="http://www.w3.org/1999/xlink" id="input-checked" viewBox="0 0 24 24"><path d="M16 19H8c-1.654 0-3-1.346-3-3V8c0-1.654 1.346-3 3-3h5c.553 0 1 .448 1 1s-.447 1-1 1H8c-.552 0-1 .45-1 1v8c0 .55.448 1 1 1h8c.552 0 1-.45 1-1v-3c0-.552.447-1 1-1s1 .448 1 1v3c0 1.654-1.346 3-3 3zm-2.834-4.167c-.35 0-.69-.14-.94-.39l-2.67-2.668c-.52-.52-.52-1.365 0-1.885.522-.52 1.366-.52 1.888 0l1.416 1.417 3.475-5.455c.357-.644 1.17-.877 1.814-.52.642.36.874 1.17.517 1.814l-4.334 7c-.203.366-.566.615-.98.673l-.187.013z"/></svg>