<svg version="1.1" xmlns="http://www.w3.org/2000/svg" xmlns:xlink="http://www.w3.org/1999/xlink" id="input-checked-outline" viewBox="0 0 24 24"><path d="M19.885 6.177c-.22-.77-.728-1.41-1.427-1.798C18.013 4.13 17.508 4 17 4c-.86 0-1.66.38-2.218 1H8C6.346 5 5 6.346 5 8v8c0 1.654 1.346 3 3 3h8c1.654 0 3-1.346 3-3V9.546l.622-1.088c.39-.7.482-1.51.263-2.28zm-3.758.338c.104-.19.27-.328.46-.416.3-.114.622-.128.9.026.23.13.4.343.475.6.033.117.04.236.03.353-.012.114-.043.226-.092.33l-.02.066-4.007 7.01c-.15.274-.427.462-.742.507l-.13.01c-.268 0-.52-.105-.708-.294l-3-3c-.39-.39-.39-1.025 0-1.415.19-.19.44-.293.707-.293s.517.104.706.293l1.125 1.125.92.92.653-1.125 2.724-4.7zM16 17H8c-.552 0-1-.45-1-1V8c0-.55.448-1 1-1h6.69l-2.15 3.712-1.126-1.125C11.024 9.197 10.512 9 10 9s-1.023.196-1.414.587c-.78.78-.78 2.047 0 2.828l3 3c.378.378.888.586 1.414.586l.277-.02c.62-.086 1.166-.46 1.47-1.01L17 11.03V16c0 .55-.448 1-1 1z"/></svg>