<svg version="1.1" xmlns="http://www.w3.org/2000/svg" xmlns:xlink="http://www.w3.org/1999/xlink" id="key-outline" viewBox="0 0 24 24"><path d="M10 21H4v-4.414l3.783-3.783C7.596 12.216 7.5 11.61 7.5 11c0-3.31 2.69-6 6-6s6 2.69 6 6-2.69 6-6 6H12v2h-2v2zm-4-2h2v-2h2v-2h3.5c2.206 0 4-1.794 4-4s-1.794-4-4-4-4 1.794-4 4c0 .56.12 1.11.36 1.64l.284.63L6 17.414V19zm7.5-9.002c.55 0 1 .45 1 1.002s-.45 1-1 1-1-.448-1-1c0-.553.45-1.002 1-1.002m0-1c-1.104 0-2 .896-2 2.002 0 1.104.896 2 2 2 1.105 0 2-.896 2-2 0-1.105-.895-2.002-2-2.002z"/></svg>