<svg version="1.1" xmlns="http://www.w3.org/2000/svg" xmlns:xlink="http://www.w3.org/1999/xlink" id="leaf" viewBox="0 0 24 24"><path d="M20 11c0-4.9-3.5-9.1-8.32-9.983L11.5.983l-.18.033C6.5 1.9 3 6.1 3 11c0 4.617 3.108 8.61 7.5 9.795V22c0 .553.448 1 1 1s1-.447 1-1v-1.205C16.892 19.61 20 15.617 20 11zm-7.5 7.7v-2.993l4.354-4.354c.195-.195.195-.512 0-.707s-.512-.195-.707 0L12.5 14.293v-3.586l2.354-2.354c.195-.195.195-.512 0-.707s-.512-.195-.707 0L12.5 9.293V6c0-.553-.448-1-1-1s-1 .447-1 1v3.293L8.854 7.646c-.195-.195-.512-.195-.707 0s-.195.512 0 .707l2.354 2.354v3.586l-3.645-3.646c-.195-.195-.512-.195-.707 0s-.195.512 0 .707l4.354 4.354V18.7C7.252 17.584 5 14.52 5 11c0-3.874 2.723-7.2 6.5-7.98C15.277 3.8 18 7.125 18 11c0 3.52-2.253 6.584-5.5 7.7z"/></svg>