<svg version="1.1" xmlns="http://www.w3.org/2000/svg" xmlns:xlink="http://www.w3.org/1999/xlink" id="lightbulb" viewBox="0 0 24 24"><path d="M12.5 5.5c-.276 0-.5.224-.5.5s.224.5.5.5c1.083 0 1.964.88 1.964 1.964 0 .276.224.5.5.5s.5-.224.5-.5c0-1.634-1.33-2.964-2.964-2.964zm0-4.5C8.364 1 5 4.364 5 8.5c0 1.486.44 2.922 1.274 4.165l.08.135C8.18 15.406 8.5 16.23 8.5 17v3c0 .552.448 1 1 1h2c0 .26.11.52.29.71.19.18.45.29.71.29.26 0 .52-.11.71-.29.18-.19.29-.45.29-.71h2c.552 0 1-.448 1-1v-3c0-.782.32-1.61 2.132-4.2C19.527 11.527 20 10.04 20 8.5 20 4.364 16.636 1 12.5 1zm2 18h-4v-1h4v1zm2.495-7.347c-1.466 2.093-2.143 3.29-2.385 4.347H13.5v-2c0-.552-.448-1-1-1s-1 .448-1 1v2h-1.113c-.24-1.03-.898-2.2-2.306-4.22l-.076-.13C7.347 10.718 7 9.628 7 8.5 7 5.467 9.467 3 12.5 3S18 5.467 18 8.5c0 1.126-.347 2.216-1.005 3.153z"/></svg>