<svg version="1.1" xmlns="http://www.w3.org/2000/svg" xmlns:xlink="http://www.w3.org/1999/xlink" id="link-outline" viewBox="0 0 24 24"><path d="M17.5 6c.282 0 .562.105.777.32.43.43.43 1.127 0 1.557L16.557 9.6l.307.308c.585.584.906 1.362.906 2.192s-.32 1.607-.906 2.19l-4.172 4.173c-.584.584-1.36.906-2.19.906s-1.608-.323-2.192-.907l-.31-.31-1.723 1.724c-.215.215-.495.322-.777.322s-.562-.108-.777-.323c-.43-.43-.43-1.126 0-1.557l1.72-1.72-.308-.31c-.583-.583-.905-1.36-.905-2.19s.32-1.608.905-2.192l4.173-4.173c.584-.584 1.387-.875 2.19-.875s1.608.29 2.192.875l.31.308 1.723-1.723c.215-.215.495-.32.777-.32m0-2c-.828 0-1.605.32-2.19.907l-.493.49c-.707-.35-1.504-.538-2.316-.538-1.362 0-2.676.532-3.604 1.46l-4.172 4.173c-.964.962-1.494 2.24-1.494 3.607 0 .822.192 1.616.558 2.327l-.48.48c-.585.585-.908 1.364-.908 2.193 0 .827.322 1.605.908 2.19.584.587 1.363.91 2.19.91s1.606-.323 2.192-.91l.48-.48c.71.366 1.504.56 2.328.56 1.363 0 2.645-.53 3.605-1.492l4.172-4.172c.963-.962 1.492-2.242 1.492-3.605 0-.823-.192-1.616-.558-2.327l.478-.48c.59-.587.912-1.366.912-2.193 0-.828-.322-1.606-.908-2.192-.587-.588-1.364-.91-2.192-.91zm-6.1 7.168c.017.535.233 1.036.613 1.416.38.38.88.598 1.416.614l-1.833 1.83c-.017-.533-.234-1.034-.613-1.414-.38-.38-.88-.597-1.416-.614l1.832-1.832m1.1-2.14c-.242 0-.468.095-.637.263L7.69 13.464c-.167.168-.26.395-.26.637 0 .24.093.467.26.635l.31.308.723-.723c.215-.215.495-.32.777-.32s.562.105.777.32c.43.43.43 1.127 0 1.557l-.72.723.308.308c.168.168.4.253.636.253s.47-.083.638-.252l4.172-4.173c.168-.168.26-.395.26-.635 0-.242-.092-.47-.26-.637l-.31-.31-.723.724c-.215.215-.495.322-.777.322s-.562-.108-.777-.323c-.43-.43-.43-1.126 0-1.557l.72-.72-.307-.31c-.17-.167-.395-.26-.636-.26z"/></svg>