<svg version="1.1" xmlns="http://www.w3.org/2000/svg" xmlns:xlink="http://www.w3.org/1999/xlink" id="link" viewBox="0 0 24 24"><path d="M18.277 6.32c-.43-.43-1.126-.43-1.556 0L15 8.044l-.308-.308c-1.168-1.168-3.216-1.168-4.384 0l-4.172 4.172c-.584.584-.906 1.363-.906 2.192s.322 1.607.906 2.19l.308.31-1.722 1.72c-.43.43-.43 1.127 0 1.557.215.215.496.322.778.322s.563-.108.778-.323L8 18.155l.308.308c.584.584 1.362.906 2.192.906s1.608-.323 2.192-.907l4.172-4.172c.584-.583.906-1.36.906-2.19s-.322-1.61-.906-2.193l-.308-.308 1.722-1.723c.43-.43.43-1.126 0-1.556zm-2.97 6.415l-4.17 4.172c-.17.168-.403.253-.637.253s-.468-.084-.636-.253l-.308-.308.722-.723c.43-.43.43-1.126 0-1.556-.215-.214-.496-.32-.778-.32s-.563.106-.778.32L8 15.044l-.308-.308c-.168-.168-.26-.395-.26-.636s.092-.47.26-.637l4.172-4.172c.168-.167.394-.26.636-.26s.468.093.636.26l.308.31-.722.72c-.43.43-.43 1.127 0 1.557.215.215.496.322.778.322s.563-.108.778-.323l.722-.722.308.308c.168.168.26.395.26.636s-.092.467-.26.635z"/></svg>