<svg version="1.1" xmlns="http://www.w3.org/2000/svg" xmlns:xlink="http://www.w3.org/1999/xlink" id="location-outline" viewBox="0 0 24 24"><path d="M12 5c1.61 0 3.12.614 4.254 1.73C17.38 7.837 18 9.31 18 10.87s-.62 3.03-1.745 4.14L12 19.192l-4.254-4.186C6.62 13.9 6 12.43 6 10.867s.62-3.03 1.746-4.14C8.88 5.614 10.393 5 12 5m0-2c-2.047 0-4.096.768-5.657 2.305-3.124 3.074-3.124 8.057 0 11.13L12 22l5.657-5.566c3.124-3.072 3.124-8.056 0-11.13C16.097 3.77 14.047 3 12 3zm0 5.5c.668 0 1.296.26 1.768.73.976.976.976 2.562 0 3.537-.473.472-1.1.73-1.768.73s-1.295-.26-1.768-.73c-.976-.976-.976-2.562 0-3.537.473-.47 1.1-.73 1.768-.73m0-1c-.896 0-1.792.34-2.475 1.023-1.367 1.367-1.367 3.584 0 4.95.684.685 1.578 1.025 2.475 1.025s1.792-.342 2.475-1.024c1.366-1.367 1.366-3.584 0-4.95-.683-.684-1.58-1.025-2.475-1.025z"/></svg>