<svg version="1.1" xmlns="http://www.w3.org/2000/svg" xmlns:xlink="http://www.w3.org/1999/xlink" id="map" viewBox="0 0 24 24"><path d="M20.383 3.076c-.373-.155-.804-.07-1.09.217L15.426 7.16l-4.3-3.44c-.397-.317-.974-.288-1.333.073l-4.5 4.5C5.105 8.48 5 8.733 5 9v10c0 .404.243.77.617.924.124.053.254.076.383.076.26 0 .516-.102.707-.293l3.867-3.867 4.3 3.44c.397.317.972.286 1.333-.073l4.5-4.5c.188-.187.293-.44.293-.707V4c0-.404-.243-.77-.617-.924zM7 16.586V9.414l3-3v7.24c-.07.043-3 2.932-3 2.932zm4.125-2.867L11 13.65V6.183s3.96 3.143 4 3.166v7.473l-3.875-3.1zM19 13.585l-3 3V9.35c.07-.043 3-2.936 3-2.936v7.172z"/></svg>