<svg version="1.1" xmlns="http://www.w3.org/2000/svg" xmlns:xlink="http://www.w3.org/1999/xlink" id="media-rewind-outline" viewBox="0 0 24 24"><path d="M10 8.676v8.05L5.867 12.7 10 8.677m.2-2.276c-.488 0-.93.197-1.253.512C6.567 9.227 3 12.702 3 12.702l5.944 5.788c.326.315.768.51 1.256.51.994 0 1.8-.805 1.8-1.8v-9c0-.993-.806-1.8-1.8-1.8zM19 8.676v8.05l-4.133-4.024L19 8.676m.2-2.276c-.488 0-.93.197-1.253.512-2.38 2.315-5.947 5.79-5.947 5.79l5.944 5.788c.326.315.768.51 1.256.51.994 0 1.8-.805 1.8-1.8v-9c0-.993-.806-1.8-1.8-1.8z"/></svg>