<svg version="1.1" xmlns="http://www.w3.org/2000/svg" xmlns:xlink="http://www.w3.org/1999/xlink" id="media-fast-forward-outline" viewBox="0 0 24 24"><path d="M14 8.676l4.133 4.025L14 16.728v-8.05M13.8 6.4c-.994 0-1.8.807-1.8 1.8v9c0 .995.806 1.8 1.8 1.8.488 0 .93-.195 1.253-.512C17.433 16.174 21 12.7 21 12.7s-3.566-3.474-5.944-5.788c-.327-.314-.768-.512-1.256-.512zM5 8.676L9.133 12.7 5 16.728v-8.05M4.8 6.4c-.994 0-1.8.807-1.8 1.8v9c0 .995.806 1.8 1.8 1.8.488 0 .93-.195 1.253-.512C8.433 16.174 12 12.7 12 12.7L6.056 6.913C5.73 6.598 5.288 6.4 4.8 6.4z"/></svg>