<svg version="1.1" xmlns="http://www.w3.org/2000/svg" xmlns:xlink="http://www.w3.org/1999/xlink" id="message-typing" viewBox="0 0 24 24"><path d="M18 6H5C3.35 6 2 7.35 2 9v7c0 1.65 1.35 3 3 3h1v3l3-3h9c1.65 0 3-1.35 3-3V9c0-1.65-1.35-3-3-3zm1 10c0 .542-.458 1-1 1H5c-.542 0-1-.458-1-1V9c0-.542.458-1 1-1h13c.542 0 1 .458 1 1v7zM7 14.5c-1.104 0-2-.896-2-2s.896-2 2-2 2 .896 2 2-.896 2-2 2zm0-3c-.552 0-1 .448-1 1s.448 1 1 1 1-.448 1-1-.448-1-1-1zm4.5 3c-1.104 0-2-.896-2-2s.896-2 2-2 2 .896 2 2-.896 2-2 2zm0-3c-.552 0-1 .448-1 1s.448 1 1 1 1-.448 1-1-.448-1-1-1zm4.5 3c-1.104 0-2-.896-2-2s.896-2 2-2 2 .896 2 2-.896 2-2 2zm0-3c-.552 0-1 .448-1 1s.448 1 1 1 1-.448 1-1-.448-1-1-1z"/></svg>