<svg version="1.1" xmlns="http://www.w3.org/2000/svg" xmlns:xlink="http://www.w3.org/1999/xlink" id="notes-outline" viewBox="0 0 24 24"><path d="M18.324 4.367c-.368-.324-.84-.5-1.324-.5l-.248.016-9 1.25C6.752 5.258 6 6.108 6 7.117v6.11C4.254 13.78 3 15.263 3 17c0 2.205 2.02 4 4.5 4 1.695 0 3.17-.842 3.937-2.078C12.24 19.59 13.317 20 14.5 20c2.48 0 4.5-1.795 4.5-4V5.867c0-.574-.246-1.12-.676-1.5zM11 16v-4.256l3-.45v1.737c-1.693.21-3 1.46-3 2.97zm6 0c0 1.104-1.12 2-2.5 2s-2.5-.896-2.5-2 1.12-2 2.5-2c.172 0 .338.014.5.04v-3.907l-5 .75V17c0 1.104-1.12 2-2.5 2S5 18.104 5 17s1.12-2 2.5-2c.172 0 .338.014.5.04V7.118l9-1.25V16z"/></svg>