<svg version="1.1" xmlns="http://www.w3.org/2000/svg" xmlns:xlink="http://www.w3.org/1999/xlink" id="pen" viewBox="0 0 24 24"><path d="M21.33 7.207c0-1.212-.473-2.352-1.33-3.207s-1.996-1.33-3.207-1.33c-1.2 0-2.327.464-3.18 1.305-.027.025-7.967 7.964-7.967 7.964-.373.372-.717.91-.967 1.513-.196.473-1.98 5.863-2.337 6.94-.12.357-.025.753.242 1.02.19.19.445.293.707.293.105 0 .21-.018.314-.05 1.076-.356 6.465-2.142 6.938-2.337.603-.25 1.14-.593 1.515-.968l2.156-2.156.076.01c.64 0 1.28-.244 1.77-.732l4.5-4.5c.695-.695.886-1.7.587-2.572.106-.386.18-.783.18-1.195zM9.464 17.587c-.406.142-1.145.392-2.038.69l-1.704-1.704c.3-.894.55-1.634.69-2.038l3.052 3.05zm-4.097.046l1 1-1.5.498.5-1.497zm7.698-3.113l-2.42 2.42-.235.18-3.53-3.53.18-.233 7.132-7.13 2.73 2.73-3.69 3.69c-.512.512-.548 1.29-.166 1.873zm6.08-4.96l-4.5 4.5c-.098.1-.226.147-.354.147s-.256-.05-.354-.146c-.195-.193-.195-.51 0-.706l4.5-4.5c.194-.194.512-.194.707 0 .196.195.197.51 0 .707zm.107-1.763c-.52-.168-1.108-.062-1.52.35l-.103.102-2.73-2.732.077-.078c.984-.98 2.652-.98 3.608-.023.48.48.743 1.116.743 1.793 0 .2-.03.394-.075.587z"/></svg>