<svg version="1.1" xmlns="http://www.w3.org/2000/svg" xmlns:xlink="http://www.w3.org/1999/xlink" id="pencil" viewBox="0 0 24 24"><path d="M21 6.88L17.12 3c-.292-.293-.677-.44-1.06-.44-.384 0-.767.147-1.06.44L4.06 13.94c-.292.292-.557.726-.75 1.187-.19.463-.31.96-.31 1.373V21h4.5c.414 0 .908-.12 1.37-.31.464-.193.897-.458 1.19-.75L21 9c.293-.293.44-.678.44-1.06 0-.385-.147-.768-.44-1.06zM5.768 15.06L14.06 6.77 15.294 8 7 16.293 5.768 15.06zM7.5 19H6l-1-1v-1.5c0-.077.033-.305.158-.605.01-.02 2.967 2.938 2.967 2.938-.322.134-.548.167-.625.167zm1.44-.768L7.706 17 16 8.707l1.232 1.232L8.94 18.23zm9-9L14.766 6.06l1.293-1.293 3.17 3.172-1.29 1.292z"/></svg>