<svg version="1.1" xmlns="http://www.w3.org/2000/svg" xmlns:xlink="http://www.w3.org/1999/xlink" id="phone" viewBox="0 0 24 24"><path d="M13.374 7.083l3.71-3.71-.437-.434c-.566-.567-1.555-.567-2.12 0L12.94 4.524c-.284.284-.44.66-.44 1.06s.156.778.438 1.06l.436.438zM6.646 12.94c-.566-.567-1.555-.567-2.12 0l-1.587 1.585c-.284.284-.44.66-.44 1.06s.156.778.44 1.063l.438.432 3.703-3.703-.434-.438zm11.79-8.21l-.353-.355-3.708 3.708.65.65c.095.094.146.22.146.353s-.05.26-.145.354L9.44 15.026c-.19.188-.52.19-.708 0l-.65-.65-3.702 3.71.354.354c.26.26 1.246 1.105 3.056 1.105 1.616 0 4.256-.712 7.65-4.105 6.773-6.775 3.158-10.55 2.997-10.71z"/></svg>