<svg version="1.1" xmlns="http://www.w3.org/2000/svg" xmlns:xlink="http://www.w3.org/1999/xlink" id="phone-outline" viewBox="0 0 24 24"><path d="M19.502 3.672L17.707 1.88c-.566-.568-1.32-.88-2.12-.88s-1.556.312-2.122.88L11.88 3.464c-1.17 1.17-1.17 3.072 0 4.242l1.378 1.38-4.172 4.17-1.38-1.378c-.565-.568-1.32-.88-2.12-.88s-1.555.312-2.12.88l-1.587 1.585c-1.17 1.17-1.17 3.072 0 4.242L3.672 19.5c.465.465 1.796 1.545 4.116 1.545 2.763 0 5.693-1.53 8.71-4.545 6.245-6.246 4.825-11.002 3.002-12.828zm-6.21 1.207l1.587-1.587c.194-.195.45-.293.706-.293s.512.098.707.293l1.083 1.082-3 3-1.083-1.082c-.39-.39-.39-1.023 0-1.414zm-10 11.413c-.39-.39-.39-1.023 0-1.414l1.587-1.587c.194-.195.45-.293.706-.293s.512.098.707.293l1.082 1.082-3 3-1.082-1.082zm11.794-1.207c-3.083 3.082-5.55 3.96-7.297 3.96-1.35 0-2.268-.524-2.703-.96-.004-.004 2.995-3.004 2.995-3.004l.297.297c.194.194.45.292.706.292s.512-.098.707-.293l5.586-5.587c.39-.39.39-1.023 0-1.414l-.298-.298 3-3c1.004 1.004 2.468 4.54-2.996 10.004z"/></svg>