<svg version="1.1" xmlns="http://www.w3.org/2000/svg" xmlns:xlink="http://www.w3.org/1999/xlink" id="pi-outline" viewBox="0 0 24 24"><path d="M20.12 7.12c-.565-.566-1.32-.878-2.12-.878s-1.555.312-2.12.88c-.234.232-.547.36-.88.36s-.646-.128-.88-.36C12.756 5.754 10.937 5 9 5s-3.755.753-5.12 2.12C3.31 7.687 3 8.44 3 9.24s.312 1.555.88 2.12c.565.568 1.32.88 2.12.88V17c0 1.654 1.346 3 3 3s3-1.346 3-3c0 1.654 1.346 3 3 3s3-1.346 3-3v-4.166c.784-.356 1.5-.85 2.12-1.47.568-.567.88-1.32.88-2.122s-.312-1.554-.88-2.12zm-1.413 2.83c-.768.766-1.715 1.244-2.707 1.436V17c0 .553-.447 1-1 1s-1-.447-1-1v-5.614c-.992-.19-1.94-.67-2.707-1.437-.374-.375-.82-.624-1.293-.776V17c0 .553-.447 1-1 1s-1-.447-1-1V9.173c-.473.152-.92.402-1.293.776-.195.195-.45.292-.707.292s-.512-.098-.707-.293c-.39-.392-.39-1.024 0-1.415C6.313 7.515 7.657 7.003 9 7.003s2.685.51 3.707 1.532c.633.632 1.463.948 2.293.948.83 0 1.66-.316 2.293-.948.195-.195.45-.293.707-.293s.512.098.707.293c.39.39.39 1.024 0 1.414z"/></svg>