<svg version="1.1" xmlns="http://www.w3.org/2000/svg" xmlns:xlink="http://www.w3.org/1999/xlink" id="pi" viewBox="0 0 24 24"><path d="M18.707 8.535c-.39-.39-1.023-.39-1.414 0-1.264 1.264-3.32 1.264-4.586 0-2.045-2.044-5.37-2.042-7.414 0-.39.39-.39 1.023 0 1.414s1.023.39 1.414 0c.374-.375.82-.625 1.293-.777V17c0 .553.447 1 1 1s1-.447 1-1V9.174c.472.152.92.4 1.293.775.768.766 1.715 1.244 2.707 1.436V17c0 .553.447 1 1 1s1-.447 1-1v-5.614c.992-.19 1.94-.67 2.707-1.437.39-.39.39-1.024 0-1.415z"/></svg>