<svg version="1.1" xmlns="http://www.w3.org/2000/svg" xmlns:xlink="http://www.w3.org/1999/xlink" id="pin-outline" viewBox="0 0 24 24"><path d="M21.436 7.586l-3.998-4.02c-.752-.756-2.063-.764-2.83-.006-.196.196-.35.436-.418.63-.653 1.36-1.354 2.214-2.254 2.726l-.217.105C10.75 7.507 9.433 8 7 8c-.266 0-.52.052-.766.152-.484.202-.88.595-1.082 1.084-.2.484-.2 1.04 0 1.525.104.25.25.472.435.652l3.235 3.235L5 20l5.352-3.822 3.227 3.227c.185.19.405.34.655.44.247.104.503.155.766.155s.52-.052.766-.154c.498-.205.883-.592 1.08-1.078.103-.242.155-.507.155-.768 0-2.436.495-3.752.98-4.72.495-.993 1.368-1.75 2.753-2.415.27-.104.51-.256.71-.457.773-.782.77-2.05-.007-2.822zm-5.248 4.8c-.82 1.644-1.188 3.37-1.195 5.605L7 10c2.14 0 3.814-.335 5.396-1.084l.235-.105c1.4-.698 2.47-1.892 3.39-3.833l3.923 4.05c-1.863.894-3.056 1.96-3.755 3.36z"/></svg>