<svg version="1.1" xmlns="http://www.w3.org/2000/svg" xmlns:xlink="http://www.w3.org/1999/xlink" id="pin" viewBox="0 0 24 24"><path d="M16.73 4.27c-.39-.39-1.022-.392-1.415-.003-.104.104-.176.227-.225.355-.832 1.736-1.748 2.715-2.904 3.293C10.89 8.555 9.4 9 7 9c-.13 0-.26.025-.382.076-.245.102-.44.297-.54.54-.102.245-.102.52 0 .765.05.124.123.235.216.327l3.243 3.243L5 20l6.05-4.537 3.242 3.242c.092.094.203.166.326.217.122.05.252.078.382.078s.26-.027.382-.078c.245-.102.44-.295.54-.54.052-.122.078-.253.078-.382 0-2.4.444-3.89 1.083-5.166.577-1.156 1.556-2.072 3.293-2.904.13-.05.25-.12.354-.225.39-.393.387-1.025-.004-1.414L16.73 4.27z"/></svg>