<svg version="1.1" xmlns="http://www.w3.org/2000/svg" xmlns:xlink="http://www.w3.org/1999/xlink" id="pipette" viewBox="0 0 24 24"><path d="M21.384 7.33c.073-1.198-.354-2.387-1.146-3.178C19.506 3.422 18.445 3 17.326 3c-1.176 0-2.206.453-2.825 1.243-.69.883-1.39 2.625-1.768 3.647l-1.616-1.617c-.392-.39-1.023-.39-1.414 0-.392.392-.392 1.023 0 1.414l.293.293-5.23 5.232c-.376.375-.72.912-.97 1.516-.018.043-1.725 4.328-.092 5.96.527.525 1.33.706 2.178.706 1.78-.002 3.754-.787 3.784-.8.602-.25 1.14-.593 1.514-.968l5.232-5.232.293.293c.195.195.45.293.707.293s.512-.098.707-.293c.39-.39.39-1.022 0-1.414L16.5 11.657c1.023-.376 2.766-1.075 3.648-1.77.72-.56 1.17-1.492 1.236-2.556zM5.12 19.276c-.248-.295-.106-1.508.153-2.58l2.422 2.423c-1.07.26-2.283.403-2.576.157zm4.644-1.06c-.188.187-.51.387-.865.532l-.117.042-3.18-3.18.042-.118c.146-.354.346-.678.533-.864l5.232-5.23 3.586 3.585-5.232 5.23z"/></svg>