<svg version="1.1" xmlns="http://www.w3.org/2000/svg" xmlns:xlink="http://www.w3.org/1999/xlink" id="plane" viewBox="0 0 24 24"><path d="M19.996 13.507L14 10.08V4.126c0-.827-.673-1.5-1.5-1.5s-1.5.673-1.5 1.5v5.956l-5.996 3.427c-.44.25-.622.79-.426 1.256.197.466.71.713 1.196.573L11 13.844v4.45l-1.625 1.3c-.387.31-.488.857-.24 1.285s.777.607 1.236.424l2.13-.852 2.13.852c.12.048.246.07.37.07.347 0 .68-.18.864-.496.25-.428.147-.975-.24-1.284L14 18.294v-4.45l5.226 1.492.274.04c.394 0 .762-.234.922-.613.196-.466.014-1.005-.426-1.256zM12.5 4.375c-.276 0-.5-.224-.5-.5s.224-.5.5-.5.5.224.5.5-.224.5-.5.5z"/></svg>