<svg version="1.1" xmlns="http://www.w3.org/2000/svg" xmlns:xlink="http://www.w3.org/1999/xlink" id="plane-outline" viewBox="0 0 24 24"><path d="M20.988 12.396L16 9.546V4.75c0-1.93-1.57-3.5-3.5-3.5S9 2.82 9 4.75v4.795l-4.988 2.85c-1.317.753-1.865 2.372-1.276 3.77.59 1.4 2.132 2.135 3.59 1.72L9 17.12v.838l-.874.7c-1.198.958-1.48 2.666-.653 3.958.827 1.293 2.494 1.753 3.87 1.066.003 0 .5-.183 1.157-.183l1.158.182c1.375.687 3.042.227 3.87-1.066.826-1.292.544-3-.654-3.96L16 17.96v-.838l2.676.765c1.457.415 3-.32 3.59-1.72s.04-3.017-1.278-3.77zm-.566 2.992c-.197.466-.71.713-1.196.573L14 14.47v4.45l1.625 1.3c.4.32.493.89.218 1.32-.275.43-.828.583-1.29.355-.008-.004-.824-.395-2.053-.395s-2.045.39-2.053.395c-.462.227-1.015.074-1.29-.355-.275-.43-.182-1 .218-1.32L11 18.92v-4.45L5.774 15.96c-.485.14-1-.107-1.196-.573-.196-.467-.014-1.006.426-1.257L11 10.706V4.75c0-.827.673-1.5 1.5-1.5s1.5.673 1.5 1.5v5.956l5.996 3.426c.44.25.622.79.426 1.256z"/><circle cx="12.5" cy="4.5" r=".5"/></svg>