<svg version="1.1" xmlns="http://www.w3.org/2000/svg" xmlns:xlink="http://www.w3.org/1999/xlink" id="power-outline" viewBox="0 0 24 24"><path d="M17.51 6.062c-.814-.815-1.98-1.05-3.01-.73V5c0-1.656-1.344-3-3-3s-3 1.344-3 3v.332c-1.03-.32-2.195-.085-3.01.73C3.885 7.668 3 9.802 3 12.072s.885 4.406 2.49 6.012c1.604 1.605 3.74 2.49 6.01 2.49s4.405-.885 6.01-2.49c1.605-1.605 2.49-3.74 2.49-6.01s-.885-4.406-2.49-6.012zM10.5 5c0-.552.447-1 1-1s1 .448 1 1v5c0 .552-.447 1-1 1s-1-.448-1-1V5zm-1 3.803V10c0 1.104.896 2 2 2s2-.896 2-2V8.818c.095.284.248.554.475.78.66.66 1.025 1.54 1.025 2.475s-.364 1.814-1.025 2.476c-1.322 1.32-3.627 1.32-4.95 0C8.366 13.886 8 13.007 8 12.072s.364-1.814 1.025-2.476c.23-.23.383-.504.475-.794zm6.596 7.867c-1.228 1.228-2.86 1.903-4.596 1.903s-3.368-.676-4.596-1.903C5.677 15.442 5 13.81 5 12.073s.677-3.37 1.904-4.597c.39-.39 1.023-.39 1.414 0s.39 1.023 0 1.414C7.468 9.74 7 10.87 7 12.073s.468 2.333 1.318 3.183c.85.85 1.98 1.317 3.182 1.317s2.332-.468 3.182-1.317c.85-.85 1.318-1.98 1.318-3.183s-.468-2.333-1.318-3.183c-.39-.39-.39-1.023 0-1.414s1.023-.39 1.414 0C17.323 8.706 18 10.336 18 12.073s-.677 3.37-1.904 4.597z"/></svg>