<svg version="1.1" xmlns="http://www.w3.org/2000/svg" xmlns:xlink="http://www.w3.org/1999/xlink" id="power" viewBox="0 0 24 24"><path d="M11.5 18.573c-1.736 0-3.368-.676-4.596-1.903C5.677 15.442 5 13.81 5 12.073s.677-3.37 1.904-4.597c.39-.39 1.023-.39 1.414 0s.39 1.023 0 1.414C7.468 9.74 7 10.87 7 12.073s.468 2.333 1.318 3.183c.85.85 1.98 1.317 3.182 1.317s2.332-.468 3.182-1.317c.85-.85 1.318-1.98 1.318-3.183s-.468-2.333-1.318-3.183c-.39-.39-.39-1.023 0-1.414s1.023-.39 1.414 0C17.323 8.706 18 10.336 18 12.073s-.677 3.37-1.904 4.597c-1.228 1.227-2.86 1.903-4.596 1.903zm0-7.573c-.553 0-1-.448-1-1V5c0-.552.447-1 1-1s1 .448 1 1v5c0 .552-.447 1-1 1z"/></svg>