<svg version="1.1" xmlns="http://www.w3.org/2000/svg" xmlns:xlink="http://www.w3.org/1999/xlink" id="printer" viewBox="0 0 24 24"><path d="M17 5V3c0-.552-.448-1-1-1H7c-.552 0-1 .448-1 1v2C4.346 5 3 6.346 3 8v10c0 1.654 1.346 3 3 3h11c1.654 0 3-1.346 3-3V8c0-1.654-1.346-3-3-3zM8 4h7v5H8V4zM6 7v3c0 .552.448 1 1 1h9c.552 0 1-.448 1-1V7c.55 0 1 .45 1 1v2.5c0 .827-.673 1.5-1.5 1.5h-10c-.827 0-1.5-.673-1.5-1.5V8c0-.55.45-1 1-1zm11 12H6c-.55 0-1-.45-1-1v-5.513c.42.318.935.513 1.5.513h10c.565 0 1.08-.195 1.5-.513V18c0 .55-.45 1-1 1zM13.5 7h-4c-.276 0-.5.224-.5.5s.224.5.5.5h4c.276 0 .5-.224.5-.5s-.224-.5-.5-.5zm1.5 9H8c-.276 0-.5.224-.5.5s.224.5.5.5h7c.276 0 .5-.224.5-.5s-.224-.5-.5-.5zM13.5 5h-4c-.276 0-.5.224-.5.5s.224.5.5.5h4c.276 0 .5-.224.5-.5s-.224-.5-.5-.5z"/></svg>