<svg version="1.1" xmlns="http://www.w3.org/2000/svg" xmlns:xlink="http://www.w3.org/1999/xlink" id="puzzle" viewBox="0 0 24 24"><path d="M16.25 11.25c.364 0 .704.145.984.39.55.333.766-.033.766-.39V9.5c0-.825-.675-1.5-1.5-1.5h-2.75c-.356 0-.724-.216-.39-.766.245-.28.39-.62.39-.984 0-.967-1.007-1.75-2.25-1.75s-2.25.783-2.25 1.75c0 .3.095.576.255.823.507.673.136.927-.255.927H6.5C5.675 8 5 8.675 5 9.5v1.75c0 .39.254.762.928.244.246-.15.522-.244.822-.244.966 0 1.75 1.008 1.75 2.25s-.784 2.25-1.75 2.25c-.364 0-.704-.145-.984-.39-.55-.333-.766.033-.766.39v2.75c0 .825.675 1.5 1.5 1.5h2.75c.39 0 .762-.254.243-.927-.148-.247-.243-.523-.243-.823 0-.967 1.007-1.75 2.25-1.75s2.25.783 2.25 1.75c0 .365-.145.704-.39.984-.334.55.034.766.39.766h2.75c.825 0 1.5-.675 1.5-1.5v-2.75c0-.39-.254-.762-.928-.244-.246.15-.522.244-.822.244-.966 0-1.75-1.008-1.75-2.25s.784-2.25 1.75-2.25z"/></svg>