<svg version="1.1" xmlns="http://www.w3.org/2000/svg" xmlns:xlink="http://www.w3.org/1999/xlink" id="puzzle-outline" viewBox="0 0 24 24"><path d="M20 11.25V9.5C20 7.57 18.43 6 16.5 6h-.76c-.14-1.982-1.952-3.5-4.24-3.5S7.4 4.018 7.26 6H6.5C4.57 6 3 7.57 3 9.5v1.75c0 1.012.514 1.847 1.295 2.246-.358.188-.668.47-.894.825-.26.415-.4.91-.4 1.43v2.75C3 20.43 4.57 22 6.5 22h2.75c.976 0 1.83-.497 2.242-1.3l.036.067C11.963 21.54 12.794 22 13.75 22h2.75c1.93 0 3.5-1.57 3.5-3.5v-2.75c0-1.013-.515-1.85-1.297-2.247.776-.41 1.297-1.256 1.297-2.253zm-2 7.25c0 .825-.675 1.5-1.5 1.5h-2.75c-.356 0-.724-.216-.39-.766.245-.28.39-.62.39-.984 0-.967-1.007-1.75-2.25-1.75s-2.25.783-2.25 1.75c0 .3.095.576.255.823.507.673.136.927-.255.927H6.5c-.825 0-1.5-.675-1.5-1.5v-2.75c0-.258.113-.52.384-.52.104 0 .23.038.382.13.28.245.62.39.984.39.966 0 1.75-1.008 1.75-2.25s-.784-2.25-1.75-2.25c-.3 0-.576.095-.822.255-.237.17-.422.243-.562.243-.26 0-.366-.245-.366-.498V9.5C5 8.675 5.675 8 6.5 8h2.75c.39 0 .762-.254.243-.927-.148-.247-.243-.523-.243-.823 0-.967 1.007-1.75 2.25-1.75s2.25.783 2.25 1.75c0 .365-.145.704-.39.984-.334.55.034.766.39.766h2.75c.825 0 1.5.675 1.5 1.5v1.75c0 .258-.113.52-.384.52-.104 0-.23-.038-.382-.13-.28-.245-.62-.39-.984-.39-.966 0-1.75 1.008-1.75 2.25s.784 2.25 1.75 2.25c.3 0 .576-.095.822-.255.237-.17.422-.244.562-.243.26 0 .365.245.365.498v2.75zM5 12.694c.116.032.236.054.365.054.342 0 .683-.12 1.038-.364l.07-.04c.096-.064.187-.094.277-.094.354 0 .75.535.75 1.25s-.396 1.25-.75 1.25c-.108 0-.217-.048-.324-.142l-.143-.104c-.3-.183-.604-.275-.9-.275-.133 0-.26.022-.383.058v-1.594zm12.635 1.558c-.342 0-.683.12-1.038.364l-.07.04c-.096.064-.187.094-.276.094-.353 0-.75-.535-.75-1.25s.397-1.25.75-1.25c.11 0 .218.048.325.142l.143.104c.302.183.604.275.9.275.135 0 .26-.024.383-.06v1.596c-.116-.032-.236-.054-.365-.054zM10.692 20c.1-.346.093-.816-.305-1.396l-.044-.074c-.062-.098-.094-.19-.094-.28 0-.353.533-.75 1.25-.75s1.25.397 1.25.75c0 .11-.05.218-.144.326l-.104.142c-.325.537-.31.98-.22 1.284h-1.59z"/></svg>