<svg version="1.1" xmlns="http://www.w3.org/2000/svg" xmlns:xlink="http://www.w3.org/1999/xlink" id="radar-outline" viewBox="0 0 24 24"><path d="M11.997 4.5C7.312 4.5 3.5 8.312 3.5 13s3.813 8.5 8.5 8.5c4.688 0 8.5-3.812 8.5-8.5s-3.812-8.5-8.503-8.5zm.003 15c-3.584 0-6.5-2.916-6.5-6.5S8.414 6.5 12 6.5c3.584 0 6.5 2.916 6.5 6.5s-2.916 6.5-6.5 6.5zm3.348-7.47L15.5 12h.88c-.384-1.677-1.7-2.995-3.38-3.378V9.5c0 .55-.45 1-1 1-.497 0-.892-.37-.97-.846L11 9.5v-.88c-1.678.382-2.997 1.702-3.38 3.38h.88l.153.03c.476.077.847.473.847.97s-.37.893-.846.97L8.5 14h-.878c.384 1.677 1.702 2.995 3.378 3.38v-.88l.03-.154c.078-.476.473-.846.97-.846s.893.37.97.848l.03.152v.88c1.677-.384 2.996-1.703 3.38-3.38h-.88l-.152-.03c-.477-.077-.848-.473-.848-.97s.37-.893.848-.97zm-.446 2.868c-.264.4-.604.74-1.004 1.002-.256-.81-1.004-1.4-1.897-1.4s-1.64.59-1.897 1.4c-.4-.262-.74-.603-1.003-1.002.81-.256 1.4-1.006 1.4-1.898 0-.895-.59-1.643-1.4-1.898.262-.4.602-.74 1.003-1.002.256.81 1.005 1.4 1.898 1.4.895 0 1.645-.592 1.9-1.402.4.264.74.604 1.002 1.004-.81.256-1.4 1.006-1.4 1.898-.002.893.59 1.643 1.4 1.898z"/></svg>