<svg version="1.1" xmlns="http://www.w3.org/2000/svg" xmlns:xlink="http://www.w3.org/1999/xlink" id="refresh" viewBox="0 0 24 24"><path d="M12.872 13.19H18V8.065c-.008-1.135-.67-1.408-1.473-.605l-1.154 1.157c-1.015-.795-2.257-1.23-3.566-1.23-1.55 0-3.01.604-4.104 1.7C6.603 10.18 6 11.642 6 13.192c0 1.554.604 3.013 1.7 4.108C8.8 18.395 10.257 19 11.808 19c1.55 0 3.01-.605 4.106-1.703.296-.297.558-.62.78-.965.347-.54.19-1.26-.35-1.605-.54-.346-1.258-.19-1.604.35-.134.207-.293.4-.47.58-.658.658-1.533 1.02-2.463 1.02-.93 0-1.805-.36-2.464-1.02-.657-.658-1.02-1.533-1.02-2.465 0-.93.362-1.805 1.02-2.46.66-.66 1.534-1.022 2.464-1.022.688 0 1.346.2 1.91.572l-1.45 1.45c-.802.803-.53 1.46.605 1.46z"/></svg>