<svg version="1.1" xmlns="http://www.w3.org/2000/svg" xmlns:xlink="http://www.w3.org/1999/xlink" id="rss-outline" viewBox="0 0 24 24"><path d="M8 5C6.343 5 4.99 6.342 4.99 8l.004 9c0 2.208 1.793 4 4.002 4H18c1.654 0 3-1.346 3-3 0-7.18-5.82-13-13-13zm1 14c-1.104 0-2-.895-2-2-.002-1.105.894-2 2-2 1.106-.003 2.002.893 2 2 .002 1.105-.894 2-2 2zm4.5 0c-.83 0-1.5-.672-1.5-1.5 0-1.932-1.57-3.5-3.5-3.5-.83 0-1.5-.672-1.5-1.5S7.67 11 8.5 11c3.584 0 6.5 2.915 6.5 6.5 0 .828-.67 1.5-1.5 1.5zm4 0c-.83 0-1.5-.672-1.5-1.5 0-4.137-3.364-7.5-7.5-7.5C7.67 10 7 9.327 7 8.5S7.67 7 8.5 7C14.29 7 19 11.71 19 17.5c0 .828-.67 1.5-1.5 1.5z"/></svg>