<svg version="1.1" xmlns="http://www.w3.org/2000/svg" xmlns:xlink="http://www.w3.org/1999/xlink" id="scissors-outline" viewBox="0 0 24 24"><path d="M18.124 5.27l.25.013c.163.022.32.02.468.077.146.05.292.084.42.146.254.13.47.262.63.422.175.137.25.28.322.37l.108.147-.166-.074c-.105-.042-.258-.138-.442-.16-.13-.036-.282-.046-.442-.046l-.15.002-.318.06c-.103.01-.2.08-.295.114-.187.088-.35.203-.462.34l-.057.076c.452.477.733 1.115.733 1.824 0 1.47-1.195 2.668-2.666 2.668-.908 0-1.707-.457-2.19-1.15l-1.656 2.625c1.713 1.92 3.22 4.348 3.22 4.348 1.038 1.43-.788 3.948-.788 3.948l-3.552-6.522-3.55 6.522s-1.827-2.52-.79-3.947c0 0 1.507-2.427 3.22-4.347l-1.656-2.625c-.482.693-1.283 1.15-2.188 1.15-1.472 0-2.667-1.197-2.667-2.668 0-1.47 1.194-2.666 2.666-2.666.925 0 1.74.475 2.218 1.193.955 1.428 1.74 3.156 2.748 4.334 1.008-1.177 1.792-2.905 2.746-4.335.48-.717 1.295-1.19 2.22-1.19l.187.017.326-.188.384-.21c.132-.073.297-.108.45-.16.223-.07.474-.104.72-.104m-2.07 4.376c.274 0 .548-.104.757-.312.417-.416.417-1.092 0-1.508-.208-.208-.48-.312-.753-.312s-.545.104-.754.312l-.24.377c-.144.38-.066.826.24 1.13.207.21.48.313.752.313m-9.93 0c.27 0 .544-.104.75-.312.31-.305.383-.75.238-1.13l-.237-.378c-.207-.208-.48-.312-.753-.312s-.547.104-.755.312c-.417.416-.417 1.092 0 1.508.208.208.482.312.756.312m4.965 3.762c.217 0 .395-.178.395-.395 0-.22-.176-.396-.396-.396-.22 0-.395.176-.395.396 0 .217.176.395.394.395M18.123 3.27c-.448 0-.9.066-1.312.19l-.117.037c-.168.05-.426.126-.707.28l-.27.148c-1.39.102-2.657.815-3.468 1.96l-.08.11c-.39.583-.74 1.19-1.08 1.783-.34-.592-.69-1.2-1.082-1.784l-.078-.107c-.877-1.24-2.29-1.974-3.807-1.974-2.574 0-4.667 2.093-4.667 4.666s2.094 4.667 4.667 4.667c.31 0 .61-.03.908-.09-1.015 1.338-1.776 2.53-1.947 2.803-1.714 2.467.392 5.62.835 6.23.377.52.98.825 1.62.825l.128-.004c.686-.043 1.3-.436 1.628-1.038l1.795-3.298 1.794 3.298c.328.604.943.995 1.628 1.04l.13.003c.638 0 1.24-.306 1.618-.826.443-.61 2.55-3.765.834-6.23-.17-.27-.932-1.465-1.947-2.803.295.06.6.09.908.09 2.573 0 4.668-2.095 4.668-4.668l-.004-.18c.466-.096.897-.356 1.2-.758.546-.73.535-1.733-.033-2.445l-.05-.067-.038-.053c-.103-.146-.28-.394-.573-.644-.35-.326-.738-.547-1.045-.705-.275-.136-.488-.2-.628-.244l-.062-.02c-.333-.117-.622-.146-.784-.16l-.054-.006-.086-.01-.444-.018z"/></svg>