<svg version="1.1" xmlns="http://www.w3.org/2000/svg" xmlns:xlink="http://www.w3.org/1999/xlink" id="scissors" viewBox="0 0 24 24"><path d="M20.625 5.515c-1-1.522-2.915-1.67-4.397-.824l-.186.108-.076-.003c-1.042 0-2.01.51-2.604 1.37l-.034.044c-.43.644-.723 1.235-1.005 1.808-.255.516-.5 1.01-.824 1.483-.326-.474-.57-.97-.827-1.485-.283-.57-.575-1.162-1.004-1.806l-.034-.045c-.593-.86-1.562-1.37-2.603-1.37-1.747 0-3.167 1.42-3.167 3.166 0 1.748 1.42 3.17 3.167 3.17.775 0 1.515-.288 2.087-.792l.652 1.198c-1.62 1.876-2.98 4.054-3.02 4.12-1.235 1.703.706 4.42.79 4.535.094.132.245.208.405.208.204-.012.357-.11.44-.26l3.11-5.718 3.114 5.717c.083.15.236.25.408.26.174.02.336-.066.437-.206.083-.113 2.024-2.83.81-4.503l-.324-.52c-1.075-1.737-1.186-1.917-2.714-3.635l.65-1.195c.573.504 1.314.79 2.09.79 1.745 0 3.166-1.42 3.166-3.167 0-.634-.19-1.246-.547-1.768.472-.27.997-.123 1.456.095.467.19.898-.377.585-.772zM7 9c-.552 0-1-.447-1-1s.448-1 1-1 1 .447 1 1-.448 1-1 1zm4.5 3.395c-.277 0-.5-.225-.5-.5 0-.277.223-.5.5-.5s.5.223.5.5c0 .275-.223.5-.5.5zM16 9c-.552 0-1-.447-1-1s.448-1 1-1 1 .447 1 1-.448 1-1 1z"/></svg>