<svg version="1.1" xmlns="http://www.w3.org/2000/svg" xmlns:xlink="http://www.w3.org/1999/xlink" id="social-dribbble-circular" viewBox="0 0 24 24"><path d="M12 21c-4.962 0-9-4.037-9-9s4.038-9 9-9 9 4.037 9 9-4.038 9-9 9zm0-16c-3.86 0-7 3.14-7 7s3.14 7 7 7 7-3.14 7-7-3.14-7-7-7zm0 1.5c-3.033 0-5.5 2.468-5.5 5.5s2.467 5.5 5.5 5.5 5.5-2.468 5.5-5.5-2.467-5.5-5.5-5.5zm4.49 5.402c-1.048-.186-2.1-.18-3.103.042-.127-.326-.267-.647-.417-.965.875-.525 1.652-1.222 2.284-2.07.746.784 1.21 1.833 1.236 2.992zm-2-3.646c-.546.748-1.215 1.367-1.975 1.832-.48-.856-1.046-1.663-1.692-2.412C11.2 7.573 11.59 7.5 12 7.5c.92 0 1.776.28 2.49.756zm-4.64-.184c.686.758 1.277 1.59 1.775 2.473-1.238.53-2.622.69-3.998.437.293-1.26 1.118-2.302 2.222-2.91zM7.5 12c.468.064.936.12 1.4.12 1.105 0 2.186-.243 3.184-.682.123.26.238.524.344.793-1.47.527-2.77 1.49-3.728 2.806-.738-.802-1.2-1.862-1.2-3.036zm1.948 3.7c.842-1.19 2.004-2.058 3.318-2.528.314 1 .518 2.04.596 3.095-.433.138-.884.233-1.362.233-.948 0-1.826-.298-2.552-.8zm4.872.136c-.1-1-.296-1.983-.593-2.937.87-.177 1.778-.173 2.683 0-.256 1.247-1.035 2.296-2.09 2.936z"/></svg>