<svg version="1.1" xmlns="http://www.w3.org/2000/svg" xmlns:xlink="http://www.w3.org/1999/xlink" id="social-dribbble" viewBox="0 0 24 24"><path d="M12 3c-4.962 0-9 4.037-9 9s4.038 9 9 9 9-4.037 9-9-4.038-9-9-9zm6.962 8.275c-1.765-.29-3.534-.187-5.205.262-.18-.436-.383-.86-.59-1.283 1.422-.81 2.685-1.912 3.713-3.262 1.143 1.113 1.91 2.61 2.082 4.283zM16.13 6.36c-.94 1.244-2.1 2.26-3.4 3.01-.783-1.445-1.73-2.8-2.808-4.056C10.58 5.11 11.277 5 12 5c1.545 0 2.97.51 4.13 1.36zm-7.183-.65c1.12 1.266 2.093 2.646 2.892 4.118-2.062.957-4.397 1.294-6.718.9.408-2.213 1.86-4.06 3.825-5.017zM5 12l.015-.294c.676.11 1.353.188 2.024.188 1.826 0 3.606-.426 5.236-1.187.182.373.365.744.525 1.127-2.428.866-4.582 2.486-6.1 4.726C5.644 15.333 5 13.742 5 12zm2.393 5.257c1.43-2.13 3.465-3.673 5.764-4.487.683 1.854 1.123 3.795 1.292 5.78-.764.286-1.588.45-2.45.45-1.765 0-3.375-.66-4.607-1.743zm8.014.852c-.196-1.933-.63-3.823-1.293-5.633 1.564-.404 3.222-.486 4.87-.19-.1 2.502-1.515 4.668-3.577 5.822z"/></svg>