<svg version="1.1" xmlns="http://www.w3.org/2000/svg" xmlns:xlink="http://www.w3.org/1999/xlink" id="social-vimeo-circular" viewBox="0 0 24 24"><path d="M14.463 9.14c-.512 0-.988.24-1.43.716-.31.312-.5.678-.566 1.1.207-.13.387-.195.54-.195.16 0 .29.07.394.213.2.278.19.63-.032 1.05-.49.935-.846 1.4-1.066 1.4-.156 0-.356-.52-.602-1.566-.043-.155-.088-.378-.133-.667-.045-.288-.088-.538-.133-.75-.045-.21-.11-.428-.2-.65s-.2-.383-.333-.482c-.093-.07-.2-.104-.326-.104l-.173.02c-.288.068-.622.246-1 .535-.378.287-.688.565-.933.832l-.334.4.3.4.167-.134c.066-.045.19-.1.367-.167l.19-.042c.07 0 .117.025.144.076.067.09.272.717.616 1.884.346 1.167.562 1.84.65 2.017.156.31.367.55.633.717.13.08.27.12.426.12.165 0 .346-.046.54-.138.6-.4 1.29-1.066 2.067-2 .778-.933 1.255-1.922 1.433-2.966.156-.91-.11-1.434-.8-1.567-.137-.034-.27-.05-.403-.05zM12 21c-4.963 0-9-4.037-9-9s4.037-9 9-9 9 4.037 9 9-4.037 9-9 9zm0-16c-3.86 0-7 3.14-7 7s3.14 7 7 7 7-3.14 7-7-3.14-7-7-7z"/></svg>