<svg version="1.1" xmlns="http://www.w3.org/2000/svg" xmlns:xlink="http://www.w3.org/1999/xlink" id="social-at-circular" viewBox="0 0 24 24"><path d="M11.844 7.5c-2.48 0-4.438 2.02-4.438 4.5s2.05 4.5 4.53 4.5c.91 0 1.8-.27 2.548-.778.228-.155.295-.466.14-.694-.156-.23-.463-.287-.692-.132-.58.396-1.258.604-1.965.604-1.93 0-3.5-1.57-3.5-3.5s1.447-3.5 3.377-3.5 3.375 1.57 3.375 3.5v.25c0 .414-.337.75-.75.75s-.75-.336-.75-.75V10.5c0-.276-.1-.5-.376-.5-.205 0-.318.124-.396.3-.303-.187-.628-.3-1.01-.3-1.104 0-1.984.896-1.984 2s.904 2 2.008 2c.562 0 1.073-.235 1.438-.61.32.37.664.61 1.192.61.965 0 1.627-.785 1.627-1.75V12c0-2.48-1.895-4.5-4.376-4.5zm.125 5.5c-.552 0-1-.45-1-1s.448-1 1-1 1 .45 1 1-.45 1-1 1zm.03 8c-4.963 0-9-4.037-9-9s4.037-9 9-9 9 4.037 9 9-4.037 9-9 9zm0-16c-3.86 0-7 3.14-7 7s3.14 7 7 7 7-3.14 7-7-3.14-7-7-7z"/></svg>