<svg version="1.1" xmlns="http://www.w3.org/2000/svg" xmlns:xlink="http://www.w3.org/1999/xlink" id="social-tumbler" viewBox="0 0 24 24"><path d="M15.527 17.92v-2.065c-.67.448-1.32.67-1.952.67-.298 0-.63-.094-1.004-.277-.222-.15-.353-.317-.392-.503-.11-.224-.178-.708-.178-1.454V11h3V9h-3V5.644h-1.772c-.15.782-.298 1.338-.448 1.673-.184.41-.482.782-.89 1.116-.412.337-.838.577-1.286.725V11H9v4.52c0 .52.073.965.223 1.338.11.298.334.595.67.893.26.263.632.485 1.116.67.594.15 1.113.224 1.56.224.52 0 1.005-.056 1.45-.167.522-.112 1.024-.298 1.507-.556"/></svg>