<svg version="1.1" xmlns="http://www.w3.org/2000/svg" xmlns:xlink="http://www.w3.org/1999/xlink" id="social-github-circular" viewBox="0 0 24 24"><path d="M12 21c-4.963 0-9-4.038-9-9s4.037-9 9-9 9 4.038 9 9-4.037 9-9 9zm0-16c-3.86 0-7 3.14-7 7s3.14 7 7 7 7-3.14 7-7-3.14-7-7-7zm1.565 7.626c.17 0 .316.084.44.255.125.17.188.38.188.626 0 .248-.062.457-.187.626-.125.17-.27.254-.44.254-.182 0-.338-.084-.462-.254-.124-.17-.187-.378-.187-.626s.062-.456.187-.625c.125-.17.28-.254.46-.254m2.21-2.29c.483.523.726 1.156.726 1.9 0 .48-.057.914-.166 1.3-.11.384-.252.698-.42.94-.17.24-.378.453-.627.634-.25.184-.478.316-.685.4-.208.086-.446.15-.716.197-.266.047-.467.072-.606.08l-.44.008-.352.01-.488.01-.488-.01-.352-.01-.44-.01c-.14-.006-.34-.03-.606-.078-.27-.045-.508-.11-.716-.196-.207-.083-.436-.216-.684-.4-.25-.182-.457-.394-.628-.635-.168-.24-.31-.555-.42-.94-.11-.385-.166-.818-.166-1.3 0-.743.242-1.376.725-1.898-.053-.026-.056-.286-.008-.782.043-.496.148-.953.32-1.37.6.064 1.342.404 2.23 1.017.3-.078.71-.118 1.232-.118.548 0 .958.04 1.233.118.404-.273.79-.496 1.16-.666.374-.168.644-.267.814-.293l.254-.058c.173.417.278.875.32 1.37.05.496.048.756-.005.782m-3.754 5.027c1.084 0 1.9-.13 2.455-.39.553-.26.833-.796.833-1.605 0-.47-.176-.862-.53-1.175-.18-.17-.393-.273-.637-.313-.237-.04-.606-.04-1.103 0-.495.04-.834.058-1.016.058-.247 0-.516-.013-.85-.04l-.783-.048c-.19-.006-.395.018-.616.07-.222.052-.403.142-.55.272-.335.3-.506.69-.506 1.174 0 .81.274 1.345.82 1.605.548.26 1.362.39 2.445.39m-1.525-2.737c.17 0 .316.084.44.255.124.17.187.38.187.626 0 .248-.062.457-.187.626-.124.17-.27.254-.44.254-.182 0-.337-.084-.462-.254-.124-.17-.187-.378-.187-.626s.062-.456.187-.625c.125-.17.28-.254.462-.254"/></svg>