<svg version="1.1" xmlns="http://www.w3.org/2000/svg" xmlns:xlink="http://www.w3.org/1999/xlink" id="social-facebook-circular" viewBox="0 0 24 24"><path d="M18.354 5.624C16.604 3.884 14.466 3 12 3c-2.49 0-4.633.884-6.373 2.625C3.884 7.365 3 9.512 3 12c0 2.465.883 4.603 2.624 6.354C7.364 20.11 9.51 21 12 21c2.467 0 4.605-.89 6.356-2.643C20.11 16.604 21 14.465 21 12c0-2.488-.89-4.634-2.646-6.376zm-1.412 11.32C15.805 18.08 14.506 18.73 13 18.927V14h2v-2h-2v-1.4c0-.33.27-.6.6-.6H15V8h-1.397c-.742 0-1.36.273-1.857.822C11.25 9.37 11 10.037 11 10.83V12H9v2h2v4.93c-1.522-.195-2.826-.845-3.957-1.984C5.668 15.562 5 13.944 5 12c0-1.966.667-3.588 2.042-4.96C8.412 5.667 10.034 5 12 5c1.945 0 3.562.668 4.945 2.043C18.328 8.415 19 10.037 19 12c0 1.94-.673 3.56-2.058 4.943z"/></svg>