<svg version="1.1" xmlns="http://www.w3.org/2000/svg" xmlns:xlink="http://www.w3.org/1999/xlink" id="social-last-fm-circular" viewBox="0 0 24 24"><path d="M12 21c-2.49 0-4.635-.89-6.376-2.646C3.884 16.604 3 14.464 3 12c0-2.49.884-4.633 2.627-6.375C7.367 3.885 9.512 3 12 3c2.466 0 4.604.883 6.354 2.624C20.11 7.366 21 9.51 21 12c0 2.464-.89 4.604-2.644 6.357C16.606 20.11 14.466 21 12 21zm0-16c-1.966 0-3.588.667-4.958 2.04C5.668 8.412 5 10.034 5 12c0 1.944.668 3.562 2.043 4.945C8.415 18.328 10.036 19 12 19c1.943 0 3.56-.673 4.94-2.056C18.328 15.56 19 13.942 19 12c0-1.963-.672-3.585-2.055-4.957C15.562 5.668 13.945 5 12 5zm2.2 9.333c1.334 0 2-.444 2-1.333 0-.733-.423-1.2-1.268-1.4l-.632-.133c-.354-.09-.534-.277-.534-.566 0-.333.224-.5.666-.5.49 0 .746.19.767.566l.966-.1c-.063-.822-.622-1.233-1.666-1.233-1.134 0-1.7.467-1.7 1.4 0 .666.366 1.09 1.1 1.268l.668.134c.443.11.666.312.666.6 0 .355-.345.533-1.034.533-.844 0-1.398-.41-1.666-1.233l-.334-.967c-.2-.644-.45-1.095-.75-1.35-.3-.255-.77-.384-1.416-.384-.6 0-1.128.223-1.584.667-.456.445-.683 1.033-.683 1.767 0 .688.216 1.24.65 1.65.434.412.95.616 1.55.616.6 0 1.077-.144 1.433-.433l-.3-.834c-.31.312-.678.468-1.1.468-.354 0-.662-.14-.916-.417-.257-.277-.385-.64-.385-1.084 0-.556.138-.96.416-1.217s.594-.383.95-.383c.38 0 .65.1.817.3.167.2.315.51.45.934l.3.967c.356 1.133 1.212 1.7 2.566 1.7"/></svg>