<svg version="1.1" xmlns="http://www.w3.org/2000/svg" xmlns:xlink="http://www.w3.org/1999/xlink" id="social-tumbler-circular" viewBox="0 0 24 24"><path d="M14.377 15.59v-1.234c-.4.268-.788.4-1.166.4-.177 0-.376-.057-.6-.166-.133-.09-.21-.19-.233-.3-.066-.134-.1-.423-.1-.868v-1.966h1.834v-1.233h-1.833V8.256H11.21c-.088.467-.177.8-.266 1-.11.244-.288.467-.533.666-.244.2-.5.345-.766.434v1.1h.833v2.7c0 .312.044.577.134.8.067.178.2.355.4.533.155.155.378.288.667.4.355.09.666.132.934.132.312 0 .6-.033.867-.1.312-.067.612-.178.9-.332"/><path d="M12 21c-4.963 0-9-4.037-9-9s4.037-9 9-9 9 4.037 9 9-4.037 9-9 9zm0-16c-3.86 0-7 3.14-7 7s3.14 7 7 7 7-3.14 7-7-3.14-7-7-7z"/></svg>