<svg version="1.1" xmlns="http://www.w3.org/2000/svg" xmlns:xlink="http://www.w3.org/1999/xlink" id="social-vimeo" viewBox="0 0 24 24"><path d="M18.92 8.776c-.33 1.93-1.21 3.758-2.65 5.48-1.435 1.725-2.71 2.957-3.818 3.695-.7.332-1.293.34-1.786.035-.493-.31-.883-.75-1.17-1.325-.164-.328-.564-1.57-1.2-3.728-.637-2.155-1.018-3.315-1.14-3.48-.083-.162-.288-.183-.616-.06-.33.122-.555.226-.678.31-.123.08-.226.164-.308.244L5 9.21l.616-.74c.452-.493 1.026-1.008 1.724-1.54.7-.535 1.314-.863 1.848-.988.37-.08.68-.028.924.156.247.184.452.484.616.894.165.41.29.81.37 1.2.082.39.164.853.247 1.386.08.534.164.945.246 1.232.452 1.93.822 2.896 1.11 2.896.41 0 1.067-.863 1.97-2.59.41-.78.433-1.426.063-1.94-.37-.513-.943-.523-1.724-.03.122-.78.47-1.456 1.045-2.03 1.026-1.11 2.157-1.522 3.388-1.235 1.273.248 1.765 1.214 1.477 2.896z"/></svg>