<svg version="1.1" xmlns="http://www.w3.org/2000/svg" xmlns:xlink="http://www.w3.org/1999/xlink" id="social-twitter-circular" viewBox="0 0 24 24"><path d="M15.28 10.283c.357-.22.596-.52.712-.904-.35.185-.697.31-1.045.382-.312-.336-.708-.507-1.182-.507-.464 0-.855.163-1.175.48-.317.317-.478.705-.478 1.157 0 .137.017.26.052.364-1.368-.048-2.5-.614-3.39-1.706-.152.267-.228.54-.228.82 0 .578.244 1.036.73 1.373-.277-.023-.52-.094-.73-.21 0 .414.12.76.365 1.063.244.3.558.492.94.573-.14.035-.285.052-.435.052-.14 0-.237-.012-.296-.037.103.337.295.61.573.818.277.21.597.32.957.33-.59.465-1.27.694-2.035.694-.188 0-.32-.002-.4-.017.754.49 1.594.733 2.52.733.952 0 1.793-.24 2.523-.723.73-.48 1.27-1.07 1.617-1.767.348-.695.52-1.42.52-2.174v-.21c.337-.253.61-.538.82-.854-.3.133-.612.222-.936.267zM12 21c-2.49 0-4.635-.89-6.376-2.646C3.884 16.604 3 14.464 3 12c0-2.488.884-4.634 2.627-6.375C7.367 3.885 9.51 3 12 3c2.466 0 4.604.883 6.354 2.624C20.11 7.366 21 9.512 21 12c0 2.465-.89 4.604-2.644 6.357C16.606 20.11 14.466 21 12 21zm0-16c-1.966 0-3.588.667-4.958 2.04C5.667 8.412 5 10.034 5 12c0 1.944.668 3.562 2.043 4.945C8.415 18.328 10.036 19 12 19c1.943 0 3.56-.673 4.942-2.057C18.327 15.56 19 13.94 19 12c0-1.963-.672-3.585-2.055-4.957C15.562 5.668 13.945 5 12 5z"/></svg>