<svg version="1.1" xmlns="http://www.w3.org/2000/svg" xmlns:xlink="http://www.w3.org/1999/xlink" id="social-pinterest" viewBox="0 0 24 24"><path d="M12.486 4.77c-4.23 0-6.363 3.034-6.363 5.563 0 1.533.58 2.894 1.823 3.4.205.085.387.005.446-.22l.182-.717c.06-.22.037-.3-.127-.495-.36-.42-.588-.97-.588-1.746 0-2.25 1.682-4.264 4.383-4.264 2.392 0 3.706 1.463 3.706 3.412 0 2.568-1.138 4.734-2.825 4.734-.932 0-1.63-.77-1.405-1.715.268-1.13.786-2.346.786-3.16 0-.728-.392-1.335-1.2-1.335-.952 0-1.718.984-1.718 2.304 0 .84.286 1.408.286 1.408L8.728 16.79c-.34 1.44-.05 3.206-.025 3.385.013.104.15.13.21.05.088-.114 1.223-1.516 1.607-2.914.11-.395.627-2.444.627-2.444.31.59 1.213 1.108 2.175 1.108 2.863 0 4.804-2.608 4.804-6.103-.003-2.64-2.24-5.1-5.64-5.1z"/></svg>