<svg version="1.1" xmlns="http://www.w3.org/2000/svg" xmlns:xlink="http://www.w3.org/1999/xlink" id="social-pinterest-circular" viewBox="0 0 24 24"><path d="M12 21c-4.963 0-9-4.037-9-9s4.037-9 9-9 9 4.037 9 9-4.037 9-9 9zm0-16c-3.86 0-7 3.14-7 7s3.14 7 7 7 7-3.14 7-7-3.14-7-7-7zm.335 3c-2.468 0-3.712 1.77-3.712 3.244 0 .895.338 1.688 1.063 1.984.12.05.226.002.26-.13l.106-.417c.035-.128.02-.174-.074-.288-.21-.246-.344-.566-.344-1.02 0-1.31.982-2.486 2.558-2.486 1.396 0 2.16.853 2.16 1.99 0 1.498-.66 2.762-1.645 2.762-.543 0-.95-.45-.82-1 .156-.66.46-1.37.46-1.844 0-.426-.23-.78-.7-.78-.557 0-1.003.575-1.003 1.345 0 .49.166.82.166.82l-.67 2.83c-.197.84-.028 1.87-.014 1.975.008.062.087.077.123.03.05-.067.712-.885.937-1.7.064-.23.366-1.427.366-1.427.18.344.707.646 1.268.646 1.67 0 2.804-1.52 2.804-3.56 0-1.538-1.306-2.974-3.29-2.974z"/></svg>