<svg version="1.1" xmlns="http://www.w3.org/2000/svg" xmlns:xlink="http://www.w3.org/1999/xlink" id="social-last-fm" viewBox="0 0 24 24"><path d="M15.942 16.182c2.374 0 3.558-.79 3.558-2.373 0-1.305-.75-2.133-2.254-2.49l-1.12-.236c-.636-.16-.95-.495-.95-1.01 0-.593.396-.888 1.186-.888.87 0 1.323.334 1.363 1.006l1.717-.178c-.114-1.463-1.11-2.195-2.962-2.195-2.02 0-3.026.83-3.026 2.494 0 1.182.654 1.935 1.958 2.25l1.188.237c.79.197 1.186.556 1.186 1.07 0 .63-.614.948-1.842.948-1.498 0-2.49-.732-2.962-2.195l-.597-1.72C12.03 9.756 11.59 8.954 11.05 8.5c-.53-.45-1.366-.682-2.518-.682-1.07 0-2.007.396-2.815 1.188-.81.79-1.217 1.838-1.217 3.142 0 1.223.383 2.203 1.156 2.935.774.733 1.688 1.1 2.756 1.1 1.07 0 1.918-.257 2.55-.77l-.53-1.486c-.554.556-1.21.833-1.96.833-.63 0-1.175-.248-1.628-.744-.455-.492-.686-1.137-.686-1.927 0-.99.247-1.71.743-2.164.498-.455 1.057-.68 1.69-.68.674 0 1.155.176 1.457.53.296.356.56.91.797 1.66l.537 1.722c.633 2.014 2.155 3.024 4.562 3.024"/></svg>