<svg version="1.1" xmlns="http://www.w3.org/2000/svg" xmlns:xlink="http://www.w3.org/1999/xlink" id="sort-alphabetically-outline" viewBox="0 0 24 24"><path d="M5.618 14h2.764L7 11.236zM21 14l2.4-3.2c.686-.915.795-2.12.284-3.142C23.172 6.635 22.144 6 21 6h-6c-1.654 0-3 1.346-3 3 0 .77.295 1.47.774 2H12.5c-.368 0-.708.107-1.005.28L9.685 7.66C9.184 6.663 8.156 6.044 7 6.044s-2.186.62-2.684 1.614l-4 8c-.358.717-.416 1.53-.163 2.29s.788 1.377 1.504 1.736C2.07 19.89 2.537 20 3 20c1.142 0 2.17-.635 2.683-1.657l.17-.343h2.292l.17.342C8.83 19.365 9.856 20 11 20c.464 0 .928-.11 1.342-.316.243-.122.455-.282.652-.458.54.488 1.246.774 2.006.774h6c1.654 0 3-1.346 3-3s-1.346-3-3-3zm-9.553 3.895c-.143.07-.296.105-.446.105-.367 0-.72-.203-.895-.553L9.382 16H4.618l-.724 1.447C3.72 17.797 3.366 18 3 18c-.15 0-.304-.034-.447-.106-.494-.247-.694-.848-.447-1.342l4-8c.17-.338.532-.508.894-.508s.725.17.895.508l4 8c.247.495.046 1.095-.448 1.343zM12.5 14c-.552 0-1-.448-1-1s.448-1 1-1h1c.552 0 1 .448 1 1s-.448 1-1 1h-1zm8.5 4h-6c-.38 0-.725-.214-.895-.553s-.132-.744.095-1.047L19 10h-4c-.552 0-1-.448-1-1s.448-1 1-1h6c.38 0 .725.214.895.553s.132.744-.095 1.047L17 16h4c.552 0 1 .448 1 1s-.448 1-1 1z"/></svg>