<svg version="1.1" xmlns="http://www.w3.org/2000/svg" xmlns:xlink="http://www.w3.org/1999/xlink" id="sort-numerically-outline" viewBox="0 0 24 24"><path d="M23.292 12.134c.138-.445.208-.91.208-1.384C23.5 8.13 21.37 6 18.75 6c-1.396 0-2.685.61-3.573 1.632l-.056-.067c-.972-.974-2.348-1.533-3.775-1.533-1.422 0-2.794.556-3.77 1.525-.264-.43-.644-.813-1.122-1.108C5.98 6.154 5.42 6 4.84 6c-.482 0-.955.11-1.37.316l-1.405.747C.623 7.783.015 9.59.752 11.065c.272.543.714.982 1.248 1.272V17c0 1.654 1.346 3 3 3 .766 0 1.458-.297 1.99-.77.54.486 1.25.77 2.01.77h5c.778 0 1.48-.305 2.01-.795.796.5 1.73.795 2.74.795 2.895 0 5.25-2.355 5.25-5.25 0-.922-.25-1.825-.708-2.616zM6 17c0 .552-.448 1-1 1s-1-.448-1-1v-6.382c-.144.072-.306.106-.47.106-.402 0-.814-.203-.99-.553-.246-.493-.03-1.094.464-1.34l1.36-.725c.142-.07.308-.105.476-.105.2 0 .4.05.56.15.295.182.6.503.6.85v8zm8 1H9c-.404 0-.77-.244-.924-.617-.155-.374-.07-.804.217-1.09l4-4c.254-.254.394-.59.394-.95 0-.358-.14-.695-.394-.95s-.6-.38-.95-.38-.695.127-.95.382c-.253.252-.393.59-.393.948 0 .552-.448 1-1 1s-1-.448-1-1c0-.894.348-1.733.98-2.364.632-.632 1.498-.948 2.364-.948s1.73.316 2.363.948c.632.63.98 1.47.98 2.363s-.35 1.733-.98 2.364L11.414 16H14c.552 0 1 .448 1 1s-.448 1-1 1zm4.75 0c-1.792 0-3.25-1.458-3.25-3.25 0-.552.448-1 1-1s1 .448 1 1c0 .69.56 1.25 1.25 1.25S20 15.44 20 14.75s-.56-1.25-1.25-1.25c-.552 0-1-.448-1-1s.448-1 1-1c.414 0 .75-.336.75-.75s-.336-.75-.75-.75c-.28 0-.536.155-.665.404-.178.343-.527.54-.89.54-.154 0-.31-.036-.458-.112-.49-.254-.682-.857-.428-1.348C16.783 8.57 17.72 8 18.75 8c1.516 0 2.75 1.233 2.75 2.75 0 .61-.207 1.17-.545 1.627.64.594 1.045 1.434 1.045 2.373 0 1.792-1.458 3.25-3.25 3.25z"/></svg>