<svg version="1.1" xmlns="http://www.w3.org/2000/svg" xmlns:xlink="http://www.w3.org/1999/xlink" id="sort-numerically" viewBox="0 0 24 24"><path d="M4 18c-.552 0-1-.448-1-1v-6.382l-.553.276c-.495.248-1.095.046-1.342-.447-.247-.494-.046-1.094.448-1.342l2-1c.31-.155.678-.14.973.044C4.82 8.33 5 8.652 5 9v8c0 .552-.448 1-1 1zm9 0H8c-.404 0-.77-.244-.924-.617-.155-.374-.07-.804.217-1.09l4-4c.254-.254.394-.59.394-.95 0-.358-.14-.695-.394-.95-.508-.507-1.39-.507-1.9.002-.253.252-.393.59-.393.948 0 .552-.448 1-1 1s-1-.448-1-1c0-.894.348-1.733.98-2.364 1.265-1.264 3.464-1.264 4.727 0 .632.63.98 1.47.98 2.363s-.35 1.733-.98 2.364L10.414 16H13c.552 0 1 .448 1 1s-.448 1-1 1zm7.955-5.623c.338-.457.545-1.016.545-1.627C21.5 9.233 20.266 8 18.75 8c-1.03 0-1.966.57-2.44 1.484-.254.49-.063 1.094.428 1.348.49.254 1.094.062 1.348-.428.128-.25.383-.404.664-.404.414 0 .75.336.75.75s-.336.75-.75.75c-.552 0-1 .448-1 1s.448 1 1 1c.69 0 1.25.56 1.25 1.25S19.44 16 18.75 16s-1.25-.56-1.25-1.25c0-.552-.448-1-1-1s-1 .448-1 1c0 1.792 1.458 3.25 3.25 3.25S22 16.542 22 14.75c0-.94-.406-1.78-1.045-2.373z"/></svg>