<svg version="1.1" xmlns="http://www.w3.org/2000/svg" xmlns:xlink="http://www.w3.org/1999/xlink" id="sort-alphabetically" viewBox="0 0 24 24"><path d="M10.895 16.553l-4-8c-.34-.678-1.45-.678-1.79 0l-4 8c-.246.494-.046 1.095.448 1.342.495.248 1.095.046 1.342-.447L3.618 16h4.764l.724 1.447c.175.35.528.553.895.553.15 0 .304-.034.447-.105.494-.248.695-.848.448-1.342zM4.618 14L6 11.236 7.382 14H4.618zM22 18h-6c-.38 0-.725-.214-.895-.553s-.132-.744.095-1.047L20 10h-4c-.552 0-1-.448-1-1s.448-1 1-1h6c.38 0 .725.214.895.553s.132.744-.095 1.047L18 16h4c.552 0 1 .448 1 1s-.448 1-1 1zm-8-4h-2c-.552 0-1-.448-1-1s.448-1 1-1h2c.552 0 1 .448 1 1s-.448 1-1 1z"/></svg>