<svg version="1.1" xmlns="http://www.w3.org/2000/svg" xmlns:xlink="http://www.w3.org/1999/xlink" id="spanner-outline" viewBox="0 0 24 24"><circle cx="8" cy="16" r="1"/><path d="M20.733 4.657c-.392-.378-1.013-.377-1.4.01.388-.387.39-1.01.01-1.4C18.267 2.473 16.94 2 15.5 2 11.91 2 9 4.91 9 8.5l.03.38c-.336.238-2.892 2.146-4.257 3.3C3.638 13.17 3 14.555 3 16c0 2.757 2.243 5 5 5 1.465 0 2.854-.65 3.81-1.784 1.174-1.375 3.08-3.923 3.318-4.23L15.5 15c3.59 0 6.5-2.91 6.5-6.5 0-1.44-.474-2.766-1.267-3.843zM8 19c-1.656 0-3-1.343-3-3 0-.92.423-1.732 1.064-2.292 2.368-2.002 3.617-2.748 5.115-4.015C11.073 9.31 11 8.916 11 8.5 11 6.015 13.015 4 15.5 4c.47 0 .914.092 1.34.226L14 7l.5 2.5 2.5.5 2.805-2.74c.115.395.195.806.195 1.24 0 2.485-2.015 4.5-4.5 4.5-.416 0-.81-.074-1.193-.18-1.267 1.498-2.013 2.748-4.024 5.105C9.733 18.577 8.92 19 8 19zM19.384 6.27L16.68 8.917l-1.33-.266-.263-1.314 2.726-2.663c.65.393 1.19.94 1.57 1.598z"/></svg>