<svg version="1.1" xmlns="http://www.w3.org/2000/svg" xmlns:xlink="http://www.w3.org/1999/xlink" id="spanner" viewBox="0 0 24 24"><path d="M20.285 7.12c-.05-.17-.184-.3-.354-.345-.17-.047-.35.003-.476.126L16.838 9.46l-1.914-.383-.38-1.907 2.644-2.585c.126-.123.178-.303.137-.474s-.168-.31-.336-.362c-.532-.166-1.02-.248-1.49-.248-2.757 0-5 2.243-5 5 0 .323.038.65.118 1.01-.562.463-1.096.862-1.7 1.314-.866.646-1.846 1.377-3.183 2.506C4.95 14.016 4.5 14.99 4.5 16c0 1.93 1.57 3.5 3.5 3.5 1.02 0 1.993-.456 2.662-1.25 1.15-1.347 1.89-2.336 2.544-3.21.442-.59.832-1.11 1.283-1.66.36.082.687.12 1.01.12 2.757 0 5-2.243 5-5 0-.437-.068-.875-.215-1.38zM8 17c-.553 0-1-.447-1-1s.447-1 1-1 1 .447 1 1-.447 1-1 1z"/></svg>