<svg version="1.1" xmlns="http://www.w3.org/2000/svg" xmlns:xlink="http://www.w3.org/1999/xlink" id="star-outline" viewBox="0 0 24 24"><path d="M16.855 20.966c-.224 0-.443-.05-.646-.146l-.105-.05-4.107-2.344L7.89 20.77l-.105.053c-.488.228-1.085.174-1.52-.143-.47-.34-.702-.933-.587-1.51l.957-4.64-1.602-1.458-1.895-1.725-.078-.082c-.375-.396-.51-.97-.34-1.492.173-.524.62-.912 1.16-1.01l.102-.017 4.7-.52 1.947-4.31.06-.11c.26-.474.763-.772 1.308-.772.543 0 1.044.298 1.31.77l.06.112 1.947 4.312 4.7.52.105.018c.54.1.986.486 1.158 1.012.17.52.035 1.098-.34 1.494l-.078.078-3.498 3.184.957 4.632c.112.587-.12 1.178-.59 1.52-.253.18-.557.28-.875.28zm-8.15-6.564l-.844 4.082 3.644-2.077c.307-.175.684-.175.99 0l3.643 2.075-.85-4.104c-.07-.346.046-.705.31-.942l3.1-2.822-4.17-.46c-.35-.04-.653-.26-.8-.585L12 5.747l-1.727 3.82c-.146.323-.45.544-.8.585l-4.17.46 3.1 2.823c.273.246.385.617.303.966z"/></svg>