<svg version="1.1" xmlns="http://www.w3.org/2000/svg" xmlns:xlink="http://www.w3.org/1999/xlink" id="starburst" viewBox="0 0 24 24"><path d="M19.064 10.11l1.18-2.388c.073-.15.067-.327-.016-.47-.083-.146-.234-.24-.4-.25L17.17 6.83 17 4.174c-.012-.167-.105-.317-.25-.4-.145-.085-.322-.09-.472-.016l-2.385 1.18-1.477-2.215c-.186-.278-.646-.278-.832 0l-1.477 2.215-2.385-1.18c-.15-.075-.327-.07-.472.015-.145.083-.238.234-.25.4L6.83 6.83 4.173 7c-.167.012-.318.105-.4.25-.085.145-.09.322-.016.472l1.18 2.386-2.215 1.477c-.14.093-.223.25-.223.416s.082.324.222.417l2.215 1.477-1.18 2.386c-.074.15-.068.327.015.472.083.144.234.238.4.248l2.657.17L7 19.83c.01.167.104.317.25.4.143.084.32.09.47.016l2.387-1.18 1.477 2.215c.093.138.25.222.416.222s.323-.083.416-.223l1.477-2.215 2.386 1.18c.15.072.326.067.47-.016s.24-.235.25-.402l.17-2.656L19.828 17c.167-.01.317-.104.4-.25.084-.144.09-.32.016-.47l-1.18-2.386 2.215-1.478c.14-.093.223-.25.223-.416s-.082-.323-.222-.416l-2.214-1.475z"/></svg>