<svg version="1.1" xmlns="http://www.w3.org/2000/svg" xmlns:xlink="http://www.w3.org/1999/xlink" id="starburst-outline" viewBox="0 0 24 24"><path d="M21.556 11.17l-1.85-1.233.985-1.993c.15-.3.138-.654-.03-.943-.167-.29-.467-.476-.8-.497l-2.22-.143-.143-2.218c-.02-.334-.208-.635-.497-.802-.29-.167-.645-.18-.943-.03l-1.99.985-1.234-1.85c-.37-.556-1.293-.556-1.664 0l-1.235 1.85-1.992-.985c-.3-.15-.654-.137-.943.03-.29.167-.477.468-.498.802L6.36 6.36 4.14 6.5c-.333.022-.634.21-.8.498s-.18.644-.03.943l.983 1.993-1.85 1.233c-.277.185-.444.497-.444.83s.166.647.444.833l1.85 1.233-.985 1.992c-.15.3-.138.654.03.943s.467.478.8.5l2.22.142.142 2.218c.02.333.208.634.498.8s.642.18.943.032l1.992-.985 1.233 1.85c.186.277.498.444.832.444s.646-.166.832-.444l1.233-1.85 1.99.986c.3.148.654.136.944-.03.29-.167.476-.468.497-.802l.143-2.217 2.22-.144c.333-.022.634-.21.8-.5s.18-.643.03-.942l-.983-1.992 1.85-1.233c.277-.186.444-.498.444-.832 0-.333-.166-.646-.444-.83zm-4.032 2.996l.71 1.435-1.6.105c-.502.033-.9.432-.934.934l-.103 1.597-1.435-.71c-.45-.223-.996-.076-1.275.343L12 19.2l-.89-1.333c-.19-.287-.507-.445-.832-.445-.15 0-.3.033-.442.104l-1.436.71-.103-1.6c-.032-.5-.432-.9-.934-.933L5.767 15.6l.71-1.435c.223-.45.076-.997-.342-1.275L4.802 12l1.332-.887c.418-.28.564-.825.342-1.275l-.71-1.436 1.6-.103c.502-.034.9-.433.934-.935l.103-1.598 1.435.71c.448.22.996.075 1.275-.343L12 4.804l.89 1.332c.278.418.825.563 1.274.342l1.436-.71.104 1.6c.033.5.433.9.934.932l1.598.103-.71 1.437c-.222.45-.075.996.343 1.275l1.33.888-1.332.89c-.42.276-.566.822-.344 1.273z"/></svg>