<svg version="1.1" xmlns="http://www.w3.org/2000/svg" xmlns:xlink="http://www.w3.org/1999/xlink" id="stopwatch" viewBox="0 0 24 24"><path d="M19.414 8.902c.104-.048.206-.108.293-.195l.5-.5c.39-.39.39-1.023 0-1.414s-1.023-.39-1.414 0l-.5.5-.115.173c-1.387-1.312-3.188-2.19-5.19-2.41L13 5V4h1c.55 0 1-.45 1-1s-.45-1-1-1h-4c-.55 0-1 .45-1 1s.45 1 1 1h1v1l.012.057C6.506 5.55 3 9.364 3 14c0 4.97 4.03 9 9 9s9-4.03 9-9c0-1.894-.588-3.648-1.586-5.098zM12 21c-3.86 0-7-3.14-7-7s3.14-7 7-7 7 3.14 7 7-3.14 7-7 7zm1-8v-2c0-.55-.45-1-1-1s-1 .45-1 1v3c0 .55.45 1 1 1h3c.55 0 1-.45 1-1s-.45-1-1-1h-2zm-1-5c-3.312 0-6 2.688-6 6s2.688 6 6 6 6-2.688 6-6-2.688-6-6-6zm0 11c-2.757 0-5-2.243-5-5s2.243-5 5-5 5 2.243 5 5-2.243 5-5 5z"/></svg>