<svg version="1.1" xmlns="http://www.w3.org/2000/svg" xmlns:xlink="http://www.w3.org/1999/xlink" id="support" viewBox="0 0 24 24"><path d="M12 3.5c-4.688 0-8.5 3.812-8.5 8.5s3.812 8.5 8.5 8.5 8.5-3.812 8.5-8.5-3.812-8.5-8.5-8.5zm6.5 8.5c0 1.064-.264 2.066-.718 2.956l-1.93-1.93c.087-.333.146-.675.146-1.026 0-.355-.062-.693-.147-1.02l1.933-1.933c.455.89.717 1.89.717 2.953zm-13 0c0-1.064.264-2.066.718-2.956l1.933 1.933c-.085.33-.146.668-.146 1.022 0 .352.062.69.147 1.02l-1.933 1.934C5.762 14.064 5.5 13.062 5.5 12zm3.068-2.02L6.793 8.205 8.207 6.79l1.775 1.776c-.584.345-1.068.83-1.414 1.414zM6.79 15.793l1.774-1.773c.17.29.362.564.605.81s.52.437.806.606l-1.77 1.77-1.415-1.413zm3.796-2.38c-.377-.377-.585-.88-.584-1.413 0-1.104.896-2 1.998-2 1.104 0 2 .896 2 2 0 .534-.207 1.036-.584 1.413-.755.757-2.073.757-2.83 0zm6.623-5.206l-1.776 1.775c-.345-.586-.828-1.07-1.412-1.416l1.773-1.773 1.414 1.414zm-2.38 6.62c.242-.243.436-.52.605-.804l1.77 1.77-1.413 1.415-1.772-1.772c.29-.17.567-.366.81-.61zm.126-8.61L13.023 8.15C12.695 8.062 12.355 8 12 8s-.693.062-1.02.148L9.046 6.216C9.937 5.76 10.937 5.5 12 5.5c1.064 0 2.066.264 2.956.718zM9.044 17.783l1.933-1.933c.332.087.672.148 1.023.148s.69-.062 1.02-.147l1.933 1.933c-.89.455-1.89.717-2.953.717-1.064 0-2.066-.264-2.956-.718z"/></svg>