<svg version="1.1" xmlns="http://www.w3.org/2000/svg" xmlns:xlink="http://www.w3.org/1999/xlink" id="tag" viewBox="0 0 24 24"><path d="M9 4c1.28 0 2.56.488 3.535 1.465L16 9l5 5-7 7-5.498-5.498c-.037.033-3.037-2.967-3.037-2.967-1.953-1.953-1.953-5.12 0-7.07C6.44 4.488 7.72 4 9 4m0-2c-1.87 0-3.628.73-4.95 2.05C2.73 5.37 2 7.13 2 9s.73 3.627 2.05 4.95l3 3c.108.106.228.2.35.278l5.188 5.186c.39.39.9.586 1.413.586s1.023-.195 1.415-.586l7-7c.78-.78.78-2.047 0-2.828l-5-5-3.45-3.52C12.628 2.728 10.87 2 9 2zm0 5.498c.83 0 1.5.672 1.5 1.502s-.67 1.498-1.5 1.498S7.5 9.83 7.5 9 8.17 7.498 9 7.498m0-1C7.62 6.498 6.5 7.62 6.5 9c0 1.377 1.12 2.498 2.5 2.498s2.5-1.12 2.5-2.498c0-1.38-1.12-2.502-2.5-2.502z"/></svg>