<svg version="1.1" xmlns="http://www.w3.org/2000/svg" xmlns:xlink="http://www.w3.org/1999/xlink" id="tags" viewBox="0 0 24 24"><path d="M21.422 9.594L14.957 3.06C13.627 1.73 11.87 1 10 1s-3.628.73-4.95 2.05C3.634 4.466 2.923 6.408 3.023 8.366 2.36 9.45 2 10.695 2 12c0 1.87.73 3.627 2.05 4.95l3.054 2.983 3.482 3.48c.39.392.902.587 1.414.587s1.023-.195 1.414-.586l7-7c.778-.778.782-2.038.008-2.82l-.093-.094 1.084-1.086c.778-.778.782-2.038.008-2.82zM12 22l-3.498-3.497-3.037-2.968c-1.953-1.953-1.953-5.12 0-7.07C6.44 7.488 7.72 7 9 7s2.56.488 3.535 1.465L19 15l-7 7zm1.957-14.94C12.627 5.73 10.87 5 9 5c-1.276 0-2.497.347-3.565.982.24-.55.58-1.067 1.03-1.518C7.44 3.488 8.72 3 10 3s2.56.488 3.535 1.465L20 11l-1.078 1.078-4.965-5.02zM9 10.5c.83 0 1.5.67 1.5 1.5s-.67 1.5-1.5 1.5-1.5-.67-1.5-1.5.67-1.5 1.5-1.5m0-1c-1.378 0-2.5 1.12-2.5 2.5 0 1.378 1.122 2.5 2.5 2.5s2.5-1.122 2.5-2.5c0-1.38-1.122-2.5-2.5-2.5z"/></svg>