<svg version="1.1" xmlns="http://www.w3.org/2000/svg" xmlns:xlink="http://www.w3.org/1999/xlink" id="th-large-outline" viewBox="0 0 24 24"><path d="M9 2H4c-1.103 0-2 .896-2 2v5c0 1.104.897 2 2 2h5c1.103 0 2-.896 2-2V4c0-1.104-.897-2-2-2zm0 7H4V4h5v5zm11-7h-5c-1.104 0-2 .896-2 2v5c0 1.104.896 2 2 2h5c1.104 0 2-.896 2-2V4c0-1.104-.896-2-2-2zm0 7h-5V4h5v5zM9 13H4c-1.103 0-2 .896-2 2v5c0 1.104.897 2 2 2h5c1.103 0 2-.896 2-2v-5c0-1.104-.897-2-2-2zm0 7H4v-5h5v5zm11-7h-5c-1.104 0-2 .896-2 2v5c0 1.104.896 2 2 2h5c1.104 0 2-.896 2-2v-5c0-1.104-.896-2-2-2zm0 7h-5v-5h5v5z"/></svg>