<svg version="1.1" xmlns="http://www.w3.org/2000/svg" xmlns:xlink="http://www.w3.org/1999/xlink" id="th-large" viewBox="0 0 24 24"><path d="M8 3H6c-.825 0-1.575.337-2.12.88C3.338 4.426 3 5.176 3 6v2c0 .825.337 1.575.88 2.12.545.543 1.295.88 2.12.88h2c.825 0 1.575-.337 2.12-.88.543-.545.88-1.295.88-2.12V6c0-.825-.337-1.575-.88-2.12C9.574 3.338 8.824 3 8 3zm10 0h-2c-.825 0-1.575.337-2.12.88C13.338 4.426 13 5.176 13 6v2c0 .825.337 1.575.88 2.12.545.543 1.295.88 2.12.88h2c.825 0 1.575-.337 2.12-.88.543-.545.88-1.295.88-2.12V6c0-.825-.337-1.575-.88-2.12C19.574 3.338 18.824 3 18 3zM8 13H6c-.825 0-1.575.337-2.12.88C3.338 14.426 3 15.176 3 16v2c0 .825.337 1.575.88 2.12.545.543 1.295.88 2.12.88h2c.825 0 1.575-.337 2.12-.88.543-.545.88-1.295.88-2.12v-2c0-.825-.337-1.575-.88-2.12C9.574 13.338 8.824 13 8 13zm10 0h-2c-.825 0-1.575.337-2.12.88-.543.545-.88 1.295-.88 2.12v2c0 .825.337 1.575.88 2.12.545.543 1.295.88 2.12.88h2c.825 0 1.575-.337 2.12-.88.543-.545.88-1.295.88-2.12v-2c0-.825-.337-1.575-.88-2.12-.545-.543-1.295-.88-2.12-.88z"/></svg>