<svg version="1.1" xmlns="http://www.w3.org/2000/svg" xmlns:xlink="http://www.w3.org/1999/xlink" id="th-list-outline" viewBox="0 0 24 24"><path d="M19 18c.55 0 1 .45 1 1s-.45 1-1 1h-7c-.55 0-1-.45-1-1s.45-1 1-1h7m0-2h-7c-1.654 0-3 1.346-3 3s1.346 3 3 3h7c1.654 0 3-1.346 3-3s-1.346-3-3-3zm0-5c.55 0 1 .45 1 1s-.45 1-1 1h-7c-.55 0-1-.45-1-1s.45-1 1-1h7m0-2h-7c-1.654 0-3 1.346-3 3s1.346 3 3 3h7c1.654 0 3-1.346 3-3s-1.346-3-3-3zm0-5c.55 0 1 .45 1 1s-.45 1-1 1h-7c-.55 0-1-.45-1-1s.45-1 1-1h7m0-2h-7c-1.654 0-3 1.346-3 3s1.346 3 3 3h7c1.654 0 3-1.346 3-3s-1.346-3-3-3zM6 16H4c-1.104 0-2 .896-2 2v2c0 1.104.896 2 2 2h2c1.104 0 2-.896 2-2v-2c0-1.104-.896-2-2-2zm0 4H4v-2h2v2zM6 9H4c-1.104 0-2 .896-2 2v2c0 1.104.896 2 2 2h2c1.104 0 2-.896 2-2v-2c0-1.104-.896-2-2-2zm0 4H4v-2h2v2zM6 2H4c-1.104 0-2 .896-2 2v2c0 1.104.896 2 2 2h2c1.104 0 2-.896 2-2V4c0-1.104-.896-2-2-2zm0 4H4V4h2v2z"/></svg>