<svg version="1.1" xmlns="http://www.w3.org/2000/svg" xmlns:xlink="http://www.w3.org/1999/xlink" id="th-small-outline" viewBox="0 0 24 24"><path d="M6 16H4c-1.104 0-2 .896-2 2v2c0 1.104.896 2 2 2h2c1.104 0 2-.896 2-2v-2c0-1.104-.896-2-2-2zm0 4H4v-2h2v2zM6 9H4c-1.104 0-2 .896-2 2v2c0 1.104.896 2 2 2h2c1.104 0 2-.896 2-2v-2c0-1.104-.896-2-2-2zm0 4H4v-2h2v2zM6 2H4c-1.104 0-2 .896-2 2v2c0 1.104.896 2 2 2h2c1.104 0 2-.896 2-2V4c0-1.104-.896-2-2-2zm0 4H4V4h2v2zm7 10h-2c-1.104 0-2 .896-2 2v2c0 1.104.896 2 2 2h2c1.104 0 2-.896 2-2v-2c0-1.104-.896-2-2-2zm0 4h-2v-2h2v2zm0-11h-2c-1.104 0-2 .896-2 2v2c0 1.104.896 2 2 2h2c1.104 0 2-.896 2-2v-2c0-1.104-.896-2-2-2zm0 4h-2v-2h2v2zm0-11h-2c-1.104 0-2 .896-2 2v2c0 1.104.896 2 2 2h2c1.104 0 2-.896 2-2V4c0-1.104-.896-2-2-2zm0 4h-2V4h2v2zm7 10h-2c-1.104 0-2 .896-2 2v2c0 1.104.896 2 2 2h2c1.104 0 2-.896 2-2v-2c0-1.104-.896-2-2-2zm0 4h-2v-2h2v2zm0-11h-2c-1.104 0-2 .896-2 2v2c0 1.104.896 2 2 2h2c1.104 0 2-.896 2-2v-2c0-1.104-.896-2-2-2zm0 4h-2v-2h2v2zm0-11h-2c-1.104 0-2 .896-2 2v2c0 1.104.896 2 2 2h2c1.104 0 2-.896 2-2V4c0-1.104-.896-2-2-2zm0 4h-2V4h2v2z"/></svg>