<svg version="1.1" xmlns="http://www.w3.org/2000/svg" xmlns:xlink="http://www.w3.org/1999/xlink" id="thermometer" viewBox="0 0 24 24"><path d="M13 15.07V9.5c0-.275-.225-.5-.5-.5s-.5.225-.5.5v5.57c-.86.225-1.5 1-1.5 1.93 0 1.103.896 2 2 2s2-.897 2-2c0-.93-.64-1.705-1.5-1.93zm3-1.61V5.5C16 3.57 14.43 2 12.5 2S9 3.57 9 5.5v7.96c-.922.9-1.5 2.15-1.5 3.54 0 2.757 2.243 5 5 5s5-2.243 5-5c0-1.39-.578-2.64-1.5-3.54zM12.5 20c-1.654 0-3-1.346-3-3 0-1.105.607-2.062 1.5-2.583V5.5c0-.827.673-1.5 1.5-1.5s1.5.673 1.5 1.5v8.917c.893.52 1.5 1.478 1.5 2.583 0 1.654-1.346 3-3 3z"/></svg>