<svg version="1.1" xmlns="http://www.w3.org/2000/svg" xmlns:xlink="http://www.w3.org/1999/xlink" id="thumbs-down" viewBox="0 0 24 24"><path d="M17 5c-.755 0-1.438.29-1.965.75l-.188-.19C13.887 4.82 11.182 4 9 4c-1.88 0-2.607.293-3.252.552l-.316.124c-.834.305-1.578 1.23-1.738 2.2l-.664 5.972c-.174 1.04.44 2.127 1.4 2.478.394.144 2.512.405 3.883.56C8.098 17.142 8 18.29 8 19.502c0 1.38 1.122 2.5 2.5 2.5s2.5-1.12 2.5-2.5c0-1.875.668-2.737 1.617-3.7.548.725 1.408 1.2 2.384 1.2 1.654 0 3-1.347 3-3v-6C20 6.346 18.654 5 17 5zm-6 14.5c0 .275-.225.5-.5.5s-.5-.225-.5-.5c0-1.805.256-3.24.48-4.293l.296-1.398-1.32.187c-.606-.05-3.935-.447-4.336-.552-.058-.028-.132-.18-.108-.32l.663-5.977c.037-.223.29-.54.443-.594l.377-.146C7.04 6.188 7.51 6 9 6c1.915 0 4.12.753 4.634 1.146.156.12.366.564.366.854v4.977c0 .026-.04.65-.707 1.316C12.38 15.206 11 16.586 11 19.5zm7-5.5c0 .552-.448 1-1 1s-1-.448-1-1V8c0-.552.448-1 1-1s1 .448 1 1v6z"/></svg>