<svg version="1.1" xmlns="http://www.w3.org/2000/svg" xmlns:xlink="http://www.w3.org/1999/xlink" id="thumbs-up" viewBox="0 0 24 24"><path d="M19.57 8.676c-.39-.144-2.512-.406-3.883-.56C15.902 6.86 16 5.71 16 4.5 16 3.12 14.878 2 13.5 2S11 3.12 11 4.5c0 1.875-.666 2.738-1.616 3.7C8.836 7.476 7.977 7 7 7c-1.654 0-3 1.346-3 3v6c0 1.654 1.346 3 3 3 .755 0 1.438-.29 1.965-.752l.188.193C10.113 19.178 12.82 20 15 20c1.88 0 2.61-.293 3.254-.553l.316-.123c.834-.305 1.576-1.227 1.736-2.2l.666-5.974c.173-1.037-.443-2.125-1.402-2.474zM7 17c-.55 0-1-.448-1-1v-6c0-.552.45-1 1-1s1 .448 1 1v6c0 .552-.45 1-1 1zm11.327-.15c-.037.224-.292.54-.443.596l-.376.146c-.545.22-1.016.408-2.508.408-1.914 0-4.118-.753-4.632-1.146C10.21 16.734 10 16.29 10 16v-4.98c.003-.047.05-.656.707-1.312C11.62 8.794 13 7.414 13 4.5c0-.275.225-.5.5-.5s.5.225.5.5c0 1.407-.146 2.73-.48 4.293l-.296 1.396 1.32-.19c.604.05 3.934.448 4.335.55.057.03.13.184.11.324l-.663 5.976z"/></svg>