<svg version="1.1" xmlns="http://www.w3.org/2000/svg" xmlns:xlink="http://www.w3.org/1999/xlink" id="ticket" viewBox="0 0 24 24"><path d="M21.485 8.07L16.12 2.708c-1.127-1.128-3.11-1.136-4.247-.018l-9.148 9c-.57.563-.887 1.314-.89 2.116-.004.803.306 1.556.872 2.12l5.365 5.366c.567.567 1.325.88 2.133.88.8 0 1.55-.307 2.115-.862l9.147-9.003c.57-.562.888-1.313.89-2.115.004-.802-.306-1.555-.872-2.12zm-1.42 2.812l-9.147 9.003c-.38.373-1.056.37-1.432-.006L8.21 18.603c.71-.785.694-1.994-.06-2.752-.76-.757-1.97-.773-2.753-.063l-1.275-1.275c-.186-.187-.288-.435-.287-.7s.105-.512.293-.696l9.148-9.003c.19-.186.44-.288.713-.288.272 0 .528.103.718.293l1.275 1.275c-.71.785-.694 1.994.062 2.75.758.758 1.967.774 2.752.064l1.274 1.274c.188.187.29.435.288.7s-.105.51-.294.696zm-8.464 6.16l-4.656-4.656 5.65-5.43 4.656 4.657-5.65 5.43zM8.37 12.4l3.244 3.24 4.206-4.04-3.24-3.242-4.21 4.04z"/></svg>