<svg version="1.1" xmlns="http://www.w3.org/2000/svg" xmlns:xlink="http://www.w3.org/1999/xlink" id="tick-outline" viewBox="0 0 24 24"><path d="M11 20c-.8 0-1.555-.312-2.12-.88l-4-4C4.31 14.556 4 13.8 4 13s.312-1.555.88-2.122c1.132-1.133 3.108-1.133 4.24 0l1.19 1.188 3.068-5.523C13.904 5.59 14.91 5 16.002 5c.507 0 1.012.13 1.456.377.7.39 1.206 1.028 1.427 1.798.22.77.127 1.58-.263 2.282l-5 9c-.454.818-1.28 1.384-2.206 1.514-.14.02-.277.03-.416.03zm-4-8c-.268 0-.518.104-.707.293S6 12.733 6 13s.104.518.293.707l4 4c.223.22.523.33.844.283.312-.043.586-.232.737-.504l5-9c.13-.233.16-.503.088-.76-.073-.257-.243-.47-.478-.6-.473-.264-1.1-.078-1.357.388l-4.357 7.84-3.062-3.06C7.518 12.103 7.268 12 7 12z"/></svg>