<svg version="1.1" xmlns="http://www.w3.org/2000/svg" xmlns:xlink="http://www.w3.org/1999/xlink" id="time" viewBox="0 0 24 24"><path d="M16 13c0-.55-.45-1-1-1h-3c-.55 0-1 .45-1 1s.45 1 1 1h3c.55 0 1-.45 1-1zm-4-7c3.86 0 7 3.14 7 7s-3.14 7-7 7-7-3.14-7-7 3.14-7 7-7m0-2c-4.97 0-9 4.03-9 9s4.03 9 9 9 9-4.03 9-9-4.03-9-9-9zm1 6c0-.55-.45-1-1-1s-1 .45-1 1v3c0 .55.45 1 1 1s1-.45 1-1v-3zm-1-2c2.757 0 5 2.243 5 5s-2.243 5-5 5-5-2.243-5-5 2.243-5 5-5m0-1c-3.312 0-6 2.686-6 6 0 3.312 2.688 6 6 6s6-2.688 6-6c0-3.314-2.688-6-6-6z"/></svg>