<svg version="1.1" xmlns="http://www.w3.org/2000/svg" xmlns:xlink="http://www.w3.org/1999/xlink" id="times-outline" viewBox="0 0 24 24"><path d="M16 19c-.802 0-1.555-.312-2.122-.88L12 16.243l-1.88 1.88c-1.132 1.132-3.108 1.132-4.242 0C5.312 17.554 5 16.8 5 16s.312-1.555.88-2.122L7.756 12 5.88 10.12C5.31 9.556 5 8.8 5 8s.312-1.555.88-2.122c1.132-1.132 3.108-1.133 4.242 0L12 7.76l1.88-1.88c1.132-1.132 3.108-1.132 4.242 0C18.688 6.446 19 7.2 19 8s-.312 1.555-.88 2.122L16.244 12l1.878 1.88c.568.565.88 1.32.88 2.12s-.312 1.555-.88 2.122c-.565.566-1.318.878-2.12.878zm-4-5.586l3.293 3.293c.378.378 1.037.377 1.414 0 .19-.19.293-.44.293-.707s-.104-.518-.293-.707L13.415 12l3.292-3.293c.19-.19.293-.44.293-.707s-.104-.518-.293-.707c-.378-.38-1.037-.378-1.414 0L12 10.585 8.707 7.293c-.378-.378-1.037-.377-1.414 0-.19.19-.293.44-.293.707s.104.518.293.707L10.585 12l-3.292 3.293c-.19.19-.293.44-.293.707s.104.518.293.707c.378.38 1.037.378 1.414 0L12 13.415z"/></svg>