<svg version="1.1" xmlns="http://www.w3.org/2000/svg" xmlns:xlink="http://www.w3.org/1999/xlink" id="trash" viewBox="0 0 24 24"><path d="M18 7h-1V6c0-1.104-.896-2-2-2H8c-1.104 0-2 .896-2 2v1H5c-.552 0-1 .448-1 1s.448 1 1 1v8c0 2.206 1.794 4 4 4h5c2.206 0 4-1.794 4-4V9c.552 0 1-.448 1-1s-.448-1-1-1zM8 6h7v1H8V6zm8 11c0 1.104-.896 2-2 2H9c-1.104 0-2-.896-2-2V9h9v8zm-7.5-6.5c-.275 0-.5.225-.5.5v6c0 .275.225.5.5.5s.5-.225.5-.5v-6c0-.275-.225-.5-.5-.5zm2 0c-.275 0-.5.225-.5.5v6c0 .275.225.5.5.5s.5-.225.5-.5v-6c0-.275-.225-.5-.5-.5zm2 0c-.275 0-.5.225-.5.5v6c0 .275.225.5.5.5s.5-.225.5-.5v-6c0-.275-.225-.5-.5-.5zm2 0c-.275 0-.5.225-.5.5v6c0 .275.225.5.5.5s.5-.225.5-.5v-6c0-.275-.225-.5-.5-.5z"/></svg>