<svg version="1.1" xmlns="http://www.w3.org/2000/svg" xmlns:xlink="http://www.w3.org/1999/xlink" id="tree" viewBox="0 0 24 24"><path d="M20.78 17.375L18.08 14H19c.373 0 .715-.207.887-.538.172-.33.146-.73-.068-1.035l-7-10c-.318-.452-.94-.562-1.394-.246-.09.064-.158.147-.22.232-.026.015-7.026 10.015-7.026 10.015-.214.306-.24.704-.068 1.035.173.33.515.538.888.538h.92l-2.7 3.375c-.24.3-.288.712-.122 1.06.167.344.518.565.902.565h7v3c0 .553.448 1 1 1s1-.447 1-1v-3h7c.384 0 .735-.22.9-.566.168-.347.12-.758-.12-1.06zM13 17v-5c0-.553-.448-1-1-1s-1 .447-1 1v5H6.08l2.7-3.375c.24-.3.288-.712.122-1.06C8.735 12.222 8.384 12 8 12H6.92L12 4.744 17.08 12H16c-.384 0-.735.22-.9.566-.168.347-.12.758.12 1.06L17.92 17H13z"/></svg>