<svg version="1.1" xmlns="http://www.w3.org/2000/svg" xmlns:xlink="http://www.w3.org/1999/xlink" id="upload-outline" viewBox="0 0 24 24"><path d="M20.986 17c0-.105-.004-.21-.038-.316l-2-6c-.093-.276-.302-.483-.56-.594.88-1.175.8-2.847-.27-3.914L12 .056l-6.12 6.12c-1.068 1.067-1.15 2.74-.27 3.914-.257.11-.468.316-.56.594l-2 6c-.034.105-.038.21-.038.316C3 17 3 22 3 22c0 .553.447 1 1 1h16c.553 0 1-.447 1-1 0 0 0-5-.014-5zM7.293 7.59L12 2.883l4.707 4.707c.39.39.39 1.023 0 1.414-.38.377-1.035.377-1.414 0L13 6.71v5.79c0 .552-.448 1-1 1s-1-.448-1-1V6.71L8.707 9.005c-.38.377-1.035.377-1.414 0-.39-.39-.39-1.025 0-1.414zM6.72 12H9v.5c0 1.654 1.346 3 3 3s3-1.346 3-3V12h2.28l1.665 5H5.053l1.668-5zM5 21v-3h14v3H5z"/></svg>