<svg version="1.1" xmlns="http://www.w3.org/2000/svg" xmlns:xlink="http://www.w3.org/1999/xlink" id="upload" viewBox="0 0 24 24"><path d="M20.987 16c0-.105-.004-.21-.04-.316l-2-6C18.813 9.274 18.432 9 18 9h-4v2h3.28l1.666 5H5.054l1.667-5H10V9H6c-.43 0-.812.275-.948.684l-2 6c-.035.105-.04.21-.04.316C3 16 3 21 3 21c0 .553.447 1 1 1h16c.553 0 1-.447 1-1 0 0 0-5-.013-5zM16 7.904c.26 0 .518-.095.707-.283.39-.39.39-1.023 0-1.413L12 1.5 7.293 6.207c-.39.39-.39 1.024 0 1.414.19.19.448.284.707.284s.518-.094.707-.283L11 5.33V12c0 .552.448 1 1 1s1-.448 1-1V5.328l2.293 2.293c.19.19.448.284.707.284z"/></svg>