<svg version="1.1" xmlns="http://www.w3.org/2000/svg" xmlns:xlink="http://www.w3.org/1999/xlink" id="user-add" viewBox="0 0 24 24"><path d="M9 14c1.38 0 2.63-.56 3.536-1.465C13.44 11.63 14 10.38 14 9s-.56-2.63-1.464-3.535C11.63 4.56 10.38 4 9 4s-2.63.56-3.536 1.465C4.56 6.37 4 7.62 4 9s.56 2.63 1.464 3.535C6.37 13.44 7.62 14 9 14zm0 7c3.518 0 6-1 6-2 0-2-2.354-4-6-4-3.75 0-6 2-6 4 0 1 2.25 2 6 2zm12-9h-2v-2c0-.553-.447-1-1-1s-1 .447-1 1v2h-2c-.553 0-1 .447-1 1s.447 1 1 1h2v2c0 .553.447 1 1 1s1-.447 1-1v-2h2c.553 0 1-.447 1-1s-.447-1-1-1z"/></svg>