<svg version="1.1" xmlns="http://www.w3.org/2000/svg" xmlns:xlink="http://www.w3.org/1999/xlink" id="video" viewBox="0 0 24 24"><path d="M22.525 7.15c-.16-.1-.342-.15-.525-.15-.153 0-.306.035-.447.105L19 8.382V8c0-1.654-1.346-3-3-3H5C3.346 5 2 6.346 2 8v8c0 1.654 1.346 3 3 3h11c1.654 0 3-1.346 3-3v-.382l2.553 1.276c.14.07.294.106.447.106.183 0 .365-.05.525-.15.295-.182.475-.503.475-.85V8c0-.347-.18-.668-.475-.85zM7 13.5c-.83 0-1.5-.67-1.5-1.5s.67-1.5 1.5-1.5 1.5.67 1.5 1.5-.67 1.5-1.5 1.5z"/></svg>