<svg version="1.1" xmlns="http://www.w3.org/2000/svg" xmlns:xlink="http://www.w3.org/1999/xlink" id="video-outline" viewBox="0 0 24 24"><circle cx="7" cy="11" r="1"/><path d="M21.585 7.188c-.262-.188-.6-.24-.9-.137l-1.708.57C18.79 6.14 17.527 5 16 5H5C3.346 5 2 6.345 2 8v6c0 1.652 1.346 3 3 3h3v1.11l.008.09c.066.738.38 1.423.887 1.928.562.562 1.31.872 2.104.872s1.54-.31 2.103-.87c.574-.577.898-1.346.896-2.113V17h2c1.523 0 2.788-1.145 2.977-2.62l1.707.568c.303.104.64.05.9-.138.262-.188.415-.49.415-.812v-6c0-.318-.154-.62-.415-.81zM12 18.023c0 .248-.12.5-.31.69-.19.188-.44.285-.69.285-.25 0-.502-.097-.69-.286-.19-.19-.286-.44-.31-.69V16h2v2.023zM17 14c0 .552-.448 1-1 1H5c-.552 0-1-.448-1-1V8c0-.552.448-1 1-1h11c.552 0 1 .448 1 1v6zm3-1.39s-1.895-.604-2-.604V9.994c.105 0 2-.605 2-.605v3.22z"/></svg>