<svg version="1.1" xmlns="http://www.w3.org/2000/svg" xmlns:xlink="http://www.w3.org/1999/xlink" id="volume-down" viewBox="0 0 24 24"><path d="M15.138 5.824c-.45 0-.905.152-1.356.453l-2.672 1.78C10.357 8.562 8.904 9 8 9c-1.654 0-3 1.346-3 3v2c0 1.654 1.346 3 3 3 .904 0 2.357.44 3.11.94l2.67 1.782c.452.3.908.453 1.357.453.898 0 1.863-.68 1.863-2.175V8c0-1.495-.965-2.176-1.862-2.176zM8 15c-.552 0-1-.448-1-1v-2c0-.552.448-1 1-1 1.21 0 2.907-.495 4-1.146v6.293C10.907 15.495 9.21 15 8 15zm7 3l-.006.12-.104-.062-1.89-1.26V9.202l1.89-1.26.105-.063L15 8v10zm3.292-7.706c-.39.39-.39 1.023.002 1.414.345.345.535.803.535 1.29 0 .49-.19.95-.537 1.295-.39.39-.39 1.023 0 1.414.195.195.45.293.707.293s.512-.098.707-.293c.724-.723 1.122-1.685 1.122-2.708s-.4-1.985-1.124-2.708c-.39-.39-1.023-.39-1.414.002z"/></svg>