<svg version="1.1" xmlns="http://www.w3.org/2000/svg" xmlns:xlink="http://www.w3.org/1999/xlink" id="volume" viewBox="0 0 24 24"><path d="M17.138 5.824c-.45 0-.905.152-1.356.453l-2.672 1.78C12.357 8.562 10.904 9 10 9c-1.654 0-3 1.346-3 3v2c0 1.654 1.346 3 3 3 .904 0 2.357.44 3.11.94l2.67 1.782c.452.3.908.453 1.357.453.898 0 1.863-.68 1.863-2.175V8c0-1.495-.965-2.176-1.862-2.176zM14 16.146C12.907 15.496 11.21 15 10 15c-.552 0-1-.448-1-1v-2c0-.552.448-1 1-1 1.21 0 2.907-.495 4-1.146v6.292zM17 18l-.006.12-.104-.062-1.89-1.26V9.202l1.89-1.26.105-.063L17 8v10z"/></svg>