<svg version="1.1" xmlns="http://www.w3.org/2000/svg" xmlns:xlink="http://www.w3.org/1999/xlink" id="volume-up" viewBox="0 0 24 24"><path d="M16.706 10.292c-.39-.39-1.023-.39-1.414.002-.39.39-.39 1.023.002 1.414.345.345.535.803.535 1.29 0 .49-.19.95-.537 1.295-.39.39-.39 1.023 0 1.414.195.195.45.293.707.293s.512-.098.707-.293c.724-.723 1.122-1.685 1.122-2.708s-.4-1.985-1.124-2.708zm2-2c-.39-.39-1.023-.39-1.414.002-.39.39-.39 1.024.002 1.414.88.877 1.363 2.044 1.364 3.287 0 1.246-.484 2.417-1.365 3.298-.39.39-.39 1.023 0 1.414.195.195.45.293.707.293s.512-.098.707-.293c1.26-1.26 1.952-2.933 1.95-4.713 0-1.777-.693-3.447-1.95-4.702zm2-2c-.39-.39-1.023-.39-1.414.002-.39.39-.39 1.024.002 1.414 1.412 1.41 2.19 3.285 2.192 5.284.002 2.002-.777 3.885-2.193 5.3-.39.392-.39 1.024 0 1.415.195.195.45.293.707.293s.512-.098.707-.293c1.794-1.794 2.78-4.18 2.78-6.717-.002-2.533-.99-4.912-2.78-6.698zm-8.568-.468c-.45 0-.905.152-1.356.453L8.11 8.06C7.356 8.56 5.903 9 5 9c-1.654 0-3 1.346-3 3v2c0 1.654 1.346 3 3 3 .904 0 2.357.44 3.11.94l2.67 1.782c.452.3.908.453 1.357.453.898 0 1.863-.68 1.863-2.175V8c0-1.495-.965-2.176-1.862-2.176zM5 15c-.552 0-1-.448-1-1v-2c0-.552.448-1 1-1 1.21 0 2.907-.495 4-1.146v6.293C7.907 15.495 6.21 15 5 15zm7 3l-.006.12-.104-.062-1.89-1.26V9.202l1.89-1.26.105-.063L12 8v10z"/></svg>