<svg version="1.1" xmlns="http://www.w3.org/2000/svg" xmlns:xlink="http://www.w3.org/1999/xlink" id="volume-mute" viewBox="0 0 24 24"><path d="M19.707 5.293c-.39-.39-1.023-.39-1.414 0l-1.55 1.55c-.346-.687-.988-1.02-1.605-1.02-.45 0-.905.153-1.356.454l-2.672 1.78C10.357 8.562 8.904 9 8 9c-1.654 0-3 1.346-3 3v2c0 1.237.754 2.302 1.826 2.76l-1.533 1.533c-.39.39-.39 1.023 0 1.414.195.195.45.293.707.293s.512-.098.707-.293l2.527-2.527c.697.174 1.416.455 1.875.762l2.67 1.78c.452.302.908.454 1.357.454.898 0 1.863-.68 1.863-2.176V9.414l2.707-2.707c.39-.39.39-1.023 0-1.414zM14.89 7.94l.105-.06L15 8v1.293l-2 2v-2.09l1.89-1.262zM7 12c0-.552.448-1 1-1 1.21 0 2.907-.495 4-1.146v2.44l-2.83 2.83C8.757 15.045 8.356 15 8 15c-.552 0-1-.448-1-1v-2zm3.3 3.406l1.7-1.7v2.44c-.48-.287-1.075-.542-1.7-.74zm4.694 2.714l-.104-.062-1.89-1.26v-4.09l2-2V18l-.006.12z"/></svg>