<svg version="1.1" xmlns="http://www.w3.org/2000/svg" xmlns:xlink="http://www.w3.org/1999/xlink" id="warning" viewBox="0 0 24 24"><path d="M21.17 15.398l-5.91-9.854C14.482 4.25 13.295 3.51 12 3.51s-2.483.74-3.26 2.032l-5.91 9.856c-.787 1.31-.873 2.705-.236 3.83C3.23 20.354 4.472 21 6 21h12c1.528 0 2.77-.646 3.406-1.77.637-1.126.55-2.522-.235-3.832zM12 17.548c-.854 0-1.55-.694-1.55-1.548 0-.855.695-1.55 1.55-1.55s1.55.695 1.55 1.55c0 .854-.696 1.55-1.55 1.55zm1.633-7.423c-.01.03-1.4 3.468-1.4 3.468-.04.094-.13.156-.232.156s-.192-.063-.23-.157l-1.39-3.438c-.09-.233-.13-.443-.13-.655 0-.965.785-1.75 1.75-1.75s1.75.785 1.75 1.75c0 .212-.04.422-.117.625z"/></svg>