<svg version="1.1" xmlns="http://www.w3.org/2000/svg" xmlns:xlink="http://www.w3.org/1999/xlink" id="warning-outline" viewBox="0 0 24 24"><path d="M12 5.51c.56 0 1.12.355 1.544 1.063l5.912 9.854C20.306 17.842 19.65 19 18 19H6c-1.65 0-2.307-1.16-1.456-2.573l5.912-9.854C10.88 5.865 11.44 5.51 12 5.51m0-2c-1.296 0-2.482.74-3.26 2.032l-5.91 9.856c-.787 1.31-.873 2.705-.236 3.83S4.474 21 6 21h12c1.527 0 2.77-.646 3.406-1.77s.55-2.522-.235-3.83l-5.91-9.855C14.48 4.25 13.295 3.51 12 3.51z"/><circle cx="12" cy="16" r="1.3"/><path d="M13.5 10c0-.83-.67-1.5-1.5-1.5s-1.5.67-1.5 1.5c0 .2.04.39.11.562C11.166 11.938 12 14 12 14l1.39-3.438c.07-.173.11-.363.11-.562z"/></svg>