<svg version="1.1" xmlns="http://www.w3.org/2000/svg" xmlns:xlink="http://www.w3.org/1999/xlink" id="waves-outline" viewBox="0 0 24 24"><path d="M20.22 10.76c.5-.55.78-1.25.78-2 0-.8-.312-1.554-.88-2.12-.565-.567-1.32-.88-2.12-.88s-1.555.313-2.12.88c-.234.232-.547.36-.88.36-.333 0-.646-.128-.88-.36C12.756 5.272 10.937 4.52 9 4.52s-3.755.753-5.12 2.12C3.31 7.205 3 7.96 3 8.76c0 .75.28 1.45.78 2-.5.552-.78 1.253-.78 2s.28 1.45.78 2c-.5.552-.78 1.253-.78 2 0 .802.312 1.556.88 2.122.565.566 1.32.88 2.12.88s1.555-.313 2.12-.88c.235-.233.546-.362.88-.362.332 0 .645.13.88.363C11.245 20.248 13.063 21 15 21c1.937 0 3.755-.752 5.12-2.118.568-.567.88-1.32.88-2.12 0-.75-.28-1.45-.78-2 .5-.553.78-1.253.78-2s-.28-1.45-.78-2zm-1.513 6.708C17.687 18.488 16.343 19 15 19c-1.342 0-2.685-.51-3.707-1.532-.633-.632-1.463-.948-2.293-.948-.83 0-1.66.316-2.292.948-.196.195-.452.293-.708.293s-.512-.097-.707-.292c-.39-.39-.39-1.023 0-1.414 1.02-1.02 2.364-1.532 3.706-1.532s2.685.51 3.707 1.532C13.34 16.686 14.17 17 15 17c.83 0 1.66-.314 2.293-.946.195-.195.45-.293.707-.293s.512.1.707.294c.39.39.39 1.023 0 1.414zM5.293 8.054C6.313 7.032 7.658 6.52 9 6.52c1.343 0 2.685.512 3.707 1.533C13.34 8.686 14.17 9 15 9c.83 0 1.66-.314 2.293-.946.195-.196.45-.293.707-.293s.512.1.707.294c.39.39.39 1.023 0 1.414C17.687 10.488 16.343 11 15 11c-1.342 0-2.685-.51-3.707-1.532C10.66 8.836 9.83 8.52 9 8.52c-.83 0-1.66.316-2.292.948-.196.195-.452.293-.708.293s-.512-.097-.707-.292c-.39-.39-.39-1.024 0-1.414zm13.414 5.414C17.687 14.488 16.343 15 15 15c-1.342 0-2.685-.51-3.707-1.532-.633-.632-1.463-.948-2.293-.948-.83 0-1.66.316-2.292.948-.196.195-.452.293-.708.293s-.512-.097-.707-.292c-.39-.39-.39-1.023 0-1.414 1.02-1.02 2.364-1.532 3.706-1.532s2.685.51 3.707 1.532C13.34 12.686 14.17 13 15 13c.83 0 1.66-.314 2.293-.946.195-.195.45-.293.707-.293s.512.1.707.294c.39.39.39 1.023 0 1.414z"/></svg>