<svg version="1.1" xmlns="http://www.w3.org/2000/svg" xmlns:xlink="http://www.w3.org/1999/xlink" id="waves" viewBox="0 0 24 24"><path d="M15 19c-1.342 0-2.685-.51-3.707-1.532-1.266-1.265-3.323-1.264-4.586 0-.39.39-1.023.39-1.414 0s-.39-1.023 0-1.414c2.043-2.043 5.37-2.043 7.414 0 1.265 1.264 3.322 1.263 4.586 0 .39-.39 1.023-.39 1.414 0s.39 1.023 0 1.414C17.687 18.488 16.343 19 15 19zm0-4c-1.342 0-2.685-.51-3.707-1.532-1.266-1.265-3.323-1.264-4.586 0-.39.39-1.023.39-1.414 0s-.39-1.023 0-1.414c2.043-2.043 5.37-2.043 7.414 0 1.265 1.264 3.322 1.263 4.586 0 .39-.39 1.023-.39 1.414 0s.39 1.023 0 1.414C17.687 14.488 16.343 15 15 15zm0-4c-1.342 0-2.685-.51-3.707-1.532-1.266-1.265-3.323-1.264-4.586 0-.39.39-1.023.39-1.414 0s-.39-1.023 0-1.414c2.043-2.042 5.37-2.044 7.414 0 1.265 1.264 3.322 1.263 4.586 0 .39-.39 1.023-.39 1.414 0s.39 1.023 0 1.414C17.687 10.488 16.343 11 15 11z"/></svg>