<svg version="1.1" xmlns="http://www.w3.org/2000/svg" xmlns:xlink="http://www.w3.org/1999/xlink" id="weather-stormy" viewBox="0 0 24 24"><path d="M17 18c-.553 0-1-.447-1-1s.447-1 1-1c1.654 0 3-1.346 3-3s-1.346-3-3-3c-.238 0-.496.042-.813.13l-1.07.302-.187-1.098C14.604 7.402 12.95 6 11 6c-2.205 0-4 1.794-4 4 0 .274.027.545.082.806l.26 1.24-1.436-.052C4.896 12 4 12.897 4 14s.896 2 2 2c.553 0 1 .447 1 1s-.447 1-1 1c-2.205 0-4-1.794-4-4 0-1.86 1.277-3.43 3.002-3.874L5 10c0-3.31 2.69-6 6-6 2.587 0 4.824 1.638 5.65 4.015C19.573 7.775 22 10.127 22 13c0 2.757-2.243 5-5 5zm-4.36-4l-4.5 4.05 3 1.45-1.5 3.5 4.5-4.05-3-1.45z"/></svg>