<svg version="1.1" xmlns="http://www.w3.org/2000/svg" xmlns:xlink="http://www.w3.org/1999/xlink" id="weather-snow" viewBox="0 0 24 24"><path d="M20.5 15.134l-2.457-.503 1.483-.395c.533-.143.85-.69.707-1.225-.142-.533-.69-.85-1.225-.707l-1.508.403c.037-.23.07-.464.07-.706s-.033-.476-.07-.707l1.51.404.26.034c.44 0 .846-.294.965-.74.143-.533-.174-1.082-.707-1.225l-1.483-.397 2.455-.502c.216-.044.42-.156.577-.333.386-.436.347-1.102-.09-1.488-.435-.386-1.1-.347-1.487.09l-1.663 1.873.398-1.48c.144-.532-.173-1.08-.706-1.225-.532-.142-1.083.173-1.227.706l-.407 1.516c-.366-.3-.77-.544-1.22-.717l1.103-1.103c.39-.39.39-1.023 0-1.414s-1.024-.39-1.415 0L13.28 6.38 14.07 4c.07-.21.075-.44 0-.667-.184-.552-.78-.85-1.333-.666-.553.184-.85.78-.668 1.333l.793 2.38-1.086-1.087c-.392-.39-1.024-.39-1.415 0s-.39 1.023 0 1.414l1.102 1.102c-.447.172-.853.418-1.22.716L9.844 7.01c-.143-.533-.697-.85-1.224-.707-.535.143-.852.69-.71 1.224l.397 1.485-1.662-1.877C6.5 6.97 6.3 6.85 6.067 6.802c-.57-.117-1.127.25-1.244.82s.25 1.128.822 1.245L8.1 9.37l-1.48.396c-.534.143-.85.69-.708 1.225.12.448.523.742.965.742l.26-.034 1.508-.404c-.04.23-.073.465-.073.706 0 .242.034.475.07.707l-1.507-.404c-.532-.142-1.08.173-1.225.707-.144.533.174 1.082.707 1.225l1.483.397-2.455.502c-.216.044-.42.156-.577.334-.387.436-.347 1.102.09 1.487.435.387 1.102.347 1.487-.09L8.31 14.99l-.398 1.484c-.144.533.173 1.082.707 1.225l.26.034c.44 0 .844-.293.964-.74l.406-1.515c.366.298.77.544 1.22.716l-1.104 1.103c-.39.39-.39 1.023 0 1.414s1.023.39 1.414 0l.706-.707h.252l-.666 2c-.07.208-.075.44 0 .666.184.552.78.85 1.333.666.553-.184.85-.78.667-1.333l-.666-2h.252l.707.707c.196.195.45.293.707.293s.512-.098.707-.293c.39-.39.39-1.023 0-1.414l-1.103-1.103c.448-.172.854-.418 1.22-.717l.406 1.517c.12.447.523.74.965.74l.26-.033c.533-.143.85-.69.707-1.225l-.397-1.48 1.662 1.874c.146.165.345.285.577.333.57.116 1.128-.252 1.244-.822.118-.57-.25-1.127-.82-1.244zm-7.428-.634c-1.38 0-2.5-1.12-2.5-2.5s1.12-2.5 2.5-2.5 2.5 1.12 2.5 2.5-1.12 2.5-2.5 2.5z"/></svg>