<svg version="1.1" xmlns="http://www.w3.org/2000/svg" xmlns:xlink="http://www.w3.org/1999/xlink" id="weather-windy-cloudy" viewBox="0 0 24 24"><path d="M4.798 15.75c-.134 0-.27-.026-.4-.084C2.94 15.026 2 13.59 2 12c0-1.86 1.277-3.43 3-3.874V8c0-3.31 2.69-6 6-6 2.932 0 5.413 2.104 5.902 5 .092.545-.275 1.062-.82 1.153-.544.083-1.06-.276-1.152-.82C14.604 5.403 12.95 4 11 4 8.794 4 7 5.794 7 8c0 .272.027.546.08.812l.26 1.27-1.43-.088C4.896 10 4 10.897 4 12c0 .795.47 1.515 1.2 1.834.506.222.736.812.515 1.317-.164.376-.53.6-.917.6zM19 7c-.553 0-1 .447-1 1s.447 1 1 1c.552 0 1 .448 1 1s-.448 1-1 1H9.4c-.553 0-1 .447-1 1s.447 1 1 1H14c.552 0 1 .448 1 1s-.448 1-1 1H9c-1.654 0-3 1.346-3 3s1.346 3 3 3c.553 0 1-.447 1-1s-.447-1-1-1c-.552 0-1-.448-1-1s.448-1 1-1h5c1.654 0 3-1.346 3-3 0-.353-.072-.686-.185-1H19c1.654 0 3-1.346 3-3s-1.346-3-3-3z"/></svg>