<svg version="1.1" xmlns="http://www.w3.org/2000/svg" xmlns:xlink="http://www.w3.org/1999/xlink" id="weather-sunny" viewBox="0 0 24 24"><path d="M13 4l-1 2.934L11 4c-.188-.553.106-1.152.66-1.34.55-.19 1.152.106 1.34.658.078.23.072.47 0 .682zm-9 7l2.934 1L4 13c-.553.188-1.152-.106-1.34-.66-.19-.55.106-1.152.658-1.34.23-.078.47-.072.682 0zm7 9l1-2.934L13 20c.188.553-.106 1.152-.66 1.34-.55.19-1.15-.105-1.34-.658-.078-.23-.072-.47 0-.682zm9-7.002l-2.934-1 2.934-1c.553-.188 1.152.106 1.34.66.19.55-.105 1.15-.658 1.34-.23.078-.47.072-.682 0zM7.05 5.636l1.367 2.78-2.78-1.366c-.525-.257-.74-.89-.484-1.414.258-.523.89-.74 1.414-.482.218.107.383.28.483.482zM5.636 16.95l2.78-1.368-1.366 2.78c-.257.524-.89.74-1.414.483-.523-.258-.74-.89-.482-1.414.107-.217.28-.38.482-.48zm11.313 1.413l-1.368-2.78 2.78 1.366c.524.256.74.89.483 1.413-.258.523-.89.74-1.414.482-.217-.107-.38-.28-.48-.482zM18.36 7.048L15.58 8.416l1.368-2.782c.257-.523.89-.74 1.414-.482.523.258.74.89.48 1.415-.105.217-.278.38-.48.48zM12 16.5c-2.48 0-4.5-2.02-4.5-4.5S9.52 7.5 12 7.5s4.5 2.02 4.5 4.5-2.02 4.5-4.5 4.5zm0-7c-1.38 0-2.5 1.12-2.5 2.5s1.12 2.5 2.5 2.5 2.5-1.12 2.5-2.5-1.12-2.5-2.5-2.5z"/></svg>