<svg version="1.1" xmlns="http://www.w3.org/2000/svg" xmlns:xlink="http://www.w3.org/1999/xlink" id="weather-shower" viewBox="0 0 24 24"><path d="M17 18c-.552 0-1-.447-1-1s.448-1 1-1c1.654 0 3-1.346 3-3s-1.346-3-3-3c-.243 0-.5.04-.81.13l-1.075.307-.185-1.103C14.604 7.402 12.952 6 11 6c-2.206 0-4 1.794-4 4 0 .272.027.545.082.81l.244 1.2-1.42-.016C4.896 12 4 12.897 4 14s.897 2 2 2c.552 0 1 .447 1 1s-.448 1-1 1c-2.206 0-4-1.794-4-4 0-1.86 1.277-3.43 3-3.874V10c0-3.31 2.69-6 6-6 2.587 0 4.824 1.638 5.65 4.015C19.59 7.77 22 10.128 22 13c0 2.757-2.243 5-5 5zm-6.5 0l1-3 1 3c.184.553-.114 1.15-.667 1.333-.552.185-1.15-.114-1.333-.666-.075-.226-.07-.458 0-.667zm3 2l1-3 1 3c.184.553-.114 1.15-.667 1.333-.552.185-1.15-.114-1.333-.666-.075-.226-.07-.458 0-.667zm-6 0l1-3 1 3c.184.553-.114 1.15-.667 1.333-.552.185-1.15-.114-1.333-.666-.075-.226-.07-.458 0-.667z"/></svg>