<svg version="1.1" xmlns="http://www.w3.org/2000/svg" xmlns:xlink="http://www.w3.org/1999/xlink" id="weather-night" viewBox="0 0 24 24"><path d="M10.5 20c-.86 0-1.71-.15-2.523-.45l-1.317-.486.89-1.087c1.275-1.56 1.95-3.454 1.95-5.477s-.675-3.917-1.95-5.477l-.89-1.087 1.316-.485C8.79 5.15 9.64 5 10.5 5c4.136 0 7.5 3.364 7.5 7.5S14.636 20 10.5 20zm-.51-2.024c.17.016.34.024.51.024 3.032 0 5.5-2.468 5.5-5.5S13.532 7 10.5 7c-.17 0-.34.008-.51.024.992 1.645 1.51 3.51 1.51 5.476s-.518 3.83-1.51 5.476z"/></svg>