<svg version="1.1" xmlns="http://www.w3.org/2000/svg" xmlns:xlink="http://www.w3.org/1999/xlink" id="weather-downpour" viewBox="0 0 24 24"><path d="M15 22c-.552 0-1-.447-1-1v-6c0-.553.448-1 1-1s1 .447 1 1v6c0 .553-.448 1-1 1zm-6 0c-.552 0-1-.447-1-1v-6c0-.553.448-1 1-1s1 .447 1 1v6c0 .553-.448 1-1 1zm3 2c-.552 0-1-.447-1-1v-6c0-.553.448-1 1-1s1 .447 1 1v6c0 .553-.448 1-1 1zm-6-6c-2.206 0-4-1.794-4-4 0-1.86 1.277-3.43 3-3.874V10c0-3.31 2.69-6 6-6 2.587 0 4.824 1.64 5.65 4.015C19.586 7.77 22 10.128 22 13c0 2.24-1.507 4.223-3.666 4.82-.535.145-1.083-.167-1.23-.698-.147-.532.165-1.083.698-1.23C19.096 15.534 20 14.345 20 13c0-1.654-1.346-3-3-3-.242 0-.5.04-.81.13l-1.075.306-.185-1.102C14.604 7.402 12.952 6 11 6c-2.206 0-4 1.794-4 4 0 .272.027.545.082.808l.248 1.202-1.422-.016C4.898 12 4 12.897 4 14s.897 2 2 2c.552 0 1 .447 1 1s-.448 1-1 1z"/></svg>