<svg version="1.1" xmlns="http://www.w3.org/2000/svg" xmlns:xlink="http://www.w3.org/1999/xlink" id="weather-cloudy" viewBox="0 0 24 24"><path d="M17 19H6c-2.206 0-4-1.794-4-4 0-1.86 1.277-3.43 3-3.874V11c0-3.31 2.69-6 6-6 2.587 0 4.824 1.638 5.65 4.015C19.592 8.77 22 11.128 22 14c0 2.757-2.243 5-5 5zM5.905 12.994C4.897 13 4 13.897 4 15s.897 2 2 2h11c1.654 0 3-1.346 3-3s-1.346-3-3-3c-.243 0-.5.04-.81.13l-1.075.307-.186-1.103C14.603 8.402 12.95 7 11 7c-2.206 0-4 1.794-4 4 0 .272.027.545.082.81l.244 1.2-1.42-.016z"/></svg>