<svg version="1.1" xmlns="http://www.w3.org/2000/svg" xmlns:xlink="http://www.w3.org/1999/xlink" id="weather-partly-sunny" viewBox="0 0 24 24"><path d="M14.5 3l-1 3-1-3c-.184-.553.114-1.15.666-1.333.553-.185 1.15.114 1.334.666.075.226.07.458 0 .667zm5.364 3.05l-2.83 1.415 1.416-2.83c.26-.52.894-.73 1.414-.47.52.26.73.893.472 1.414-.107.21-.274.37-.472.47zM21.5 12l-3-1 3-1c.553-.185 1.15.114 1.334.667.184.552-.115 1.148-.668 1.333-.225.075-.457.07-.666 0zM8.55 4.636l1.415 2.83-2.83-1.416c-.52-.26-.73-.894-.47-1.414.26-.52.894-.73 1.413-.472.213.107.373.274.472.472zm9.226 7.706c.14-.424.224-.87.224-1.342 0-2.48-2.02-4.5-4.5-4.5-1.34 0-2.537.594-3.357 1.528L10 8c-1.776 0-3.37.78-4.47 2.01-.24-.08-.47-.085-.696-.01-.553.185-.852.78-.668 1.333.057.167.158.3.277.41C4.16 12.442 4 13.204 4 14l.002.126C2.277 14.57 1 16.14 1 18c0 2.206 1.795 4 4 4h11c2.757 0 5-2.243 5-5 0-2.13-1.344-3.94-3.224-4.658zM13.5 8.5c1.38 0 2.5 1.12 2.5 2.5 0 .366-.096.706-.238 1.02-.354.02-.72.073-1.118.187-.52-1.353-1.604-2.415-2.967-2.905.456-.49 1.102-.802 1.823-.802zM16 20H5c-1.104 0-2-.897-2-2s.896-2 1.908-2.006l1.422.016-.248-1.202C6.027 14.545 6 14.272 6 14c0-2.206 1.795-4 4-4l.07-.014c1.903.055 3.494 1.406 3.846 3.27l.038.186c.123.436.517.706.946.712l.29-.023c.31-.09.568-.13.81-.13 1.654 0 3 1.346 3 3s-1.346 3-3 3z"/></svg>