<svg version="1.1" xmlns="http://www.w3.org/2000/svg" xmlns:xlink="http://www.w3.org/1999/xlink" id="wi-fi-outline" viewBox="0 0 24 24"><path d="M21.157 10.764c0-.785-.27-1.464-.706-2.048-.044-.094-.13-.15-.21-.226-.162-.18-.34-.338-.535-.48-4.45-3.74-10.965-3.735-15.414.006-.192.142-.74.738-.74.738-.438.584-.707 1.305-.707 2.09 0 .816.362 1.758.76 2.155l5.774 5.795C10.02 19.527 10.95 20 12 20c.995 0 1.708-.168 2.525-1 .004 0 5.565-5.647 5.565-5.647.706-.703 1.067-1.7 1.067-2.59zM12 17.998c-.828.002-1.5-.668-1.5-1.498-.002-.828.67-1.502 1.5-1.502.83-.002 1.502.67 1.5 1.502.002.828-.67 1.5-1.5 1.498zm3.89-3.268c-.294.293-.678.438-1.062.438-.385 0-.768-.146-1.06-.438-.977-.976-2.563-.976-3.537 0-.585.586-1.535.584-2.12 0-.587-.586-.587-1.537 0-2.123 2.143-2.144 5.63-2.144 7.778 0 .587.586.587 1.538 0 2.123zm2.828-2.828c-.293.293-.677.438-1.06.438s-.77-.146-1.063-.438c-2.533-2.534-6.658-2.534-9.192 0-.586.584-1.536.584-2.122 0-.584-.586-.584-1.536 0-2.123 3.705-3.702 9.73-3.702 13.436 0 .587.587.587 1.536.002 2.122z"/></svg>