<svg version="1.1" xmlns="http://www.w3.org/2000/svg" xmlns:xlink="http://www.w3.org/1999/xlink" id="wi-fi" viewBox="0 0 24 24"><path d="M13.414 19.412c.783-.78.783-2.047 0-2.826-.78-.785-2.05-.785-2.828-.002-.783.783-.783 2.05 0 2.83.78.78 2.05.782 2.828-.002zm7.07-7.897c-.51 0-1.023-.195-1.413-.586-3.898-3.9-10.242-3.9-14.142 0-.782.78-2.048.78-2.83 0-.78-.782-.78-2.048 0-2.83 5.46-5.458 14.342-5.458 19.8 0 .78.78.78 2.047 0 2.828-.39.39-.9.587-1.413.587zM7.758 15.757c-.512 0-1.024-.195-1.414-.586-.78-.78-.78-2.046 0-2.827 3.118-3.12 8.194-3.12 11.313 0 .78.78.78 2.047 0 2.83-.78.78-2.047.78-2.83 0-1.558-1.56-4.096-1.56-5.656 0-.39.39-.9.584-1.413.584z"/></svg>