<svg version="1.1" xmlns="http://www.w3.org/2000/svg" xmlns:xlink="http://www.w3.org/1999/xlink" id="wine" viewBox="0 0 24 24"><path d="M17.568 9.432c0-2.55-.906-5.592-.944-5.72-.128-.423-.517-.712-.958-.712H8.334c-.44 0-.83.29-.958.712-.038.128-.944 3.17-.944 5.72 0 2.735 1.984 5.01 4.587 5.477L11 15v4h-1c-.553 0-1 .447-1 1s.447 1 1 1h4c.553 0 1-.447 1-1s-.447-1-1-1h-1v-4l-.02-.092c2.604-.466 4.588-2.74 4.588-5.476zM12 13c-1.773 0-3.236-1.303-3.51-3h7.02c-.274 1.697-1.737 3-3.51 3zM8.445 9c.062-1.468.422-3.093.653-4H14.9c.232.907.592 2.532.654 4h-7.11z"/></svg>