<svg version="1.1" xmlns="http://www.w3.org/2000/svg" xmlns:xlink="http://www.w3.org/1999/xlink" id="world-outline" viewBox="0 0 24 24"><path d="M12 2c-4.97 0-9 4.03-9 9s4.03 9 9 9 9-4.03 9-9-4.03-9-9-9zm0 6c0-.553.447-1 1-1s1 .447 1 1v3c-.552 0-1 .448-1 1s.448 1 1 1c.553 0 1-.448 1-1h1v-2l1 1-1 1c0 3 0 3-2 4 0-1-1-1-3-1v-2l-2-2V9c-1 0-1 1-1 1l-.56-.56-1.653-1.652C6.954 5.54 9.3 4 12 4c.688 0 1.353.104 1.98.29-.085.895-.578 1.71-1.48 1.71-1 0-1.5 1-1.5 2v3s1 0 1-3zm0 10c-3.86 0-7-3.14-7-7 0-.776.133-1.52.367-2.22l1.926 1.927 1 1L10 13.414V15c0 .552.447 1 1 1 .78 0 1.65 0 2.006.09.038.302.21.583.468.743.168.104.36.16.552.16.145 0 .29-.032.422-.098 2.348-1.174 2.54-1.644 2.552-4.48l.708-.707c.39-.39.39-1.023 0-1.414l-1-1C16.516 9.102 16.26 9 16 9c-.13 0-.26.025-.383.076-.373.155-.617.52-.617.924V8c0-.69-.35-1.298-.883-1.658.42-.41.712-.995.826-1.685C17.335 5.772 19 8.192 19 11c0 3.86-3.14 7-7 7z"/></svg>