<svg version="1.1" xmlns="http://www.w3.org/2000/svg" xmlns:xlink="http://www.w3.org/1999/xlink" id="zoom-out" viewBox="0 0 24 24"><path d="M13 11H8c-.276 0-.5.224-.5.5s.224.5.5.5h5c.276 0 .5-.224.5-.5s-.224-.5-.5-.5zm6.38 4.956l-.948-.986-.537-.537-.75-.75c.228-.688.355-1.42.355-2.183 0-3.86-3.14-7-7-7s-7 3.14-7 7 3.14 7 7 7c.763 0 1.496-.127 2.184-.354l.75.75 1.512 1.51.06.06.065.055c.602.507 1.35.785 2.105.785 1.726 0 3.13-1.404 3.13-3.13 0-.84-.328-1.63-.924-2.22zM5.5 11.5c0-2.757 2.243-5 5-5s5 2.243 5 5-2.243 5-5 5-5-2.243-5-5z"/></svg>