<svg version="1.1" xmlns="http://www.w3.org/2000/svg" xmlns:xlink="http://www.w3.org/1999/xlink" id="zoom-in" viewBox="0 0 24 24"><path d="M13 11h-2V9c0-.276-.224-.5-.5-.5s-.5.224-.5.5v2H8c-.276 0-.5.224-.5.5s.224.5.5.5h2v2c0 .276.224.5.5.5s.5-.224.5-.5v-2h2c.276 0 .5-.224.5-.5s-.224-.5-.5-.5zm5.432 3.97l-.536-.537-.75-.75c.228-.688.355-1.42.355-2.183 0-3.86-3.14-7-7-7s-7 3.14-7 7 3.142 7 7 7c.764 0 1.497-.127 2.185-.354l.75.75 1.512 1.51.06.06.065.055c.6.507 1.348.785 2.104.785 1.726 0 3.13-1.404 3.13-3.13 0-.84-.328-1.63-.924-2.22l-.95-.985zM5.5 11.5c0-2.757 2.243-5 5-5s5 2.243 5 5-2.243 5-5 5-5-2.243-5-5z"/></svg>