<svg version="1.1" xmlns="http://www.w3.org/2000/svg" xmlns:xlink="http://www.w3.org/1999/xlink" id="zoom" viewBox="0 0 24 24"><path d="M13 4c-3.86 0-7 3.14-7 7 0 .763.127 1.495.354 2.183l-.75.75-.51.512-1.008 1.045c-.562.557-.89 1.345-.89 2.185 0 1.727 1.403 3.13 3.13 3.13.756 0 1.503-.277 2.103-.783l.063-.055.06-.06 1.513-1.51.75-.75c.688.226 1.42.353 2.184.353 3.86 0 7-3.14 7-7s-3.14-7-7-7zm0 12c-2.757 0-5-2.243-5-5s2.243-5 5-5 5 2.243 5 5-2.243 5-5 5zm0-9c-2.205 0-4 1.794-4 4s1.795 4 4 4 4-1.794 4-4-1.795-4-4-4zm0 7c-1.656 0-3-1.344-3-3s1.344-3 3-3 3 1.344 3 3-1.344 3-3 3z"/></svg>