<svg version="1.1" xmlns="http://www.w3.org/2000/svg" xmlns:xlink="http://www.w3.org/1999/xlink" id="zoom-out-outline" viewBox="0 0 24 24"><path d="M13 12H8c-.275 0-.5-.225-.5-.5s.225-.5.5-.5h5c.275 0 .5.225.5.5s-.225.5-.5.5zm6.38 3.956l-2.244-2.283c.228-.687.364-1.412.364-2.173 0-3.86-3.14-7-7-7s-7 3.14-7 7 3.14 7 7 7c.76 0 1.488-.137 2.173-.364l2.397 2.386c.6.506 1.348.783 2.104.783 1.727 0 3.13-1.404 3.13-3.13 0-.84-.327-1.63-.923-2.22zm-3.9-1.11l2.492 2.53c.205.204.332.487.332.798 0 .625-.507 1.13-1.13 1.13-.313 0-.595-.126-.817-.312l-2.512-2.51c.646-.437 1.2-.992 1.635-1.636zM5.5 11.5c0-2.757 2.243-5 5-5s5 2.243 5 5-2.243 5-5 5-5-2.243-5-5z"/></svg>