<svg version="1.1" xmlns="http://www.w3.org/2000/svg" xmlns:xlink="http://www.w3.org/1999/xlink" id="zoom-outline" viewBox="0 0 24 24"><path d="M14 8c1.656 0 3 1.344 3 3s-1.344 3-3 3-3-1.344-3-3 1.344-3 3-3m0-1c-2.206 0-4 1.794-4 4s1.794 4 4 4 4-1.794 4-4-1.794-4-4-4zM4.195 17.674c0 1.727 1.404 3.13 3.13 3.13.757 0 1.504-.276 2.105-.782l2.397-2.386c.685.227 1.412.364 2.173.364 3.86 0 7-3.14 7-7s-3.14-7-7-7-7 3.14-7 7c0 .76.136 1.486.364 2.173L5.12 15.456c-.597.59-.925 1.378-.925 2.218zm6.46-1.694L8.14 18.49c-.223.188-.504.314-.816.314-.624 0-1.13-.506-1.13-1.13 0-.312.126-.595.33-.798l2.493-2.53c.434.644.99 1.2 1.634 1.634zM14 16c-2.757 0-5-2.243-5-5s2.243-5 5-5 5 2.243 5 5-2.243 5-5 5z"/></svg>