<?xml version="1.0" encoding="utf-8"?>
<!-- Generator: Adobe Illustrator 25.2.1, SVG Export Plug-In . SVG Version: 6.00 Build 0)  -->
<svg version="1.1" id="Layer_1" xmlns="http://www.w3.org/2000/svg" xmlns:xlink="http://www.w3.org/1999/xlink" x="0px" y="0px"
	 viewBox="0 0 513.6 143.4" style="enable-background:new 0 0 513.6 143.4;" xml:space="preserve">
<style type="text/css">
	.st0{fill:#FFFFFF;}
	.st1{fill:#010101;}
	.st2{fill:#0F968C;}
</style>
<g>
	<path d="M150.2,78.8c7.1,2.7,11.6,9.5,11.4,17.1c0,16.8-9.9,22.6-25.8,22.6h-24.3V41.8h23.3c15.9,0,25.4,4.4,25.4,21.2
		c0,12.1-10.1,15.3-10.1,15.3L150.2,78.8z M134.9,73.1c8.3,0,12-2.4,12-10c0-7.1-3.6-9.5-12-9.5h-10.3v19.5H134.9z M124.6,84.5v22.4
		h11.2c8.3,0,12.1-2.8,12.1-11.2c0-7.8-3.8-11.3-12.1-11.3L124.6,84.5z"/>
	<path d="M173.6,44.6l12.5-2.6v76.2c-2,0.2-4.3,0.3-6.1,0.3c-2.1,0-4.3-0.1-6.4-0.3V44.6z"/>
	<path d="M217.1,66.9c17.2,0,21.9,9.1,21.9,24.8c0,17.6-6.7,27.1-21.9,27.1s-21.8-9.5-21.8-27.1C195.2,76.1,199.8,66.9,217.1,66.9z
		 M217.1,107.9c7.1,0,9.6-5.9,9.6-15.5c0-9.4-2.5-14.5-9.6-14.5s-9.5,4.6-9.5,14.2S209.9,108,217.1,107.9L217.1,107.9z"/>
	<path d="M267,118.5c-15,0-21.3-7.7-21.3-26.3c0-14.5,7.3-25.1,22.2-25.1c11,0,21.4,0.3,21.4,0.3v46.2c0,16.5-5.8,26.7-22.6,26.7
		c-6.1,0.1-12.1-1.1-17.7-3.6c0.5-3.7,1.6-7.2,3.1-10.6c4.6,2.1,9.5,3.2,14.5,3.2c7,0,10.2-4,10.2-11.5
		C276.9,117.9,271.6,118.5,267,118.5z M276.9,107.9V78.3h-7.9c-7.2,0-10.5,6.2-10.5,13.9c0,10.5,2.4,15.7,9.5,15.7L276.9,107.9z"/>
	<path d="M317.6,118.3c0,0-12.9-30.2-20.4-74.4c4.4-1.6,9-2.4,13.7-2.3c3.6,22.2,9.5,43.6,15.5,64.3h0.5c6-20.7,11.9-42,15.5-64.3
		c4.7-0.1,9.3,0.7,13.7,2.3c-7.5,44.2-20.4,74.4-20.4,74.4c-2.9,0.3-5.9,0.4-8.8,0.4C324.2,118.7,320.6,118.6,317.6,118.3z"/>
	<path d="M358.1,103.1c0-10,4.8-15.5,17.8-15.5h9.4v-2.7c0-5.8-3.8-7-8.7-7c-4.5,0.1-9,0.8-13.4,2c-0.9-3.6-1.2-7.3-0.9-11
		c0,0,5.1-2,14.3-2c14.1,0,21.2,4.4,21.2,17.4v33.9c0,0-11.6,0.4-22.7,0.4C362.8,118.7,358.1,113.2,358.1,103.1z M385.2,108.7V96.9
		l-8.3-0.1c-6-0.1-6.6,3.2-6.6,6.3s0.9,5.9,5.7,5.9C380,109,385.2,108.7,385.2,108.7z"/>
	<path d="M449.1,103.6c0,13-7,15.2-20,15.2s-20-2.2-20-15.1V67.4c2.1-0.2,4.3-0.3,6.1-0.3c2.1,0,4.3,0.1,6.4,0.3v34.4
		c0,4.6,2.8,6.1,7.5,6.1s7.5-1.5,7.5-6.1V67.4c2.1-0.2,4.2-0.3,6-0.3c3.6,0,6.5,0.3,6.5,0.3V103.6z"/>
	<path d="M460.2,44.6l12.5-2.6v76.2c-2,0.2-4.3,0.3-6.1,0.3c-2.1,0-4.3-0.1-6.4-0.3V44.6z"/>
	<path d="M485.4,56.5l12.4-2.6v13.5h13c0.2,1.7,0.3,3.4,0.3,5.2c0,1.9-0.1,3.9-0.3,5.8h-13v39.9c-2.1,0.2-4.3,0.3-6.4,0.3
		c-1.8,0-3.9-0.1-6-0.3L485.4,56.5z"/>
	<path class="st0" d="M51.6,3.2c0,0.1,0.1,0.1,0,0.2h-5.3V3.2H51.6z"/>
	<path class="st1" d="M46.3,3.3h5.3c16.3,1.2,28.8,9,37.3,22.8c4.1,6.9,6.3,14.7,6.2,22.8c0.2,3.9-2.6,7.3-6.5,7.7
		C85,57,81.6,54.6,80.7,51c-0.2-1.1-0.3-2.2-0.3-3.3C79.6,30.3,64.7,17,47.4,17.9c-14.7,0.8-27,11.6-29.4,26.2
		c-0.3,1.6-0.4,3.2-0.4,4.8c0.2,4.1-3,7.5-7.1,7.7c-0.1,0-0.2,0-0.3,0c-4,0-7.3-3.2-7.3-7.2c0-0.2,0-0.4,0-0.7
		c0-9.6,3.2-18.8,8.9-26.5C19.9,11.1,31,4.8,44.7,3.3H46.3z"/>
	<path class="st1" d="M59.6,121.9H32.4c-4.2,0-7.1-2.3-8.1-6c-1-4.1,1.6-8.3,5.7-9.3c0.4-0.1,0.8-0.2,1.3-0.2h55.5
		c4,0,6.9,2,7.9,5.6c1.2,4-1,8.3-5.1,9.5c-0.6,0.2-1.3,0.3-1.9,0.3c-8,0.1-16.1,0.1-24.1,0.1L59.6,121.9z"/>
	<path class="st1" d="M59.6,100H31.9c-3.6,0-6.8-2.5-7.6-6.1c-0.8-3.5,1-7.1,4.3-8.7c1-0.5,2.1-0.8,3.2-0.8h55.7
		c4.3,0.2,7.6,3.7,7.5,8c-0.1,4.1-3.4,7.3-7.5,7.5C78.1,100,68.8,100,59.6,100z"/>
	<path class="st1" d="M59.6,78.1H32c-4.3,0.1-7.8-3.4-7.9-7.7c0,0,0,0,0-0.1c0-4.2,3.4-7.7,7.6-7.7c0.1,0,0.2,0,0.2,0h55.3
		c4.3,0,7.7,3.5,7.7,7.7c0,3.6-2.5,6.7-6,7.5c-0.6,0.1-1.2,0.2-1.8,0.2L59.6,78.1z"/>
	<path class="st2" d="M10.1,85c4.2,0,7.6,3.3,7.6,7.5c0,0,0,0,0,0c0,4.2-3.4,7.6-7.6,7.7c-4.2,0-7.6-3.5-7.6-7.6
		C2.6,88.4,5.9,85,10.1,85z"/>
	<path class="st2" d="M10.2,63.1c4.1,0,7.5,3.3,7.6,7.5c0,4.2-3.4,7.6-7.6,7.7c-4.2,0-7.6-3.4-7.6-7.6C2.6,66.5,6,63.1,10.2,63.1
		C10.2,63.1,10.2,63.1,10.2,63.1z"/>
	<path class="st2" d="M10.2,106.9c4.2,0,7.6,3.4,7.6,7.6c0,4.2-3.4,7.6-7.6,7.6c-4.2-0.1-7.6-3.5-7.6-7.7
		C2.6,110.3,6,106.9,10.2,106.9C10.2,106.9,10.2,106.9,10.2,106.9z"/>
</g>
</svg>
