<?xml version="1.0" encoding="utf-8"?>
<!-- Generator: Adobe Illustrator 25.2.1, SVG Export Plug-In . SVG Version: 6.00 Build 0)  -->
<svg version="1.1" id="Layer_1" xmlns="http://www.w3.org/2000/svg" xmlns:xlink="http://www.w3.org/1999/xlink" x="0px" y="0px"
	 viewBox="0 0 488.9 129.6" style="enable-background:new 0 0 488.9 129.6;" xml:space="preserve">
<style type="text/css">
	.st0{fill:#FFFFFF;}
	.st1{fill:#010101;}
	.st2{fill:#ED6C4F;}
</style>
<path class="st0" d="M55,5.2c0,0.1,0.1,0.1,0,0.2h-5.3V5.2H55z"/>
<g>
	<path class="st1" d="M46.8,5.3h5.3c16.3,1.2,28.8,9,37.3,22.9c4.1,6.9,6.3,14.7,6.2,22.8c0.2,3.9-2.6,7.3-6.5,7.7
		c-3.7,0.5-7.1-1.9-7.9-5.6c-0.2-1.1-0.3-2.2-0.3-3.3C80,32.4,65.2,19,47.8,20c-14.7,0.8-27,11.6-29.4,26.2C18.1,47.8,18,49.4,18,51
		c0.2,4.1-3,7.5-7.1,7.7c-0.1,0-0.2,0-0.3,0c-4,0-7.3-3.2-7.3-7.2c0-0.2,0-0.4,0-0.7c0-9.6,3.2-18.8,8.9-26.5
		c8.2-11.1,19.3-17.4,33-18.9L46.8,5.3z"/>
	<path class="st1" d="M60.1,124H32.9c-4.2,0-7.1-2.3-8.1-6c-1-4.1,1.6-8.3,5.7-9.3c0.4-0.1,0.8-0.2,1.3-0.2h55.5c4,0,6.9,2,7.9,5.6
		c1.2,4-1,8.3-5.1,9.5c-0.6,0.2-1.3,0.3-1.9,0.3c-8,0.1-16.1,0.1-24.1,0.1H60.1z"/>
	<path class="st1" d="M60,102.1H32.4c-3.6,0-6.8-2.5-7.6-6.1c-0.8-3.5,1-7.1,4.3-8.7c1-0.5,2.1-0.8,3.2-0.8H88
		c4.3,0.2,7.6,3.7,7.5,8c-0.1,4.1-3.4,7.3-7.5,7.5C78.6,102.1,69.3,102.1,60,102.1z"/>
	<path class="st1" d="M60,80.2H32.5c-4.3,0.1-7.8-3.4-7.9-7.7c0,0,0,0,0-0.1c0-4.2,3.4-7.7,7.6-7.7c0.1,0,0.2,0,0.2,0h55.3
		c4.3,0,7.7,3.5,7.7,7.7c0,3.6-2.5,6.7-6,7.5c-0.6,0.1-1.2,0.2-1.8,0.2L60,80.2z"/>
	<path class="st2" d="M10.6,87.1c4.2,0,7.6,3.3,7.6,7.5l0,0c0,4.2-3.4,7.6-7.6,7.7c-4.2,0-7.6-3.5-7.6-7.6
		C3,90.4,6.4,87.1,10.6,87.1z"/>
	<path class="st2" d="M10.6,65.2c4.1,0,7.5,3.3,7.6,7.5c0,4.2-3.4,7.6-7.6,7.7C6.4,80.4,3,77,3,72.8S6.5,65.2,10.6,65.2L10.6,65.2z"
		/>
	<path class="st2" d="M10.6,109c4.2,0,7.6,3.4,7.6,7.6s-3.4,7.6-7.6,7.6c-4.2-0.1-7.6-3.5-7.6-7.7C3,112.3,6.5,109,10.6,109
		L10.6,109z"/>
	<path class="st1" d="M113.8,66.5h11.6v7.7h0.4c0.9-1.3,1.9-2.6,3-3.8c1.1-1.1,2.3-2.1,3.6-2.9c1.4-0.9,3-1.5,4.6-1.9
		c2-0.5,4-0.7,6-0.7c3.3-0.1,6.6,0.8,9.5,2.3c2.9,1.4,5.1,3.9,6.2,7c2-2.7,4.4-5.1,7.2-6.9c2.7-1.7,6.2-2.5,10.2-2.5
		c5.9,0,10.5,1.5,13.7,4.4s5,7.7,5,14.5v38.7h-12.4V89.7c0-2.2-0.1-4.3-0.2-6.1c0-1.7-0.5-3.3-1.3-4.7c-0.6-1.3-1.7-2.4-3-3
		c-1.8-0.8-3.7-1.1-5.6-1c-4.2,0-7.2,1.3-9.1,3.9c-1.9,2.6-2.9,6.3-2.9,11v32.7H148v-36c0-3.9-0.7-6.9-2.1-8.9c-1.4-2-4-3-7.7-3
		c-1.6,0-3.1,0.4-4.6,1c-1.5,0.7-2.8,1.6-3.9,2.9c-1.2,1.3-2.1,2.9-2.7,4.5c-0.7,2-1,4.1-1,6.2v33.2h-12.3L113.8,66.5L113.8,66.5z"
		/>
	<path class="st1" d="M252.3,110c-0.1,1.1,0.1,2.2,0.6,3.2c0.6,0.7,1.4,1.1,2.3,1h1.3c0.6,0,1.1-0.1,1.6-0.2v8.5
		c-0.4,0.1-1,0.3-1.6,0.5l-2.1,0.5c-0.7,0.1-1.5,0.2-2.2,0.3c-0.6,0.1-1.3,0.1-1.9,0.1c-2.2,0.1-4.4-0.5-6.3-1.5
		c-1.6-1-2.7-2.7-3.2-5.4c-2.5,2.4-5.6,4.2-9,5.1c-3.3,1-6.8,1.5-10.2,1.6c-2.4,0-4.9-0.3-7.2-1c-2.2-0.6-4.3-1.6-6.1-3
		c-1.8-1.3-3.2-3-4.2-5c-1.1-2.2-1.6-4.7-1.6-7.2c-0.1-2.9,0.5-5.8,1.9-8.4c1.2-2.1,2.9-3.8,5-5c2.1-1.3,4.5-2.2,6.9-2.6
		c2.5-0.5,5.1-1,7.7-1.3c2.2-0.4,4.4-0.7,6.4-0.9c1.8-0.2,3.6-0.5,5.4-1c1.4-0.3,2.6-1,3.6-2c1-1.1,1.5-2.6,1.4-4.1
		c0-1.4-0.4-2.8-1.1-3.9c-0.7-1-1.7-1.9-2.9-2.3c-1.2-0.6-2.5-0.9-3.8-1c-1.3-0.2-2.6-0.3-3.9-0.3c-3-0.1-6,0.6-8.5,2.2
		c-2.2,1.5-3.6,4-3.8,6.7h-12.3c0.1-3.2,1-6.3,2.6-9c1.4-2.3,3.4-4.3,5.7-5.7c2.5-1.5,5.2-2.5,8-3c3-0.6,6.1-0.8,9.1-0.9
		c2.7,0,5.4,0.3,8.1,0.9c2.5,0.5,5,1.5,7.2,2.9c2.1,1.2,3.8,2.9,5.1,5c1.4,2.3,2.1,4.9,2,7.6v28.8L252.3,110L252.3,110z M239.9,94.3
		c-2.1,1.3-4.5,2.1-6.9,2.2c-2.7,0.2-5.5,0.6-8.2,1.1c-1.3,0.2-2.6,0.5-3.8,1c-1.1,0.4-2.2,0.9-3.2,1.6c-0.9,0.7-1.7,1.6-2.2,2.7
		c-0.6,1.3-0.9,2.7-0.9,4.1c0,1.3,0.4,2.5,1.1,3.5c0.8,0.9,1.8,1.6,2.9,2.2c1.2,0.6,2.4,0.9,3.6,1.1c1.2,0.2,2.4,0.3,3.6,0.3
		c1.5,0,3-0.2,4.4-0.5c1.6-0.4,3.1-1,4.5-1.9c1.4-0.8,2.5-1.9,3.5-3.2c1-1.5,1.5-3.2,1.4-4.9L239.9,94.3L239.9,94.3z"/>
	<path class="st1" d="M263.2,45.1h12.2v77.3h-12.2V45.1z"/>
	<path class="st1" d="M323.1,85.2c-0.3-3.1-1.8-5.9-4.2-7.9c-2.5-1.8-5.5-2.8-8.6-2.6c-1.7,0.1-3.4,0.4-5,0.9c-1.9,0.6-3.6,1.6-5,3
		c-1.6,1.8-2.9,3.9-3.8,6.2c-1.2,2.6-1.5,6.1-1.5,10.3c0,2.4,0.3,4.7,0.9,7c0.5,2.2,1.3,4.3,2.6,6.2c1.2,1.8,2.7,3.3,4.6,4.4
		c2.1,1.2,4.5,1.7,6.9,1.7c3.3,0.1,6.5-1.1,9-3.4c2.4-2.2,3.8-5.4,4.4-9.5h12.2c-1.1,7.2-3.9,12.8-8.2,16.7s-10.2,5.7-17.3,5.7
		c-4,0.1-8-0.7-11.6-2.2c-3.3-1.4-6.2-3.5-8.5-6.1c-2.4-2.6-4.2-5.7-5.2-9.1c-1.2-3.7-1.8-7.6-1.8-11.5c0-4,0.5-7.9,1.6-11.7
		c1.1-3.5,2.8-6.7,5.1-9.6c2.4-2.8,5.3-4.9,8.6-6.4c3.8-1.6,7.9-2.4,12.1-2.3c3.1,0,6.2,0.4,9.2,1.3c2.8,0.7,5.4,2,7.7,3.8
		c2.3,1.7,4.2,3.8,5.6,6.3c1.5,2.8,2.4,5.8,2.6,9H323L323.1,85.2L323.1,85.2z"/>
	<path class="st1" d="M389.8,110c-0.1,1.1,0.1,2.2,0.6,3.2c0.6,0.7,1.4,1.1,2.4,1h1.3c0.6,0,1.1-0.1,1.6-0.2v8.5
		c-0.4,0.1-1,0.3-1.6,0.5l-2.1,0.5c-0.7,0.1-1.5,0.2-2.2,0.3c-0.6,0.1-1.3,0.1-1.9,0.1c-2.2,0.1-4.4-0.5-6.3-1.5
		c-1.6-1-2.7-2.7-3.2-5.4c-2.5,2.4-5.6,4.2-9,5.1c-3.3,1-6.8,1.5-10.3,1.5c-2.4,0-4.9-0.3-7.2-1c-2.2-0.6-4.3-1.6-6.1-3
		c-1.8-1.3-3.2-3-4.2-5c-1.1-2.2-1.6-4.7-1.6-7.2c-0.1-2.9,0.5-5.8,1.9-8.4c1.2-2.1,2.9-3.8,5-5c2.1-1.3,4.5-2.2,7-2.6
		c2.5-0.5,5.1-1,7.7-1.3c2.2-0.4,4.4-0.7,6.4-0.9c1.8-0.2,3.6-0.5,5.4-1c1.4-0.3,2.6-1,3.6-2c1-1.1,1.5-2.6,1.4-4.1
		c0-1.4-0.4-2.8-1.1-3.9c-0.7-1-1.7-1.9-2.9-2.3c-1.2-0.6-2.5-0.9-3.8-1c-1.3-0.2-2.6-0.3-3.9-0.3c-3-0.1-6,0.6-8.5,2.2
		c-2.2,1.5-3.6,4-3.8,6.7h-12.3c0.1-3.2,1-6.3,2.6-9c1.4-2.3,3.4-4.3,5.7-5.7c2.5-1.5,5.2-2.5,8-3c3-0.6,6.1-0.8,9.1-0.9
		c2.7,0,5.4,0.3,8.1,0.9c2.6,0.5,5,1.5,7.2,2.9c2.1,1.2,3.8,2.9,5.1,5c1.4,2.2,2.1,4.8,2,7.4v28.8h-0.2L389.8,110L389.8,110z
		 M377.4,94.3c-2.1,1.4-4.5,2.1-7,2.2c-2.7,0.2-5.5,0.6-8.2,1.1c-1.3,0.2-2.6,0.5-3.8,1c-1.1,0.4-2.2,0.9-3.2,1.6s-1.7,1.6-2.2,2.6
		c-0.6,1.3-0.9,2.7-0.9,4.1c0,1.3,0.4,2.5,1.1,3.5c0.8,0.9,1.8,1.6,2.9,2.2c1.2,0.6,2.4,0.9,3.6,1.1s2.4,0.3,3.6,0.3
		c1.5,0,3-0.2,4.4-0.5c1.6-0.4,3.1-1,4.5-1.9c1.4-0.8,2.5-1.9,3.5-3.2c1-1.5,1.5-3.2,1.4-4.9L377.4,94.3L377.4,94.3z"/>
	<path class="st1" d="M400.5,66.5H412v10.9h0.2c0.4-1.6,1.1-3.1,2.1-4.4c1.1-1.5,2.4-2.8,3.8-4c1.5-1.2,3.2-2.1,5-2.9
		c1.8-0.7,3.7-1,5.6-1c1,0,2,0,3,0.1c0.5,0.1,1,0.1,1.7,0.2v11.9c-0.9-0.1-1.8-0.3-2.6-0.4c-1-0.1-1.8-0.2-2.6-0.2
		c-2,0-4.1,0.4-5.9,1.3c-1.9,0.9-3.5,2.1-4.9,3.7c-1.5,1.8-2.6,3.8-3.2,6c-0.8,2.6-1.2,5.4-1.1,8.2v26.7h-12.3V66.5H400.5z"/>
	<path class="st1" d="M444.7,97.6c0,2.2,0.4,4.3,1,6.3c0.6,1.9,1.5,3.7,2.7,5.4c1.3,1.5,2.8,2.8,4.6,3.7c2.1,1,4.4,1.5,6.7,1.4
		c3.6,0,6.5-0.7,8.7-2.3c2.3-1.8,4.1-4.2,5-7H485c-0.6,2.9-1.7,5.6-3.4,8.1c-1.5,2.4-3.4,4.4-5.7,6c-2.3,1.7-4.8,2.9-7.6,3.7
		c-6.7,2-13.8,1.7-20.3-0.9c-3.3-1.4-6.2-3.4-8.6-6.1s-4.2-5.9-5.4-9.4c-1.2-3.8-1.8-7.9-1.8-11.9c-0.1-3.9,0.5-7.7,1.8-11.4
		c1.2-3.5,3.1-6.7,5.5-9.5c2.4-2.7,5.3-4.9,8.5-6.4c7.4-3.3,15.8-3.2,23.1,0.3c3.4,1.8,6.4,4.3,8.7,7.4c2.3,3.1,4,6.7,5,10.4
		c1.1,4,1.4,8.1,0.9,12.2L444.7,97.6L444.7,97.6z M473.5,89.5c-0.1-1.9-0.5-3.9-1.3-5.7c-0.6-1.8-1.6-3.4-2.9-4.7
		c-1.2-1.4-2.7-2.5-4.3-3.2c-1.7-0.9-3.7-1.3-5.6-1.3c-2,0-4,0.4-5.9,1.1c-1.7,0.7-3.3,1.8-4.5,3.1c-1.3,1.3-2.3,2.9-3,4.7
		c-0.7,1.9-1.2,3.9-1.3,5.9L473.5,89.5z"/>
</g>
</svg>
