<svg version="1.1" xmlns="http://www.w3.org/2000/svg" xmlns:xlink="http://www.w3.org/1999/xlink" id="500px" viewBox="0 0 512 545.5"><path d="M419.216 237.296c53.2 0 76.176 43.6 76.192 80.977 0 37.376-25.792 81.727-76.175 81.727-50.385 0-83.425-48.767-86.657-48.767-3.232 0-31.232 48.767-86.848 48.767-47.95 0-70.527-44.35-70.527-48.767 0 5.23-18.75 48.767-77.184 48.767-71.728 0-81.407-56.4-81.407-68.464h45.134c0 13.664 13.296 33.36 36.272 33.36 22.96 0 39.488-23.312 39.488-44.608s-14.912-40.192-39.488-40.192c-24.592 0-33.856 17.088-33.856 17.088H23.664L44.817 176h125.136v36.192H77.457c-5.65 32.96-8.464 51.44-8.464 51.44 3.215 0 8.464-17.28 45.935-17.28 46.353 0 58.64 41.392 60.256 41.392 1.616 0 16.93-50.448 70.528-50.448 53.6 0 84.832 50.448 86.848 50.448 2.017 0 33.456-50.448 86.656-50.448zm-113.552 81.728v-.032h-.016c-.352-.433-31.136-37.81-59.68-37.81-28.688 0-34 28.594-34 37.81v.032c0 9.216 5.312 37.808 34 37.808 28.544 0 59.328-37.376 59.68-37.808h.016zm147.92 0c-.016-9.232-5.311-37.824-34-37.824-28.544 0-59.328 37.376-59.68 37.807h-.016l.016.017-.016.016h.016c.352.43 31.136 37.807 59.68 37.807 28.69 0 34-28.607 34-37.823z"/></svg>