<svg version="1.1" xmlns="http://www.w3.org/2000/svg" xmlns:xlink="http://www.w3.org/1999/xlink" id="amazon" viewBox="0 0 520.5084 545.5"><path d="M323 32c26.928 0 62.252 7.116 83.5 27.5C433.428 84.652 431 118.456 431 155v86c0 25.936 10.372 37.516 20.5 51.5 3.536 5.04 4.496 10.82 0 14.5-11.296 9.488-31.444 27.16-42.5 37v-.5c-3.664 3.28-8.872 3.708-13 1.5-18.384-15.296-21.952-22.456-32-37-30.384 30.96-51.64 40.5-91 40.5-46.608 0-83-28.996-83-86.5 0-44.944 24.311-75.508 59-90.5 30.032-13.184 71.904-15.4 104-19V145c0-13.184 1.276-28.624-6.5-40-6.736-10.192-19.608-14.5-31-14.5-21.104 0-39.892 11.068-44.5 33.5-.96 4.992-4.976 9.744-10 10l-53.5-5.5c-4.528-1.024-9.312-4.588-8-11.5 12.32-65.088 70.828-85 123.5-85zm15 165c-34.923 2.29-67 14.256-67 55.5 0 23.952 12.268 40 33.5 40 15.536 0 29.7-9.416 38.5-25 10.864-19.184 10-36.932 10-58.5v-12c-5.006 0-10.01-.327-15 0zm153 129c14.02-.194 25.608 2.548 28 5.5 4.816 5.968-1.48 46.82-25 66.5-3.616 3.024-7.1 1.484-5.5-2.5 5.28-13.232 17.116-42.816 11.5-50s-36.872-3.196-51-1.5c-4.288.512-4.856-3.28-1-6 12.552-8.816 28.98-11.806 43-12zm-368.5 7.5c.975-.13 2.264.28 3.5 1 56.416 32.832 125.936 52.5 198 52.5 48.608 0 102.332-10.136 151.5-31 7.424-3.152 13.748 5.14 6.5 10.5-43.856 32.368-107.748 49.5-162.5 49.5-76.736 0-145.696-28.284-198-75.5-3.084-2.784-1.924-6.614 1-7z"/></svg>