<svg version="1.1" xmlns="http://www.w3.org/2000/svg" xmlns:xlink="http://www.w3.org/1999/xlink" id="ambulance" viewBox="0 0 512 545.5"><path d="M272 80c17.68 0 32 14.32 32 32v16h71.5l4.5 5.5 96 112 4 4.5v182h-50.5c-7.153 27.518-31.85 48-61.5 48s-54.347-20.482-61.5-48h-133c-7.153 27.518-31.85 48-61.5 48s-54.347-20.482-61.5-48H0V128h240v-16c0-17.68 14.32-32 32-32zM32 160v240h18.5c7.153-27.518 31.85-48 61.5-48s54.347 20.482 61.5 48h133c7.153-27.518 31.85-48 61.5-48s54.347 20.482 61.5 48H448V262l-87.5-102H32zm176 48h32v48h48v32h-48v48h-32v-48h-48v-32h48v-48zm-96 176c-17.862 0-32 14.138-32 32s14.138 32 32 32 32-14.138 32-32-14.138-32-32-32zm256 0c-17.862 0-32 14.138-32 32s14.138 32 32 32 32-14.138 32-32-14.138-32-32-32z"/></svg>