<svg version="1.1" xmlns="http://www.w3.org/2000/svg" xmlns:xlink="http://www.w3.org/1999/xlink" id="anchor" viewBox="0 0 512 545.5"><path d="M256 96c35.156 0 64 28.844 64 64 0 29.65-20.482 54.347-48 61.5V256h48v32h-48v127.5c38.818-3.082 64.65-17.264 83-33.5 13.99-12.38 23.352-25.97 30-37.5L359.5 332l64-29 17 69-26.5-13c-7.564 13.578-19.338 30.93-37.5 47-23.276 20.597-57.572 37.696-104.5 41v1l-16 16-16-16v-1c-46.928-3.304-81.224-20.403-104.5-41-18.162-16.07-29.936-33.422-37.5-47l-26.5 13 17-69 64 29-25.5 12.5c6.647 11.53 16.01 25.12 30 37.5 18.35 16.236 44.182 30.418 83 33.5V288h-48v-32h48v-34.5c-27.518-7.153-48-31.85-48-61.5 0-35.156 28.844-64 64-64zm0 32c-17.862 0-32 14.138-32 32s14.138 32 32 32 32-14.138 32-32-14.138-32-32-32z"/></svg>