<svg version="1.1" xmlns="http://www.w3.org/2000/svg" xmlns:xlink="http://www.w3.org/1999/xlink" id="android" viewBox="0 0 512 545.5"><path d="M152.5 88c.138-.01.362-.016.5-.016s.362.007.5.016c.207-.02.543-.035.75-.035s.543.015.75.035c2.393.13 5.305 1.923 6.5 4l24 34c16.102-8.983 34.82-14 54.5-14s38.398 5.017 54.5 14l24-34c.898-1.707 3.138-3.5 5-4 .207-.02.543-.035.75-.035s.543.015.75.035l.257-.004c4.416 0 8 3.584 8 8 0 1.552-.787 3.793-1.757 5.004L308 135c26.665 20.508 44 52.905 44 89v160c0 11.236-7.078 19.28-16 25v47c0 21.905-18.095 40-40 40s-40-18.095-40-40v-40h-32v40c0 21.905-18.095 40-40 40s-40-18.095-40-40v-47c-8.922-5.72-16-13.764-16-25V224c0-36.095 17.335-68.492 44-89l-23.5-34c-1.09-1.248-1.973-3.604-1.973-5.26 0-3.41 2.676-6.876 5.973-7.74zm87.5 56c-38.83 0-71.075 27.45-78.5 64h157c-7.425-36.55-39.67-64-78.5-64zm-32 16c8.837 0 16 7.163 16 16s-7.163 16-16 16-16-7.163-16-16 7.163-16 16-16zm64 0c8.837 0 16 7.163 16 16s-7.163 16-16 16-16-7.163-16-16 7.163-16 16-16zM80 208h32v160H80V208zm288 0h32v160h-32V208zm-208 32v144h16v72c0 4.59 3.41 8 8 8s8-3.41 8-8v-72h96v72c0 4.59 3.41 8 8 8s8-3.41 8-8v-72h16V240H160z"/></svg>