<svg version="1.1" xmlns="http://www.w3.org/2000/svg" xmlns:xlink="http://www.w3.org/1999/xlink" id="angellist" viewBox="0 0 512 545.5"><path d="M205 96c4.998.332 9.835 1.884 14 4 8.33 4.233 14.702 10.72 20.5 18 11.597 14.563 20.975 33.648 29 53 3.306 7.97 6.246 15.76 9 23.5 1.737-6.414 3.36-12.925 5.5-19.5 6.256-19.212 14.433-38.325 25.5-53.5 5.534-7.588 11.694-14.325 20-19s18.786-6.74 29-4.5c10.052 2.21 17.457 10.836 20.5 18.5s3.836 15.518 4 24c.328 16.964-2.695 36.637-6.5 56-6.16 31.352-13.81 56.56-17 67 5.256 3.972 9.977 8.25 13.5 13 16.394 22.106 12 48.16 12 54 0 67.506-24.8 107.7-54.5 128s-61.99 21.5-76 21.5c-12.888 0-46.748.377-79-14.5s-62.5-48.175-62.5-105c0-17.254 4.175-31.943 14.5-42 6.444-6.276 14.86-9.118 23.5-10-3.275-8.767-5.784-18.595-4.5-29.5 1.427-12.117 9.01-24.925 21.5-33 5.102-3.297 10.75-5.218 16.5-5.5 2.707-.133 5.378.015 8 .5-4.373-12.28-9.237-26.644-13.5-42-5.208-18.763-9.55-38.126-10-55.5-.225-8.687.59-16.944 3.5-25s9.237-16.278 18.5-20c4.844-1.946 10.002-2.832 15-2.5zm-2.5 31.5c-.21-.027-.286.415-.5.5.07.106-.095.38-.5 1.5-.81 2.242-1.66 7.25-1.5 13.5.323 12.497 3.658 30.06 8.5 47.5 7.957 28.664 17.3 51.995 21 61 7.08-6.89 17.313-11.5 28.5-11.5h1c-4.085-14.394-10.53-34.164-20-57-7.438-17.934-16.415-34.847-24.5-45-4.043-5.076-7.874-8.42-10-9.5-1.063-.54-1.652-.955-2-1zm144 2.5c-.75 0-1.638.015-2.5.5-2.693 1.516-6.26 4.87-10 10-7.48 10.258-14.8 26.998-20.5 44.5-7.807 23.974-12.07 44.183-14.5 57.5 11.532 1.506 21.674 3.72 30.5 6.5 3.802-13.12 9.52-33.653 14.5-59 3.58-18.225 6.243-36.43 6-49-.102-5.305-.87-8.764-1.5-11-.638.02-1.25 0-2 0zM258 272c-3.97 0-5.103.982-6.5 2.5s-2.712 4.065-3 7.5c-.24 2.862.106 5.675 1 8 .73 1.12 1.287 2.356 2 3.5.315.38.644.678 1 1 .985.893 2.232 1.628 3.5 2 20.13 5.91 45.5 13.5 45.5 13.5 6.38 1.844 11.56 8.73 11.56 15.373 0 7.1-5.626 14.1-12.56 15.627 0 0-9.042 1.878-18 7.5-5.568 3.494-10.644 7.38-13.5 13-1.74 3.423-2.5 7.495-2.5 12.5 0 13.856 3.85 22.63 7.5 28s6 6.5 6 6.5L262.5 435s-8.235-5.05-15-15c-3.022-4.445-5.657-10.424-8-17-1.267 2.94-1.59 6.244-3.5 8.5-7.45 8.8-18.23 14.5-30.5 14.5-11.845 0-22.536-5.9-30.5-13s-14.234-15.787-20.5-25.5l27-17.5c5.542 8.592 10.76 15.72 15 19.5s6.59 4.5 9 4.5c1.986 0 4.997-1.814 6-3-3.457-5.858-6.842-11.143-10.5-16-15.81-20.99-32.79-32.712-42.5-35-6.023-1.42-7.723-.73-9.5 1s-5 7.53-5 19.5c0 46.52 19.912 64.89 44 76s52.74 11.5 65.5 11.5c11.64 0 36.865-1.556 58-16S352 390.578 352 330.5c0-13.153 2.29-23.994-5.5-34.5s-29.528-24-88.5-24zm-74 .5c-5.44 3.517-6.015 5.874-6.5 10-.486 4.126.405 10.584 3 17 5.19 12.833 15 24.5 15 24.5 10.61 8.09 20.412 18.834 30 32l1-.5c-3.143-4.117-3.495-2.068-1-2 2.495.07 6.622-.662 9.5-2s4.468-2.893 5-4 1.018-2.347-1-7.5c-8.58-21.925-22.023-42.652-34.5-55-6.238-6.174-12.236-10.085-16-11.5s-3.822-1.438-4.5-1z"/></svg>