<svg version="1.1" xmlns="http://www.w3.org/2000/svg" xmlns:xlink="http://www.w3.org/1999/xlink" id="apple" viewBox="0 0 512 545.5"><path d="M333.5 64h15l1 15c1.507 26.328-7.95 51.92-25 71h-.5c-.155.173-.343.328-.5.5-.065.086.065.414 0 .5-3.15 4.12-8.13 6.394-12 10 6.888-1.34 12.287-4 20-4 16.582.02 58.378 5.316 84.5 45.5l9 13.5-13.5 8.5c-1.704 1.077-1.508.864-2.5 1.5s-2.336 1.248-4 2.5c-3.327 2.503-7.72 6.54-12 11.5-8.56 9.92-16.5 23.811-16.5 44.5 0 21.362 8.526 35.304 18.5 45.5s21.17 15.73 24 17l12 5.5-3 13c-.933 4.007-1.614 5.01-3 8.5s-3.128 7.818-5.5 13c-4.743 10.362-11.227 23.305-19.5 36.5s-18.165 26.85-30 37.5-26.39 19-43.5 19c-15.83 0-27.75-5.146-36.5-9s-14.548-7-26-7c-12.718 0-19.363 3.22-28 7s-20.127 9-35.5 9c-15.374 0-28.99-7.423-42-18S133 437.227 122 420c-22-34.456-38.5-80.44-38.5-129.5 0-75.842 48.285-133.5 112-133.5 16.233 0 29.958 5.027 41 9.5 2.3.932 2.424.71 4.5 1.5-4.28-28.55 9.395-53.34 22-69v-.5C280.766 77.618 307.23 64 333.5 64zm-19 37c-9.823 4.007-19.494 9.977-26.5 18-.15.17-.352.328-.5.5-6.342 8.004-10.892 18.54-13.5 29 9.448-3.61 18.863-9.72 25-18l.5-.5.5-.5c7.22-7.85 11.75-17.958 14.5-28.5zm-119 88c-44.797 0-80 38.43-80 101.5 0 41.71 14.572 82.356 33.5 112 9.464 14.822 19.92 26.713 29.5 34.5s18.061 11 22 11c8.26 0 13.14-2.4 22.5-6.5s22.838-9.5 41-9.5c17.3 0 29.862 5.475 39 9.5s14.418 6.5 23.5 6.5c6.025 0 13.586-3.43 22-11s17.225-18.895 24.5-30.5 13.21-23.628 17.5-33c1.11-2.43 1.64-3.986 2.5-6-6.746-3.89-12.185-5.99-21-15-14.214-14.53-27.5-37.475-27.5-68 0-29.36 12.292-51.352 24.5-65.5 3.236-3.75 5.96-5.758 9-8.5-17.462-16.192-38.118-21.49-46.5-21.5-12.585 0-25.41 3.36-37.5 7.5s-22.394 9.5-36 9.5c-13.667 0-23.25-5.35-33.5-9.5s-20.08-7.5-29-7.5z"/></svg>