<svg version="1.1" xmlns="http://www.w3.org/2000/svg" xmlns:xlink="http://www.w3.org/1999/xlink" id="at" viewBox="0 0 512 545.5"><path d="M259 96c101.396 1.487 185.92 84.632 189 186 .072 2.295 0 4.384 0 6.5-.19 52.625-43.457 95.52-96 95.5-20.34-.013-38.25-10.054-50-25-13.23 15.168-32.434 25-54 25-39.575 0-72-32.425-72-72v-48c0-39.575 32.425-72 72-72 14.84 0 28.503 4.713 40 12.5V192h32v128c0 17.852 14.128 31.99 32 32 35.33.013 63.872-28.253 64-63.5 0-1.948.056-3.7 0-5.5-2.553-84.04-73.423-153.767-157.5-155-98.644-1.443-176.773 85.568-160 187.5 11.138 67.737 66.915 121.81 135 131 46.706 6.307 89.767-7.23 122.5-33.5l20 25c-39.235 31.49-91.06 47.485-146.5 40-82.22-11.098-149.53-75.573-163-157.5C46.634 199.776 141.164 94.275 259 96zm-11 128c-22.28 0-40 17.72-40 40v48c0 22.28 17.72 40 40 40s40-17.72 40-40v-48c0-22.28-17.72-40-40-40z"/></svg>