<svg version="1.1" xmlns="http://www.w3.org/2000/svg" xmlns:xlink="http://www.w3.org/1999/xlink" id="automobile" viewBox="0 0 512 545.5"><path d="M152 128h208c21.122 0 39.924 13.76 46 34l22 73.5 31-10.5 10 30-31.5 10.5 10 34c.28 1.086.508 2.878.508 4 0 .138-.004.362-.008.5v112c.027.345.05.904.05 1.25s-.023.905-.05 1.25V432c0 8.832-7.168 16-16 16h-48l-5.5-16h-245l-5.5 16H80c-8.832 0-16-7.168-16-16v-14.5c-.01-.207-.018-.543-.018-.75s.008-.543.018-.75V304c-.004-.138-.008-.362-.008-.5 0-1.122.228-2.914.508-4l10-34L43 255l10-30 31 10.5 22-73.5c6.073-20.252 24.878-34 46-34zm0 32c-7.134 0-13.445 4.647-15.5 11.5L116 240h280l-20.5-68.5c-2.052-6.832-8.366-11.5-15.5-11.5H152zm-45.5 112L96 307v93h320v-93l-10.5-35h-299zm29.5 16c13.255 0 24 10.745 24 24s-10.745 24-24 24-24-10.745-24-24 10.745-24 24-24zm240 0c13.255 0 24 10.745 24 24s-10.745 24-24 24-24-10.745-24-24 10.745-24 24-24zm-184 48h128l20 48h-34.5l-7-16h-85l-7 16H172z"/></svg>