<svg version="1.1" xmlns="http://www.w3.org/2000/svg" xmlns:xlink="http://www.w3.org/1999/xlink" id="balance-scale" viewBox="0 0 512 545.5"><path d="M256 112c20.672 0 38.31 13.508 45 32h115v32h-22.5l4.5 8 64 112 2 4v4c0 43.992-36.008 80-80 80s-80-36.008-80-80v-4l2-4 64-112 4.5-8H301c-4.863 13.44-15.56 24.137-29 29v211h64v32H176v-32h64V205c-13.474-4.87-24.115-15.5-29-29h-73.5l4.5 8 64 112 2 4v4c0 43.992-36.008 80-80 80s-80-36.008-80-80v-4l2-4 64-112 4.5-8H96v-32h115c6.69-18.492 24.328-32 45-32zm0 32c-9.026 0-16 6.974-16 16s6.974 16 16 16 16-6.974 16-16-6.974-16-16-16zm-128 80.5L91.5 288h73zm256 0L347.5 288h73zM84 320c6.432 18.576 23.104 32 44 32s37.568-13.424 44-32H84zm256 0c6.432 18.576 23.104 32 44 32s37.568-13.424 44-32h-88z"/></svg>