<svg version="1.1" xmlns="http://www.w3.org/2000/svg" xmlns:xlink="http://www.w3.org/1999/xlink" id="beer" viewBox="0 0 512 545.5"><path d="M216 96c17.53 0 32.58 7.58 45 18 3.633-.735 6.896-2 11-2 11.965 0 22.486 4.277 32 10 9.514-5.723 20.035-10 32-10 35.157 0 64 28.843 64 64 0 15.947-6.233 30.254-16 41.5.053.48.096 1.266.096 1.75s-.043 1.27-.096 1.75v19h16c26.32 0 48 21.68 48 48v64c0 26.32-21.68 48-48 48h-16v32c0 26.32-21.68 48-48 48H144c-26.32 0-48-21.68-48-48V224c.007-1.567.455-4.03 1-5.5-10.317-11.377-17-26.054-17-42.5 0-35.157 28.843-64 64-64 8.11 0 14.856 3.725 22 6.5 13.034-13.17 30.063-22.5 50-22.5zm0 32c-13.61 0-25.23 6.664-32.5 17l-9 12.5-13-8c-5.104-3.342-11.025-5.5-17.5-5.5-17.866 0-32 14.134-32 32s14.134 32 32 32c9.094 0 17.135-3.92 23-10l10.5-11 11.5 10.5c7.236 6.585 16.66 10.5 27 10.5 1.338 0 5.85-.935 9.5-2.5s6.5-3 6.5-3l24-15V216c0 22.283-4.81 39.063-9 52s-7 21.658-7 28c0 13.453 10.547 24 24 24s24-10.547 24-24c0-6.342-2.805-14.592-7-27.5s-9-30.066-9-52.5v-21.5l20.5 6s25.775 7.5 43.5 7.5c17.866 0 32-14.134 32-32s-14.134-32-32-32c-8.207 0-15.676 3.256-21.5 8.5L304 162l-10.5-9.5c-5.824-5.244-13.293-8.5-21.5-8.5-3.032 0-5.914.842-9.5 2l-10 3-7-7.5c-7.42-8.185-17.742-13.5-29.5-13.5zm-37 100c-10.194 6.886-21.82 12-35 12-5.506 0-10.89-1.172-16-2.5V432c0 9.04 6.96 16 16 16h192c9.04 0 16-6.96 16-16v-44.5c-.185-.888-.334-2.344-.334-3.25s.15-2.362.334-3.25V260.5c-.398-1.28-.72-3.41-.72-4.75s.323-3.47.72-4.75v-13.5c-5.11 1.328-10.494 2.5-16 2.5-14.128 0-18.78-2.128-29-4.5 1.35 7.608 1.938 16.654 4 23 3.805 11.708 9 22.977 9 37.5 0 30.74-25.26 56-56 56s-56-25.26-56-56c0-14.523 5.19-25.736 9-37.5 1.745-5.388 1.712-13.327 3-19.5-1.534.163-2.34 1-4 1-13.838 0-26.08-5.206-37-12zm205 44v96h16c9.04 0 16-6.96 16-16v-64c0-9.04-6.96-16-16-16h-16z"/></svg>