<svg version="1.1" xmlns="http://www.w3.org/2000/svg" xmlns:xlink="http://www.w3.org/1999/xlink" id="behance" viewBox="0 0 512 545.5"><path d="M16 140h139c91.31 0 94.5 51.1 94.5 73.5 0 40.208-26.64 55.18-40 61.5 18.192 5.232 54 22.92 54 75 0 83.328-91.268 86-104.5 86H16V140zm326 27.5h110.5v27H342v-27zm-261 23v69h66c11.52 0 39.5-3.32 39.5-35 0-37.04-38.74-34-44.5-34H81zM400 219c74.72 0 98.38 62.984 95.5 117h-142c0 15.6 3.86 50.5 48.5 50.5 26.608 0 40.644-19.888 42.5-26h48c-7.68 23.76-26.436 66.5-92.5 66.5-24.512 0-101-10.704-101-104 0-31.424 17.464-104 101-104zm-1.5 40.5c-8.656 0-15.756 1.524-21.5 4.5-5.616 2.928-10.48 6.696-14 11-3.504 4.368-5.624 9.072-7 14-1.392 4.8-2.244 9.16-2.5 13h88c-1.296-13.824-6.036-24.316-12.5-31.5-6.432-7.136-17.188-11-30.5-11zM81 304v81.5h69.5c6.416 0 48 .072 48-39 0-40.336-33-42.5-47-42.5H81z"/></svg>