<svg version="1.1" xmlns="http://www.w3.org/2000/svg" xmlns:xlink="http://www.w3.org/1999/xlink" id="bell" viewBox="0 0 512 545.5"><path d="M240 80c17.673 0 32 14.327 32 32 0 1.364-.334 2.68-.5 4 56.342 14.776 96.5 68.363 96.5 128.5V384c0 9.04 6.96 16 16 16h16v32H285c1.828 5.052 3 10.352 3 16 0 26.32-21.68 48-48 48s-48-21.68-48-48c0-5.647 1.172-10.948 3-16H80v-32h16c9.04 0 16-6.96 16-16V240c0-59.618 41.183-109.86 96.5-124-.166-1.32-.5-2.636-.5-4 0-17.673 14.327-32 32-32zm-7 64c-49.883 3.62-89 45.185-89 96v144c0 5.647-1.172 10.948-3 16h198c-1.828-5.052-3-10.352-3-16V244.5c0-53.11-40.73-98.932-93-100.5-1.024-.03-1.983 0-3 0-2.372.002-4.672-.17-7 0zm7 288c-9.026 0-16 6.974-16 16s6.974 16 16 16 16-6.974 16-16-6.974-16-16-16z"/></svg>