<svg version="1.1" xmlns="http://www.w3.org/2000/svg" xmlns:xlink="http://www.w3.org/1999/xlink" id="bell-slash-o" viewBox="0 0 512 545.5"><path d="M59.5 68.5L154 163c3.94-5.214 8.207-10.355 13-15 16.3-15.843 36.088-26.578 57.5-32-.166-1.32-.5-2.636-.5-4 0-17.673 14.327-32 32-32s32 14.327 32 32c0 1.533-.29 3.024-.5 4.5 55.188 14.724 96.5 66.765 96.5 128V384c0 8.832 7.168 16 16 16h16v25l59.5 59.5-23 23-416-416zM249 144c-22.561 1.533-43.55 11.026-60 27-4.672 4.53-8.42 9.765-12 15l175 175V244.5c0-53.968-41.704-98.964-93-100.5-3.276-.103-6.777-.22-10 0zm-120.5 84l31.5 31v125c0 5.632-1.208 10.976-3 16h144l32 32h-32c1.828 5.052 3 10.352 3 16 0 26.32-21.68 48-48 48s-48-21.68-48-48c0-5.647 1.172-10.948 3-16H96v-32h16c8.832 0 16-7.168 16-16V240c0-4.096.116-7.968.5-12zM256 432c-9.026 0-16 6.974-16 16s6.974 16 16 16 16-6.974 16-16-6.974-16-16-16z"/></svg>