<svg version="1.1" xmlns="http://www.w3.org/2000/svg" xmlns:xlink="http://www.w3.org/1999/xlink" id="bicycle" viewBox="0 0 512 545.5"><path d="M304 128h88c21.905 0 40 18.095 40 40s-18.095 40-40 40v-32c4.59 0 8-3.41 8-8s-3.41-8-8-8h-49.5l43 98.5c7.227-1.608 14.813-2.5 22.5-2.5 57.127 0 104 46.873 104 104s-46.873 104-104 104-104-46.873-104-104c0-38.247 20.97-71.936 52-90l-10.5-24-78 115-5 7h-55c-4.157 53.563-48.89 96-103.5 96C46.656 464 0 417.344 0 360s46.672-104 104-104c10.625 0 20.84 1.525 30.5 4.5L178 199l5-7h139l-16.5-38-1.5-3v-23zm-176 16h80l16 32h-96v-32zm87.5 80l42 95 64.5-95H215.5zm-28 16l-24 34.5c16.207 11.27 28.787 27.074 36.5 45.5h-36c-12.928-19.28-35.088-32-60-32-39.696 0-72 32.304-72 72s32.304 72 72 72c36.952 0 66.954-28.11 71-64H96v-32h133.5zM408 288c-3.08 0-6.02.622-9 1l31.5 72.5-29 13L369 300c-19.676 12.87-33 34.807-33 60 0 39.673 32.327 72 72 72s72-32.327 72-72-32.327-72-72-72z"/></svg>