<svg version="1.1" xmlns="http://www.w3.org/2000/svg" xmlns:xlink="http://www.w3.org/1999/xlink" id="birthday-cake" viewBox="0 0 512 545.5"><path d="M256 52l13 19s8.63 12.062 17 26.5c4.185 7.22 8.118 14.806 11.5 22.5s6.5 14.752 6.5 24c0 26.327-21.673 48-48 48s-48-21.673-48-48c0-9.248 3.118-16.306 6.5-24s7.315-15.28 11.5-22.5c8.37-14.438 17-26.5 17-26.5zm0 140h48v64h96c35.356 0 64 28.644 64 64 0 16.253-6.025 31.215-16 42.5V480H64V362.5c-9.975-11.285-16-26.247-16-42.5 0-35.356 28.644-64 64-64h96v-64h48zm0-82c-1.052 1.742-.93 1.654-2 3.5-3.815 6.58-7.882 13.545-10.5 19.5s-3.5 11.448-3.5 11c0 8.873 7.127 16 16 16s16-7.127 16-16c0 .448-.882-5.045-3.5-11s-6.685-12.92-10.5-19.5c-1.07-1.846-.948-1.758-2-3.5zm-16 114v32h32v-32h-32zm-128 64c-19.043 0-32 12.957-32 32s12.957 32 32 32 32-12.957 32-32h32c0 19.043 12.957 32 32 32s32-12.957 32-32h32c0 19.043 12.957 32 32 32s32-12.957 32-32h32c0 19.043 12.957 32 32 32s32-12.957 32-32-12.957-32-32-32H112zm48 74.5c-11.725 13.265-28.896 21.5-48 21.5-5.537 0-10.877-1.18-16-2.5V448h320v-66.5c-5.123 1.32-10.463 2.5-16 2.5-19.104 0-36.275-8.235-48-21.5-11.725 13.265-28.896 21.5-48 21.5s-36.275-8.235-48-21.5c-11.725 13.265-28.896 21.5-48 21.5s-36.275-8.235-48-21.5z"/></svg>