<svg version="1.1" xmlns="http://www.w3.org/2000/svg" xmlns:xlink="http://www.w3.org/1999/xlink" id="bitbucket" viewBox="0 0 512 545.5"><path d="M240 112c36.695 0 73.523 4.78 102.5 12.5 14.488 3.86 26.903 7.943 37 14S400 153.628 400 168c0 3.593-.867 7.034-2 10-1.23 6.32-10.5 54.684-21.5 111-5.85 29.94-11.894 59.995-16.5 84s-7.677 43.236-8 45.5c-1.435 10.055-8.01 17.133-15 22.5s-15.32 9.2-25 12.5c-19.36 6.598-44.028 10.5-72 10.5-27.987 0-52.773-3.878-72-10.5-9.613-3.312-17.552-7.224-24.5-12.5s-13.07-12.363-15-22c-4.043-20.215-44.15-228.828-46.5-241-1.133-2.966-2-6.407-2-10 0-14.372 10.403-23.443 20.5-29.5s22.512-10.14 37-14c28.977-7.72 65.805-12.5 102.5-12.5zm0 32c-33.993 0-69.148 4.245-94.5 11-12.676 3.378-22.642 7.485-28.5 11-1.645.986-1.746 1.358-2.5 2 .754.642.856 1.014 2.5 2 5.858 3.515 15.824 7.622 28.5 11 25.352 6.755 60.507 11 94.5 11s69.148-4.245 94.5-11c12.676-3.378 22.642-7.485 28.5-11 1.645-.986 1.746-1.358 2.5-2-.754-.642-.856-1.014-2.5-2-5.858-3.515-15.824-7.622-28.5-11-25.352-6.755-60.507-11-94.5-11zm-120.5 62c6.443 33.376 14.133 73.87 25 130l2.5 3s5.854 6.75 12.5 11c13.293 8.497 37.678 18 80.5 18 42.807 0 66.733-9.453 80-18 6.633-4.273 10.757-8.785 13-11.5 1.618-1.958 1.8-1.766 2-2 3.32-17.748 6.264-34.87 10-54 7.624-39.03 11.084-54.722 15.5-76.5-5.665 1.99-11.47 3.76-18 5.5-28.977 7.72-65.805 12.5-102.5 12.5s-73.523-4.78-102.5-12.5c-6.53-1.74-12.335-3.51-18-5.5zM240 240c26.32 0 48 21.68 48 48s-21.68 48-48 48-48-21.68-48-48 21.68-48 48-48zm0 32c-9.026 0-16 6.974-16 16s6.974 16 16 16 16-6.974 16-16-6.974-16-16-16zm-86.5 110.5c1.536 7.894 5.527 28.138 6 30.5-.195-.973-.092.152 3 2.5s8.675 5.478 16 8c14.65 5.046 36.464 8.5 61.5 8.5 25.053 0 47.24-3.47 62-8.5 7.38-2.515 12.54-5.728 15.5-8 1.33-1.022 2.175-1.58 2.5-2 .575-4.027 3.59-18.395 6-30.5-19.206 9.543-46.676 17-86 17-39.79 0-67.264-7.94-86.5-17.5z"/></svg>