<svg version="1.1" xmlns="http://www.w3.org/2000/svg" xmlns:xlink="http://www.w3.org/1999/xlink" id="bold" viewBox="0 0 512 545.5"><path d="M256 144H112v288h176c44.8 0 80-35.2 80-80 0-35.2-22.4-64-52.8-75.2 12.8-14.4 20.8-32 20.8-52.8 0-44.8-35.2-80-80-80zM144 272v-96h112c27.2 0 48 20.8 48 48s-20.8 48-48 48H144zm0 128v-96h144c27.2 0 48 20.8 48 48s-20.8 48-48 48H144zm112-288c62.4 0 112 49.6 112 112 0 14.4-3.2 28.8-8 41.6 24 20.8 40 52.8 40 86.4 0 62.4-49.6 112-112 112H80V112h176zm-80 96v32h80c9.6 0 16-6.4 16-16s-6.4-16-16-16h-80zm0 128v32h112c9.6 0 16-6.4 16-16s-6.4-16-16-16H176z"/></svg>