<svg version="1.1" xmlns="http://www.w3.org/2000/svg" xmlns:xlink="http://www.w3.org/1999/xlink" id="bomb" viewBox="0 0 512 545.5"><path d="M374.5 62l4.5 31.5 9 62.5 62.5 9 31.5 4.5-22.5 22.5-59.5 59.5-5.5 5.5-8-1-4.5-.5c5.08 33.97-4.946 69.446-31 95.5L246.5 456c-30.1 30.1-73.796 34.448-108.5 33s-62.5-9.5-62.5-9.5L67 477l-2.5-8.5S56.45 440.703 55 406s2.907-78.398 33-108.5L190.5 195l2.5-2c26.056-26.056 61.533-36.074 95.5-31l-.5-4.5-1-8 5.5-5.5L352 84.5zM352 130l-31 31 3 19.5 3.5 27.5-25.5-10c-28.84-11.63-63-6-86.5 17.5L111 320c-19.844 19.85-25.273 54.044-24 84.5 1.053 25.193 5.295 38.91 7 45.5 6.59 1.705 20.308 5.948 45.5 7 30.456 1.272 64.648-4.148 84.5-24l104.5-104.5C352 305 357.64 270.834 346 242l-10-26 27.5 4 19.5 3 31-31-42.5-6-12-1.5-1.5-12z"/></svg>