<svg version="1.1" xmlns="http://www.w3.org/2000/svg" xmlns:xlink="http://www.w3.org/1999/xlink" id="bug" viewBox="0 0 512 545.5"><path d="M171.5 84.5l37 37c14.77-6.246 30.748-9.5 47.5-9.5s32.73 3.254 47.5 9.5l37-37 23 23-31 31c23.386 17.898 41.757 44.086 53.5 74.5l39-19.5 14 29-44 22c2.926 14.014 5 28.508 5 43.5 0 5.445-.1 10.662-.5 16H448v32h-54c-3.877 16.694-8.982 32.625-16.5 47l48 36-19 26-47-35c-25.885 32.894-62.166 54-103.5 54s-77.615-21.106-103.5-54l-47 35-19-26 48-36c-7.518-14.375-12.623-30.306-16.5-47H64v-32h48.5c-.4-5.338-.5-10.555-.5-16 0-14.992 2.074-29.486 5-43.5l-44-22 14-29 39 19.5c11.743-30.414 30.114-56.602 53.5-74.5l-31-31zM256 144c-31.648 0-61.237 17.5-82 46 18.14 8.18 46.79 18 82 18s63.86-9.82 82-18c-20.763-28.5-50.352-46-82-46zm-97.5 73.5c-9.104 20.666-14.5 44.616-14.5 70.5 0 74.058 43.164 132.505 96 142.5V239c-34.72-2.596-63.06-12.822-81.5-21.5zm195 0c-18.44 8.678-46.78 18.904-81.5 21.5v191.5c52.836-9.995 96-68.442 96-142.5 0-25.884-5.396-49.834-14.5-70.5z"/></svg>