<svg version="1.1" xmlns="http://www.w3.org/2000/svg" xmlns:xlink="http://www.w3.org/1999/xlink" id="bullhorn" viewBox="0 0 512 545.5"><path d="M448 80.5V227c18.492 6.69 32 24.328 32 45s-13.508 38.31-32 45v146.5L422.5 445s-32.106-23.086-78-46.5-105.39-46.5-157-46.5h-54l26 91.5L165 464H68l-3.5-11.5-32-112-.5-2.5V192h155.5c52.327 0 111.79-22.598 157.5-46s77.5-47 77.5-47zM416 140c-13.122 8.934-23.336 17.02-56.5 34-46.87 23.997-107.608 48.806-167.5 50v96c59.322 1.172 119.986 25.515 167 49.5 33.243 16.96 43.768 25.07 57 34V140zM64 224v96h96v-96H64zm5.5 128L92 432h30.5L100 352H69.5z"/></svg>