<svg version="1.1" xmlns="http://www.w3.org/2000/svg" xmlns:xlink="http://www.w3.org/1999/xlink" id="bullseye" viewBox="0 0 512 545.5"><path d="M256 80c114.78 0 208 93.22 208 208s-93.22 208-208 208S48 402.78 48 288 141.22 80 256 80zm0 16C149.866 96 64 181.866 64 288s85.866 192 192 192 192-85.866 192-192S362.134 96 256 96zm0 32c88.176 0 160 71.824 160 160s-71.824 160-160 160S96 376.176 96 288s71.824-160 160-160zm0 32c-70.882 0-128 57.118-128 128s57.118 128 128 128 128-57.118 128-128-57.118-128-128-128zm0 32c52.83 0 96 43.17 96 96s-43.17 96-96 96-96-43.17-96-96 43.17-96 96-96zm0 32c-35.536 0-64 28.464-64 64s28.464 64 64 64 64-28.464 64-64-28.464-64-64-64zm0 32c17.673 0 32 14.327 32 32s-14.327 32-32 32-32-14.327-32-32 14.327-32 32-32z"/></svg>