<svg version="1.1" xmlns="http://www.w3.org/2000/svg" xmlns:xlink="http://www.w3.org/1999/xlink" id="camera-retro" viewBox="0 0 512 545.5"><path d="M184 128h144l5 6.5 19 25.5h112v288H48V160h32v-16h64v16h16l19-25.5zm16 32l-19 25.5-5 6.5H80v64h93c16.678-28.552 47.7-48 83-48s66.322 19.448 83 48h93v-64h-96l-5-6.5-19-25.5H200zm168 48h32v32h-32v-32zm-112 32c-35.536 0-64 28.464-64 64s28.464 64 64 64 64-28.464 64-64-28.464-64-64-64zM80 288v128h352V288h-81.5c.863 5.153 1.5 10.61 1.5 16 0 52.83-43.17 96-96 96s-96-43.17-96-96c0-5.39.637-10.847 1.5-16H80z"/></svg>