<svg version="1.1" xmlns="http://www.w3.org/2000/svg" xmlns:xlink="http://www.w3.org/1999/xlink" id="cc-amex" viewBox="0 0 512 545.5"><path d="M80 128h352c26.32 0 48 21.68 48 48v224c0 26.32-21.68 48-48 48H80c-26.32 0-48-21.68-48-48V176c0-26.32 21.68-48 48-48zm0 32c-9.04 0-16 6.96-16 16v224c0 9.04 6.96 16 16 16h352c9.04 0 16-6.96 16-16V176c0-9.04-6.96-16-16-16H80zm33 84h24l31 83.5V244h31l22 59.5 22-59.5h28.5v88H254v-64l-24.5 64H212l-24-66v66h-37.5l-6.5-20h-37.5l-6.5 20H80zm182.5 0H368l18 26.5 22-26.5h24l-33 44 33 44h-22l-22-28.5-22 28.5h-70.5v-88zM124 261.5l-11 31h22zm189 2.5v15h40v18h-40v17.5h42l20-26.5-18-24h-44z"/></svg>