<svg version="1.1" xmlns="http://www.w3.org/2000/svg" xmlns:xlink="http://www.w3.org/1999/xlink" id="cc-diners-club" viewBox="0 0 512 545.5"><path d="M80 128h352c26.32 0 48 21.68 48 48v224c0 26.32-21.68 48-48 48H80c-26.32 0-48-21.68-48-48V176c0-26.32 21.68-48 48-48zm0 32c-9.04 0-16 6.96-16 16v224c0 9.04 6.96 16 16 16h352c9.04 0 16-6.96 16-16V176c0-9.04-6.96-16-16-16H80zm160 32h32c53.024 0 96 42.976 96 96s-42.976 96-96 96h-32c-52.83 0-96-43.17-96-96s43.17-96 96-96zm0 32c-35.536 0-64 28.464-64 64s28.464 64 64 64 64-28.464 64-64-28.464-64-64-64zm-13 26.5v75c-15.568-5.472-27-20.06-27-37.5s11.432-32.028 27-37.5zm26 0c15.568 5.472 27 20.06 27 37.5s-11.432 32.012-27 37.5v-75z"/></svg>