<svg version="1.1" xmlns="http://www.w3.org/2000/svg" xmlns:xlink="http://www.w3.org/1999/xlink" id="cc-discover" viewBox="0 0 512 545.5"><path d="M80 128h352c26.32 0 48 21.68 48 48v224c0 26.32-21.68 48-48 48H80c-26.32 0-48-21.68-48-48V176c0-26.32 21.68-48 48-48zm0 32c-9.04 0-16 6.96-16 16v224c0 9.04 6.96 16 16 16h352c9.04 0 16-6.96 16-16V176c0-9.04-6.96-16-16-16H80zm87 98.5c6.192 0 12.264 2.357 17 6.5l-6 7.5c-2.864-3.216-5.704-4.5-9-4.5-4.752 0-8 2.448-8 6 0 3.04 1.892 4.552 8.5 7 12.528 4.592 15.984 9.024 16 18 0 10.928-7.56 18.5-19 18.5-8.384 0-14.928-3.56-20-11l7.5-6.5c2.528 4.912 6.752 7.5 12 7.5 4.912 0 8.5-3.424 8.5-8 0-5.456-5-6.744-11-9-10.288-3.872-14-7.724-14-15.5 0-9.232 7.516-16.5 17.5-16.5zm52 0c4.736 0 9.168.552 14 3v13c-4.576-4.48-8.752-6-14-6-10.32 0-18.5 8.168-18.5 19 0 11.424 7.912 19.5 19 19.5 4.992 0 9.1-1.6 13.5-6v13c-5.008 2.368-9.264 3.5-14 3.5-16.768 0-30-12.908-30-29.5 0-16.416 13.328-29.468 30-29.5zm46.5 0c16.26 0 29.5 13.24 29.5 29.5 0 16.26-13.24 29.5-29.5 29.5-16.26 0-29.5-13.24-29.5-29.5 0-16.26 13.24-29.5 29.5-29.5zm-185.5 1h16c17.856 0 30.5 11.86 30.5 28.5 0 8.8-5.94 28-30.5 28H80v-56.5zm51.5 0h11V316h-11v-56.5zm161.5 0h12l15 38 15.5-38h12l-24.5 58h-6zm59.5 0h31v9.5h-20v12.5H383v9.5h-19.5v15.5h20v9.5h-31v-56.5zm38.5 0h16c12.704 0 20 5.924 20 16.5 0 8.64-4.696 14.32-13 16l18 24h-13.5L403 293.5h-1V316h-11v-56.5zm11 9v17h3c7.04 0 11-2.82 11-8.5 0-5.488-4.136-8.5-11-8.5h-3zM91 269v37.5h3c19.824 0 20.984-14.244 21-18.5 0-8.88-5.492-19-20.5-19H91z"/></svg>