<svg version="1.1" xmlns="http://www.w3.org/2000/svg" xmlns:xlink="http://www.w3.org/1999/xlink" id="cc-jcb" viewBox="0 0 512 545.5"><path d="M80 128h352c26.32 0 48 21.68 48 48v224c0 26.32-21.68 48-48 48H80c-26.32 0-48-21.68-48-48V176c0-26.32 21.68-48 48-48zm0 32c-9.04 0-16 6.96-16 16v224c0 9.04 6.96 16 16 16h352c9.04 0 16-6.96 16-16V176c0-9.04-6.96-16-16-16H80zm50.5 48H192v127c0 18.688-17.656 33-33 33H96V242c0-21.584 14.852-34 34.5-34zm112 0H304v126c0 18.64-17.704 33-33 33h-63V242c0-21.504 14.916-34 34.5-34zm112 0H416v126c0 18.624-18.236 33-33.5 33H320V242c0-21.488 14.932-34 34.5-34zM246 256c-14.32 0-26.5 12.864-26.5 28 0 15.152 12.18 27.5 26.5 27.5h46V302c-10.992 2.56-21.736 3.5-27 3.5-11.472 0-20.5-9.357-20.5-21.5 0-12.112 9.028-22 20.5-22 5.264 0 16.008 1.456 27 4v-10h-46zm87.5 0v55h60c8.112 0 14.5-6.832 14.5-14 0-7.152-6.372-13.5-14.5-13.5 7.168 0 12-6.848 12-14 0-7.168-5.832-13.5-13-13.5h-59zm-182 .5v31c0 9.12-7.42 16.5-17.5 16.5-9.104 0-17.06-5.84-18.5-14h-12c3.36 13.424 19.256 24 37 24 16.288 0 38.5-9.236 38.5-26.5v-31h-27.5zm204.5 5h19c4.768 0 9 4.732 9 9.5s-4.232 9-9 9h-19v-18.5zm0 25.5h19.5c4.784 0 9 4.716 9 9.5 0 4.752-4.216 9-9 9H356V287z"/></svg>