<svg version="1.1" xmlns="http://www.w3.org/2000/svg" xmlns:xlink="http://www.w3.org/1999/xlink" id="cc-mastercard" viewBox="0 0 512 545.5"><path d="M80 128h352c26.32 0 48 21.68 48 48v224c0 26.32-21.68 48-48 48H80c-26.32 0-48-21.68-48-48V176c0-26.32 21.68-48 48-48zm0 32c-9.04 0-16 6.96-16 16v224c0 9.04 6.96 16 16 16h352c9.04 0 16-6.96 16-16V176c0-9.04-6.96-16-16-16H80zm112 16c23.773 0 45.83 7.273 64 20 18.102-12.68 40.188-20 64-20 61.67 0 112 50.33 112 112s-50.33 112-112 112c-23.811 0-45.898-7.32-64-20-18.17 12.727-40.227 20-64 20-61.666 0-112-50.334-112-112s50.334-112 112-112zm0 32c-44.372 0-80 35.628-80 80s35.628 80 80 80c20.51 0 38.882-7.933 53-20.5-6.534-8.218-11.915-17.42-15.5-27.5H265c2.23-5.095 4.363-10.406 5.5-16h-45c-.88-5.216-1.5-10.528-1.5-16s.604-10.784 1.5-16h45c-1.137-5.594-3.27-10.905-5.5-16h-35.5c3.585-10.08 8.96-19.282 15.5-27.5-14.118-12.567-32.49-20.5-53-20.5zm128 0c-14.64 0-28.196 4.143-40 11 15.054 19.075 24 42.922 24 69s-8.946 49.925-24 69c11.804 6.857 25.36 11 40 11 44.38 0 80-35.62 80-80s-35.62-80-80-80z"/></svg>