<svg version="1.1" xmlns="http://www.w3.org/2000/svg" xmlns:xlink="http://www.w3.org/1999/xlink" id="cc-paypal" viewBox="0 0 512 545.5"><path d="M142.5 112H289c23.55 0 48.783 8.565 67 27.5 9.842 10.23 17.093 23.71 20.5 39.5 17.726 4.387 34.853 13.635 47.5 29 15.592 18.945 23.064 46.95 16 80-13.433 62.9-66.294 102-126.5 102h-43L254 467l-2.5 13H140l4.5-19.5L154 416H76l4.5-19.5 59-272zm26 32L116 384h45.5l16.5-77.5 2.5-12.5h69c47.058 0 84.433-27.518 95-77 5.932-27.745-.492-44.06-11.5-55.5S304.682 144 289 144H168.5zm40.5 23.5h51c14.195 0 27.553 6.61 35.5 17.5 7.763 10.636 10.027 24.977 6.5 39-.083.333.09.667 0 1h-.5c-6.986 27.818-31.568 48.5-60 48.5H185l4.5-19.5 16.5-74zm25.5 32l-9.5 42h16.5c11.217 0 26.492-11.545 29.5-24.5v-.5c1.714-6.3.356-10.456-1.5-13s-4.495-4-9.5-4h-25.5zm143 14c-.434 3.485-.727 6.885-1.5 10.5-13.433 62.9-66.294 102-126.5 102h-43L190 403l-2.5 13h-.5l-7 32h45.5l16.5-77.5 2.5-12.5h69c47.058 0 84.433-27.518 95-77 5.465-25.573.316-41.18-9-52.5-5.64-6.854-13.533-11.537-22-15z"/></svg>