<svg version="1.1" xmlns="http://www.w3.org/2000/svg" xmlns:xlink="http://www.w3.org/1999/xlink" id="cc-stripe" viewBox="0 0 512 545.5"><path d="M80 128h352c26.32 0 48 21.68 48 48v224c0 26.32-21.68 48-48 48H80c-26.32 0-48-21.68-48-48V176c0-26.32 21.68-48 48-48zm0 32c-9.04 0-16 6.96-16 16v224c0 9.04 6.96 16 16 16h352c9.04 0 16-6.96 16-16V176c0-9.04-6.96-16-16-16H80zm184 55c7.472 0 13.5 5.916 13.5 13.5 0 7.488-6.012 13.5-13.5 13.5-7.584 0-13.5-6.012-13.5-13.5 0-7.584 5.916-13.5 13.5-13.5zm-87 12v23h16.5l-3 19.5H177V303c0 5.936 2.412 8.5 7.5 8.5 2.4 0 5.948-.584 7.5-1v20c-2.8.736-6.844 2-13.5 2-8.624 0-14.744-1.576-19-5-5.088-4.144-7.5-10.74-7.5-20.5v-37.5h-11l3-18 8-1.5 3-19.5zm-66.5 21.5c12.368 0 21.132 3.42 25.5 5.5l-3 19.5c-5.504-2.704-13.708-6-21.5-6-4.272 0-6.5 2.088-6.5 5 0 3.424 4.416 5.2 12 8 14.24 5.088 23.016 11.052 23 25.5 0 8.72-3.176 15.924-9 20.5-5.184 4.16-12.752 6-22 6-11.632 0-22.968-3.576-29-7l3-19.5c7.056 4.16 17.956 7.5 24.5 7.5 5.296 0 8-2.076 8-5.5 0-3.536-2.96-5.784-12-9-14.032-5.088-22.5-10.872-22.5-25 0-7.792 2.592-14.536 8-19 5.2-4.256 12.764-6.5 21.5-6.5zm221 0c8.096 0 14.424 3.08 19 9 5.184 6.656 7.484 17.288 7.5 31 0 15.488-3.54 26.916-10.5 34.5-7.28 7.888-16.552 9.5-23 9.5-3.632 0-7.548-.252-11.5-1.5v25.5l-26 4.5V250h23l1 8.5c6.128-6.544 13.012-10 20.5-10zm67.5 0c10.704 0 18.884 3.72 24.5 11 5.52 7.168 8.5 17.62 8.5 30.5 0 1.872-.356 7.768-.5 9H389c.528 5.296 1.796 8.712 4.5 11 2.496 2.176 6.008 3.5 11 3.5 8.32 0 15.664-2.076 22-5.5l3 18c-6.432 4.272-16.492 6.5-27.5 6.5-11.935 0-21.552-2.76-28-9-7.168-6.96-10.5-17.956-10.5-32.5 0-25.984 13.58-42.5 35.5-42.5zm-159 .5c1.568 0 3.208.084 5 .5v24c-1.776-.304-3.156-.5-4.5-.5-6.24 0-10.784 1.548-14 5.5V331h-26v-81H223l1.5 10c2.288-6.848 8.22-11 15.5-11zm11 1h26v81h-26v-81zm147.5 16c-5.92 0-8.78 5.464-9.5 17h19c-.416-11.44-3.676-17-9.5-17zm-76 2.5c-1.44 0-5.132.424-9.5 5V312c2.08 1.04 4.408 1.5 7 1.5 3.744 0 6.92-2.048 9-6 2.384-4.16 3.516-10.612 3.5-18.5 0-13.808-3.456-20.5-10-20.5z"/></svg>