<svg version="1.1" xmlns="http://www.w3.org/2000/svg" xmlns:xlink="http://www.w3.org/1999/xlink" id="cc-visa" viewBox="0 0 512 545.5"><path d="M80 128h352c26.32 0 48 21.68 48 48v224c0 26.32-21.68 48-48 48H80c-26.32 0-48-21.68-48-48V176c0-26.32 21.68-48 48-48zm0 32c-9.04 0-16 6.96-16 16v224c0 9.04 6.96 16 16 16h352c9.04 0 16-6.96 16-16V176c0-9.04-6.96-16-16-16H80zm230.5 70c13.584 0 27.5 5.5 27.5 5.5l-5 24.5s-10.512-7.5-20-7.5c-14.576 0-20 5.1-20 11.5 0 12.528 41 14.388 41 42.5 0 23.376-29.508 39.5-50.5 39.5-21.008 0-31.5-6.5-31.5-6.5l5-23s11.04 6 28 6c16.928 0 19.5-6.944 19.5-10 0-17.936-41-13.104-41-48 0-19.296 16.184-34.5 47-34.5zM179 232h31.5l-45 110.5h-32L110 253s24.72 12.76 40 47c.656 4.16 2 11 2 11zm43 0h29.5L234 342.5h-29.5zm159 0h31l22.5 110.5H408l-3-15.5h-37l-6 15.5h-29zm-303.5.5h45c11.6 0 16 11 16 11l10 50c-13.456-43.344-71-61-71-61zM392 264l-15.5 41.5h24z"/></svg>