<svg version="1.1" xmlns="http://www.w3.org/2000/svg" xmlns:xlink="http://www.w3.org/1999/xlink" id="cc" viewBox="0 0 512 545.5"><path d="M32 128h448v286.5H32V128zm32 32v222.5h384V160H64zm128 32c19.097 0 36.447 7.052 50 18l-20 25c-8.432-6.811-18.665-11-30-11-26.695 0-48 21.305-48 48s21.305 48 48 48c11.335 0 21.568-4.189 30-11l20 25c-13.553 10.948-30.903 18-50 18-43.992 0-80-36.008-80-80s36.008-80 80-80zm160 0c19.097 0 36.447 7.052 50 18l-20 25c-8.432-6.811-18.665-11-30-11-26.695 0-48 21.305-48 48s21.305 48 48 48c11.335 0 21.568-4.189 30-11l20 25c-13.553 10.948-30.903 18-50 18-43.992 0-80-36.008-80-80s36.008-80 80-80z"/></svg>