<svg version="1.1" xmlns="http://www.w3.org/2000/svg" xmlns:xlink="http://www.w3.org/1999/xlink" id="child" viewBox="0 0 512 545.5"><path d="M192 80c35.23 0 60.662 16.11 72.5 37 .422-.654.538-1.346 1-2 7.243-10.262 21.033-19 38.5-19v32c-7.24 0-9.4 1.77-11.5 4.5 61.52 14.732 108.993 65.677 121 129 19.093 6.353 34.5 21.392 34.5 42.5 0 21.84-16.388 37.28-36.5 43-13.057 75.22-77.122 133-155.5 133s-142.443-57.78-155.5-133C80.388 341.28 64 325.84 64 304s16.388-37.28 36.5-43c11.86-68.332 65.96-122.195 134.5-131.5-6.238-9.182-19.07-17.5-43-17.5V80zm64 80c-65.484 0-119.382 49.938-126.5 114l-1.5 14h-16c-8.873 0-16 7.127-16 16s7.127 16 16 16h16l1.5 14c7.118 64.06 61.016 114 126.5 114s119.382-49.938 126.5-114l1.5-14h16c8.873 0 16-7.127 16-16s-7.127-16-16-16h-14l-2-14c-8.574-64.305-62.516-114-128-114zm-56 128c13.255 0 24 10.745 24 24s-10.745 24-24 24-24-10.745-24-24 10.745-24 24-24zm112 0c13.255 0 24 10.745 24 24s-10.745 24-24 24-24-10.745-24-24 10.745-24 24-24z"/></svg>