<svg version="1.1" xmlns="http://www.w3.org/2000/svg" xmlns:xlink="http://www.w3.org/1999/xlink" id="chrome" viewBox="0 0 512 545.5"><path d="M256 96c105.85 0 192 86.15 192 192s-86.15 192-192 192S64 393.85 64 288 150.15 96 256 96zm0 32c-48.525 0-91.69 21.534-121 55.5l57 57c14.625-19.523 37.88-32.5 64-32.5 12.615 0 24.358 3.24 35 8.5h108c-26.185-52.563-80.142-88.5-143-88.5zm-134 73c-16.234 25.04-26 54.85-26 87 0 78.358 55.766 143.58 130 157.5l20-78c-36.768-4.696-65.94-34.903-69.5-72zm285.5 35l-78 21.5c3.948 9.446 6.5 19.667 6.5 30.5 0 26.865-13.526 50.973-34 65.5l-54.5 94c2.813.146 5.65.5 8.5.5 88.555 0 160-71.445 160-160 0-18.247-2.91-35.682-8.5-52zM256 240c-26.7 0-48 21.3-48 48s21.3 48 48 48 48-21.3 48-48c0-16.686-8.24-31.413-21-40-7.655-5.152-16.988-8-27-8z"/></svg>