<svg version="1.1" xmlns="http://www.w3.org/2000/svg" xmlns:xlink="http://www.w3.org/1999/xlink" id="cloud" viewBox="0 0 512 545.5"><path d="M256 112c39.222 0 73.015 20.827 93 51.5 6.267-1.418 12.082-3.5 19-3.5 52.826 0 96 43.174 96 96 27.675 16.876 48 45.357 48 80 0 52.826-43.174 96-96 96H96c-52.826 0-96-43.174-96-96s43.174-96 96-96c3.374 0 6.297.643 9.5 1 8.5-19.06 23.02-33.326 42.5-41 11.172-50.066 54.71-88 108-88zm0 32c-40.353 0-73.304 29.382-79 68l-1.5 11-10.5 2.5c-17.76 4.236-32.037 18.174-36 36l-3 15.5-16-3.5c-4.768-1.074-9.343-1.5-14-1.5-35.526 0-64 28.474-64 64s28.474 64 64 64h320c35.526 0 64-28.474 64-64 0-26.587-16.146-49.242-39-59l-10.5-4.5 1-11.5c.28-3.752.5-5.144.5-5 0-35.526-28.474-64-64-64-7.11 0-14.007 1.543-21 4l-13.5 4.5-6-12.5c-13.19-26.09-40.168-44-71.5-44z"/></svg>