<svg version="1.1" xmlns="http://www.w3.org/2000/svg" xmlns:xlink="http://www.w3.org/1999/xlink" id="cloud-download" viewBox="0 0 512 545.5"><path d="M256 112c54.043 0 98.238 34.095 117.5 81 56.432 2.91 101.284 47.773 105 104 19.828 17.627 33.5 42.833 33.5 71 0 53.18-42.82 96-96 96H96c-53.18 0-96-42.82-96-96 0-44.012 30.14-79.098 69.5-90.5 9.548-27.186 32.792-46.703 61.5-51.5 7.258-63.91 59.097-114 125-114zm0 32c-53.92 0-96 42.078-96 96v16h-16c-23.102 0-42.206 15.428-47 37l-2 10.5-10.5 2C55.182 310.6 32 335.68 32 368c0 36.42 27.58 64 64 64h320c36.42 0 64-27.58 64-64 0-20.267-10.396-39.672-25.5-51l-6.5-5v-8c0-44.072-35.928-80-80-80h-16.5l-3.5-11.5c-12.463-40.157-47.8-68.5-92-68.5zm-16 80h32v105l36.5-36.5 23 23-64 64-11.5 11-11.5-11-64-64 23-23L240 329V224z"/></svg>