<svg version="1.1" xmlns="http://www.w3.org/2000/svg" xmlns:xlink="http://www.w3.org/1999/xlink" id="compass" viewBox="0 0 512 545.5"><path d="M256 80c114.686 0 208 93.314 208 208s-93.314 208-208 208S48 402.686 48 288 141.314 80 256 80zm-18 33c-83.615 8.46-149.457 75.112-157 159h15v32H81c7.603 84.546 74.454 151.397 159 159v-15h32v15c84.546-7.603 151.397-74.454 159-159h-15v-32h15c-7.603-84.546-74.454-151.397-159-159v15h-32v-15c-.658.06-1.344-.066-2 0zm115.5 77.5l-59 136-136 59 59-136zM256 264c-12.8 0-24 11.2-24 24s11.2 24 24 24 24-11.2 24-24-11.2-24-24-24z"/></svg>