<svg version="1.1" xmlns="http://www.w3.org/2000/svg" xmlns:xlink="http://www.w3.org/1999/xlink" id="contao" viewBox="0 0 512 545.5"><path d="M90.5 119.5h43c-19.2 16.08-49 50.172-49 107.5 0 17.984 1.388 31.844 3.5 44.5 5.232 31.392 20.208 97.8 24 113 .896 3.584 12.464 44.032 38 72H90.5c-14.512 0-26.5-11.488-26.5-26v-285c0-14.512 11.988-26 26.5-26zm264 0h67c14.512 0 26.484 11.488 26.5 26v285c0 14.512-11.988 26-26.5 26H384c10.144-10.896 42.5-49.756 42.5-99.5v-25l-103 23s.38 56.5-56.5 56.5c-34.592 0-48.084-28.044-60.5-81.5-10.256-44.128-18-90.356-18-112.5 0-34.16 34.524-47.5 53.5-47.5 34.864 0 50 34 50 34l102.5-21.5s-14.176-39.8-40-63z"/></svg>