<svg version="1.1" xmlns="http://www.w3.org/2000/svg" xmlns:xlink="http://www.w3.org/1999/xlink" id="copyright" viewBox="0 0 512 545.5"><path d="M256 80c114.686 0 208 93.314 208 208s-93.314 208-208 208S48 402.686 48 288 141.314 80 256 80zm0 32c-97.392 0-176 78.608-176 176s78.608 176 176 176 176-78.608 176-176-78.608-176-176-176zm-1.5 80c38.4 0 71.217 23.023 86.5 55.5L312 261c-10.316-21.923-31.9-37-57.5-37-36.42 0-64 27.58-64 64s27.58 64 64 64c25.6 0 47.184-15.077 57.5-37l29 13.5c-15.283 32.477-48.1 55.5-86.5 55.5-53.18 0-96-42.82-96-96s42.82-96 96-96z"/></svg>