<svg version="1.1" xmlns="http://www.w3.org/2000/svg" xmlns:xlink="http://www.w3.org/1999/xlink" id="creative-commons" viewBox="0 0 512 545.5"><path d="M256 96c105.85 0 192 86.15 192 192s-86.15 192-192 192S64 393.85 64 288 150.15 96 256 96zm0 32c-88.555 0-160 71.445-160 160s71.445 160 160 160 160-71.445 160-160-71.445-160-160-160zm-64 96c26.32 0 48 21.68 48 48h-32c0-9.04-6.96-16-16-16s-16 6.96-16 16v32c0 9.04 6.96 16 16 16s16-6.96 16-16h32c0 26.32-21.68 48-48 48s-48-21.68-48-48v-32c0-26.32 21.68-48 48-48zm128 0c26.32 0 48 21.68 48 48h-32c0-9.04-6.96-16-16-16s-16 6.96-16 16v32c0 9.04 6.96 16 16 16s16-6.96 16-16h32c0 26.32-21.68 48-48 48s-48-21.68-48-48v-32c0-26.32 21.68-48 48-48z"/></svg>