<svg version="1.1" xmlns="http://www.w3.org/2000/svg" xmlns:xlink="http://www.w3.org/1999/xlink" id="credit-card" viewBox="0 0 512 545.5"><path d="M80 112h288c26.32 0 48 21.68 48 48v16h16c26.32 0 48 21.68 48 48v192c0 26.32-21.68 48-48 48H144c-26.32 0-48-21.68-48-48v-16H80c-26.32 0-48-21.68-48-48V160c0-26.32 21.68-48 48-48zm0 32c-9.04 0-16 6.96-16 16v192c0 9.04 6.96 16 16 16h288c9.04 0 16-6.96 16-16V208H80v-32h304v-16c0-9.04-6.96-16-16-16H80zm336 64v32h32v-16c0-9.04-6.96-16-16-16h-16zm0 64v80c0 26.32-21.68 48-48 48H128v16c0 9.04 6.96 16 16 16h288c9.04 0 16-6.96 16-16V272h-32z"/></svg>