<svg version="1.1" xmlns="http://www.w3.org/2000/svg" xmlns:xlink="http://www.w3.org/1999/xlink" id="crosshairs" viewBox="0 0 512 545.5"><path d="M240 80h32v33c84.28 7.637 151.363 74.72 159 159h33v32h-33c-7.637 84.28-74.72 151.363-159 159v33h-32v-33c-84.28-7.637-151.363-74.72-159-159H48v-32h33c7.637-84.28 74.72-151.363 159-159V80zm0 64.5c-67.088 7.254-120.246 60.412-127.5 127.5H144v32h-31.5c7.254 67.088 60.412 120.246 127.5 127.5V400h32v31.5c67.088-7.254 120.246-60.412 127.5-127.5H368v-32h31.5c-7.254-67.088-60.412-120.246-127.5-127.5V176h-32v-31.5z"/></svg>