<svg version="1.1" xmlns="http://www.w3.org/2000/svg" xmlns:xlink="http://www.w3.org/1999/xlink" id="css3" viewBox="0 0 512 545.5"><path d="M131.5 112h304l-3.5 19-49 274.5-2 9-8 3L226.5 479l-6.5 2.5-6.5-3-125-61-11-5.5 2.5-12 11-61 2-13h78l-3.5 18.5L164 364l65.5 36 83.5-38.5 11.5-65h-226L102 278l8-46 2.5-13h226l5-29h-226l3.5-19 8-46zm26.5 32l-2 14h226l-3.5 18.5-11 61-2 13.5H139l-2 13.5h226l-3.5 19L343 375l-1.5 8.5-7.5 3.5-98.5 45.5-7.5 3.5-7-4-82.5-45.5-10-5.5 2-11.5 2-11.5H120l-6.5 36 107 52L353 391.5 397 144H158z"/></svg>