<svg version="1.1" xmlns="http://www.w3.org/2000/svg" xmlns:xlink="http://www.w3.org/1999/xlink" id="cutlery" viewBox="0 0 512 545.5"><path d="M358.5 96l22.5 22.5-73.5 73.5c-6.96 6.96-7.103 14.988-.5 22l85-84.5 22.5 22.5-84.5 85c7.012 6.603 15.04 6.46 22-.5l73.5-73.5 22.5 22.5-72 72-1.5 2c-18.176 18.176-47.968 18.122-66.5.5l-.5-.5h-.5L279 288l18.5 19 146 145.5-23 23L286 341l-28.5 28.5-11 11.5-11.5-11.5-19-18.5L91.5 475.5l-23-23L193 328 92.5 227.5c-28.326-28.326-28.326-74.674 0-103l11.5-11 11.5 11 120 120L256 265l28.5-28c-18.457-18.457-18.457-49.043 0-67.5zm-250 67.5c-5.2 14.16-4.852 29.148 7 41l131 131 17-17z"/></svg>