<svg version="1.1" xmlns="http://www.w3.org/2000/svg" xmlns:xlink="http://www.w3.org/1999/xlink" id="dashcube" viewBox="0 0 512 545.5"><path d="M376 80h24v304c0 43.992-36.008 80-80 80H160c-43.992 0-80-36.008-80-80V224c0-43.992 36.008-80 80-80h151.5L371 84.5zm-8 53l-38.5 38.5-4.5 4.5H160c-26.695 0-48 21.305-48 48v160c0 26.695 21.305 48 48 48h160c26.695 0 48-21.305 48-48V133zm-176 91h96c17.49 0 32 14.51 32 32v89l11.5 11.5 27 27.5H192c-17.49 0-32-14.51-32-32v-96c0-17.49 14.51-32 32-32zm0 32v96h96v-96h-96z"/></svg>