<svg version="1.1" xmlns="http://www.w3.org/2000/svg" xmlns:xlink="http://www.w3.org/1999/xlink" id="deviantart" viewBox="0 0 512 545.5"><path d="M294 96h87v84l-2 3.5-55.5 106H381v120H262.5L260 411l-28.5 54-1 2-1.5 2-6.5 6-4.5 5h-87v-84l2-3.5 55.5-106H131v-120h118.5l2.5-1.5 28.5-54 1-2 1.5-2 6.5-6zm13.5 32l-29 55.5-2 3.5-3.5 2.5-9.5 6-4 3H163v56h51l4.5 5.5 5.5 6.5 6.5 8.5-5 9L163 403.5V448h41.5l29-55.5 2-3.5 3-2.5 9.5-6 4.5-3H349v-56h-51l-4.5-5.5-5.5-6.5-6.5-8 4.5-9.5 63-119.5V128h-41.5z"/></svg>