<svg version="1.1" xmlns="http://www.w3.org/2000/svg" xmlns:xlink="http://www.w3.org/1999/xlink" id="digg" viewBox="0 0 512 545.5"><path d="M152.32 143.808c0-6.495 5.76-6.352 5.76-6.352h45.04s-.032 25.392-.033 31.344c0 6.496-5.744 6.353-5.744 6.353H152.32v-31.345zm.016 65.04c0-6.48 5.76-6.336 5.76-6.32h45.008l-.032 169.393c0 6.48-5.744 6.337-5.744 6.337h-44.992V208.85zm-66.128-65.04c0-6.495 5.76-6.352 5.76-6.352h45.04l-.033 234.432c0 6.497-5.743 6.353-5.743 6.353H0V208.866c0-6.496 5.745-6.353 5.745-6.353h80.463v-58.704zm.032 190.352v-94H55.52s-5.76-.16-5.76 6.352v94h30.72s5.76.16 5.76-6.352zm134.304-125.296c0-6.496 5.76-6.353 5.76-6.336l131.265.096-.033 229.568c0 6.495-5.76 6.35-5.76 6.35H220.545V407.2c0-6.497 5.744-6.353 5.744-6.353h80.463V378.24h-86.208V208.864zm49.76 37.664h.017v94h30.72s5.76.16 5.76-6.353v-94h-30.735s-5.76-.16-5.76 6.353zm110.432-44.016L512 202.61l-.032 229.583c0 6.495-5.744 6.35-5.744 6.35h-131.23V407.2c0-6.496 5.743-6.352 5.743-6.352H461.2V378.24h-86.207V208.864c0-6.496 5.744-6.352 5.744-6.352zm80.496 131.648h.016v-94H430.51s-5.758-.16-5.758 6.352v94h30.72s5.76.16 5.76-6.352z"/></svg>