<svg version="1.1" xmlns="http://www.w3.org/2000/svg" xmlns:xlink="http://www.w3.org/1999/xlink" id="dribbble" viewBox="0 0 512 545.5"><path d="M256 96c105.85 0 192 86.15 192 192s-86.15 192-192 192S64 393.85 64 288 150.15 96 256 96zm0 32c-12.54 0-24.8 1.29-36.5 4 14.702 19.722 36.862 51.194 59.5 93 33.418-12.31 55.308-28.244 69-41.5 6.45-6.243 10.482-11.326 13.5-15.5-28.156-24.737-64.956-40-105.5-40zm-68 15c-44.645 20.86-77.898 61.58-88.5 111 23.763-.043 83.43-2.222 148.5-19.5-23.513-42.464-46.893-74.324-60-91.5zm195.5 48.5c-3.704 4.677-7.98 9.655-13.5 15-16.162 15.648-40.61 33.748-76.5 47.5 4.17 8.565 8.51 17.365 12.5 26.5 17.236-2.054 33.3-3.085 47.5-3 27.235.162 48.227 3.33 62.5 6.5-.847-34.754-12.98-66.68-32.5-92.5zm-121 72C186.397 284.76 117.61 286.22 96 286c-.008.666 0 1.332 0 2 0 40.03 14.822 76.48 39 104.5 20.98-29.046 70.147-87.065 138.5-106-3.574-7.915-7.295-15.545-11-23zm91 45.5c-10.435.012-22.4.76-35 2 12.65 33.376 23.098 69.737 29.5 108 33.982-23.84 58.052-60.39 65.5-103-11.668-2.978-31.434-7.03-60-7zm-67.5 7.5c-62.726 16.106-111.08 75.99-127.5 98.5 26.953 20.67 60.805 33 97.5 33 22.14 0 43.35-4.418 62.5-12.5-6.074-42.44-18.152-82.47-32.5-119z"/></svg>