<svg version="1.1" xmlns="http://www.w3.org/2000/svg" xmlns:xlink="http://www.w3.org/1999/xlink" id="dropbox" viewBox="0 0 512 545.5"><path d="M188.5 103.5l9 8L256 162l61.5-50.5 9-7.5 10 6 104 66 19 12-17.5 14-53 43.5 53.5 45.5 17 14.5L440 317l-58 34.5V405l-7 5-110 71.5-9 6-9-6L137 409l-7-4.5V351l-58-34-21-12 19.5-14.5 56-42.5-56-42.5-18.5-14L71.5 179l107-69zm141 39.5L284 180.5l78.5 45.5 42.5-34.5zm-144 .5l-78 50L154 229l75.5-48zM256 202l-72.5 46.5L256 294l77-48zm106.5 63L284 314l43.5 33 28-16.5c1-.855 2.793-1.975 4-2.5l45-27zM154 267.5l-45.5 34L186 347l42-33zM256.5 333L197 379l-8.5 6.5-9.5-5.5-17-10v17l94 62 94-61.5v-17l-15.5 9.5-9 5.5-9-6.5z"/></svg>