<svg version="1.1" xmlns="http://www.w3.org/2000/svg" xmlns:xlink="http://www.w3.org/1999/xlink" id="drupal" viewBox="0 0 512 545.5"><path d="M232.5 76.5l21 31.5s6.224 9.793 15 20 21.638 19.203 23 19.5C371.727 163.93 432 235.12 432 320c0 97.015-78.985 176-176 176S80 417.015 80 320c0-77.996 50.978-144.003 121.5-167v-.5c4.28-1.61 11.984-10.555 16.5-20.5s6.5-19 6.5-19zm12.5 73c-6.03 12.512-14.9 26.563-32 33h-.5l-.5.5c-58.067 18.517-100 72.58-100 137 0 79.722 64.278 144 144 144 54.81 0 102.16-30.605 126.5-75.5-8.143 11.872-13.012 16.172-22.5 15.5-12.208-1.024-36.9-38.813-52.5-39.5-19.664-.672-62.432 41-96 41-20.352 0-26.216-3.1-33-7.5-10.16-7.12-15.336-18.088-15-33 .336-26.448 24.8-51.148 56-51.5 39.68-.336 67.5 39.352 87.5 39 16.96-.336 49.548-33.5 65.5-33.5 16.96 0 21.5 17.488 21.5 28 0 7.304-1.77 18.74-5.5 29 7.271-17.237 11.5-36.07 11.5-56 0-69.745-49.435-127.573-115-141-18.698-4.075-29.852-17.674-40-29.5zM293 388c2.162-.214 4.288 0 7 0 5.424 0 10.92.28 15 3 4.064 2.72 6.656 9.108 8 12.5 1.36 3.392-.28 5.14-3 6.5-2.368 1.36-2.632.9-5-3.5-2.368-4.416-4.644-9-16.5-9-11.872 0-15.24 4.248-21 9s-7.952 6.22-10 3.5c-2.032-2.72-1.228-5.608 2.5-9s9.74-8.632 15.5-11c2.897-1.192 5.338-1.786 7.5-2zm35 36.5c1.688-.363 2.248.98 2.5 2 .336 1.36 1.384 3.132-1 5.5-1.696 1.696-17.696 12.804-36 14.5-18.32 1.696-43.088 2.568-58-11-2.368-2.368-1.696-5.64 0-7s3.468-2.5 5.5-2.5 1.492-.172 2.5.5c6.784 5.424 16.804 10 38.5 10s37.216-5.928 44-11c.764-.592 1.438-.88 2-1z"/></svg>