<svg version="1.1" xmlns="http://www.w3.org/2000/svg" xmlns:xlink="http://www.w3.org/1999/xlink" id="empire" viewBox="0 0 512 545.5"><path d="M441.488 238.288C445.728 254.143 448 270.8 448 288c0 17.216-2.288 33.904-6.544 49.776-8.832 33.024-26.24 62.544-49.712 86-23.472 23.488-53.025 40.896-86.08 49.728C289.824 477.727 273.184 480 256 480s-33.857-2.273-49.697-6.496c-33.07-8.848-62.64-26.288-86.128-49.808-23.47-23.488-40.864-53.024-49.68-86.064C66.273 321.792 64 305.168 64 288c0-17.184 2.272-33.84 6.496-49.696 8.832-33.04 26.24-62.56 49.696-86.032 23.487-23.488 53.023-40.928 86.08-49.76C222.142 98.272 238.8 96 256 96c17.168 0 33.807 2.273 49.648 6.512 33.07 8.832 62.64 26.256 86.128 49.744 23.472 23.472 40.88 52.992 49.712 86.032zM262.512 117.472h-.016v7.984c12.24.48 24.144 2.32 35.537 5.36l-5.25 19.585c24.53 6.56 46.465 19.488 63.89 36.913l14.335-14.337c8.128 8.144 15.408 17.137 21.68 26.85l6.944-4c-6.624-10.306-14.352-19.858-22.976-28.482-20.88-20.88-47.152-36.384-76.543-44.224-12.048-3.215-24.64-5.152-37.6-5.648zM313.6 288c0-5.168-.688-10.16-1.968-14.944l58.992-15.808c-5.456-20.4-16.208-38.656-30.704-53.168l-43.183 43.184c-7.057-7.056-15.937-12.288-25.872-14.928l15.807-58.992c-9.792-2.608-20.063-4.016-30.672-4.016-10.64 0-20.927 1.424-30.736 4.048l15.81 58.992c-9.92 2.657-18.8 7.888-25.84 14.945l-43.186-43.185c-14.496 14.512-25.23 32.752-30.687 53.168l58.992 15.808c-1.264 4.752-1.95 9.744-1.95 14.896 0 5.136.67 10.096 1.934 14.832l-58.992 15.808c5.44 20.416 16.176 38.688 30.672 53.2l43.185-43.184c7.056 7.088 15.936 12.336 25.888 14.992L225.28 402.64c9.808 2.608 20.096 4.032 30.72 4.032s20.897-1.424 30.69-4.032l-15.81-58.992c9.92-2.656 18.785-7.872 25.84-14.912l43.185 43.184c14.496-14.48 25.23-32.72 30.704-53.12l-58.993-15.808c1.28-4.784 1.983-9.808 1.983-14.992zM135.296 167.376c-8.624 8.624-16.336 18.144-22.944 28.448l6.944 4c6.256-9.696 13.52-18.688 21.648-26.816l14.32 14.336c17.408-17.424 39.328-30.352 63.84-36.912l-5.248-19.584c10.512-2.8 21.424-4.592 32.656-5.232V117.6c-11.936.656-23.552 2.544-34.72 5.536-29.376 7.856-55.632 23.36-76.496 44.24zm-30.96 198.944l6.928-4c-5.248-10.177-9.44-20.992-12.448-32.288l19.584-5.248c-3.12-11.73-4.8-24.065-4.8-36.784 0-12.752 1.68-25.104 4.832-36.865l-19.584-5.248c3.01-11.28 7.184-22.063 12.416-32.223l-6.928-4c-5.584 10.767-10.016 22.208-13.216 34.16-3.76 14.096-5.792 28.895-5.792 44.176 0 15.248 2.016 30.032 5.775 44.095 3.2 11.97 7.65 23.44 13.233 34.225zm142.176 92.08v-8.016c-11.216-.64-22.128-2.432-32.624-5.232l5.248-19.584c-24.544-6.56-46.48-19.52-63.903-36.96l-14.336 14.336c-8.113-8.128-15.36-17.104-21.616-26.784l-6.944 4c6.61 10.288 14.304 19.808 22.912 28.416 20.88 20.912 47.153 36.432 76.56 44.288 11.168 2.992 22.77 4.88 34.704 5.536zm130.144-49.728c8.64-8.64 16.368-18.176 22.992-28.48l-6.944-4.016c-6.273 9.712-13.552 18.72-21.696 26.864l-14.336-14.336c-17.424 17.424-39.344 30.336-63.856 36.88l5.248 19.584c-11.408 3.04-23.297 4.88-35.552 5.36v8c12.976-.48 25.568-2.432 37.63-5.648 29.377-7.855 55.634-23.328 76.514-44.208zm31.008-42.352c5.552-10.736 10-22.145 13.184-34.065 3.776-14.127 5.808-28.943 5.808-44.255 0-15.28-2.016-30.096-5.792-44.193-3.184-11.95-7.632-23.376-13.2-34.143l-6.928 4c5.216 10.16 9.408 20.944 12.416 32.208l-19.584 5.248c3.152 11.76 4.832 24.128 4.832 36.88 0 12.784-1.696 25.152-4.848 36.944l19.584 5.248c-3.008 11.23-7.184 21.983-12.4 32.128z"/></svg>