<svg version="1.1" xmlns="http://www.w3.org/2000/svg" xmlns:xlink="http://www.w3.org/1999/xlink" id="eraser" viewBox="0 0 512 545.5"><path d="M302.5 97.5c12.892.02 25.3 4.8 35 14.5l96 96c19.4 19.4 18.767 51.733-1.5 72L246.5 465.5l-.5.5v.5c-20.558 18.273-52.1 18.4-71.5-1l-96-96H78l-.5-.5c-18.273-20.558-18.4-52.1 1-71.5l187-185.5.5-.5v-.5c10.28-9.137 23.608-13.52 36.5-13.5zM302 130c-4.897.02-9.953 1.144-14 4.5l-.5.5-81 80.5L329 338l80.5-80.5c8.533-8.533 7.7-20.8 1.5-27l-96-96c-3.1-3.1-7.892-4.52-13-4.5zM183.5 238.5L101 320c-5.984 5.984-6.55 18.725 0 27 .236.298.245.714.5 1l95.5 95c6.07 6.07 18.732 6.857 27 0 .176-.145.33-.348.5-.5L306 361z"/></svg>