<svg version="1.1" xmlns="http://www.w3.org/2000/svg" xmlns:xlink="http://www.w3.org/1999/xlink" id="eur" viewBox="0 0 512 545.5"><path d="M288 96c43.337 0 82.712 20.855 111 53.5l-24.5 21C351.27 143.69 321.144 128 288 128c-56.036 0-105.416 46.36-122 112h138v32H160.5c-.423 5.303-.5 10.538-.5 16s.077 10.697.5 16H304v32H166c16.584 65.64 65.964 112 122 112 33.144 0 63.27-15.69 86.5-42.5l24.5 21c-28.288 32.645-67.663 53.5-111 53.5-75.807 0-137.39-62.197-155-144H96v-32h33c-.36-5.254-1-10.65-1-16s.64-10.746 1-16H96v-32h37c17.61-81.803 79.193-144 155-144z"/></svg>