<svg version="1.1" xmlns="http://www.w3.org/2000/svg" xmlns:xlink="http://www.w3.org/1999/xlink" id="expeditedssl" viewBox="0 0 512 545.5"><path d="M256 96c105.85 0 192 86.15 192 192s-86.15 192-192 192S64 393.85 64 288 150.15 96 256 96zm0 32c-88.555 0-160 71.445-160 160s71.445 160 160 160 160-71.445 160-160-71.445-160-160-160zm.5 29.5c40.273-.768 73 32.727 73 73V249c0 3.392-2.624 6-6 6H309c-3.392 0-6-2.624-6-6v-20.5c0-25.344-21.448-45.912-47-45-24.336.864-43 21.648-43 46V249c0 3.376-2.624 5.984-6 6h-15c-3.392 0-6-2.624-6-6v-19.5c0-39.216 31.476-71.248 70.5-72zm-89.5 104h181c7.36 0 13.5 5.64 13.5 13V378c0 7.36-6.14 13-13.5 13H167c-7.36 0-13.5-5.64-13.5-13V274.5c0-7.36 6.14-13 13.5-13zm2.5 13c-1.6 0-3 1.4-3 3v98c0 1.6 1.4 3 3 3h6c1.6 0 3-1.4 3-3v-98c0-1.6-1.4-3-3-3h-6zm87.5 13c-14.08 0-25.5 11.42-25.5 25.5 0 9.408 4.916 17.584 12.5 22v24c0 3.52 2.98 6 6.5 6h13c3.52 0 6.5-2.48 6.5-6v-24c7.568-4.416 12.5-12.576 12.5-22 0-14.08-11.42-25.5-25.5-25.5z"/></svg>