<svg version="1.1" xmlns="http://www.w3.org/2000/svg" xmlns:xlink="http://www.w3.org/1999/xlink" id="eye-slash" viewBox="0 0 512 545.5"><path d="M59.5 68.5l108 108c26.96-9.794 56.612-16.5 88.5-16.5 134.32 0 231.904 112.7 236 117.5l10 11.5-10.5 10.5c-3.082 3.068-51.945 50.153-117.5 83.5l101.5 101.5-23 23-109.5-110-29.5-29.5-49-49-55.5-55.5-49-49-24.5-24.5-99-98.5zM256 192c-22.22 0-43.158 4.065-63 10l33 33c8.212-6.638 18.633-11 30-11 26.464 0 48 21.536 48 48 0 11.367-4.362 21.788-11 30l45.5 45.5c18.302-19.977 29.5-46.462 29.5-75.5 0-20.8-6.168-40.9-17-58.5-28.416-12.608-60.376-21.5-95-21.5zm-150 14l41 41c-1.936 8.208-3 16.424-3 25 0 57.04 42.876 104.632 99.5 111l1.5.5c7.456.624 14.528.624 22 0l2-.5c4.176-.464 8.5-1.088 12.5-2l27.5 27.5c-12.448 3.168-25.232 5.492-38 6.5h-1c-4.64.4-9.36 1-14 1s-9.36-.6-14-1h-1C129.576 406.12 25.076 304.06 20.5 299.5L10 289l10-11.5c2.304-2.72 34.192-39.66 86-71.5zm10.5 31.5c-28.4 18.336-50.08 37.612-62 49.5 14.624 12.976 42.548 35.808 76.5 56-12-21.056-19-45.208-19-71 0-11.792 1.716-23.236 4.5-34.5zm279 0c2.768 11.232 4.5 22.74 4.5 34.5 0 25.824-7 49.928-19 71 33.968-20.192 61.376-42.524 76-55.5-11.92-11.872-33.148-31.68-61.5-50zM256 256c-2.602 0-4.828.895-7 2l21 21c1.103-2.172 2-4.403 2-7 0-8.816-7.168-16-16-16z"/></svg>