<svg version="1.1" xmlns="http://www.w3.org/2000/svg" xmlns:xlink="http://www.w3.org/1999/xlink" id="eye" viewBox="0 0 512 545.5"><path d="M256 160c133.37 0 236 117.5 236 117.5l9.5 10.5-9.5 10.5S398.41 405.18 274 415c-5.95.754-11.85 1-18 1s-12.05-.246-18-1C113.59 405.18 20 298.5 20 298.5L10.5 288l9.5-10.5S122.63 160 256 160zm0 32c-35.655 0-68.52 9.885-97 23h.5c-9.887 16.707-15.5 36.12-15.5 57 0 57.82 43.373 105.33 99.5 111.5 4.143.257 8.278.5 12.5.5 3.885 0 7.683-.282 11.5-.5.332-.033.67.036 1 0 56.127-6.17 99.5-53.68 99.5-111.5 0-21.195-5.836-40.642-16-57.5-28.247-12.875-60.767-22.5-96-22.5zm0 32c26.51 0 48 21.49 48 48s-21.49 48-48 48-48-21.49-48-48 21.49-48 48-48zm-140 15c-30.35 20.25-51.808 41.133-59.5 49 9.172 9.38 37.188 37.217 77.5 60.5-13.974-22.182-22-48.432-22-76.5 0-11.42 1.478-22.277 4-33zm280 0c2.506 10.646 4 21.576 4 33 0 28.068-8.026 54.318-22 76.5 40.313-23.283 68.328-51.12 77.5-60.5-7.692-7.867-29.15-28.75-59.5-49z"/></svg>