<svg version="1.1" xmlns="http://www.w3.org/2000/svg" xmlns:xlink="http://www.w3.org/1999/xlink" id="eyedropper" viewBox="0 0 512 545.5"><path d="M394.5 80.5c17.733 0 35.554 6.554 49 20 26.892 26.892 26.892 71.108 0 98l-45 44.5 16 16-22.5 22.5-16-16-152 152c-17.02 17.02-29.521 26.948-40.5 33s-20.435 7.89-27 9-10.182 1.81-17 5.5-16.637 11.137-32 26.5l-11.5 11-11.5-11-32-32-11-11.5 11-11.5c15.78-15.78 23.602-25.93 27.5-33s4.41-10.565 5.5-17 3.14-16.17 9-27 15.363-22.863 32-39.5l152-152-16-16 22.5-22.5 16 16 44.5-45c13.446-13.446 31.267-20 49-20zm0 32c-9.466 0-19.146 3.647-26.5 11L323.5 168l52.5 52.5 44.5-44.5c14.708-14.708 14.708-37.792 0-52.5-7.354-7.354-16.534-11-26-11zm-93.5 78l-152 152c-15.363 15.363-22.81 25.682-26.5 32.5s-4.39 9.935-5.5 16.5-2.948 16.521-9 27.5c-4.14 7.512-13.737 17.6-22.5 27.5l12 12c9.61-8.46 19.636-18.016 27-22 10.83-5.86 20.065-7.41 26.5-8.5s9.93-1.602 17-5.5 17.72-11.72 33.5-27.5l152-152z"/></svg>