<svg version="1.1" xmlns="http://www.w3.org/2000/svg" xmlns:xlink="http://www.w3.org/1999/xlink" id="fax" viewBox="0 0 512 545.5"><path d="M192 112h192v80h64v256H192v16c0 26.327-21.673 48-48 48s-48-21.673-48-48v-16H64V160h96v32h32v-80zm32 32v80h128v-80H224zM96 192v224h32V192H96zm64 32v192h256V224h-32v32H192v-32h-32zm48 64h32v32h-32v-32zm64 0h32v32h-32v-32zm64 0h32v32h-32v-32zm-128 64h32v32h-32v-32zm64 0h32v32h-32v-32zm64 0h32v32h-32v-32zm-208 96v16c0 8.873 7.127 16 16 16s16-7.127 16-16v-16h-32z"/></svg>