<svg version="1.1" xmlns="http://www.w3.org/2000/svg" xmlns:xlink="http://www.w3.org/1999/xlink" id="female" viewBox="0 0 512 545.5"><path d="M290 96h9.5l4.5 8 15 26.5c24.724 2.496 58.055 13.27 87 52 32.875 43.988 58 119.495 58 249.5v16H309.5c-15.824 9.873-33.657 16-53.5 16-19.855 0-37.678-6.006-53.5-16H48v-16c0-146.14 31.628-230.763 79.5-279S237.133 96 290 96zm-9 33c-46.62.946-93.865 9.08-131 46.5-37.853 38.143-66.557 110.322-69 240.5h86.5c-1.907-2.428-3.734-4.976-5.5-7.5-21.714-31.048-34-69.333-34-104.5 0-12.534 3.387-24.238 10-33s15.65-14.31 25-18c18.698-7.38 39.632-8.33 59.5-10s38.884-3.87 50-9 15.5-9.294 15.5-26h32c0 26.566-15.616 46.287-34.5 55s-39.868 10.307-60 12-39.198 3.54-50.5 8c-5.65 2.23-9.363 4.668-11.5 7.5s-3.5 6.398-3.5 13.5c0 27.377 10.294 61.184 28 86.5s41.39 41.5 68 41.5c26.635 0 50.302-16.23 68-41.5s28-58.943 28-86.5h32c0 35.308-12.277 73.985-34 105-1.633 2.332-3.245 4.755-5 7h86c-2.184-114.716-24.847-180.174-50.5-214.5-26.938-36.043-56.33-41.5-72.5-41.5h-9.5l-4.5-8zm-73 175c8.837 0 16 7.163 16 16s-7.163 16-16 16-16-7.163-16-16 7.163-16 16-16zm96 0c8.837 0 16 7.163 16 16s-7.163 16-16 16-16-7.163-16-16 7.163-16 16-16z"/></svg>