<svg version="1.1" xmlns="http://www.w3.org/2000/svg" xmlns:xlink="http://www.w3.org/1999/xlink" id="fighter-jet" viewBox="0 0 512 545.5"><path d="M126 96h56.5l5 4.5L327 240h89c18.493 0 30.297 10.754 41 19.5s18.5 17.5 18.5 17.5l10.5 11-10.5 11s-7.797 8.754-18.5 17.5-22.507 19.5-41 19.5h-89L187.5 475.5l-5 4.5H126l2-18 14-126h-13.5L101 377l-4.5 7h-68l4-19L48 288l-15.5-77-4-19h68l4.5 7 27.5 41H142l-14-126zm36 32l14 126 2 18h-67l-4.5-7L79 224H67.5l12 61 1 3-1 3-12 61H79l27.5-41 4.5-7h67l-2 18-14 126h7l139.5-139.5 5-4.5H416c-.814 0 11.624-5.246 20.5-12.5 2.185-1.785 2.12-1.813 4-3.5-1.88-1.687-1.815-1.715-4-3.5-8.876-7.254-21.314-12.5-20.5-12.5H313.5l-5-4.5L169 128h-7zm94 16h64l16 16-16 16h-32zm32 256h32l16 16-16 16h-64z"/></svg>