<svg version="1.1" xmlns="http://www.w3.org/2000/svg" xmlns:xlink="http://www.w3.org/1999/xlink" id="file-pdf-o" viewBox="0 0 512 545.5"><path d="M80 80h320v416H80V80zm32 32v352h256V112H112zm118.5 85.5h.5c5.286.11 10.504 2.157 14.5 5.5 4.117 3.444 6.842 7.962 8.5 12.5 3.316 9.075 3.76 19.01 3 30.5-.63 9.517-5.213 21.635-7.5 32.5 2.985 6.724 3.964 12.38 7.5 19 6.548 12.256 13.765 19.465 21 29 8.268-.425 18.026-2.91 25-2 9.068 1.185 17.425 2.97 24 10 3.288 3.516 5.9 8.85 6 14s-1.574 9.72-4 14v.5h-.5c-5.515 9.375-15.5 15.61-25.5 15s-18.376-5.893-26-12.5c-3.784-3.28-6.858-9.852-10.5-14-8.47.964-14.488-.016-23.5 2-8.594 1.923-14.427 5.32-22.5 8-5.35 10.753-9.585 24.14-15.5 32-6.398 8.503-13.08 15.75-22.5 19-4.71 1.625-10.318 1.547-15.5-.5s-9.05-5.576-12-10c-5.952-8.46-6.465-20.21-2-28.5s11.952-14.193 20.5-19.5c7.938-4.928 19.924-7.203 30-11 4.418-9.563 9.223-15.744 13-26.5 4.398-12.525 5.13-23.286 8-35.5-5.6-13.394-12.594-27.388-15-39-2.056-9.92-2.707-18.902-.5-27.5 1.103-4.3 2.94-8.565 7-12 3.937-3.332 9.61-5.077 14.5-5zM241 316c-.964 2.947-.973 5.575-2 8.5-.88 2.51-2.08 4.024-3 6.5.766-.177 1.233-.828 2-1 4.563-1.02 7.99-.197 12.5-1-3.083-4.727-6.607-7.94-9.5-13zm59 32.5c-1.018-.133-3.37.588-4.5.5 3.883 2.727 7.924 4.935 9 5 1.282.078 1.528.283 3.5-3 .195-.343-.117-.245 0-.5-.718-.307-2.602-1.295-8-2zm-112 25c-.503.297-1.52.702-2 1-6.552 4.068-10.34 8.345-11.5 10.5s-1.647 1.16 0 3.5h.5c.315.473-.192.28 0 .5 1.135-.475 5.617-3.51 10.5-10 .866-1.15 1.612-4.193 2.5-5.5z"/></svg>