<svg version="1.1" xmlns="http://www.w3.org/2000/svg" xmlns:xlink="http://www.w3.org/1999/xlink" id="file-excel-o" viewBox="0 0 512 545.5"><path d="M80 80h320v112h-32v-80H112v80H80V80zm32 144h32l16 32 16-32h32l-32 64 32 64h-32l-16-32-16 32h-32l32-64zm112 0h32v96h32v32h-64V224zm120 0c11.733 0 22.439 4.585 29.5 12s10.5 17.09 10.5 26.5h-32c0-1.79-.56-3.515-1.5-4.5s-2.233-2-6.5-2c-3.467 0-8 4.533-8 8s4.533 8 8 8c22.134 0 40 17.866 40 40 0 20.8-17.304 40-40 40-11.71 0-22.608-3.72-30-11.5s-10-17.934-10-27h32c0 3.733.79 4.78 1 5s1.11 1.5 7 1.5c6.104 0 8-3.2 8-8 0-3.467-4.533-8-8-8-22.134 0-40-17.866-40-40s17.866-40 40-40zM80 384h32v80h256v-80h32v112H80V384z"/></svg>