<svg version="1.1" xmlns="http://www.w3.org/2000/svg" xmlns:xlink="http://www.w3.org/1999/xlink" id="fire-extinguisher" viewBox="0 0 512 545.5"><path d="M256 96c19.745 0 36.67 12.298 44 29.5l81.5-13.5 18.5-3v102l-18.5-3-77.5-13v4.5c5.097 3.816 11.724 9.224 19.5 17C336.757 229.757 352 248 352 272v208H160V272c0-24 15.243-42.243 28.5-55.5 7.776-7.776 14.403-13.184 19.5-17V160h-16c-26.473 0-48 21.527-48 48h-32c0-43.928 36.072-80 80-80h19c6.69-18.493 24.322-32 45-32zm0 32c-8.873 0-16 7.127-16 16v48h32v-48c0-8.873-7.127-16-16-16zm112 19l-64 11v4l64 11v-26zm-138 77c-2.412 1.677-9.253 6.253-18.5 15.5C200.757 250.243 192 264 192 272v176h128V272c0-8-8.757-21.757-19.5-32.5-9.247-9.247-16.088-13.823-18.5-15.5h-52zm-6 80h64v32h-64v-32z"/></svg>