<svg version="1.1" xmlns="http://www.w3.org/2000/svg" xmlns:xlink="http://www.w3.org/1999/xlink" id="firefox" viewBox="0 0 512 545.5"><path d="M429.056 233.984c2 6.271 2.944 14.416 2.944 23.872 0 80.416-40.43 192.655-176.032 192.655-110.688 0-173.36-91.327-173.36-162.703 0-19.296 4.53-33.407 8.257-42.8l-10.288 8.384c-.368-1.295-.576-3.79-.576-5.646 0-17.233 19.217-41.456 19.905-42.353-.432-32.095 5.712-54.303 18.4-66.72 2.176 14.417 5.984 24.93 11.295 31.698 8.385-4.16 42.193-1.872 49.713 4.496 14.016-13.44 29.76-21.2 47.168-23.376-9.36 6.304-23.887 18.48-27.103 39.04 10.912 6.304 13.056 22.687 41.792 20.288 1.855 1.136 2.783 2.384 2.783 3.775 0 1.394-.848 2.818-1.648 3.266-.592 3.216-2.32 5.632-5.312 7.216-9.904 5.28-23.456 17.903-23.456 17.983 5.696 9.68 7.776 19.313 6.208 28.336-9.456-2.734-26.928-5.198-25.136-5.04-6.465.993-10.177 5.97-10.177 13.602 0 0 18.832 29.007 39.92 29.007 16.912 0 20.496-11.296 37.104-11.296 14.176 0 27.408 10.736 27.408 16.912 0 2.72-2.112 4.687-6.225 5.248-1.407-.657-2.847-.992-4.335-.992-11.33 0-23.552 24.112-64.608 24.112-2.56 0-5.168-.113-7.808-.336 10.895 10.96 32.575 27.872 65.983 27.872 23.792 0 51.168-17.585 70.128-47.664.768 7.392-.575 16.735-3.887 28.19C355.6 332.272 362 303.52 357.25 264.64c3.423 2.655 7.23 10.19 11.375 22.8 6.048-18.912 5.296-42.864-2.176-71.872 6.063 1.807 10.8 5.47 14.35 11.023 2.673-26.447-20.48-49.343-69.215-68.558 6.816-2.64 14.496-3.216 23.056-1.665-1.983-4.912-16.912-15.568-40.11-22.112 2.43.08 4.735.256 7.103.4-14.672-4.784-30.272-7.456-46.512-7.456 108.417-12.417 140.657 46 147.345 69.63-.095-7.63-1.807-18.143-5.248-31.663 7.376 9.792 13.248 20.817 17.568 33.184.08.16.16.32.16.4 5.552 15.84 8.528 33.84 9.04 53.97 0 0 4.29-9.713 5.072-18.736z"/></svg>