<svg version="1.1" xmlns="http://www.w3.org/2000/svg" xmlns:xlink="http://www.w3.org/1999/xlink" id="fire" viewBox="0 0 512 545.5"><path d="M214 80h20.5l4.5 3.5s40.11 32.385 80 81.5 81 115.58 81 187c0 31.645-5.328 68.21-31 97-21.904 24.565-57.47 41.08-111 45.5-1.366.113-2.61.403-4 .5-4.533.45-9.126 1-14 1-1.553 0-2.977-.444-4.5-.5-2.232.038-4.213.5-6.5.5-52.245 0-90.782-17.804-115-44.5s-34-60.92-34-93c0-67.91 31.738-122.08 63.5-165.5s62.7-78.963 67.5-100.5zm18 40c-13.89 29.85-37.857 58.313-62.5 92-30.27 41.38-57.5 88.54-57.5 146.5 0 25.52 8.126 51.797 26 71.5 3.8 4.19 8.225 7.885 13 11.5-1.243-3.085-2.63-6.25-3.5-9.5-9.907-36.977 1.58-81.166 31.5-121.5l15-20.5 12 22.5c8.178 15.284 16.754 21.514 21.5 23s6.79 1.01 11.5-4.5c9.418-11.023 18.256-48.034 1.5-102.5l-6-20.5h31l4.5 5.5c8.762 10.12 19.007 28.474 31 54.5s24.462 58.306 31 90.5c5.72 28.17 7.612 56.552-1 81.5 5.436-3.862 10.114-8.143 14-12.5 18.08-20.277 23-47.416 23-75.5 0-58.708-36.353-120.146-74-166.5-27.28-33.59-49.072-54.13-62-65.5zm49 187.5c-2.52 18.136-8.04 33.43-17.5 44.5-11.013 12.89-29.178 19.113-45.5 14-8.823-2.764-16.404-8.12-23.5-15.5-14.443 27.27-21.182 54.16-16 73.5 6.274 23.42 22.89 38.855 57.5 40 1.382.046 2.56 0 4 0 5.517-.17 10.973-.586 16-1 2.398-.288 4.85-.576 7-1 19.36-3.82 28.863-12.97 35-25.5 8.183-16.706 8.31-42.895 2.5-71.5-3.998-19.686-12.094-38.69-19.5-57.5z"/></svg>