<svg version="1.1" xmlns="http://www.w3.org/2000/svg" xmlns:xlink="http://www.w3.org/1999/xlink" id="flask" viewBox="0 0 512 545.5"><path d="M272 32c8.837 0 16 7.163 16 16s-7.163 16-16 16-16-7.163-16-16 7.163-16 16-16zm-48 48c8.837 0 16 7.163 16 16h112v32h-16v122.5l98.5 127c8.684 11.165 13.5 24.847 13.5 39 0 34.964-28.536 63.5-63.5 63.5h-257C92.536 480 64 451.464 64 416.5c0-14.153 4.816-27.835 13.5-39l98.5-127V128h-16V96h48c0-8.837 7.163-16 16-16zm-16 48v133.5l-3.5 4.5-42 54h187l-42-54-3.5-4.5V128h-96zm64 64c8.837 0 16 7.163 16 16s-7.163 16-16 16-16-7.163-16-16 7.163-16 16-16zM137.5 352l-35 45c-4.31 5.54-6.5 12.47-6.5 19.5 0 17.677 13.823 31.5 31.5 31.5h257c17.677 0 31.5-13.823 31.5-31.5 0-7.03-2.19-13.96-6.5-19.5l-35-45h-237z"/></svg>