<svg version="1.1" xmlns="http://www.w3.org/2000/svg" xmlns:xlink="http://www.w3.org/1999/xlink" id="flickr" viewBox="0 0 512 545.5"><path d="M128 112h256c26.32 0 48 21.68 48 48v256c0 26.32-21.68 48-48 48H128c-26.32 0-48-21.68-48-48V160c0-26.32 21.68-48 48-48zm0 32c-9.04 0-16 6.96-16 16v256c0 9.04 6.96 16 16 16h256c9.04 0 16-6.96 16-16V160c0-9.04-6.96-16-16-16H128zm56 88c30.928 0 56 25.072 56 56s-25.072 56-56 56-56-25.072-56-56 25.072-56 56-56zm144 0c30.928 0 56 25.072 56 56s-25.072 56-56 56-56-25.072-56-56 25.072-56 56-56z"/></svg>