<svg version="1.1" xmlns="http://www.w3.org/2000/svg" xmlns:xlink="http://www.w3.org/1999/xlink" id="fonticons" viewBox="0 0 512 545.5"><path d="M80 112h352v352H80V112zm32 32v288h288V144H112zm203.5 30.5h6.5l11 20.5h19.5l3.5 6.5-16 17.5 7 24-6 5.5-22-12.5s-22.1 12.356-22.5 12.5c-.4.128-5-5.5-5-5.5l6.5-24-16-17 2.5-7h20zm-85.5 29c53.264 0 46.5 37 46.5 37l-36 5v-8s-1.68-9.5-12-9.5-13 12-13 12v28h48l-8 27h-40v85.5L249 384s-.273 18.288 0 18h-94v-18.5l20-2.5v-86h-20v-27h20.5v-22s-1.548-42.5 54.5-42.5zm55 65h57.5v109c0 2.544 2.004 5.036 4.5 5.5l8.5 1.5V402h-73v-18l15-3c2.48-.48 4.5-2.472 4.5-5v-76.5c0-2.384-1.712-4.376-4-5l-19-5.5z"/></svg>