<svg version="1.1" xmlns="http://www.w3.org/2000/svg" xmlns:xlink="http://www.w3.org/1999/xlink" id="forumbee" viewBox="0 0 512 545.5"><path d="M256 79.5c14.992 0 29.404 1.492 43.5 4.5-116.736 43.552-203.864 137.744-247 250-3.344-14.816-5-30.16-5-46 0-114.992 93.492-208.5 208.5-208.5zm118 37c16.848 11.68 32.264 25.968 45 42-56.928 14.832-221.192 75.54-293 292.5-15.872-12.624-29.9-27.828-41.5-44.5 66.8-209.152 233.532-273.824 289.5-290zm73.5 89.5c7.136 16.688 11.94 34.408 14.5 53-151.824 61.856-214.352 185.576-234 235-18.544-2.48-36.328-7.476-53-14.5 19.504-58.336 87.124-213.884 272.5-273.5zM462 317.5c-3.984 27.904-13.596 53.8-27.5 77C444.227 422.42 464 496 464 496l-99.5-30.5c-23.024 14.112-49.208 23.712-77 28 9.696-22.096 32.36-61.464 81-107 42.816-40.08 74.284-59.464 93.5-69z"/></svg>