<svg version="1.1" xmlns="http://www.w3.org/2000/svg" xmlns:xlink="http://www.w3.org/1999/xlink" id="foursquare" viewBox="0 0 512 545.5"><path d="M160 112h188.5c19.798 0 35.28 18.568 31.5 38l-31 160c-2.946 14.89-16.287 26-31.5 26h-55l-101 120c-5.257 5.964-14.374 7.898-21 5.5-6.773-2.452-12.5-9.863-12.5-18V144c0-17.49 14.51-32 32-32zm0 32v264l82-98.5c2.64-3.04 8.052-5.506 12.078-5.506.116 0 .306.003.422.006h63l12.5-64h-98.5c-4.016 0-7.5-3.484-7.5-7.5v-17c0-4 3.484-7.5 7.5-7.5H336l12.5-64H160z"/></svg>