<svg version="1.1" xmlns="http://www.w3.org/2000/svg" xmlns:xlink="http://www.w3.org/1999/xlink" id="frown-o" viewBox="0 0 512 545.5"><path d="M256 96c105.85 0 192 86.15 192 192s-86.15 192-192 192S64 393.85 64 288 150.15 96 256 96zm0 32c-88.555 0-160 71.445-160 160s71.445 160 160 160 160-71.445 160-160-71.445-160-160-160zm-72 96c13.255 0 24 10.745 24 24s-10.745 24-24 24-24-10.745-24-24 10.745-24 24-24zm144 0c13.255 0 24 10.745 24 24s-10.745 24-24 24-24-10.745-24-24 10.745-24 24-24zm-72 96c42.678 0 80.327 21.368 103.5 53.5l-26 18.5c-17.467-24.22-45.36-40-77.5-40s-60.033 15.78-77.5 40l-26-18.5C175.673 341.368 213.322 320 256 320z"/></svg>