<svg version="1.1" xmlns="http://www.w3.org/2000/svg" xmlns:xlink="http://www.w3.org/1999/xlink" id="gamepad" viewBox="0 0 512 545.5"><path d="M256 144c102.13 0 191.5 33 191.5 33l9.5 3.5 1 9.5 21.5 164c5.84 45.36-26.643 87.66-72 93.5-42.227 5.44-80.086-23.045-90-63.5h-123c-9.9 40.46-47.762 68.94-90 63.5-45.357-5.84-77.84-48.14-72-93.5L54 190l1-9.5 9.5-3.5s89.37-33 191.5-33zm0 32c-87.77 0-160.112 24.378-172 28.5l-19.5 154c-3.632 28.207 15.79 53.368 44 57 28.207 3.632 53.88-15.794 57.5-44l.5-5.5 2-14h175l2 14 .5 5.5c3.632 28.21 29.314 47.63 57.5 44 28.21-3.632 47.632-28.793 44-57l-19.5-154c-11.893-4.122-84.23-28.5-172-28.5zm-112 48h32v32h32v32h-32v32h-32v-32h-32v-32h32v-32zm208 0c8.837 0 16 7.163 16 16s-7.163 16-16 16-16-7.163-16-16 7.163-16 16-16zm-32 32c8.837 0 16 7.163 16 16s-7.163 16-16 16-16-7.163-16-16 7.163-16 16-16zm64 0c8.837 0 16 7.163 16 16s-7.163 16-16 16-16-7.163-16-16 7.163-16 16-16zm-32 32c8.837 0 16 7.163 16 16s-7.163 16-16 16-16-7.163-16-16 7.163-16 16-16z"/></svg>