<svg version="1.1" xmlns="http://www.w3.org/2000/svg" xmlns:xlink="http://www.w3.org/1999/xlink" id="gbp" viewBox="0 0 512 545.5"><path d="M283 112c12.93.028 25.955 2.78 39 8l-12 29.5c-49.21-19.686-102 17.284-102 69 0 14.01 6.238 32.584 13.5 53.5H320v32h-88c1.905 6.14 3.87 12.117 5.5 18.5 8.573 33.583 9.777 72.606-12.5 109.5h127v-48h32v80H128v-32h56.5c31.927-34.588 31.01-66.204 22-101.5-2.26-8.854-4.843-17.614-8-26.5H144v-32h42.5c-5.973-17.638-10.5-35.425-10.5-53.5 0-55.27 43.174-98.9 94-105.5 4.235-.55 8.69-1.01 13-1z"/></svg>