<svg version="1.1" xmlns="http://www.w3.org/2000/svg" xmlns:xlink="http://www.w3.org/1999/xlink" id="get-pocket" viewBox="0 0 512 545.5"><path d="M112 112h288c26.32 0 48 21.68 48 48v112c0 105.848-86.152 192-192 192S64 377.848 64 272V160c0-26.32 21.68-48 48-48zm0 32c-9.04 0-16 6.96-16 16v112c0 88.553 71.447 160 160 160s160-71.447 160-160V160c0-9.04-6.96-16-16-16H112zm58.5 70.5c6.138 0 12.312 2.813 17 7.5l69.5 69.5 67.5-67.5c9.36-9.36 24.624-9.376 34 0 9.36 9.376 9.36 24.656 0 34L274 342c-4.496 4.496-10.632 7-17 7-6.352 0-12.504-2.504-17-7l-86.5-86.5c-9.376-9.36-9.36-24.124 0-33.5 4.68-4.688 10.862-7.5 17-7.5z"/></svg>