<svg version="1.1" xmlns="http://www.w3.org/2000/svg" xmlns:xlink="http://www.w3.org/1999/xlink" id="gift" viewBox="0 0 512 545.5"><path d="M192 112c27.982 0 47.03 21.267 59.5 39 1.67 2.375 3.03 4.682 4.5 7 1.47-2.318 2.83-4.625 4.5-7 12.47-17.733 31.518-39 59.5-39 26.32 0 48 21.68 48 48 0 5.647-1.172 10.948-3 16h83v96h-16v208H80V272H64v-96h83c-1.828-5.052-3-10.352-3-16 0-26.32 21.68-48 48-48zm0 32c-9.04 0-16 6.96-16 16s6.96 16 16 16h37c-1.934-3.292-1.56-3.527-4-7-10.03-14.267-22.982-25-33-25zm128 0c-10.018 0-22.97 10.733-33 25-2.44 3.473-2.066 3.708-4 7h37c9.04 0 16-6.96 16-16s-6.96-16-16-16zM96 208v32h144v-16h32v16h144v-32H96zm16 64v176h128V288h32v160h128V272H112z"/></svg>