<svg version="1.1" xmlns="http://www.w3.org/2000/svg" xmlns:xlink="http://www.w3.org/1999/xlink" id="git-square" viewBox="0 0 512 545.5"><path d="M256 64c8.05 0 15.957 2.94 22 9l193 193c12.095 12.095 12.12 31.913 0 44L278 503c-12.102 12.07-31.898 12.07-44 0L41 310c-12.095-12.095-12.12-31.913 0-44l142-142c1.257-1.953 3.944-4.418 6-5.5L234 73c6.047-6.047 13.95-9 22-9zm0 32.5L219.5 133l28 28c2.693-.736 5.573-1 8.5-1 17.673 0 32 14.327 32 32 0 2.762-.343 5.443-1 8l57 57c2.557-.657 5.238-1 8-1 17.673 0 32 14.327 32 32s-14.327 32-32 32-32-14.327-32-32c0-2.762.343-5.444 1-8l-49-49v125.5c9.55 5.537 16 15.666 16 27.5 0 17.673-14.327 32-32 32s-32-14.327-32-32c0-11.834 6.45-21.963 16-27.5v-137c-9.55-5.537-16-15.666-16-27.5 0-2.927.264-5.807 1-8.5l-28-28L64.5 288 256 479.5 447.5 288z"/></svg>