<svg version="1.1" xmlns="http://www.w3.org/2000/svg" xmlns:xlink="http://www.w3.org/1999/xlink" id="github-alt" viewBox="0 0 512 545.5"><path d="M91 112c17.115 0 57.275 8.046 90.5 41 23.6-5.856 48.784-9 74.5-9 25.172 0 49.83 2.412 73 7.5 1.472-1.37 42.853-39.5 92.5-39.5 16.643 38.78 9.91 72.272 4 90 23.873 25.53 38.5 60.672 38.5 107.5C464 425.388 390.56 464 256 464S48 425.388 48 309.5c0-45.23 15.473-80.515 40.5-106.5-3.574-5.868-8.5-17.294-8.5-39 0-32.672 11-52 11-52zm240 167c-22.55.226-48.28 3.5-75 3.5-58.784 0-100.276-11.648-126.5 12-11.92 10.752-28.5 28.004-28.5 58.5 0 79.952 69.48 95 155 95 115.072 0 159.984-14.256 160-98 0-30.224-18.704-57.172-48-66.5-10.986-3.498-23.47-4.636-37-4.5zm-163 41c13.248 0 24 14.32 24 32s-10.752 32-24 32-24-14.32-24-32 10.752-32 24-32zm176 0c13.248 0 24 14.32 24 32s-10.752 32-24 32-24-14.32-24-32 10.752-32 24-32zm-178.5 13.5c-3.776 0-7 3.16-7 7s3.224 7 7 7 6.5-3.16 6.5-7-2.724-7-6.5-7zm176 0c-3.776 0-7 3.16-7 7s3.224 7 7 7 6.5-3.16 6.5-7-2.724-7-6.5-7z"/></svg>