<svg version="1.1" xmlns="http://www.w3.org/2000/svg" xmlns:xlink="http://www.w3.org/1999/xlink" id="github-square" viewBox="0 0 512 545.5"><path d="M255.984 96C362.032 96 448 181.968 448 288.016c0 84.8-54.96 156.704-131.2 182.16-9.744 1.872-13.2-4.096-13.2-9.232 0-6.304.24-27.008.24-52.67 0-17.906-6.144-29.634-13.04-35.554 42.77-4.752 87.664-20.976 87.664-94.736 0-20.96-7.424-38.096-19.727-51.52 1.983-4.864 8.576-24.384-1.905-50.815 0 0-16.095-5.17-52.752 19.678-15.328-4.256-31.76-6.384-48.064-6.464-16.32.08-32.752 2.208-48.064 6.464-36.672-24.847-52.8-19.68-52.8-19.68-10.448 26.432-3.856 45.952-1.888 50.816-12.272 13.424-19.76 30.56-19.76 51.52 0 73.584 44.817 90.048 87.456 94.896-5.488 4.8-10.448 13.264-12.192 25.664-10.928 4.912-38.752 13.392-55.87-15.952 0 0-10.146-18.432-29.41-19.792 0 0-18.75-.256-1.312 11.664 0 0 12.576 5.904 21.313 28.08 0 0 11.262 37.344 64.67 25.744.096 16.016.256 28.096.256 32.656 0 5.088-3.504 11.008-13.104 9.25C119.008 444.8 64 372.83 64 288.015 64 181.968 149.967 96 255.984 96z"/></svg>