<svg version="1.1" xmlns="http://www.w3.org/2000/svg" xmlns:xlink="http://www.w3.org/1999/xlink" id="gittip" viewBox="0 0 512 545.5"><path d="M256 96c105.85 0 192 86.15 192 192s-86.15 192-192 192S64 393.85 64 288 150.15 96 256 96zm0 32c-88.555 0-160 71.445-160 160s71.445 160 160 160 160-71.445 160-160-71.445-160-160-160zm-56 96c28.273 0 35.024 27 56 27s27.727-27 56-27c22.096 0 40 17.904 40 40 0 8.464-2.504 16.052-7 22.5l-.5.5L256 388l-88.5-101s-.484.032-.5 0c-4.496-6.464-7-14.536-7-23 0-22.096 17.904-40 40-40z"/></svg>