<svg version="1.1" xmlns="http://www.w3.org/2000/svg" xmlns:xlink="http://www.w3.org/1999/xlink" id="globe" viewBox="0 0 512 545.5"><path d="M256 96c105.85 0 192 86.15 192 192s-86.15 192-192 192S64 393.85 64 288 150.15 96 256 96zm0 32c-4.365 0-8.725.66-13 1l35.5 2.5 8.5 37-48 9-13-18-27.5 6L208 208l-64 30.5-43 34 15.5 31.5H176l64.5 48.5-17 64L241 447c4.913.45 9.967 1 15 1 24.67 0 48.16-5.586 69-15.5l25.5-80s-11.788-29-13.5-29-33.5 5.5-33.5 5.5l-31-25.5 15.5-48 27.5-20.5 28-4 26 16 11-20-43-14-34.5 11-2.5-33 14-12 17 7.5-3-32 13-1.5c-24.724-15.633-54.002-25-85.5-25zm-18 1c-12.907 1.427-25.216 4.203-37 8.5l12 2zM97 300.5c5.036 65.723 49.095 120.422 109.5 140l-45.5-56h-18.5l-30-33v-33z"/></svg>