<svg version="1.1" xmlns="http://www.w3.org/2000/svg" xmlns:xlink="http://www.w3.org/1999/xlink" id="google" viewBox="0 0 512 545.5"><path d="M298.912 278.512c0 30.16 68.864 40.96 68.88 106.272 0 34.19-29.92 95.216-128.72 95.216C152.448 480 134 429.52 134 408.048c0-58.672 73.216-85.056 134-84.464-3.76-6.61-14.64-17.424-14.64-34.384 0-8.145 4.016-17.136 4.96-19.776-5.712.656-11.088.976-16.144.976-55.568 0-83.152-43.872-83.152-79.2 0-23.729 16.336-95.2 118.544-95.2h100.447l-31.023 18.176h-30.977c3.153 1.967 34.305 23.392 34.305 68.144 0 61.775-51.408 64.544-51.408 96.19zm-33.52-21.84c45.616 0 42.352-46.432 42.352-51.023 0-19.873-12.016-92.93-61.263-92.93-38.224 0-44.88 40.177-44.88 53.984 0 46.496 29.2 89.968 63.792 89.968zm-2.416 202.208c63.057 0 72.448-38.624 72.465-54.384 0-34.768-36.272-53.616-53.743-66.672-3.2-.336-6.96-.496-11.28-.496-84.08 0-93.808 43.44-93.808 60.032 0 47.984 54.703 61.52 86.366 61.52z"/></svg>