<svg version="1.1" xmlns="http://www.w3.org/2000/svg" xmlns:xlink="http://www.w3.org/1999/xlink" id="google-plus-square" viewBox="0 0 512 545.5"><path d="M203.5 96H304l-31 18h-31c3.152 1.968 34.5 23.748 34.5 68.5 0 61.776-51.5 64.352-51.5 96 0 30.16 69 41.188 69 106.5 0 34.192-30.2 95-129 95-86.624 0-105-50.528-105-72 0-58.672 73.2-85.092 134-84.5-3.76-6.608-14.5-17.54-14.5-34.5 0-8.143 4.056-16.86 5-19.5-5.712.656-11.444 1-16.5 1-55.568 0-83-44.172-83-79.5 0-23.727 16.292-95 118.5-95zm-31 16.5c-38.224 0-45 40.192-45 54 0 46.496 29.408 90 64 90 45.616 0 42.5-46.408 42.5-51 0-19.872-12.252-93-61.5-93zM380 208h32v48h48v32h-48v48h-32v-48h-48v-32h48v-48zM196.5 337.5c-84.08 0-94 43.408-94 60 0 47.984 54.836 61.5 86.5 61.5 63.072 0 72.484-38.74 72.5-54.5 0-34.768-36.528-53.444-54-66.5-3.2-.336-6.68-.5-11-.5z"/></svg>