<svg version="1.1" xmlns="http://www.w3.org/2000/svg" xmlns:xlink="http://www.w3.org/1999/xlink" id="google-wallet" viewBox="0 0 512 545.5"><path d="M352 88c20.448 0 39.176 11.08 49 29 3.984 7.28 39 74.18 39 172.5 0 96.032-33.224 173.02-37 181.5-9.008 20.144-28.936 33-51 33-7.936 0-15.784-1.768-23-5-17.59-7.87-28.855-23.837-32-41.5-.06-.333.054-.665 0-1-.725-1.678-1.313-4.521-1.313-6.35 0-.877.14-2.29.313-3.15 1.536-30.62-4.271-56.817-11-77-10.713 40.622-25.9 68.87-28.5 73.5-9.92 17.52-28.372 28.5-48.5 28.5-9.648 0-19.1-2.732-27.5-7.5-26.816-15.2-36.476-48.924-21.5-75.5.078-.145 2.94-6.636 6.5-15-13.408-36.303-37.278-55.5-61-71.5-12.76-8.607-25.322-16.108-36-25S48 256.134 48 240c0-26.32 21.68-48 48-48 16.08 0 34.917 7.065 57.5 21 5.646 3.483 11.316 7.535 17 12-4.44-10.306-8.5-17.5-8.5-17.5-17.328-25.44-10.828-60.092 14.5-77.5 9.376-6.464 20.124-10 31.5-10 12.762 0 24.69 4.72 34.5 12.5.43.253 1.102.7 1.5 1 .278.236.726.26 1 .5 1.758 1.213 38.02 27 72 76-6.784-24.388-13.913-39.326-14-39.5-14.64-27.104-4.588-60.78 22.5-75.5 8.208-4.432 17.22-7 26.5-7zm0 32c-3.888 0-7.836 1-11.5 3-11.616 6.32-15.804 20.884-9.5 32.5.288.544 29 54.816 29 134 0 2.207.043 4.313 0 6.5.195.913.353 2.41.353 3.344 0 1.463-.382 3.772-.853 5.156-3.283 73.42-29.05 132.48-29.5 133.5-5.392 12.096-.096 26.592 12 32 3.184 1.424 6.736 2 10 2 9.168 0 18.016-5.088 22-14 1.392-3.103 34-77.397 34-168.5 0-92.112-33.576-154.392-35-157-4.352-7.936-12.52-12.5-21-12.5zm-144 32c-4.689 0-9.372 1.636-13.5 4.5-10.896 7.488-13.44 22.072-6 33 .256.416 27.5 41.788 27.5 101.5 0 61.008-28.584 112.232-29 113-6.512 11.536-2.52 26.472 9 33 3.728 2.112 7.984 3 12 3 8.368 0 16.584-4.208 21-12 1.424-2.528 35-62.824 35-137 0-75.36-35.028-126.356-36.5-128.5-1.027-1.48-2.228-2.83-3.5-4-.14-.135-.365-.36-.5-.5-4.416-3.832-9.824-6-15.5-6zm79.5 71.5c4.907 19.69 8.5 42.39 8.5 67.5 0 8.333-.32 16.048-1 24 3.694 5.89 14.24 24.514 23 55 4.712-20 8.546-43.754 9.5-69.5-10.142-30.616-24.83-56.122-40-77zM96 224c-9.04 0-16 6.96-16 16 0 3.866 1.553 6.8 9 13s19.76 13.733 33.5 23c18.602 12.547 40.18 29.585 57 55 2.67-12.42 4.5-25.852 4.5-40 0-.844.013-1.665 0-2.5-11.923-21.287-29.977-37.188-47.5-48C117.755 228.935 97.6 224 96 224z"/></svg>