<svg version="1.1" xmlns="http://www.w3.org/2000/svg" xmlns:xlink="http://www.w3.org/1999/xlink" id="group" viewBox="0 0 512 545.5"><path d="M128 144c52.83 0 96 43.17 96 96 0 31.74-15.602 60-39.5 77.5 23.336 11.593 42.876 29.785 55.5 52.5 12.624-22.715 32.164-40.907 55.5-52.5C271.602 300 256 271.74 256 240c0-52.83 43.17-96 96-96s96 43.17 96 96c0 31.74-15.602 60-39.5 77.5C450.7 338.465 480 381.827 480 432h-32c0-53.21-42.79-96-96-96s-96 42.79-96 96h-32c0-53.21-42.79-96-96-96s-96 42.79-96 96H0c0-50.173 29.3-93.535 71.5-114.5C47.602 300 32 271.74 32 240c0-52.83 43.17-96 96-96zm0 32c-35.536 0-64 28.464-64 64s28.464 64 64 64 64-28.464 64-64-28.464-64-64-64zm224 0c-35.536 0-64 28.464-64 64s28.464 64 64 64 64-28.464 64-64-28.464-64-64-64z"/></svg>