<svg version="1.1" xmlns="http://www.w3.org/2000/svg" xmlns:xlink="http://www.w3.org/1999/xlink" id="hand-grab-o" viewBox="0 0 512 545.5"><path d="M240 128c17 0 31.963 9.003 40.5 22.5 6.98-3.98 14.963-6.5 23.5-6.5 17 0 31.963 9.003 40.5 22.5 6.98-3.98 14.963-6.5 23.5-6.5 26.32 0 48 21.68 48 48v144c0 61.67-50.33 112-112 112h-84.5c-32.208 0-62.744-13.796-84-38l-38-43c-22.064-25.102-23.444-63.062-3-89.5l33.5-43V192c0-26.32 21.68-48 48-48 8.537 0 16.52 2.52 23.5 6.5C208.037 137.003 223 128 240 128zm0 32c-9.04 0-16 6.96-16 16v48h-32v-32c0-9.04-6.96-16-16-16s-16 6.96-16 16v128h-32v-17l-8 10.5c-11.204 14.49-10.58 34.255 1.5 48l38 43.5c15.192 17.3 36.976 27 60 27H304c44.38 0 80-35.62 80-80V208c0-9.04-6.96-16-16-16s-16 6.96-16 16v16h-32v-32c0-9.04-6.96-16-16-16s-16 6.96-16 16v32h-32v-48c0-9.04-6.96-16-16-16z"/></svg>