<svg version="1.1" xmlns="http://www.w3.org/2000/svg" xmlns:xlink="http://www.w3.org/1999/xlink" id="hand-spock-o" viewBox="0 0 512 545.5"><path d="M198.5 64c21.892-.352 41.63 14.91 47 37h.5c.033.143-.032.356 0 .5l24.5 93.5 16-76c5.053-25.834 30.168-43.052 56-38 25.834 5.053 43.052 30.668 38 56.5l-3.5 18c5.189-.78 10.568-.563 16 .5 25.834 5.053 43.052 30.668 38 56.5L416 288v112c0 61.67-50.33 112-112 112h-74c-30.71 0-56.693-14.766-75.5-33.5L46 370c-18.61-18.61-18.61-49.39 0-68s49.39-18.61 68 0l14 14v-13.5L97 168c-5.816-25.672 10.835-51.685 36.5-57.5 6.08-1.378 12.153-1.422 18-.5 1.008-21.083 16.054-40.142 37.5-45 3.18-.72 6.373-.95 9.5-1zM196 96.5c-8.8 1.993-13.992 10.208-12 19l7 30.5c.038.16-.036.34 0 .5L219.5 274l-31.5 7-28.5-127c-1.993-8.8-10.208-14.492-19-12.5-8.8 1.993-13.992 10.708-12 19.5l31 138 .5 1.5v93L132.5 366l-41-41.5c-6.383-6.383-16.617-6.383-23 0s-6.383 16.617 0 23l109 108c14.602 14.545 32.137 24.5 52.5 24.5h74c44.38 0 80-35.62 80-80V286.5l.5-1.5 15-78.5c1.732-8.857-3.646-17.27-12.5-19-8.857-1.732-16.77 4.146-18.5 13h-.5l-16.5 83-31.5-6 29-146c1.732-8.857-3.646-17.27-12.5-19-8.857-1.732-17.27 3.646-19 12.5v.5l-28 136-3 13H258l-3-12L215 109v-.5c-1.993-8.8-10.208-13.992-19-12z"/></svg>