<svg version="1.1" xmlns="http://www.w3.org/2000/svg" xmlns:xlink="http://www.w3.org/1999/xlink" id="hand-stop-o" viewBox="0 0 512 545.5"><path d="M256 64c22.098 0 40.528 15.52 46 36 5.617-2.33 11.585-4 18-4 26.32 0 48 21.68 48 48v19c5.052-1.828 10.352-3 16-3 26.32 0 48 21.68 48 48v192c0 61.67-50.33 112-112 112h-74c-30.71 0-56.693-14.766-75.5-33.5L62 370c-18.61-18.61-18.61-49.39 0-68s49.39-18.61 68 0l14 14V144c0-26.32 21.68-48 48-48 6.415 0 12.383 1.67 18 4 5.472-20.48 23.902-36 46-36zm0 32c-9.04 0-16 6.96-16 16v160h-32V144c0-9.04-6.96-16-16-16s-16 6.96-16 16v249.5L148.5 366l-41-41.5c-6.383-6.383-16.617-6.383-23 0s-6.383 16.617 0 23l109 108c14.602 14.545 32.137 24.5 52.5 24.5h74c44.38 0 80-35.62 80-80V208c0-9.04-6.96-16-16-16s-16 6.96-16 16v64h-32V144c0-9.04-6.96-16-16-16s-16 6.96-16 16v128h-32V112c0-9.04-6.96-16-16-16z"/></svg>