<svg version="1.1" xmlns="http://www.w3.org/2000/svg" xmlns:xlink="http://www.w3.org/1999/xlink" id="hand-o-down" viewBox="0 0 512 545.5"><path d="M160 64h256v269.5c0 22.542-15.966 42.27-38 47L256 407v57c0 26.32-21.68 48-48 48s-48-21.68-48-48V292l-12 3c-2.5 3.25-3.584 5.304-10 10-10.267 7.514-26.12 15-47.5 15-22.82.025-42.5-20.642-42.5-46.5V267l4.5-5L160 153.5V64zm32 32v48h192V96H192zm-9.5 80l-101 102.5c1.308 6.74 4.078 9.506 9 9.5 14.443 0 23.35-4.365 29-8.5s7-7 7-7l3-5.5 6.5-2 36-9.5 20-5V464c0 9.04 6.96 16 16 16s16-6.96 16-16v-83l12.5-3 135-28.5c7.47-1.605 12.5-8.366 12.5-16V176H182.5z"/></svg>