<svg version="1.1" xmlns="http://www.w3.org/2000/svg" xmlns:xlink="http://www.w3.org/1999/xlink" id="hand-o-up" viewBox="0 0 512 545.5"><path d="M208 64c26.32 0 48 21.68 48 48v57l122 26.5c22.034 4.73 38 24.458 38 47V512H160v-89.5L52.5 314l-4.5-5v-6.5c0-25.858 19.68-46.525 42.5-46.5 21.38 0 37.233 7.486 47.5 15 6.416 4.696 7.5 6.75 10 10l12 3V112c0-26.32 21.68-48 48-48zm0 32c-9.04 0-16 6.96-16 16v213.5l-20-5-36-9.5-6.5-2-3-5.5s-1.35-2.865-7-7-14.557-8.5-29-8.5c-4.922-.006-7.692 2.76-9 9.5l101 102.5H384V242.5c0-7.634-5.03-14.396-12.5-16l-135-28.5-12.5-3v-83c0-9.04-6.96-16-16-16zm-16 336v48h192v-48H192z"/></svg>