<svg version="1.1" xmlns="http://www.w3.org/2000/svg" xmlns:xlink="http://www.w3.org/1999/xlink" id="hand-scissors-o" viewBox="0 0 512 545.5"><path d="M182.5 143.5c4.41.087 9.22.663 14 1.5 25.816 4.523 42.01 19.645 50 33 1.963 3.28 3.29 6.528 4.5 9.5L386 146c25.18-7.646 52.35 6.814 60 32 7.646 25.18-6.814 52.35-32 60l-6.5 2H432c26.32 0 48 21.68 48 48s-21.68 48-48 48h-62.5c5.185 11.567 6.03 24.928 1 37.5-4.373 10.943-12.71 19.31-22.5 24.5 4.616 11.248 5.318 23.942.5 36-7.596 19.008-26.53 30.468-46 30H144c-61.67 0-112-50.33-112-112v-84.5c0-49.084 32.094-92.552 79-107l40-12.5.25-.002.25.002c6.78-2.027 17.773-4.76 31-4.5zM402 176c-2.075-.233-4.34-.156-6.5.5l-138 42L266 284c6.198-.094 12.416 1.075 18.5 3.5l42 16.5H432c9.04 0 16-6.96 16-16s-6.96-16-16-16H300.5v-13.5l-5.5-18 109.5-33c8.637-2.623 13.625-11.355 11-20-1.967-6.478-7.274-10.8-13.5-11.5zm-220 .5c-9.115-.014-18.247 1.527-21.5 2.5l-40 12C86.895 201.352 64 232.328 64 267.5V352c0 44.38 35.62 80 80 80h81.5c-13.18-13.083-17.825-33.168-10.5-51.5 2.723-6.814 6.94-12.786 12-17.5-9.736.98-19.54-.943-28-6-10.32-6.168-17.68-16.142-22-28.5-.158-.407-.383-1.08-.5-1.5L161 268l-8 4.5c-1.996 1.105-5.47 2.002-7.75 2.002-8.833 0-16.002-7.17-16.002-16.002 0-5.206 3.697-11.48 8.252-14L164 230c1.95-1.04 5.326-1.886 7.537-1.886 6.79 0 13.717 5.324 15.463 11.886l20 77.5c2.48 7.098 5.843 10.412 8.5 12s5.327 2.233 10.5 1c8.438-2.01 13.512-10.062 11.5-18.5-.158-.407-.383-1.08-.5-1.5l-13.5-103c-.004-.138-.008-.362-.008-.5s.004-.362.008-.5c0 0-.33-5.03-4.5-12s-10.81-14.487-28-17.5c-2.763-.484-5.962-.495-9-.5zm87 140c-.127 10.652-4.183 20.887-10.5 29 .735.45 1.14 1.156 2 1.5l59.5 23.5c8.365 3.346 17.648-.614 21-9 3.346-8.365-.614-17.148-9-20.5l-59.5-24c-1.213-.483-2.298-.314-3.5-.5zm-10 66c-2.134.01-4.134.2-6 1-3.732 1.598-6.825 4.31-8.5 8.5-3.353 8.39.633 17.653 9 21l44.5 18c2.1.84 4.4 1.03 6.5 1l.25-.002.25.002c6.106-.286 11.556-3.883 14-10 3.356-8.398-.617-17.65-9-21l-2-.5-21-8.5-21.5-8.5c-2.1-.84-4.366-1.01-6.5-1z"/></svg>