<svg version="1.1" xmlns="http://www.w3.org/2000/svg" xmlns:xlink="http://www.w3.org/1999/xlink" id="hand-o-right" viewBox="0 0 512 545.5"><path d="M235 80h6.5c25.858 0 46.525 19.68 46.5 42.5 0 21.38-7.486 37.233-15 47.5-4.696 6.416-6.75 7.5-10 10l-3 12h172c26.32 0 48 21.68 48 48s-21.68 48-48 48h-57l-26.5 122c-4.73 22.034-24.458 38-47 38H32V192h89.5L230 84.5zm11.5 33.5L144 214.5V416h157.5c7.634 0 14.396-5.03 16-12.5l28.5-135 3-12.5h83c9.04 0 16-6.96 16-16s-6.96-16-16-16H218.5l5-20 9.5-36 2-6.5 5.5-3s2.865-1.35 7-7 8.5-14.557 8.5-29c.006-4.922-2.76-7.692-9.5-9zM64 224v192h48V224H64z"/></svg>