<svg version="1.1" xmlns="http://www.w3.org/2000/svg" xmlns:xlink="http://www.w3.org/1999/xlink" id="hand-o-left" viewBox="0 0 512 545.5"><path d="M270.5 80h6.5l5 4.5L390.5 192H480v256H210.5c-22.542 0-42.27-15.966-47-38L137 288H80c-26.32 0-48-21.68-48-48s21.68-48 48-48h172l-3-12c-3.25-2.5-5.304-3.584-10-10-7.514-10.267-15-26.12-15-47.5-.025-22.82 20.642-42.5 46.5-42.5zm-5 33.5c-6.74 1.308-9.506 4.078-9.5 9 0 14.443 4.365 23.35 8.5 29s7 7 7 7l5.5 3 2 6.5 9.5 36 5 20H80c-9.04 0-16 6.96-16 16s6.96 16 16 16h83l3 12.5 28.5 135c1.605 7.47 8.366 12.5 16 12.5H368V214.5zM400 224v192h48V224h-48z"/></svg>