<svg version="1.1" xmlns="http://www.w3.org/2000/svg" xmlns:xlink="http://www.w3.org/1999/xlink" id="hand-peace-o" viewBox="0 0 512 545.5"><path d="M240 64c26.32 0 48 21.68 48 48v62.5c11.567-5.185 24.928-6.03 37.5-1 10.943 4.373 19.31 12.71 24.5 22.5 11.248-4.616 23.942-5.318 36-.5 17.365 6.94 28.087 23.39 29.5 41 .158.407.383 1.08.5 1.5.008.162-.006.338 0 .5.004.138.008.362.008.5s-.004.362-.008.5c.013.685.017 1.313 0 2V400c0 61.67-50.33 112-112 112h-84.5c-49.084 0-92.552-32.094-107-79L100 393l-.002-.25.002-.25c-2.703-9.038-6.347-25.873-3-45 4.523-25.816 19.645-42.01 33-50 3.28-1.963 6.528-3.29 9.5-4.5L98 158c-7.652-25.176 6.805-52.35 32-60 25.18-7.646 52.35 6.814 60 32l2 6.5V112c0-26.32 21.68-48 48-48zm0 32c-9.04 0-16 6.96-16 16v131.5h-13.5l-18 5.5-33-109.5c-2.623-8.637-11.355-13.625-20-11-8.628 2.62-13.12 11.384-10.5 20l41.5 138L236 278c-.026-6.14 1.128-12.55 3.5-18.5l16.5-42V112c0-9.04-6.96-16-16-16zm67 106c-6.156.096-11.486 3.71-14 10l-24 59.5c-.483 1.213-.314 2.298-.5 3.5 10.652.127 20.887 4.183 29 10.5.45-.735 1.156-1.14 1.5-2l6.5-16.5v-.5l9-22.5 8-20c3.346-8.365-.614-17.648-9-21-2.092-.837-4.448-1.03-6.5-1zm60.5 22c-2.134.01-4.134.2-6 1-3.732 1.598-6.825 4.81-8.5 9-.227.645-.243 1.36-.5 2l-17 42.5c-3.356 8.398.117 17.65 8.5 21 8.39 3.353 17.653-.633 21-9l18-44.5c.776-1.94.972-4.05 1-6l-.002-.25.002-.25c-.095-6.302-3.713-11.987-10-14.5-2.1-.84-4.366-1.01-6.5-1zM264 306.5c-.407.158-1.08.383-1.5.5l-103 13.5c-.138.004-.362.008-.5.008s-.362-.004-.5-.008c0 0-5.03.33-12 4.5s-14.487 10.81-17.5 28c-1.934 11.05.703 26.162 2 30.5l12 40c10.352 33.605 41.328 56.5 76.5 56.5H304c44.38 0 80-35.62 80-80v-81.5c-13.083 13.18-33.168 17.825-51.5 10.5-6.814-2.723-12.786-6.94-17.5-12 .98 9.736-.943 19.54-6 28-6.168 10.32-16.142 17.68-28.5 22-.407.158-1.08.383-1.5.5L220 383l4.5 8c1.105 1.996 2.002 5.47 2.002 7.75 0 8.833-7.17 16.002-16.002 16.002-5.206 0-11.48-3.697-14-8.252L182 380c-1.04-1.95-1.886-5.326-1.886-7.537 0-6.79 5.324-13.717 11.886-15.463l77.5-20c7.098-2.48 10.412-5.843 12-8.5s2.233-5.327 1-10.5c-2.01-8.438-10.062-13.512-18.5-11.5z"/></svg>