<svg version="1.1" xmlns="http://www.w3.org/2000/svg" xmlns:xlink="http://www.w3.org/1999/xlink" id="hand-lizard-o" viewBox="0 0 512 545.5"><path d="M229 96h219v32c0 20.936-15.14 36.013-34 42.5l-5.5 21c-7.106 28.403-32.72 48.5-62 48.5h-102l8 32h110c29.28 0 54.894 20.097 62 48.5l2 7.5c4.954 19.816-10.572 40-31 40h-101c-6.756 8.27-28.43 30.356-70.5 43v69H64V321.5c0-14.16 3.863-28.266 11-40.5l84.5-145.5C173.823 110.948 200.565 96 229 96zm0 32c-17.102 0-32.88 9.224-41.5 24l-85 145c-4.287 7.35-6.5 16.004-6.5 24.5V448h96v-61l13-2.5c46.922-9.257 70-42 70-42l5-6.5h115.5l-2-8c-3.582-14.316-16.248-24-31-24h-110c-14.595 0-27.465-9.826-31-24l-8-32c-4.954-19.816 10.572-40 31-40h102c14.752 0 27.418-9.684 31-24l2-8H240l16-32h144c9.04 0 16-6.96 16-16H229z"/></svg>