<svg version="1.1" xmlns="http://www.w3.org/2000/svg" xmlns:xlink="http://www.w3.org/1999/xlink" id="heart-o" viewBox="0 0 512 545.5"><path d="M152 112c54.92 0 90.318 33.06 104 47 13.682-13.94 49.08-47 104-47 66.205 0 120 54.456 120 120 0 45.718-39.5 80.5-39.5 80.5L267.5 486 256 497.5 244.5 486l-173-173.5S61.602 303.326 52 289s-20-34.147-20-57c0-65.544 53.795-120 120-120zm0 32c-48.675 0-88 39.943-88 88 0 12.347 6.767 27.462 14.5 39S94 290 94 290l162 162 162-162s30-33.286 30-58c0-48.057-39.325-88-88-88-47.783 0-92 46.5-92 46.5L256 204l-12-13.5S199.783 144 152 144z"/></svg>