<svg version="1.1" xmlns="http://www.w3.org/2000/svg" xmlns:xlink="http://www.w3.org/1999/xlink" id="hotel" viewBox="0 0 512 545.5"><path d="M96 128h320c26.327 0 48 21.673 48 48v108.5c9.764 8.813 16 21.446 16 35.5v144h-80v-32H112v32H32V320c0-14.054 6.236-26.688 16-35.5V176c0-26.327 21.673-48 48-48zm0 32c-8.873 0-16 7.127-16 16v96h32v-16c0-26.327 21.673-48 48-48h64c12.273 0 23.474 4.805 32 12.5 8.526-7.695 19.727-12.5 32-12.5h64c26.327 0 48 21.673 48 48v16h32v-96c0-8.873-7.127-16-16-16H96zm64 80c-8.873 0-16 7.127-16 16v16h96v-16c0-8.873-7.127-16-16-16h-64zm128 0c-8.873 0-16 7.127-16 16v16h96v-16c0-8.873-7.127-16-16-16h-64zM80 304c-8.873 0-16 7.127-16 16v112h16v-32h352v32h16V320c0-8.873-7.127-16-16-16H80z"/></svg>