<svg version="1.1" xmlns="http://www.w3.org/2000/svg" xmlns:xlink="http://www.w3.org/1999/xlink" id="hourglass-half" viewBox="0 0 512 545.5"><path d="M112 96h288v32h-32v64c0 40.674-21.898 76.378-54.5 96 32.602 19.622 54.5 55.326 54.5 96v64h32v32H112v-32h32v-64c0-40.674 21.898-76.378 54.5-96-32.602-19.622-54.5-55.326-54.5-96v-64h-32V96zm64 32v64c0 44.38 35.62 80 80 80s80-35.62 80-80v-64H176zm18.5 80h123c-7.152 27.552-31.708 48-61.5 48s-54.364-20.448-61.5-48zm61.5 96c-44.38 0-80 35.62-80 80v64h16c0-35.344 28.656-64 64-64s64 28.656 64 64h16v-64c0-44.38-35.62-80-80-80z"/></svg>