<svg version="1.1" xmlns="http://www.w3.org/2000/svg" xmlns:xlink="http://www.w3.org/1999/xlink" id="instagram" viewBox="0 0 512 545.5"><path d="M128 112h256c26.32 0 48 21.68 48 48v256c0 26.32-21.68 48-48 48H128c-26.32 0-48-21.68-48-48V160c0-26.32 21.68-48 48-48zm208 48v48h48v-48h-48zm-80 64c-35.536 0-64 28.464-64 64s28.464 64 64 64 64-28.464 64-64-28.464-64-64-64zm-144 32v160c0 9.04 6.96 16 16 16h256c9.04 0 16-6.96 16-16V256h-53.5c3.544 9.99 5.5 20.83 5.5 32 0 52.83-43.17 96-96 96s-96-43.17-96-96c0-11.17 1.956-22.01 5.5-32H112z"/></svg>