<svg version="1.1" xmlns="http://www.w3.org/2000/svg" xmlns:xlink="http://www.w3.org/1999/xlink" id="internet-explorer" viewBox="0 0 512 545.5"><path d="M443.216 172.992l-2.208-2.16s32.64-79.584-36.4-79.584c-43.552 0-94 35.103-94 35.103s142.77 23.12 131.425 184.146h-235.89s-3.487 62.56 57.457 62.56c44.4 0 53.072-39.424 53.072-39.424h123.616s-33.056 120.784-172.353 120.784c-33.088 0-45.264-2.576-45.264-2.576S166.096 496 110.384 496s-60.927-59.552-53.088-86.112c7.84-26.56 39.168-156.8 171.488-245.823v-6S139.135 194.913 74.72 285.68c0 0-2.608-88.224 76.59-137.903C224 104.53 296.69 123.793 296.69 123.793s60.928-43.68 109.68-43.68c0 0 75.952-6.992 36.848 92.88zm-227.44 277.056c-82.305-18.096-110.4-69.408-110.4-69.408s-33.216 49.808-12.784 85.01c38.176 35.167 123.185-15.602 123.185-15.602zm102.24-194.336s2.257-53.808-54.703-53.808c-58.93 0-57.505 53.808-57.505 53.808h112.208z"/></svg>