<svg version="1.1" xmlns="http://www.w3.org/2000/svg" xmlns:xlink="http://www.w3.org/1999/xlink" id="joomla" viewBox="0 0 512 545.5"><path d="M96.4 170.992c0-23.616 19.152-42.816 42.8-42.816 21.28.032 38.944 15.55 42.24 35.888 23.088-5.425 48.368.88 66.368 18.88l2.464 2.464-31.584 31.584-2.448-2.464c-10.256-10.256-26.864-10.256-37.136.016-10.288 10.272-10.272 26.944-.048 37.168l6.192 6.176 31.584 31.568 33.424 33.392-31.568 31.6-33.44-33.424-31.6-31.584-6.16-6.16c-19.088-19.088-24.992-46.352-17.76-70.544-19.072-4.272-33.327-21.328-33.327-41.744zm92.608 83.152l33.44-33.392 31.6-31.584 6.176-6.143c19.01-18.992 46.112-24.96 70.192-17.904 2.88-20.848 20.784-36.91 42.416-36.91 23.65 0 42.817 19.182 42.8 42.815 0 21.743-16.19 39.695-37.168 42.447 6.896 23.985.88 50.88-18 69.792L358 285.728l-31.584-31.584 2.432-2.464c10.272-10.256 10.272-26.88.016-37.12-10.224-10.224-26.8-10.24-37.087.05l-6.177 6.158-31.584 31.584-33.424 33.376zm190.208 108.48c20.8 2.912 36.8 20.784 36.8 42.416 0 23.648-19.184 42.816-42.816 42.816-20.704 0-38-14.704-41.936-34.272-24.304 7.456-51.823 1.584-71.056-17.632l-2.416-2.416 31.57-31.616 2.43 2.416c10.256 10.272 26.88 10.272 37.136.016 10.208-10.224 10.24-26.8-.064-37.104l-6.176-6.192-31.584-31.584-33.36-33.392 31.6-31.568 33.328 33.36 31.584 31.584 6.192 6.208c18.16 18.16 24.432 43.712 18.768 66.96zm-60.272-37.84l-33.345 33.36-31.568 31.616-6.192 6.192c-18.24 18.24-43.953 24.432-67.296 18.64-4.352 19.024-21.392 33.168-41.728 33.2-23.648 0-42.816-19.184-42.816-42.817 0-20.24 14.048-37.215 32.927-41.647-5.967-23.44.208-49.36 18.577-67.73l2.416-2.398 31.584 31.584-2.45 2.416c-10.238 10.271-10.238 26.88.018 37.136 10.288 10.288 26.943 10.272 37.168.032l6.176-6.193L254 326.59l33.36-33.39z"/></svg>