<svg version="1.1" xmlns="http://www.w3.org/2000/svg" xmlns:xlink="http://www.w3.org/1999/xlink" id="jsfiddle" viewBox="0 0 512 545.5"><path d="M415.872 261.536C453.2 274.688 480 310.176 480 352c0 53.024-42.976 96-96 96H128c-53.024 0-96-42.976-96-96 0-35.648 19.472-66.69 48.32-83.248C82.048 234.944 109.76 208 144 208c3.968 0 7.824.48 11.6 1.168C176.688 161.392 224.416 128 280 128c74.272 0 134.544 59.568 135.872 133.536zM334.224 400C370.497 400 400 371.296 400 336s-29.503-64-65.776-64c-39.392 0-67.52 27.727-68.687 28.928l22.656 22.592c5.04-5.072 24.35-19.52 46.03-19.52C353.17 304 368 318.065 368 336c0 17.648-15.152 32-33.792 32-18.35 0-42.992-22.16-66.832-43.584-28.656-25.76-58.303-52.416-89.6-52.416C141.505 272 112 300.704 112 336s29.504 64 65.777 64c24.336 0 46.607-9.904 66.223-29.472l-22.59-22.656C207.824 361.424 193.55 368 177.776 368 159.472 368 144 353.344 144 336c0-17.936 14.832-32 33.777-32 19.023 0 44.03 22.48 68.223 44.224C274.32 373.664 303.6 400 334.224 400z"/></svg>