<svg version="1.1" xmlns="http://www.w3.org/2000/svg" xmlns:xlink="http://www.w3.org/1999/xlink" id="key" viewBox="0 0 512 545.5"><path d="M320 80c79.127 0 144 64.873 144 144s-64.873 144-144 144c-23.116 0-45.102-6.263-64-15.5V400h-48v48h-48v48H48V377.5l4.5-5 126-125.5c-1.145-7.348-2.5-14.694-2.5-23 0-79.127 64.873-144 144-144zm0 32c-61.673 0-112 50.327-112 112 0 7.822 1.4 16.4 3 26l1.5 8.5-6 5.5L80 391v73h48v-48h48v-48h48v-48h37.5l4 2c15.214 8.3 35.148 14 54.5 14 61.673 0 112-50.327 112-112s-50.327-112-112-112zm32 48c17.673 0 32 14.327 32 32s-14.327 32-32 32-32-14.327-32-32 14.327-32 32-32z"/></svg>