<svg version="1.1" xmlns="http://www.w3.org/2000/svg" xmlns:xlink="http://www.w3.org/1999/xlink" id="keyboard-o" viewBox="0 0 512 545.5"><path d="M32 144h416c17.49 0 32 14.51 32 32v224c0 17.49-14.51 32-32 32H32c-17.49 0-32-14.51-32-32V176c0-17.49 14.51-32 32-32zm0 32v224h416V176H32zm32 32h32v32H64v-32zm64 0h32v32h-32v-32zm64 0h32v32h-32v-32zm64 0h32v32h-32v-32zm64 0h32v32h-32v-32zm64 0h32v32h-32v-32zM64 272h64v32H64v-32zm96 0h32v32h-32v-32zm64 0h32v32h-32v-32zm64 0h32v32h-32v-32zm64 0h64v32h-64v-32zM64 336h64v32H64v-32zm96 0h160v32H160v-32zm192 0h64v32h-64v-32z"/></svg>