<svg version="1.1" xmlns="http://www.w3.org/2000/svg" xmlns:xlink="http://www.w3.org/1999/xlink" id="language" viewBox="0 0 512 545.5"><path d="M64 96h288v96h96v288H160v-96H64V96zm32 32v224h73l151-151v-73H96zm80 32h32v16h48v32h-17c-1.676 18.436-6.32 35.458-15 50v30c-9.15 0-17.608-1.035-26-2.5-18.027 12.024-41.654 18.5-70 18.5v-32c10.475 0 19.632-.826 27.5-2.5-15.758-10.59-27.5-26.43-27.5-45.5h32c0 6.698 4.262 13.788 15.5 20.5 4.05 2.42 9.028 4.715 14.5 6.5 9.292-10.137 14.933-24.62 17-43h-79v-32h48v-16zm167 64L192 375v73h224V224h-73zm-23 29.5l15 45.5 32 96 1 2.5V416h-32v-14l-.5-2h-31l-.5 2v14h-32v-18.5l1-2.5 32-96zm0 100.5l-4.5 14h9z"/></svg>