<svg version="1.1" xmlns="http://www.w3.org/2000/svg" xmlns:xlink="http://www.w3.org/1999/xlink" id="lastfm" viewBox="0 0 512 545.5"><path d="M229.568 385.248s-27.712 27.2-85.696 27.2C72.032 412.448 32 370.368 32 292.368c0-81.088 40.032-128.816 115.424-128.784 68.256 0 102.64 24.624 124.192 91.344l16.927 51.313c12.32 37.457 33.873 64.657 85.697 64.657 34.895 0 53.376-7.713 53.376-26.69 0-14.894-8.72-25.663-34.897-31.823l-34.896-8.208c-42.592-10.271-59.52-32.336-59.52-67.23 0-55.92 45.167-73.377 91.344-73.377 52.352 0 84.16 18.974 88.27 65.167l-51.31 6.16c-2.064-22.08-15.408-31.313-40.032-31.313-22.576 0-36.433 10.273-36.433 27.712 0 15.392 6.673 24.624 29.248 29.76l32.85 7.184c44.128 10.272 67.744 31.825 67.744 73.392 0 51.313-43.105 70.816-106.736 70.816-88.768 0-119.568-40.032-135.984-89.808l-16.416-51.312c-12.32-37.47-26.688-66.72-71.84-66.72-31.31 0-63.12 22.576-63.12 85.696 0 49.28 25.152 80.064 60.56 80.064 40.016 0 66.705-29.76 66.705-29.76z"/></svg>