<svg version="1.1" xmlns="http://www.w3.org/2000/svg" xmlns:xlink="http://www.w3.org/1999/xlink" id="leaf" viewBox="0 0 512 545.5"><path d="M400.5 96l5 17.5s26.5 89.852 26.5 215c0 63.926-14.74 106.186-37.5 132.5s-52.894 35-77.5 35c-27.645 0-51.295-12.546-70-25.5s-34.633-27.689-37.5-29.5l17-27c11.26 7.116 22.365 18.826 38.5 30s34.764 20 52 20c17.33 0 36.812-5.282 53-24s30-52.515 30-111.5c0-104.02-16.347-170.547-21.5-190-55.068 20.418-119.215 29.69-171 48-28.617 10.117-52.54 22.984-69 41S112 268.736 112 304c0 31.01 16.935 50.286 35.5 63.5 9.643 6.863 18.992 11.174 26 14 27.515-43.906 69.69-98.517 135-168.5l23 22c-108.93 116.724-150.854 189.68-166 234-7.573 22.16-8.485 37.122-8 48s3.47 16.933 2.5 28.5l-32-3c-.026.32-1.855-9.552-2.5-24s.755-34.41 9.5-60c4.84-14.16 12.1-30.69 22-49-8.192-3.648-17.916-8.822-28-16-23.634-16.82-49-46.35-49-89.5 0-41.68 13.332-74.283 35-98s50.693-38.432 82-49.5c62.614-22.137 136.144-30.534 187-53z"/></svg>