<svg version="1.1" xmlns="http://www.w3.org/2000/svg" xmlns:xlink="http://www.w3.org/1999/xlink" id="leanpub" viewBox="0 0 512 545.5"><path d="M165.5 128c46.035 0 79.59 20.14 90.5 27 10.908-6.86 44.465-27 90.5-27 54.22 0 111 30.5 111 30.5l7.5 4 1 8.5 30 259 3 27.5-25.5-11s-65.9-27.5-128-27.5c-36.796 0-81 26.5-81 26.5L256 451l-8.5-5.5s-44.204-26.5-81-26.5c-62.1 0-128 27.5-128 27.5l-25.5 11 3-27.5 30-259 1-8.5 7.5-4s56.78-30.5 111-30.5zm0 32c-36.41 0-77.806 18.986-88.5 24L51 408.5c24.53-8.793 64.858-21.5 115.5-21.5 43.583 0 78.71 20.453 89.5 27 10.79-6.547 45.917-27 89.5-27 50.642 0 90.97 12.707 115.5 21.5L435 184c-10.697-5.014-52.09-24-88.5-24-41.364 0-81.5 26-81.5 26l-9 6-9-6s-40.136-26-81.5-26zm0 24c34.4 0 67.664 21.792 68 22l22.5 15 22-15c.288-.176 25.476-16.036 54.5-20.5l20 178c-36.016-1.808-72.356 11.24-96.5 23-22.656-11.04-55.42-23.5-89.5-23.5-26.832 0-56.156 4.208-87.5 12l20-175c14.704-5.872 43.348-16 66.5-16z"/></svg>