<svg version="1.1" xmlns="http://www.w3.org/2000/svg" xmlns:xlink="http://www.w3.org/1999/xlink" id="legal" viewBox="0 0 512 545.5"><path d="M255.5 57.5l11 11 48 48.5 11.5 11-11.5 11.5-4.5 4.5 89.5 89 4.5-4.5 11.5-11 11 11 48 48.5 11.5 11-11.5 11.5-112 112-11 11.5-11.5-11.5-48-48-11.5-11.5 11.5-11 5.5-5.5-33-33-189 189-23-23 189-189L208 246l-5.5 5.5-11 11.5-11.5-11.5-48-48-11.5-11.5 11.5-11L244 68.5zm0 45L166 192l25.5 25.5L281 128zM288 167l-57 57 89 89 57-57zm127.5 95.5L411 267l-85 85 25.5 25.5L441 288z"/></svg>