<svg version="1.1" xmlns="http://www.w3.org/2000/svg" xmlns:xlink="http://www.w3.org/1999/xlink" id="lemon-o" viewBox="0 0 512 545.5"><path d="M208 96c116.99 0 200.924 73.33 219 154.5 12.09 8.715 21 21.548 21 37.5s-8.91 28.785-21 37.5C409.87 404.676 339.714 480 208 480c-41.29 0-78.06-23.02-103.5-58S64 339.745 64 288s15.06-99.02 40.5-134S166.71 96 208 96zm0 32c-29.4 0-56.613 16.28-77.5 45S96 242.543 96 288s13.613 86.28 34.5 115 48.1 45 77.5 45 56.613-16.28 77.5-45S320 333.457 320 288s-13.613-86.28-34.5-115-48.1-45-77.5-45zm102 24.5c.425.57 1.08.924 1.5 1.5 25.44 34.98 40.5 82.255 40.5 134s-15.06 99.02-40.5 134c-2.048 2.815-4.31 5.346-6.5 8 56.054-24.24 84-69.716 92.5-116l1.5-8 7.5-3.5c5.564-2.536 9.5-7.91 9.5-14.5s-3.937-11.964-9.5-14.5L399 270l-1.5-8c-7.6-41.37-38.846-83.758-87.5-109.5zM208 160c11.888 0 23.356 4.044 33.5 11.5l-33 76L176 171c9.808-6.896 20.592-11 32-11zm-56 36.5l32 75.5h-55.5c2.304-29.424 10.908-55.788 23.5-75.5zm113 1.5c12.128 19.568 20.26 45.248 22.5 74h-55zM128.5 304h55L151 378c-12.128-19.568-20.26-45.248-22.5-74zm103.5 0h55.5c-2.304 29.408-10.908 55.788-23.5 75.5zm-24.5 24.5L240 405c-9.808 6.896-20.592 11-32 11-11.888 0-23.356-4.044-33.5-11.5z"/></svg>