<svg version="1.1" xmlns="http://www.w3.org/2000/svg" xmlns:xlink="http://www.w3.org/1999/xlink" id="life-ring" viewBox="0 0 512 545.5"><path d="M256 96c105.85 0 192 86.15 192 192s-86.15 192-192 192S64 393.85 64 288 150.15 96 256 96zm0 32c-5.367 0-10.77.487-16 1v48.5c5.238-.757 10.558-1.5 16-1.5s10.762.743 16 1.5V129c-5.23-.513-10.633-1-16-1zm-48 7c-49.856 15.62-88.92 55.027-104.5 105H155c11.07-23.247 29.722-41.894 53-53v-52zm96 0v52c23.235 11.086 41.914 29.765 53 53h52c-15.6-49.786-55.214-89.4-105-105zm-48 73c-44.372 0-80 35.628-80 80s35.628 80 80 80 80-35.628 80-80-35.628-80-80-80zM97 272c-.512 5.224-1 10.642-1 16 0 5.367.487 10.77 1 16h48.5c-.757-5.238-1.5-10.558-1.5-16 0-5.396.256-10.807 1-16H97zm269.5 0c.757 5.238 1.5 10.558 1.5 16s-.743 10.762-1.5 16H415c.513-5.23 1-10.633 1-16s-.487-10.77-1-16h-48.5zM103 336c15.6 49.786 55.214 89.4 105 105v-52c-23.235-11.086-41.914-29.765-53-53h-52zm254 0c-11.086 23.235-29.765 41.914-53 53v52c49.786-15.6 89.4-55.214 105-105h-52zm-117 62.5V447c5.23.513 10.633 1 16 1s10.77-.487 16-1v-48.5c-5.238.757-10.558 1.5-16 1.5s-10.762-.743-16-1.5z"/></svg>