<svg version="1.1" xmlns="http://www.w3.org/2000/svg" xmlns:xlink="http://www.w3.org/1999/xlink" id="lightbulb-o" viewBox="0 0 512 545.5"><path d="M109 70.5l33.5 33.5-22.5 22.5L86.5 93zm294 0L425.5 93 392 126.5 369.5 104zm-147 10c78.95-.75 144 64.436 144 143.5 0 43.29-19.986 80.986-46.5 107.5-19.81 18.394-32 42.033-32 65.5v19H320v64h-36.5c-5.553 9.55-15.715 16-27.5 16s-21.947-6.45-27.5-16H192v-96c-3.24-17.87-12.705-35.39-28-48.5-35.727-30.368-57.17-77.527-50-129.5 8.977-64.628 60.63-117.062 125.5-124.5.174-.02.326.02.5 0 5.37-.652 10.736-.95 16-1zm0 32c-4.122.06-8.285.473-12.5 1-50.102 5.566-91 46.09-98 96.5-5.63 40.827 11.227 76.97 39.5 101 22.21 19.038 33.99 45.573 37.5 73h70c3.768-28.672 17.507-54.937 39-75l-.5-.5c21.486-21.486 37-50.99 37-84.5 0-61.776-50.164-112.378-112-111.5zM32 224h48v32H32v-32zm400 0h48v32h-48v-32zM120 353.5l22.5 22.5-33.5 33.5L86.5 387zm272 0l33.5 33.5-22.5 22.5-33.5-33.5zM224 416v32h64v-32h-64z"/></svg>