<svg version="1.1" xmlns="http://www.w3.org/2000/svg" xmlns:xlink="http://www.w3.org/1999/xlink" id="line-chart" viewBox="0 0 512 545.5"><path d="M435.5 118l25 20-64 80-8 10-11.5-5.5-51.5-25.5-56 84-9.5 14-13.5-10-54.5-41-54.5 41-6 4.5-7.5-2-64-16 8-31 56.5 14 58-43.5 9.5-7 9.5 7 50.5 38 54.5-82 8-11.5 12.5 6 52.5 26.5zM321 325l12.5 18 52 77.5 50-62.5 25 20-64 80-13.5 17-12.5-18-52-77.5-50 62.5-9.5 12-12.5-9-54.5-41-54.5 41-8 5.5-8.5-4-64-32 14-29 55.5 27.5 56-42 9.5-7 9.5 7 51.5 39 54.5-68z"/></svg>