<svg version="1.1" xmlns="http://www.w3.org/2000/svg" xmlns:xlink="http://www.w3.org/1999/xlink" id="link" viewBox="0 0 512 545.5"><path d="M348 96c26.736 0 51.603 10.572 70.5 29.5 18.912 18.912 29.5 43.764 29.5 70.5s-10.588 52.088-29.5 71L395 290.5c-18.896 18.928-44.264 29.5-71 29.5-12.688 0-25.044-2.44-36.5-7l26-26c3.44.608 6.916 1 10.5 1 18.208 0 35.62-7.12 48.5-20l23.5-23.5c26.56-26.56 26.56-69.956 0-96.5-12.864-12.88-29.808-20-48-20-18.208 0-35.636 7.104-48.5 20L276 171.5c-15.952 15.935-22.264 38.28-19 59l-26 26c-4.56-11.456-7-23.796-7-36.5 0-26.736 10.588-52.088 29.5-71l23.5-23.5c18.896-18.928 44.264-29.5 71-29.5zm-39.5 116.5l23 23-128 128-23-23zM188 256c12.688 0 25.044 2.44 36.5 7l-26 26c-3.44-.608-6.916-1-10.5-1-18.208 0-35.62 7.12-48.5 20L116 331.5c-26.56 26.56-26.56 69.956 0 96.5 12.864 12.88 29.808 20 48 20 18.208 0 35.636-7.104 48.5-20l23.5-23.5c15.952-15.935 22.264-38.28 19-59l26-26c4.56 11.456 7 23.796 7 36.5 0 26.736-10.588 52.088-29.5 71L235 450.5c-18.896 18.928-44.264 29.5-71 29.5s-51.603-10.572-70.5-29.5C74.588 431.588 64 406.736 64 380s10.588-52.088 29.5-71l23.5-23.5c18.896-18.928 44.264-29.5 71-29.5z"/></svg>