<svg version="1.1" xmlns="http://www.w3.org/2000/svg" xmlns:xlink="http://www.w3.org/1999/xlink" id="linkedin" viewBox="0 0 512 545.5"><path d="M120 112h272c21.905 0 40 18.095 40 40v272c0 21.905-18.095 40-40 40H120c-21.905 0-40-18.095-40-40V152c0-21.905 18.095-40 40-40zm0 32c-4.59 0-8 3.41-8 8v272c0 4.59 3.41 8 8 8h272c4.59 0 8-3.41 8-8V152c0-4.59-3.41-8-8-8H120zm47 27.5c15.168 0 27.5 12.332 27.5 27.5 0 15.184-12.332 27.5-27.5 27.5-15.216 0-27.5-12.316-27.5-27.5s12.3-27.5 27.5-27.5zm144.5 73c47.792 0 56.5 31.104 56.5 72V400h-47v-74c0-17.616-.292-40-24.5-40-24.56 0-28.5 19.192-28.5 39v75h-47V248h45v21h1c6.304-11.935 21.54-24.5 44.5-24.5zM144 248h47.5v152H144V248z"/></svg>