<svg version="1.1" xmlns="http://www.w3.org/2000/svg" xmlns:xlink="http://www.w3.org/1999/xlink" id="linux" viewBox="0 0 512 545.5"><path d="M256 112c88.182 0 160 71.818 160 160v128c0 17.866 14.134 32 32 32v32c-35.157 0-64-28.843-64-64V272c0-38.61-17.117-73.066-44-96.5.024 3.636-.657 7.157-3 9.5-6.248 6.248-19.127 3.873-28.5-5.5-8.716-8.716-11.174-20.398-6.5-27-14.276-5.477-29.754-8.5-46-8.5-70.89 0-128 57.11-128 128v128c0 35.157-28.843 64-64 64v-32c17.866 0 32-14.134 32-32V272c0-88.182 71.818-160 160-160zm-48 96c21.29 0 37.912 10.43 48 24 10.088-13.57 26.71-24 48-24 24.33 0 42.68 13.64 52 30s12 34.77 12 50c0 21.683-6.632 37.555-14 47.5-.692.935-1.285 1.652-2 2.5 9.813 10.493 16 23.475 16 38 0 22.876-15.567 41.58-36 53.5S285.03 448 256 448s-55.567-6.58-76-18.5-36-30.624-36-53.5c0-14.525 6.186-27.507 16-38-.715-.848-1.308-1.565-2-2.5-7.368-9.945-14-25.817-14-47.5 0-15.23 2.68-33.64 12-50s27.67-30 52-30zm0 32c-13.86 0-19.367 4.99-24.5 14s-7.5 22.717-7.5 34c0 15.405 4.456 23.717 8 28.5 1.148 1.55 1.77 2.26 2.5 3 3.6-1.81 7.1-3.998 11-5.5-3.393-4.4-5.5-10.743-5.5-18 0-13.255 7.163-24 16-24s16 10.745 16 24c0 4.228-1.22 8.05-2.5 11.5 11.006-2.212 22.357-3.5 34.5-3.5s23.494 1.288 34.5 3.5c-1.28-3.45-2.5-7.272-2.5-11.5 0-13.255 7.163-24 16-24s16 10.745 16 24c0 7.257-2.107 13.6-5.5 18 3.9 1.502 7.4 3.69 11 5.5.73-.74 1.352-1.45 2.5-3 3.544-4.783 8-13.095 8-28.5 0-11.283-2.367-24.99-7.5-34s-10.64-14-24.5-14-19.367 4.99-24.5 14-7.5 22.717-7.5 34h-32c0-11.283-2.367-24.99-7.5-34s-10.64-14-24.5-14zm48 96c-23.987 0-45.688 5.65-60 14s-20 17.948-20 26 5.688 17.65 20 26 36.013 14 60 14 45.688-5.65 60-14 20-17.948 20-26-5.688-17.65-20-26-36.013-14-60-14zm-40 23s15.248 9 40 9 40-9 40-9l16 27.5S289.168 400 256 400s-56-13.5-56-13.5z"/></svg>