<svg version="1.1" xmlns="http://www.w3.org/2000/svg" xmlns:xlink="http://www.w3.org/1999/xlink" id="list-ol" viewBox="0 0 512 545.5"><path d="M95.5 80H128v112H96v-72.5c-7.11 4.076-14.607 8.5-25.5 8.5V96c7.903 0 20-10.5 20-10.5zm80.5 48h272v32H176v-32zm-72 96c22.134 0 40 17.866 40 40 0 7.702-3.973 17.44-12 24l.5.5-2 1.5-14 14H144v32H64v-26l5-4.5 41.5-40 1-1 .5-.5c0-3.467-4.533-8-8-8s-8 4.533-8 8v8H64v-8c0-22.134 17.866-40 40-40zm72 48h272v32H176v-32zM64 368h64v23.5l-2 4-6.5 11c13.648 6.36 24.5 17.42 24.5 33.5 0 22.134-17.866 40-40 40H64v-32h40c3.467 0 8-4.533 8-8s-4.533-8-8-8H80v-22l2-3.5 4-6.5H64v-32zm112 48h272v32H176v-32z"/></svg>