<svg version="1.1" xmlns="http://www.w3.org/2000/svg" xmlns:xlink="http://www.w3.org/1999/xlink" id="magic" viewBox="0 0 512 545.5"><path d="M334 73l11.5 11.5 29 29h56v56l29 29L471 210l-12 11-28.5 27v57.5h-56l-29 27.5-11.5 11-11-11-24-24-187 186.5-11 11.5-11.5-11.5-41-41-11.5-11L48.5 432 235 245l-24-24-11-11 11-11.5 27.5-29v-56H296L323 85zm.5 46L314 140.5l-4.5 5h-39v37L266 187l-21.5 22.5L258 223l61-61.5 11.5-11 11 11 41 41L394 214l-11.5 11.5-61 61 13 13L357 278l4.5-4.5h37v-39l5-4.5 21.5-20.5-22-22-4.5-5v-37h-37l-5-4.5zm-4 76.5l-248 248L101 462l247.5-248zM304 368h32v16h16v32h-16v16h-32v-16h-16v-32h16v-16zm96 32h32v32h32v32h-32v32h-32v-32h-32v-32h32v-32z"/></svg>