<svg version="1.1" xmlns="http://www.w3.org/2000/svg" xmlns:xlink="http://www.w3.org/1999/xlink" id="male" viewBox="0 0 512 545.5"><path d="M272 96h10l4.5 9 12.5 25c20.432 2.247 41.07 9.575 56.5 27.5 18.205 21.148 28.5 53.315 28.5 98.5v14.5c9.136 8.74 16 19.96 16 33.5 0 20.155-14.25 34.472-32 41.5-5.91 18.683-12.87 38.282-20 55-7.785 18.256-14.312 32.753-24 43-45.916 48.58-122.084 48.58-168 0-9.688-10.247-16.715-24.744-24.5-43-7.128-16.714-13.592-36.32-19.5-55-17.743-7.028-32-21.345-32-41.5 0-13.62 6.842-24.788 16-33.5V256c0-48.68 13.138-89.788 43-118s74.348-42 133-42zm-9.5 33c-47.57 1.595-80.996 12.63-101.5 32-22.05 20.832-33 51.855-33 95v29.5l-8 4.5c-4.91 2.836-8 8.018-8 14 0 8.537 6.137 15.316 14.5 16l11 .5 3 10.5c5.918 19.25 13.29 39.592 20.5 56.5s15.465 31.318 18 34c34.052 36.027 87.948 36.027 122 0 2.535-2.682 10.79-17.092 18-34s14.582-37.25 20.5-56.5l3-10.5 11-.5c8.387-.685 14.5-7.463 14.5-16 0-6.084-3.138-11.19-8-14l-8-4.5V256c0-40.287-9.393-64.016-21-77.5-5.64-6.552-12.053-11.05-19-14 .385 2.377.934 4.65 1 7 .305 10.724-4.47 21.662-12 28-15.058 12.675-32.806 11.627-50 12.5s-34.786 2.05-45 6-13.874 6.226-14 22h-32c.21-25.96 16.236-44.935 34.5-52s37.846-6.654 54.5-7.5 30.112-4.332 31.5-5.5c.694-.584.593.746.5-2.5s-2.16-10.835-7.5-21.5zM192 288c8.837 0 16 7.163 16 16s-7.163 16-16 16-16-7.163-16-16 7.163-16 16-16zm96 0c8.837 0 16 7.163 16 16s-7.163 16-16 16-16-7.163-16-16 7.163-16 16-16z"/></svg>