<svg version="1.1" xmlns="http://www.w3.org/2000/svg" xmlns:xlink="http://www.w3.org/1999/xlink" id="mars-double" viewBox="0 0 512 545.5"><path d="M224 80h144v96h96v144h-32v-89l-86.5 86.5c14.288 19.19 22.5 42.14 22.5 66.5 0 29.92-11.848 57.848-33 79s-49.096 33-79 33c-29.92 0-57.848-11.848-79-33-13.52-13.52-23.3-29.644-28.5-47.5 3.792.336 7.644.5 11.5.5 7.424 0 14.832-.768 22-2 3.968 9.808 9.788 18.788 17.5 26.5 15.104 15.104 35.14 23.5 56.5 23.5s41.397-8.38 56.5-23.5S336 405.36 336 384s-8.396-41.397-23.5-56.5S277.36 304 256 304s-41.397 8.396-56.5 23.5c-5.536 5.52-9.868 11.828-13.5 18.5-11.568 4.928-24.6 6.5-37 4.5 5.344-17.008 15.024-32.524 28-45.5 21.152-21.152 49.08-33 79-33 24.36 0 47.317 8.216 66.5 22.5L409 208h-73v-73l-86.5 86.5c7.96 10.7 14.306 22.314 18 35-3.792-.336-7.644-.5-11.5-.5-7.424 0-14.832.768-22 2-3.968-9.808-9.788-18.788-17.5-26.5-15.104-15.104-35.14-23.5-56.5-23.5s-41.397 8.38-56.5 23.5S80 266.64 80 288s8.396 41.397 23.5 56.5S138.64 368 160 368s41.397-8.396 56.5-23.5c5.536-5.52 9.868-11.828 13.5-18.5 11.568-4.928 24.6-6.516 37-4.5-5.344 17.008-15.024 32.524-28 45.5-21.152 21.152-49.08 33-79 33s-57.848-11.832-79-33-33-49.08-33-79 11.848-57.848 33-79 49.08-33 79-33c24.347 0 47.315 8.216 66.5 22.5L313 112h-89V80z"/></svg>