<svg version="1.1" xmlns="http://www.w3.org/2000/svg" xmlns:xlink="http://www.w3.org/1999/xlink" id="meanpath" viewBox="0 0 512 545.5"><path d="M48 208h48c12.27 0 23.474 4.803 32 12.5 8.526-7.697 19.73-12.5 32-12.5h48c26.32 0 48 21.68 48 48v112h-32V256c0-9.04-6.96-16-16-16h-48c-9.04 0-16 6.96-16 16v112h-32V256c0-9.04-6.96-16-16-16H48c-9.04 0-16 6.96-16 16v112H0V256c0-26.32 21.68-48 48-48zm288 0h96c26.32 0 48 21.68 48 48v64c0 26.32-21.68 48-48 48h-96c-5.647 0-10.948-1.172-16-3v67h-32V256c0-26.32 21.68-48 48-48zm0 32c-9.04 0-16 6.96-16 16v64c0 9.04 6.96 16 16 16h96c9.04 0 16-6.96 16-16v-64c0-9.04-6.96-16-16-16h-96z"/></svg>