<svg version="1.1" xmlns="http://www.w3.org/2000/svg" xmlns:xlink="http://www.w3.org/1999/xlink" id="mercury" viewBox="0 0 512 545.5"><path d="M176 64h32c0 26.695 21.305 48 48 48s48-21.305 48-48h32c0 23.62-10.578 44.82-27 59.5 44.102 20.245 75 64.938 75 116.5 0 65.038-49.068 119.023-112 127v49h64v32h-64v64h-32v-64h-64v-32h64v-49c-62.932-7.977-112-61.962-112-127 0-51.563 30.898-96.255 75-116.5-16.422-14.68-27-35.88-27-59.5zm80 80c-53.21 0-96 42.79-96 96s42.79 96 96 96 96-42.79 96-96-42.79-96-96-96z"/></svg>