<svg version="1.1" xmlns="http://www.w3.org/2000/svg" xmlns:xlink="http://www.w3.org/1999/xlink" id="microphone-slash" viewBox="0 0 512 545.5"><path d="M59.5 68.5L176 185v-57c0-17.648 14.352-32 32-32h96c17.648 0 32 14.352 32 32v192c0 7.014-2.16 13.722-6 19l22.5 22.5c9.663-11.148 15.5-25.597 15.5-41.5v-64h32v64c0 24.697-9.623 46.977-25 64l100.5 100.5-23 23-416-416zM208 128v89l96 96V128h-96zm-96 128h32v64c0 35.296 28.704 64 64 64h77l31 31c-3.92.496-7.936 1-12 1h-32v32h64v32H176v-32h64v-32h-32c-52.944 0-96-43.056-96-96v-64zm64 19l32 32v13h13l32 32h-45c-17.648 0-32-14.352-32-32v-45z"/></svg>