<svg version="1.1" xmlns="http://www.w3.org/2000/svg" xmlns:xlink="http://www.w3.org/1999/xlink" id="moon-o" viewBox="0 0 512 545.5"><path d="M256 80c107.114 0 194.393 79.725 206.5 183.5l1 12.5-11 4.5c-.486.194-4.5 5.01-4.5 7.5s4.014 7.306 4.5 7.5l11 4.5-1 12.5C450.393 416.275 363.114 496 256 496c-12.724 0-23.51-1.93-34.5-3.5l-12-1.5-1.5-12.5c-.738-7.383-8.533-14.5-16-14.5-4.267 0-7.985 1.985-12.5 6.5L171 479l-10.5-5.5C92.77 438.766 48 367.63 48 288c0-46.756 15.657-88.542 41.5-123l8-11 12 6c-.616-.31-.7 0 2.5 0 8.873 0 16-7.127 16-16 0-3.2-.31-3.116 0-2.5l-6-12 11-8C167.458 95.657 209.244 80 256 80zm-13.5 32.5c-30.825 2.568-58.083 13.933-82.5 30.5v1c0 26.327-21.673 48-48 48h-1c-18.934 27.905-31 59.616-31 96 0 64.38 35.36 121.39 88 152 6.922-4.32 14.57-8 24-8 19.117 0 33.293 12.868 41 29.5 3.703.526 7.02 1.04 10.5 1.5 6.348-4.294 18.92-13.796 33.5-31.5l5-6h12.5c3.58 0 3 .58 3-3 0-1.244.1-.8-1.5-4l-4-8 4.5-7.5c16.05-26.264 30-65.11 30-115 0-3.733-1.5-11.934-1.5-21v-9.5l8.5-4.5c1.63-.815 2.5-1.9 2.5-3.5 0-2.49-.294-3.132-2.5-3.5l-9.5-1.5-3-9c-1.938-5.811-3.737-12.212-5-16l-3-9.5 7-7c5.457-5.457 6.5-6.733 6.5-11 0-7.467-5.533-13-13-13h-12l-4.5-7.5c-21.993-35.433-46.098-53.413-54.5-59zM293 116c8.63 9.306 17.758 20.442 26.5 33.5 21.344 3.35 39 20.293 39 42.5 0 10.667-4.833 18.62-10 25.5.364 1.273 1.17 2.367 1.5 3.5 10.168 6.435 18 16.304 18 28.5 0 9.51-4.654 17.262-10.5 23.5.467 4.222 1 8.526 1 15 0 52.472-13.932 94.05-31.5 125 1.058 3.19 2.5 5.217 2.5 9.5 0 17.475-14.415 31.393-31.5 33.5-1.194 1.358-2.314 2.216-3.5 3.5 69.978-15.487 122.604-72.147 134-144-7.247-7.325-12.5-16.36-12.5-27.5s5.253-20.175 12.5-27.5C417.02 188.107 363.766 130.974 293 116zm-73.5 49.5c2.967.014 5.994.398 9 1l-6 31.5c-7.954-1.59-16.006 3.186-18.5 11.5-1.988 6.627 3.405 14.422 12 17l-9.5 30.5c-23.405-7.021-40.612-31.627-33-57 6.218-20.726 25.23-34.6 46-34.5zm-80 119L152 314c-3.763 1.612-4.712 5.576-5 5l.5.5v.5c1.612 3.763 5.59 5.533 8 4.5L168 354c-19.51 8.36-40.563-2.67-49-20.5-.104-.22-.4-.277-.5-.5-.05-.11.1-.43 0-.5-8.979-19.482 2.684-40.15 21-48zm71.5 53l19.5 25.5c-6.144 4.608-8.456 14.892-5 19.5 4.608 6.144 14.892 7.956 19.5 4.5l19 26c-20.992 15.744-49.408 7.956-64-11.5-15.744-20.992-8.456-49.408 11-64z"/></svg>