<svg version="1.1" xmlns="http://www.w3.org/2000/svg" xmlns:xlink="http://www.w3.org/1999/xlink" id="mortar-board" viewBox="0 0 512 545.5"><path d="M256 140.5l5 1.5 200 67 45.5 15-45.5 15-45 15v82c0 13.112-7.988 24.003-17.5 31.5S377.187 380.27 363 385c-28.375 9.458-65.79 15-107 15s-78.625-5.542-107-15c-14.188-4.73-25.988-10.003-35.5-17.5S96 349.112 96 336v-82l-32-10.5v129c9.55 5.537 16 15.666 16 27.5 0 17.673-14.327 32-32 32s-32-14.327-32-32c0-11.834 6.45-21.963 16-27.5v-140L5.5 224 51 209l200-67zm0 33.5l-150 50 150 50 150-50zm-128 91v71c0 .144-.06 2.012 5 6s14.13 9.043 26 13c23.74 7.914 58.673 13 97 13s73.26-5.086 97-13c11.87-3.957 20.94-9.012 26-13s5-5.856 5-6v-71l-123 41-5 1.5-5-1.5z"/></svg>