<svg version="1.1" xmlns="http://www.w3.org/2000/svg" xmlns:xlink="http://www.w3.org/1999/xlink" id="motorcycle" viewBox="0 0 512 545.5"><path d="M360 128h40v48h-26l29.5 97c4.128-.556 8.226-1 12.5-1 52.944 0 96 43.056 96 96s-43.056 96-96 96-96-43.056-96-96c0-31.776 15.644-60.028 39.5-77.5l10 33.5c-10.912 11.472-17.5 26.944-17.5 44 0 35.296 28.704 64 64 64s64-28.704 64-64-28.704-64-64-64c-.884 0-1.628.455-2.5.5l18 59-31 9-34-111c-3.266 4.917-6.832 10.028-11 15.5-15.215 19.975-36.88 41.248-63.5 53.5L274.5 366h.5c-5.375 10.91-16.856 18-29 18h-55.5c-7.58 45.42-46.958 80-94.5 80-52.944 0-96-43.056-96-96s43.056-96 96-96c9.714 0 19.165 1.803 28 4.5l14-29c-8.896-3.53-21.052-7.5-34-7.5-26.1 0-49 10.5-49 10.5l-14-29S69.458 208 104 208c31.22 0 53.3 12.345 59.5 16h54c7.743-9.475 28.742-32 70.5-32h57l-5-16h-68v-32h65.5c3.263-9.38 12.012-16 22.5-16zm-72 96c-34.996 0-50.5 25-50.5 25l-5 7H170l-17.5 34.5c15.457 11.32 27.472 27.11 34 45.5H151c-11.104-19.04-31.416-32-55-32-35.296 0-64 28.704-64 64s28.704 64 64 64c29.77 0 54.375-20.43 61.5-48H96v-32h150l19.5-39 2.5-6 6.5-2c19.916-7.253 40.624-27.972 55.5-47.5 12.527-16.446 19.645-29.18 22-33.5h-64z"/></svg>