<svg version="1.1" xmlns="http://www.w3.org/2000/svg" xmlns:xlink="http://www.w3.org/1999/xlink" id="music" viewBox="0 0 512 545.5"><path d="M432 92.5V368c0 35.156-28.844 64-64 64s-64-28.844-64-64 28.844-64 64-64c11.72 0 22.52 3.425 32 9V195l-224 42v179c0 35.156-28.844 64-64 64s-64-28.844-64-64 28.844-64 64-64c11.72 0 22.52 3.425 32 9V146.5l13-2 256-48zM400 131l-224 42v32l224-42v-32zm-32 205c-17.862 0-32 14.138-32 32s14.138 32 32 32 32-14.138 32-32-14.138-32-32-32zm-256 48c-17.862 0-32 14.138-32 32s14.138 32 32 32 32-14.138 32-32-14.138-32-32-32z"/></svg>