<svg version="1.1" xmlns="http://www.w3.org/2000/svg" xmlns:xlink="http://www.w3.org/1999/xlink" id="newspaper-o" viewBox="0 0 512 545.5"><path d="M48 112h320v112h96v176c0 35.356-28.644 64-64 64H112c-35.356 0-64-28.644-64-64V112zm32 32v256c0 19.043 12.957 32 32 32h233c-5.463-9.426-9-20.317-9-32V144H80zm32 32h192v80H112v-80zm32 32v16h128v-16H144zm224 48v144c0 19.043 12.957 32 32 32s32-12.957 32-32V256h-64zm-256 16h80v32h-80v-32zm112 0h80v32h-80v-32zm-112 48h80v32h-80v-32zm112 0h80v32h-80v-32zm-112 48h80v32h-80v-32zm112 0h80v32h-80v-32z"/></svg>