<svg version="1.1" xmlns="http://www.w3.org/2000/svg" xmlns:xlink="http://www.w3.org/1999/xlink" id="odnoklassniki" viewBox="0 0 512 545.5"><path d="M240.002 165.24c-20.724 0-37.614 16.87-37.614 37.613 0 20.725 16.89 37.6 37.614 37.6 20.744 0 37.614-16.875 37.614-37.6 0-20.743-16.87-37.613-37.614-37.613zm0 128.432c-50.098 0-90.844-40.736-90.844-90.818 0-50.104 40.746-90.854 90.844-90.854 50.11 0 90.844 40.75 90.844 90.854 0 50.084-40.734 90.818-90.844 90.818zm36.754 74.11s50.79 50.788 50.788 50.788c10.404 10.382 10.404 27.242 0 37.634-10.392 10.393-27.24 10.393-37.624 0l-49.93-49.908-49.886 49.908c-5.202 5.194-12.018 7.794-18.834 7.794-6.804 0-13.61-2.602-18.812-7.794-10.393-10.393-10.393-27.24-.01-37.634l50.79-50.788c-18.494-4.214-36.33-11.542-52.752-21.85-12.434-7.835-16.17-24.258-8.336-36.7 7.816-12.458 24.238-16.206 36.692-8.372 37.19 23.396 85.102 23.405 122.312 0 12.452-7.834 28.876-4.088 36.7 8.372 7.834 12.432 4.086 28.865-8.345 36.7-16.425 10.32-34.26 17.636-52.755 21.85z"/></svg>