<svg version="1.1" xmlns="http://www.w3.org/2000/svg" xmlns:xlink="http://www.w3.org/1999/xlink" id="opencart" viewBox="0 0 512 545.5"><path d="M0 116c53.008 49.648 114.668 71 227.5 71S480 180.388 480 216.5c0 17.744-18.836 35.516-52.5 65.5s-94 81-94 81c0-15.296 87-90.128 87-114 0-31.824-130.64-26.768-190-28C129.844 218.936 46.96 205.056 0 116zm126 276.5c18.707 0 33.5 14.793 33.5 33.5s-14.793 34-33.5 34-34-15.293-34-34 15.293-33.5 34-33.5zm156 0c18.707 0 34 14.793 34 33.5s-15.293 34-34 34-33.5-15.293-33.5-34 14.793-33.5 33.5-33.5z"/></svg>