<svg version="1.1" xmlns="http://www.w3.org/2000/svg" xmlns:xlink="http://www.w3.org/1999/xlink" id="opera" viewBox="0 0 512 545.5"><path d="M255.5 96C355.39 96 432 174.12 432 286.5 432 387.083 360.416 480 255.5 480 151.39 480 80 387.043 80 286.5 79.983 175.11 154.755 96 255.5 96zm0 32c-84.694 0-143.515 60.707-143.5 158.5 0 85.697 58.457 161.5 143.5 161.5 86.028 0 144.5-75.843 144.5-161.5 0-98.468-60.613-158.5-144.5-158.5zm0 5c16.454 0 31.247 5.93 42 16s17.52 23.57 22.5 38c9.963 28.86 12.5 63.463 12.5 96.5 0 28.472-1.338 64.133-10.5 95-4.58 15.434-11.09 30.15-22 41.5s-26.55 19-44.5 19c-17.834.005-33.773-7.575-44.5-19s-17.047-26.056-21.5-41.5c-8.907-30.89-10.016-66.818-10-95 0-30.77 1.958-65.717 11.5-95 4.77-14.642 11.44-28.004 22-38.5s25.82-17 42.5-17zm0 32c-8.88 0-14.072 2.604-19.5 8s-10.737 13.95-14.5 25.5c-7.526 23.098-10 55.754-10 85-.016 27.29 1.335 61.152 8.5 86 3.582 12.424 8.86 22.493 14.5 28.5s11.267 9.003 21 9c10.017 0 15.732-2.998 21.5-9s10.83-16.132 14.5-28.5c7.342-24.736 9-58.488 9-86 0-31.41-2.763-64.088-10.5-86.5-3.868-11.206-9.024-19.372-14.5-24.5s-10.878-7.5-20-7.5z"/></svg>