<svg version="1.1" xmlns="http://www.w3.org/2000/svg" xmlns:xlink="http://www.w3.org/1999/xlink" id="optin-monster" viewBox="0 0 512 545.5"><path d="M269.5 84c51.456 0 52.5 47 52.5 47s-22.444-29-59.5-29c-21.6 0-38.5 10.5-38.5 10.5S235.836 84 269.5 84zM238 120.5c89.076 0 129.004 43.308 147 84 3.504.405 8.518.864 12.5.5 11.216-1.008 15.684-.848 16.5-12 .816-11.136 3.164-17 13.5-17s24.516 22.168 24.5 45c0 26.296-5.59 49.453-52.5 50.5v2.5s-13.644.54-19.5 9.5c-2.76.952-4.963 2.124-7 3.5 6.214.556 11.282 1.242 14 1.5 4.163-5.738 10.315-6.5 16-6.5.416-2.768 4.172-8.5 9.5-8.5 9.152 0 13.5 13 13.5 13s20 6.012 20 27.5c0 24.784-22.212 37-36.5 37v16.5c3.897-3.42 7.716-5 11-5 3.392 0 6.864.004 10 .5 1.584-1.68 4.48-4.5 8-4.5 4.432 0 5.372 5.316 5.5 8.5 4.656 1.952 9.208 4.184 13 7 1.568-.816 3.4-1.5 5-1.5 2.72 0 3 2.836 3 4.5 0 .832.224 2.352 0 4 3.328 3.504 5.808 7.224 8 11 1.232-.432 3.3-1 4.5-1 1.968 0 2.5.64 2.5 2 0 .992-1.14 5.88-2.5 9 1.056 3.328 1.5 6.088 1.5 9 0 18.432-29.24 49-59 49-3.426 0-23.13-3.352-31-19-2.624.084-93.49 3-135 3-41.695 0-129.738-2.448-131.5-2.5C114.47 456.727 95.39 460 92 460c-29.76 0-59-30.568-59-49 0-2.912.444-6.172 1.5-9.5-1.344-3.103-2.484-7.492-2.5-8.5 0-1.36.532-2 2.5-2 1.184 0 3.268.568 4.5 1 2.192-3.776 4.672-7.496 8-11-.224-1.632 0-3.168 0-4 0-1.664.28-4.5 3-4.5 1.6 0 3.432.684 5 1.5 3.792-2.816 8.344-5.048 13-7 .128-3.184 1.084-8.5 5.5-8.5 3.52 0 6.416 2.82 8 4.5 3.136-.496 6.608-1 10-1 3.288 0 7.102 2.08 11 5.5V351C88.212 351 66 338.784 66 314c0-21.488 20-27.5 20-27.5s4.348-13 13.5-13c5.328 0 9.084 5.732 9.5 8.5 5.487 0 11.344.803 15.5 6l13-1.5c-1.864-1.317-3.584-2.416-5.5-3-4.16-9.04-19.5-10-19.5-10s-.047-1.52 0-2c-45.554-1.496-51.5-23.98-51.5-50 0-22.848 14.664-45.5 25-45.5s12.2 6.348 13 17.5c.816 11.136 5.284 10.476 16.5 11.5.85.078 2.013-.005 3 0 5.53-5.396 12.22-10.984 21-16-9.312-1.024-35 3.5-35 3.5S137.688 150.664 207 141c-18.624-8.288-44.5-12.5-44.5-12.5s25.836-8 75.5-8zm19 16c-32.88 0-60 26.62-60 59.5s27.12 59.5 60 59.5 59.5-26.62 59.5-59.5-26.62-59.5-59.5-59.5zm1 41c22.304 0 40.516 16.376 40.5 37 0 20.64-18.196 37.5-40.5 37.5s-40.5-16.876-40.5-37.5c0-3.072.248-5.636 1-8.5 3.296 5.488 9.8 9 17 9 10.624 0 19-8.048 19-18 0-7.632-4.848-14.376-12-17 4.768-1.824 10.028-2.5 15.5-2.5zM87.5 187c-3.728 0-18.5 6.96-18.5 44 2.56-5.264 6.16-19.652 24-28.5 0 0-1.324-3.632-1.5-6s-.256-9.5-4-9.5zm338 .5c-3.744 0-3.824 6.616-4 9-.176 2.368-1.5 6-1.5 6 17.84 8.832 21.94 23.22 24.5 28.5 0-37.024-15.256-43.5-19-43.5zM96.5 208c-14.944 5.264-22.316 20.66-23.5 38.5 4.928 11.904 25 15 25 15s-1.5-.184-1.5-17 10.5-32 10.5-32c-6.96-.496-8.628-2.964-10.5-4.5zm320.5 0c-1.856 1.52-4.04 3.988-11 4.5 0 0 10.5 15.184 10.5 32s-1.5 17-1.5 17 20.088-3.096 25-15c-1.184-17.824-8.056-33.236-23-38.5zm-28.5 5.5c7.713 20.68 9.81 39.02 10.5 50l10-.5s1.5-6.228 1.5-20.5-12-29-12-29h-10zM126 215c-4.883 1.347-10.35 3-15.5 5-3.598 5.51-8 13.442-8 22.5 0 14.273 1.984 20.5 2 20.5l9 .5c1.46-9.996 4.63-25.53 10.5-39.5l.5-1zm158 56c-7.376 0-24 .5-24 .5s1.008 18.104 2 27c.896 8.08 16.096 8 22 8s4.636-1 13.5-1c7.44 0 7.584-3.252 8-6.5.32-2.528.5-7.02.5-11.5 0-8.112-1-16-1-16s-13.624-.5-21-.5zm-35 .5c-3.584.512-44.5.5-44.5.5s-1.5 3.96-1.5 23 .008 20.5 25 20.5c24.144 0 21.632-2.704 22-8 .69-9.872.5.388.5-11.5s-1.5-24.5-1.5-24.5zm67 0s2.12 9.916 3 19.5c.736 8.016.9 27 6.5 27 16.224 0 21.5-36.28 21.5-45-2.368-.448-31-1.5-31-1.5zm-122 .5l-29 1.5s-1 6.072-1 11c0 26.848 19.092 33 22.5 33 3.056 0 4-4.152 4-5s1.164-9.244 1.5-13.5 2-27 2-27zm-37.5 23.5l-19.5 2c.415.913 1 1.69 1 2.5 0 4.08-6.5 7-6.5 7s3.376 2.558 5 6c9.435 9.35 24.428 23.44 42.5 38 25.76 20.736 69.904 38.603 74 39.5 42.608-12.096 71.948-33.816 87.5-47 12.183-10.337 27.37-24.63 36.5-33 1.568-1.98 3.5-3.5 3.5-3.5s-6.5-2.92-6.5-7c0-.81.585-1.587 1-2.5-3.215-.374-6.912-.76-11-1h-2c-4.26-.23-6.474-.442-8-.5 0 0-8.688 31.5-28 31.5-8.96 0-12-19.5-12-19.5s-1.813 7.5-32.5 7.5c-15.52 0-21-3.5-21-3.5-.624 3.568-.172 12-35.5 12-9.36 0-23.216-.6-28-9-.624 4.144-1.836 11.5-9.5 11.5-7.328 0-26.216-9.4-31-31zm222 28.5c-10.68 10.126-25.815 24.352-41.5 36-12.906 9.587-26.306 17.76-39.5 24.5 11.252 3.684 63.633 21.23 88.5 38.5.785-15.49 5.46-30.008 12-41v-33.5c-3.96-2.13-5.5-5-5.5-5s-12-2.048-12-8c0-4.464 4.5-6 4.5-6l-.5-2.5s-3.15-.867-6-3zm-245.5.5c-2.71 1.807-5.5 2.5-5.5 2.5l-.5 2.5s4.5 1.536 4.5 6c0 5.952-12 8-12 8s-1.54 2.87-5.5 5V382c6.467 10.874 11.13 25.196 12 40.5 4.115-2.448 43.102-25.225 85-38.5-15.034-8.112-29.904-17.273-38-24-12.736-10.577-33.122-29.132-40-35.5zM91 383c-20.992 0-47 21.564-47 41.5 0 8.32 28.568 30.5 47 30.5 12.384 0 30.5-9.68 30.5-26 0-8.464-10.708-46-30.5-46zm330 0c-19.792 0-30.5 37.536-30.5 46 0 16.32 18.116 26 30.5 26 18.432 0 47-22.18 47-30.5 0-19.936-26.008-41.5-47-41.5zm-329.5 6.5c11.168 0 14.5 14.028 14.5 17.5 0 15.712-28.644 29.016-36.5 29-2.256 0-18-.92-18-13 0-13.888 28.832-33.5 40-33.5zm195.5 0c-12.264 5.662-23.804 10.193-33.5 13-6.123-1.05-17.227-6.26-29-12-2.52.887-59.004 20.564-88 40 0 0 67.628 3 119.5 3s120.5-2.5 120.5-2.5-28.52-17.1-43-23.5c-13.032-5.76-40.53-15.815-46.5-18zm133.5 0c11.168 0 40 19.612 40 33.5 0 12.08-15.744 13-18 13-7.856.016-36.5-13.288-36.5-29 0-3.472 3.332-17.5 14.5-17.5zM109 422c5.888 0 6.5 10.5 6.5 10.5 0 10.864-15.78 17-18.5 17s-12-.912-12-8 18.112-19.5 24-19.5zm294 0c5.888 0 24 12.412 24 19.5s-9.28 8-12 8-18.5-6.136-18.5-17c0 0 .612-10.5 6.5-10.5z"/></svg>