<svg version="1.1" xmlns="http://www.w3.org/2000/svg" xmlns:xlink="http://www.w3.org/1999/xlink" id="pagelines" viewBox="0 0 512 545.5"><path d="M241.5 96s61.5 19.88 61.5 71c0 23.55-7.816 41.514-13.5 52 .93 20.555.293 41.76-2.5 63 3.693-12.454 13.096-39.608 31-56 28.384-25.968 80.5-18.5 80.5-18.5s4.992 28.996-26 60.5c-30.186 30.684-83.694 21.03-86.5 20.5-3.964 26.39-11.18 52.395-21.5 76.5 12.91-17.148 40.978-47 78.5-47 39.632 0 65.5 21.5 65.5 21.5s-23.176 58.5-75 58.5c-46.87 0-70.602-16.662-75-20-1.657 3.346-3.202 6.755-5 10-29.338 52.968-78.852 92-150 92v-16c65.412 0 108.683-34.18 136-83.5.54-.974.974-2.015 1.5-3-9.54 4.327-26.05 10-51 10-61.456-.016-80.5-68.5-80.5-68.5s29.704-19.584 61-16c53.34 6.096 71.736 42.33 77.5 60 10.65-23.807 17.995-50.244 22-77-8.692 2.116-25.625 5.055-51 .5-39.632-7.104-63.928-35.912-69-73 0 0 37.756-13.72 67.5-3 30.606 11.027 47.126 42.485 54.5 60.5 1.642-15.68 1.977-31.258 1.5-46.5-14.61-8.438-41.062-28.31-45.5-60-5.84-41.904 13.5-68.5 13.5-68.5z"/></svg>