<svg version="1.1" xmlns="http://www.w3.org/2000/svg" xmlns:xlink="http://www.w3.org/1999/xlink" id="paperclip" viewBox="0 0 512 545.5"><path d="M336 96c22.236 0 44.627 8.627 61.5 25.5 33.746 33.746 33.746 88.754 0 122.5l-150 150c-19.939 19.915-52.574 19.926-72.5 0-19.915-19.939-19.926-52.574 0-72.5L312.5 184l22.5 22.5L197.5 344c-7.69 7.69-7.7 19.79 0 27.5 7.69 7.69 19.79 7.7 27.5 0l150-150c21.518-21.518 21.518-55.982 0-77.5s-55.982-21.518-77.5 0l-150 150c-35.324 35.324-35.328 92.158 0 127.5 35.324 35.324 92.158 35.328 127.5 0l100-100 22.5 22.5-100 100c-47.57 47.552-124.944 47.556-172.5 0-47.552-47.57-47.556-124.944 0-172.5l150-150c16.873-16.873 38.764-25.5 61-25.5z"/></svg>