<svg version="1.1" xmlns="http://www.w3.org/2000/svg" xmlns:xlink="http://www.w3.org/1999/xlink" id="paw" viewBox="0 0 512 545.5"><path d="M200 112c17.1 0 32.024 9.733 41.5 23s14.5 30.448 14.5 49-5.024 35.733-14.5 49-24.4 23-41.5 23-32.024-9.733-41.5-23-14.5-30.448-14.5-49 5.024-35.733 14.5-49 24.4-23 41.5-23zm56 72c0-18.552 5.024-35.733 14.5-49s24.4-23 41.5-23 32.024 9.733 41.5 23 14.5 30.448 14.5 49-5.024 35.733-14.5 49-24.4 23-41.5 23-32.024-9.733-41.5-23-14.5-30.448-14.5-49zm-56-40c-4.993 0-10.5 2.498-15.5 9.5S176 171.624 176 184s3.5 23.498 8.5 30.5 10.507 9.5 15.5 9.5 10.5-2.498 15.5-9.5 8.5-18.124 8.5-30.5-3.5-23.498-8.5-30.5-10.507-9.5-15.5-9.5zm112 0c-4.993 0-10.5 2.498-15.5 9.5S288 171.624 288 184s3.5 23.498 8.5 30.5 10.507 9.5 15.5 9.5 10.5-2.498 15.5-9.5 8.5-18.124 8.5-30.5-3.5-23.498-8.5-30.5-10.507-9.5-15.5-9.5zm-192 80c17.1 0 32.024 9.733 41.5 23s14.5 30.448 14.5 49-5.024 35.733-14.5 49-24.4 23-41.5 23-32.024-9.733-41.5-23S64 314.552 64 296s5.024-35.733 14.5-49 24.4-23 41.5-23zm272 0c17.1 0 32.024 9.733 41.5 23s14.5 30.448 14.5 49-5.024 35.733-14.5 49-24.4 23-41.5 23-32.024-9.733-41.5-23-14.5-30.448-14.5-49 5.024-35.733 14.5-49 24.4-23 41.5-23zm-272 32c-4.993 0-10.5 2.498-15.5 9.5S96 283.624 96 296s3.5 23.498 8.5 30.5 10.507 9.5 15.5 9.5 10.5-2.498 15.5-9.5 8.5-18.124 8.5-30.5-3.5-23.498-8.5-30.5-10.507-9.5-15.5-9.5zm272 0c-4.993 0-10.5 2.498-15.5 9.5S368 283.624 368 296s3.5 23.498 8.5 30.5 10.507 9.5 15.5 9.5 10.5-2.498 15.5-9.5 8.5-18.124 8.5-30.5-3.5-23.498-8.5-30.5-10.507-9.5-15.5-9.5zm-136 32c21.424 0 36.635 13.78 44 26s11.676 22.676 15.5 26.5c2.276 2.276 18.01 8.996 34 17.5 7.994 4.252 16.186 9.31 23 17.5S384 395.3 384 408c0 30.74-25.26 56-56 56-13.865 0-28.314-4.463-42.5-8.5S255.992 448 256 448s-15.315 3.463-29.5 7.5-28.635 8.5-42.5 8.5c-30.74 0-56-25.26-56-56 0-13.015 4.66-24.615 11.5-33s14.954-13.898 23-18c16.09-8.204 31.526-14.026 34-16.5 4.229-4.229 8.71-14.348 16-26.5s22.167-26 43.5-26zm0 32c-10.667 0-11.79 2.152-16.5 10s-8.229 21.729-20 33.5c-13.526 13.526-30.09 15.928-42 22-5.954 3.036-10.84 6.238-13.5 9.5-2.66 3.262-4 6.566-4 13 0 13.453 10.547 24 24 24 4.646 0 19.577-3.537 33.5-7.5s25.436-8.5 38.5-8.5c13.065 0 24.577 4.537 38.5 8.5s28.854 7.5 33.5 7.5c13.453 0 24-10.547 24-24 0-5.644-1.228-8.667-4-12s-7.427-6.77-13.5-10c-12.146-6.46-28.82-9.32-42-22.5-11.632-11.632-15.229-25.084-20-33S266.576 320 256 320z"/></svg>