<svg version="1.1" xmlns="http://www.w3.org/2000/svg" xmlns:xlink="http://www.w3.org/1999/xlink" id="pencil" viewBox="0 0 512 545.5"><path d="M395 96.5c13.39 0 26.867 5.367 37 15.5 20.267 20.267 20.267 53.233 0 73.5l-.5 1-1 1 9.5 9.5-11 11-249.5 249.5-3.5 3.5-5 1-88 17.5-23.5 5 5-23.5L82 373l1-5 3.5-3.5L336 115l11-11 10 9.5 1.5-1.5c10.133-10.133 23.11-15.5 36.5-15.5zm0 31.5c-4.99 0-9.733 2.233-14 6.5l-1.5 1.5 28.5 28.5 1.5-1.5c8.533-8.533 8.533-19.967 0-28.5-4.267-4.267-9.51-6.5-14.5-6.5zm-47.5 21L324 172l48 48 23-23.5zM302 195L134.5 362l29 6.5 10 2 2 10 6.5 29L349 242zM111.5 389.5L105 422l17 17 32.5-6.5-8-35z"/></svg>