<svg version="1.1" xmlns="http://www.w3.org/2000/svg" xmlns:xlink="http://www.w3.org/1999/xlink" id="pencil-square" viewBox="0 0 512 545.5"><path d="M400 96.5c12.242 0 24.271 4.771 33.5 14 18.457 18.457 18.457 48.543 0 67L275.5 336l-3.5 3.5-5 1-56 11-23.5 5 5-23.5 11-56 1-5 3.5-3.5 158.5-158c9.229-9.229 21.258-14 33.5-14zm0 31c-3.758 0-7.43 1.93-11 5.5L234 288l-5.5 27.5L256 310l155-155c7.144-7.144 7.144-14.856 0-22-3.57-3.57-7.242-5.5-11-5.5zM64 160h211l-32 32H96v256h256V301l32-32v211H64V160z"/></svg>