<svg version="1.1" xmlns="http://www.w3.org/2000/svg" xmlns:xlink="http://www.w3.org/1999/xlink" id="pied-piper-alt" viewBox="0 0 512 545.5"><path d="M483 55c-19.376 103.488-123.876 136.432-166.5 140-.848 5.552 2.916 6.464 10.5 20-1.472 3.168-2.136 5.704-7 7-14.288-17.648-14.02-20.5-40.5-20.5-41.504 0-56.86 8.224-61.5 10 3.888-14.288 22.388-17.908 38.5-28.5 13.344-8.768 20.68-20.36 33-33 5.408 2.352 10.996 21.727 26.5 20v17.5C439.68 153.132 466.872 81.48 483 55zM272.5 208.5c39.12 0 35.256 5.664 51 46 3.68-1.824 7.404-3.484 11.5-5.5-5.024 35.024-29 7.012-29 30.5 98.848-.032 100.896 94.856 190 167-18.528 12.16-86.948 39.488-88.5 40-50.032-55.824-20.456-191.264-93-196-3.376-.224-6 1.5-6 1.5 20.336 17.952 33 20.632 33 67 0 18.8-8 48.5-8 48.5s-14.368 5.5-36 5.5-29.652-2.5-30.5-2.5c-.32-3.52-1.5-28.02-1.5-34.5 0 0 28.813-24.164 29.5-38.5 0 0-35.424 42-72 42-9.968 0-47.652-53.856-50.5-58-10.08-14.704-18.5-16.836-20.5-22.5-2.032.32-118.924 26.716-125.5 27.5-1.696.208-7.904.212-10-7.5-2.192-8.112 7.816-11.813 11-12.5 1.696-.368 111.964-24.636 115.5-25.5-6.416-11.616 5.008-14.34 16-16.5 7.536-1.488 13.044-11.424 22.5 8 0 0 30.928-6.652 34-7.5 11.808-3.296 16.948.528 18.5 6 1.568 5.472-3 10.14-7 11.5-3.376 1.152-32.428 6.96-45.5 10-3.024 11.216 21.648 36.236 44 55.5 23.552 0 48-40.992 48-50 0-27.968-36.5-12.332-36.5-29.5 0-4.592 1.828-7.784 2.5-9-5.632-1.584-11.076-2.98-16.5-4.5 16.176-19.6 7.644-35.008 9.5-42 .88-1.072 9.6-4.5 40-4.5zm-66 46c2.96-.065 8.88 6.076 12 7.5-7.856 1.68-15.288 3.352-23 5-.576-.96-4.136-7.528-5-9 1.872-.528 3.384-1.132 5-1.5 3.728-.832 7.096-1.92 11-2zm13 32c.832.832 23.48 38.476 27 43.5-5.856 3.84-11.935 7.532-18 11.5-2.4-6.096-19.86-50.8-20.5-52 3.857-.96 7.548-2.024 11.5-3zM333 415c2.304 1.632 2.148 6.076 2.5 7.5-9.2 3.072-47.548 10.604-53.5 11.5l-2-12c3.28-1.28 47.24-6.712 53-7zm-66 3h7c.848 6.688 1.668 13.392 2.5 20-1.936.736-7.916 2.196-9.5 2.5-.672-3.6-1.584-17.076 0-22.5zm71 12.5c1.904-.08 22.968 40.876 25 47.5-1.648.688-33.444 16.628-90.5 8.5-.032-4.176-6.14-35.412-5.5-38.5 1.92-1.952 28.936-15.708 71-17.5z"/></svg>