<svg version="1.1" xmlns="http://www.w3.org/2000/svg" xmlns:xlink="http://www.w3.org/1999/xlink" id="pied-piper" viewBox="0 0 512 545.5"><path d="M215.5 96c54.835 0 98.98 46.632 99 103 0 4.237-.515 8.383-1 12.5 53.883 1.143 97 47.345 97 103 0 56.357-44.165 103.5-99 103.5-4.99 0-9.2-2.247-14-3v50.5l-13 2.5-57.5 11.5-19 4v-182c-2.124-.622-4.258-1.648-6.5-2V350l-13 2.5L131 364l-19 4V105.5h66c11.76-5.17 23.968-9.5 37.5-9.5zm0 32c-10.825 0-20.945 2.62-30 7.5l-3.5 2h-38V329l25.5-5.5v-67l22 9c7.497 3.102 15.47 5 24 5 36.62 0 67-31.57 67-71.5-.014-39.952-30.38-71-67-71zM202 140.5c30.189 0 53 27.266 53 58s-22.82 58-53 58c-8.9 0-17.237-2.837-24.5-7l-8-4.5v-93l8-4.5c7.263-4.177 15.59-7 24.5-7zm-.5 32v52c.166.005.332 0 .5 0 10.588 0 21-10.526 21-26s-10.42-26-21-26c-.17 0-.333-.005-.5 0zm110 71c-2.33 0-4.766.19-7 .5-.03.061-.47-.061-.5 0-1.916 4.092-3.602 8.224-6 12 30.189 0 53 27.266 53 58s-22.82 58-53 58c-8.9 0-17.237-2.837-24.5-7l-8-4.5v-72c-7.8 4.79-16.523 8.586-25.5 11v145l25.5-5.5v-67l22 9c7.497 3.102 15.47 5 24 5 36.62 0 67-31.57 67-71.5s-30.38-71-67-71zm-14 44.5v52c.166.005.332 0 .5 0 10.588 0 21-10.526 21-26s-10.42-26-21-26c-.17 0-.333-.005-.5 0z"/></svg>