<svg version="1.1" xmlns="http://www.w3.org/2000/svg" xmlns:xlink="http://www.w3.org/1999/xlink" id="pinterest-p" viewBox="0 0 512 545.5"><path d="M256 96c106.032 0 192 85.968 192 192s-85.968 192-192 192c-19.792 0-38.88-3.008-56.848-8.544 7.84-12.752 19.536-33.664 23.872-50.336 2.336-8.992 11.968-45.648 11.968-45.648 6.256 11.936 24.544 22.048 44 22.048 57.904 0 99.632-53.247 99.632-119.424 0-63.44-51.76-110.896-118.368-110.896-82.864 0-126.864 55.63-126.864 116.19 0 28.16 14.992 63.217 38.977 74.385 3.63 1.696 5.583.96 6.415-2.56.64-2.672 3.872-15.712 5.328-21.775.464-1.937.24-3.6-1.328-5.505-7.937-9.632-14.288-27.327-14.288-43.824 0-42.35 32.063-83.327 86.687-83.327 47.168 0 80.192 32.144 80.192 78.113 0 51.935-26.223 87.92-60.35 87.92-18.85 0-32.96-15.584-28.434-34.705 5.424-22.815 15.905-47.44 15.905-63.918 0-14.737-7.905-27.04-24.29-27.04-19.262 0-34.735 19.92-34.735 46.624 0 16.99 5.744 28.496 5.744 28.496s-19.023 80.464-22.51 95.44c-3.873 16.575-2.354 39.887-.673 55.07C114.61 438.817 64 369.343 64 288c0-106.033 85.97-192 192-192z"/></svg>