<svg version="1.1" xmlns="http://www.w3.org/2000/svg" xmlns:xlink="http://www.w3.org/1999/xlink" id="puzzle-piece" viewBox="0 0 512 545.5"><path d="M272 80c35.356 0 64 28.644 64 64h96v112h-32c-19.043 0-32 12.957-32 32s12.957 32 32 32h32v112h-96c0 35.356-28.644 64-64 64s-64-28.644-64-64h-96v-80c-35.356 0-64-28.644-64-64s28.644-64 64-64v-80h96c0-35.356 28.644-64 64-64zm0 32c-19.043 0-32 12.957-32 32v32h-96v80h-32c-19.043 0-32 12.957-32 32s12.957 32 32 32h32v80h96v32c0 19.043 12.957 32 32 32s32-12.957 32-32v-32h96v-48c-35.356 0-64-28.644-64-64s28.644-64 64-64v-48h-96v-32c0-19.043-12.957-32-32-32z"/></svg>