<svg version="1.1" xmlns="http://www.w3.org/2000/svg" xmlns:xlink="http://www.w3.org/1999/xlink" id="qq" viewBox="0 0 512 545.5"><path d="M256 126.192c-97.36 0-112.672 80.224-114.016 101.44-6.544 7.615-4.816 17.056-4.816 17.056s-4.64 4.72-5.985 12.624c-1.2 7.04 1.057 12.752 1.057 12.752-13.52 13.07-44.8 34.303-44.8 77.903 0 21.04 6.304 24.784 6.304 24.784 14.975 0 25.6-23.12 25.6-23.12 15.343 42.898 33.456 47.905 33.456 47.905s-28.4 2.64-28.4 22.08c0 14.416 19.376 26.592 64 26.592s55.44-15.328 55.44-15.328l13.967.447s38.77 12.624 63.105 12.624 54.08-7.214 54.08-23.44c0-16.223-37.408-21.63-29.296-26.59 8.11-4.96 24.336-39.665 24.336-39.665s10.432 21.729 17.504 21.729 13.15-10.61 13.15-31.2c0-32.897-31.102-74.817-31.102-74.817s4.767-9.6 3.6-18.032c-1.824-13.072-9.472-21.632-9.472-21.632-5.408-17.12-10.352-104.11-107.712-104.11zm0-32c74.08 0 120.16 40.575 136.944 120.655.128.656.256 1.297.384 1.89 4.32 6.718 9.664 17.358 11.536 30.83.832 6 .512 11.793-.353 16.993 11.394 18.128 28.146 49.92 28.146 80.256 0 34.575-13.36 52.607-28.752 59.632 1.935 4.72 3.07 10.063 3.07 16.08 0 33.68-33.79 55.44-86.078 55.44-23.2 0-53.872-8.385-67.01-12.32-12.51 7.552-32.91 14.575-65.503 14.575-89.072 0-96-44.848-96-58.592 0-5.358.752-10.318 2.16-14.88H84.96l-7.552-4.478c-10.032-5.952-21.985-19.856-21.985-52.32 0-46.8 25.81-74.624 43.57-90.96.127-1.65.335-3.344.623-5.073 1.15-6.737 3.344-12.45 5.727-17.04.737-5.84 2.464-12.016 5.536-18C117.31 167.6 153.615 94.19 256 94.19z"/></svg>