<svg version="1.1" xmlns="http://www.w3.org/2000/svg" xmlns:xlink="http://www.w3.org/1999/xlink" id="qrcode" viewBox="0 0 512 545.5"><path d="M80 112h128v128h-64v32h-32v-32H80V112zm128 128h96V112h128v128h-32v32h-32v-32h-32v32h-64v32h32v32h-96v128H80V336h96v-32h64v-32h-32v-32zm192 32h32v32h-32v-32zm0 32v32h-32v-32h32zm0 32h32v32h-32v-32zm0 32v32h-16v32h-32v-32h-64v64h-32v-96h80v-32h32v32h32zm-48 64v32h-32v-32h32zm16-128h-32v-32h32v32zm-192 0h-32v-32h32v32zm-64-32v32H80v-32h32zm128-160h32v32h16v32h-16v48h-32v-16h-16v-32h16v-64zm-128 32v64h64v-64h-64zm224 0v64h64v-64h-64zm-208 16h32v32h-32v-32zm224 0h32v32h-32v-32zM112 368v64h64v-64h-64zm16 16h32v32h-32v-32zm272 48h32v32h-32v-32z"/></svg>