<svg version="1.1" xmlns="http://www.w3.org/2000/svg" xmlns:xlink="http://www.w3.org/1999/xlink" id="question-circle" viewBox="0 0 512 545.5"><path d="M256 96c105.85 0 192 86.15 192 192s-86.15 192-192 192S64 393.85 64 288 150.15 96 256 96zm0 32c-88.555 0-160 71.445-160 160s71.445 160 160 160 160-71.445 160-160-71.445-160-160-160zm0 64c35.157 0 64 28.843 64 64 0 25.93-16.884 49.31-41.5 57.5l-6.5 2V336h-32v-20.5c0-13.702 8.96-26.164 22-30.5l6.5-2c11.64-3.873 19.5-14.722 19.5-27 0-17.866-14.134-32-32-32s-32 14.134-32 32h-32c0-35.157 28.843-64 64-64zm-16 160h32v32h-32v-32z"/></svg>