<svg version="1.1" xmlns="http://www.w3.org/2000/svg" xmlns:xlink="http://www.w3.org/1999/xlink" id="question" viewBox="0 0 512 545.5"><path d="M256 96c69.38 0 128 49.418 128 112 0 45.063-24.385 72.242-45.5 90-10.558 8.88-20.484 16.268-26.5 22.5s-8 10.056-8 15.5v16h-96v-16c0-40.066 25.074-64.218 45.5-81.5 10.213-8.64 19.53-16.162 25.5-23.5s9-13.73 9-23c0-2.606-1.475-5.84-7-9.5s-14.566-6.5-25-6.5c-10.375 0-19.44 2.794-25 6.5s-7 7.142-7 9.5v48h-96v-48c0-63.11 58.733-112 128-112zm0 32c-54.445 0-96 37.063-96 80v16h32v-16c0-15.322 9.188-28.126 21-36s26.863-12 43-12c16.08 0 31.154 4.152 43 12s21 20.638 21 36c0 17.3-6.97 31.9-16 43s-19.713 19.72-29.5 28c-14.75 12.48-24.473 24.82-29.5 41h31c3.146-8.254 7.447-15.747 13-21.5 8.984-9.31 19.058-17.06 28.5-25 18.885-15.882 34.5-31.188 34.5-65.5 0-42.154-41.668-80-96-80zm-48 256h96v96h-96v-96zm32 32v32h32v-32h-32z"/></svg>