<svg version="1.1" xmlns="http://www.w3.org/2000/svg" xmlns:xlink="http://www.w3.org/1999/xlink" id="ra" viewBox="0 0 512 545.5"><path d="M256.016 96C372.033 96 448 192.672 448 287.568 448 393.664 361.872 480 256 480S64 393.664 64 287.568C64 192.67 140 96 256.016 96zM256 448c88.368 0 160-71.84 160-160.432 0-76.69-53.648-140.8-125.36-156.672 52.352 29.808 67.152 71.888 71.76 100.896 5.92 37.312-9.888 77.28-40.112 82.336-2.336.384-4.59.576-6.752.576-26.48 0-40.272-27.584-42.303-43.232-2.45-18.896 5.535-38.752 16.367-52.576 5.824-7.44 14.225-17.44 26.225-26.32l-18.097-19.792c-8.48 5.488-15.104 14.912-18.367 21.936 0 0-.24-7.104 1.25-12.608 1.966-7.264 4.623-12.736 6.03-15.216.85-1.488 1.616-2.672 2.336-3.696l-32.96-36.064-32.976 36.096c.72 1.024 1.49 2.208 2.32 3.68 1.408 2.48 4.064 7.952 6.032 15.216 1.488 5.504 1.232 12.608 1.232 12.608-3.263-7.024-9.872-16.448-18.336-21.936l-18.112 19.824c11.984 8.864 20.384 18.88 26.208 26.304 10.832 13.824 18.816 33.68 16.368 52.576-2.032 15.648-15.824 43.232-42.303 43.232-2.177 0-4.417-.192-6.753-.576-30.225-5.04-46.048-45.024-40.113-82.336 4.61-29.024 19.424-71.12 71.84-100.928C149.68 146.752 96 210.864 96 287.568 96 376.16 167.632 448 256 448zm-58.8-209.344c-3.632-4.608-7.904-9.76-13.248-14.688-1.152 4.144-2.064 8.432-2.768 12.864-3.712 23.376 5.696 44.4 13.79 45.76.545.095 1.04.144 1.474.144 4.608 0 9.92-10.288 10.576-15.345 1.072-8.318-2.864-19.854-9.824-28.734zm130.832-14.688c-5.345 4.896-9.616 10.048-13.232 14.688-6.96 8.864-10.896 20.416-9.825 28.72.657 5.056 5.97 15.36 10.577 15.36.432 0 .928-.048 1.472-.144 8.096-1.36 17.488-22.4 13.776-45.76-.705-4.43-1.632-8.72-2.768-12.864z"/></svg>