<svg version="1.1" xmlns="http://www.w3.org/2000/svg" xmlns:xlink="http://www.w3.org/1999/xlink" id="recycle" viewBox="0 0 512 545.5"><path d="M256 95.5c16.872 0 33.885 8.266 44 24l50 81 23-13.5v85l-74-41.5 24-14-50-80c-8.476-13.185-24.85-12.896-33.5 0l-45 73.5-27.5-16.5 45-74c10.115-15.734 27.128-24 44-24zm-89.5 130v85l-24.5-15-42 68v.5l-.5.5c-10.644 15.48.233 35.5 20.5 35.5h88v32h-88c-43.385 0-70.537-49.342-47-85 .19-.287-.196-.715 0-1l.5.5 41-67.5-20-12zm234.5 57l40 64v.5c21.756 36.984-5.31 85-47.5 85H304v32l-78.5-48 78.5-48v32h89.5c18.61 0 30.244-19.085 20-36.5l-40-64z"/></svg>