<svg version="1.1" xmlns="http://www.w3.org/2000/svg" xmlns:xlink="http://www.w3.org/1999/xlink" id="reddit-square" viewBox="0 0 512 545.5"><path d="M298.5 96c17.22 0 30.54 6.428 45 11.5 12.44 4.364 26.343 8.396 45.5 9.5 6.795-12.467 19.875-21 35-21 22 0 40 18 40 40s-18 40-40 40c-17.4 0-32.032-11.405-37.5-27-22.485-1.5-39.988-6.76-53.5-11.5-15.896-5.575-26.17-9.5-34.5-9.5-17.55 0-26.5 10.836-26.5 26.5v54c44.15 2.282 84.11 13.977 116.5 32.5 12.372-11.938 28.88-17.012 45-17 17.43.013 35.21 6.175 47.5 20l.5.5c11.788 14.732 16.644 34.406 13.5 54-2.882 17.96-13.36 36.218-31.5 48 .1 1.83.5 3.648.5 5.5 0 41.664-25.204 78.205-63 103.5S312.216 496 256 496s-107.204-15.205-145-40.5S48 393.664 48 352c0-1.852.4-3.67.5-5.5-18.14-11.782-28.618-30.04-31.5-48-3.143-19.594 1.712-39.268 13.5-54l.5-.5v-.5c12.29-13.823 30.073-19.487 47.5-19.5 16.12-.012 32.624 5.065 45 17 32.39-18.523 72.35-30.218 116.5-32.5v-54c0-31.184 24.946-58.5 58.5-58.5zM256 240c-50.456 0-95.464 13.895-127 35s-49 48.265-49 77 17.464 55.895 49 77 76.544 35 127 35 95.464-13.895 127-35 49-48.265 49-77-17.464-55.895-49-77-76.544-35-127-35zM78.5 256c-9.49.007-18.153 3.372-23 8.5-.086.107.085.39 0 .5-5.1 6.614-8.224 17.757-6.5 28.5 1 6.229 3.408 12.36 7.5 17.5 8.12-19.152 21.637-36.46 39-51-4.925-2.5-10.912-4.005-17-4zm355 0c-6.09-.005-12.075 1.5-17 4 17.363 14.54 30.88 31.848 39 51 4.092-5.14 6.5-11.271 7.5-17.5 1.724-10.743-1.4-21.886-6.5-28.5-.035-.037.035-.463 0-.5-4.846-5.126-13.507-8.493-23-8.5zM176 288c17.673 0 32 14.327 32 32s-14.327 32-32 32-32-14.327-32-32 14.327-32 32-32zm160 0c17.673 0 32 14.327 32 32s-14.327 32-32 32-32-14.327-32-32 14.327-32 32-32zm4 88.5c-10.224 29.872-43.103 55.5-84 55.5s-73.776-25.773-84-53.5c18.4 14.928 49.248 26 84 26s65.6-10.928 84-28z"/></svg>