<svg version="1.1" xmlns="http://www.w3.org/2000/svg" xmlns:xlink="http://www.w3.org/1999/xlink" id="renren" viewBox="0 0 512 545.5"><path d="M121 144v92c-.256 64.672-35.764 119.956-86.5 144.5C13.108 355.252 0 322.68 0 287c0-71.792 52.472-131.496 121-143zm48 0c34.464 5.776 64.852 23.964 86.5 49.5-21.408 25.232-34.5 57.804-34.5 93.5 0 35.68 13.124 68.252 34.5 93.5C204.603 355.844 169 299.944 169 235v-91zm86.5 49.5c21.648-25.552 53.036-43.708 87.5-49.5v92c-.24 64.656-36.764 119.94-87.5 144.5 21.392-25.248 35.5-57.82 35.5-93.5 0-35.696-14.108-68.252-35.5-93.5zM391 144c68.528 11.504 121 71.208 121 143 0 35.68-13.108 68.252-34.5 93.5C426.603 355.844 391 299.944 391 235v-91zM145 323.5c9.024 37.36 35.916 69.268 69.5 90.5-20.656 11.328-44.284 18-69.5 18s-48.844-6.672-69.5-18c33.6-21.232 60.476-53.124 69.5-90.5zm222 0c9.024 37.36 35.916 69.268 69.5 90.5-20.656 11.328-44.284 18-69.5 18s-48.844-6.672-69.5-18c33.6-21.232 60.476-53.124 69.5-90.5z"/></svg>