<svg version="1.1" xmlns="http://www.w3.org/2000/svg" xmlns:xlink="http://www.w3.org/1999/xlink" id="rocket" viewBox="0 0 512 545.5"><path d="M414.5 96c11.153.006 18 .5 18 .5l14.5.5.5 14.5s1.58 28.133-1.5 61-8.242 71.254-31.5 94.5c-19.403 19.395-71.8 59.786-121 97.5-9.982 7.65-9.718 7.454-19 14.5l1.5 27c1.088 20.452-7.567 40.117-23.5 53l-41 33.5L191 509l-5.5-26-10.5-52.5-61.5-61.5L61 358.5l-26-5 16.5-21 33.5-41c12.884-15.913 32.548-24.588 53-23.5l27.5 1.5c6.88-9.028 6.56-8.8 14-18.5 37.648-49.083 78.293-101.302 98-121 23.46-23.45 61.224-28.957 94-32 16.39-1.522 31.847-2.006 43-2zM400 128c-6.362.023-14.555.483-25.5 1.5-30.168 2.8-63.56 12.066-74.5 23-14.692 14.685-58.02 69.135-95.5 118-33.03 43.065-55.41 73.67-62 82.5l49 49c8.696-6.49 39.187-29.8 82.5-63 48.987-37.55 103.224-80.73 117.5-95 10.423-10.418 19.657-44.176 22.5-74.5 2.063-22.007 1.687-31.706 1.5-41-4.607-.11-9.138-.523-15.5-.5zm-73 56.5c17.867 0 32.5 14.633 32.5 32.5s-14.633 32.5-32.5 32.5-32-14.633-32-32.5 14.133-32.5 32-32.5zM136 300c-10.235-.544-20.056 4.04-26.5 12L93 332l21.5 4.5c2.11-2.81 17.863-23.257 27.5-36zm-36.5 83l22.5 22.5c-6.03 6.035-13.124 21.168-18 34.5 12.77-4.636 26.868-10.868 34-18l22.5 22.5c-14.297 14.297-33.266 22.156-49 27.5S83 479.5 83 479.5L59.5 484l5-23.5s2.475-13.122 8-29 13.33-34.818 27-48.5zm144 19c-12.752 9.572-33.188 25.406-36 27.5L212 451l20.5-16.5c7.972-6.445 12.044-16.265 11.5-26.5z"/></svg>