<svg version="1.1" xmlns="http://www.w3.org/2000/svg" xmlns:xlink="http://www.w3.org/1999/xlink" id="rotate-left" viewBox="0 0 512 545.5"><path d="M240 80h16v32h-16V80zm-34.5 7l9 30.5L202 121l-1 .5-11 4-1 .5h-.5L175 97l1.5-.5.5-.5h.5l13.5-5h.5l.5-.5zM320 96h128v32h-58.5c45.777 38.168 74.5 95.057 74.5 160 0 114.327-93.673 208-208 208S48 402.327 48 288v-16h32v16c0 96.873 79.127 176 176 176s176-79.127 176-176c0-63.03-31.528-115.817-80-147.5V224h-32V96zm-173.5 16l17 27-7.5 5-1 .5-9 7-1 .5-3.5 3-21-24 4.5-4h.5l.5-.5 11-8.5h.5l.5-.5zm-49 41.5l24.5 21-3.5 4-.5.5-7 9.5-1 1-4.5 7.5-27-17.5L84 171l.5-.5v-.5l8.5-11 .5-.5.5-.5zm-34 54.5l29 13.5v.5l-.5 1-4 11-.5 1-3.5 12.5-30.5-8.5 3.5-13.5.5-1v-.5l5-13v-.5l.5-.5z"/></svg>