<svg version="1.1" xmlns="http://www.w3.org/2000/svg" xmlns:xlink="http://www.w3.org/1999/xlink" id="rss" viewBox="0 0 512 545.5"><path d="M80 112h352v352H80V112zm32 32v288h288V144H112zm80 48c88.224 0 160 71.776 160 160 0 10.96-.904 21.664-3 32h-33c2.656-10.256 4-20.928 4-32 0-70.576-57.424-128-128-128-11.072 0-21.744 1.328-32 4v-33c10.336-2.112 21.04-3 32-3zm0 64c52.944 0 96 43.056 96 96 0 11.232-1.932 21.968-5.5 32H247c5.504-9.456 9-20.288 9-32 0-35.296-28.704-64-64-64-11.712 0-22.544 3.496-32 9v-35.5c10.032-3.552 20.768-5.5 32-5.5zm0 64c17.673 0 32 14.327 32 32s-14.327 32-32 32-32-14.327-32-32 14.327-32 32-32z"/></svg>