<svg version="1.1" xmlns="http://www.w3.org/2000/svg" xmlns:xlink="http://www.w3.org/1999/xlink" id="safari" viewBox="0 0 512 545.5"><path d="M256 96c105.85 0 192 86.15 192 192s-86.15 192-192 192S64 393.85 64 288 150.15 96 256 96zm0 32c-88.555 0-160 71.445-160 160s71.445 160 160 160 160-71.445 160-160-71.445-160-160-160zm8.5 16.5h6l1 .5h2.5l-4.5 32-3-.5H263zm-27.5 1l5 31.5-8 1-4.5-31.5zm63.5 5.5l7.5 3-11 30-7.5-3zm-97.5 3l11 30-1 .5-1.5.5-3.5 2-13.5-29 4.5-2.5h1l.5-.5zm129.5 12l3.5 2 .5.5.5.5 3.5 2.5-19 25.5-2-1.5-.5-.5-1-.5-2-1zM171 172l19 25.5-4.5 3.5-.5.5-1 .5-6.5-9-14-15.5h.5l.5-.5.5-.5zm185.5 13.5l-14 20.5 18.5-16.5 5 6-23.5 21.5-4.5-4.5-63.5 93.5-93.5 65 4.5 4-21.5 23.5-6-5.5 15-16.5-16.5 11.5L239 270.5zm-212 11.5l25.5 19-5 6.5-25.5-19zm237 20.5l.5 1 .5 1 .5.5 3 6-29 14-2-4.5-.5-1-.5-.5 5.5-2.5zM126 227l28.5 13.5-1.5 3-.5 1.5-.5 1.5-30-11 1-3 .5-.5v-1zm269 25l2 6v2l.5 1-31.5 5-.5-1.5-1.5-5zm-280.5 10l31.5 4.5-1 8-31.5-4.5zM400 286.5v.5l-16 1 16 1-.5 8-32-2 .5-6v-2l12 1zm-255.5 9v5l.5 1.5-31.5 4.5-.5-3-.5-1V297zm220 20.5l31 8-2 6v1.5l-1 1.5-30-11 .5-1.5zm-215 6l2.5 8-30 11-2.5-8zm205 19.5L382 358l-4.5 7-27-17zm-192.5 7l.5 1.5.5.5.5 1 2 2L140 373l-3-4-.5-.5-.5-.5-1.5-3zm175.5 16l23.5 22-2.5 3-.5.5-.5.5-3 2.5-21.5-23.5 1.5-2 1-1zm-21 18l16.5 27-7 4.5-16.5-27.5zM202 386l1 .5.5.5 5 2.5-14 28.5-6.5-3-.5-.5-1-.5h-.5l11.5-18.5zm88 8.5l11 30-1.5 1H298l-6 2-8-31 4.5-1.5zm-61.5 2l4 1 1.5.5h.5l-5 31.5-1.5-.5h-2l-5.5-1.5zm35 3l1.5 32-8 .5-1.5-32z"/></svg>