<svg version="1.1" xmlns="http://www.w3.org/2000/svg" xmlns:xlink="http://www.w3.org/1999/xlink" id="scissors" viewBox="0 0 512 545.5"><path d="M96 128c35.156 0 64 28.844 64 64 0 7.896-1.846 15.496-4.5 22.5l97 55L416 176h64L155.5 361.5c2.654 7.004 4.5 14.604 4.5 22.5 0 35.156-28.844 64-64 64s-64-28.844-64-64 28.844-64 64-64c15.698 0 29.825 6.004 41 15.5l82.5-47L136 241c-11.056 9.083-24.686 15-40 15-35.156 0-64-28.844-64-64s28.844-64 64-64zm0 32c-15.63 0-28.55 10.827-31.5 25.5-.422 2.096-.5 4.268-.5 6.5 0 17.862 14.138 32 32 32s32-14.138 32-32-14.138-32-32-32zm209.5 141L480 400h-64l-142.5-81.5zM96 352c-15.63 0-28.55 10.827-31.5 25.5-.422 2.096-.5 4.268-.5 6.5 0 17.862 14.138 32 32 32s32-14.138 32-32-14.138-32-32-32z"/></svg>