<svg version="1.1" xmlns="http://www.w3.org/2000/svg" xmlns:xlink="http://www.w3.org/1999/xlink" id="sellsy" viewBox="0 0 512 545.5"><path d="M288 96c79.336 0 144 64.664 144 144 0 2.272-.38 4.307-.5 6.5C477.568 260.393 512 301.555 512 352c0 61.67-50.33 112-112 112H112C50.33 464 0 413.67 0 352c0-37.44 20.142-69.175 48.5-89.5-.2-2.216-.5-4.182-.5-6.5 0-43.992 36.008-80 80-80 10.723 0 20.686 2.642 30 6.5C180.394 131.98 229.357 96 288 96zm0 32c-51.08 0-93.916 33.985-107.5 80.5l-6.5 22-18-13.5c-7.98-5.73-17.574-9-28-9-26.695 0-48 21.305-48 48 0 2.99.39 5.853 1 9l2 11.5-10 5.5c-24.472 13.683-41 39.85-41 70 0 44.38 35.62 80 80 80h288c44.38 0 80-35.62 80-80 0-40.16-29.145-73.092-67.5-79l-16-2.5L399 255c.706-5.208 1-10.105 1-15 0-62.04-49.96-112-112-112zm32 112h32v144h-32V240zm-64 32h32v112h-32V272zm-64 16h32v96h-32v-96zm-64 16h32v80h-32v-80z"/></svg>