<svg version="1.1" xmlns="http://www.w3.org/2000/svg" xmlns:xlink="http://www.w3.org/1999/xlink" id="server" viewBox="0 0 512 545.5"><path d="M48 128h416v320H48V128zm32 32v64h352v-64H80zm32 16h128v32H112v-32zm272 0c8.837 0 16 7.163 16 16s-7.163 16-16 16-16-7.163-16-16 7.163-16 16-16zM80 256v64h352v-64H80zm32 16h128v32H112v-32zm272 0c8.837 0 16 7.163 16 16s-7.163 16-16 16-16-7.163-16-16 7.163-16 16-16zM80 352v64h352v-64H80zm32 16h128v32H112v-32zm272 0c8.837 0 16 7.163 16 16s-7.163 16-16 16-16-7.163-16-16 7.163-16 16-16z"/></svg>