<svg version="1.1" xmlns="http://www.w3.org/2000/svg" xmlns:xlink="http://www.w3.org/1999/xlink" id="share-alt-square" viewBox="0 0 512 545.5"><path d="M256 96c34.304 0 62.147 27.51 63.5 61.5C377.19 181.993 416 239.09 416 304c0 3.343-.242 5.917-.5 8.5 19.294 11.065 32.5 31.814 32.5 55.5 0 35.156-28.844 64-64 64-9.195 0-18.072-1.957-26-5.5-27.72 23.3-63.883 37.5-102 37.5s-74.28-14.2-102-37.5c-7.928 3.543-16.805 5.5-26 5.5-35.156 0-64-28.844-64-64 0-23.438 13.037-43.85 32-55-.13-3.22 0-6.257 0-9 0-64.91 38.81-122.007 96.5-146.5C193.853 123.51 221.696 96 256 96zm0 32c-17.862 0-32 14.138-32 32s14.138 32 32 32 32-14.138 32-32-14.138-32-32-32zm-56.5 61.5C156.62 210.3 128 254.07 128 304c35.156 0 64 28.844 64 64 0 14.316-4.956 27.3-13 38 21.403 16.185 48.904 26 77 26s55.597-9.815 77-26c-8.044-10.7-13-23.684-13-38 0-35.156 28.844-64 64-64 0-49.93-28.62-93.7-71.5-114.5-10.744 20.386-32.003 34.5-56.5 34.5s-45.756-14.114-56.5-34.5zM128 336c-17.862 0-32 14.138-32 32s14.138 32 32 32 32-14.138 32-32-14.138-32-32-32zm256 0c-17.862 0-32 14.138-32 32s14.138 32 32 32 32-14.138 32-32-14.138-32-32-32z"/></svg>