<svg version="1.1" xmlns="http://www.w3.org/2000/svg" xmlns:xlink="http://www.w3.org/1999/xlink" id="shield" viewBox="0 0 512 545.5"><path d="M256 96c36 0 60.22 14.182 82 26s41.693 22 78 22h16v16c0 123.92-41.725 204.482-84 253s-86 66-86 66l-6 2-6-2s-43.742-17.885-86-66.5S80 283.485 80 160v-16h16c36.506 0 56.276-10.188 78-22s46-26 82-26zm0 32c-28 0-44.088 9.813-66.5 22-18.922 10.29-43.962 20.196-76.5 23.5 3.065 107.776 38.87 176.433 75 218 32.737 37.663 60.214 50.488 68 54 7.778-3.465 35.278-15.947 68-53.5 36.124-41.458 71.952-110.268 75-218.5-32.433-3.304-57.547-13.216-76.5-23.5-22.45-12.182-38.5-22-66.5-22z"/></svg>