<svg version="1.1" xmlns="http://www.w3.org/2000/svg" xmlns:xlink="http://www.w3.org/1999/xlink" id="ship" viewBox="0 0 512 545.5"><path d="M240 80h32v32h64v48h64v95l13.5 3c28.874 6.227 43.208 39.67 28 65L416 366v80c13.282-3.557 22-10.5 22-10.5l20 25S434.31 480 400.5 480c-23.59 0-39.2-7.805-48.5-13.5-9.275 5.75-24.138 13.5-47.5 13.5-23.59 0-39.2-7.805-48.5-13.5-9.275 5.75-24.138 13.5-47.5 13.5-23.59 0-39.2-7.805-48.5-13.5-9.275 5.75-24.138 13.5-47.5 13.5-33.81 0-58.5-19.5-58.5-19.5l20-25s9.047 6.37 22 10V366l-25.5-43c-15.196-25.335-.865-58.775 28-65v-.5l13.5-3V160h64v-48h64V80zm-32 64v48h-64v56l108.5-23.5 3.5-.5 3.5.5L368 248v-56h-64v-48h-96zm48 113l-150.5 32c-8.383 1.808-12.42 10.13-8 17.5l28 47 2.5 3.5v89c13.282-3.557 22-10.5 22-10.5l10-8 10 8s17.044 12.5 38.5 12.5 37.5-12.5 37.5-12.5l10-8 10 8s17.044 12.5 38.5 12.5 37.5-12.5 37.5-12.5l10-8 10 8s9.047 6.37 22 10V357l2.5-3.5 28-47c4.408-7.342.374-15.694-8-17.5zm-80 31c9.6 0 16 11.2 16 24s-6.4 24-16 24-16-11.2-16-24 6.4-24 16-24zm160 0c9.6 0 16 11.2 16 24s-6.4 24-16 24-16-11.2-16-24 6.4-24 16-24z"/></svg>