<svg version="1.1" xmlns="http://www.w3.org/2000/svg" xmlns:xlink="http://www.w3.org/1999/xlink" id="shirtsinbulk" viewBox="0 0 512 545.5"><path d="M80 96h352v311l-10 4-162 68-6.5 2.5-6-3-158-67.5-9.5-4V96zm32 32v48h288v-48H112zm0 80v177.5l141.5 61 146.5-61V208H112zm144 32c44.176 0 80 35.824 80 80s-35.824 80-80 80-80-35.824-80-80 35.824-80 80-80zm3 32.5c-27.936 0-46 12.82-46 32.5 0 5.824 2.032 10.548 6 14.5 9.264 9.2 25.808 9.42 38 9.5h2.5c13.12 0 23 3.44 23 6 0 9.152-13.316 12.5-24.5 12.5-18.64 0-34.84-9.888-35-10L212 354c.864.56 21.376 13.5 46 13.5 32.672 0 44.516-17.556 44.5-32.5 0-16.08-16.872-26-43-26h-3c-6-.032-19.948.096-23.5-4 0-9.792 16.352-12.5 26-12.5 15.76 0 29.356 9.904 29.5 10l12-16.5c-.768-.56-19.02-13.5-41.5-13.5z"/></svg>