<svg version="1.1" xmlns="http://www.w3.org/2000/svg" xmlns:xlink="http://www.w3.org/1999/xlink" id="shopping-cart" viewBox="0 0 512 545.5"><path d="M76 144h35.5c14.688 0 27.448 9.76 31 24l42 168H368l30.5-112H180l-8-32h268l-41.5 152.5c-3.808 13.92-16.068 23.5-30.5 23.5H184.5c-14.672 0-27.432-9.76-31-24l-42-168H76c-8.832 0-16-7.168-16-16s7.168-16 16-16zm272 224c26.32 0 48 21.68 48 48s-21.68 48-48 48-48-21.68-48-48 21.68-48 48-48zm-144 0c26.32 0 48 21.68 48 48s-21.68 48-48 48-48-21.68-48-48 21.68-48 48-48zm0 32c-9.026 0-16 6.974-16 16s6.974 16 16 16 16-6.974 16-16-6.974-16-16-16zm144 0c-9.026 0-16 6.974-16 16s6.974 16 16 16 16-6.974 16-16-6.974-16-16-16z"/></svg>