<svg version="1.1" xmlns="http://www.w3.org/2000/svg" xmlns:xlink="http://www.w3.org/1999/xlink" id="simplybuilt" viewBox="0 0 512 545.5"><path d="M96 144h64c17.49 0 32 14.51 32 32v16h128v-16c0-17.49 14.51-32 32-32h64c17.49 0 32 14.51 32 32v224c0 17.49-14.51 32-32 32H96c-17.49 0-32-14.51-32-32V176c0-17.49 14.51-32 32-32zm0 32v224h320V176h-64v48H160v-48H96zm96 88c26.51 0 48 21.49 48 48s-21.49 48-48 48-48-21.49-48-48 21.49-48 48-48zm128 0c26.51 0 48 21.49 48 48s-21.49 48-48 48-48-21.49-48-48 21.49-48 48-48z"/></svg>