<svg version="1.1" xmlns="http://www.w3.org/2000/svg" xmlns:xlink="http://www.w3.org/1999/xlink" id="skyatlas" viewBox="0 0 512.0155 545.5"><path d="M284.848 137.504c29.729 0 110.48 23.393 110.48 110.096 0 5.265-1.12 17.664-1.12 17.664s14.656-4.512 31.184-4.512c21.792 0 86.624 17.105 86.624 86.24 0 65.76-56.56 91.504-92.624 91.504-131.903 0-161.216-200.288-288.224-200.288-58.993 0-89.056 43.216-89.056 81.92 0 57.872 43.216 88.69 91.31 88.69 72.162 0 112.978-47.346 118.72-47.346 6.802 0 9.793 3.824 9.793 7.584 0 15.408-65.39 69.456-135.28 69.456C58.45 438.497 0 395.282 0 320.128c0-68.368 56.737-117.616 122.512-117.616 147.52 0 176.48 197.664 289.345 197.664 40.208 0 60.128-28.56 60.128-54.11 0-31.938-23.297-58.24-56.368-58.24-13.536 0-27.81 9.022-37.584 9.022-9.776 0-13.536-6.767-13.536-12.783 0-7.137 5.264-19.168 5.264-32.69 0-23.214-18.223-88.302-93.952-88.302-44.335 0-63.135 30.063-71.39 30.063-8.274 0-9.026-4.128-9.026-9.39.017-5.282 28.577-46.242 89.457-46.242z"/></svg>