<svg version="1.1" xmlns="http://www.w3.org/2000/svg" xmlns:xlink="http://www.w3.org/1999/xlink" id="skype" viewBox="0 0 512 545.5"><path d="M176 96c16.52 0 31.83 5.036 46 11.5 11.066-2.084 22.315-3.5 34-3.5 101.43 0 184 82.57 184 184 0 11.684-1.416 22.934-3.5 34 6.464 14.17 11.5 29.48 11.5 46 0 61.67-50.33 112-112 112-16.52 0-31.83-5.036-46-11.5-11.066 2.084-22.316 3.5-34 3.5-101.43 0-184-82.57-184-184 0-11.685 1.416-22.934 3.5-34-6.464-14.17-11.5-29.48-11.5-46 0-61.67 50.33-112 112-112zm0 32c-44.38 0-80 35.62-80 80 0 13.833 3.37 26.685 9.5 38 1.038 1.948 1.88 5.32 1.88 7.527 0 .97-.17 2.526-.38 3.473-2.088 10.048-3 20.34-3 31 0 84.137 67.863 152 152 152 10.66 0 20.952-.912 31-3 .947-.21 2.502-.38 3.473-.38 2.207 0 5.58.842 7.527 1.88 11.315 6.13 24.167 9.5 38 9.5 44.38 0 80-35.62 80-80 0-13.833-3.37-26.685-9.5-38-1.038-1.948-1.88-5.32-1.88-7.527 0-.97.17-2.526.38-3.473 2.088-10.048 3-20.34 3-31 0-84.137-67.863-152-152-152-10.66 0-20.952.912-31 3-.947.21-2.502.38-3.473.38-2.207 0-5.58-.842-7.527-1.88-11.315-6.13-24.167-9.5-38-9.5zm77.5 50.5c36.432 0 79 20.152 79 47 0 11.504-9.624 18-21 18-21.616 0-17.964-30-61.5-30-21.616 0-33.5 10-33.5 24 0 13.968 17.184 18.108 32 21.5l39 9c42.688 9.504 53.5 34.028 53.5 57.5 0 36.336-27.68 63.5-84 63.5-59.2 0-86-28.692-86-50.5 0-11.184 8.108-19 19.5-19 25.328 0 19.236 36 66.5 36 24.192 0 37.5-13.044 37.5-26.5 0-8.08-4.064-17.08-20-21l-53-13c-42.4-10.624-50-33.448-50-55 0-44.736 42.448-61.5 82-61.5z"/></svg>