<svg version="1.1" xmlns="http://www.w3.org/2000/svg" xmlns:xlink="http://www.w3.org/1999/xlink" id="slack" viewBox="0 0 512 545.5"><path d="M282.5 80c13.414 1.04 25.464 9.94 30 23.5L327 146l40.5-13.5c18.08-6.048 37.452 3.92 43.5 22s-3.42 37.452-21.5 43.5l-41 13.5L376 293l42.5-14c18.08-6.048 37.452 3.42 43.5 21.5s-3.42 37.952-21.5 44L398 359l13.5 40.5c6.032 18.08-3.904 37.452-22 43.5-18.08 6.048-37.452-3.42-43.5-21.5l-13.5-41L251 408l14 42.5c6.032 18.08-3.42 37.452-21.5 43.5s-37.952-3.42-44-21.5L185 430l-40.5 13.5c-18.08 6.048-37.452-3.904-43.5-22-6.048-18.08 3.42-37.452 21.5-43.5l41-13.5L136 283l-42.5 14c-18.08 6.048-37.452-3.42-43.5-21.5s3.42-37.952 21.5-44L114 217l-13.5-40.5c-6.048-18.08 3.904-37.452 22-43.5 18.08-6.048 37.452 3.42 43.5 21.5l13.5 41 82-27.5-14.5-42.5c-6.048-18.08 3.42-37.452 21.5-43.5 4.52-1.512 9.528-2.347 14-2zm.5 153.5L201.5 261l27.5 81.5 81.5-27.5z"/></svg>