<svg version="1.1" xmlns="http://www.w3.org/2000/svg" xmlns:xlink="http://www.w3.org/1999/xlink" id="slideshare" viewBox="0 0 512 545.5"><path d="M128 96h256c26.32 0 48 21.68 48 48v134.5c12.324-7.097 21.915-13.5 24-13.5 5.776 0 8 5.48 8 9 0 17.952-53.352 52.488-87 65 0 0 8.5 24.792 8.5 53s-17.364 88-72.5 88c0 0-41-.116-41-40.5v-70l-32-9.5v79.5c0 40.384-41 40.5-41 40.5-55.136 0-72.5-59.792-72.5-88s8.5-53 8.5-53c-33.648-12.512-87-47.048-87-65 0-3.52 2.224-9 8-9 2.085 0 11.676 6.403 24 13.5V144c0-26.32 21.68-48 48-48zm0 32c-9.04 0-16 6.96-16 16v150.5c17.811 7.408 38.395 13.5 59.5 13.5 23.392 0 38.065-1.5 48-1.5 7.212 0 12.014 2.95 15 6.5l37.5 28.5V327s1.268-20.5 20.5-20.5c9.935 0 24.608 1.5 48 1.5 21.105 0 41.688-6.092 59.5-13.5V144c0-9.04-6.96-16-16-16H128zm69 79.5c23.61 0 43 18.32 43 40.5s-19.39 40-43 40-42.5-17.82-42.5-40 18.89-40.5 42.5-40.5zm118 0c23.61 0 42.5 18.32 42.5 40.5s-18.89 40-42.5 40-43-17.82-43-40 19.39-40.5 43-40.5z"/></svg>