<svg version="1.1" xmlns="http://www.w3.org/2000/svg" xmlns:xlink="http://www.w3.org/1999/xlink" id="sliders" viewBox="0 0 512 545.5"><path d="M64 96h32v80h115c6.69-18.492 24.328-32 45-32s38.31 13.508 45 32h147v32H301c-6.69 18.492-24.328 32-45 32s-38.31-13.508-45-32H96v64h227c6.69-18.492 24.328-32 45-32s38.31 13.508 45 32h35v32h-35c-6.69 18.492-24.328 32-45 32s-38.31-13.508-45-32H96v64h35c6.69-18.492 24.328-32 45-32s38.31 13.508 45 32h227v32H221c-6.69 18.492-24.328 32-45 32s-38.31-13.508-45-32H96v80H64V96zm192 80c-9.026 0-16 6.974-16 16s6.974 16 16 16 16-6.974 16-16-6.974-16-16-16zm112 96c-9.026 0-16 6.974-16 16s6.974 16 16 16 16-6.974 16-16-6.974-16-16-16zm-192 96c-9.026 0-16 6.974-16 16s6.974 16 16 16 16-6.974 16-16-6.974-16-16-16z"/></svg>