<svg version="1.1" xmlns="http://www.w3.org/2000/svg" xmlns:xlink="http://www.w3.org/1999/xlink" id="soccer-ball-o" viewBox="0 0 512 545.5"><path d="M256 80c114.686 0 208 93.314 208 208s-93.314 208-208 208S48 402.686 48 288 141.314 80 256 80zm0 32c-9.568 0-18.85 1.04-28 2.5l28 20 28-20c-9.2-1.493-18.367-2.5-28-2.5zm-67 13.5c-26.061 10.723-49.015 27.39-67 48.5l22.5 68 3.5 11-9.5 6.5-57.5 42c2.156 28.42 10.493 54.98 24.5 78H189l3.5 11 22 68.5c13.313 3.206 27.186 5 41.5 5 13.778 0 27.16-1.52 40-4.5l22.5-69.5 3.5-11h84.5c13.756-22.905 22.36-49.298 24.5-77.5L373 259l-9.5-6.5 3.5-11 22-68.5c-17.848-20.613-40.412-36.89-66-47.5l-57.5 42-9.5 7-9.5-7zm67 68l9.5 7 73 53 9 7-3.5 11-28 85.5-3.5 11h-113l-3.5-11-28-85.5-3.5-11 9-7 73-53zm156 13l-11 34 28.5 20.5c-2.984-19.393-8.75-37.758-17.5-54.5zm-312.5 1c-8.477 16.474-14.074 34.49-17 53.5l28-20.5zm156.5 26l-54 39 20.5 63.5h67l20.5-63.5zM345.5 411l-11 34.5c17.7-8.838 33.352-20.465 47-34.5h-36zm-215 .5c13.31 13.524 28.895 24.836 46 33.5l-11-33.5h-35z"/></svg>