<svg version="1.1" xmlns="http://www.w3.org/2000/svg" xmlns:xlink="http://www.w3.org/1999/xlink" id="sort-numeric-asc" viewBox="0 0 512 545.5"><path d="M137.5 112H176v160h-32V169.5C133.102 181.193 118.02 192 96 192v-32c15.674 0 23.646-7.7 30-17s9-18.5 9-18.5zm214.5 0h32v299l41.5-41.5L448 392l-68.5 69-11.5 11-11.5-11-68.5-69 22.5-22.5L352 411V112zM136 304h16c30.78 0 56 25.22 56 56 0 21.51-13.744 38.84-30 49-17.708 10.898-31.23 16.954-43 23h73v32H80v-16c0-9.303 4.366-18.442 10-24.5s12.28-9.952 19.5-14c14.44-8.096 31.753-15.848 51.5-28 9.345-5.84 15-14.21 15-21.5 0-14.02-9.98-24-24-24h-16c-14.02 0-24 9.98-24 24v8H80v-8c0-30.78 25.22-56 56-56z"/></svg>