<svg version="1.1" xmlns="http://www.w3.org/2000/svg" xmlns:xlink="http://www.w3.org/1999/xlink" id="soundcloud" viewBox="0 0 512 545.5"><path d="M314 177c58.048 0 105.492 44.248 110.5 101 7.488-3.152 15.876-5 24.5-5 34.784 0 63 28.216 63 63s-28.216 63-63 63c0 0-174.34.016-174.5 0-3.76-.384-6.952-3.643-7-7.5V192c.048-3.68 1.248-5.66 6-7.5 12.24-4.72 26.292-7.5 40.5-7.5zm-59 14.5c1.28 0 2.46.376 3.5 1 2 1.216 2.936 3.472 3 6l3.5 142-3.5 51.5c-.048 3.808-2.74 6.5-6.5 6.5-3.792 0-6.952-2.74-7-6.5l-1.5-25.5-1.5-26 3-141.5v-.5c.032-2.143.964-4.236 2.5-5.5 1.184-.992 2.852-1.5 4.5-1.5zM233.5 204c1.312 0 2.46.296 3.5 1 1.712 1.168 2.936 3.292 3 5.5l2.5 130-2.5 47v5c-.032 1.792-.832 3.332-2 4.5-1.168 1.184-2.74 2-4.5 2-1.984 0-3.8-1.06-5-2.5-.896-1.056-1.42-2.044-1.5-3.5v-.5s-2.5-51.92-2.5-52l2.5-129v-1c.032-2.272 1.224-4.348 3-5.5 1.024-.672 2.22-1 3.5-1zM167 219c.612-.258 1.292 0 2 0 2.816 0 4.904 2.103 5 5l4 116.5-4 53c-.096 2.897-2.184 5.5-5 5.5-2.832 0-4.92-2.136-5-5l-3.5-53.5L164 224c.06-2.16 1.162-4.226 3-5zm21 2.5c.666-.28 1.728 0 2.5 0 3.072 0 5.436 2.38 5.5 5.5l3 113.5-3 52.5c-.08 3.136-2.928 6-6 6s-5.436-2.397-5.5-5.5l-3-53 3-113.5c.06-2.352 1.5-4.66 3.5-5.5zm-40 1.5c2.56 0 4.388 1.86 4.5 4.5l4 113-4 53.5c-.112 2.64-1.94 5-4.5 5-2.576 0-4.904-2.376-5-5l-3.5-53.5 3.5-113c.096-2.64 2.424-4.5 5-4.5zm63.5 2c3.328 0 5.936 2.624 6 6l3.5 109.5-3.5 52.5c-.08 3.392-2.672 6-6 6-3.344 0-5.936-2.656-6-6l-2.5-52.5 2.5-109.5c.065-3.376 2.672-6 6-6zm-85 7.5c2.304 0 4.388 1.6 4.5 4l4 104-4 54.5c-.096 2.4-2.196 4-4.5 4-2.336 0-3.904-1.616-4-4l-4-54.5 4-104c.096-2.4 1.68-4 4-4zM106 252c2.048 0 3.872 1.356 4 3.5l4.5 85L110 395c-.112 2.143-1.952 4-4 4-2.064 0-3.388-1.872-3.5-4l-4-54.5 4-85c.096-2.16 1.436-3.5 3.5-3.5zm-41 29.5c1.568 0 2.872.82 3 2.5l5 56.5-5 54c-.128 1.68-1.432 3-3 3-1.584 0-2.872-1.32-3-3l-4.5-54L62 284c.128-1.696 1.416-2.5 3-2.5zM45 283c1.328 0 2.34 1.06 2.5 2.5L53 340l-5.5 53c-.16 1.456-1.172 2.5-2.5 2.5-1.344 0-2.372-1.044-2.5-2.5l-5-52.5 5-55c.128-1.456 1.14-2.5 2.5-2.5zm40.5 2c1.824 0 3.372 1.58 3.5 3.5l5 52-5 54.5c-.128 1.936-1.676 3.5-3.5 3.5-1.84 0-3.388-1.58-3.5-3.5l-4-54.5 4-52c.112-1.936 1.66-3.5 3.5-3.5zm-61 7c1.088 0 2.324 1.284 2.5 2.5l5.5 46L27 385c-.176 1.216-1.428 2.5-2.5 2.5-1.088 0-1.856-1.3-2-2.5l-5-44.5 5-46c.144-1.2.912-2.5 2-2.5zM6 310c1.04 0 1.84.832 2 2l4.5 28.5L8 368c-.176 1.168-.96 2-2 2-1.056 0-2.357-.816-2.5-2L0 340.5 3.5 312c.144-1.168 1.428-2 2.5-2z"/></svg>