<svg version="1.1" xmlns="http://www.w3.org/2000/svg" xmlns:xlink="http://www.w3.org/1999/xlink" id="space-shuttle" viewBox="0 0 515 545.5"><path d="M32 96h73c39.324 0 77.19 15.688 105 43.5l2.5 2 67 67 128.5 11c41.173 3.428 78.577 25.134 101.5 59.5l5.5 9-5.5 9c-22.923 34.366-60.327 56.072-101.5 59.5l-128.5 11-69.5 69c-27.8 27.818-65.676 43.5-105 43.5H32v-96H0v-48h16v-96H0v-48h32V96zm32 32v112H48v96h16v112h41c30.852 0 60.7-12.187 82.5-34l45.5-46h-73v-32h110.5L405 325c27.023-2.25 50.422-16.81 68-37-17.578-20.19-40.977-34.75-68-37l-133-11H160v-32h73l-45.5-46c-21.82-21.82-51.648-34-82.5-34H64zm320 144h32v32h-32v-32zM96 368h32v48H96v-48z"/></svg>