<svg version="1.1" xmlns="http://www.w3.org/2000/svg" xmlns:xlink="http://www.w3.org/1999/xlink" id="spoon" viewBox="0 0 512 545.5"><path d="M369.5 96c7.14-.133 14.166.602 21 2 13.667 2.797 26.263 8.763 36.5 19 20.475 20.475 23.967 50.58 18.5 79s-19.925 56.925-41 78-45.876 30.957-70 30c-18.784-.745-36.628-8.054-52-19.5l-191 191-23-23 191-191c-11.446-15.372-18.755-33.216-19.5-52-.957-24.124 8.925-48.925 30-70s49.58-35.533 78-41c7.104-1.367 14.36-2.367 21.5-2.5zm0 32c-4.944.076-10.077.457-15.5 1.5-21.692 4.173-45.02 16.52-61 32.5s-21.587 31.195-21 46 7.863 29.863 21 43 28.195 20.413 43 21 30.02-5.02 46-21 28.327-39.308 32.5-61 .405-40.095-10-50.5c-5.203-5.203-12.4-8.806-21-10.5-4.3-.848-9.056-1.076-14-1z"/></svg>