<svg version="1.1" xmlns="http://www.w3.org/2000/svg" xmlns:xlink="http://www.w3.org/1999/xlink" id="spotify" viewBox="0 0 512 545.5"><path d="M256 96c106.065 0 192 85.935 192 192s-85.935 192-192 192S64 394.065 64 288 149.935 96 256 96zm0 32c-88.88 0-160 71.12-160 160s71.12 160 160 160 160-71.12 160-160-71.12-160-160-160zm-25.5 76c51.44 0 105.392 10.992 146 34 5.408 2.704 9.5 7.888 9.5 16-1.376 9.472-8.028 16.5-17.5 16.5-4.064 0-5.436-1.656-9.5-3-32.496-18.96-81.124-29.5-128.5-29.5-24.368 0-48.836 2.576-70.5 8-2.704 0-5.436 1.5-9.5 1.5-9.472 1.36-16.5-7.028-16.5-16.5s5.716-14.656 12.5-16c25.727-8.128 52.864-11 84-11zm-4.5 59.5c46.032 0 90.8 10.836 126 32.5 5.408 2.704 8 8.092 8 13.5 0 8.112-5.372 15-13.5 15-4.064 0-6.796-1.156-9.5-2.5-28.432-17.6-67.328-28.5-112-28.5-21.664 0-42.103 2.436-57 6.5-4.064 1.36-5.28 1.5-8 1.5-8.128 0-13.5-6.732-13.5-13.5 0-8.128 3.732-12.296 10.5-15 20.304-5.408 40.568-9.5 69-9.5zm4.5 58.5c37.904 0 72.708 9.4 102.5 27 4.064 2.704 7 5.216 7 12-1.344 5.408-6.592 9.5-12 9.5-2.704 0-5.78-1.156-8.5-2.5-25.727-14.896-56.66-23-90.5-23-18.96 0-37.9 2.436-55.5 6.5-2.704 0-6.64 1.5-8 1.5-6.768 0-11-5.576-11-11 0-6.768 4.092-10.64 9.5-12 21.664-5.408 43.492-8 66.5-8z"/></svg>