<svg version="1.1" xmlns="http://www.w3.org/2000/svg" xmlns:xlink="http://www.w3.org/1999/xlink" id="stack-exchange" viewBox="0 0 512 545.5"><path d="M144 96h224c35.157 0 64 28.843 64 64v224c0 35.157-28.843 64-64 64h-7l-59 62.5-5 5h-25V448H144c-35.157 0-64-28.843-64-64V160c0-35.157 28.843-64 64-64zm0 32c-17.866 0-32 14.134-32 32v16h288v-16c0-17.866-14.134-32-32-32H144zm-32 80v48h288v-48H112zm0 80v48h288v-48H112zm0 80v16c0 17.866 14.134 32 32 32h160v45.5l38.5-40.5 4.5-5h21c17.866 0 32-14.134 32-32v-16H112z"/></svg>