<svg version="1.1" xmlns="http://www.w3.org/2000/svg" xmlns:xlink="http://www.w3.org/1999/xlink" id="steam" viewBox="0 0 512 545.5"><path d="M80 112h352v352H80V322.5l49 20.5c-.416 2.96-1 5.928-1 9 0 35.344 28.656 64 64 64 34.72 0 63.008-27.504 64-62l52-34.5c42.384-2 76-36.603 76-79.5 0-44.176-35.824-80-80-80-42.897 0-77.5 33.616-79.5 76L190 288c-20.064.576-37.656 10.556-49 25.5L80 288V112zm224 80c26.415 0 48 21.585 48 48s-21.585 48-48 48-48-21.585-48-48 21.585-48 48-48zm0 16c-17.768 0-32 14.232-32 32s14.232 32 32 32 32-14.232 32-32-14.232-32-32-32zM192 320c17.68 0 32 14.32 32 32s-14.32 32-32 32c-16.24 0-29.436-12.304-31.5-28l25.5 11c2.016.848 3.936 1 6 1 6.272 0 12.44-3.857 15-10 3.408-8.16-.84-17.608-9-21l-25.5-10.5c5.376-4.096 12.22-6.5 19.5-6.5z"/></svg>