<svg version="1.1" xmlns="http://www.w3.org/2000/svg" xmlns:xlink="http://www.w3.org/1999/xlink" id="stethoscope" viewBox="0 0 512 545.5"><path d="M112 96c17.673 0 32 14.327 32 32s-14.327 32-32 32c-10.527 0-19.668-5.153-25.5-13-3.984 2.87-6.5 7.555-6.5 13v137c5.743 5.798 39.79 39 80 39s74.257-33.202 80-39V160c0-5.445-2.516-10.13-6.5-13-5.832 7.847-14.973 13-25.5 13-17.673 0-32-14.327-32-32s14.327-32 32-32c12.622 0 23.292 7.385 28.5 18 20.25 5.628 35.5 24.067 35.5 46v150l-4 4.5s-37.69 44.15-92 52V400c0 35.526 28.474 64 64 64s64-28.474 64-64v-80c0-35.157 28.843-64 64-64s64 28.843 64 64v3c18.492 6.69 32 24.328 32 45 0 26.32-21.68 48-48 48s-48-21.68-48-48c0-20.672 13.508-38.31 32-45v-3c0-17.866-14.134-32-32-32s-32 14.134-32 32v80c0 52.826-43.174 96-96 96s-96-43.174-96-96v-33.5c-54.31-7.85-92-52-92-52l-4-4.5V160c0-21.933 15.25-40.372 35.5-46 5.208-10.615 15.878-18 28.5-18zm304 256c-9.026 0-16 6.974-16 16s6.974 16 16 16 16-6.974 16-16-6.974-16-16-16z"/></svg>