<svg version="1.1" xmlns="http://www.w3.org/2000/svg" xmlns:xlink="http://www.w3.org/1999/xlink" id="street-view" viewBox="0 0 512 545.5"><path d="M256 96c35.156 0 64 28.844 64 64 0 17.828-7.604 33.857-19.5 45.5 21.29 14.416 35.5 39.005 35.5 66.5v74l-9 4.5-23 11.5v70h-96v-70l-23-11.5-9-4.5v-74c0-27.495 14.21-52.084 35.5-66.5-11.896-11.643-19.5-27.672-19.5-45.5 0-35.156 28.844-64 64-64zm0 32c-17.862 0-32 14.138-32 32s14.138 32 32 32 32-14.138 32-32-14.138-32-32-32zm0 96c-26.695 0-48 21.305-48 48v54l23 11.5 9 4.5v58h32v-58l9-4.5 23-11.5v-54c0-26.695-21.305-48-48-48zM144 334v33.5c-30.416 9.808-48 22.5-48 32.5 0 19.104 63.808 48 160 48s160-28.896 160-48c0-10-17.584-22.692-48-32.5V334c46.688 13.088 80 35.216 80 66 0 52.528-96.592 80-192 80S64 452.528 64 400c0-30.784 33.312-52.912 80-66z"/></svg>