<svg version="1.1" xmlns="http://www.w3.org/2000/svg" xmlns:xlink="http://www.w3.org/1999/xlink" id="stumbleupon" viewBox="0 0 512 545.5"><path d="M256 96c105.6 0 192 86.4 192 192s-86.4 192-192 192S64 393.6 64 288 150.4 96 256 96zm0 112c9.6 0 16 6.4 16 16v16c0 9.6 6.4 16 16 16s16-6.4 16-16v-16c0-27.2-20.8-48-48-48s-48 20.8-48 48v96c0 9.6-6.4 16-16 16s-16-6.4-16-16v-32h-32v32c0 27.2 20.8 48 48 48s48-20.8 48-48v-96c0-9.6 6.4-16 16-16zm112 112v-32h-32v32c0 9.6-6.4 16-16 16s-16-6.4-16-16v-36.8c-4.8 3.2-9.6 4.8-16 4.8s-11.2-1.6-16-4.8V320c0 27.2 20.8 48 48 48s48-20.8 48-48z"/></svg>