<svg version="1.1" xmlns="http://www.w3.org/2000/svg" xmlns:xlink="http://www.w3.org/1999/xlink" id="subscript" viewBox="0 0 512 545.5"><path d="M66.5 160h102l5 7.5 26.5 41 26.5-41 5-7.5h102l-16 24.5L251 288l66.5 103.5 16 24.5h-102l-5-7.5-26.5-41-26.5 41-5 7.5h-102l16-24.5L149 288 82.5 184.5zm58.5 32l56.5 87.5 5.5 8.5-5.5 8.5L125 384h26.5l35-55 13.5-21 13.5 21 35 55H275l-56.5-87.5-5.5-8.5 5.5-8.5L275 192h-26.5l-35 55-13.5 21-13.5-21-35-55H125zm274.5 144h1c26.02 0 47.5 21.48 47.5 47.5 0 15.61-7.652 30.153-20.5 39l-34 23.5c-.658.452-.402 1.487-1 2H448v32h-96v-16c0-17.773 8.85-34.438 23.5-44.5l34-23.5c4.208-2.897 6.5-7.407 6.5-12.5 0-8.732-6.768-15.5-15.5-15.5h-1c-8.732 0-15.5 6.768-15.5 15.5v.5h-32v-.5c0-26.02 21.48-47.5 47.5-47.5z"/></svg>