<svg version="1.1" xmlns="http://www.w3.org/2000/svg" xmlns:xlink="http://www.w3.org/1999/xlink" id="subway" viewBox="0 0 512 545.5"><path d="M160 96h192c43.992 0 80 36.008 80 80v192c0 38.794-23.208 72.394-56.5 87.5L416 496h-37.5L346 463.5c-3.218.33-6.698.5-10 .5H176c-3.302 0-6.782-.17-10-.5L133.5 496H96l40.5-40.5C103.208 440.394 80 406.794 80 368V176c0-43.992 36.008-80 80-80zm0 32c-21.094 0-38.988 13.248-45.5 32h283c-6.512-18.752-24.406-32-45.5-32H160zm-48 64v96h128v-96H112zm160 0v96h128v-96H272zM112 320v48c0 35.526 28.474 64 64 64h160c35.526 0 64-28.474 64-64v-48H112zm56 32c13.255 0 24 10.745 24 24s-10.745 24-24 24-24-10.745-24-24 10.745-24 24-24zm176 0c13.255 0 24 10.745 24 24s-10.745 24-24 24-24-10.745-24-24 10.745-24 24-24z"/></svg>