<svg version="1.1" xmlns="http://www.w3.org/2000/svg" xmlns:xlink="http://www.w3.org/1999/xlink" id="sun-o" viewBox="0 0 512 545.5"><path d="M240 80h32v80h-32V80zm-120 49.5l57 56.5-23 23-56.5-57zm272 0l22.5 22.5-56.5 57-23-23zM256 176c61.666 0 112 50.334 112 112s-50.334 112-112 112-112-50.334-112-112 50.334-112 112-112zm0 32c-44.372 0-80 35.628-80 80s35.628 80 80 80 80-35.628 80-80-35.628-80-80-80zM48 272h80v32H48v-32zm336 0h80v32h-80v-32zm-230 95l23 23-57 56.5L97.5 424zm204 0l56.5 57-22.5 22.5-57-56.5zm-118 49h32v80h-32v-80z"/></svg>