<svg version="1.1" xmlns="http://www.w3.org/2000/svg" xmlns:xlink="http://www.w3.org/1999/xlink" id="tachometer" viewBox="0 0 512 545.5"><path d="M256 128c105.848 0 192 86.152 192 192 0 46.33-16.59 88.816-44 122l-4.5 6h-287l-4.5-6c-27.41-33.184-44-75.67-44-122 0-105.848 86.152-192 192-192zm0 32c-88.553 0-160 71.447-160 160 0 36.273 12.717 69.188 33 96h254c20.283-26.813 33-59.727 33-96 0-88.553-71.447-160-160-160zm0 16c8.837 0 16 7.163 16 16s-7.163 16-16 16-16-7.163-16-16 7.163-16 16-16zm-64 17c8.837 0 16 7.163 16 16s-7.163 16-16 16-16-7.163-16-16 7.163-16 16-16zm128 0c8.837 0 16 7.163 16 16s-7.163 16-16 16-16-7.163-16-16 7.163-16 16-16zm-175 47c8.837 0 16 7.163 16 16s-7.163 16-16 16-16-7.163-16-16 7.163-16 16-16zm217.5.5l16 28L288 320v.5c-.27 17.44-14.496 31.5-32 31.5-17.673 0-32-14.327-32-32s14.327-32 32-32c5.84 0 11.287 1.768 16 4.5zM128 304c8.837 0 16 7.163 16 16s-7.163 16-16 16-16-7.163-16-16 7.163-16 16-16zm256 0c8.837 0 16 7.163 16 16s-7.163 16-16 16-16-7.163-16-16 7.163-16 16-16zm-239 64c8.837 0 16 7.163 16 16s-7.163 16-16 16-16-7.163-16-16 7.163-16 16-16zm222 0c8.837 0 16 7.163 16 16s-7.163 16-16 16-16-7.163-16-16 7.163-16 16-16z"/></svg>