<svg version="1.1" xmlns="http://www.w3.org/2000/svg" xmlns:xlink="http://www.w3.org/1999/xlink" id="tencent-weibo" viewBox="0 0 512 545.5"><path d="M272 64c79.392 0 144 64.608 144 144s-64.608 144-144 144c-18.384 0-35.824-3.68-52-10 4.464-10.112 9.48-19.524 15-28.5 11.648 4.128 23.96 6.5 37 6.5 61.76 0 112-50.24 112-112S333.76 96 272 96s-112 50.24-112 112c0 12.304 2.32 23.928 6 35-7.52 10.304-14.696 21.092-21 32.5-10.864-20.192-17-43.004-17-67.5 0-79.392 64.608-144 144-144zm0 96c26.51 0 48 21.49 48 48s-21.49 48-48 48c-9.388 0-18.102-2.842-25.5-7.5C166.68 324.113 160 438.167 160 496h-32c0-60.626 7.287-188.1 99-273-1.62-4.811-3-9.643-3-15 0-26.51 21.49-48 48-48z"/></svg>