<svg version="1.1" xmlns="http://www.w3.org/2000/svg" xmlns:xlink="http://www.w3.org/1999/xlink" id="thumb-tack" viewBox="0 0 512 545.5"><path d="M327.5 73l12 11.5 120 120 11 11.5-11 11.5c-20.284 20.284-48.7 28.303-76.5 25l-57 57c10.056 41.407.532 87.468-33 121L281.5 442l-11-11.5L203 363 70.5 496H48v-22.5L181 341l-69-69-11.5-11 11.5-11.5c30.444-30.444 72.948-41.522 112.5-34.5l65-65c1.824-23.314 9.783-46.612 26.5-65zm3.5 49c-6.315 11.486-11 23.653-11 36.5v6.5l-4.5 4.5-74 74-6.5 6.5-8.5-2.5c-26.217-6.84-54.23.507-77.5 16.5l131 131c18.546-25.993 22.902-57.794 13.5-86l-3-9.5 7-7 67-67 6.5-6.5 9 2.5c14.55 3.637 28.793-1.028 42-8.5z"/></svg>