<svg version="1.1" xmlns="http://www.w3.org/2000/svg" xmlns:xlink="http://www.w3.org/1999/xlink" id="thumbs-up" viewBox="0 0 512 545.5"><path d="M267 80h6.5c25.858 0 46.525 19.68 46.5 42.5 0 21.38-7.486 37.233-15 47.5-4.696 6.416-6.75 7.5-10 10l-3 12h92c30.214 0 53.334 28.463 47 58l-34.5 160c-4.73 22.034-24.458 38-47 38H80V192h73.5L262 84.5zm11.5 33.5L176 214.5V416h173.5c7.634 0 14.396-5.03 16-12.5l34-160c2.21-10.304-4.945-19.5-15.5-19.5H250.5l5-20 9.5-36 2-6.5 5.5-3s2.865-1.35 7-7 8.5-14.557 8.5-29c.006-4.922-2.76-7.692-9.5-9zM112 224v192h32V224h-32z"/></svg>