<svg version="1.1" xmlns="http://www.w3.org/2000/svg" xmlns:xlink="http://www.w3.org/1999/xlink" id="thumbs-o-down" viewBox="0 0 512 545.5"><path d="M162.5 128H432v256h-73.5L250 491.5l-5 4.5h-6.5c-25.858 0-46.5-19.69-46.5-42.5 0-21.38 7.486-37.233 15-47.5 4.696-6.416 6.75-7.5 10-10l3-12h-92c-30.214 0-53.334-28.463-47-58l34.5-160c4.73-22.034 24.458-38 47-38zm0 32c-7.634 0-14.396 5.03-16 12.5l-34 160c-2.21 10.304 4.945 19.5 15.5 19.5h133.5l-5 20-9.5 36-2 6.5-5.5 3s-2.865 1.35-7 7-8.5 14.557-8.5 29c0 4.93 2.757 7.69 9.5 9l102.5-101V160H162.5zm205.5 0v192h32V160h-32z"/></svg>