<svg version="1.1" xmlns="http://www.w3.org/2000/svg" xmlns:xlink="http://www.w3.org/1999/xlink" id="tint" viewBox="0 0 512 545.5"><path d="M256 87l12.5 15s31.98 38.535 64.5 86.5c16.26 23.982 32.99 50.17 45.5 75.5s21.5 49.552 21.5 72c0 79.127-64.873 144-144 144s-144-64.873-144-144c0-22.448 8.99-46.67 21.5-72s29.24-51.518 45.5-75.5c32.52-47.965 64.5-86.5 64.5-86.5zm0 51.5c-8.967 11.032-25.684 30.658-51 68-15.74 23.218-31.01 48.73-42.5 72S144 323.248 144 336c0 61.673 50.327 112 112 112s112-50.327 112-112c0-12.752-7.01-34.23-18.5-57.5s-26.76-48.782-42.5-72c-25.316-37.342-42.033-56.968-51-68zM176 336h32c0 26.473 21.527 48 48 48v32c-43.928 0-80-36.072-80-80z"/></svg>