<svg version="1.1" xmlns="http://www.w3.org/2000/svg" xmlns:xlink="http://www.w3.org/1999/xlink" id="toggle-off" viewBox="0 0 512 545.5"><path d="M144 144h224c79.336 0 144 64.664 144 144s-64.664 144-144 144H144c-15.037 0-29.357-2.194-43-6.5-4.505-1.405-8.695-3.175-13-5-38.602-16.37-68.77-49.158-81.5-89.5-.047-.15.047-.35 0-.5C2.283 316.985 0 302.876 0 288c0-15.037 2.194-29.357 6.5-43 1.405-4.505 3.175-8.695 5-13 16.37-38.602 49.158-68.77 89.5-81.5 4.505-1.405 9.32-2.538 14-3.5 9.36-1.923 19.083-3 29-3zm0 32c-58.162 0-105.784 43.892-111.5 100.5-.38 3.774-.5 7.622-.5 11.5 0 62.04 49.96 112 112 112 62.045 0 112-49.955 112-112s-49.955-112-112-112zm90 0c32.818 26.427 54 66.73 54 112s-21.182 85.573-54 112h134c62.04 0 112-49.96 112-112s-49.96-112-112-112H234z"/></svg>