<svg version="1.1" xmlns="http://www.w3.org/2000/svg" xmlns:xlink="http://www.w3.org/1999/xlink" id="train" viewBox="0 0 512 545.5"><path d="M224 80h64c20.14 0 34.428 14.248 41.5 32H352c43.992 0 80 36.008 80 80v176c0 38.794-23.208 72.394-56.5 87.5L416 496h-37.5L346 463.5c-3.218.33-6.698.5-10 .5H176c-3.302 0-6.782-.17-10-.5L133.5 496H96l40.5-40.5C103.208 440.394 80 406.794 80 368V192c0-43.992 36.008-80 80-80h22.5c7.072-17.752 21.36-32 41.5-32zm0 32c-9.04 0-16 6.96-16 16v16h-48c-21.094 0-38.988 13.248-45.5 32h283c-6.512-18.752-24.406-32-45.5-32h-48v-16c0-9.04-6.96-16-16-16h-64zm-112 96v80h288v-80H112zm0 112v48c0 35.526 28.474 64 64 64h160c35.526 0 64-28.474 64-64v-48H112zm144 16c17.673 0 32 14.327 32 32s-14.327 32-32 32-32-14.327-32-32 14.327-32 32-32z"/></svg>