<svg version="1.1" xmlns="http://www.w3.org/2000/svg" xmlns:xlink="http://www.w3.org/1999/xlink" id="transgender-alt" viewBox="0 0 512 545.5"><path d="M64 96h112v32h-57.5l49.5 49 28.5-28.5 23 23L191 200l21 21c12.66-8.417 27.746-13 44-13s31.34 4.583 44 13l93.5-93H336V96h112v112h-32v-57.5L323 244c8.417 12.66 13 27.746 13 44 0 38.494-27.636 71.007-64 78.5V400h48v32h-48v48h-32v-48h-48v-32h48v-33.5c-36.364-7.493-64-40.006-64-78.5 0-16.254 4.583-31.34 13-44l-21-21-28.5 28.5-23-23L145 200l-49-49.5V208H64V96zm192 144c-26.7 0-48 21.3-48 48s21.3 48 48 48 48-21.3 48-48-21.3-48-48-48z"/></svg>