<svg version="1.1" xmlns="http://www.w3.org/2000/svg" xmlns:xlink="http://www.w3.org/1999/xlink" id="tree" viewBox="0 0 512 545.5"><path d="M256 89.5l11.5 11 95 95.5 16 15.5-20.5 10s-16.24 5.853-39 11l70.5 70.5 16 15.5-20 10s-17.266 4.87-26 8L417 394l15.5 16-19.5 10s-39.39 18.82-109 25.5V496h-32v-48.5c-5.353.168-10.374.5-16 .5s-10.65-.332-16-.5V496h-32v-50.5C138.508 438.82 99.5 420 99.5 420l-20-10L95 394l57.5-57.5c-8.737-3.134-26-8-26-8l-20-10 16-15.5 70.5-70.5c-22.757-5.146-39-11-39-11l-20.5-10 16-15.5 95-95.5zm0 45.5l-64 63.5c9.495 3.19 11.432 5.7 35 8l29 3 29-3c23.577-2.3 25.51-4.81 35-8zm0 80l-19 18.5-73.5 73.5c7.44 2.607 7.253 3.5 22.5 6.5l29.5 6-21.5 21-58 58.5c20.597 7.306 55.35 17 120 17 65.237 0 100.128-9.71 120.5-17L318 340.5l-21.5-21 29.5-6c15.243-3.008 15.05-3.893 22.5-6.5L275 233.5z"/></svg>