<svg version="1.1" xmlns="http://www.w3.org/2000/svg" xmlns:xlink="http://www.w3.org/1999/xlink" id="tripadvisor" viewBox="0 0 512 545.5"><path d="M256 137.5c68.016 0 127.56 18.268 171 47.5h85c-13.248 15.504-23.084 36.6-25.5 51 15.296 21.008 24.5 47.032 24.5 75 0 70.384-57.116 127.5-127.5 127.5-39.888 0-75.64-18.313-99-47C274.212 404.108 256 431 256 431c-3.2-6.512-18.98-28.864-28.5-40-23.376 28.752-59.065 47.5-99 47.5C58.1 438.5 1 381.4 1 311c0-27.984 9.204-53.976 24.5-75-2.432-14.384-12.268-35.528-25.5-51h81c43.44-29.248 106.936-47.5 175-47.5zm0 21.5c-45.536 0-90.536 8.612-127 24.5 70.288.096 126.984 57.196 127 127.5.016-69.04 54.972-125.404 123.5-127.5C343.004 167.548 301.616 159 256 159zm-127.5 49C71.828 208 26 254.344 26 311c0 56.672 45.828 102.5 102.5 102.5 56.656 0 102.5-45.813 102.5-102.5 0-56.656-45.828-103-102.5-103zm255 0C326.828 208 281 254.344 281 311c0 56.672 45.828 102.5 102.5 102.5 56.656 0 102.5-45.813 102.5-102.5 0-56.656-45.844-103-102.5-103zM127 248.5c34.176 0 62 27.824 62 62s-27.824 62-62 62c-34.16 0-62-27.824-62-62s27.84-62 62-62zm256.5 0c34.16 0 62 27.824 62 62 0 34.16-27.84 61.5-62 61.5-34.176 0-62-27.34-62-61.5 0-34.176 27.824-62 62-62zm-256.5 19c-23.68 0-43 19.32-43 43s19.32 43 43 43 43.016-19.32 43-43c0-23.68-19.32-43-43-43zm256.5 0c-23.68 0-43 19.32-43 43s19.32 42.5 43 42.5 43-18.836 43-42.5c0-23.696-19.32-43-43-43zm-259.5 22c11.487 0 20.5 9.513 20.5 21s-9.013 21-20.5 21-21-9.513-21-21 9.513-21 21-21zm256 0c11.487 0 21 9.513 21 21s-9.513 20.5-21 20.5-20.5-9.013-20.5-20.5 9.013-21 20.5-21z"/></svg>