<svg version="1.1" xmlns="http://www.w3.org/2000/svg" xmlns:xlink="http://www.w3.org/1999/xlink" id="truck" viewBox="0 0 512 545.5"><path d="M0 96h288v64h86.5l5 4.5 96 96 4.5 5V432h-50.5c-7.153 27.518-31.85 48-61.5 48s-54.347-20.482-61.5-48h-133c-7.153 27.518-31.85 48-61.5 48s-54.347-20.482-61.5-48H0V96zm32 32v272h18.5c7.153-27.518 31.85-48 61.5-48s54.347 20.482 61.5 48H256V128H32zm256 64v208h18.5c7.153-27.518 31.85-48 61.5-48s54.347 20.482 61.5 48H448V279l-87-87h-73zM112 384c-17.862 0-32 14.138-32 32s14.138 32 32 32 32-14.138 32-32-14.138-32-32-32zm256 0c-17.862 0-32 14.138-32 32s14.138 32 32 32 32-14.138 32-32-14.138-32-32-32z"/></svg>