<svg version="1.1" xmlns="http://www.w3.org/2000/svg" xmlns:xlink="http://www.w3.org/1999/xlink" id="tty" viewBox="0 0 512 545.5"><path d="M256 96c62.286 0 115.045 11.476 150.5 22 33.922 10.102 57.5 41.473 57.5 77v45c0 17.49-14.51 32-32 32h-64c-17.49 0-32-14.51-32-32v-42c-2.997-1.4-3.636-1.926-12.5-4.5-14.565-4.23-36.834-8.5-67.5-8.5s-52.935 4.27-67.5 8.5c-8.864 2.574-9.503 3.1-12.5 4.5v42c0 17.49-14.51 32-32 32H80c-17.49 0-32-14.51-32-32v-45c0-35.527 23.57-66.917 57.5-77 35.46-10.542 88.214-22 150.5-22zm0 32c-58.353 0-108.29 10.626-141.5 20.5C93.837 154.64 80 173.567 80 195v45h64v-62l8-4.5s10.165-5.966 27.5-11 42.766-9.5 76.5-9.5 59.165 4.466 76.5 9.5 27.5 11 27.5 11l8 4.5v62h64v-45c0-21.433-13.83-40.345-34.5-46.5-33.218-9.86-83.147-20.5-141.5-20.5zm-96 176c17.673 0 32 14.327 32 32s-14.327 32-32 32-32-14.327-32-32 14.327-32 32-32zm96 0c17.673 0 32 14.327 32 32s-14.327 32-32 32-32-14.327-32-32 14.327-32 32-32zm96 0c17.673 0 32 14.327 32 32s-14.327 32-32 32-32-14.327-32-32 14.327-32 32-32zm-192 96c17.673 0 32 14.327 32 32s-14.327 32-32 32-32-14.327-32-32 14.327-32 32-32zm96 0c17.673 0 32 14.327 32 32s-14.327 32-32 32-32-14.327-32-32 14.327-32 32-32zm96 0c17.673 0 32 14.327 32 32s-14.327 32-32 32-32-14.327-32-32 14.327-32 32-32z"/></svg>