<svg version="1.1" xmlns="http://www.w3.org/2000/svg" xmlns:xlink="http://www.w3.org/1999/xlink" id="tumblr-square" viewBox="0 0 512 545.5"><path d="M227.5 112h40c10.85 0 20 9.15 20 20v59.5H337c10.85 0 20 9.074 20 20v48c0 10.926-9.15 20-20 20h-49.5v79c0-1.53.584 4.803 2.5 8.5s2.61 6.5 12.5 6.5c18.99 0 36.36-9.85 37.5-10.5.03-.018.494-.497.5-.5l.5.5c6.21-3.61 13.497-4.335 19.5-1 6.262 3.522 10.5 10.392 10.5 17.5V422c0 5.552-2.707 11.176-7 15-2.344 2.033-33.533 27-96.5 27-41.31 0-66.52-25.52-77.5-50s-11-48.29-11-54v-83.5h-18c-10.85 0-20-9.15-20-20V221c0-8.229 5.24-15.46 13-18.5-1.41.53.147.15.5 0 .352-.15.76-.655 1.5-1 1.48-.69 3.365-1.534 6-3 5.27-2.932 12.635-7.52 19.5-13.5 13.73-11.963 26-28.8 26-53 0-10.85 9.15-20 20-20zm9 32c-4.042 28.664-18.308 51.326-34 65-9.023 7.862-17.733 13.735-24.5 17.5-2.013 1.12-3.407 1.705-5 2.5v15.5h38V360c0 3.28.777 23.783 8.5 41s18.59 31 48 31c48.706 0 67.303-13.656 71.5-17v-16.5c-9.56 3.55-22.06 7-36.5 7-20.302 0-35.12-12.153-41-23.5s-6-20.736-6-23.5v-111H325v-24h-69.5V144h-19z"/></svg>