<svg version="1.1" xmlns="http://www.w3.org/2000/svg" xmlns:xlink="http://www.w3.org/1999/xlink" id="twitter-square" viewBox="0 0 512 545.5"><path d="M448 168.912c-10.56 15.792-23.92 29.664-39.312 40.784.144 3.376.224 6.784.224 10.192 0 104.112-79.232 224.16-224.145 224.16-44.495 0-85.903-13.04-120.768-35.392 6.175.735 12.447 1.103 18.8 1.103 36.91 0 70.88-12.592 97.84-33.728-34.48-.64-63.57-23.424-73.6-54.72 4.8.91 9.743 1.407 14.815 1.407 7.2 0 14.16-.96 20.768-2.768-36.048-7.232-63.2-39.072-63.2-77.248v-.992c10.624 5.904 22.768 9.44 35.68 9.856-21.136-14.128-35.04-38.24-35.04-65.568 0-14.448 3.888-27.985 10.656-39.616 38.863 47.664 96.91 79.04 162.384 82.32-1.328-5.76-2.032-11.776-2.032-17.952 0-43.504 35.28-78.784 78.784-78.784 22.655 0 43.135 9.568 57.504 24.88 17.952-3.536 34.815-10.096 50.03-19.12-5.887 18.4-18.366 33.84-34.64 43.584 15.937-1.904 31.12-6.128 45.25-12.4z"/></svg>