<svg version="1.1" xmlns="http://www.w3.org/2000/svg" xmlns:xlink="http://www.w3.org/1999/xlink" id="unlink" viewBox="0 0 512 545.5"><path d="M348 96c25.652 0 51.02 10.02 70.5 29.5 38.96 38.96 38.96 102.54 0 141.5L395 290.5c-16.244 16.263-36.868 25.895-58 28.5l-4-32c14.42-1.778 27.916-7.903 39-19h.5l23.5-23.5c26.734-26.734 26.734-69.766 0-96.5s-69.766-26.734-96.5 0L276 171.5c-11.067 11.067-17.216 25.017-19 39.5l-32-4c2.6-21.1 12.24-41.74 28.5-58l23.5-23.5c19.48-19.48 45.348-29.5 71-29.5zm-224.5 36.5l64 64-23 23-64-64zM175 257l4 32c-14.42 1.778-27.916 7.903-39 19h-.5L116 331.5c-26.734 26.734-26.734 69.766 0 96.5s69.766 26.734 96.5 0l23.5-23.5c11.067-11.067 17.216-25.017 19-39.5l32 4c-2.6 21.1-12.24 41.74-28.5 58L235 450.5c-38.96 38.96-102.54 38.96-141.5 0s-38.96-102.54 0-141.5l23.5-23.5c16.244-16.263 36.868-25.895 58-28.5zm172.5 99.5l64 64-23 23-64-64z"/></svg>