<svg version="1.1" xmlns="http://www.w3.org/2000/svg" xmlns:xlink="http://www.w3.org/1999/xlink" id="unlock" viewBox="0 0 512 545.5"><path d="M240 80c61.527 0 112 50.473 112 112v46c29.56 29.053 48 69.412 48 114 0 88.176-71.824 160-160 160S80 440.176 80 352c0-44.588 18.44-84.947 48-114v-46c0-61.527 50.473-112 112-112zm0 32c-44.072 0-80 35.928-80 80v22c23.605-13.748 50.79-22 80-22s56.395 8.252 80 22v-22c0-44.072-35.928-80-80-80zm0 112c-70.882 0-128 57.118-128 128s57.118 128 128 128 128-57.118 128-128-57.118-128-128-128zm0 96c17.673 0 32 14.327 32 32 0 11.834-6.45 21.963-16 27.5V432h-32v-52.5c-9.55-5.537-16-15.666-16-27.5 0-17.673 14.327-32 32-32z"/></svg>