<svg version="1.1" xmlns="http://www.w3.org/2000/svg" xmlns:xlink="http://www.w3.org/1999/xlink" id="unlock-alt" viewBox="0 0 512 545.5"><path d="M240 80c61.527 0 112 50.473 112 112v46c29.56 29.053 48 69.412 48 114 0 88.176-71.824 160-160 160S80 440.176 80 352s71.824-160 160-160c29.21 0 56.395 8.252 80 22v-22c0-44.072-35.928-80-80-80-34.626 0-64.35 22.948-76.5 54L134 154c16.65-42.548 57.426-74 106-74zm0 144c-70.882 0-128 57.118-128 128s57.118 128 128 128 128-57.118 128-128-57.118-128-128-128zm0 96c17.673 0 32 14.327 32 32 0 11.834-6.45 21.963-16 27.5V432h-32v-52.5c-9.55-5.537-16-15.666-16-27.5 0-17.673 14.327-32 32-32z"/></svg>