<svg version="1.1" xmlns="http://www.w3.org/2000/svg" xmlns:xlink="http://www.w3.org/1999/xlink" id="usd" viewBox="0 0 512 545.5"><path d="M240 80h32v33.5c45.355 7.598 80 47.063 80 94.5v16h-32v-16c0-35.526-28.474-64-64-64-35.438 0-64 28.915-64 64 0 19.503 6.71 29.688 19 39.5s30.995 17.5 51 25.5 41.29 16.305 59 30.5 31 36.013 31 64.5c0 46.804-34.526 86.793-80 94.5V496h-32v-33.5c-45.355-7.598-80-47.063-80-94.5v-16h32v16c0 35.526 28.474 64 64 64 35.313 0 64-29.53 64-64 0-19.617-6.71-29.648-19-39.5s-31.005-18.004-51-26-41.29-15.862-59-30-31-36.092-31-64.5c0-47.17 34.596-86.856 80-94.5V80z"/></svg>