<svg version="1.1" xmlns="http://www.w3.org/2000/svg" xmlns:xlink="http://www.w3.org/1999/xlink" id="user-secret" viewBox="0 0 512 545.5"><path d="M209 96c18.765 0 31.656 8 47 8 7.672 0 15.39-1.587 23-3.5s14.66-4.5 24-4.5c13.77 0 25.93 6.87 34.5 16s14.585 20.59 20 33c8.4 19.25 15.03 41.15 21 62 17.38 5.063 32.117 11.36 44 19 13.893 8.932 25.5 21.282 25.5 38 0 14.526-8.857 26.117-20 34.5-9.486 7.137-21.19 13.054-35 18-.786 3.712-2.02 7.46-3.5 11 13.497 7.63 34.85 22.354 55.5 50.5l9.5 13.5L441 401l-52.5 36 10 20 11.5 23H102l11.5-23 10-20L71 401l-13.5-9.5L67 378c20.65-28.146 42.003-42.87 55.5-50.5-1.48-3.538-2.717-7.288-3.5-11-13.81-4.946-25.514-10.863-35-18-11.144-8.383-20-19.974-20-34.5 0-16.686 11.644-29.073 25.5-38 11.852-7.636 26.633-13.937 44-19 5.44-20.143 11.475-41.635 20-61 5.54-12.583 11.84-24.2 20.5-33.5S195.02 96 209 96zm0 32c-3.492 0-6.744 1.394-11.5 6.5s-9.798 13.82-14.5 24.5c-7.814 17.748-14.24 40.27-20 61.5l.002.25-.002.25c-.1 2.06-.997 5.197-2 7-.135.14-.36.365-.5.5-.04.15.04.35 0 .5l.002.25-.002.25c.282.08.746-.17 2 .5 4.093 2.19 12.322 4.922 22.5 6.5 20.356 3.156 48.115 3.5 71 3.5 23 0 50.69.034 71-3 10.155-1.518 18.484-4.326 22.5-6.5 2.353-1.274 1.485-.532 1.5-.5-7.197-24.972-13.818-52.105-22.5-72-4.587-10.51-9.954-19.157-14.5-24s-7.297-6-11-6c-1.38 0-7.7 1.413-16 3.5s-18.992 4.5-31 4.5c-24.016 0-43.717-8-47-8zm-78 113.5c-10.095 3.675-18.697 7.762-24.5 11.5-9.26 5.965-10.5 9.943-10.5 11 0 .938.83 3.983 7.5 9s18.195 10.79 33 15.5c29.61 9.42 72.275 15.5 119.5 15.5s89.89-6.08 119.5-15.5c14.805-4.71 26.33-10.483 33-15.5s7.5-8.063 7.5-9c0-1.06-1.704-5.523-11-11.5-5.81-3.735-14.1-7.482-24-11-3.588 7.625-9.93 13.942-16.5 17.5-9.797 5.305-20.905 7.693-33 9.5-24.19 3.613-52.5 3.5-75.5 3.5-23.115 0-51.356-.257-75.5-4-12.072-1.872-23.28-4.3-33-9.5-6.52-3.488-12.896-9.5-16.5-17zm41.5 87.5l1.5 10c5.25 26.408 16.817 50.343 31.5 67s31.686 25.73 50.5 26c18.325.258 35.705-8.694 50.5-25.5s26.573-41.214 31.5-67.5l1.5-10c-5.28.866-10.46 2.303-16 3-2.075 14.032-13.014 26.436-30.5 27.5-13.47.825-28.662-5.544-30-23.5-2.373.028-4.606 0-7 0s-4.627.028-7 0c-1.338 17.956-16.53 24.325-30 23.5-17.486-1.064-28.425-13.468-30.5-27.5-5.54-.697-10.72-2.134-16-3zM368 352c-.53.304-.958.71-1.5 1-6.585 28.284-18.396 54.505-36 74.5-6.854 7.785-14.646 14.847-23 20.5H358l-4.5-9-6-12.5L359 419l48.5-33.5c-17.918-19.74-33.542-30.02-39.5-33.5zm-224.5.5c-6.652 4.004-22.04 14.313-39 33L153 419l11.5 7.5-6 12.5-4.5 9h52c-8.935-5.815-17.31-12.844-24.5-21-17.36-19.693-29.15-45.58-36-73.5-.655-.346-1.365-.63-2-1z"/></svg>