<svg version="1.1" xmlns="http://www.w3.org/2000/svg" xmlns:xlink="http://www.w3.org/1999/xlink" id="user-md" viewBox="0 0 512 545.5"><path d="M135 128h241l5 6.5s13.41 18.33 26 54 25 89.723 25 163.5v16h-97.5c1.07 5.195 1.5 10.5 1.5 16 0 43.993-36.007 80-80 80s-80-36.007-80-80c0-5.5.43-10.805 1.5-16H80v-16c0-133.55 50.5-216.5 50.5-216.5zm19.5 32c-5.287 9.125-37.347 69.606-41 176H192c14.64-19.35 38.015-32 64-32s49.36 12.65 64 32h78.5c-1.8-60.784-11.1-107.03-21.5-136.5-9.81-27.79-16.67-36.173-19-39.5H154.5zm85.5 32h32v32h32v32h-32v32h-32v-32h-32v-32h32v-32zm16 144c-26.7 0-48 21.3-48 48s21.3 48 48 48 48-21.3 48-48-21.3-48-48-48zm0 32c8.837 0 16 7.163 16 16s-7.163 16-16 16-16-7.163-16-16 7.163-16 16-16z"/></svg>