<svg version="1.1" xmlns="http://www.w3.org/2000/svg" xmlns:xlink="http://www.w3.org/1999/xlink" id="user-times" viewBox="0 0 512 545.5"><path d="M192 64c61.666 0 112 50.334 112 112 0 38.54-19.698 72.834-49.5 93 7.778 3.33 15.42 7.052 22.5 11.5 21.092-15.305 47.046-24.5 75-24.5 70.503 0 128 57.497 128 128s-57.497 128-128 128-128-57.497-128-128c0-30.352 10.738-58.52 28.5-80.5-18.028-9.774-38.483-15.5-60.5-15.5-70.89 0-128 57.11-128 128H32c0-65.9 40.426-122.522 97.5-147C99.698 248.834 80 214.54 80 176c0-61.666 50.334-112 112-112zm0 32c-44.372 0-80 35.628-80 80s35.628 80 80 80 80-35.628 80-80-35.628-80-80-80zm160 192c-53.21 0-96 42.79-96 96s42.79 96 96 96 96-42.79 96-96-42.79-96-96-96zm-36.5 36.5L352 361l36.5-36.5 23 23L375 384l36.5 36.5-23 23L352 407l-36.5 36.5-23-23L329 384l-36.5-36.5z"/></svg>