<svg version="1.1" xmlns="http://www.w3.org/2000/svg" xmlns:xlink="http://www.w3.org/1999/xlink" id="venus-double" viewBox="0 0 512 545.5"><path d="M176 80c70.576 0 128 57.424 128 128 0 22.912-5.924 44.392-16.5 63-9.344-7.232-17.108-16.392-22.5-27 4.512-11.12 7-23.28 7-36 0-52.944-43.056-96-96-96s-96 43.056-96 96 43.056 96 96 96c15.92 0 30.768-4.104 44-11 6.512 8.832 14.18 16.864 22.5 24-15.08 9.207-32.21 15.177-50.5 17.5V400h128v-65c-63.035-7.916-112-61.855-112-127 0-22.912 5.924-44.392 16.5-63 9.344 7.232 17.108 16.392 22.5 27-4.512 11.12-7 23.28-7 36 0 52.944 43.056 96 96 96s96-43.056 96-96-43.056-96-96-96c-15.92 0-30.752 4.104-44 11-6.496-8.832-14.18-16.864-22.5-24 19.392-11.84 42.164-19 66.5-19 70.576 0 128 57.424 128 128 0 65.145-48.965 119.084-112 127v65h64v32h-64v64h-32v-64H192v64h-32v-64H96v-32h64v-65c-63.035-7.916-112-61.855-112-127 0-70.576 57.424-128 128-128z"/></svg>