<svg version="1.1" xmlns="http://www.w3.org/2000/svg" xmlns:xlink="http://www.w3.org/1999/xlink" id="venus-mars" viewBox="0 0 512 545.5"><path d="M352 80h112v112h-32v-57l-54.5 54c14.442 19.254 22.5 42.504 22.5 67 0 29.92-11.848 57.832-33 79-2.96 2.96-5.784 5.908-9 8.5 1.328-7.68 2-15.532 2-23.5 0-8.576-.964-17.244-2.5-25.5 6.576-11.76 10.5-24.66 10.5-38.5 0-21.36-8.396-41.397-23.5-56.5S309.36 176 288 176s-41.397 8.38-56.5 23.5S208 234.64 208 256s8.396 41.397 23.5 56.5c12.64 12.64 28.56 20.26 46 22.5-2.56 9.184-7.072 17.572-14 24.5-1.632 1.648-3.676 3.108-5.5 4.5-18.496-5.072-35.065-15.065-49-29-21.152-21.168-33-49.08-33-79s11.848-57.848 33-79 49.08-33 79-33c24.496 0 47.755 8.062 67 22.5l54-54.5h-57V80zm-98 132c18.496 5.072 35.065 15.065 49 29 21.152 21.168 33 49.08 33 79s-11.848 57.848-33 79-49.08 33-79 33c-24.54 0-47.735-8.007-67-22.5l-27 27 32 32-22.5 23-32-32-32 32-23-23 32-32-32-32 23-22.5 32 32 27-27c-14.442-19.254-22.5-42.504-22.5-67 0-29.92 11.848-57.832 33-79 2.96-2.96 5.784-5.908 9-8.5-1.328 7.68-2 15.532-2 23.5 0 8.576.948 17.244 2.5 25.5-6.576 11.76-10.5 24.66-10.5 38.5 0 21.36 8.396 41.397 23.5 56.5S202.64 400 224 400s41.397-8.38 56.5-23.5S304 341.36 304 320s-8.396-41.397-23.5-56.5c-12.64-12.64-28.56-20.26-46-22.5 2.56-9.184 7.072-17.572 14-24.5 1.632-1.648 3.676-3.108 5.5-4.5z"/></svg>