<svg version="1.1" xmlns="http://www.w3.org/2000/svg" xmlns:xlink="http://www.w3.org/1999/xlink" id="vine" viewBox="0 0 512 545.5"><path d="M447.808 198.592c-1.712 37.456-27.823 88.736-78.32 153.824C317.282 420.4 273.105 454.4 236.977 454.4c-22.384 0-41.327-20.704-56.8-62.112-10.336-37.952-20.656-75.905-30.992-113.872-11.488-41.392-23.808-62.113-36.992-62.113-2.88 0-12.928 6.065-30.127 18.128L64 211.12c18.96-16.69 37.65-33.36 56.048-50.065 25.28-21.887 44.256-33.39 56.897-34.56 29.887-2.88 48.288 17.585 55.183 61.41 7.456 47.278 12.624 76.67 15.52 88.175 8.608 39.216 18.096 58.8 28.448 58.8 8.032 0 20.112-12.72 36.208-38.16 16.08-25.44 24.688-44.8 25.856-58.096 2.288-21.953-6.32-32.96-25.856-32.96-9.2 0-18.672 2.112-28.416 6.303 18.864-61.935 54.93-92.015 108.145-90.303 39.456 1.168 58.048 26.8 55.775 76.927z"/></svg>