<svg version="1.1" xmlns="http://www.w3.org/2000/svg" xmlns:xlink="http://www.w3.org/1999/xlink" id="vk" viewBox="0 0 512 545.5"><path d="M145.5 112h221c35.88 0 65.5 29.62 65.5 65.5v221c0 35.88-29.62 65.5-65.5 65.5h-221c-35.88 0-65.5-29.62-65.5-65.5v-221c0-35.88 29.62-65.5 65.5-65.5zm0 32c-18.583 0-33.5 14.917-33.5 33.5v221c0 18.583 14.917 33.5 33.5 33.5h221c18.583 0 33.5-14.917 33.5-33.5v-221c0-18.583-14.917-33.5-33.5-33.5h-221zm106 83.5c9.168.096 11.916.636 15.5 1.5 10.784 2.608 7 12.872 7 37 0 7.712-1.584 18.4 4 22 2.4 1.536 8.344.397 23-24.5 6.944-11.808 12-25.5 12-25.5s1.224-2.444 3-3.5c1.808-1.088 4.5-1 4.5-1h33s9.9-1.464 11.5 3c1.68 4.689-4.044 15.565-17.5 33.5-22.096 29.44-24.336 26.976-6 44 17.52 16.256 20.908 24.024 21.5 25 7.248 12.032-8 13-8 13l-29 .5s-6.228 1.18-14.5-4.5c-10.944-7.504-21.468-27.044-29.5-24.5-8.143 2.576-8 20-8 20s.356 4-1.5 6c-2.016 2.176-6 2.5-6 2.5h-13s-29.028 1.964-54.5-24.5c-27.744-28.88-52.5-86.5-52.5-86.5s-1.036-3.676.5-5.5c1.712-2.048 6.5-2 6.5-2l31-.5s2.888.448 5 2c1.744 1.28 3 4 3 4s4.796 12.432 11.5 24c13.072 22.576 19.068 27.916 23.5 25.5 6.464-3.536 4.5-32 4.5-32s.376-10.408-3-15c-2.608-3.552-7.824-4.712-10-5-1.76-.24 1.256-4.16 5-6 5.632-2.768 15.756-3.112 27.5-3z"/></svg>