<svg version="1.1" xmlns="http://www.w3.org/2000/svg" xmlns:xlink="http://www.w3.org/1999/xlink" id="volume-up" viewBox="0 0 512 545.5"><path d="M240 105.5v365l-27.5-27L137 368H64V208h73l75.5-75.5zM386 134c38.16 40.176 62 94.336 62 154s-23.84 113.808-62 154l-22.5-22.5C395.884 385.116 416 338.848 416 288s-20.116-97.132-52.5-131.5zm-45 45c26.576 28.576 43 66.984 43 109s-16.424 80.408-43 109l-22.5-23c20.8-22.784 33.5-52.8 33.5-86s-12.7-63.232-33.5-86zm-133 4l-52.5 52.5-5 4.5H96v96h54.5l5 4.5L208 393V183zm88 41.5c15.024 16.944 24 39.132 24 63.5s-8.976 46.556-24 63.5l-23-23c9.248-11.104 15-24.948 15-40.5s-5.752-29.396-15-40.5z"/></svg>