<svg version="1.1" xmlns="http://www.w3.org/2000/svg" xmlns:xlink="http://www.w3.org/1999/xlink" id="wechat" viewBox="0 0 512 545.5"><path d="M224 112c86.74 0 160 59.352 160 136 0 7.485-.63 14.496-2 21.5 38.664 16.764 66 51.083 66 92 0 19.307-7.402 36.777-18 52l3.5 29 4 31-27.5-15-19-11c-18.526 9.93-39.747 16.5-63 16.5-56.38 0-105.81-33.754-117.5-81-24.008-1.876-46.525-8.15-66.5-18l-40 16.5-25.5 11 3.5-28 6-46.5c-14.521-20.385-24-44.122-24-70 0-76.647 73.26-136 160-136zm0 32c-72.33 0-128 48.103-128 104 0 20.9 7.587 40.39 21 57l4 5-.5 7-3.5 24.5 20.5-8.5 7-3 7 3.5c16.523 9.292 35.904 15.395 57 17.5 6.057-53.144 58.71-92.5 119.5-92.5 7.908 0 15.454.718 23 2 .66-4.076 1-8.264 1-12.5 0-55.897-55.67-104-128-104zm-55 34.5c12.448 0 22.5 10.084 22.5 22.5s-10.068 23-22.5 23-22.5-10.552-22.5-23c0-12.416 10.068-22.5 22.5-22.5zm107 0c12.432 0 22.5 10.084 22.5 22.5 0 12.448-10.068 23-22.5 23-12.464 0-23-10.552-23-23 0-12.432 10.568-22.5 23-22.5zm52 112c-50.23 0-88 33.522-88 71 0 37.498 37.766 70.5 88 70.5 21.015 0 40.056-5.795 55-15.5l8-5.5 7.5 4-.5-3-1-6.5 4.5-5.5c9.374-11.406 14.5-24.287 14.5-38.5 0-37.498-37.766-71-88-71zM288 311c9.408 0 17 7.592 17 17-.016 9.408-7.608 17-17 17-9.424 0-17.5-7.592-17.5-17s8.06-17 17.5-17zm80.5 0c9.424 0 17 7.592 17 17s-7.576 17-17 17c-9.408 0-17-7.592-17-17s7.608-17 17-17z"/></svg>