<svg version="1.1" xmlns="http://www.w3.org/2000/svg" xmlns:xlink="http://www.w3.org/1999/xlink" id="weibo" viewBox="0 0 512 545.5"><path d="M351 132.5c26.13 1.23 52.088 12.536 71 33.5 25.232 27.936 31.768 66.06 21 99.5-2.512 7.712-10.788 11.996-18.5 9.5-7.744-2.496-11.996-10.756-9.5-18.5 7.664-23.76 2.904-51.144-15-71-17.936-19.84-44.568-27.184-69-22-7.936 1.696-15.82-3.564-17.5-11.5-1.712-7.92 3.564-15.804 11.5-17.5 8.584-1.824 17.29-2.41 26-2zm-132.5 44c12.183-1.298 21.875 1.365 28.5 8 9.36 9.36 10.516 25.672 4.5 45-3.136 9.744 9 3.984 9 4 39.088-16.368 73.536-17.308 86 .5 6.656 9.504 5.628 23.076-.5 38.5-2.832 7.104 1.092 7.884 6.5 9.5 22.032 6.832 46.5 23.38 46.5 52.5 0 48.176-69.568 109-174 109-79.664 0-161-38.496-161-102 0-33.2 20.792-71.76 57-108 33.253-33.242 70.698-54.145 97.5-57zm130 8c12.727.594 25.296 6.288 34.5 16.5 12.304 13.616 15.748 32.227 10.5 48.5-2.143 6.656-9.344 10.128-16 8-6.656-2.16-10.144-9.36-8-16 2.576-7.952 1-16.844-5-23.5-6.016-6.64-15.324-9.227-23.5-7.5-6.816 1.488-13.528-2.684-15-9.5-1.472-6.848 3.152-14.044 10-15.5 4.18-.888 8.258-1.197 12.5-1zm-115 84.5c-7.593-.266-15.054-.286-23 .5-63.552 6.272-112.128 45.273-108 87s59.432 70.772 123 64.5 111.628-45.256 107.5-87c-3.612-36.498-46.353-63.142-99.5-65zm-25 31c7.665-.723 15.435.032 23 2 31.313 8.08 47.3 37.313 34.5 66-12.976 29.344-50.336 45.208-82 35-30.56-9.872-43.376-40.316-30-67.5 9.852-19.992 31.504-33.332 54.5-35.5zm14.5 35c-3.024.053-6.332 1.716-8 4.5-2.143 3.744-.792 7.948 3 9.5 3.857 1.584 8.776-.192 11-4 2.128-3.824.356-8.092-3.5-9.5-.944-.376-1.492-.518-2.5-.5zm-29.5 9c-8.014-.1-15.94 4.36-20.5 11.5-6.144 9.552-3.276 21.052 6.5 25.5 9.92 4.528 22.856-.192 29-10 6.048-9.904 2.968-21.26-7-25.5-2.46-1.032-5.33-1.467-8-1.5z"/></svg>