<svg version="1.1" xmlns="http://www.w3.org/2000/svg" xmlns:xlink="http://www.w3.org/1999/xlink" id="whatsapp" viewBox="0 0 512 545.5"><path d="M392.048 152.048c36.096 36.128 55.968 84.16 55.968 135.232-.048 105.392-85.823 191.136-191.2 191.136h-.08c-32-.016-63.455-8.032-91.375-23.264L64 481.727l27.12-99.055C74.385 353.696 65.586 320.8 65.6 287.12 65.65 181.744 151.424 96 256.8 96c51.153.016 99.153 19.92 135.248 56.048zM256.8 446.128c87.6 0 158.88-71.264 158.896-158.864.016-42.447-16.496-82.352-46.496-112.384s-69.904-46.576-112.353-46.592c-87.648 0-158.943 71.248-158.976 158.848 0 30.017 8.4 59.248 24.305 84.544l3.776 6.017-16.047 58.624 60.144-15.776 5.808 3.44c24.4 14.48 52.368 22.13 80.88 22.144h.064zm87.168-118.976c4.784 2.384 7.968 3.584 9.168 5.6 1.2 1.984 1.2 11.55-2.784 22.704-3.968 11.152-23.056 21.328-32.24 22.704-8.24 1.23-18.656 1.744-30.096-1.888-6.928-2.208-15.84-5.152-27.232-10.064-47.936-20.69-79.232-68.928-81.616-72.113-2.384-3.183-19.504-25.903-19.504-49.407 0-23.505 12.352-35.057 16.72-39.84 4.368-4.784 9.552-5.984 12.736-5.984 3.184 0 6.37.015 9.152.16 2.928.144 6.88-1.12 10.753 8.19 3.983 9.553 13.535 33.074 14.735 35.458s2 5.184.4 8.368c-1.6 3.183-2.4 5.183-4.784 7.967s-5.024 6.225-7.168 8.37c-2.4 2.382-4.88 4.96-2.095 9.743 2.783 4.784 12.368 20.43 26.575 33.088 18.24 16.272 33.633 21.328 38.416 23.712 4.784 2.383 7.568 1.984 10.352-1.2 2.784-3.184 11.936-13.936 15.12-18.72 3.184-4.768 6.368-3.985 10.752-2.384 4.37 1.584 27.856 13.15 32.64 15.536z"/></svg>