<svg version="1.1" xmlns="http://www.w3.org/2000/svg" xmlns:xlink="http://www.w3.org/1999/xlink" id="wheelchair" viewBox="0 0 512 545.5"><path d="M320 80c26.32 0 48 21.68 48 48s-21.68 48-48 48-48-21.68-48-48 21.68-48 48-48zm0 32c-9.026 0-16 6.974-16 16s6.974 16 16 16 16-6.974 16-16-6.974-16-16-16zm-87.5 44.5c6.46-.735 13.242.912 19 4v-.5l27 15c20.895 11.2 30.572 36.193 22.5 58.5L282.5 285c10.93 9.845 20.1 21.586 26.5 35h30c14.94 0 28.32 10.372 31.5 25l21 97.5-31 7L339 352h-20.5c.757 5.238 1.5 10.558 1.5 16 0 61.666-50.334 112-112 112S96 429.666 96 368c0-56.225 41.876-102.677 96-110.5l23.5-66.5-36.5 4-40 61.5-27-17 40-62c5.203-8.062 13.514-13.414 23-14.5zm16 38.5l-23 62.5c10.357 1.64 20.28 4.713 29.5 9l16-44c2.744-7.582-.396-15.69-7.5-19.5zM208 288c-44.372 0-80 35.628-80 80s35.628 80 80 80 80-35.628 80-80-35.628-80-80-80z"/></svg>