<svg version="1.1" xmlns="http://www.w3.org/2000/svg" xmlns:xlink="http://www.w3.org/1999/xlink" id="wifi" viewBox="0 0 512 545.5"><path d="M256 144c80.272 0 152.712 33.332 205 86.5L438.5 253c-46.48-47.376-111.044-77-182.5-77s-136.02 29.624-182.5 77L51 230.5c52.288-53.168 124.728-86.5 205-86.5zm0 80c58.224 0 110.708 24.328 148.5 63L382 309.5c-32-32.88-76.608-53.5-126-53.5s-94 20.604-126 53.5L107.5 287c37.792-38.688 90.276-63 148.5-63zm0 80c36.16 0 68.72 15.292 92 39.5L325.5 366c-17.488-18.4-42.156-30-69.5-30s-51.996 11.6-69.5 30L164 343.5c23.296-24.208 55.84-39.5 92-39.5zm0 80c14.144 0 26.716 6.272 35.5 16L256 435.5 220.5 400c8.784-9.727 21.356-16 35.5-16z"/></svg>