<svg version="1.1" xmlns="http://www.w3.org/2000/svg" xmlns:xlink="http://www.w3.org/1999/xlink" id="wikipedia-w" viewBox="0 0 512 545.5"><path d="M480 179.424c0 2.752-2.208 4.977-4.976 4.977h-26.88L326.24 443.84c-.8 1.712-2.528 2.847-4.448 2.864h-.064c-1.888 0-3.615-1.056-4.464-2.752l-57.84-114.72-62.416 114.863c-.895 1.648-2.496 2.576-4.512 2.608-1.872-.064-3.568-1.152-4.368-2.847L64.898 184.4H36.975c-2.752 0-4.975-2.24-4.975-4.977v-13.15c0-2.754 2.224-4.978 4.976-4.978H136.4c2.753 0 4.977 2.224 4.977 4.977v13.135c0 2.752-2.224 4.976-4.976 4.976h-21.407L200.05 380.59l44.255-82.687-56.112-113.488H174.69c-2.754 0-4.977-2.223-4.977-4.975v-13.152c0-2.752 2.223-4.976 4.976-4.976h73.535c2.75 0 4.976 2.224 4.976 4.976v13.135c0 2.752-2.224 4.977-4.975 4.977H235.28l32.273 70.624 38.432-70.624h-23.568c-2.768 0-4.976-2.225-4.976-4.977v-13.135c0-2.752 2.21-4.976 4.977-4.976h71.44c2.768 0 4.976 2.224 4.976 4.976v13.135c0 2.752-2.208 4.977-4.976 4.977h-15.664l-56.097 101.903 45.712 93.984L416.016 184.4h-27.95c-2.753 0-4.977-2.225-4.977-4.977v-13.136c0-2.752 2.223-4.976 4.975-4.976h86.944c2.783 0 4.99 2.24 4.99 4.977v13.136z"/></svg>