<svg version="1.1" xmlns="http://www.w3.org/2000/svg" xmlns:xlink="http://www.w3.org/1999/xlink" id="wordpress" viewBox="0 0 512 545.5"><path d="M256 96c105.888 0 192 86.144 192 192s-86.112 192-192 192c-105.872 0-192-86.144-192-192 0-105.888 86.112-192 192-192zm0 9c-101.024 0-183 81.992-183 183 0 100.992 81.992 183 183 183s183-81.992 183-183-81.976-183-183-183zm0 18.5c42.88 0 81.704 16.136 111 43-.72-.016-1.28 0-2 0-16.176 0-27.5 13.88-27.5 29 0 13.584 7.664 25.416 16 39 6.288 10.96 13.5 24.648 13.5 45 0 14.128-4.164 32.108-12.5 53.5L338 388l-59.5-177c9.904-.512 19-2 19-2 8.864-1.056 7.88-14.012-1-13.5 0 0-26.768 2-44 2-16.176 0-43.5-2-43.5-2-8.88-.528-9.88 12.972-1 13.5 0 0 8.62 1.488 17.5 2l25.5 70-36 108-60-178c9.92-.512 19-2 19-2 8.864-1.056 7.88-14.012-1-13.5 0 0-26.768 2-44 2-3.103 0-6.628.112-10.5 0 29.44-44.736 79.948-74 137.5-74zM400.5 209c12.864 23.44 20.016 50.344 20 79 0 60.752-32.524 113.94-81.5 142.5L389 285c9.392-23.488 12.5-42.296 12.5-59 0-6.08-.28-11.752-1-17zm-295 12L184 436c-54.96-26.704-92.5-82.816-92.5-148 0-23.888 4.864-46.536 14-67zM259 302.5L309.5 441c.336.8.568 1.796 1 2.5-17.12 6.016-35.332 9-54.5 9-16.176 0-31.732-2.164-46.5-6.5z"/></svg>