<svg version="1.1" xmlns="http://www.w3.org/2000/svg" xmlns:xlink="http://www.w3.org/1999/xlink" id="wrench" viewBox="0 0 512 545.5"><path d="M336 80c21.866 0 42.137 5.632 59 15l18.5 10-15 15-68.5 69 25 25 69-68.5 15-15 10 18.5c9.368 16.863 15 37.134 15 59 0 70.88-57.12 128-128 128-3.752 0-8.846-.592-13.5-1l-137 137c-31.492 31.492-82.008 31.492-113.5 0s-31.492-82.008 0-113.5l137-137c-.408-4.654-1-9.748-1-13.5 0-70.88 57.12-128 128-128zm0 32c-53.92 0-96 42.078-96 96 0 6.4.01 11.535 1 15.5l2.5 8.5-6.5 6.5L94.5 381c-19.535 19.535-19.693 48.303-.5 68l.5.5c19.707 19.707 48.793 19.707 68.5 0L305.5 307l6.5-6.5 8.5 2.5c3.965.99 9.1 1 15.5 1 53.92 0 96-42.08 96-96 0-7.775-3.337-13.572-5-20.5L366.5 248 355 259.5 344 248l-48-48-11.5-11 11.5-11.5 60.5-60.5c-6.928-1.663-12.725-5-20.5-5z"/></svg>