<svg version="1.1" xmlns="http://www.w3.org/2000/svg" xmlns:xlink="http://www.w3.org/1999/xlink" id="xing-square" viewBox="0 0 512 545.5"><path d="M342.5 112H389c6.775 0 15.524 3.204 20 10.5 4.664 7.487 3.676 16.148.5 22.5-.128.28-.352.73-.5 1l-98 173 61 111c.14.135.365.36.5.5 3.19 6.3 3.69 15.543-1 23-4.376 6.979-12.677 10.5-19.5 10.5h-46c-7.07 0-14.036-2.836-18.5-6.5s-6.9-7.607-8.5-10.5c0 0-65.84-120.68-66-121-.53-.916-1.202-2.484-1.5-3.5-6.811 12.044-16 28.5-16 28.5-1.53 2.777-3.603 6.748-8 10.5S176.05 368 169 368h-46c-7.7 0-16.05-4.17-20-10.5-4.452-7.112-3.92-16.33-.5-23 .135-.14.36-.365.5-.5l44.5-78.5L121 209c-.14-.135-.365-.36-.5-.5-3.085-5.91-4.7-15.268 0-23l.25-.002.25.002c4.876-7.775 12.91-10.5 19.5-10.5H187c6.987 0 13.518 2.866 18 6.5s6.915 7.674 8.5 10.5c0 0 31.308 54.196 31.5 54.5.787 1.286 1.684 3.525 2 5 30.442-53.983 69-122.5 69-122.5 1.497-2.703 3.575-6.712 8-10.5s11.687-6.5 18.5-6.5zm2 32c-.207.303-.128-.17-.5.5 0 0-87.058 155.105-98 174.5 7.27 13.35 61 112.5 61 112.5.26.47.336.27.5.5h29l-57-104v-.5l-.5-1h.5c-2.076-4.58-2.34-12.28-.5-15.5l94-167h-28.5zm-188 63l23 40c.315.532.763 1.43 1 2 .35.816 1.5 3.26 1.5 6.5s-1.15 5.184-1.5 6c-.102.56-.326 1.457-.5 2L138.5 336H167c.196-.283.184.074.5-.5L213 255l-27-47c-.14-.135-.365-.36-.5-.5-.422-.753-.392-.356-.5-.5h-28.5z"/></svg>