<svg version="1.1" xmlns="http://www.w3.org/2000/svg" xmlns:xlink="http://www.w3.org/1999/xlink" id="yelp" viewBox="0 0 512 545.5"><path d="M229.5 96c3.37-.115 5.912-.02 8 .5 5.472 1.36 9.672 5.152 11 10 .928 5.36 8.364 120.564 9.5 146.5 1.072 22.16-8.38 25.04-11.5 26-3.12.976-12.773 3.976-24.5-15 0 0-79.128-124.176-81-128-1.12-4.336.692-9.532 4.5-13.5 10.346-10.682 60.42-25.69 84-26.5zM349 209.5c2.35-.088 5.044.308 7.5 1.5 13.904 6.768 41.82 48.452 43.5 64.5.032.192 0 .324 0 .5.336 5.456-1.564 10.328-5.5 13-2.592 1.68-5.012 2.143-70.5 18-10.496 2.496-16.252 4.3-19.5 5.5.08-.096 0-.5 0-.5-6.512 1.824-13.276-1.536-17.5-8-4.064-6.224-4.176-13.444 0-18.5.192-.192 16-22 16-22 35.04-47.92 36.972-50.352 39.5-52 2.032-1.368 4.15-1.912 6.5-2zM129 274c3.136.032 6.048.948 68 26.5.048 0 18 7.5 18 7.5 6.512 2.432 10.416 9.304 10 17-.448 7.504-4.616 13.384-11 15-.112.065-25.5 8-25.5 8-57.6 18.528-59.928 19.144-63 19-4.768-.16-9.004-2.764-11.5-7.5-1.808-3.44-2.716-9.588-3.5-16.5-2.16-20.88.276-51.984 6.5-62 2.928-4.608 7.264-7.176 12-7zm176.5 70.5c1.586.035 2.976.412 4.5 1 .32.176 25.5 8.5 25.5 8.5 57.584 18.928 59.536 19.66 62 21.5 3.728 2.976 5.252 7.576 4.5 13-2.256 15.536-33.924 55.676-48.5 61.5-5.024 2-9.692 1.492-13.5-1.5-2.48-1.936-5.292-5.432-39.5-61l-10-16.5c-3.888-5.936-3.38-14.048 1.5-20 3.528-4.344 8.74-6.604 13.5-6.5zm-70 18c3.362-.756 7.424-.376 11 1 6.96 2.688 10.916 8.956 10.5 15.5-.016.288 0 27 0 27-.176 60.56-.508 62.572-1.5 65.5-1.696 4.496-5.14 7.024-10.5 8-15.392 2.64-63.935-15.048-74-27-2.048-2.464-3.244-4.78-3.5-7.5-.208-1.888.344-4.224 1-6 1.04-3.024 2.576-5.04 46-56 .032 0 12.5-15 12.5-15 2.16-2.704 5.138-4.744 8.5-5.5z"/></svg>