<svg version="1.1" xmlns="http://www.w3.org/2000/svg" xmlns:xlink="http://www.w3.org/1999/xlink" id="youtube-play" viewBox="0 0 512 545.5"><path d="M256 128c60.263 0 113.502 6.265 146 11 26.856 3.916 48.563 24.196 53.5 51 4.223 22.86 8.5 56.296 8.5 98 0 41.688-4.296 75.152-8.5 98-4.938 26.824-26.624 47.105-53.5 51-32.612 4.733-86.06 11-146 11-59.954 0-113.4-6.267-146-11-26.864-3.896-48.54-24.197-53.5-51-4.205-22.822-8.5-56.207-8.5-98 0-41.81 4.294-75.176 8.5-98 4.938-26.805 26.652-47.086 53.5-51 32.498-4.735 85.722-11 146-11zm0 32c-58.122 0-110.095 5.924-141.5 10.5-13.536 1.974-24.046 12.177-26.5 25.5-3.89 21.112-8 52.337-8 92 0 39.648 4.11 70.887 8 92 2.465 13.325 12.98 23.54 26.5 25.5 31.53 4.578 83.727 10.5 141.5 10.5 57.758 0 109.952-5.92 141.5-10.5 13.54-1.962 24.045-12.164 26.5-25.5 3.892-21.152 8-52.472 8-92 0-39.544-4.095-70.86-8-92-2.454-13.324-12.973-23.527-26.5-25.5-31.406-4.576-83.394-10.5-141.5-10.5zm-48 36.5l24 13.5 112 64 24 14-24 14-112 64-24 13.5v-183zm32 55v73l63.5-36.5z"/></svg>