<svg version="1.1" xmlns="http://www.w3.org/2000/svg" xmlns:xlink="http://www.w3.org/1999/xlink" id="youtube" viewBox="0 0 512 545.5"><path d="M140.5 96H163l14.5 57.5h1l14-57.5H215l-26 84v59.5h-22V183zm103 35c8.192 0 14.816 2.348 20 7.5 5.2 5.104 7.5 11.935 7.5 20v55c0 9.072-2.412 15.816-7.5 21-5.136 5.152-12.04 8-21 8-8.656 0-15.284-2.672-20.5-8-5.168-5.311-8-12.492-8-21.5v-55c0-8.208 2.688-14.668 8-19.5 5.311-4.864 12.556-7.5 21.5-7.5zm44.5 2.5h19.5V215c0 2.464.652 4.38 1.5 5.5.8 1.103 2.176 1.5 4 1.5 1.456 0 3.308-.512 5.5-2 2.224-1.472 4.16-3.712 6-6v-80.5H344v106h-19.5V228c-3.632 4.32-7.548 7.76-11.5 10-3.904 2.224-7.32 3-11 3-4.544 0-8.18-1.348-10.5-4.5s-3.5-7.648-3.5-14v-89zm-45.5 16c-2.416 0-4.496.576-6 2s-2 3.212-2 5.5c-.016 0 0 58 0 58 0 2.897.544 4.9 2 6.5 1.376 1.568 3.408 2.5 6 2.5 2.688 0 4.9-.868 6.5-2.5 1.568-1.584 2-3.652 2-6.5v-58c0-2.288-.4-4.076-2-5.5-1.584-1.408-3.892-2-6.5-2zm-2.5 115c38.032-.032 75.1.48 111.5 2 25.488 0 46.5 20.784 46.5 46 1.536 19.936 2.08 40.016 2 60 .065 19.952-.48 39.516-2 59.5 0 25.248-21.028 46-46.5 46-36.4 1.504-73.468 2.08-111.5 2-38 .065-75.084-.496-111.5-2-25.472 0-46.5-20.752-46.5-46-1.536-19.984-2.064-39.548-2-59.5-.048-19.984.496-40.065 2-60 0-25.2 21.044-46 46.5-46 36.416-1.536 73.5-2.048 111.5-2zm-135 33c-1.216 0-2.5.784-2.5 2V320c0 1.216 1.284 2 2.5 2h20v119c0 1.216 1.284 2 2.5 2h22c1.216 0 2-.784 2-2V322H172c1.216 0 2-.784 2-2v-20.5c0-1.216-.784-2-2-2h-67zm141 0c-1.216 0-2 .784-2 2V441c0 1.216.784 2 2 2h19.5c1.216 0 2.5-.784 2.5-2v-2.5c1.616 1.44 3.224 2.588 5 3.5 3.313 1.664 6.92 2.5 11 2.5 6.432 0 11.528-2.02 15-6.5 3.36-4.288 5-10.58 5-18.5v-58c0-8.96-1.996-16.152-5.5-21-3.664-5.056-8.652-7.5-15.5-7.5-3.376 0-6.688 1.16-10 3-1.744 1.008-3.384 2.028-5 3.5v-40c0-1.216-1.284-2-2.5-2H246zm100 34c-9.296 0-17.112 3.372-23 9.5-5.872 6.112-9 13.9-9 23.5v47c0 10.544 2.672 18.872 8 25 5.392 6.224 13.188 9.5 22.5 9.5 10.32 0 18.268-3.143 23.5-9 5.2-5.792 7.5-14.252 7.5-25.5v-8c0-1.216-.784-2-2-2h-20c-1.216 0-2 .784-2 2v7.5c0 7.616-1.084 9.892-1.5 10.5-.864 1.168-2.536 2-5 2-3.04 0-4.424-1.556-5-2.5-.704-1.168-1.5-3.616-1.5-10v-17.5h35c1.216 0 2.5-.784 2.5-2v-27c0-10.416-2.864-18.304-8-24-5.168-5.728-12.512-9-22-9zm-174.5 3c-1.216 0-2 .784-2 2V424c0 6.64 1.456 11.496 4 15 2.688 3.696 6.3 5.5 11.5 5.5 4.096 0 8.276-1.068 12.5-3.5 2.688-1.52 5.408-3.488 8-6v6c0 1.216.784 2 2 2H227c1.216 0 2.5-.784 2.5-2h-.5V336.5c0-1.216-.784-2-2-2h-19.5c-1.216 0-2 .784-2 2V415c-1.504 1.792-3.128 3.236-5 4.5-2.304 1.568-3.94 2-4.5 2-1.648 0-1.872-.824-2-1-.304-.4-.5-1.376-.5-4v-80c0-1.216-1.284-2-2.5-2h-19.5zM275 354c1.282.226 2.288 1.032 3 2 1.072 1.408 1.5 3.508 1.5 6.5v54c0 3.472-.392 5.232-1 6-.24.336-1.02 1-3.5 1-1.313 0-2.816.092-4-.5-1.056-.544-1.832-1.316-3-2.5V357c.944-.96 1.588-1.552 2.5-2 1.6-.8 3.218-1.226 4.5-1zm70 .5c2.24 0 3.603.72 4.5 2 .736 1.072 2 3.2 2 8v8.5h-13v-8.5c0-4.88.813-7.04 1.5-8 .96-1.313 2.664-2 5-2z"/></svg>