<svg xmlns="http://www.w3.org/2000/svg" viewBox="0 0 320 320">
	<path d="M5.77,320a5,5,0,0,1-4.27-4.94V175a5,5,0,0,1,5-5H146.56a5,5,0,0,1,4.94,4.26A150.06,150.06,0,0,1,5.77,320Z" />
	<path d="M176,150a2,2,0,0,1-1.5-1.93V8a2,2,0,0,1,2-2H316.56A2,2,0,0,1,318.5,7.5,147.06,147.06,0,0,1,176,150Z" />
	<path d="M176.51,314a2,2,0,0,1-2-2V171.93A2,2,0,0,1,176,170,147.06,147.06,0,0,1,318.5,312.5a2,2,0,0,1-1.94,1.49Z" />
	<path d="M151.5,145.74a5,5,0,0,1-4.94,4.26H6.51a5,5,0,0,1-5-5V4.94A5,5,0,0,1,5.77,0,150.06,150.06,0,0,1,151.5,145.74Z" />
</svg>
