<svg version="1.1" xmlns="http://www.w3.org/2000/svg" xmlns:xlink="http://www.w3.org/1999/xlink" id="action-undo" viewBox="0 0 512.02 514.032"><path d="M495.04 472.184c-.168 0-.36 0-.544-.016-8.096-.264-13.2-6.544-13.888-14.608-.544-5.936-16.984-149.544-241.128-149.392V400c0 6.184-3.56 11.832-9.168 14.472-5.544 2.656-12.216 1.84-16.984-2.112L5.84 240.472C2.12 237.424-.016 232.88 0 228.08s2.168-9.344 5.888-12.376l207.48-170.28c4.784-3.904 11.392-4.656 16.968-2.048 5.576 2.656 9.144 8.28 9.144 14.456v89.816c92.984 2.952 165.496 32.856 212.168 87.488 75.968 88.888 59.016 218.08 58.216 223.456-1.184 7.832-6.936 13.592-14.824 13.592zM223.48 275.92h.032c160.112.096 221.296 54.16 256.232 101.904-5.112-38.248-20.032-84.36-52.504-122.016-43.168-50.048-112.72-76.424-203.768-76.424-8.84 0-16-7.16-16-16V91.496L41.256 228.176l166.216 137.952v-74.2c0-4.248 1.688-8.328 4.704-11.328 3-2.992 7.064-4.68 11.304-4.68z"/></svg>