<svg version="1.1" xmlns="http://www.w3.org/2000/svg" xmlns:xlink="http://www.w3.org/1999/xlink" id="action-redo" viewBox="0 0 512.02 514.032"><path d="M16.98 472.184c.168 0 .36 0 .544-.016 8.096-.264 13.2-6.544 13.888-14.608.544-5.936 16.488-149.544 240.624-149.392L272.54 400c0 6.184 3.56 11.832 9.168 14.472 5.544 2.656 12.216 1.84 16.984-2.112L506.18 240.472c3.72-3.048 5.856-7.592 5.84-12.392s-2.168-9.344-5.888-12.376l-207.48-170.28c-4.784-3.904-11.392-4.656-16.968-2.048-5.576 2.656-9.144 8.28-9.144 14.456l-.504 89.816c-92.976 2.944-164.984 32.856-211.664 87.48-75.968 88.888-59.016 218.08-58.216 223.456 1.184 7.84 6.936 13.6 14.824 13.6zM288.54 275.92h-.032c-160.104.096-221.296 54.16-256.232 101.912 5.112-38.248 20.032-84.36 52.504-122.016 43.168-50.048 112.72-76.424 203.768-76.424 8.84 0 16-7.16 16-16V91.504l166.216 136.672L304.54 366.128v-74.2c0-4.248-1.688-8.328-4.704-11.328-2.992-2.992-7.056-4.68-11.296-4.68z"/></svg>