<svg version="1.1" xmlns="http://www.w3.org/2000/svg" xmlns:xlink="http://www.w3.org/1999/xlink" id="anchor" viewBox="0 0 512.2716 514.032"><path d="M510.648 366.72l-41.144-75.648c-.064-.104-.048-.2-.112-.296l-2.936-5.072c-1.64-2.808-4.216-4.616-7.096-5.296-2.848-.704-5.992-.272-8.704 1.488l-4.92 3.168c-.096.056-.152.144-.248.208l-72.8 49.16c-5.44 3.504-7.208 10.84-3.968 16.456l3.272 3.6c3.24 5.592 10.632 5.824 16.08 2.32l43.52-29.592c-10.304 83-77.368 146.696-159.48 154.088v-320.8h64.024c8.832 0 16-7.168 16-16s-7.168-16-16-16h-64.72c-.12-.416-.224-.832-.384-1.232 28.552-6.64 49.848-32.184 49.848-62.768C320.88 28.88 292.008 0 256.376 0c-35.624 0-64.496 28.872-64.496 64.504 0 30.408 21.056 55.832 49.368 62.64-.168.44-.288.904-.424 1.36h-64.688c-8.832 0-16 7.168-16 16s7.168 16 16 16h63.992v320.792C158.04 473.904 91.048 410.232 80.72 327.24l43.472 29.56c5.44 3.504 12.832 3.272 16.072-2.32l3.28-3.6c3.24-5.608 1.472-12.952-3.976-16.456l-72.8-49.16c-.096-.072-.152-.16-.24-.208l-4.928-3.168c-2.704-1.76-5.848-2.184-8.704-1.488-2.872.68-5.456 2.496-7.096 5.296l-2.936 5.08c-.056.096-.048.192-.104.296L1.624 366.72c-3.248 5.584-1.472 12.936 3.976 16.448l4.56 1.712c5.44 3.496 12.128.32 15.376-5.272l23.952-44.488c14.688 102.36 102.552 178.912 206.64 178.912 104.032 0 191.96-76.544 206.68-178.856l23.92 44.432c3.248 5.592 9.944 8.768 15.384 5.272l4.56-1.712c5.448-3.512 7.224-10.864 3.976-16.448zM223.888 64.504c0-17.92 14.576-32.504 32.496-32.504s32.504 14.576 32.504 32.504-14.576 32.504-32.504 32.504c-17.912-.008-32.496-14.584-32.496-32.504z"/></svg>