<svg version="1.1" xmlns="http://www.w3.org/2000/svg" xmlns:xlink="http://www.w3.org/1999/xlink" id="arrow-left" viewBox="0 0 512 514.032"><path d="M256 1.016c-141.392 0-256 114.616-256 256 0 141.392 114.608 256 256 256 141.384 0 256-114.608 256-256 0-141.384-114.616-256-256-256zm0 480.504c-123.512 0-224-100.992-224-224.504s100.488-224 224-224 224 100.488 224 224S379.512 481.52 256 481.52zm112.16-240.672H187.928l57.88-57.88c6.248-6.248 6.248-16.376 0-22.624s-16.376-6.248-22.624 0l-94.504 97 94.504 97c3.128 3.128 7.216 4.688 11.312 4.688s8.184-1.56 11.312-4.688c6.248-6.248 6.248-16.376 0-22.624l-58.88-58.872H368.16c8.84 0 16-7.168 16-16s-7.16-16-16-16z"/></svg>