<svg version="1.1" xmlns="http://www.w3.org/2000/svg" xmlns:xlink="http://www.w3.org/1999/xlink" id="arrow-up" viewBox="0 0 512 514.032"><path d="M512 257.016c0-141.392-114.616-256-256-256-141.392 0-256 114.608-256 256 0 141.384 114.608 256 256 256 141.384 0 256-114.616 256-256zm-480.496 0c0-123.512 100.984-224 224.496-224s224 100.488 224 224-100.488 224-224 224-224.496-100.488-224.496-224zm240.664 112.16V188.944l57.88 57.88c6.248 6.248 16.376 6.248 22.624 0s6.248-16.376 0-22.624l-97-94.504-97 94.504c-3.128 3.128-4.688 7.216-4.688 11.312s1.56 8.184 4.688 11.312c6.248 6.248 16.376 6.248 22.624 0l58.872-58.88v181.232c0 8.84 7.168 16 16 16s16-7.16 16-16z"/></svg>