<svg version="1.1" xmlns="http://www.w3.org/2000/svg" xmlns:xlink="http://www.w3.org/1999/xlink" id="arrow-down" viewBox="0 0 512 514.032"><path d="M0 257.016c0 141.392 114.616 256 256 256 141.392 0 256-114.608 256-256 0-141.384-114.608-256-256-256-141.384 0-256 114.616-256 256zm480.504 0c0 123.512-100.984 224-224.504 224s-224-100.488-224-224 100.488-224 224-224 224.504 100.488 224.504 224zm-240.672-112.16V325.08l-57.88-57.88c-6.248-6.248-16.376-6.248-22.624 0s-6.248 16.376 0 22.624l97.008 94.504 97-94.504c3.128-3.128 4.688-7.216 4.688-11.312s-1.56-8.184-4.688-11.312c-6.248-6.248-16.376-6.248-22.624 0l-58.872 58.88V144.856c0-8.84-7.168-16-16-16s-16.008 7.16-16.008 16z"/></svg>