<svg version="1.1" xmlns="http://www.w3.org/2000/svg" xmlns:xlink="http://www.w3.org/1999/xlink" id="bag" viewBox="0 0 512 514.032"><path d="M432 80.368h-95.592V49.68c0-26.472-21.528-48-48-48h-63.816c-26.472 0-48 21.528-48 48v30.688H80c-17.672 0-32 14.328-32 32v367.984c0 17.672 14.328 32 32 32h352c17.672 0 32-14.328 32-32V112.368c0-17.672-14.328-32-32-32zM208.592 49.68c0-8.832 7.168-16 16-16h63.816c8.832 0 16 7.168 16 16v30.688h-95.816V49.68zM432 480.352H80V112.368h96.592v32.92s-.424 15.984 15.904 15.984c18 0 16.096-15.984 16.096-15.984v-32.92h95.816v32.92s-1.064 16.064 15.936 16.064c16 0 16.064-16.064 16.064-16.064v-32.92H432v367.984z"/></svg>