<svg version="1.1" xmlns="http://www.w3.org/2000/svg" xmlns:xlink="http://www.w3.org/1999/xlink" id="ban" viewBox="0 0 512 514.032"><path d="M256 1.016c-141.384 0-256 114.616-256 256 0 141.392 114.616 256 256 256 141.392 0 256-114.608 256-256 0-141.384-114.608-256-256-256zm-224 256c0-56.136 20.808-107.48 55.048-146.832l315.928 315.928C363.608 460.552 312.208 481.52 256 481.52c-123.512 0-224-100.992-224-224.504zm393.512 146.392L109.704 87.6C148.992 53.632 200.12 33.016 256 33.016c123.512 0 224 100.488 224 224 0 55.832-20.576 107.016-54.488 146.392z"/></svg>