<svg version="1.1" xmlns="http://www.w3.org/2000/svg" xmlns:xlink="http://www.w3.org/1999/xlink" id="bar-chart" viewBox="0 0 512 514.032"><path d="M136.032 161.008H24c-8.84 0-16 7.16-16 16v320.008c0 8.84 7.16 16 16 16h112.032c8.84 0 16-7.16 16-16V177.008c0-8.84-7.16-16-16-16zm-16 320.008H40V193.008h80.032v288.008zm191.84-224.872h-112.04c-8.84 0-16 7.16-16 16v224.872c0 8.84 7.16 16 16 16h112.04c8.84 0 16-7.16 16-16V272.144c0-8.848-7.152-16-16-16zm-16 224.872h-80.04V288.144h80.04v192.872zM488 1.016H376.136c-8.84 0-16 7.16-16 16v480c0 8.84 7.16 16 16 16H488c8.84 0 16-7.16 16-16v-480c0-8.84-7.16-16-16-16zm-16 480h-79.864v-448H472v448z"/></svg>