<svg version="1.1" xmlns="http://www.w3.org/2000/svg" xmlns:xlink="http://www.w3.org/1999/xlink" id="basket" viewBox="0 0 512 514.032"><path d="M507.832 143.016c-2.984-4.232-7.832-6.752-13-6.752H155.264l-25.704-88.64C119.48 12.72 95.528 8.952 85.704 8.952H17.168C8.384 8.952 1.28 16.064 1.28 24.84s7.112 15.888 15.888 15.888h68.528c2.168 0 8.784 0 13.296 15.592l88.424 324.968c1.92 6.856 8.168 11.592 15.296 11.592h215.984c6.704 0 12.688-4.2 14.952-10.512l76.128-224.84c1.752-4.872 1.024-10.296-1.944-14.512zm-100.32 218.096H214.768l-50.576-193.064H472.24l-64.728 193.064zM376 425.08c-22.096 0-40 17.904-40 40s17.904 40 40 40 40-17.904 40-40-17.904-40-40-40zm-144 0c-22.096 0-40 17.904-40 40s17.904 40 40 40 40-17.904 40-40-17.904-40-40-40z"/></svg>