<svg version="1.1" xmlns="http://www.w3.org/2000/svg" xmlns:xlink="http://www.w3.org/1999/xlink" id="bell" viewBox="0 0 512 514.032"><path d="M452.808 356.96c-18.672-22.712-44.24-54.872-44.24-87.68V164.8c0-90.008-67.32-163.24-153.344-163.24-86.04 0-152.832 73.232-152.832 163.24v104.48c0 32.256-27.744 62.744-45.336 86.4-15.824 21.256-28.312 38.048-19.88 54.832 7.416 14.768 25.984 16.664 41.328 16.664h91.68c.024 47.104 38.224 85.288 85.336 85.288 47.12 0 85.32-38.184 85.344-85.288h93.832c9.76 0 32.576 0 40.432-16.6 7.928-16.808-4.76-32.256-22.32-53.616zM255.504 478.944c-28.608 0-51.816-23.176-51.856-51.768H307.36c-.04 28.592-23.232 51.768-51.856 51.768zm179.192-85.832H78.504c-2.448 0-4.496-.08-6.184-.184 3.296-5.104 8.136-11.624 12.072-16.928 19.496-26.2 52.072-63.184 52.072-106.712v-104.48c0-71.232 51.52-129.176 118.76-129.176 67.24 0 119.28 57.944 119.28 129.176v104.48c0 45.008 30.04 82.624 51.984 109.304 3.696 4.496 8.12 9.88 11.56 14.48-1.016.024-2.136.04-3.352.04z"/></svg>