<svg version="1.1" xmlns="http://www.w3.org/2000/svg" xmlns:xlink="http://www.w3.org/1999/xlink" id="book-open" viewBox="0 0 512.328 514.032"><path d="M476.208 1.792l-211.52 57.296c-5.376 1.44-17.048 1.424-22.408-.08L36.208 1.904C17.816-3.16 0 10.104 0 29.04v389.056c0 16.048 12.168 31.392 27.656 35.704l206.08 57.112c5.512 1.528 12.608 2.376 19.968 2.376 5.048 0 12.504-.392 19.36-2.264l211.512-57.296c15.528-4.2 27.752-19.512 27.752-35.624V29.04c.008-18.92-17.808-32.232-36.12-27.248zm-236.04 477.696L35.704 422.96c-1.544-.424-3.704-3.248-3.704-4.856V34.088l201.736 55.768c1.952.544 4.144.968 6.432 1.328v388.304zm240.168-61.384c0 1.576-2.592 4.328-4.128 4.752l-204.04 55.264V90.16c.296-.072.6-.112.896-.192l207.264-56.064v384.2zM321.168 184.168c1.44 0 2.904-.184 4.344-.592l111.968-31.512c8.512-2.408 13.472-11.232 11.08-19.736s-11.28-13.44-19.736-11.08L316.856 152.76c-8.512 2.408-13.472 11.232-11.08 19.736 1.984 7.064 8.408 11.672 15.392 11.672zm0 96c1.44 0 2.904-.184 4.344-.592l111.968-31.512c8.512-2.408 13.472-11.232 11.08-19.736s-11.28-13.44-19.736-11.08L316.856 248.76c-8.512 2.408-13.472 11.232-11.08 19.728 1.984 7.064 8.408 11.68 15.392 11.68zm0 96c1.44 0 2.904-.184 4.344-.592l111.968-31.512c8.512-2.408 13.472-11.232 11.08-19.736s-11.28-13.44-19.736-11.08L316.856 344.76c-8.512 2.408-13.472 11.232-11.08 19.736 1.984 7.056 8.408 11.672 15.392 11.672zM197.48 152.76L85.512 121.248c-8.456-2.36-17.344 2.576-19.736 11.08s2.56 17.328 11.08 19.736l111.968 31.512c1.44.408 2.904.592 4.344.592 6.984 0 13.408-4.608 15.392-11.672 2.392-8.496-2.56-17.328-11.08-19.736zm0 96L85.512 217.248c-8.456-2.36-17.344 2.576-19.736 11.08s2.56 17.328 11.08 19.736l111.968 31.512c1.44.408 2.904.592 4.344.592 6.984 0 13.408-4.608 15.392-11.672 2.392-8.496-2.56-17.328-11.08-19.736zm0 96L85.512 313.248c-8.456-2.36-17.344 2.576-19.736 11.08s2.56 17.328 11.08 19.736l111.968 31.512c1.44.408 2.904.592 4.344.592 6.984 0 13.408-4.608 15.392-11.672 2.392-8.504-2.56-17.328-11.08-19.736z"/></svg>