<svg version="1.1" xmlns="http://www.w3.org/2000/svg" xmlns:xlink="http://www.w3.org/1999/xlink" id="briefcase" viewBox="0 0 512.016 514.032"><path d="M480.016 96.752h-127.8v-31c0-26.472-21.528-48-48-48H208c-26.472 0-48 21.528-48 48v31H32.016c-17.592 0-32 14.408-32 32V240.88H0v32h.016v191.408c0 17.592 14.408 32 32 32h448c17.592 0 32-14.408 32-32V128.752c0-17.592-14.408-32-32-32zM192 65.752c0-8.832 7.168-16 16-16h96.216c8.832 0 16 7.168 16 16v31H192v-31zm-159.984 63h448V240.88H303.832v-16.376c0-17.64-14.36-32-32-32H239.96c-17.64 0-32 14.36-32 32v16.376H32.016V128.752zm239.84 176.328h-31.904v-80.576h31.872l.032 80.576zm-239.84 159.2V272.872h175.936v32.2c0 17.64 14.36 32 32 32h31.872c17.64 0 32-14.36 32-32v-32.2h176.184V464.28H32.016z"/></svg>