<svg version="1.1" xmlns="http://www.w3.org/2000/svg" xmlns:xlink="http://www.w3.org/1999/xlink" id="bubbles" viewBox="0 0 512.344 514.032"><path d="M212.584 340.688c115.472 0 204.952-65.952 203.576-163.816 0-86.592-91.608-155.816-207.08-155.816C93.592 21.056 0 90.28 0 176.872c0 53.936 26.456 111.44 81.704 139.688 0 .328-.096.576-.096.936 0 23.44-19.512 55.576-27.2 68.832h.032c-.608 1.44-.976 3-.976 4.672 0 6.56 5.288 11.832 11.848 11.832.968 0 2.544-.2 3.112-.2.16 0 .216 0 .2.048 40.832-6.672 101.128-52.624 110.064-63.512 9.168 1.36 15.36 1.576 23.04 1.576 3.264-.008 6.736-.056 10.856-.056zm-47.064-34.44l-20.488 17.016c-4.752 5.488-25.4 22.72-43.176 33.904 10.824-30.84 10.352-40.608 10.352-40.608l1.504-19.576-17.44-8.904c-44.336-22.672-64.264-69.872-64.264-111.2 0-68.832 79.432-123.816 177.08-123.816 97.64 0 175.08 54.984 175.08 123.816-.304 76.304-72.936 132.312-170.576 132.312 0 0-14.904.576-30.2-1.688l-17.872-1.256zm346.824-.136c0-43.368-16.944-76.44-59.224-101.256-1.032 11.536-4.32 23.912-7.896 34.784 27.328 18.888 35.128 38.28 35.128 66.472 0 34.512-16.08 59.544-53.456 78.672l-15.92 7.904s1.656 41 4.112 51.376c-31.224-22.888-41.952-42-41.952-42l-16.832 2.592c-6.656.968-24.656.984-24.656.984-43.472 0-75.688-10.36-103.168-31.872 7.464-.456-44.592-.44-45.752.576 31.784 38.816 83.736 63.296 148.92 63.296 3.544 0 6.544.032 9.36.032 6.64 0 12-.184 19.92-1.344 7.744 9.392 51.112 50.752 86.408 56.504-.016-.032.032-.032.184-.032.472 0 1.84.168 2.672.168 5.672 0 10.248-4.56 10.248-10.232 0-1.44-.328-2.8-.84-4.032h.032c-6.64-11.44-17.064-44.872-17.064-65.128 0-.312-.096-.528-.096-.816 47.752-24.416 69.872-60.04 69.872-106.648z"/></svg>