<svg version="1.1" xmlns="http://www.w3.org/2000/svg" xmlns:xlink="http://www.w3.org/1999/xlink" id="bulb" viewBox="0 0 512 514.032"><path d="M255.992 1.016c-99.016 0-176.56 80.552-176.56 179.568 0 74.6 36.64 110.128 65.592 136.064 18.64 16.712 31.184 26.776 31.184 39.176v27.128c0 .696.096 1.376.184 2.064h-.36v46.312c.008 48.856 31.6 81.688 80.536 81.688 47.232 0 79.472-32.832 79.472-81.688v-46.312h-.464c.088-.688.208-1.368.208-2.064v-27.128c0-18.88 14.016-30.296 35.264-48.848 28.752-25.104 61.512-56.344 61.512-126.392.008-99.016-77.552-179.568-176.568-179.568zm-.608 480c-29.952 0-47.344-18.576-47.344-49.688l-.232-21.336c11.512 3.936 27.192 7.024 48.192 7.024 20.712 0 36.424-3.312 48.04-7.384v21.696c0 31.576-17.624 49.688-48.656 49.688zm94.624-198.144c-21.736 18.984-46.216 38.608-46.216 72.952v20.216c-7.592 4.24-21.592 9.28-48.064 9.28-27.784 0-40.96-4.928-47.512-8.736v-20.768c0-27.304-21.344-44.648-41.84-63.008-27.16-24.336-54.936-51.92-54.936-112.232-.008-81.36 63.192-147.56 144.552-147.56 81.376 0 144.576 66.2 144.576 147.568 0 55.512-24.232 79.288-50.56 102.288z"/></svg>