<svg version="1.1" xmlns="http://www.w3.org/2000/svg" xmlns:xlink="http://www.w3.org/1999/xlink" id="calculator" viewBox="0 0 512 514.032"><path d="M480 .968H32c-17.592 0-32 14.408-32 32v448.096c0 17.592 14.408 32 32 32h448c17.592 0 32-14.408 32-32V32.968c0-17.592-14.408-32-32-32zm0 480.096H32V32.968h448v448.096zM112 177.168h32v32c0 8.832 7.168 16 16 16s16-7.168 16-16v-32h32c8.832 0 16-7.168 16-16s-7.168-16-16-16h-32v-32c0-8.832-7.168-16-16-16s-16 7.168-16 16v32h-32c-8.832 0-16 7.168-16 16s7.168 16 16 16zm104.568 119.424c-6.248-6.248-16.376-6.248-22.624 0L160 330.528l-33.944-33.936c-6.248-6.248-16.376-6.248-22.632 0-6.248 6.248-6.248 16.384 0 22.632l33.936 33.936-33.936 33.936c-6.248 6.248-6.248 16.384 0 22.632 6.248 6.248 16.376 6.248 22.632 0L160 375.8l33.944 33.936c6.248 6.248 16.376 6.248 22.624 0 6.248-6.248 6.248-16.384 0-22.632l-33.936-33.936 33.936-33.936c6.248-6.256 6.248-16.384 0-22.64zM304 177.168h96c8.832 0 16-7.168 16-16s-7.168-16-16-16h-96c-8.832 0-16 7.168-16 16s7.168 16 16 16zm0 160h96c8.832 0 16-7.168 16-16s-7.168-16-16-16h-96c-8.832 0-16 7.168-16 16s7.168 16 16 16zm0 64h96c8.832 0 16-7.168 16-16s-7.168-16-16-16h-96c-8.832 0-16 7.168-16 16s7.168 16 16 16z"/></svg>