<svg version="1.1" xmlns="http://www.w3.org/2000/svg" xmlns:xlink="http://www.w3.org/1999/xlink" id="calendar" viewBox="0 0 512 514.032"><path d="M480 48.96H351.888V17.072c0-8.84-7.16-16-16-16s-16 7.16-16 16v31.88h-128v-31.88c0-8.84-7.16-16-16-16s-16 7.16-16 16v31.88H32c-17.672 0-32 14.328-32 32v400c0 17.672 14.328 32 32 32h448c17.672 0 32-14.328 32-32v-400c0-17.664-14.328-31.992-32-31.992zm0 431.992H32v-400h127.888v16.12c0 8.84 7.16 16 16 16s16-7.16 16-16V80.96h128v16.12c0 8.84 7.16 16 16 16s16-7.16 16-16V80.96H480v399.992zM368 256.96h32c8.832 0 16-7.168 16-16v-32c0-8.832-7.168-16-16-16h-32c-8.832 0-16 7.168-16 16v32c0 8.832 7.168 16 16 16zm0 127.992h32c8.832 0 16-7.16 16-16v-32c0-8.832-7.168-16-16-16h-32c-8.832 0-16 7.168-16 16v32c0 8.848 7.168 16 16 16zm-96-64h-32c-8.832 0-16 7.168-16 16v32c0 8.84 7.168 16 16 16h32c8.832 0 16-7.16 16-16v-32c0-8.824-7.168-16-16-16zm0-127.992h-32c-8.832 0-16 7.168-16 16v32c0 8.832 7.168 16 16 16h32c8.832 0 16-7.168 16-16v-32c0-8.84-7.168-16-16-16zm-128 0h-32c-8.832 0-16 7.168-16 16v32c0 8.832 7.168 16 16 16h32c8.832 0 16-7.168 16-16v-32c0-8.84-7.168-16-16-16zm0 127.992h-32c-8.832 0-16 7.168-16 16v32c0 8.84 7.168 16 16 16h32c8.832 0 16-7.16 16-16v-32c0-8.824-7.168-16-16-16z"/></svg>