<svg version="1.1" xmlns="http://www.w3.org/2000/svg" xmlns:xlink="http://www.w3.org/1999/xlink" id="call-in" viewBox="0 0 513.0625 514.032"><path d="M500.706 386.824c-7.832-5.504-93.528-62.488-104.032-68.904-4.576-2.8-10.16-4.168-16.232-4.168-7.832 0-16.504 2.28-24.968 6.736-8.248 4.344-33.232 18.56-45.456 25.544-10.768-7.56-36.064-26.936-75.92-66.832-39.608-39.592-59.16-65.096-66.768-75.92 6.968-12.216 21.168-37.2 25.488-45.424 8.184-15.504 9.112-30.984 2.472-41.424-6.232-9.84-62.984-95.904-68.84-104C120.938 4.792 111.042.664 100.306.664c-8.472 0-17.456 2.56-25.248 7.984C74.306 9.184-.99 63.776.01 94.824c2.776 87.216 87.528 189.712 158.136 260.344s173.112 155.408 260.672 158.2h.72c30.656 0 84.544-74.344 85.064-75.08 14.136-20.2 8.984-42.44-3.896-51.464zm-22.104 32.824c-20.296 28.112-49.112 57.472-60.392 61.672-60.016-2.816-144.232-55.56-237.44-148.784C87.57 239.304 34.834 155.184 32.05 95.368c4.048-11.312 33.408-40.312 61.264-60.456 2.064-1.424 4.608-2.248 6.984-2.248.528 0 .968.048 1.312.112 9 13.08 57.312 86.216 66.08 99.888.032 1.44-.456 5.096-3.2 10.312-2.92 5.56-12.016 21.768-24.952 44.44l-10.064 17.64 11.672 16.624c8.704 12.36 29.408 39.232 70.312 80.144 41.08 41.096 67.856 61.736 80.168 70.392l16.624 11.672 17.64-10.08c17.096-9.768 37.752-21.472 44.472-25 5.392-2.84 9.08-3.064 10.08-3.064.16 0 .296 0 .408.016 12.248 7.688 86.968 57.296 100.16 66.344.216 1.28.016 4.064-2.408 7.544zM322.45 189.272c2.064 2.088 4.968 3.36 8.192 3.272l5.856-.136c.112 0 .192-.048.32-.056l114.752.504c6.456-.152 11.808-5.496 11.96-11.968l.008-8.208c-.976-7.616-6.968-12.08-13.432-11.936l-75.752-.2 130.976-130.8c6.248-6.248 6.248-16.384 0-22.632-6.248-6.24-16.376-6.24-22.624 0L351.37 138.272l.44-77.416c.144-6.464-4.984-12.096-11.448-11.944l-8.208.008c-6.48.16-11.832 4.008-11.968 10.472l-.328 115.504c0 .112.44.192.44.304l-.64 5.856c-.064 3.248.696 6.136 2.792 8.216z"/></svg>