<svg version="1.1" xmlns="http://www.w3.org/2000/svg" xmlns:xlink="http://www.w3.org/1999/xlink" id="call-end" viewBox="0 0 512 514.032"><path d="M480.848 100.792c0 .528-.048.968-.112 1.312-13.08 9-86.216 57.312-99.888 66.08-1.44.032-5.096-.456-10.312-3.2-5.56-2.92-21.768-12.016-44.44-24.952l-17.64-10.064-16.624 11.672c-12.36 8.704-39.232 29.408-80.144 70.312-41.088 41.08-61.728 67.856-70.384 80.168l-11.672 16.624 10.08 17.64c9.768 17.096 21.472 37.752 25 44.472 2.84 5.392 3.064 9.08 3.064 10.08 0 .16 0 .296-.016.408-7.68 12.248-57.296 86.968-66.336 100.16-1.28.216-4.064.016-7.544-2.408-28.128-20.304-57.48-49.12-61.688-60.4 2.816-60.016 55.56-144.232 148.784-237.44 93.232-93.2 177.36-145.936 237.176-148.72 11.312 4.048 40.312 33.408 60.456 61.264 1.416 2.064 2.24 4.616 2.24 6.992m31 0c0-8.472-2.56-17.456-7.984-25.248-.528-.752-54.128-76.048-85.168-75.048-87.216 2.776-189.72 87.528-260.352 158.136C87.728 229.24 2.944 331.744.152 419.304v.72c0 30.656 74.336 84.544 75.072 85.064 20.2 14.144 42.44 8.984 51.472-3.888 5.504-7.832 62.488-93.528 68.904-104.032 2.8-4.576 4.168-10.16 4.168-16.232 0-7.832-2.288-16.504-6.736-24.968-4.344-8.248-18.56-33.232-25.544-45.456 7.56-10.768 26.936-36.064 66.832-75.92 39.592-39.608 65.096-59.16 75.92-66.768 12.216 6.968 37.2 21.168 45.424 25.488 15.504 8.184 30.984 9.112 41.424 2.472 9.84-6.232 94.904-62.984 103-68.84 7.64-5.528 11.76-15.424 11.76-26.152z"/></svg>