<svg version="1.1" xmlns="http://www.w3.org/2000/svg" xmlns:xlink="http://www.w3.org/1999/xlink" id="camcorder" viewBox="0 0 512 514.032"><path d="M319.064 112.704c.64 0 1.16.504 1.16 1.12v63.936c0 11.832 6.528 22.712 17 28.264 4.704 2.504 9.856 3.736 15 3.736 6.28 0 13.528-1.84 18.92-5.496L480 142.648v228.208l-109.456-59.76c-5.488-3.832-11.888-5.768-18.328-5.768-5.064 0-10.128 1.2-14.784 3.608-10.56 5.512-17.2 16.44-17.216 28.344l-.08 62.92c0 .624-.504 1.128-1.144 1.128H33.144c-.64 0-1.144-.496-1.144-1.112l.08-286.392c0-.624.504-1.12 1.144-1.12h285.84m176.12-16.016c-3.408 0-10.144 1.008-13.984 4.832l-128.984 76.24v-63.936c0-18.28-14.84-33.12-33.16-33.12H33.216C14.88 80.704.072 95.536.072 113.824L0 400.2c0 18.28 14.816 33.128 33.144 33.128H319c18.328 0 33.144-14.84 33.144-33.128l.08-62.872 131.488 76.656c3.856 3.84 8.128 3.344 11.544 3.344 3.544 0 6.184-1.08 6.512-1.216C507.984 413.52 512 407.52 512 400.768V113.28c0-6.752-4.016-12.776-10.232-15.328-.36-.16-3.016-1.264-6.584-1.264z"/></svg>