<svg version="1.1" xmlns="http://www.w3.org/2000/svg" xmlns:xlink="http://www.w3.org/1999/xlink" id="camera" viewBox="0 0 512 514.032"><path d="M464 113.016h-73.592l-38.408-64H160l-38.4 64H48c-16 0-48 16-48 47.504v256.496c0 26.504 24 48 44.664 48H465c21 0 47-22.496 47-47.496V161.016c0-16-16-48-48-48zm16 304.504c0 6.312-10.232 15.144-15 15.504H44.76c-3.704-.304-12.76-7.52-12.76-16.008V160.52c0-10.136 13.616-15.248 16-15.504h91.72l9.32-15.536 29.08-48.464h156.824l28.56 48.472 8.8 15.528H464c11.28 0 15.84 14.736 16 16V417.52zM256 161.016c-61.856 0-112 50.144-112 112s50.144 112 112 112 112-50.144 112-112-50.144-112-112-112zm0 192c-44.112 0-80-35.888-80-80s35.888-80 80-80 80 35.888 80 80-35.888 80-80 80z"/></svg>