<svg version="1.1" xmlns="http://www.w3.org/2000/svg" xmlns:xlink="http://www.w3.org/1999/xlink" id="check" viewBox="0 0 512 514.032"><path d="M256 1.016c-141.384 0-256 114.616-256 256 0 141.392 114.616 256 256 256 141.392 0 256-114.608 256-256 0-141.384-114.608-256-256-256zm0 480.504c-123.512 0-224-100.992-224-224.504s100.488-224 224-224 224 100.488 224 224S379.512 481.52 256 481.52zm102.168-318.176l-150.2 151.144-67.64-67.64c-6.248-6.248-16.376-6.248-22.632 0-6.248 6.248-6.248 16.376 0 22.624l79.192 79.2c6.248 6.24 16.376 6.24 22.632 0 .72-.72 1.336-1.504 1.896-2.32l159.392-160.376c6.24-6.248 6.24-16.376 0-22.632-6.256-6.248-16.384-6.248-22.64 0z"/></svg>