<svg version="1.1" xmlns="http://www.w3.org/2000/svg" xmlns:xlink="http://www.w3.org/1999/xlink" id="clock" viewBox="0 0 512 514.032"><path d="M256 1.016c-141.384 0-256 114.616-256 256 0 141.392 114.616 256 256 256 141.392 0 256-114.608 256-256 0-141.384-114.608-256-256-256zm0 480.504c-123.512 0-224-100.992-224-224.504s100.488-224 224-224 224 100.488 224 224S379.512 481.52 256 481.52zm16-231V97.016c0-8.832-7.168-16-16-16s-16 7.168-16 16v160c0 4.528 1.896 8.6 4.928 11.504.264.312.48.648.768.944l79.192 79.2c6.248 6.24 16.376 6.24 22.624 0 6.248-6.248 6.248-16.384 0-22.632L272 250.52z"/></svg>