<svg version="1.1" xmlns="http://www.w3.org/2000/svg" xmlns:xlink="http://www.w3.org/1999/xlink" id="cloud-download" viewBox="0 0 512 514.032"><path d="M381.512 131.016c-22.312-59.216-70.28-96.72-142.728-96.72-92.192 0-156.696 68.456-162.24 157.768C32.088 206.28 0 251.624 0 302.984c0 62.872 49.424 115.984 107.912 115.984h14.224c8.832 0 16-7.16 16-16s-7.168-16-16-16h-14.224c-41.152 0-76.416-38.456-76.416-83.984 0-40.232 28.208-76.528 63.592-82.608l14.52-2.504-1.296-14.672-.12-.184c.008-77.936 51.304-136.72 130.592-136.72 63.552 0 99.256 31.312 115.776 84.72l3.416 11.016 11.536.248c59.432 1.248 111.544 49.472 111.544 109.392 0 54.528-36.136 115.296-90.856 115.296h-4.552c-8.832 0-16 7.16-16 16s7.168 16 16 16v-.048c80-2.112 126.12-78.544 126.12-147.248-.016-73.864-57.896-132.872-130.256-140.656zm-58.344 257.736c-4.472-4.672-11.704-4.672-16.168 0l-35.192 38.824V266.504c0-8.832-7.168-16-16-16s-16 7.168-16 16V427.72l-34.056-37.968c-4.472-4.672-11.72-5.672-16.184-1l-4.032 2.208c-4.472 4.688-4.472 12.24 0 16.912l57.752 63.872c.08.08.096.184.168.264l4.048 4.232c2.248 2.344 5.184 3.504 8.144 3.488 2.936.016 5.888-1.144 8.112-3.488l4.048-4.232c.08-.08.12-.168.184-.264l59.216-64.872c4.472-4.672 4.472-10.224 0-14.912l-4.04-3.208z"/></svg>