<svg version="1.1" xmlns="http://www.w3.org/2000/svg" xmlns:xlink="http://www.w3.org/1999/xlink" id="control-start" viewBox="0 0 512 514.032"><path d="M487.472 33.712c0-11.616-6.296-22.328-16.456-27.968-4.84-2.696-10.184-4.032-15.544-4.032-5.856 0-11.736 1.616-16.888 4.824L70.72 229.832c-7.976 4.952-13.256 13.104-14.688 22.2V17.016c0-8.832-7.168-16-16-16s-16 7.168-16 16v480c0 8.832 7.168 16 16 16s16-7.168 16-16V261.984c1.44 9.104 6.72 17.256 14.688 22.192l368.36 223.32c5.16 3.216 11.032 4.832 16.888 4.832 5.36 0 10.704-1.344 15.544-4.032 10.16-5.64 16.456-16.344 16.456-27.968l-.496-446.616zM87.6 257.008L455.472 33.712l.504 446.608L87.6 257.008z"/></svg>