<svg version="1.1" xmlns="http://www.w3.org/2000/svg" xmlns:xlink="http://www.w3.org/1999/xlink" id="control-play" viewBox="0 0 512 514.032"><path d="M72.312 33.712l367.872 223.296L71.816 480.32l.496-446.608m0-32c-5.36 0-10.704 1.336-15.544 4.032-10.16 5.64-16.456 16.352-16.456 27.968l-.496 446.608c0 11.624 6.296 22.328 16.456 27.968 4.84 2.688 10.184 4.032 15.544 4.032 5.856 0 11.736-1.608 16.888-4.832l368.36-223.312c9.408-5.832 15.128-16.112 15.128-27.168s-5.72-21.336-15.128-27.176L89.2 6.528c-5.152-3.2-11.032-4.816-16.888-4.816z"/></svg>