<svg version="1.1" xmlns="http://www.w3.org/2000/svg" xmlns:xlink="http://www.w3.org/1999/xlink" id="crop" viewBox="0 0 512 514.032"><path d="M496 401.016h-64V104.064l59.728-59.648c6.24-6.248 6.24-16.384 0-22.632-6.248-6.248-16.384-6.248-22.632 0l-59.304 59.232H112v-64c0-8.84-7.16-16-16-16s-16 7.16-16 16v64H16c-8.84 0-16 7.16-16 16 0 8.832 7.16 16 16 16h64v304c0 1.472.472 2.8.84 4.144.16.608.128 1.232.36 1.816 1.608 4.032 4.8 7.216 8.832 8.84.688.28 1.44.248 2.144.424 1.264.32 2.464.776 3.824.776h304v64c0 8.84 7.16 16 16 16s16-7.16 16-16v-64h64c8.84 0 16-7.16 16-16s-7.16-16-16-16zm-118.256-288L112 378.408V113.016h265.744zm-243.104 288L400 136.024v264.992H134.64z"/></svg>