<svg version="1.1" xmlns="http://www.w3.org/2000/svg" xmlns:xlink="http://www.w3.org/1999/xlink" id="cup" viewBox="0 0 512.136 514.032"><path d="M416.344 208.912c-4.168 0-17.6-.08-32.152-.184l.056-31.984c0-17.672-14.328-32-32-32L32 144.664c-17.672 0-32 14.328-32 32v240.472c0 53.016 42.984 96 96 96h192.328c53.016 0 95.504-42.984 95.504-96l.032-16.424c14.512.112 29.304.2 32.488.2 52.888 0 95.784-42.52 95.784-95.536-.008-53.024-42.904-96.464-95.792-96.464zm-64.512 208.224c0 35.296-28.2 64-63.504 64H96c-35.296 0-64-28.704-64-64l-.048-240.472H32l320.248.096-.416 240.376zm64.512-47.76c-3.176 0-17.944-.096-32.432-.2l.224-128.408c14.56.104 28.024.184 32.2.184 36.56 0 64.312 27.272 64.312 63.92s-27.744 64.504-64.304 64.504zM288 112.896c8.832 0 16-7.168 16-16v-80c0-8.832-7.168-16-16-16s-16 7.168-16 16v80c0 8.84 7.168 16 16 16zm-192 0c8.832 0 16-7.168 16-16v-80c0-8.832-7.168-16-16-16s-16 7.168-16 16v80c0 8.84 7.168 16 16 16zm96 0c8.832 0 16-7.168 16-16v-80c0-8.832-7.168-16-16-16s-16 7.168-16 16v80c0 8.84 7.168 16 16 16z"/></svg>