<svg version="1.1" xmlns="http://www.w3.org/2000/svg" xmlns:xlink="http://www.w3.org/1999/xlink" id="diamond" viewBox="0 0 512 514.032"><path d="M509.36 148.752l-69.936-133.72C435.344 7.232 424.792.856 416 .856H255.032c-.176-.008-.352-.056-.528-.064-.144 0-.28.056-.424.064H96c-8.8 0-19.376 6.36-23.512 14.128L2.736 146.128c-4.144 7.768-3.312 19.968 1.816 27.128L244.56 507.832c2.576 3.592 6 5.408 9.416 5.408 3.392 0 6.792-1.768 9.384-5.296l243.952-332.128c5.192-7.096 6.128-19.272 2.048-27.064zm-38.176-3.92h-85.728l34.328-98.304 51.4 98.304zM287.672 32.856h102.984l-31.944 91.464-71.04-91.464zm46.448 111.976H185.296l70.336-101.048 78.488 101.048zM156.944 129.56l-32.088-96.704h99.408l-67.32 96.704zm183.432 47.272L254.36 423.104l-81.728-246.272h167.744zM218.464 416.56L46.496 176.832h92.416l79.552 239.728zm155.808-239.728h92.584l-176.488 240.28 83.904-240.28zM94.24 42.224l34.048 102.608H39.664L94.24 42.224z"/></svg>