<svg version="1.1" xmlns="http://www.w3.org/2000/svg" xmlns:xlink="http://www.w3.org/1999/xlink" id="direction" viewBox="0 0 512 514.032"><path d="M483.456 150.096l-89.56-96c-3.04-3.24-7.272-5.08-11.712-5.08h-133.56l-.504-33c0-8.28-7.168-15-16-15s-15 6.72-15 15l-.488 33H40.248c-8.84 0-16 7.16-16 16v192c0 8.84 7.16 16 16 16h176.168v225c0 8.28 7.168 15 16 15s16-6.72 16-15v-225h133.768c4.44 0 8.672-1.84 11.704-5.08l89.56-96c5.736-6.152 5.736-15.688.008-21.84zm-108.224 90.92H56.248v-160h318.984l74.64 80-74.64 80z"/></svg>