<svg version="1.1" xmlns="http://www.w3.org/2000/svg" xmlns:xlink="http://www.w3.org/1999/xlink" id="dislike" viewBox="0 0 512.7153 514.032"><path d="M208.083 1.136c145.416 0 146.544 6.032 164.552 19.592 9.552 7.184 27.576 12.168 93.416 16.456 4.785.312 9.32 2.144 12.37 5.84 1.4 1.704 34.295 49.68 34.295 126.512 0 75.72-23.544 110.24-24.552 111.848-2.92 4.672-8.048 7.512-13.56 7.512-54.056 0-128.992 69-179.376 189.456-8.712 20.832-10.504 34.528-42.512 34.528-18.2 0-38.6-13.032-48.688-29.752-20.656-34.16-10.168-107.528-.456-146.736-33 .264-92.735.72-121.16.72-39.535 0-65.695-23.576-66.503-58.048-.256-11.376 1.232-25.912 4.528-33.416C11.74 236.968.507 223.872.02 207.016c-.617-21.752 13.64-38.32 22.727-47.832-2.08-6.328-6.256-14.72-5.856-24.752C17.9 109.76 36.94 93.856 48.81 85.56c-.975-6.728-1.743-19.472.417-29.312 8.56-39.312 66.2-55.112 158.856-55.112zM457.555 69.64c-57.344-4.744-88-11.168-104.168-23.344-12.512-9.416-10.576-13.152-145.304-13.152-41.088 0-121.448 1.712-127.608 29.912-2.456 11.28 9.44 22.376 9.488 22.456 3.248 8.024-.376 17.424-8.296 20.888-.128.064-32.064 11.512-32.8 29.368-.472 11.416 7.36 18.272 7.544 18.552 4.657 7.232 2.953 17.16-4.11 22.08-.08.064-20.785 12.608-20.273 29.72.392 13.576 18.288 23.144 18.832 23.464 4 2.288 6.91 6.248 7.815 10.784.904 4.512-.112 9.264-2.912 12.92 0 0-8.136 12.936-7.848 25.056.592 25.968 28.512 26.784 34.504 26.784 40.36 0 144.015-.424 144.015-.424 5.592-.016 10.432 2.624 13.432 7.096s3.232 10.032 1.464 15.112c-15.623 45.016-24.35 115.64-9.855 139.768 4.264 7.112 5.248 14.216 21.248 14.216 2.216 0 7.496-1.752 13-14.872C319.22 338.12 399.075 264.12 464.483 257.448c5.64-12.864 16.248-39.52 16.248-87.896-.015-49.368-15.655-87.552-23.175-99.912z"/></svg>