<svg version="1.1" xmlns="http://www.w3.org/2000/svg" xmlns:xlink="http://www.w3.org/1999/xlink" id="drawer" viewBox="0 0 512.0801 514.032"><path d="M511.534 256.008L452.782 52.464c-1.92-6.936-8.232-11.736-15.424-11.736H69.686c-7.248 0-13.592 4.872-15.472 11.888L.518 245.792c-.992 3.752-.504 7.504 1 10.768-.864 2.896-1.472 5.912-1.472 9.088v175.656c0 17.672 14.328 32 32 32h448c17.672 0 32-14.328 32-32V265.648c0-.856-.184-1.664-.248-2.504.416-2.296.408-4.72-.264-7.136zM81.998 72.728h343.184l46.56 160.92H322.574c-.72 38.408-27.952 64.84-66.528 64.84s-65.312-26.44-66.032-64.84H37.126l44.872-160.92zm398.048 368.576h-448V265.648h131.56c13.968 40.216 47.888 64.84 92.44 64.84s78.968-24.624 92.936-64.84h131.064v175.656z"/></svg>