<svg version="1.1" xmlns="http://www.w3.org/2000/svg" xmlns:xlink="http://www.w3.org/1999/xlink" id="drop" viewBox="0 0 512 514.032"><path d="M255.2 512.368c-96.656 0-175.296-77.56-175.296-172.888 0-111.344 155.816-322.424 162.456-331.36 3-4.032 7.704-6.424 12.736-6.456 5.592-.048 9.784 2.296 12.832 6.28 6.704 8.768 164.168 216.112 164.168 331.528 0 95.336-79.36 172.896-176.896 172.896zm.176-467.504c-37.2 52.832-143.472 211.032-143.472 294.608 0 77.688 64.28 140.888 143.296 140.888 79.888 0 144.888-63.2 144.888-140.888.008-86.68-107.072-242.512-144.712-294.608z"/></svg>