<svg version="1.1" xmlns="http://www.w3.org/2000/svg" xmlns:xlink="http://www.w3.org/1999/xlink" id="earphones-alt" viewBox="0 0 512 514.032"><path d="M511.92 287.288c.048-10.528-1.608-50.248-2.872-61.608C494.488 95.304 388.672.68 257.456.68 120.784.68 10.048 105.992 2.536 245.632c-.16 3.048-1.28 24.672-1.36 37.544l-.04 7.16C.48 293.296.08 296.352.08 299.504v107.328c0 23.44 19.064 42.504 42.504 42.504h43.144c23.44 0 42.512-19.064 42.512-42.504v-107.32c0-23.44-19.08-42.504-42.512-42.504H42.576c-2.944 0-5.816.304-8.592.872.24-5.192.456-9.288.512-10.528C41.08 124.96 138.064 32.68 257.456 32.68c114.64 0 207.064 82.672 219.784 196.56.536 4.752 1.224 16.832 1.776 28.96-3.096-.72-6.288-1.192-9.6-1.192h-42.64c-23.44 0-42.504 19.064-42.504 42.504v106.832c0 16.184 9.2 30.128 22.544 37.296l-102.72 40.328v-2.608c0-8.832-7.168-16-16-16h-48c-8.832 0-16 7.168-16 16v16c0 8.832 7.168 16 16 16h48c.136 0 .256-.04.392-.04l28.68-.112 164.776-64.688c2.16-.896 3.992-2.232 5.496-3.832 14.424-6.808 24.496-21.368 24.496-38.344V299.512c0-2.608-.32-5.144-.776-7.616.44-1.472.752-3 .76-4.608zm-469.344 1.72H85.72c5.8 0 10.512 4.704 10.512 10.504V406.84c0 5.8-4.72 10.504-10.512 10.504H42.576c-5.8 0-10.504-4.704-10.504-10.504V299.512c.008-5.8 4.712-10.504 10.504-10.504zm373.688 10.504c0-5.8 4.704-10.504 10.504-10.504h42.64c5.8 0 10.512 4.704 10.512 10.504v106.832c0 5.8-4.72 10.504-10.512 10.504h-42.64c-5.8 0-10.504-4.704-10.504-10.504V299.512z"/></svg>