<svg version="1.1" xmlns="http://www.w3.org/2000/svg" xmlns:xlink="http://www.w3.org/1999/xlink" id="emoticon-smile" viewBox="0 0 512 514.032"><path d="M390.632 304.592c-8.128-3.64-17.544.032-21.128 8.096-.328.712-33.064 72.104-114.72 73.064-.504 0-1 .016-1.504.016-76.832 0-109.968-70.184-111.344-73.2-3.656-8-13.096-11.56-21.16-7.936-8.048 3.64-11.624 13.104-7.984 21.168 1.704 3.784 42.688 91.968 140.424 91.968.64 0 1.296-.016 1.936-.016 101.936-1.2 141.92-88.328 143.56-92.032 3.624-8.08-.016-17.536-8.08-21.128zM256 1.016c-141.392 0-256 114.608-256 256s114.608 256 256 256 256-114.608 256-256-114.608-256-256-256zm0 480c-123.512 0-224-100.488-224-224s100.488-224 224-224 224 100.488 224 224-100.488 224-224 224zm-80.248-240.088c17.632 0 31.92-14.296 31.92-31.912s-14.288-31.912-31.92-31.912c-17.64 0-31.92 14.296-31.92 31.912s14.28 31.912 31.92 31.912zm160 0c17.632 0 31.92-14.296 31.92-31.912s-14.288-31.912-31.92-31.912c-17.64 0-31.92 14.296-31.92 31.912s14.28 31.912 31.92 31.912z"/></svg>