<svg version="1.1" xmlns="http://www.w3.org/2000/svg" xmlns:xlink="http://www.w3.org/1999/xlink" id="energy" viewBox="0 0 512 514.032"><path d="M297.672 33.376h.088m-.088 0l-36.104 189.688 130.792.44-178.032 257.152 36.104-208.688-130.784-.456L297.672 33.376m.024-32c-.864 0-1.728.032-2.576.096-5.648.456-9.392 2.344-13.832 5.328-2.464 1.64-4.72 3.64-6.696 5.968-.584.688-1.136 1.408-1.648 2.144L93.64 252.216c-7.08 9.704-8.12 22.512-2.68 33.216 5.432 10.704 16.416 17.488 28.456 17.576l92.368.672-29.04 171.096c-2.76 14.704 5.08 29.36 18.88 35.264 4.112 1.768 8.432 2.608 12.696 2.608 10.056 0 18.32-4.704 24.52-13.2l179.528-257.152c7.08-9.704 8.112-22.528 2.68-33.216-5.432-10.704-16.416-17.488-28.456-17.576l-92.368-.16 28.728-150.44c.6-2.424.912-4.936.912-7.528 0-17.312-13.784-31.424-31.032-31.984-.384-.016-.76-.016-1.136-.016z"/></svg>