<svg version="1.1" xmlns="http://www.w3.org/2000/svg" xmlns:xlink="http://www.w3.org/1999/xlink" id="envelope" viewBox="0 0 512 514.032"><path d="M511.728 117.016c.496-3.072.088-6.24-1.24-9.136-4.032-17.72-16.84-26.864-38.488-26.864H56c-19.04 0-39.552 7-49.64 20.736-.872.664-1.704 1.416-2.456 2.288-3.224 3.72-4.352 8.504-3.632 13.016-.144 1.296-.272 2.6-.272 3.96v256c0 26.512 29.496 56 56 56h416c26.512 0 40-29.488 40-56v-256c0-1.416-.184-2.656-.272-4zm-455.728-4h416.216L256 285.344 40.656 113.72c4.896-.904 10.92-.704 15.344-.704zm416 288H56c-8.824 0-24-15.168-24-24V147.792l213.52 170.824c3.008 2.6 6.744 3.896 10.48 3.896s7.472-1.296 10.488-3.896L480 147.8v229.216c0 8.832.832 24-8 24z"/></svg>