<svg version="1.1" xmlns="http://www.w3.org/2000/svg" xmlns:xlink="http://www.w3.org/1999/xlink" id="envelope-letter" viewBox="0 0 512.0381 514.032"><path d="M511.688 237.656c-.68-5.656-2.808-10.856-6.048-15.232h.08l-.44-.44c-1.64-2.16-3.56-4.064-5.704-5.752L416 132.04V80.408c0-8.84-7.16-16-16-16h-50.664l-58.4-49.856c-18.112-18.112-49.752-18.144-67.888 0l-58.2 49.856H112c-8.84 0-16 7.16-16 16v52.688l-81.56 81.56C5.768 220.392 0 230.2 0 241.328V481.08c0 17.592 14.408 32 32 32h448c17.592 0 32-14.408 32-32V241.96c.112-1.44-.032-2.88-.312-4.304zM134.464 363.768L32 458.808V273.36l102.464 90.408zm30.848 15c2.112-.904 4.064-2.264 5.688-4.112.856-.968 1.528-2.032 2.112-3.128l68.952-63.968c3.624-2.92 7.92-4.456 12.44-4.456 4.592 0 9.184 1.608 12.264 4l191.92 173.968H55.032l110.28-102.304zM379.2 365.88L480 276.432v180.816L379.2 365.88zM449 209.328h-.488l27.448 27.896L416 290.44V176.336l33 32.992zM245.672 37.176c3.032-3.016 7.048-4.688 11.312-4.688 4.28 0 8.296 1.672 11.328 4.688l32.312 27.232h-87.216l32.264-27.232zM384 96.408v222.424l-28.656 25.44-68.16-61.784c-18.84-14.768-45.888-15.408-65.84.688l-63.312 58.72L128 315.392V96.408h256zM51.92 222.424L96 178.36v108.808L37.688 235.72l13.496-13.296h.736z"/></svg>