<svg version="1.1" xmlns="http://www.w3.org/2000/svg" xmlns:xlink="http://www.w3.org/1999/xlink" id="envelope-open" viewBox="0 0 512.0381 514.032"><path d="M511.688 237.664c-.68-5.656-2.808-10.856-6.048-15.232h.08l-.44-.44c-1.64-2.16-3.56-4.064-5.704-5.752L290.936 14.536c-18.112-18.112-49.752-18.144-67.888 0L14.44 214.664C9.928 218.864 0 230.208 0 241.336v239.76c0 17.592 14.408 32 32 32h448c17.592 0 32-14.408 32-32V241.968c.112-1.44-.032-2.88-.312-4.304zm-376.76 126.52L32 458.968V273.376l102.928 90.808zm32.888 13.192c1.144-.76 2.232-1.624 3.184-2.704.184-.208.312-.456.48-.672l70.584-65c3.624-2.92 7.92-4.456 12.44-4.456 4.592 0 9.184 1.608 12.264 4l191.8 172.552H55.2l112.616-103.72zm210.944-11.08L480 276.448v180.92l-101.24-91.072zM51.92 222.432L245.672 37.16c3.032-3.016 7.048-4.688 11.312-4.688 4.28 0 8.296 1.672 11.328 4.688L449 209.336h-.488l27.448 27.896-121.152 107.52-67.624-60.832c-18.84-14.768-45.888-15.408-65.84.688L158.592 342.4 37.696 235.728l13.496-13.296h.728z"/></svg>