<svg version="1.1" xmlns="http://www.w3.org/2000/svg" xmlns:xlink="http://www.w3.org/1999/xlink" id="eye" viewBox="0 0 512.792 514.032"><path d="M258.136 161.72c-53.016 0-96 42.984-96 96 0 53.008 42.984 96 96 96s96-42.984 96-96-42.984-96-96-96zm0 160c-35.288 0-64.736-29.408-64.736-64.696s28.712-64 64-64c35.296 0 64 28.712 64 64s-27.968 64.696-63.264 64.696zm254.104-68.416c-.184-.808-.104-1.664-.344-2.456-.104-.336-.312-.528-.432-.824-.168-.456-.128-.992-.36-1.432-46.536-106.552-146.832-167.88-253.712-167.88S48.208 141.928 1.648 248.488c-.2.448-.168.912-.328 1.424-.112.312-.344.488-.448.784-.248.808-.152 1.648-.304 2.464C.272 254.6 0 256 0 257.456c0 1.472.272 2.832.568 4.296.16.8.056 1.672.304 2.44.104.36.336.512.448.84.168.44.128.984.328 1.424C48.216 372.984 149.52 433.312 256.4 433.312c106.888 0 208.168-60.2 254.72-166.752.232-.456.184-.936.36-1.44.112-.28.328-.488.424-.8.248-.784.168-1.64.344-2.456.28-1.432.544-2.832.544-4.312 0-1.408-.264-2.8-.552-4.248zM256.4 401.312c-90.648 0-179.872-47.784-223.712-143.84C76.112 161.736 166.528 112.72 257.4 112.72c90.84 0 179.248 49.072 222.688 144.856C436.68 353.28 347.272 401.312 256.4 401.312z"/></svg>