<svg version="1.1" xmlns="http://www.w3.org/2000/svg" xmlns:xlink="http://www.w3.org/1999/xlink" id="eyeglasses" viewBox="0 0 513.4556 514.032"><path d="M513.417 326.912c-.488-6.92-26.504-159.656-30.576-184.112-.39-2.344-.703-4.84-1.047-7.472-3.144-24.576-9.016-70.312-82.736-70.312-8.84 0-16 7.16-16 16s7.16 16 16 16c45.56 0 47.968 18.704 51 42.392.392 3.032.768 5.936 1.216 8.64 1.872 11.264 10.352 56.08 17.672 100.512-18.776-14.312-42.144-22.904-67.56-22.904-40.824 0-77.16 21.976-97.136 54.68-9.61-3.632-25.913-8.168-47.697-8.168-21.472 0-37.256 4.568-47.016 8.544-19.424-32.912-55.152-55.064-96.136-55.064-26.63 0-51.367 9.36-70.92 24.92 7.417-44.992 16.2-91.016 18.105-102.512.456-2.704.832-5.608 1.216-8.64 3.033-23.688 5.44-42.392 51-42.392 8.84 0 16-7.16 16-16s-7.16-16-16-16c-73.72 0-79.59 45.736-82.735 70.312-.344 2.624-.656 5.128-1.048 7.472C24.937 167.264.513 318.992.033 325.92c-.112 1.544.072 3.024.376 4.472-.153 2.312-.36 4.608-.36 6.952 0 61.672 51.67 111.672 113.343 111.672s111.672-50 111.672-111.672c0-9.328-1.272-18.336-3.424-26.992 6.56-2.64 18.417-6.168 34.905-6.168 16.088 0 28.232 3.216 35.152 5.664-2.304 8.816-3.664 17.984-3.664 27.496 0 61.672 51.672 111.672 113.344 111.672s111.672-50 111.672-111.672c0-1.672-.177-3.304-.25-4.96.49-1.744.76-3.568.617-5.472zM113.4 417.008c-44.095 0-81.343-36.488-81.343-79.672s37.248-79.672 81.344-79.672c43.937 0 79.673 35.736 79.673 79.672s-35.736 79.672-79.672 79.672zm287.985 0c-44.096 0-81.344-36.488-81.344-79.672s37.25-79.672 81.345-79.672c38 0 69.816 26.744 77.728 62.392.328 3.264.6 6.336.808 9.144.097 1.344.457 2.608.92 3.832.08 1.44.217 2.856.217 4.312 0 43.928-35.736 79.664-79.672 79.664z"/></svg>