<svg version="1.1" xmlns="http://www.w3.org/2000/svg" xmlns:xlink="http://www.w3.org/1999/xlink" id="feed" viewBox="0 0 512 514.032"><path d="M50.936 166.144c-9.064 0-16.384 7.328-16.384 16.384 0 9.048 7.32 16.384 16.384 16.384 151.504 0 262.672 112.184 262.672 263.68 0 9.048 7.328 16.376 16.384 16.376s16.384-7.328 16.384-16.376c0-170.184-125.264-296.448-295.44-296.448zM51.08 2.328c-9.056 0-16.384 7.328-16.384 16.384 0 9.056 7.328 16.384 16.384 16.384 235.088 0 426.336 191.248 426.336 426.328 0 9.048 7.328 16.376 16.384 16.376s16.384-7.328 16.384-16.376C510.176 208.28 304.224 2.328 51.08 2.328zm40.928 328.488c-49.736 0-90.184 40.56-90.184 90.44 0 49.856 40.456 90.456 90.184 90.456s90.2-40.592 90.2-90.456c0-49.88-40.464-90.44-90.2-90.44zm0 149.216c-32.304 0-58.584-26.376-58.584-58.784s26.28-58.768 58.584-58.768c32.312 0 58.608 26.36 58.608 58.768s-26.296 58.784-58.608 58.784z"/></svg>