<svg version="1.1" xmlns="http://www.w3.org/2000/svg" xmlns:xlink="http://www.w3.org/1999/xlink" id="film" viewBox="0 0 512 514.032"><path d="M400 137.16h32c8.832 0 16-7.168 16-16v-16c0-8.832-7.168-16-16-16h-32c-8.832 0-16 7.168-16 16v16c0 8.832 7.168 16 16 16zm0 96h32c8.832 0 16-7.168 16-16v-16c0-8.832-7.168-16-16-16h-32c-8.832 0-16 7.168-16 16v16c0 8.832 7.168 16 16 16zm0 96h32c8.832 0 16-7.168 16-16v-16c0-8.832-7.168-16-16-16h-32c-8.832 0-16 7.168-16 16v16c0 8.832 7.168 16 16 16zm0 96h32c8.832 0 16-7.168 16-16v-16c0-8.832-7.168-16-16-16h-32c-8.832 0-16 7.168-16 16v16c0 8.832 7.168 16 16 16zm-320-288h32c8.832 0 16-7.168 16-16v-16c0-8.832-7.168-16-16-16H80c-8.832 0-16 7.168-16 16v16c0 8.832 7.168 16 16 16zm0 96h32c8.832 0 16-7.168 16-16v-16c0-8.832-7.168-16-16-16H80c-8.832 0-16 7.168-16 16v16c0 8.832 7.168 16 16 16zm0 96h32c8.832 0 16-7.168 16-16v-16c0-8.832-7.168-16-16-16H80c-8.832 0-16 7.168-16 16v16c0 8.832 7.168 16 16 16zm0 96h32c8.832 0 16-7.168 16-16v-16c0-8.832-7.168-16-16-16H80c-8.832 0-16 7.168-16 16v16c0 8.832 7.168 16 16 16zM480 8.968H32c-17.592 0-32 14.408-32 32v432.096c0 17.592 14.408 32 32 32h448c17.592 0 32-14.408 32-32V40.968c0-17.592-14.408-32-32-32zm0 464.096H32V40.968h448v432.096z"/></svg>