<svg version="1.1" xmlns="http://www.w3.org/2000/svg" xmlns:xlink="http://www.w3.org/1999/xlink" id="fire" viewBox="0 0 512 514.032"><path d="M254.208 512.656c-120.624 0-206.184-83.64-206.184-198.888 0-61.184 36.688-127.096 38.248-129.856 3.184-5.672 9.44-8.752 15.968-8.032 6.456.832 11.768 5.488 13.44 11.784.096.376 9.984 37.376 23.032 57.92 8.768 13.824 17.656 23.592 27.656 30.376-6.768-29.328-11.952-73.456-3.512-118.736C186.024 32.936 283.848 3.2 288.04 2c5.392-1.544 11.112-.16 15.216 3.576 4.096 3.752 5.968 9.376 4.904 14.832-.16.872-16.312 87.888 17.968 162.032 3.112 6.736 7.456 14.56 12.128 22.392 1.328-10.752 3.392-22.184 6.56-33.28 12.576-43.984 45.096-59 46.472-59.608 5.424-2.472 11.752-1.656 16.44 2.016 4.672 3.688 6.92 9.64 5.84 15.504-.168 1.08-4.704 31.016 20.768 73.472 23 38.336 29.64 63.184 29.64 110.84 0 115.24-88.216 198.88-209.768 198.88zm-156.36-277.8c-8.784 22.152-17.832 51.624-17.832 78.904 0 96.704 72.096 166.888 174.184 166.888 103 0 177.768-70.184 177.768-166.888 0-41.768-5.16-61.16-25.08-94.376-13.312-22.184-19.888-42.128-23.032-58-3.168 5.128-6.112 11.392-8.264 18.936-9.752 34.096-7.296 73.968-7.264 74.376.472 7.136-3.872 13.736-10.624 16.128s-14.264.032-18.408-5.832c-1.2-1.704-29.656-41.984-42.2-69.12-26.048-56.296-25.608-117.168-22.952-152.232-26.36 15.36-66.832 49.672-79.832 119.456-12.656 67.904 11.936 135.8 12.2 136.472 2.128 5.544 1 11.832-2.904 16.296-3.92 4.44-9.952 6.408-15.768 5.016-1.984-.488-47.016-12.2-76.168-58.144-5.208-8.232-9.88-18.192-13.824-27.88z"/></svg>