<svg version="1.1" xmlns="http://www.w3.org/2000/svg" xmlns:xlink="http://www.w3.org/1999/xlink" id="flag" viewBox="0 0 512 514.032"><path d="M340 48.68c-80 0-101.328-48-202.656-48C72 .68 32 50.024 32 50.024v447.328c0 8.832 7.168 16 16 16s16-7.168 16-16V293.416c16.88-10.888 40.168-20.736 69.344-20.736 101.328 0 130.656 48 210.656 48s136-48 136-48V.68s-60 48-140 48zm108 207.696c-18.08 11.792-56.392 32.304-104 32.304-31.456 0-52.92-8.632-80.112-19.568-33.136-13.32-70.704-28.432-130.544-28.432-27.344 0-50.536 6.88-69.344 16.08V63.024c12.048-10.96 38.312-30.344 73.344-30.344 47.056 0 73.544 11.424 101.592 23.504C266.872 68.224 295.768 80.68 340 80.68c42.624 0 80.064-11.784 108-24.456v200.152z"/></svg>