<svg version="1.1" xmlns="http://www.w3.org/2000/svg" xmlns:xlink="http://www.w3.org/1999/xlink" id="frame" viewBox="0 0 512 514.032"><path d="M112 57.016H16c-8.832 0-16 7.168-16 16v96c0 8.832 7.168 16 16 16s16-7.168 16-16v-80h80c8.832 0 16-7.168 16-16s-7.168-16-16-16zm384 272c-8.832 0-16 7.168-16 16v80h-80c-8.832 0-16 7.168-16 16s7.168 16 16 16h96c8.832 0 16-7.168 16-16v-96c0-8.832-7.168-16-16-16zm-384 96H32v-80c0-8.832-7.168-16-16-16s-16 7.168-16 16v96c0 8.832 7.168 16 16 16h96c8.832 0 16-7.168 16-16s-7.168-16-16-16zm384-368h-96c-8.832 0-16 7.168-16 16s7.168 16 16 16h80v80c0 8.832 7.168 16 16 16s16-7.168 16-16v-96c0-8.832-7.168-16-16-16z"/></svg>