<svg version="1.1" xmlns="http://www.w3.org/2000/svg" xmlns:xlink="http://www.w3.org/1999/xlink" id="game-controller" viewBox="0 0 512.5957 514.032"><path d="M371.91 38.792c-12.8-6.008-24.905-11.664-35.92-17.192C307.756 7.456 282.156.584 257.756.584c-49.144 0-83.152 28.352-104.48 49.68l-17.792 17.808-11.872 11.888-17.232 17.256-26.863 26.896L49.853 153.8C-5.49 209.2-14.33 265.6 21.22 336.704c5.513 11.04 11.185 23.168 17.185 36.016 32.352 69.192 65.792 140.744 120.528 140.744 1.536 0 3.056-.048 4.608-.168 56.49-4.424 72.513-77.144 86.657-141.296 2.248-10.16 4.376-19.904 6.56-28.64 3.8-15.104 11.28-24.488 31.776-45.032l2.816-2.832 1.735-1.736 2.248-2.24 2.312-2.304c20.544-20.544 29.928-28.016 45.048-31.832 8.656-2.176 18.376-4.32 28.512-6.544 64.112-14.152 136.8-30.184 141.2-86.76 4.44-57.416-69.232-91.92-140.496-125.288zm107.623 122.392c-3.112 39.888-92.408 51.664-145.552 64.992-23.503 5.936-37.807 18.376-59.39 39.968-1.505 1.504-3.017 3.008-4.545 4.536-1.512 1.512-3.016 3.048-4.528 4.544-21.584 21.608-34 35.904-39.912 59.44-13.336 53.192-25.096 142.584-64.936 145.72-.72.056-1.44.072-2.16.072-42.273 0-77.84-96.12-109.225-158.832-31.872-63.752-18.216-105.112 22.68-146.048 7.848-7.864 17.608-17.624 29.568-29.592 12.216-12.232 26.744-26.776 43.96-44 11.952-11.968 21.704-21.712 29.56-29.592 25.4-25.424 50.968-40.32 81.96-40.32 18.904 0 39.816 5.528 63.936 17.624 63.727 31.952 161.943 68.24 158.583 111.488zm-239.84 15.472h32v-32h-32v32zm0-48h32v-32h-32v32zm48 0h32v-32h-32v32zm0 48h32v-32h-32v32zm-122.448 96.08l12.168-12.168c6-6 6-15.736 0-21.728-6-6-15.72-6-21.72 0l-12.176 12.176-12.176-12.176c-6-6-15.72-6-21.72 0-6 6-6 15.728 0 21.728l12.177 12.176-12.176 12.176c-6 5.992-6 15.72 0 21.72 6 6 15.73 6 21.72 0l12.177-12.168L156.045 307c6 6 15.72 6 21.72 0s6-15.736 0-21.736l-12.52-12.528z"/></svg>