<svg version="1.1" xmlns="http://www.w3.org/2000/svg" xmlns:xlink="http://www.w3.org/1999/xlink" id="ghost" viewBox="0 0 512 514.032"><path d="M255.992.952c-114.608 0-207.84 99.952-207.84 222.8v273.336c0 6.608 4.08 12.544 10.248 14.92 1.856.736 3.816 1.08 5.752 1.08 4.424 0 8.768-1.84 11.856-5.264l60.296-66.56 47.216 65.216c2.984 4.128 7.752 6.576 12.84 6.608h.112c5.048 0 9.816-2.392 12.832-6.456l47.408-63.672 46.592 63.576c3.016 4.112 7.8 6.544 12.904 6.544 5.096 0 9.888-2.424 12.904-6.528l47.784-65.144 59 66.312c4.408 4.952 11.472 6.688 17.64 4.312 6.2-2.36 10.312-8.312 10.312-14.952V223.744C463.848 100.904 370.6.952 255.992.952zm175.856 454.08l-44.2-49.688c-3.216-3.608-7.904-5.656-12.704-5.344-4.832.232-9.296 2.624-12.16 6.512l-46.56 63.504-46.504-63.456c-3-4.096-7.768-6.528-12.84-6.544h-.064c-5.064 0-9.816 2.392-12.832 6.456l-47.344 63.576-46-63.544c-2.832-3.904-7.264-6.328-12.08-6.576-.296-.016-.576-.032-.872-.032-4.504 0-8.816 1.904-11.856 5.264l-45.688 50.424v-231.84c0-105.2 78.888-190.8 175.84-190.8 96.968 0 175.856 85.592 175.856 190.8v231.288zM336 177.096c-17.64 0-31.92 14.296-31.92 31.904 0 17.624 14.28 31.92 31.92 31.92s31.92-14.296 31.92-31.92c0-17.608-14.28-31.904-31.92-31.904zm-160 0c-17.64 0-31.92 14.296-31.92 31.904 0 17.624 14.288 31.92 31.92 31.92s31.92-14.296 31.92-31.92c0-17.608-14.28-31.904-31.92-31.904z"/></svg>