<svg version="1.1" xmlns="http://www.w3.org/2000/svg" xmlns:xlink="http://www.w3.org/1999/xlink" id="globe" viewBox="0 0 513.024 514.032"><path d="M513.024 257.016c0-136.008-106.832-247.552-241.16-255.512C269.096 1.2 266.32 1 263.504 1c-.832 0-1.664.088-2.496.112-1.496-.024-2.984-.112-4.496-.112C115.072 1 0 115.848 0 257.016s115.072 256.016 256.512 256.016c1.512 0 3-.088 4.504-.12.832.032 1.664.12 2.496.12 2.816 0 5.592-.2 8.36-.504 134.32-7.96 241.152-119.488 241.152-255.512zm-47.728 82.416c-8.816-2.56-30.96-8.12-70.032-12.696 3.232-22.096 5-45.448 5-69.72 0-19.128-1.104-37.672-3.144-55.504 49.504-5.912 71.192-13.36 72.648-13.872l-5.96-16.792c11.12 26.544 17.28 55.648 17.28 86.168 0 29.096-5.64 56.88-15.792 82.416zm-322.04-82.416c0-17.904 1.184-35.384 3.352-52.2 25.944 2.04 56.968 3.544 93.432 3.896v111.032c-35.496.344-65.832 1.784-91.344 3.736-3.52-21.096-5.44-43.44-5.44-66.464zM271.984 35.128c39.232 11.368 72.824 65.848 87.872 138.056-24.184 1.928-53.312 3.336-87.872 3.664V35.128zm-31.944.392v141.312c-34.184-.344-63.44-1.736-88.032-3.616C167.36 101.912 201.224 47.84 240.04 35.52zm0 316.112v126.872c-36.2-11.488-68.096-59.288-84.68-123.512 23.88-1.752 52.048-3.032 84.68-3.36zm31.944 127.272v-127.28c32.976.312 61.032 1.64 84.608 3.464-16.304 65.064-48 113.208-84.608 123.816zm0-159.16V208.728c36.656-.344 67.496-1.888 93.096-4 2.104 16.848 3.248 34.352 3.248 52.296 0 23.064-1.856 45.432-5.264 66.56-25.208-2.04-55.4-3.504-91.08-3.84zm185.928-161.76c-4.832 1.504-25.032 7.24-65.512 12.016-9.024-47.976-25.336-88.984-46.56-118.584 48.768 21.192 88.568 59.152 112.072 106.568zM179.92 46.312c-26.104 29.976-47.416 73.08-59.048 124.056-36.24-3.928-57.96-8.544-66.656-10.64 25.36-52.32 70.52-93.376 125.704-113.416zM42.328 189.608c6.16 1.672 29.456 7.472 72.776 12.264-2.48 17.72-3.84 36.152-3.84 55.152 0 24.136 2.184 47.36 6.12 69.344-37.2 4.016-60.08 8.824-70.344 11.304-9.72-25.048-15.104-52.224-15.104-80.656 0-23.48 3.656-46.128 10.392-67.408zm18.728 177.584c11.632-2.472 32.456-6.232 63.296-9.464 12.144 44.856 31.896 82.808 55.568 109.984-50.56-18.36-92.648-54.376-118.864-100.52zm284.784 95.416c19.112-26.632 34.24-62.512 43.648-104.4 31.704 3.64 51.608 7.896 61.648 10.432-24.008 41.536-60.928 74.696-105.296 93.968z"/></svg>