<svg version="1.1" xmlns="http://www.w3.org/2000/svg" xmlns:xlink="http://www.w3.org/1999/xlink" id="globe-alt" viewBox="0 0 512 514.032"><path d="M464.752 208.224c0-84.392-44.488-160.936-118.984-204.784-7.624-4.504-17.44-1.936-21.904 5.688-4.472 7.608-1.936 17.424 5.688 21.904 64.624 38.016 103.2 104.264 103.2 177.184 0 121.184-87.968 209.144-209.16 209.144-27.096 0-53.392-5.08-78.16-15.08-8.184-3.328-17.528.64-20.832 8.832-3.312 8.2.64 17.528 8.832 20.832 28.608 11.56 58.936 17.424 90.16 17.424.096 0 .192-.008.288-.008v31.504h-46.464c-9.232 0-16.72 7.152-16.72 15.976 0 8.824 7.488 15.968 16.72 15.968H303.84c9.232 0 16.72-7.152 16.72-15.968 0-8.832-7.488-15.976-16.72-15.976h-48.192v-33.4c122.904-14.28 209.104-110.456 209.104-239.24zm-65.064 1.44c0-97.328-78.872-176.704-176.2-176.704-97.344 0-176.232 79.376-176.232 176.704s78.888 175.72 176.232 175.72c97.328 0 176.2-78.392 176.2-175.72zm-320.44 0c0-79.512 64.704-144.704 144.232-144.704 79.512 0 144.2 65.184 144.2 144.704s-64.688 143.72-144.2 143.72c-79.528 0-144.232-64.2-144.232-143.72z"/></svg>