<svg version="1.1" xmlns="http://www.w3.org/2000/svg" xmlns:xlink="http://www.w3.org/1999/xlink" id="graduation" viewBox="0 0 512.1212 514.032"><path d="M495.48 349.168V220.096l8.048-4.248c5.232-2.72 8.528-8.112 8.592-14.016.064-5.888-3.128-11.344-8.296-14.184l-240.72-128.8c-4.816-2.64-10.64-2.624-15.488.048l-239.4 128.96c-5.096 2.84-8.248 8.232-8.216 14.08s3.248 11.2 8.408 13.984L113.6 271.912c-1.32 2.328-2.136 4.984-2.136 7.848v135.392c0 4.56 1.952 8.92 5.36 11.952 3.472 3.08 36.72 30.048 138.376 30.048 101.296 0 135.44-25.488 139-28.392 3.72-3.032 5.872-7.576 5.872-12.392V277.504c0-2.248-.472-4.384-1.304-6.32L463.48 237v112.256c-9.488 5.552-15.92 15.736-15.92 27.512 0 17.672 14.328 32 32 32s32-14.328 32-32c0-11.848-6.52-22.072-16.08-27.6zM368.072 407.2c-12.576 6.048-45.856 17.952-112.872 17.952-67.44 0-99.968-12.672-111.736-18.768V287.816l103.904 55.312c2.36 1.28 4.984 1.92 7.592 1.92 2.544 0 5.096-.608 7.408-1.832l105.704-55.832V407.2zm-112.984-96.28l-205.8-109.28 206.16-110.488 206.8 110.168-207.16 109.6z"/></svg>