<svg version="1.1" xmlns="http://www.w3.org/2000/svg" xmlns:xlink="http://www.w3.org/1999/xlink" id="graph" viewBox="0 0 512 514.032"><path d="M472 113.016c-22.096 0-40 17.912-40 40 0 4.536.92 8.816 2.304 12.88l-97.504 83.96c-6.84-5.448-15.376-8.84-24.8-8.84-10.872 0-20.704 4.368-27.904 11.408l-76.376-38.24c-1.488-20.744-18.6-37.168-39.72-37.168-22.088 0-40 17.912-40 40 0 6.048 1.44 11.72 3.84 16.856l-77.872 89.792c-4.368-1.632-9.032-2.648-13.968-2.648-22.088 0-40 17.912-40 40s17.912 40 40 40 40-17.912 40-40c0-5.32-1.088-10.384-2.976-15.024l79.136-90.96c3.768 1.168 7.688 1.984 11.84 1.984 11.64 0 22.024-5.056 29.336-13l74.704 37.456c.264 21.872 18.024 39.544 39.96 39.544 22.096 0 40-17.912 40-40 0-.712-.168-1.376-.208-2.08l104.048-89.384c4.952 2.192 10.392 3.464 16.16 3.464 22.096 0 40-17.904 40-40 0-22.088-17.904-40-40-40z"/></svg>