<svg version="1.1" xmlns="http://www.w3.org/2000/svg" xmlns:xlink="http://www.w3.org/1999/xlink" id="home" viewBox="0 0 513.6009 514.032"><path d="M509.15 257.696L268.966 6.112c-3.016-3.152-7.184-4.92-11.544-4.92-4.352 0-8.52 1.776-11.544 4.92L4.454 257.688c-6.12 6.376-5.904 16.496.472 22.624 6.376 6.112 16.496 5.936 22.624-.472l21.504-22.416V496.84c0 8.84 7.168 16 16 16H176.83c8.816 0 15.968-7.128 16-15.952l.504-159.832H320.83V496.84c0 8.84 7.16 16 16 16h111.736c8.84 0 16-7.16 16-16V257.344l21.496 22.52c3.144 3.264 7.344 4.92 11.544 4.92 3.984 0 7.984-1.472 11.08-4.472 6.368-6.112 6.576-16.24.464-22.616zm-76.584-29.272V480.84H352.83V321.064c0-8.84-7.16-16-16-16H177.39c-8.816 0-15.968 7.128-16 15.952l-.504 159.832H81.054V228.424c0-1.32-.208-2.584-.504-3.816L257.43 40.296 433.142 224.4c-.344 1.296-.576 2.632-.576 4.024z"/></svg>