<svg version="1.1" xmlns="http://www.w3.org/2000/svg" xmlns:xlink="http://www.w3.org/1999/xlink" id="hourglass" viewBox="0 0 512 514.032"><path d="M416.528 33.32h-32.232v107.704c0 52.192-28.328 91.68-89.048 122.6 63.032 31.904 89.552 71.08 89.552 129.536 0 38.064-.168 70-.296 87.56h32.032c8.84 0 16 7.144 16 15.984s-7.16 16-16 16H95.472c-8.84 0-16-7.16-16-16s7.16-15.984 16-15.984h32.968c-.12-17.56-.296-49.504-.296-87.56 0-58.456 26.144-97.624 89.072-129.528-60.616-30.92-88.568-70.408-88.568-122.6V33.32H95.472c-8.84 0-16-7.152-16-16 0-8.832 7.16-15.992 16-15.992h321.064c8.84 0 16 7.16 16 15.992-.008 8.848-7.16 16-16.008 16zM160.136 393.16c0 38.144.176 70.112.296 87.56H352.52c.112-17.456.296-49.424.296-87.56 0-44.504-16.56-79.016-96.592-112.2-80.008 33.184-96.088 67.696-96.088 112.2zM352.312 33.32h-191.68v107.704c0 30.688 10.32 70.208 95.584 105.264 85.28-35.056 96.096-74.576 96.096-105.264V33.32z"/></svg>