<svg version="1.1" xmlns="http://www.w3.org/2000/svg" xmlns:xlink="http://www.w3.org/1999/xlink" id="info" viewBox="0 0 512 514.032"><path d="M288 369.016h-16v-143c0-.168-.048-.328-.048-.504s.048-.328.048-.496c0-8.832-7.168-16-16-16h-32c-8.832 0-16 7.168-16 16s7.168 16 16 16h16v128h-16c-8.832 0-16 7.168-16 16s7.168 16 16 16h64c8.832 0 16-7.168 16-16s-7.168-16-16-16zm-32-192c17.672 0 32-14.328 32-32s-14.328-32-32-32-32 14.328-32 32 14.328 32 32 32zm0-176c-141.384 0-256 114.616-256 256 0 141.392 114.616 256 256 256 141.392 0 256-114.608 256-256 0-141.384-114.608-256-256-256zm0 480.504c-123.512 0-224-100.992-224-224.504s100.488-224 224-224 224 100.488 224 224S379.512 481.52 256 481.52z"/></svg>