<svg version="1.1" xmlns="http://www.w3.org/2000/svg" xmlns:xlink="http://www.w3.org/1999/xlink" id="key" viewBox="0 0 512 514.032"><path d="M327.848 1.016c-79.528 0-144 64.576-144 144.232 0 35.704 13.016 68.312 34.472 93.504-4.416-.272-8.92 1.216-12.296 4.592L44.832 405.536c-6.24 6.248-6.24 16.384 0 22.624.12.12.256.192.384.312.04.04.064.088.104.128l78.456 79.952c6.24 6.248 16.376 6.248 22.624 0s6.248-16.384 0-22.624l-67.736-69.032 41.248-41.504 67.864 69.16c6.24 6.248 16.376 6.248 22.624 0s6.24-16.384 0-22.624l-67.928-69.224 86.192-86.736c3.336-3.336 4.832-7.768 4.608-12.136 25.312 22.144 58.336 35.656 94.584 35.656 79.528 0 144-64.576 144-144.24-.008-79.656-64.472-144.232-144.008-144.232zm0 256c-61.624 0-112-50.136-112-112 0-61.872 50.376-112 112-112s112 50.128 112 112c0 61.864-50.368 112-112 112z"/></svg>