<svg version="1.1" xmlns="http://www.w3.org/2000/svg" xmlns:xlink="http://www.w3.org/1999/xlink" id="layers" viewBox="0 0 512.3475 514.032"><path d="M11.098 151.92l237.544 129.36c2.392 1.296 5.016 1.952 7.656 1.952 2.608 0 5.216-.64 7.592-1.92l240.048-129.36c5.232-2.816 8.488-8.312 8.408-14.264-.08-5.968-3.456-11.376-8.752-14.08L266.034 2.968c-4.528-2.296-9.872-2.312-14.44-.032L11.57 123.576c-5.312 2.672-8.72 8.08-8.816 14.032s3.128 11.472 8.344 14.312zM258.754 35.16l203.08 103.136-205.488 110.736L53.258 138.44 258.754 35.16zM500.85 241.176l-47.488-24.112-34.28 18.488 40 20.312-205.48 110.728L50.506 256l42.656-21.44-34.184-18.624-50.16 25.2c-5.312 2.672-8.72 8.08-8.816 14.032S3.13 266.64 8.346 269.48L245.89 398.84c2.392 1.296 5.016 1.952 7.656 1.952 2.608 0 5.216-.64 7.592-1.92l240.048-129.36c5.232-2.816 8.488-8.312 8.408-14.264-.072-5.968-3.448-11.376-8.744-14.072zm0 112l-44.984-22.112-34.28 18.488 37.504 18.312-205.488 110.728L50.506 368l39.656-17.936-34.184-18.624-47.16 21.704c-5.312 2.672-8.72 8.08-8.816 14.032s3.128 11.472 8.344 14.312l237.544 129.36c2.392 1.296 5.016 1.952 7.656 1.952 2.608 0 5.216-.64 7.592-1.92l240.048-129.36c5.232-2.816 8.488-8.312 8.408-14.264-.072-5.976-3.448-11.384-8.744-14.08z"/></svg>