<svg version="1.1" xmlns="http://www.w3.org/2000/svg" xmlns:xlink="http://www.w3.org/1999/xlink" id="like" viewBox="0 0 512.6988 514.032"><path d="M304.616 512.888c-145.416 0-146.536-6.032-164.544-19.592-9.552-7.184-27.576-12.16-93.408-16.448-4.776-.312-9.32-2.144-12.368-5.84C32.896 469.304 0 421.328 0 344.488c0-75.72 23.544-110.232 24.552-111.832 2.92-4.68 8.048-7.52 13.56-7.52 54.056 0 128.992-69 179.368-189.448 8.712-20.832 10.512-34.536 42.512-34.536 18.2 0 38.6 13.032 48.672 29.752 20.664 34.16 10.168 107.528.464 146.736 33-.264 92.736-.712 121.16-.712 39.536 0 65.704 23.576 66.496 58.04.264 11.376-1.232 25.904-4.52 33.424 8.704 8.68 19.928 21.768 20.416 38.624.608 21.76-13.64 38.328-22.736 47.832 2.088 6.328 6.264 14.72 5.856 24.752-1 24.672-20.048 40.568-31.912 48.864.984 6.752 1.752 19.488-.416 29.336-8.56 39.304-66.2 55.088-158.856 55.088zM55.152 444.4c57.344 4.744 88 11.168 104.168 23.336 12.512 9.424 10.584 13.16 145.296 13.16 41.088 0 121.448-1.712 127.608-29.92 2.448-11.28-9.448-22.368-9.488-22.456-3.248-8.016.368-17.424 8.288-20.888.128-.064 32.072-11.504 32.8-29.36.48-11.416-7.36-18.272-7.536-18.56-4.664-7.232-2.96-17.152 4.112-22.08.08-.064 20.776-12.608 20.272-29.712-.392-13.584-18.288-23.144-18.832-23.464-4-2.288-6.912-6.248-7.824-10.776-.896-4.52.112-9.264 2.92-12.936 0 0 8.136-12.928 7.84-25.056-.584-25.96-28.504-26.776-34.496-26.776-40.36 0-144.016.408-144.016.408-5.592.024-10.432-2.616-13.44-7.088-3-4.472-3.224-10.024-1.464-15.112 15.632-45.016 24.36-115.64 9.864-139.768-4.272-7.112-5.248-14.216-21.248-14.216-2.216 0-7.496 1.752-13 14.872-53.464 127.92-133.32 201.912-198.728 208.584C42.608 269.456 32 296.112 32 344.48c0 49.368 15.64 87.56 23.152 99.92z"/></svg>