<svg version="1.1" xmlns="http://www.w3.org/2000/svg" xmlns:xlink="http://www.w3.org/1999/xlink" id="link" viewBox="0 0 512.025 514.032"><path d="M147.832 367.24c3.128 3.128 7.216 4.688 11.312 4.688s8.184-1.56 11.312-4.688l193.832-195.344c6.248-6.248 6.248-16.376 0-22.624s-16.376-6.248-22.624 0L147.832 344.616c-6.256 6.248-6.256 16.376 0 22.624zm90.104-34.072c5.288 23.312-.416 46.2-18.432 64.216l-64.624 62.624c-13.6 13.592-31.68 21.08-50.912 21.08s-37.312-7.488-50.904-21.08c-28.072-28.08-28.072-73.768-.168-101.672l63.128-65.128c13.6-13.592 31.68-21.088 50.912-21.088 6.576 0 12.912 1.176 19.088 2.872L211 250.016c-13.936-6.512-28.976-9.896-44.064-9.896-26.616 0-53.232 10.16-73.536 30.464l-62.968 64.968c-40.608 40.608-40.608 106.456 0 147.08 20.304 20.312 46.92 30.456 73.536 30.456s53.232-10.144 73.536-30.456l64.472-62.472c31.064-31.064 37.784-74.36 21.328-112.36l-25.368 25.368zm243.632-301.76C461.256 11.104 434.648.944 408.04.944c-26.624 0-53.248 10.16-73.544 30.464L270.032 93.88c-32.2 32.2-38.768 80.232-19.896 119.016l24.832-24.824c-7.352-24.552-1.704-52.168 17.528-71.416l64.624-62.624c13.608-13.592 31.672-21.088 50.92-21.088 19.216 0 37.312 7.496 50.904 21.088 28.064 28.08 28.064 73.768.16 101.672l-64.624 64.624c-13.592 13.592-31.688 21.08-50.904 21.08-4.904 0-9.216.496-13.92-.464l-25.488 25.504c12.736 5.296 25.816 6.968 39.408 6.968 26.608 0 53.216-10.152 73.528-30.464l64.472-64.472c40.6-40.608 40.6-106.448-.008-147.072z"/></svg>