<svg version="1.1" xmlns="http://www.w3.org/2000/svg" xmlns:xlink="http://www.w3.org/1999/xlink" id="list" viewBox="0 0 512 514.032"><path d="M48 225.016H16c-8.832 0-16 7.168-16 16v32c0 8.832 7.168 16 16 16h32c8.832 0 16-7.168 16-16v-32c0-8.832-7.168-16-16-16zm448 16H160c-8.832 0-16 7.168-16 16s7.168 16 16 16h336c8.832 0 16-7.168 16-16s-7.168-16-16-16zm-448 112H16c-8.832 0-16 7.168-16 16v32c0 8.832 7.168 16 16 16h32c8.832 0 16-7.168 16-16v-32c0-8.832-7.168-16-16-16zm448 16H160c-8.832 0-16 7.168-16 16s7.168 16 16 16h336c8.832 0 16-7.168 16-16s-7.168-16-16-16zm-448-272H16c-8.832 0-16 7.168-16 16v32c0 8.832 7.168 16 16 16h32c8.832 0 16-7.168 16-16v-32c0-8.832-7.168-16-16-16zm112 48h336c8.832 0 16-7.168 16-16s-7.168-16-16-16H160c-8.832 0-16 7.168-16 16s7.168 16 16 16z"/></svg>