<svg version="1.1" xmlns="http://www.w3.org/2000/svg" xmlns:xlink="http://www.w3.org/1999/xlink" id="lock-open" viewBox="0 0 512 514.032"><path d="M400 193.568H171.52l-8.28-37.136c-14.12-52.688 10.408-105.216 66.544-120.256 55.568-14.888 104.544 16.968 118.912 70.56l6.8 26.984c2.288 8.536 11.056 13.6 19.6 11.312 8.536-2.288 13.6-11.056 11.312-19.592L379.6 98.456c-18.992-70.92-85.192-112.72-158.096-93.192-73.184 19.608-107.856 89.712-89.168 159.456l6.432 28.848H112c-35.296 0-64 28.704-64 64v192c0 35.296 28.704 64 64 64h288c35.296 0 64-28.704 64-64v-192c0-35.296-28.704-64-64-64zm32 256c0 17.64-14.36 32-32 32H112c-17.64 0-32-14.36-32-32v-192c0-17.64 14.36-32 32-32h288c17.64 0 32 14.36 32 32v192zm-176-160c-17.672 0-32 14.328-32 32 0 11.816 6.48 22.016 16 27.56v52.44c0 8.832 7.168 16 16 16s16-7.168 16-16v-52.44c9.52-5.544 16-15.752 16-27.56 0-17.672-14.328-32-32-32z"/></svg>