<svg version="1.1" xmlns="http://www.w3.org/2000/svg" xmlns:xlink="http://www.w3.org/1999/xlink" id="lock" viewBox="0 0 512 514.032"><path d="M400 193.016h-16v-61.064C384 58.528 330.872 1.016 255.408 1.016 179.64 1.016 128 59.752 128 131.952v61.064h-16c-35.296 0-64 28.704-64 64v192c0 35.296 28.704 64 64 64h288c35.296 0 64-28.704 64-64v-192c0-35.296-28.704-64-64-64zm-240-61.064c0-54.544 37.28-98.936 95.408-98.936 57.528 0 96.592 43.456 96.592 98.936v61.064H160v-61.064zm272 317.064c0 17.64-14.36 32-32 32H112c-17.64 0-32-14.36-32-32v-192c0-17.64 14.36-32 32-32h288c17.64 0 32 14.36 32 32v192zm-176-160c-17.672 0-32 14.328-32 32 0 11.816 6.48 22.016 16 27.56v52.44c0 8.832 7.168 16 16 16s16-7.168 16-16v-52.44c9.52-5.544 16-15.752 16-27.56 0-17.672-14.328-32-32-32z"/></svg>