<svg version="1.1" xmlns="http://www.w3.org/2000/svg" xmlns:xlink="http://www.w3.org/1999/xlink" id="login" viewBox="0 0 512.168 514.032"><path d="M266.344 331.72c-6.256 6.248-6.256 16.376 0 22.624 3.128 3.128 7.216 4.688 11.312 4.688s8.184-1.56 11.312-4.688l94.504-97-94.504-97.008c-6.248-6.248-16.376-6.248-22.624 0-6.256 6.248-6.256 16.376 0 22.624l57.872 57.88H16c-8.84 0-16 7.168-16 16s7.16 16 16 16h309.224l-58.88 58.88zM480.16 1.016h-288c-17.68 0-32.008 14.328-32.008 32v144h32.216V52.528c0-10.688 8.672-19.36 19.36-19.36H460.08c10.704 0 19.36 8.672 19.36 19.36l.504 409.144c0 10.688-8.656 19.36-19.36 19.36H211.736c-10.688 0-19.36-8.672-19.36-19.36V336.488l-32.216.04v144.488c0 17.672 14.328 32 32.008 32h288c17.672 0 32-14.328 32-32v-448c-.008-17.672-14.336-32-32.008-32z"/></svg>