<svg version="1.1" xmlns="http://www.w3.org/2000/svg" xmlns:xlink="http://www.w3.org/1999/xlink" id="loop" viewBox="0 0 512 514.032"><path d="M480 51.936H32c-17.672 0-32 14.328-32 32v288c0 17.68 14.328 32 32 32h80c10.248 0 16-13.16 16-15.992v-.008c0-2.912-5.44-16.208-16-16.208H51.52c-10.688 0-19.36-8.672-19.36-19.36V104.016c0-10.696 8.664-19.36 19.36-19.36l409.136-.504c10.688 0 19.36 8.664 19.36 19.36V352.36c0 10.688-8.672 19.36-19.36 19.36H259.072l37.992-34.456c4.672-4.472 6.184-11.704 1.512-16.168l-2.736-4.032c-4.688-4.472-12.248-4.472-16.92 0l-64.864 59.216c-.096.08-.184.112-.264.184l-4.24 4.048c-2.336 2.216-3.504 5.168-3.488 8.112-.016 2.952 1.144 5.888 3.488 8.144l4.24 4.048c.08.08.184.096.264.168l63.864 57.752c4.672 4.472 12.232 4.472 16.92 0l2.736-4.032c4.672-4.472 3.16-11.72-1.512-16.184l-38.568-34.584H480c17.672 0 32-14.32 32-32v-288c0-17.672-14.328-32-32-32z"/></svg>