<svg version="1.1" xmlns="http://www.w3.org/2000/svg" xmlns:xlink="http://www.w3.org/1999/xlink" id="magic-wand" viewBox="0 0 513.0349 514.032"><path d="M510.256 215.704l-51.392-76.84 25.576-89.408c1.592-5.608.032-11.64-4.112-15.752-4.128-4.128-10.128-5.656-15.768-4.016l-89.256 26.064L298.16 3.8c-4.856-3.264-11.08-3.656-16.232-.968-5.184 2.656-8.512 7.936-8.704 13.752l-2.768 92.968-73.248 57.296c-4.592 3.592-6.856 9.408-5.936 15.16s4.904 10.544 10.408 12.512l68.728 24.64c-.464.368-.952.696-1.384 1.128L3.648 485.664c-6.248 6.248-6.248 16.376 0 22.624 3.128 3.128 7.216 4.688 11.312 4.688s8.184-1.56 11.312-4.688l265.376-265.376c1.032-1.032 1.832-2.2 2.52-3.408l26.896 73.776c2 5.472 6.816 9.424 12.576 10.328.816.128 1.64.184 2.456.184 4.904 0 9.592-2.264 12.656-6.216l56.888-73.584 91.952-3.28c5.832-.2 11.08-3.56 13.72-8.768 2.632-5.192 2.224-11.424-1.056-16.24zm-113.232-3.416c-4.752.16-9.184 2.44-12.096 6.2l-43.736 56.552-24.488-67.16c-1.624-4.472-5.16-7.968-9.64-9.576l-67.296-24.128 56.312-44.032c3.752-2.936 5.984-7.376 6.144-12.128l2.128-71.472 59.296 39.936c3.952 2.656 8.888 3.408 13.424 2.096l68.624-20.048-19.672 68.736c-1.296 4.576-.504 9.488 2.168 13.424l40.28 59.064-71.448 2.536z"/></svg>