<svg version="1.1" xmlns="http://www.w3.org/2000/svg" xmlns:xlink="http://www.w3.org/1999/xlink" id="magnet" viewBox="0 0 512 514.032"><path d="M480.144 31.104V16.6c0-8.84-7.16-16-16-16H351.832c-8.84 0-16 7.16-16 16v65.328c0 .024.016.048.016.072v198.76c0 48.16-27.168 87.328-75.328 87.328s-84.328-39.168-84.328-87.328V31.104h-.048V16.6c0-8.84-7.16-16-16-16H47.832c-8.84 0-16 7.16-16 16v65.328c0 .328.168.6.184.92v205.248c0 124.456 99.392 225.328 223.832 225.328s224.328-100.872 224.328-225.328V31.104h-.032zm-32 1.496v64.168h-80.128V32.6h80.128zm-304 0v64.168H64.016V32.6h80.128zM255.84 481.432c-106.608 0-191.832-86.736-191.832-193.328V128.768h80.168V280.76c0 65.904 50.424 119.328 116.328 119.328S367.84 346.664 367.84 280.76V128.768h80.328v159.336c0 106.592-85.712 193.328-192.328 193.328z"/></svg>