<svg version="1.1" xmlns="http://www.w3.org/2000/svg" xmlns:xlink="http://www.w3.org/1999/xlink" id="magnifier-add" viewBox="0 0 513.704 514.032"><path d="M509.016 485.536L367.504 343.152c30.304-36.2 48.544-82.88 48.544-133.856 0-115.032-92.752-208.28-207.776-208.28S0 94.264 0 209.288C0 324.312 93.248 417.56 208.272 417.56c52.504 0 100.336-19.48 136.848-51.536l141.264 142.152c6.248 6.248 16.384 6.248 22.624 0 6.256-6.256 6.256-16.384.008-22.64zM208 385.016c-96.776 0-176-79.224-176-176s79.224-176 176-176 176 79.224 176 176-79.224 176-176 176zm80-192h-64v-64c0-8.832-7.168-16-16-16s-16 7.168-16 16v64h-64c-8.832 0-16 7.168-16 16s7.168 16 16 16h64v64c0 8.832 7.168 16 16 16s16-7.168 16-16v-64h64c8.832 0 16-7.168 16-16s-7.16-16-16-16z"/></svg>