<svg version="1.1" xmlns="http://www.w3.org/2000/svg" xmlns:xlink="http://www.w3.org/1999/xlink" id="magnifier" viewBox="0 0 513.704 514.032"><path d="M509.024 485.536L353.56 329.12C382.536 294.416 400 249.768 400 201.016c0-110.456-89.544-200-200-200S0 90.56 0 201.016s89.544 200 200 200c50.184 0 96.024-18.528 131.144-49.072l155.248 156.224c6.248 6.248 16.384 6.248 22.632 0 6.24-6.248 6.24-16.376 0-22.632zM200 369.28c-92.928 0-168.264-75.336-168.264-168.264S107.072 32.752 200 32.752s168.264 75.336 168.264 168.264S292.928 369.28 200 369.28z"/></svg>