<svg version="1.1" xmlns="http://www.w3.org/2000/svg" xmlns:xlink="http://www.w3.org/1999/xlink" id="map" viewBox="0 0 512 514.032"><path d="M496.592 68.52L336.112 1.984 176.392 65.2 15.408 2.016c-1.376-.408-2.72-.56-3.984-.56C4.856 1.424 0 6.328 0 13.704v415c0 8.784 6.936 17.936 15.408 20.28l161.168 63.592 159.504-64.752 160.512 63.064c1.376.376 2.72.56 3.984.56 6.56 0 11.424-4.872 11.424-12.248V88.832c0-8.784-6.936-17.944-15.408-20.312zM192 91.584l128-50.152v380.752l-128 50.592V91.584zM32 44.36l128 47.288v380.88L32 420.392V44.36zm448 425.656l-128-48.192V41.912l128 55.192v372.912z"/></svg>