<svg version="1.1" xmlns="http://www.w3.org/2000/svg" xmlns:xlink="http://www.w3.org/1999/xlink" id="microphone" viewBox="0 0 512 514.032"><path d="M255.44 353.016h3.8c44.48 0 76.76-32.8 76.76-77.984V84.328c0-46.72-33.72-83.312-76.768-83.312h-3.792c-43.808 0-79.44 37.376-79.44 83.312v190.704c0 44.456 34.152 77.984 79.44 77.984zM208 84.328c0-28.296 21.28-51.312 47.44-51.312h3.8c25.512 0 44.76 22.064 44.76 51.312v190.704c0 27.496-17.984 45.984-44.768 45.984h-3.792c-27.936 0-47.44-18.904-47.44-45.984V84.328zm192 92.688c-8.84 0-16 7.168-16 16v66.536c0 95.2-33.984 141.464-103.872 141.464H232.56c-91.4 0-104.56-76.92-104.56-141.464v-66.536c0-8.832-7.168-16-16-16s-16 7.168-16 16v66.536c0 110.248 45.944 173.464 136.56 173.464H240v48h-80c-8.832 0-16 7.168-16 16s7.168 16 16 16h192c8.832 0 16-7.168 16-16s-7.168-16-16-16h-80v-48h8.128C342.112 433.016 416 402.92 416 259.552v-66.536c0-8.832-7.16-16-16-16z"/></svg>