<svg version="1.1" xmlns="http://www.w3.org/2000/svg" xmlns:xlink="http://www.w3.org/1999/xlink" id="moustache" viewBox="0 0 512.635 514.032"><path d="M396.748 369.376c-50.672 0-79.432-23.816-98.472-39.576-6.736-5.576-12.864-10.952-18.44-15.832-8.456-7.424-19-16.672-22.672-17.952-.112 0-1.856-.08-1.968-.096-.584.048-2.072.344-2.224.36-2.536 1.032-11.544 8.784-18.784 15-6.567 5.64-14.055 12.08-22.52 18.688l-1.544 1.184c-21.736 16.968-48.792 38.08-96.576 38.08-35.496 0-70.464-16.064-91.288-41.936C8.3 309.952-6.388 279.784 2.924 234.56c1.128-5.472 5.008-9.952 10.216-11.816 5.24-1.888 11.008-.856 15.304 2.688.312.232 11.288 8.672 29.528 8.672 9.184 0 18.752-2.168 28.416-6.472 16.568-7.376 28.368-28.064 40.856-42.032 17.088-19.08 36.424-40.704 68.344-40.952 22.024 0 41.896 8.144 59.624 24.248 17.656-16.032 37.384-24.128 58.84-24.128 32.552.248 52.296 21.888 69.72 41 12.72 13.936 24.737 34.608 41.305 41.984 9.664 4.296 19.336 6.472 28.744 6.472 18.937 0 30.753-8.656 31.225-9.032 4.384-3.248 10.16-4.096 15.24-2.112 5.072 2 8.84 6.44 9.856 11.832 8.545 44.72-6.48 74.704-20.59 91.984-21.386 26.2-56.954 42.48-92.802 42.48zM255.693 263.952c.495 0 1.84.048 2.31.096.018 0 2.346.168 2.346.184.166.016 1.502.184 1.646.216 11.577 1.64 22.313 11.064 38.61 25.344 5.35 4.704 11.247 9.872 17.735 15.248 17.393 14.408 39.05 32.328 78.41 32.328 26.655 0 52.87-11.816 68.39-30.84 10.2-12.488 15.505-27.36 15.84-44.392-7.512 2.344-16.64 4.096-27.16 4.096-13.832 0-27.784-3.096-41.488-9.184-22.624-10.048-38.152-34.56-51.84-49.576-17.264-18.936-28.736-30.544-46.04-30.688-23.08 0-37.976 14.528-47.208 25.456-3.016 3.56-7.408 5.608-12.048 5.608s-9.04-2.064-12.04-5.624c-9.264-10.968-24.208-25.56-46.92-25.56-17.544.128-28.704 11.64-45.496 30.424-13.528 15.112-28.848 39.736-51.616 49.84-13.696 6.096-27.552 9.184-41.152 9.184-10.2 0-19.032-1.704-26.312-4.016-.016 17.36 5.056 32.456 15.168 45.016 14.968 18.576 40.52 30.128 66.72 30.128 37 0 57.448-15.968 77.232-31.408l1.544-1.208c8.024-6.264 15.12-12.376 21.344-17.72 14.256-12.248 23.664-20.344 33.824-22.144.008.008 4.85-.808 8.2-.808z"/></svg>