<svg version="1.1" xmlns="http://www.w3.org/2000/svg" xmlns:xlink="http://www.w3.org/1999/xlink" id="music-tone" viewBox="0 0 512 514.032"><path d="M426.304 162.664L269.848 6.208c-4.96-4.96-12.336-5.92-18.304-3.008-6.272 2.168-10.8 8.056-10.8 15.064v354.2c-16.96-12.56-39.216-20.264-63.688-20.264C124.024 352.2 81 388.088 81 432.344c0 44.272 43.024 80.168 96.056 80.168 53.056 0 96.04-35.888 96.04-80.168 0-1.96-.184-3.88-.352-5.816V54.36L403.68 185.288c6.24 6.248 16.376 6.248 22.624 0s6.248-16.384 0-22.624zm-249.616 317.64c-37.824 0-64.176-25.272-64.176-47.936s26.36-47.912 64.176-47.912c37.016 0 63 24.2 64.064 46.496v2.84c-1.072 22.288-27.048 46.512-64.064 46.512z"/></svg>