<svg version="1.1" xmlns="http://www.w3.org/2000/svg" xmlns:xlink="http://www.w3.org/1999/xlink" id="music-tone-alt" viewBox="0 0 512 514.032"><path d="M495.864 353.72c.008-.28.08-.536.08-.816V19.392c.192-1.752.128-3.56-.288-5.376C494.288 6.56 487.792.904 479.944.904c-2.944 0-5.672.848-8.04 2.24L172.968 80.968c-5.384 1.336-9.376 5.36-11.016 10.336-1.24 2.272-2 4.832-2 7.6v286.272c-15.232-10.192-34.704-16.328-55.936-16.328-48.768 0-88.32 32.304-88.32 72.136 0 39.84 39.552 72.152 88.32 72.152 48.784 0 88.304-32.304 88.304-72.152 0-2.032-.168-4.032-.368-6.024V109.088l272-70.8v266.88c-15.224-10.192-34.704-16.328-55.936-16.328-48.768 0-88.32 32.312-88.32 72.136 0 39.84 39.552 72.152 88.32 72.152 48.784 0 88.304-32.304 88.304-72.152-.008-2.456-.16-4.872-.456-7.256zM104.352 480.992c-33.28 0-56.48-21.096-56.48-40 0-18.912 23.192-39.976 56.48-39.976 29.616 0 51.2 16.696 55.592 33.704v.184c0 1.616.312 3.144.76 4.608.032.496.112.984.112 1.48 0 18.904-23.2 40-56.464 40zm303.496-80c-32.984 0-55.976-21.088-55.976-40s22.992-39.976 55.976-39.976c32.976 0 55.968 21.064 55.968 39.976s-22.984 40-55.968 40z"/></svg>