<svg version="1.1" xmlns="http://www.w3.org/2000/svg" xmlns:xlink="http://www.w3.org/1999/xlink" id="notebook" viewBox="0 0 512 514.032"><path d="M424.576 1.016h-319c-23 0-33.016 17-33.016 33v63.656H55.096c-8.656 0-15.672 7.016-15.672 15.672s7.016 15.672 15.672 15.672H72.56v64.376H56.592c-8.656 0-15.672 7.016-15.672 15.672s7.016 15.672 15.672 15.672H72.56v64.72H56.248c-8.656 0-15.672 7.016-15.672 15.672S47.592 320.8 56.248 320.8H72.56v64.232H56.248c-8.656 0-15.672 7.016-15.672 15.672s7.016 15.672 15.672 15.672H72.56v64.64c0 26.512 20.768 32 32.264 32h319.752c26.512 0 48-21.488 48-48v-416c0-26.512-21.48-48-48-48zm-320.016 480v-64.64h16.672c8.656 0 15.672-7.016 15.672-15.672s-7.016-15.672-15.672-15.672H104.56V320.8h16.672c8.656 0 15.672-7.016 15.672-15.672s-7.016-15.672-15.672-15.672H104.56v-64.72h17.016c8.656 0 15.672-7.016 15.672-15.672s-7.016-15.672-15.672-15.672H104.56v-64.376h15.512c8.656 0 15.672-7.016 15.672-15.672s-7.016-15.672-15.672-15.672H104.56V34.016c0-.376.032-.688.08-.968.248-.016.56-.032.936-.032h255v448H104.56zm336.016-16c0 8.832-7.168 16-16 16h-32v-448h32c8.832 0 16 7.168 16 16v416z"/></svg>