<svg version="1.1" xmlns="http://www.w3.org/2000/svg" xmlns:xlink="http://www.w3.org/1999/xlink" id="note" viewBox="0 0 512.6487 514.032"><path d="M400 481.16H32v-400h224.8l32.352-31.168-.832-.832H32c-17.672 0-32 14.328-32 32v400c0 17.672 14.328 32 32 32h368c17.672 0 32-14.328 32-32V246.832l-32 30.544V481.16zm87.44-459.424C473 7.896 457.064.88 440.064.88c-26.608 0-46.016 17.184-51.296 22.448-7.488 7.392-219.584 219.176-219.584 219.176-1.664 1.696-2.88 3.768-3.504 6.072-5.744 21.224-34.536 115.496-34.824 116.432-1.488 4.832-.16 10.096 3.4 13.608 2.552 2.56 5.96 3.92 9.456 3.92 1.376 0 2.76-.2 4.12-.624.976-.328 98.248-31.784 114.256-36.56 2.112-.624 4.024-1.768 5.608-3.312 10.104-9.968 205.056-201.896 220.832-218.192C504.84 107.016 512.952 89.52 512.64 71.8c-.296-17.504-8.808-34.352-25.2-50.064zm-21.896 79.84c-8.904 9.184-78.624 78.08-207.224 204.768l-9.84 9.704c-14.744 4.56-50.048 15.904-76.736 24.512 8.592-28.376 18.904-62.656 23.504-78.872C222.728 234.248 404.44 52.816 411.344 46c1.344-1.344 13.608-13.128 28.72-13.128 8.576 0 16.84 3.912 25.232 11.96 10.032 9.624 15.2 18.872 15.344 27.512.16 8.896-4.92 18.728-15.096 29.232z"/></svg>