<svg version="1.1" xmlns="http://www.w3.org/2000/svg" xmlns:xlink="http://www.w3.org/1999/xlink" id="paper-clip" viewBox="0 0 512.8238 514.032"><path d="M86.77 504.832c-21.703 0-42.543-8.984-59.15-25.608-36.825-36.944-36.825-97.032-.01-133.952L314.748 40.36C359.547-4.512 428.17-.48 478.25 49.664c22.44 22.48 35.033 54.888 34.56 88.952-.47 33.704-13.64 65.96-36.143 88.504L259.66 458.144c-6.04 6.472-16.17 6.768-22.617.696-6.432-6.08-6.744-16.224-.68-22.672L453.7 204.792c17-17.032 26.75-41.192 27.11-66.624.36-25.448-8.83-49.44-25.183-65.832-30.72-30.784-80.736-46.904-117.92-9.632L50.58 367.616c-24.69 24.752-24.68 64.504-.32 88.928 11.423 11.432 24.983 17 39.423 16.128 14.288-.872 28.976-8.2 41.36-20.616l228.464-243.168c8.28-8.296 24.92-28.632 7.984-45.608-9.59-9.608-16.327-9.016-18.543-8.832-6.328.56-13.72 4.936-21.392 12.632l-171.96 182.888c-6.072 6.456-16.208 6.768-22.616.68-6.44-6.064-6.737-16.224-.68-22.656L304.57 144.76c13.545-13.608 27.393-20.984 41.49-22.248 11-.976 27.36 1.368 44.047 18.104 24.768 24.816 21.688 61.216-7.64 90.608L154.003 474.376c-18.24 18.304-40.264 28.936-62.36 30.296-1.624.112-3.248.16-4.872.16z"/></svg>