<svg version="1.1" xmlns="http://www.w3.org/2000/svg" xmlns:xlink="http://www.w3.org/1999/xlink" id="paper-plane" viewBox="0 0 512 514.032"><path d="M502.016 1.016c-3.048 0-6.76.864-11.048 2.68L13.64 206.24c-17.184 7.288-18.272 21.344-2.416 31.224l134.88 84.016c15.856 9.872 36.824 31.04 46.592 47.024l80.856 132.384c4.64 7.592 10.248 11.36 15.64 11.36 5.96 0 11.64-4.576 15.512-13.616L508.832 21.76c5.528-12.936 2.376-20.744-6.816-20.744zm-339.24 291.96L53.448 224.872 420.256 69.248 184.16 309.344c-7.216-6.4-14.544-12.112-21.384-16.368zM286.36 458.648l-65.216-106.76c-3.848-6.304-8.928-13.024-14.592-19.696L443.744 91 286.36 458.648z"/></svg>