<svg version="1.1" xmlns="http://www.w3.org/2000/svg" xmlns:xlink="http://www.w3.org/1999/xlink" id="pencil" viewBox="0 0 513.0744 514.032"><path d="M482.656 25.848C465.224 9.144 445.992.68 425.464.68c-32.096 0-55.512 20.736-61.92 27.088-9.016 8.928-316.576 316.6-316.576 316.6-2.008 2.016-3.472 4.536-4.224 7.296C35.808 377.296 1.064 491.024.72 492.168c-1.784 5.824-.192 12.168 4.104 16.464 3.088 3.072 7.2 4.72 11.416 4.72 1.656 0 3.328-.248 4.96-.784 1.176-.384 118.568-38.328 137.888-44.096 2.544-.768 4.872-2.144 6.768-4.016 12.208-12.064 299.064-295.728 318.104-315.392 19.696-20.296 29.48-41.432 29.104-62.808-.392-21.104-10.624-41.424-30.408-60.408zM358.448 78.936c8.152 1.976 27.376 8.432 47.008 28.24 19.84 20.016 25.208 42.896 26.208 48.104-62.912 62.584-207.728 205.864-264.816 262.336-5.272-12.28-13.792-27.072-27.496-40.88-16.736-16.864-33.768-26.392-46.904-31.752 56.496-56.504 204.04-204.112 266-266.048zM70.72 371.992c8.792 2.336 27.056 9.112 45.672 27.88 14.336 14.456 21.104 30.4 24.144 40.12-22.24 7.152-70.936 23.96-101.88 33.936 9.168-30.168 24.656-77.152 32.064-101.936zM460.736 126.2c-.656.672-1.736 1.768-3.032 3.08-5.056-13.024-13.928-29.76-29.288-45.248-15.696-15.824-31.616-25.16-44.376-30.68 1.088-1.08 1.928-1.928 2.256-2.248 1.832-1.808 18.448-17.688 39.16-17.688 11.92 0 23.624 5.44 34.808 16.16 13.256 12.712 20.088 25.256 20.312 37.296.216 12.288-6.456 25.52-19.84 39.328z"/></svg>