<svg version="1.1" xmlns="http://www.w3.org/2000/svg" xmlns:xlink="http://www.w3.org/1999/xlink" id="pie-chart" viewBox="0 0 512 514.032"><path d="M287.8 47.72c-8.832 0-16 7.168-16 16s7.168 16 16 16c113.224 0 192.2 82.736 192.2 195.952 0 113.232-92.112 205.344-205.336 205.344-113.216 0-195.96-81.8-195.96-195.032 0-8.832-7.168-16-16-16s-16 7.168-16 16c0 130.872 97.096 227.032 227.96 227.032S512 406.544 512 275.672C512 144.816 418.664 47.72 287.8 47.72zm-47.672 177.424V17.016c0-8.832-7.168-16-16-16C99.504 1.016 0 100.52 0 225.144c0 8.832 7.168 16 16 16h208.128c8.832 0 16-7.168 16-16zm-32-16H32.656C40.384 114.896 113.88 41.4 208.128 33.672v175.472z"/></svg>