<svg version="1.1" xmlns="http://www.w3.org/2000/svg" xmlns:xlink="http://www.w3.org/1999/xlink" id="pin" viewBox="0 0 512.166 514.032"><path d="M507.504 190.848L323.424 5.84c-3.968-3.984-9.688-5.608-15.16-4.248-5.456 1.328-9.8 5.424-11.472 10.784-11.08 35.656-12.36 67.92-3.896 97.344-.776.536-1.52 1.12-2.208 1.808l-85.552 85.536c-27.6-12.8-57.272-19.728-86.848-19.728-18.8 0-37.232 2.784-54.784 8.232-5.344 1.672-9.44 6-10.784 11.424-1.344 5.44.232 11.168 4.184 15.144l109.488 110.192-153.08 155.52L0 512.912l32.184-12.44 156.68-155.52 110.912 111.632c3.032 3.064 7.144 4.72 11.344 4.72 1.264 0 2.544-.16 3.816-.456 5.456-1.344 9.8-5.44 11.472-10.8 14.488-46.616 10.24-96.672-10.168-141.56l87.352-87.368c.312-.312.528-.664.816-1 13.184 3.768 26.848 5.784 41.024 5.784 17.608 0 36.28-2.528 55.488-8.504 5.344-1.656 9.44-6 10.784-11.424 1.328-5.424-.248-11.152-4.2-15.128zm-205.848 222.24L100.264 210.384c51.688-6.032 107.424 14.8 147.784 55.16 40.16 40.152 59.752 95.648 53.608 147.544zm-1.464-133.8c-8.416-12.864-18.232-25.088-29.512-36.376-11.232-11.232-23.504-21.128-36.48-29.664l72.064-72.048c7.352 12.784 16.832 25 28.504 36.664 11.928 11.92 24.544 21.568 37.8 29.032l-72.376 72.392zm57.2-124.048c-30.768-30.768-42.624-65.064-36.344-106.44L464.504 193c-41.328 5.928-75.8-6.448-107.112-37.76z"/></svg>