<svg version="1.1" xmlns="http://www.w3.org/2000/svg" xmlns:xlink="http://www.w3.org/1999/xlink" id="plane" viewBox="0 0 512 514.032"><path d="M467.16 33.968c5.216 0 8.888.968 10.8 1.704 2.296 6.112 5.376 28.016-17.264 50.672L355.36 191.672l-10.16 10.16.832 14.328c1.752 29.984 5 83.72 7.8 129.784 2.472 41 4.816 79.72 4.968 83.016.08 2.264.112 2.8-2 5.344-4.72 5.736-13.528 15.456-20.952 23.512-11.512-31.016-35.704-96.528-49.064-133.2l-17.168-47.184-35.512 35.512-65.304 62.792-9.096 9.08-.28 12.84c-.216 10.248-.168 28.64-.144 44.856.032 11.296.064 21.56-.016 27.216-.144.264 2.184.576 1.968.952-1.392-2.232-2.888-4.64-4.472-7.144-13.168-21-31.392-50.048-36.952-59.112l-4.064-6.64-6.672-4.032c-24.264-14.656-51.144-31.576-67.544-42.144.568-.328 1.032 1.408 1.408 1.208H44c5.16 0 13.688.112 23.248.248 12.504.168 26.688.376 37.544.376 4.16 0 7.856-.032 10.832-.096l12.84-.296 9.08-9.08 62.872-64.856 35.392-35.376-46.968-17.28c-35.296-12.984-102.904-38.232-134.528-50.112C62.424 168.872 72.2 160 77.904 155.28c1.592-1.312 2.832-1.984 3.688-1.984l1.128.032c3.528.168 47.344 3.032 89.704 5.8 44.968 2.936 95.72 6.248 124.576 8.08l14.424.904 10.216-10.216L426.936 52.592c16.224-16.2 32.16-18.624 40.224-18.624m0-32c-18.904 0-42.112 7.264-62.84 28L299.016 135.264c-59.312-3.752-211.216-13.8-214.984-13.904-.672-.032-1.504-.064-2.44-.064-5.128 0-13.984.984-24.064 9.312-11.832 9.784-36.504 32.984-36.504 32.984-5.952 5.968-8.968 13.36-8.248 20.312.44 4.2 2.72 11.856 13.032 15.888 6.264 2.456 105.952 39.752 151.984 56.688l-62.872 64.856c-2.784.064-6.232.096-10.128.096-19.168 0-48.888-.624-60.8-.624-1.576 0-2.84 0-3.736.032-3.624.112-11.128-1.672-30.92 14.872l-1.408 1.312C1.992 342.96.6 348.88.472 352.792c-.128 4.032.952 9.84 6.784 14.512 3.504 2.832 48.424 31.592 85.264 53.84 8.832 14.408 49.472 79 51.592 82.504 3.096 5.232 8.16 8.216 14.216 8.408h.504c5.888 0 11.936-2.92 17.856-8.672 16.752-19.592 14.44-27.704 14.512-31.112.264-10.688-.184-55.968.2-73.92l65.296-62.8c16.688 45.84 53.168 144.504 55.608 150.784 4.064 10.312 11.72 12.576 15.92 13 .688.08 1.392.112 2.08.112 6.312 0 12.856-2.968 18.216-8.328 0 0 23.128-24.544 32.952-36.488 9.84-11.936 9.456-22.128 9.264-26.936-.08-3.328-9.344-154.408-12.784-213.408L483.28 108.96c37.328-37.344 31.392-82.344 17.528-96.184-6.12-6.152-18.512-10.808-33.648-10.808z"/></svg>