<svg version="1.1" xmlns="http://www.w3.org/2000/svg" xmlns:xlink="http://www.w3.org/1999/xlink" id="plus" viewBox="0 0 512 514.032"><path d="M256 1.016c-141.384 0-256 114.616-256 256 0 141.392 114.616 256 256 256 141.392 0 256-114.608 256-256 0-141.384-114.608-256-256-256zm0 480.504c-123.512 0-224-100.992-224-224.504s100.488-224 224-224 224 100.488 224 224S379.512 481.52 256 481.52zm112-240.504h-96v-96c0-8.832-7.168-16-16-16s-16 7.168-16 16v96h-96c-8.832 0-16 7.168-16 16s7.168 16 16 16h96v96c0 8.832 7.168 16 16 16s16-7.168 16-16v-96h96c8.832 0 16-7.168 16-16s-7.168-16-16-16z"/></svg>