<svg version="1.1" xmlns="http://www.w3.org/2000/svg" xmlns:xlink="http://www.w3.org/1999/xlink" id="pointer" viewBox="0 0 512 514.032"><path d="M257.832.832C152.88.832 64 90.216 64 196.104c0 110.88 103.016 224.272 172.312 303.968.264.32 11.464 12.76 25.264 12.76h1.224c13.8 0 24.92-12.44 25.2-12.76 65.032-74.76 160-198.024 160-303.968C448 90.216 378.672.832 257.832.832zm6.416 477.776c-.56.56-1.376 1.184-2.096 1.704-.736-.504-1.536-1.144-2.128-1.704l-8.368-9.624C185.96 393.616 96 290.408 96 196.104c0-88.504 74.112-163.28 161.832-163.28 109.264 0 158.168 82 158.168 163.28 0 71.592-51.064 166.648-151.752 282.504zM256.56 97.72c-53.016 0-96 42.984-96 96s42.984 96 96 96 96-42.984 96-96-42.984-96-96-96zm0 160c-35.288 0-64.736-29.408-64.736-64.704 0-35.288 28.712-64 64-64 35.312 0 64 28.712 64 64 .016 35.296-27.952 64.704-63.264 64.704z"/></svg>