<svg version="1.1" xmlns="http://www.w3.org/2000/svg" xmlns:xlink="http://www.w3.org/1999/xlink" id="power" viewBox="0 0 512 514.032"><path d="M350.776 83.064c-8-3.728-17.512-.296-21.264 7.712-3.76 8-.296 17.52 7.704 21.272 81.168 38 125.248 125.976 107.176 213.936-21.456 104.44-123.832 171.904-228.28 150.512-50.584-10.392-92.104-39.856-120.528-82.968-28.432-43.128-38.368-94.752-27.976-145.336C79.96 188.08 118.92 138.528 174.488 112.24c7.984-3.776 11.4-13.312 7.616-21.304-3.776-7.976-13.296-11.368-21.296-7.616-64.752 30.632-110.144 88.368-124.544 158.432-12.112 58.968-.536 119.128 32.592 169.392 33.136 50.24 81.848 84.584 140.816 96.704 15.216 3.128 30.408 4.624 45.376 4.624 104.728 0 198.824-73.56 220.688-180.056 21.056-102.504-30.328-205.048-124.96-249.352zm-94.768 125.952c8.832 0 16-7.168 16-16v-176c0-8.832-7.168-16-16-16s-16 7.168-16 16v176c0 8.832 7.168 16 16 16z"/></svg>