<svg version="1.1" xmlns="http://www.w3.org/2000/svg" xmlns:xlink="http://www.w3.org/1999/xlink" id="printer" viewBox="0 0 512.048 514.032"><path d="M476.392 128.48h-60.36V1.256H96.016V128.48h-60.36C16 128.48 0 144.48 0 164.152v216.944c0 19.672 16 35.672 35.656 35.672h60.36v96.008h320.016v-96.008h60.36c19.656 0 35.656-16 35.656-35.672V164.152c0-19.672-16-35.672-35.656-35.672zM128.016 32.76h256.016v95.72H128.016V32.76zm256.016 448.016H128.016v-176.2h256.016v176.2zm96.016-99.68c0 2.04-1.64 3.672-3.656 3.672h-60.36V272.576H96.016V384.76h-60.36c-2.016 0-3.656-1.632-3.656-3.672V164.152c0-2.032 1.64-3.672 3.656-3.672h440.736c2.016 0 3.656 1.64 3.656 3.672v216.944zm-64.024-188.36h-16c-8.832 0-16 7.168-16 16s7.168 16 16 16h16c8.832 0 16-7.168 16-16s-7.168-16-16-16z"/></svg>