<svg version="1.1" xmlns="http://www.w3.org/2000/svg" xmlns:xlink="http://www.w3.org/1999/xlink" id="puzzle" viewBox="0 0 512.422 514.032"><path d="M256.208 513.096c-10.144 0-19.688-3.936-26.872-11.096L11.08 283.752c-14.768-14.84-14.768-38.976-.032-53.784L91 150.032c4.936-4.936 12.512-6.112 18.72-2.872 6.184 3.232 9.56 10.112 8.344 16.984-.816 4.576-1.184 8.248-1.184 11.56 0 35 28.488 64.072 63.504 64.072 35.048 0 60.64-29.072 60.64-64.072 0-35.048-25.592-63.544-60.64-63.544-3.28 0-6.936.376-11.512 1.184-6.936 1.28-13.752-2.16-16.984-8.344-3.232-6.2-2.064-13.784 2.872-18.72l74.544-74.56c14.44-14.376 39.408-14.344 53.784-.032l54.576 54.608c11.392-35.408 44.64-61.112 83.768-61.112 48.512 0 87.984 39.488 87.984 88.016 0 39.128-25.688 72.376-61.112 83.752l53.016 52.984c14.8 14.84 14.8 38.976.016 53.8L283.112 501.968c-7.216 7.192-16.76 11.128-26.904 11.128zM87.656 198.624L33.704 252.56c-2.328 2.344-2.328 6.216.032 8.592L251.92 479.344c3.064 3.032 5.472 3.064 8.592-.032L478.688 261.12c2.344-2.36 2.344-6.2-.016-8.576L401.72 175.64c-4.816-4.816-6.064-12.16-3.096-18.28s9.424-9.752 16.264-8.92l2.44.312c1.344.184 2.688.408 4.096.408 30.872 0 55.984-25.096 55.984-55.952 0-30.888-25.112-56.016-55.984-56.016-30.856 0-55.968 25.128-55.968 56.016 0 1.28.2 2.528.376 3.784l.344 2.856c.72 6.752-2.888 13.216-9.016 16.144-6.08 2.904-13.408 1.656-18.2-3.128l-78.472-78.512c-3.064-3.032-5.472-3.064-8.592.032l-48.56 48.56c41.64 10.312 69.688 47.984 69.688 92.768 0 52.656-39.96 96.064-92.648 96.064-44.768-.008-82.424-31.544-92.72-73.152z"/></svg>