<svg version="1.1" xmlns="http://www.w3.org/2000/svg" xmlns:xlink="http://www.w3.org/1999/xlink" id="question" viewBox="0 0 512.008 514.032"><path d="M256 1.016c-141.384 0-256 114.616-256 256 0 141.392 114.616 256 256 256 141.392 0 256.008-114.608 256.008-256 0-141.384-114.616-256-256.008-256zm0 480.504c-123.512 0-224-100.992-224-224.504s100.488-224 224-224 224.008 100.488 224.008 224S379.512 481.52 256 481.52zm-23.528-80.264h40.256v-40.624h-40.256v40.624zm23.056-288.472c-23.44 0-42.752 6.32-57.92 18.944-15.168 12.632-22.544 37.928-22.168 58.888l.592 1.168h36.72c0-12.504 4.168-30.472 12.504-36.92 8.328-6.44 18.424-9.664 30.28-9.664 13.664 0 24.168 3.712 31.536 11.136 7.36 7.424 11.032 18.04 11.032 31.832 0 11.592-2.72 21.488-8.184 29.688-5.48 8.2-14.664 19.92-27.544 35.16C249.088 265 240.88 274.632 237.76 281.92c-3.128 7.296-4.752 20.384-4.872 39.256h38.48c0-11.84.752-20.568 2.248-26.168 1.488-5.592 5.752-11.912 12.784-18.944 15.112-14.576 27.248-28.832 36.44-42.776 9.168-13.928 13.76-29.296 13.76-46.096 0-23.44-7.088-41.704-21.288-54.784-14.208-13.088-34.136-19.624-59.784-19.624z"/></svg>