<svg version="1.1" xmlns="http://www.w3.org/2000/svg" xmlns:xlink="http://www.w3.org/1999/xlink" id="refresh" viewBox="0 0 512 514.032"><path d="M248.704 450.296c-.04-.096-.136-.16-.192-.24l-45.96-71.832c-3.264-5.36-10.344-7.264-15.864-4.256l-4.096 2.52c-5.504 3-5.384 10.768-2.128 16.128l29.464 45.704c-2.512-.552-5.048-1-7.528-1.648-51.592-13.496-95.248-48.416-119.768-95.8-23.168-44.76-27.52-95.848-12.256-143.872 15.256-48.024 49.888-87.232 94.648-110.392 7.624-3.944 10.6-13.32 6.656-20.928-3.936-7.632-13.32-10.616-20.928-6.664-52.136 26.976-92.2 72.64-109.984 128.576C22.992 243.52 28.056 303.032 55.04 355.16c28.568 55.168 79.416 95.832 139.512 111.568.68.176 1.392.28 2.08.456L155.976 487.8c-5.504 3.016-7.328 9.816-4.064 15.176l1.576 4.088c3.28 5.36 8.92 7.264 14.408 4.256l74.416-38.104c.096-.064.192-.048.288-.112l4.992-2.728c2.76-1.512 4.584-3.984 5.312-6.752.76-2.76.408-5.832-1.224-8.496l-2.976-4.832zm208.248-288.872c-28.528-55.152-77.792-95.816-137.88-111.56-4.28-1.12-8.656-1.992-13.024-2.856l39.912-20.24c5.504-3.016 8.784-9.816 5.52-15.184l-1.576-4.08C346.624 2.136 339.528.24 334.04 3.24l-74.408 38.104c-.088.056-.192.04-.288.104l-4.984 2.736c-2.768 1.52-4.584 3.984-5.312 6.752-.76 2.76-.408 5.824 1.232 8.488l2.96 4.856c.048.096.136.152.192.248l45.96 71.824c3.256 5.368 10.344 7.264 15.856 4.256l3.608-2.512c5.504-3 5.864-10.768 2.616-16.12l-29.6-45.928c6.504 1 12.984 2.208 19.312 3.88 51.616 13.52 93.696 48.432 118.2 95.784 23.16 44.76 27.512 95.848 12.24 143.864-15.256 48.024-48.328 87.224-93.088 110.408-7.616 3.944-10.584 13.304-6.64 20.936 2.76 5.32 8.168 8.384 13.8 8.384 2.4 0 4.832-.56 7.136-1.744 52.136-26.968 90.624-72.64 108.408-128.56 17.768-55.952 12.696-115.464-14.288-167.576z"/></svg>