<svg version="1.1" xmlns="http://www.w3.org/2000/svg" xmlns:xlink="http://www.w3.org/1999/xlink" id="rocket" viewBox="0 0 513.1512 514.032"><path d="M105.414 442.648c-10.056 20.904-16.4 34.832-72.344 36.864 1.608-53.984 11.896-59.776 32.496-70.04 8.648-4.312 19.416-9.672 31.056-18.624l-19.48-24.872c-9.2 7.064-17.664 10.784-25.848 14.856C16.974 397.944.798 414.8.798 495.16l.272 16.352 15.728-.352c84.816 0 100.664-19.16 116.552-52.16 3.48-7.232 5.416-12.12 11.28-21.864l-23.728-21.552c-7.112 9.704-11.552 18.936-15.488 27.064zm247.64-347.304c-35.384 0-64.176 28.792-64.176 64.168 0 35.392 28.8 64.176 64.176 64.176 35.376 0 64.168-28.792 64.168-64.176 0-35.376-28.8-64.168-64.168-64.168zm0 96.208c-17.664 0-32.04-14.376-32.04-32.04 0-17.656 14.376-32.04 32.04-32.04s32.04 14.384 32.04 32.04c-.008 17.672-14.376 32.04-32.04 32.04zm159.408-175.88c-.488-7.984-6.816-14.384-14.8-14.976 0 0-89.544-6.528-175.688 25.64-31.472 11.752-57.376 30.368-81.552 58.568-20.16 23.512-40.192 66.016-57.872 101.304-6.832 13.624-13.36 26.656-18.896 36.608H74.646c-4.576 0-8.928 1.96-11.968 5.384L4.03 291.768C.278 296-.962 301.896.766 307.272c1.72 5.392 6.16 9.472 11.664 10.72l95.472 21.832c6.504 8.032 17.344 20.048 34.688 39.296l36.168 40.096 19.472 82.36c1.28 5.424 5.304 9.8 10.616 11.528 1.616.512 3.288.784 4.952.784 3.768 0 7.472-1.328 10.416-3.856l59.28-58.968c3.544-3.032 5.592-7.472 5.592-12.144v-82.56c7.968-4.952 22.096-12.576 35.392-20.016 36.232-20.248 90.312-45.456 112.736-65.392 31.576-28.064 43.08-48.64 54.376-79.056 26.856-72.344 21.144-172.016 20.872-176.224zm-50.888 165.08c-9.856 26.536-18.784 42.416-45.624 66.28-19.832 17.616-74.064 42.912-107.096 61.384-24.656 13.784-39.424 21.832-45.896 27.128-3.72 3.032-5.88 7.576-5.88 12.392v83.624l-33.76 37.096-14.376-60.8c-.616-2.608-1.888-5.032-3.696-7.032-29.424-32.608-73.872-81.904-77.28-85.816-2.224-2.704-5.304-4.624-8.784-5.424l-73.296-16.768 35.952-38h91.016c5.56 0 10.728-2.888 13.632-7.624 7.04-11.464 15.208-27.768 24.672-46.648 16.024-31.976 35.96-74.272 53.56-94.816 20.792-24.264 41.912-39.504 68.448-49.424C392.214 34.24 453.15 31.92 481.006 32.128c.52 29.504-.592 97.912-19.432 148.624z"/></svg>