<svg version="1.1" xmlns="http://www.w3.org/2000/svg" xmlns:xlink="http://www.w3.org/1999/xlink" id="screen-tablet" viewBox="0 0 512 514.032"><path d="M416.072 1.016H95.928c-26.512 0-48 21.488-48 48v416c0 26.512 21.488 48 48 48h320.144c26.512 0 48-21.488 48-48v-416c0-26.512-21.488-48-48-48zm16 464c0 8.832-7.168 16-16 16H95.928c-8.832 0-16-7.168-16-16v-416c0-8.832 7.168-16 16-16h320.144c8.832 0 16 7.168 16 16v416zm-176.048-63.912c-17.64 0-31.92 14.296-31.92 31.912s14.28 31.92 31.92 31.92c17.632 0 31.92-14.304 31.92-31.92s-14.288-31.912-31.92-31.912zm32-352.088h-64c-8.832 0-16 7.168-16 16s7.168 16 16 16h64c8.832 0 16-7.168 16-16s-7.168-16-16-16z"/></svg>