<svg version="1.1" xmlns="http://www.w3.org/2000/svg" xmlns:xlink="http://www.w3.org/1999/xlink" id="settings" viewBox="0 0 512 514.032"><path d="M480.248 208.544l-41.064-9.112c-3.2-10.24-7.392-20.04-12.2-29.464l22.216-37.016c8.296-13.256 12.488-32.76 0-45.256l-22.64-22.624c-12.488-12.496-33.576-10.248-46.312-1.416L344.232 86.6c-9.344-4.848-19.112-9-29.264-12.28l-9.216-41.56C303 17.52 289.672 1.016 272 1.016h-32c-17.672 0-28.504 16.752-32 32L197.736 74.08c-10.84 3.456-21.248 7.872-31.168 13.104l-36.92-23.512c-12.728-8.832-33.824-11.08-46.312 1.416L60.704 87.712c-12.496 12.504-8.304 32 0 45.256l23.376 38.96c-4.384 8.832-8.272 17.968-11.272 27.512l-41.056 9.112C16.504 211.296 0 224.624 0 242.296v32c0 17.672 16.752 28.504 32 32l41.576 10.392c2.872 8.816 6.464 17.28 10.528 25.488l-23.4 39c-8.296 13.248-12.488 32.752 0 45.248l22.64 22.624c12.488 12.504 33.576 10.248 46.312 1.424l37-23.576c9.976 5.264 20.44 9.72 31.352 13.168l10.24 40.952c3.504 15.248 14.328 32 32 32h32c17.672 0 31-16.504 33.752-31.752l9.232-41.672c10.048-3.248 19.688-7.344 28.92-12.128l36.096 23c12.736 8.832 33.832 11.08 46.312-1.424l22.64-22.624c12.488-12.504 8.296-32 0-45.248l-22.232-37.064c4.472-8.784 8.344-17.92 11.456-27.424L480 306.296c15.248-3.504 32-14.328 32-32v-32c0-17.672-16.496-31-31.752-33.752zm-.232 63.496c-1.36.976-3.92 2.32-7.168 3.072l-59.328 14.816-5.504 16.816c-2.488 7.576-5.704 15.264-9.56 22.856l-8.032 15.784 31.344 52.264c2 3.2 2.936 6.064 3.216 7.752l-21.048 21.016c-2.032-.64-4.344-1.472-5.456-2.232l-52.672-33.592-16.376 8.472c-7.888 4.096-15.984 7.488-24.048 10.096l-17.44 5.64-13.184 59.56c-.608 3.184-2.312 5.752-3.48 6.672h-28.8c-.976-1.36-2.312-3.92-3.056-7.16l-14.728-58.904-17.048-5.408c-8.784-2.768-17.544-6.456-26.072-10.952l-16.456-8.688-52.68 33.576c-2.152 1.456-4.456 2.28-6.544 2.28l-20.984-20.424c.28-1.656 1.152-4.392 2.896-7.184l32.728-54.528-7.784-15.672c-3.632-7.392-6.512-14.328-8.752-21.2l-5.496-16.832-58.744-14.688c-3.696-.84-6.368-2.216-7.76-3.2v-29.752c.016.008.04.016.072.016.536 0 3.168-1.872 5.36-2.272l60.36-13.368 5.544-17.64c2.256-7.184 5.336-14.672 9.408-22.888l7.784-15.68-32.384-53.96c-2.008-3.216-2.936-6.08-3.216-7.76l21.04-21.032c2.04.656 4.336 1.48 5.44 2.24l53.656 34.2 16.44-8.672c8.44-4.448 17.168-8.12 25.952-10.912l17.008-5.416 14.592-58.384c.848-3.696 2.208-6.368 3.2-7.76H272c-.216.328 1.84 3.12 2.264 5.432l13.44 60.704 17.424 5.632c8.168 2.64 16.376 6.08 24.36 10.224l16.376 8.504 51.576-32.856c2.16-1.472 4.472-2.288 6.544-2.288l21 20.408c-.28 1.664-1.16 4.408-2.904 7.208l-31.672 52.744 8.08 15.808c4.36 8.528 7.688 16.528 10.16 24.464l5.528 17.672 59.144 13.128c3.576.664 6.36 2.728 6.952 3.848l-.256 28.4zm-223.8-111.184c-53.136 0-96.368 43.144-96.368 96.16 0 53.008 43.232 96.152 96.368 96.152 53.136 0 96.368-43.144 96.368-96.152 0-53.016-43.232-96.16-96.368-96.16zM256 321.016c-35.288 0-64-28.712-64-64 0-35.296 28.712-64 64-64 35.296 0 64 28.704 64 64 0 35.288-28.712 64-64 64z"/></svg>