<svg version="1.1" xmlns="http://www.w3.org/2000/svg" xmlns:xlink="http://www.w3.org/1999/xlink" id="share-alt" viewBox="0 0 512 514.032"><path d="M450.92 475.704h-416v-320h128.8l32.36-31.168-.832-.832H34.92c-17.672 0-32 14.328-32 32v320c0 17.672 14.328 32 32 32h416c17.672 0 32-14.328 32-32V225.368l-32 30.544v219.792zm-315.856-128h32.24c22.432-127.248 133.272-224 266.944-224 5.608 0 10.928.048 16.312.088l-58.624 58.616c-6.232 6.248-6.232 16.376 0 22.624 3.128 3.128 7.232 4.688 11.328 4.688s8.168-1.56 11.296-4.688l94.512-97-94.512-97.016c-6.232-6.248-16.36-6.248-22.624 0-6.232 6.248-6.232 16.376 0 22.624l58.088 58.08c-5.016-.008-9.984-.024-15.104-.024-151.528 0-276.784 110.976-299.856 256.008z"/></svg>