<svg version="1.1" xmlns="http://www.w3.org/2000/svg" xmlns:xlink="http://www.w3.org/1999/xlink" id="share" viewBox="0 0 512 514.032"><path d="M432 353.016c-26.344 0-49.648 12.792-64.216 32.44l-210.68-107.36c1.832-6.728 2.896-13.768 2.896-21.08 0-9.152-1.608-17.904-4.44-26.088L367.44 128.12c14.544 19.904 38.008 32.896 64.56 32.896 44.184 0 80-35.824 80-80 0-44.184-35.816-80-80-80s-80 35.816-80 80c0 6.216.784 12.232 2.12 18.04L139.2 203.344c-14.64-16.136-35.696-26.328-59.2-26.328-44.184 0-80 35.816-80 80 0 44.176 35.816 80 80 80 25.448 0 48.064-11.912 62.712-30.432L354.264 414.4c-1.432 5.984-2.264 12.192-2.264 18.616 0 44.184 35.816 80 80 80s80-35.816 80-80-35.816-80-80-80zm0-320c26.504 0 48 21.496 48 48s-21.496 48-48 48-48-21.496-48-48 21.496-48 48-48zm-352 272c-26.512 0-48-21.496-48-48s21.488-48 48-48c26.504 0 48 21.496 48 48s-21.496 48-48 48zm352 176c-26.504 0-48-21.496-48-48s21.496-48 48-48 48 21.496 48 48-21.496 48-48 48z"/></svg>