<svg version="1.1" xmlns="http://www.w3.org/2000/svg" xmlns:xlink="http://www.w3.org/1999/xlink" id="shield" viewBox="0 0 512 514.032"><path d="M453.976 73.256c-5.936-5.544-13.752-8.608-21.832-8.608-.736 0-1.472.032-2.2.08-.456.032-5.592.344-13.64.344-13.328 0-39.344-.904-63.984-6.968-31.832-7.816-68.56-44.08-79.248-51.232-5.376-3.592-11.576-5.392-17.784-5.392-6.184 0-12.392 1.8-17.768 5.376-1.296.872-39.752 42.016-77.376 51.248-24.624 6.064-51.144 6.968-64.456 6.968-8.048 0-13.184-.312-13.688-.344-.704-.048-1.408-.08-2.112-.08-8.096 0-15.936 3.08-21.888 8.64-6.472 6.048-10.16 14.504-10.16 23.36v80.016c0 295.816 193.56 333.904 201.784 335.392 1.872.328 3.768.504 5.656.504s3.8-.168 5.656-.504c8.216-1.488 203.2-39.576 203.2-335.392V96.648c.016-8.872-3.672-17.344-10.16-23.392zm-21.824 103.408c0 272.456-176.856 303.888-176.856 303.888s-175.44-31.44-175.44-303.888V96.648s6.048.424 15.84.424c16.784 0 45.016-1.232 72.08-7.888 44.312-10.872 87.512-55.704 87.512-55.704s45.128 44.832 89.392 55.704c27.096 6.656 54.84 7.888 71.624 7.888 9.784 0 15.84-.424 15.84-.424s.008 10.176.008 80.016zM323.8 174.136c-6.248-6.248-16.384-6.248-22.624 0l-45.256 45.256-45.256-45.256c-6.248-6.248-16.384-6.248-22.632 0s-6.248 16.384 0 22.624l45.256 45.256-45.256 45.256c-6.248 6.24-6.248 16.376 0 22.624s16.384 6.248 22.632 0l45.256-45.256 45.256 45.256c6.24 6.248 16.376 6.248 22.624 0s6.248-16.384 0-22.624l-45.256-45.256L323.8 196.76c6.248-6.24 6.248-16.376 0-22.624z"/></svg>