<svg version="1.1" xmlns="http://www.w3.org/2000/svg" xmlns:xlink="http://www.w3.org/1999/xlink" id="shuffle" viewBox="0 0 512 514.032"><path d="M201.152 253.944l19.632-27.624-67.152-91.64H1.368v32h135.744l64.04 87.264zm258.24-87.264l-38.768 34.768c-4.672 4.472-6.184 11.72-1.512 16.184l2.736 4.032c4.688 4.472 12.248 4.472 16.912 0l63.872-57.752c.088-.08.192-.096.272-.168l4.232-4.048c2.336-2.248 3.504-5.184 3.488-8.144.016-2.936-1.152-5.888-3.488-8.112l-4.232-4.048c-.08-.08-.168-.112-.272-.184l-64.864-59.216c-4.68-4.472-12.232-4.472-16.92 0l-2.736 4.032c-4.68 4.472-3.16 11.704 1.512 16.168l38.024 34.488h-115.88l-204.656 288H1.368v32h152.256l204.664-288h101.104zm43.512 260.72c-.08-.08-.168-.112-.272-.184L437.768 368c-4.68-4.472-12.232-4.472-16.92 0l-2.736 4.032c-4.68 4.472-3.16 11.704 1.512 16.168l38.168 34.616-99.504-.136-57.216-88.504-19.64 27.624 60.328 92.88 117.472.144-38.608 34.624c-4.672 4.472-6.184 11.72-1.512 16.184l2.736 4.032c4.688 4.472 12.248 4.472 16.912 0l63.872-57.752c.088-.08.192-.096.272-.168l4.232-4.048c2.336-2.248 3.504-5.184 3.488-8.144.016-2.936-1.152-5.888-3.488-8.112l-4.232-4.04z"/></svg>