<svg version="1.1" xmlns="http://www.w3.org/2000/svg" xmlns:xlink="http://www.w3.org/1999/xlink" id="size-actual" viewBox="0 0 512.716 514.032"><path d="M191.958 174.416l-.336-115.504c-.144-6.464-5.496-10.312-11.96-10.464l-8.208-.008c-6.472-.144-11.592 5.488-11.456 11.944l.448 77.624L27.31 6.144c-6.248-6.248-16.376-6.248-22.624 0s-6.248 16.376 0 22.624l132.56 131.304-75.544.2c-6.464-.144-12.456 4.32-13.44 11.936l.016 8.208c.16 6.472 5.504 11.824 11.96 11.968l114.752-.504c.128.008.208.056.32.056l5.848.136c3.224.088 6.136-1.176 8.2-3.272 2.104-2.072 2.856-4.976 2.792-8.216l-.632-5.856c.008-.112.44-.2.44-.312zM323.35 188.8c2.064 2.088 4.976 3.36 8.2 3.272l5.848-.136c.112 0 .192-.04.32-.056l114.752.504c6.464-.144 11.808-5.496 11.96-11.968l.016-8.208c-.984-7.624-6.976-12.08-13.44-11.936l-75.544-.2 132.56-131.304c6.248-6.248 6.248-16.376 0-22.624s-16.376-6.248-22.624 0L352.27 138l.44-77.616c.152-6.464-4.976-12.088-11.448-11.944l-8.208.008c-6.48.152-11.824 4-11.96 10.464l-.336 115.504c0 .112.44.192.44.312l-.632 5.856c-.072 3.248.68 6.144 2.784 8.216zM189.366 324.728c-2.072-2.088-4.976-3.352-8.2-3.272l-5.848.144c-.112 0-.192.048-.32.056l-114.76-.504c-6.464.152-11.808 5.496-11.96 11.96l-.016 8.216c.984 7.608 6.976 12.08 13.44 11.928l75.624.2L4.686 485.264c-6.248 6.248-6.248 16.376 0 22.624s16.376 6.248 22.624 0L160.446 375.6l-.448 78.04c-.144 6.472 4.984 12.096 11.456 11.952l8.208-.016c6.472-.16 11.824-4 11.96-10.464l.336-115.504c0-.112-.44-.184-.44-.304l.632-6.352c.072-3.248-.68-6.144-2.784-8.224zm186.024 28.736l75.624-.2c6.464.152 12.456-4.32 13.44-11.928l-.016-8.216c-.16-6.472-5.504-11.816-11.96-11.96H337.726c-.128-.008-.208-.056-.32-.056l-6.848-.136c-3.224-.088-6.144 2.176-8.2 4.272-2.104 2.072-2.856 4.968-2.792 8.216l.632 5.848c0 .12-.44.192-.44.304l.336 115.504c.144 6.464 5.488 10.304 11.96 10.464l8.712.016c6.472.144 11.592-5.488 11.448-11.952l-.44-77.264 133.632 131.512c6.248 6.248 16.376 6.248 22.624 0s6.248-16.376 0-22.624l-132.64-131.8z"/></svg>