<svg version="1.1" xmlns="http://www.w3.org/2000/svg" xmlns:xlink="http://www.w3.org/1999/xlink" id="size-fullscreen" viewBox="0 0 512.5995 514.032"><path d="M343.253 192.608L480.885 55.824l-.448 77.536c-.144 6.464 4.984 12.088 11.456 11.944l8.208-.008c6.473-.152 11.825-4 11.96-10.464l.337-115.504c0-.112-.44-.2-.44-.312l.632-5.856c.063-3.248-.697-6.144-2.793-8.216-2.072-2.088-4.976-3.36-8.2-3.272l-5.848.136c-.113 0-.2.04-.32.056L380.684 1.36c-6.464.144-11.816 5.488-11.96 11.96l-.016 8.208c.983 7.624 6.975 12.08 13.44 11.936l75.623.2L320.63 169.976c-6.25 6.248-6.25 16.376 0 22.632 6.247 6.24 16.375 6.24 22.623 0zM169.845 321.424L32.213 457.784l.44-77.112c.152-6.472-4.984-12.096-11.448-11.952l-8.712.016c-6.48.16-11.824 4-11.96 10.472L.197 494.712c0 .112.44.184.44.312l-.632 5.84c-.072 3.248.688 6.16 2.792 8.216 2.064 2.096 4.976 3.36 8.192 3.28l5.855-.144c.112 0 .192-.048.32-.048l115.248.504c6.464-.16 11.808-5.504 11.96-11.968l.016-8.216c-.985-7.608-6.977-12.08-13.44-11.936l-75.625-.2L192.46 344.056c6.25-6.248 6.25-16.376 0-22.624s-16.367-6.256-22.615-.008zm342.56 173.28L512.07 379.2c-.145-6.472-5.497-10.312-11.96-10.472l-8.21-.016c-6.47-.144-11.59 5.488-11.455 11.952l.448 77.536-137.64-136.776c-6.248-6.248-16.376-6.248-22.624 0s-6.25 16.376 0 22.624l137.135 136.296-75.616.2c-6.465-.144-12.457 4.328-13.44 11.936l.015 8.216c.152 6.472 5.504 11.816 11.96 11.968l114.752-.504c.12 0 .208.048.32.048l5.848.144c3.224.08 6.136-1.184 8.2-3.28 2.096-2.064 2.848-4.968 2.792-8.216l-.632-5.84c0-.128.44-.2.44-.312zM55.325 33.68l75.632-.2c6.464.144 12.456-4.32 13.44-11.936l-.016-8.216c-.16-6.472-5.503-11.824-11.96-11.96l-115.255.496c-.128-.016-.208-.056-.32-.056l-5.856-.136c-3.217-.088-6.137 1.184-8.193 3.272C.693 7.016-.067 9.912.005 13.16l.632 5.856c0 .112-.44.192-.44.312l.336 115.504c.144 6.464 5.488 10.312 11.96 10.464l8.712.008c6.464.144 11.592-5.48 11.448-11.944l-.44-77.112 137.632 136.36c6.24 6.248 16.376 6.248 22.624 0 6.247-6.248 6.247-16.384 0-22.632L55.324 33.68z"/></svg>