<svg version="1.1" xmlns="http://www.w3.org/2000/svg" xmlns:xlink="http://www.w3.org/1999/xlink" id="social-twitter" viewBox="0 0 512.2842 514.032"><path d="M342.34 80.36c26.44 0 50.312 10.816 67.128 28.184 20.92-4.048 40.64-11.424 58.36-21.64-6.856 20.816-21.44 38.28-40.408 49.328 18.56-2.184 36.328-6.952 52.816-14.08-12.36 17.872-27.92 33.608-45.888 46.184.168 3.816.264 7.672.264 11.512 0 117.864-92.504 253.808-261.656 253.808-51.92 0-100.28-14.816-140.952-40.112 7.184.84 14.504 1.264 21.92 1.264 43.08 0 82.752-14.248 114.232-38.2-40.264-.688-74.248-26.504-85.904-61.92 5.608 1.048 11.376 1.608 17.312 1.608 8.36 0 16.504-1.08 24.2-3.128C81.7 285 49.996 248.944 49.996 205.704v-1.144c12.408 6.688 26.576 10.704 41.672 11.168-24.688-16.016-40.92-43.28-40.92-74.232 0-16.36 4.544-31.688 12.456-44.816 45.344 53.936 113.104 89.456 189.544 93.192-1.576-6.512-2.392-13.392-2.392-20.312 0-49.272 41.176-89.2 91.984-89.2m137.896 41.808h.08M342.34 48.36c-62.832 0-114.888 45.904-122.904 105.216-51.408-10.328-98.16-37.544-131.752-77.472-6.096-7.256-15.08-11.408-24.488-11.408-.832 0-1.672.032-2.512.096-10.296.824-19.56 6.56-24.888 15.392-11.16 18.512-17.048 39.72-17.048 61.328 0 14.424 2.592 28.472 7.504 41.608-5.232 5.816-8.248 13.424-8.248 21.456v1.144c0 31.344 12.392 60.432 32.968 82.232-1.184 5.488-.92 11.232.888 16.736 7.096 21.592 20.016 40.2 36.768 54.376-11.248 2.504-22.856 3.768-34.704 3.768-6.264 0-12.36-.344-18.128-1.048-1.28-.16-2.544-.216-3.816-.216-13.44 0-25.64 8.472-30.168 21.392-4.968 14.16.544 29.856 13.28 37.784 47.264 29.408 101.856 44.936 157.856 44.936 182.016 0 291.504-142.488 293.632-281.672 14.896-12.328 28.064-26.592 39.224-42.576 4.064-5.344 6.48-12.016 6.48-19.248 0-10.888-5.448-20.512-13.744-26.296 3.592-12.312-.504-25.64-10.504-33.784-5.84-4.752-13-7.168-20.2-7.168-5.504 0-11.016 1.408-15.984 4.28-10.576 6.096-21.888 10.92-33.8 14.392C396.5 57.392 369.78 48.36 342.34 48.36z"/></svg>