<svg version="1.1" xmlns="http://www.w3.org/2000/svg" xmlns:xlink="http://www.w3.org/1999/xlink" id="social-facebook" viewBox="0 0 512 514.032"><path d="M290.88 41.264c1.904 0 3 .08 3 .08h41.784l-.216 48h-41.504c-22.84 0-22.312 19.504-22.312 19.504v76.096h80.816l-11.28 47.936h-69.8v239.888h-47.952l-.032-239.888H159.68l-.128-47.936h63.856v-74.592c.008-65.04 54.024-69.088 67.472-69.088m44.784.08h.08M290.88 9.264c-11.504 0-33.984 1.904-55.28 14.736-20.16 12.128-44.184 36.968-44.184 86.344v42.592H159.56c-8.504 0-16.656 3.392-22.672 9.408-6 6.032-9.36 14.184-9.328 22.704l.128 47.936c.064 17.624 14.376 31.888 32 31.888h31.704l.032 207.888c0 17.672 14.328 32 32 32h47.952c17.672 0 32-14.328 32-32V264.872h37.8c14.2 0 26.704-9.36 30.704-22.984l11.28-47.936c2.84-9.672.952-20.128-5.096-28.184-6.032-8.08-15.528-12.832-25.608-12.832H303.64V121.36l31.816-.016c17.608 0 31.92-14.232 32-31.856l.216-46.376c.032-.592.048-1.168.048-1.768 0-17.672-14.296-32-31.968-32H294.784c-.92-.048-2.248-.08-3.904-.08z"/></svg>