<svg version="1.1" xmlns="http://www.w3.org/2000/svg" xmlns:xlink="http://www.w3.org/1999/xlink" id="social-dropbox" viewBox="0 0 512 514.032"><path d="M511.712 113.392c-.36-5.112-3.144-9.736-7.488-12.456L361.632 11.952c-5.8-3.608-13.216-3.16-18.528 1.144l-87.112 70.472-87.096-70.472c-5.296-4.28-12.768-4.768-18.528-1.144L7.776 100.936c-4.344 2.72-7.128 7.344-7.488 12.456-.376 5.112 1.736 10.08 5.656 13.376l82.608 69.408-70.768 55.592c-4.048 3.16-6.312 8.088-6.112 13.208.2 5.12 2.84 9.832 7.112 12.68l65.488 43.656c-3.216 2.92-5.272 7.104-5.272 11.8v64.168c0 5.56 2.888 10.72 7.624 13.64l160.984 91.216c2.56 1.576 5.472 2.36 8.376 2.36s5.816-.8 8.392-2.376l159.112-91.216c4.736-2.92 7.608-8.08 7.608-13.624v-75.264c0-1.032-.12-2.04-.304-3.016l62.024-41.344c4.264-2.84 6.904-7.544 7.112-12.664.2-5.128-2.048-10.04-6.08-13.208l-70.456-55.576 82.656-69.44c3.928-3.296 6.04-8.264 5.664-13.376zm-143.376 82.952l-112.344 70.392-112.344-70.392 112.344-73.112 112.344 73.112zM43.4 116.44l114.232-71.296 71.184 57.592-113.672 73.984L43.4 116.44zm71.56 99.688l112.984 70.8-64.032 49.016-109-72.656 60.048-47.16zm-3.952 123l44.672 29.784c5.672 3.784 13.16 3.528 18.592-.608l64.704-49.52v141.4l-127.968-71.84v-49.216zm288.096 49.216l-128.128 72.84V317.296l66.328 50.984c2.856 2.2 6.312 3.312 9.752 3.312 3.096 0 6.184-.888 8.872-2.688l43.168-28.784v48.224zm57.624-125.088L347.712 335.92l-63.72-48.968 113-70.816 59.736 47.12zm-59.896-86.536L283.16 102.736l71.2-57.592 114.232 71.296-71.76 60.28z"/></svg>