<svg version="1.1" xmlns="http://www.w3.org/2000/svg" xmlns:xlink="http://www.w3.org/1999/xlink" id="social-dribbble" viewBox="0 0 512 514.032"><path d="M255.992 1.152c-34.928 0-68.232 7.056-98.592 19.784-1.056.336-2.088.776-3.072 1.336C63.696 61.68.136 152.048.136 257.024c0 141.08 114.784 255.856 255.856 255.856 141.096 0 255.872-114.784 255.872-255.856 0-141.096-114.776-255.872-255.872-255.872zm223.872 255.872c0 1.792-.096 3.56-.136 5.336-24.512-6.504-86.696-18.72-163.4-1.872-6.76-15.448-14.256-31.288-22.64-47.408-.704-1.352-1.392-2.64-2.088-3.976 82.064-31.672 116.944-74.336 131.384-100.976 35.344 39.608 56.88 91.776 56.88 148.896zM398.768 84.736c-7.456 17.6-34.52 63-122.36 95.944-39.448-72.112-70.112-115.336-87.296-137.32 21.128-6.632 43.592-10.208 66.88-10.208 54.216 0 103.992 19.384 142.776 51.584zm-240.744-28.96c13.608 16.64 45.192 58.528 87.552 135.224-100 30.144-181.224 26.52-209.416 23.896C49.568 144.824 95.696 86.24 158.024 55.776zM32.136 257.024c0-3.448.104-6.872.264-10.288 9.624.968 24.576 2.04 44.144 2.04 43.448 0 108.856-5.376 184.504-29.072 1.424 2.688 2.832 5.368 4.272 8.136 7.216 13.888 13.744 27.592 19.704 41.032-13.688 4.304-27.696 9.536-41.936 15.984-91.312 41.352-134.096 100.352-149.336 126.168-38.136-40.16-61.616-94.376-61.616-154zm85.912 176.112c8.12-15.376 45.304-77.04 138.224-119.128 13.984-6.336 27.76-11.392 41.192-15.456 30.368 77.16 40.904 140.784 44.088 165.296-26.376 10.952-55.264 17.032-85.56 17.032-52.008 0-99.896-17.88-137.944-47.744zm253.76 15.4c-4.616-30.8-16.072-88.696-42.984-157.832 74.224-14.776 132.976-.28 147.808 4.04-11.112 65.104-50.368 120.744-104.824 153.792z"/></svg>