<svg version="1.1" xmlns="http://www.w3.org/2000/svg" xmlns:xlink="http://www.w3.org/1999/xlink" id="social-tumblr" viewBox="0 0 512 514.032"><path d="M264.008 32.888v111.936h112.16v47.984H264.504l-.16 139.264c0 25.888 1.344 42.504 4.08 49.872 4.264 11.624 19.784 26.504 48.592 26.504 22.344 0 52.488-6.72 75.08-23.624v74.656c-18.84 8.984-36.36 12.608-51.624 16.232-15.28 3.608-31.832 5.424-49.576 5.424-19.768 0-76.832-.544-100.248-60.2-4.216-10.736-6.328-26.328-6.328-46.736V192.888h-64.424l.312-49.064c21.328 0 85.312-12.952 85.312-110.936h58.488m0-32H205.52c-17.672 0-32 14.328-32 32 0 73.248-40.816 78.936-53.312 78.936-17.608 0-31.92 14.232-32 31.84l-.312 49.064c-.048 8.512 3.312 16.688 9.312 22.736 6.016 6.032 14.168 9.424 22.688 9.424h32.424V374.2c0 24.688 2.8 43.816 8.544 58.44 14.424 36.72 48.688 80.504 130.032 80.504 20.144 0 39.296-2.112 56.936-6.28l3.528-.832c14.936-3.512 34.016-7.888 54.504-17.656 11.144-5.312 18.232-16.544 18.232-28.888v-74.656c0-12.112-6.84-23.184-17.672-28.608-4.528-2.28-9.44-3.392-14.328-3.392-6.784 0-13.528 2.16-19.168 6.376-19.048 14.264-43.424 17.248-55.904 17.248-12.8 0-17.56-4.64-18.608-5.872-.544-2.512-2.064-11.888-2.064-38.504l.112-107.264h79.704c17.672 0 32-14.328 32-32v-47.984c0-17.672-14.328-32-32-32h-80.16V32.888c0-17.672-14.328-32-32-32z"/></svg>