<svg version="1.1" xmlns="http://www.w3.org/2000/svg" xmlns:xlink="http://www.w3.org/1999/xlink" id="social-youtube" viewBox="0 0 512.544 514.032"><path d="M470.64 95.864c-13.872-9.984-52.528-23.248-214.504-23.248-173.576 0-199.328 15.232-207.592 20.216C4.56 119.256.384 236.24 0 259.96c.528 31.328 5.592 135.56 48.512 161.344 8.248 4.968 33.856 20.112 207.624 20.112 162.08 0 200.688-13.2 214.504-23.144 37.488-26.968 41.8-119.84 41.904-158.72-.096-31.264-3.376-135.936-41.904-163.688zm-18.688 296.44c-5.576 4.016-37.592 17.112-195.816 17.112-152.968 0-185.064-11.872-191.128-15.528-15.44-9.264-31.736-58.44-33.016-134.016 1.264-75.408 17.784-130.456 33.048-139.608 6.08-3.672 38.296-15.64 191.096-15.64 158.096 0 190.2 13.184 195.816 17.216 13.704 9.872 28.376 61.84 28.592 137.816-.216 77.168-14.984 122.856-28.592 132.648zM360.48 244.432l-143.968-88.344c-4.952-2.984-11.112-3.064-16.128-.232-5.032 2.84-8.144 8.168-8.144 13.936v176.72c0 5.768 3.112 11.096 8.144 13.936 2.44 1.376 5.16 2.064 7.856 2.064 2.856 0 5.736-.768 8.264-2.296l143.968-88.376c4.8-2.904 7.736-8.096 7.736-13.704s-2.928-10.816-7.728-13.704zm-136.232 73.736V198.12l97 60.016-97 60.032z"/></svg>