<svg version="1.1" xmlns="http://www.w3.org/2000/svg" xmlns:xlink="http://www.w3.org/1999/xlink" id="speedometer" viewBox="0 0 512 514.032"><path d="M255.992 19.08C115.008 19.08.32 133.784.32 274.768c0 88.576 44.84 169.592 119.952 216.704 7.472 4.736 17.344 2.44 22.048-5.048s2.44-17.36-5.048-22.048c-27.048-16.976-49.52-39.024-66.712-64.44l16.776-9.688c7.656-4.424 10.28-14.2 5.856-21.856-4.44-7.672-14.232-10.28-21.856-5.856l-16.8 9.696c-12.2-25.256-19.648-52.896-21.64-81.712h17.808c8.84 0 16-7.16 16-16s-7.16-16-16-16H32.976c2.12-29.344 9.888-57.152 22.28-82.296l16.08 9.28c2.512 1.456 5.264 2.144 7.984 2.144 5.528 0 10.904-2.872 13.872-8 4.424-7.656 1.8-17.44-5.856-21.856l-15.92-9.184c16.056-23.416 36.432-43.648 59.992-59.512l9.008 15.6c2.968 5.144 8.344 8 13.872 8 2.72 0 5.472-.688 7.984-2.144 7.656-4.424 10.28-14.2 5.856-21.856l-8.976-15.536c24.664-11.896 51.84-19.328 80.488-21.408v19.936c0 8.84 7.16 16 16 16s16-7.16 16-16v-20c29.296 2.04 57.064 9.696 82.192 21.976l-8.68 15.024c-4.424 7.656-1.8 17.44 5.856 21.856 2.512 1.456 5.264 2.144 7.984 2.144 5.528 0 10.904-2.856 13.872-8l8.64-14.968c23.344 15.888 43.536 36.072 59.44 59.408l-14.984 8.656c-7.656 4.424-10.28 14.2-5.856 21.856 2.968 5.144 8.344 8 13.872 8 2.72 0 5.472-.688 7.984-2.144l15.064-8.696c12.296 25.136 19.976 52.912 22.024 82.216H461.48c-8.84 0-16 7.16-16 16s7.16 16 16 16h17.56c-2.024 28.44-9.296 55.72-21.248 80.656l-15.84-9.144c-7.64-4.424-17.456-1.784-21.856 5.856-4.424 7.656-1.8 17.44 5.856 21.856l15.888 9.176c-17.552 26.12-40.72 48.696-68.68 65.912-7.528 4.64-9.856 14.504-5.232 22.016 3.032 4.904 8.264 7.608 13.64 7.608 2.856 0 5.768-.768 8.376-2.376C466.176 445.624 511.68 364.184 511.68 274.76c0-140.976-114.704-255.68-255.688-255.68zm118.064 205.8c7.648-4.424 10.272-14.2 5.856-21.856-4.416-7.648-14.208-10.272-21.856-5.848l-86.912 50.176c-4.64-2.624-9.928-4.248-15.64-4.248-17.64 0-31.92 14.296-31.92 31.904 0 17.624 14.288 31.92 31.92 31.92 17.64 0 31.92-14.296 31.92-31.92 0-.032-.008-.072-.008-.104l86.64-50.024z"/></svg>