<svg version="1.1" xmlns="http://www.w3.org/2000/svg" xmlns:xlink="http://www.w3.org/1999/xlink" id="speech" viewBox="0 0 512 514.032"><path d="M480 32.816H32c-17.672 0-32 14.328-32 32v288.752c0 17.672 14.328 32 32 32h63.768v79.656c0 6.456 3.872 12.264 9.816 14.752 2 .84 4.112 1.248 6.184 1.248 4.128 0 8.168-1.592 11.216-4.592l92.512-91.064H480c17.672 0 32-14.328 32-32V64.816c0-17.672-14.328-32-32-32zm0 320.744H202.392l-74.624 73.456V353.56H32V64.816h448V353.56zM112 225.52h288c8.832 0 16-7.168 16-16s-7.168-16-16-16H112c-8.832 0-16 7.168-16 16s7.168 16 16 16zm0-64h288c8.832 0 16-7.168 16-16s-7.168-16-16-16H112c-8.832 0-16 7.168-16 16s7.168 16 16 16zm0 128h192c8.832 0 16-7.168 16-16s-7.168-16-16-16H112c-8.832 0-16 7.168-16 16s7.168 16 16 16z"/></svg>