<svg version="1.1" xmlns="http://www.w3.org/2000/svg" xmlns:xlink="http://www.w3.org/1999/xlink" id="star" viewBox="0 0 512.4042 514.032"><path d="M256.204 39.76l58.472 121.264 10.264 21.28 23.392 3.488 132.912 19.744-96.928 96.672-16.28 16.248 3.808 22.656 22.64 135.08-117.136-63L256.18 401.8l-21.168 11.392-117.128 63.032 22.648-135.112 3.792-22.656-16.28-16.248-96.888-96.688 132.912-19.744 23.384-3.488 10.272-21.272 58.48-121.256m-.008-30.968c-14.328 0-27.392 8.088-33.488 20.728l-57.952 120.32-133.352 19.832c-13.696 2.048-25.072 11.4-29.488 24.192-4.408 12.832-1.072 26.952 8.6 36.576l97.704 97.6-22.664 135.328c-2.28 13.64 3.616 27.312 15.184 35.288 6.36 4.368 13.832 6.576 21.312 6.576 6.16 0 12.32-1.496 17.896-4.488l116.248-62.592 116.256 62.592c5.592 2.992 11.752 4.488 17.888 4.488 7.48 0 14.952-2.208 21.328-6.576 11.552-7.976 17.456-21.648 15.16-35.288L404.156 328.04l97.752-97.6c9.672-9.624 12.984-23.752 8.576-36.576-4.424-12.808-15.8-22.16-29.488-24.192L347.668 149.84 289.684 29.52c-6.056-12.656-19.128-20.728-33.488-20.728z"/></svg>