<svg version="1.1" xmlns="http://www.w3.org/2000/svg" xmlns:xlink="http://www.w3.org/1999/xlink" id="tag" viewBox="0 0 512.0018 514.032"><path d="M511.992 209.152V39.968c0-21.472-17.472-38.952-38.936-38.952l-165.592.024-7.096-.024c-10.84 0-27.248 0-37.96 10.72L9.44 264.712C3.36 270.792 0 278.864 0 287.456c0 8.608 3.344 16.688 9.424 22.768l193.4 193.36c6.056 6.088 14.136 9.432 22.728 9.432s16.68-3.344 22.744-9.424l252.976-252.984c10.848-10.824 10.784-26.408 10.72-41.456zm-33.344 18.832L225.44 480.952 32.064 287.344 284.76 34.592c2.544-1.576 11.704-1.576 15.496-1.576l7.2.024 165.6-.024c3.832 0 6.936 3.12 6.936 6.952V209.28c.032 6.088.064 16.272-1.344 18.704zm-94.64-162.968c-35.344 0-64 28.656-64 64s28.656 64 64 64 64-28.656 64-64-28.656-64-64-64zm0 96c-17.672 0-32-14.328-32-32s14.328-32 32-32 32 14.328 32 32-14.328 32-32 32z"/></svg>