<svg version="1.1" xmlns="http://www.w3.org/2000/svg" xmlns:xlink="http://www.w3.org/1999/xlink" id="target" viewBox="0 0 512 514.032"><path d="M496 241.016h-48.72C439.584 147.752 365.256 73.496 272 65.784V17.016c0-8.832-7.168-16-16-16s-16 7.168-16 16v48.768c-93.248 7.712-167.584 81.968-175.288 175.232H16c-8.832 0-16 7.168-16 16s7.168 16 16 16h48.712c7.704 93.256 82.04 167.52 175.288 175.232v48.768c0 8.832 7.168 16 16 16s16-7.168 16-16v-48.768c93.256-7.712 167.584-81.976 175.28-175.232H496c8.832 0 16-7.168 16-16s-7.168-16-16-16zM240 97.808v143.208H96.776C104.28 165.416 164.4 105.312 240 97.808zM96.776 273.016H240v143.208c-75.6-7.504-135.72-67.608-143.224-143.208zM272 416.224V273.016h143.224C407.72 348.616 347.6 408.72 272 416.224zm0-175.208V97.808c75.6 7.504 135.72 67.608 143.224 143.208H272z"/></svg>