<svg version="1.1" xmlns="http://www.w3.org/2000/svg" xmlns:xlink="http://www.w3.org/1999/xlink" id="trash" viewBox="0 0 512 514.032"><path d="M448.4 80.528H335.76V36.896c0-20.264-16.504-36.248-36.768-36.248H213c-20.264 0-36.76 15.984-36.76 36.248v43.632H63.6c-8.832 0-16 7.168-16 16s7.168 16 16 16h22.008l37.12 369.96c1.552 17.312 16.304 30.888 33.568 30.888h199.4c17.264 0 32-13.576 33.544-30.736l37.152-370.12H448.4c8.84 0 16-7.168 16-16s-7.16-15.992-16-15.992zM208.24 36.896c0-2.616 2.136-4.752 4.76-4.752h85.992c2.624 0 4.768 2.136 4.768 4.752v43.632h-95.52V36.896zm149.144 442.72c-.08.888-1.128 1.768-1.688 1.768h-199.4c-.56 0-1.616-.872-1.712-1.92l-36.816-366.928h276.456l-36.84 367.08z"/></svg>