<svg version="1.1" xmlns="http://www.w3.org/2000/svg" xmlns:xlink="http://www.w3.org/1999/xlink" id="user" viewBox="0 0 512 514.032"><path d="M255.864 33.016c54.336 0 111.96 45.768 111.96 79.928v79.96c0 30.776-12.8 89.656-47.128 116.688-8.752 6.888-13.296 17.84-11.984 28.904 1.312 11.08 8.296 20.656 18.424 25.312l139.248 66.032c1.088.496 13.344 2.552 13.344 19.672l.016 31.232L32 480.768v-32.472c0-12.72 9.544-16.712 13.36-18.472l140.512-66.312c10.08-4.624 17.032-14.16 18.384-25.16 1.36-11-3.08-21.92-11.728-28.856-33.24-26.688-48.728-85.352-48.728-116.592v-79.96c.008-33.424 58.208-79.928 112.064-79.928m0-32c-70.656 0-144.064 58.968-144.064 111.928v79.96c0 34.936 15.944 105.624 60.696 141.544l-140.52 66.32S0 415.016 0 432.752v48.016c0 17.672 14.32 31.984 31.976 31.984h447.776c17.672 0 31.984-14.312 31.984-31.984v-48.016c0-18.8-31.984-31.984-31.984-31.984l-139.248-66.032c44.328-34.888 59.328-103.424 59.328-141.832v-79.96c0-52.96-73.32-111.928-143.968-111.928z"/></svg>