<svg version="1.1" xmlns="http://www.w3.org/2000/svg" xmlns:xlink="http://www.w3.org/1999/xlink" id="user-unfollow" viewBox="0 0 512.502 514.032"><path d="M399.816 192.944v-79.96c0-52.96-73.304-111.928-143.952-111.928-70.656 0-144.064 58.968-144.064 111.928v79.96c0 34.936 15.944 105.616 60.696 141.536L31.976 400.8S0 415.048 0 432.784V480.8c0 17.672 14.32 31.984 31.976 31.984h303.968v-32L32 480.8v-32.472c0-12.72 9.552-16.712 13.36-18.472l140.52-66.312c10.072-4.624 17.024-14.168 18.376-25.168 1.36-11-3.08-21.912-11.728-28.848-33.24-26.688-48.728-85.344-48.728-116.6v-79.96c0-33.432 58.2-79.928 112.064-79.928 54.344 0 111.952 45.768 111.952 79.928v79.96c0 30.776-12.8 89.664-47.112 116.68-8.768 6.88-13.312 17.832-11.984 28.896 1.296 11.08 8.28 20.656 18.424 25.312l9.056 4.176 14.032-25.896-9.744-7.36c44.328-34.864 59.328-103.384 59.328-141.792zm62.752 247.472l45.248-45.256c6.248-6.232 6.248-16.376 0-22.624-6.24-6.24-16.376-6.24-22.616 0L439.944 417.8l-45.248-45.264c-6.248-6.24-16.384-6.24-22.624 0-6.248 6.248-6.248 16.392 0 22.624l45.248 45.256-45.248 45.248c-6.248 6.24-6.248 16.384 0 22.632 6.24 6.232 16.376 6.232 22.624 0l45.248-45.256 45.256 45.256c6.24 6.232 16.376 6.232 22.616 0 6.248-6.248 6.248-16.392 0-22.632l-45.248-45.248z"/></svg>