<svg version="1.1" xmlns="http://www.w3.org/2000/svg" xmlns:xlink="http://www.w3.org/1999/xlink" id="user-follow" viewBox="0 0 512 514.032"><path d="M32.032 448.36c0-12.72 9.544-16.704 13.36-18.472l140.52-66.312c10.072-4.624 17.024-14.16 18.376-25.16 1.36-11-3.08-21.92-11.728-28.856-33.24-26.688-48.728-85.344-48.728-116.592v-79.952c0-33.432 58.2-79.928 112.064-79.928 54.336 0 111.96 45.768 111.96 79.928v79.96c0 30.776-12.8 89.656-47.128 116.68-8.752 6.888-13.296 17.84-11.984 28.904 1.312 11.08 8.296 20.656 18.424 25.312l47.96 22.752 7.904-31.936-42.504-19.888c44.328-34.888 59.328-103.416 59.328-141.824v-79.96c0-52.96-73.312-111.928-143.96-111.928-70.656 0-144.064 58.968-144.064 111.928v79.96c0 34.936 15.944 105.624 60.696 141.544l-140.52 66.312S.032 415.08.032 432.816v48.016c0 17.672 14.32 31.984 31.976 31.984h351.96v-32l-351.936.016V448.36zm463.936-31.408h-48v-48c0-8.84-7.168-16-16-16s-16 7.16-16 16v48h-48c-8.832 0-16 7.16-16 16 0 8.832 7.168 16 16 16h48v48c0 8.832 7.168 16 16 16s16-7.168 16-16v-48h48c8.832 0 16-7.168 16-16 0-8.84-7.16-16-16-16z"/></svg>