<svg version="1.1" xmlns="http://www.w3.org/2000/svg" xmlns:xlink="http://www.w3.org/1999/xlink" id="user-following" viewBox="0 0 512.4926 514.032"><path d="M32 480.896v-32.472c0-12.72 9.552-16.712 13.36-18.472l140.52-66.312c10.072-4.624 17.024-14.16 18.376-25.16 1.36-11-3.08-21.92-11.728-28.856-33.24-26.688-48.728-85.352-48.728-116.592v-79.96c0-33.432 58.2-79.928 112.064-79.928 54.336 0 111.968 45.768 111.968 79.928v79.96c0 30.776-12.8 89.656-47.128 116.688-8.752 6.888-13.296 17.84-11.984 28.904 1.312 11.08 8.296 20.656 18.424 25.312l81.12 38.624 19.072-27.032-86.832-40.672c44.328-34.888 59.328-103.424 59.328-141.832v-79.96c0-52.96-73.312-111.928-143.968-111.928-70.656 0-144.064 58.968-144.064 111.928v79.96c0 34.936 15.944 105.624 60.696 141.544l-140.52 66.328S0 415.144 0 432.88v48.016c0 17.672 14.32 31.984 31.976 31.984h319.856l-26-31.992L32 480.896zm474.352-118.128c-6.952-5.456-17.016-4.216-22.456 2.736l-68.424 104.352-42.528-42.536c-6.248-6.248-16.384-6.248-22.632 0s-6.248 16.376 0 22.624l56.568 56.568c6.248 6.248 16.376 6.248 22.624 0 1.52-1.512 2.656-3.272 3.44-5.144l76.152-116.152c5.44-6.952 4.216-17.008-2.744-22.448z"/></svg>