<svg version="1.1" xmlns="http://www.w3.org/2000/svg" xmlns:xlink="http://www.w3.org/1999/xlink" id="user-female" viewBox="0 0 512 514.032"><path d="M480.016 402.36l-139.248-66.032c18.576-9.312 91.128-12.264 97.128-28.64 0 0-28.672-44.008-35.672-101.168-2.72-22.184-7.376-51.296-12-92.296C382.72 47.72 326.784 1.016 256.128 1.016h-.256c-70.656 0-126.592 46.704-134.088 113.2-4.624 41-9.28 70.112-12 92.296-7 57.168-35.672 101.168-35.672 101.168 6 16.376 78.544 19.328 97.128 28.64L31.984 402.36S0 413.592 0 440.096v42.264c0 17.688 14.312 30.656 31.984 30.656h448.032c17.672 0 31.984-12.968 31.984-30.656v-42.264c0-26.504-31.984-37.736-31.984-37.736zM32 481.016v-40.92c0-1.704 6.048-5.8 10.968-7.672 1.064-.376 1.72-.672 2.72-1.16l139.248-66.032c11.064-5.232 18.16-16.344 18.296-28.576.128-12.232-6.72-23.488-17.656-28.968-10.84-5.44-25.168-8.128-47.624-12.016-5.328-.936-12.608-2.248-19.672-3.656 9.16-20.552 19.28-49.296 23.264-81.816.984-8.096 2.248-17.208 3.656-27.296 2.424-17.168 5.424-38.936 8.376-65.112 5.584-49.432 47.64-84.776 102.296-84.776h.256c54.656 0 96.72 35.344 102.296 84.784 2.952 26.168 5.952 47.944 8.376 65.112 1.408 10.088 2.672 19.2 3.656 27.296 3.984 32.512 14.112 61.256 23.264 81.816-7.064 1.408-14.344 2.72-19.672 3.656-22.456 3.888-36.784 6.576-47.624 12.016-10.936 5.488-17.784 16.736-17.656 28.968.144 12.232 7.232 23.344 18.296 28.576l139.248 66.032c1 .488 1.656.784 2.72 1.16 4.92 1.872 10.248 5.968 10.968 7.672l.016 40.912H32z"/></svg>