<svg version="1.1" xmlns="http://www.w3.org/2000/svg" xmlns:xlink="http://www.w3.org/1999/xlink" id="vector" viewBox="0 0 512 514.032"><path d="M496 337.016h-16.136v-.808c0-80.96-43.264-151.904-107.832-191.192h80.408c5.544 9.52 15.752 16 27.56 16 17.672 0 32-14.328 32-32s-14.328-32-32-32c-11.816 0-22.016 6.48-27.56 16H304v-16c0-8.832-7.168-16-16-16h-64c-8.832 0-16 7.168-16 16v16H59.56c-5.544-9.52-15.744-16-27.56-16-17.672 0-32 14.328-32 32s14.328 32 32 32c11.816 0 22.016-6.48 27.56-16h80.4C75.392 184.312 32.136 255.248 32.136 336.208v.808H16c-8.832 0-16 7.168-16 16v64c0 8.832 7.168 16 16 16h64c8.832 0 16-7.168 16-16v-64c0-8.832-7.168-16-16-16H64.136v-.808c0-89.224 61.232-164.336 143.864-185.696v10.504c0 8.832 7.168 16 16 16h64c8.832 0 16-7.168 16-16v-10.504c82.632 21.368 143.864 96.48 143.864 185.696v.808H432c-8.832 0-16 7.168-16 16v64c0 8.832 7.168 16 16 16h64c8.832 0 16-7.168 16-16v-64c0-8.832-7.168-16-16-16zm-432 64H32v-32h32v32zm208-256h-32v-32h32v32zm208 256h-32v-32h32v32z"/></svg>