<svg version="1.1" xmlns="http://www.w3.org/2000/svg" xmlns:xlink="http://www.w3.org/1999/xlink" id="volume-off" viewBox="0 0 512 514.032"><path d="M287.768 33.968c-5.216-2.776-11.544-2.464-16.456.848L110.76 160.872l-53.312.04c-27.256 0-49.44 19.328-49.44 43.2l.856 105.568c0 23.768 22.176 43.112 49.432 43.112l53.296.032L271.288 479.2c2.688 1.816 5.816 2.736 8.952 2.736 2.576 0 5.16-.624 7.504-1.872 5.232-2.768 8.504-8.2 8.504-14.128V48.096c0-5.912-3.264-11.344-8.48-14.128zm-23.52 401.864l-138.8-112.264c-2.64-1.784-5.76-2.736-8.944-2.736l-58.192-.032c-10.272 0-17.44-5.856-17.44-11.232l-.864-105.576c0-5.24 7.168-11.08 17.448-11.08l58.2-.04c3.176 0 6.288-.952 8.928-2.728l139.664-112v357.688zM447 257.272l52.296-52.92c6.248-6.248 6.248-16.376 0-22.624-6.232-6.248-16.376-6.248-22.624 0l-52.168 52.784-52.168-52.784c-6.232-6.248-16.376-6.248-22.624 0s-6.248 16.376 0 22.624l52.296 52.92-51.8 52.408c-6.232 6.24-6.248 16.376 0 22.624s16.392 6.248 22.64 0l51.656-52.272 51.656 52.272c6.248 6.248 16.376 6.248 22.624 0s6.248-16.384 0-22.624L447 257.272z"/></svg>