<svg version="1.1" xmlns="http://www.w3.org/2000/svg" xmlns:xlink="http://www.w3.org/1999/xlink" id="volume-1" viewBox="0 0 512 514.032"><path d="M327.384 33.968c-5.216-2.776-11.544-2.464-16.456.848L150.384 160.872l-53.312.04c-27.256 0-49.44 19.328-49.44 43.2l.856 105.568c0 23.768 22.176 43.112 49.432 43.112l53.296.032L310.912 479.2c2.688 1.816 5.816 2.736 8.952 2.736 2.576 0 5.16-.624 7.504-1.872 5.232-2.768 8.504-8.2 8.504-14.128V48.096c-.008-5.912-3.272-11.344-8.488-14.128zm-23.52 401.864l-138.8-112.264c-2.64-1.784-5.76-2.736-8.944-2.736l-58.192-.032c-10.272 0-17.44-5.856-17.44-11.232l-.856-105.576c0-5.24 7.168-11.08 17.448-11.08l58.2-.04c3.176 0 6.288-.952 8.928-2.728l139.656-112v357.688zm91.048-261c-8.856-1.464-16.968 4.432-18.424 13.152-1.456 8.712 4.44 16.96 13.144 18.416 25.16 4.2 42.736 26.152 42.736 53.376 0 25.92-18.184 48.344-43.248 53.344-8.672 1.72-14.296 10.144-12.56 18.816 1.512 7.608 8.184 12.872 15.672 12.872 1.032 0 2.096-.096 3.144-.312 39.984-7.952 69-43.592 69-84.72-.008-42.512-29.224-78.232-69.464-84.944z"/></svg>