<svg version="1.1" xmlns="http://www.w3.org/2000/svg" xmlns:xlink="http://www.w3.org/1999/xlink" id="wallet" viewBox="0 0 512.232 514.032"><path d="M511.944 146.256c.232-11.832-2.952-39.424-38.92-49.032l-357.88-71.968-3.328-.344c-26.472 0-48 21.528-48 48v64.352l-16-.04C21.44 137.336 0 158.8 0 185.208v255.904c0 26.472 21.528 48 48 48h416.232c26.472 0 48-21.528 48-48l-.288-294.856zM95.816 72.912c0-8.36 6.44-15.232 14.608-15.936l353 71.44c.128.064-2.624 8.968-15.44 8.8H95.816V72.912zM480.24 441.12c0 8.832-7.168 16-16 16H48c-8.832 0-16-7.168-16-16V185.208c0-8.832 7.168-16 16-16h400.032c15.704 0 32.2-5.352 32.2-15.944V441.12zM96.032 281.264c-17.672 0-32 14.328-32 32s14.328 32 32 32 32-14.328 32-32-14.328-32-32-32z"/></svg>