<svg version="1.1" xmlns="http://www.w3.org/2000/svg" xmlns:xlink="http://www.w3.org/1999/xlink" id="wrench" viewBox="0 0 512.1121 514.032"><path d="M503.24 108.984c-5.392-2.488-11.792-1.544-16.28 2.424l-80.656 72.448-72.816-74.704 72.096-83.264c3.92-4.528 4.872-10.768 2.432-16.256S400.184.784 394.256.784h-4.344c-44.56 0-121.488 3.832-155.832 38.672l-6.928 6.88c-36.64 37.384-43.144 98.688-23.84 145.288L18.672 380.072c-24.896 25.24-24.896 66.16 0 91.408l22.536 22.848c12.448 12.616 28.768 18.928 45.088 18.928 16.312 0 32.632-6.312 45.072-18.928l187.36-188.864c17.72 9.576 42 15.832 62.392 15.832 32.688 0 63.672-13.184 87.264-37.128l6.832-6.92c37.304-37.824 36.728-118.648 36.896-154.208.016-6.048-3.464-11.544-8.872-14.056zM452.888 255.52l-5.936 6.936c-17.872 18.136-41.248 26.824-65.832 26.824-12.16 0-28.544-2.288-39.608-6.896-10-4.152-19.288-10.144-27.6-17.712L108.824 471.48c-6.016 6.112-14.016 9.472-22.528 9.472-8.512 0-16.52-3.36-22.544-9.472l-22.528-22.84c-12.432-12.608-12.432-33.112-.008-45.72l200.392-204.432c-6.72-9.784-11.296-20.448-14.024-31.488h-.008c-7.712-31.192-3.216-74.304 21.008-99.024l6.896-6.96c20.776-21.08 74.728-27.312 104.6-29.152L301.4 99.632c-5.248 6.064-4.984 15.2.608 20.936l92.768 95.168c5.624 5.792 14.72 6.128 20.776.76l65.304-58.816c-1.944 31.68-8.096 77.688-27.968 97.84z"/></svg>