<svg version="1.1" xmlns="http://www.w3.org/2000/svg" xmlns:xlink="http://www.w3.org/1999/xlink" id="address-book" viewBox="0 0 340 512.5"><path d="M330 161.25h-24v30h24c6 0 10 4 10 10v30c0 6-4 10-10 10h-24v29h24c6 0 10 5 10 11v30c0 6-4 10-10 10h-24v29h24c6 0 10 5 10 11v30c0 6-4 10-10 10h-24v9c0 9-7 16-16 16H16c-9 0-16-7-16-16v-308c0-9 7-16 16-16h274c9 0 16 7 16 16v9h24c6 0 10 4 10 10v30c0 6-4 10-10 10zm-96 165v-44c0-4-3-8-6-10l-55-26c13-8 21-24 21-42 0-26-18-48-41-48s-41 22-41 48c0 19 9 34 22 42l-56 26c-3 2-5 6-5 10v44c0 6 4 11 9 11h142c5 0 10-5 10-11z"/></svg>