<svg version="1.1" xmlns="http://www.w3.org/2000/svg" xmlns:xlink="http://www.w3.org/1999/xlink" id="align-right" viewBox="0 0 355 512.5"><path d="M337 78.25c10 0 18 7 18 17v16c0 10-8 17-18 17H17c-10 0-17-7-17-17v-16c0-10 7-17 17-17h320zm0 102c10 0 18 7 18 17v16c0 10-8 17-18 17H104c-10 0-18-7-18-17v-16c0-10 8-17 18-17h233zm0 204c10 0 18 7 18 17v16c0 10-8 17-18 17H52c-10 0-17-7-17-17v-16c0-10 7-17 17-17h285zm18-85v16c0 10-8 17-18 17H138c-10 0-17-7-17-17v-16c0-10 7-17 17-17h199c10 0 18 7 18 17z"/></svg>