<svg version="1.1" xmlns="http://www.w3.org/2000/svg" xmlns:xlink="http://www.w3.org/1999/xlink" id="align-justify" viewBox="0 0 355 512.5"><path d="M337 79.25c10 0 18 7 18 17v16c0 10-8 18-18 18H17c-10 0-17-8-17-18v-16c0-10 7-17 17-17h320zm0 101c10 0 18 7 18 17v16c0 10-8 18-18 18H17c-10 0-17-8-17-18v-16c0-10 7-17 17-17h320zm0 101c10 0 18 8 18 18v16c0 10-8 17-18 17H17c-10 0-17-7-17-17v-16c0-10 7-18 17-18h320zm0 101c10 0 18 8 18 18v16c0 10-8 17-18 17H17c-10 0-17-7-17-17v-16c0-10 7-18 17-18h320z"/></svg>