<svg version="1.1" xmlns="http://www.w3.org/2000/svg" xmlns:xlink="http://www.w3.org/1999/xlink" id="align-center" viewBox="0 0 355 512.5"><path d="M337 78.25c10 0 18 7 18 17v16c0 10-8 17-18 17H17c-10 0-17-7-17-17v-16c0-10 7-17 17-17h320zm-25 135c0 10-8 17-18 17H61c-10 0-18-7-18-17v-16c0-10 8-17 18-17h233c10 0 18 7 18 17v16zm8 171c10 0 17 7 17 17v16c0 10-7 17-17 17H35c-10 0-18-7-18-17v-16c0-10 8-17 18-17h285zm-26-85v16c0 10-7 17-17 17H78c-10 0-17-7-17-17v-16c0-10 7-17 17-17h199c10 0 17 7 17 17z"/></svg>