<svg version="1.1" xmlns="http://www.w3.org/2000/svg" xmlns:xlink="http://www.w3.org/1999/xlink" id="align-left" viewBox="0 0 355 512.5"><path d="M337 78.25c10 0 18 7 18 17v16c0 10-8 17-18 17H17c-10 0-17-7-17-17v-16c0-10 7-17 17-17h320zm-320 152c-10 0-17-7-17-17v-16c0-10 7-18 17-18h234c10 0 18 8 18 18v16c0 10-8 17-18 17H17zm285 154c10 0 18 7 18 17v16c0 10-8 17-18 17H17c-10 0-17-7-17-17v-16c0-10 7-17 17-17h285zm-285-52c-10 0-17-7-17-17v-16c0-10 7-17 17-17h199c10 0 18 7 18 17v16c0 10-8 17-18 17H17z"/></svg>