<svg version="1.1" xmlns="http://www.w3.org/2000/svg" xmlns:xlink="http://www.w3.org/1999/xlink" id="anchor" viewBox="0 0 393 512.5"><path d="M392 344.25c1 1 1 3 1 4 0 4-4 8-8 8h-21c-33 58-95 97-167 97s-134-39-167-97H8c-4 0-8-4-8-8 0-2 1-4 2-5l47-82c1-3 4-5 7-5s6 2 7 4l48 84c1 1 2 3 2 4 0 4-5 8-9 8H92c20 22 48 38 79 44v-150h-46c-4 0-8-4-8-8v-35c0-4 4-8 8-8h46v-27c-20-10-34-30-34-54 0-33 27-59 60-59s59 26 59 59c0 24-14 44-34 54v27h47c4 0 8 4 8 8v35c0 4-4 8-8 8h-47v150c31-6 59-22 79-44h-12c-4 0-8-4-8-8 0-2 1-4 2-5l46-82c1-3 5-5 8-5s6 2 7 4l48 84zm-195-192c18 0 33-16 33-34s-15-33-33-33-34 15-34 33 16 34 34 34z"/></svg>