<svg version="1.1" xmlns="http://www.w3.org/2000/svg" xmlns:xlink="http://www.w3.org/1999/xlink" id="arrows-in" viewBox="0 0 512.5 512.5"><path d="M184.25 458.25c-1 3-2 5-5 6s-7 0-9-2l-28-28-76 76c-3 3-8 3-11 0l-53-53c-3-3-3-8 0-11l76-76-28-28c-2-2-3-6-2-9s3-4 6-5l145-25c3 0 5 1 7 3s2 4 2 7zm144-404c1-3 2-5 5-6s7 0 9 2l28 28 76-76c3-3 8-3 11 0l53 53c3 3 3 8 0 11l-76 76 28 28c2 2 3 6 2 9s-3 4-6 5l-145 25c-3 0-5-1-7-3s-2-4-2-7zm130 274c3 1 5 2 6 5s0 7-2 9l-28 28 76 76c3 3 3 8 0 11l-53 53c-3 3-8 3-11 0l-76-76-28 28c-2 2-6 3-9 2s-4-3-5-6l-25-145c0-3 1-5 3-7s4-2 7-2zm-404-144c-3-1-5-2-6-5s0-7 2-9l28-28-76-76c-3-3-3-8 0-11l53-53c3-3 8-3 11 0l76 76 28-28c2-2 6-3 9-2s4 3 5 6l25 145c0 3-1 5-3 7s-4 2-7 2z"/></svg>