<svg version="1.1" xmlns="http://www.w3.org/2000/svg" xmlns:xlink="http://www.w3.org/1999/xlink" id="arrows-out" viewBox="0 0 512 512.5"><path d="M24 358.25c1-3 3-6 6-7s6 0 8 2l28 28 76-75c3-3 9-3 12 0l52 52c3 3 3 9 0 12l-76 75 28 29c2 2 3 5 2 8s-3 4-6 5l-144 25c-3 0-6 0-8-2s-2-5-2-8zm464-204c-1 3-3 6-6 7s-6 0-8-2l-28-28-76 75c-3 3-9 3-12 0l-52-52c-3-3-3-9 0-12l76-75-28-29c-2-2-3-5-2-8s3-4 6-5l144-25c3 0 6 0 8 2s2 5 2 8zm-130 334c-3-1-6-3-7-6s0-6 2-8l28-28-75-76c-3-3-3-9 0-12l52-52c3-3 9-3 12 0l75 76 29-28c2-2 5-3 8-2s4 3 5 6l25 144c0 3 0 6-2 8s-5 2-8 2zm-204-464c3 1 6 3 7 6s0 6-2 8l-28 28 75 76c3 3 3 9 0 12l-52 52c-3 3-9 3-12 0l-75-76-29 28c-2 2-5 3-8 2s-4-3-5-6l-25-144c0-3 0-6 2-8s5-2 8-2z"/></svg>