<svg version="1.1" xmlns="http://www.w3.org/2000/svg" xmlns:xlink="http://www.w3.org/1999/xlink" id="asl" viewBox="0 0 440.5099 512.5"><path d="M94.314 133.25c2-1 3-2 5-3 17-15 37-27 59-34 11-3 23-4 35-5 2 0 6 2 7 4s0 6-2 8c-3 3-6 5-10 6-15 5-29 9-44 14-3 1-6 6-9 8-7 6-14 10-21 16l-3 3v1c4-2 7-3 11-4 12-4 23-9 35-11 10-2 21 1 32 2 2 0 5 2 7 4 8 6 15 13 23 19 3 2 3 4 1 7-5 7-11 8-18 4-6-3-10-7-15-11-3-2-5-4-9-3-7 1-15 1-22 2-3 0-5 1-7 2-10 7-20 15-30 22-2 1-3 4-3 7 1 0 2 0 3-1 8-5 17-6 26-7 3 0 6-1 9-1 12-2 20 3 29 10 7 5 14 10 21 16 4 3 6 8 6 13 0 9 0 18-3 27 0 1-1 3 0 3 6 4 2 9 1 13-3 9-7 18-10 27-3 8-9 13-18 16-21 6-41 13-62 20-8 3-17 4-26 2-17-4-33-2-49 5-7 3-15 7-23 11-9-13-14-27-17-41-4-17-4-35-2-52 0-1 2-3 3-4 17-7 25-21 31-37 7-19 9-40 21-57 13-19 23-39 40-55 8-8 16-18 23-27 3-4 5-4 8 1s3 11-1 16c-10 13-21 26-31 39-1 1-1 2-2 4zm73 145c4 0 8 1 10-3 4-9 11-16 18-22 2-2 2-3 1-5-4-7-6-14-10-21-1-2-3-4-5-5-6-4-12-8-19-12-2-1-4-2-6-1-5 2-10 5-15 7-4 2-9 3-13 5-11 4-14 13-17 23-2 6-1 11 4 16 6 6 12 13 17 20 2 2 3 2 6 1 10-3 19-5 29-3zm179 101c-3 3-7 4-10 7-15 14-34 24-53 30-11 4-23 5-35 6-7 1-10-7-6-12 3-3 7-7 11-8 12-4 25-7 37-11 5-2 9-5 13-8 8-6 16-13 24-19 1-1 2-2 2-4-4 2-9 4-13 6-11 4-21 9-32 10s-22-1-33-2c-2 0-5-2-7-4-7-5-13-11-20-16s-6-12 3-15c3-1 8-1 11 1 6 3 11 8 17 12 2 1 4 2 6 2 8 0 15-1 22-2 3 0 7-1 10-3 9-7 19-14 28-21 2-1 2-4 3-7-12 8-26 8-39 9-9 1-16-1-23-7-9-7-19-14-28-21-2-2-4-5-4-8 0-9 1-18 2-27 0-3 2-6-1-9-1-1 0-3 0-4 1-4 3-7 4-11 3-7 5-13 7-20 3-9 9-15 19-18 21-6 42-13 62-20 9-3 17-4 26-2 18 5 35 2 52-6 6-3 12-7 19-10 8 9 12 21 15 32 6 20 6 40 4 61 0 5-4 5-7 6-10 4-17 13-21 22-5 10-8 21-11 32-5 15-10 30-19 43-7 10-13 20-20 30-6 8-13 15-19 23l-21 24c-4 4-5 4-8-1s-2-10 2-16c10-13 20-25 30-38 1-1 1-3 2-5-1 0-1-1-1-1zm-101-117c3 8 6 16 10 24 1 2 2 3 4 4 6 4 13 8 19 12 2 1 4 2 7 1 8-3 15-7 23-10s14-6 17-14c2-4 3-9 4-13 1-5 1-9-3-13-7-7-13-14-19-21-1-1-3-1-4-1-11 3-22 5-33 3-2 0-6 1-7 3-7 8-12 17-18 25z"/></svg>