<svg version="1.1" xmlns="http://www.w3.org/2000/svg" xmlns:xlink="http://www.w3.org/1999/xlink" id="at-sign" viewBox="0 0 384 512.5"><path d="M384 256.25v9c0 76-46 102-85 102-27 0-75-22-78-39v-3c-16 22-41 36-65 36-44 0-70-31-70-75 0-60 50-111 102-111 27 0 47 13 56 30l4-18c1-3 4-5 7-5h37c4 0 7 2 7 6l-1 2h1l-22 101c0 2-1 8-1 11 0 14 8 21 17 21 18 0 39-29 39-80-7-72-67-128-140-128-78 0-141 63-141 141s63 141 141 141c19 0 37-3 53-10 1 0 2-1 3-1 2 0 4 1 5 2l34 21c3 1 4 4 4 7 0 4-2 6-5 7-28 16-60 25-94 25-106 0-192-86-192-192s86-192 192-192 192 86 192 192zm-158 35l11-52c-5-10-16-23-36-23-36 0-62 32-62 65 0 23 14 40 37 40 24 0 40-16 50-30z"/></svg>