<svg version="1.1" xmlns="http://www.w3.org/2000/svg" xmlns:xlink="http://www.w3.org/1999/xlink" id="bitcoin-circle" viewBox="0 0 384 512.5"><path d="M191 195.25c12 3 50 8 44 33-6 24-43 12-55 9zm-16 63c14 4 60 11 53 38-7 26-50 13-64 9zm63-188c103 26 166 129 140 232s-129 166-232 140-166-129-140-232 129-166 232-140zm39 159c4-26-16-40-43-49l9-34-21-6-8 34c-6-1-11-3-17-4l8-34-21-5-9 34c-5-1-9-2-13-3l-29-7-6 22 16 4c9 2 9 9 9 13l-9 39c1 0 1 1 2 1-1 0-1-1-2-1l-14 55c-1 3-4 6-10 5l-15-3-11 24 28 6c5 1 10 3 15 4l-9 35 21 6 9-35c6 2 12 3 17 4l-9 35 21 5 9-35c36 7 63 4 74-28 9-26 0-41-19-51 14-3 24-12 27-31z"/></svg>