<svg version="1.1" xmlns="http://www.w3.org/2000/svg" xmlns:xlink="http://www.w3.org/1999/xlink" id="bitcoin" viewBox="0 0 260.5078 512.5"><path d="M213 243.25c31 7 51 26 47 67-5 51-44 65-98 68v47c0 4-2 7-6 7h-20c-4 0-6-3-6-7v-46c-8 0-17-1-26-1v47c0 4-2 7-6 7H78c-4 0-6-3-6-7v-47H7c-3 0-6-4-6-7l5-27h1c1-3 3-5 6-5h23c9 0 12-7 13-11v-146c-1-7-6-14-19-14H6c-4 0-6-2-6-6v-22c0-4 2-6 6-6h66v-47c0-4 2-7 6-7h20c4 0 6 3 6 7v46c9 0 17-1 26-1v-45c0-4 2-7 6-7h20c4 0 6 3 6 7v47c42 4 75 16 79 54 3 28-9 45-28 55zm-108-72v64c18 0 76 5 76-32 0-38-58-32-76-32zm0 168c22 0 91 5 91-35 0-42-69-36-91-36v71z"/></svg>