<svg version="1.1" xmlns="http://www.w3.org/2000/svg" xmlns:xlink="http://www.w3.org/1999/xlink" id="blind" viewBox="0 0 342 512.5"><path d="M91 101.25c0-24 12-36 36-36s37 12 37 36-13 37-37 37-36-13-36-37zm250 332c1 1 1 2 1 3 0 4-2 6-6 6-2 0-4-1-5-3v-1l-107-184h-3c-3 0-6-1-8-2v-1h-1l-35-20-23-23v76l45 44 49 85c3 4 4 8 4 13 0 6-2 11-6 15s-9 6-15 6c-8 0-15-4-19-11l-47-81-37-37-41 72-49 49c-4 5-10 8-17 8-6 0-11-2-15-6s-6-9-6-15 2-12 7-16l45-45 36-62v-96l-19 18v52c0 4-1 8-4 11s-7 4-11 4c-3 0-6-1-8-2s-5-4-6-6-2-4-2-7v-62h1-1c0-1 1-2 2-3l54-55c7-8 17-11 27-11 12 0 21 4 28 13l47 47 31 18c6 3 9 7 9 14 0 3 0 6-2 9l107 186z"/></svg>