<svg version="1.1" xmlns="http://www.w3.org/2000/svg" xmlns:xlink="http://www.w3.org/1999/xlink" id="bluetooth" viewBox="0 0 239 512.5"><path d="M231 328.25c5 4 8 10 8 17 0 5-3 10-6 14l-1 1-102 102c-4 4-10 7-16 7-12 0-21-9-21-21v-125l-55 55c-4 5-9 7-16 7-12 0-22-10-22-22 0-6 2-11 6-15l87-86v-11l-86-86c-4-4-7-9-7-15 0-12 10-22 22-22 6 0 12 3 16 7l55 55v-119c-1-2-1-4-1-6 0-12 9-22 21-22 7 0 13 3 17 8l101 101c5 4 8 9 8 16 0 5-3 10-6 14-1 1-1 2-2 3l-72 71zm-45 17l-50-51v101zm-50-127l50-50-50-50v100z"/></svg>