<svg version="1.1" xmlns="http://www.w3.org/2000/svg" xmlns:xlink="http://www.w3.org/1999/xlink" id="braille" viewBox="0 0 265 512.5"><path d="M0 123.25c0-24 12-36 36-36s35 12 35 36-11 35-35 35-36-11-36-35zm194 0c0-24 11-36 35-36s36 12 36 36-12 35-36 35-35-11-35-35zm-194 133c0-24 12-36 36-36s35 12 35 36-11 36-35 36-36-12-36-36zm194 0c0-24 11-36 35-36s36 12 36 36-12 36-36 36-35-12-35-36zm-194 133c0-24 12-36 36-36s35 12 35 36-11 36-35 36-36-12-36-36zm194 0c0-24 11-36 35-36s36 12 36 36-12 36-36 36-35-12-35-36z"/></svg>