<svg version="1.1" xmlns="http://www.w3.org/2000/svg" xmlns:xlink="http://www.w3.org/1999/xlink" id="burst-sale" viewBox="0 0 395 512.5"><path d="M167 285.25l-5-31 24 20zm228-29c0 5-3 9-6 11l-48 28 27 46c2 4 1 9-1 13s-6 6-10 6h-54v55h-1c0 4-2 8-6 10s-9 3-13 1l-47-27-27 47c-2 3-6 6-11 6s-9-3-11-6l-27-46-49 28c-4 2-8 1-12-1s-7-6-7-10v-55H37c-4 0-8-3-10-7s-3-8-1-12l27-48-47-28c-3-2-6-6-6-11s3-9 6-11l48-28-27-46c-2-4-1-9 1-13s6-6 10-6h54v-55c0-4 3-8 7-10s8-3 12-1l48 27 27-47c2-3 6-6 11-6s9 3 11 6l27 46 49-28c4-2 8-1 12 1s7 6 7 10v55h55c4 0 8 3 10 7s3 8 1 12v1l-27 47 47 28c3 2 6 6 6 11zm-261 78c16-9 18-22 12-33-13-22-43 4-48-5-2-4 0-8 5-11 6-3 14-5 21-3l1-14c-9-2-18 0-27 5-14 8-18 21-12 31 13 22 42-4 48 6 2 3 1 8-6 12-8 5-17 5-24 3l-1 14c9 2 20 2 31-5zm71-43l14-8-57-46-15 9 11 72 14-8-2-12 25-15zm19-11l38-22-7-11-25 15-27-48-13 7zm46-27l42-24-6-11-29 17-8-13 28-17-6-11-29 17-7-13 29-17-6-11-42 24z"/></svg>