<svg version="1.1" xmlns="http://www.w3.org/2000/svg" xmlns:xlink="http://www.w3.org/1999/xlink" id="burst" viewBox="0 0 395 512.5"><path d="M395 256.25c0 5-3 9-6 11l-48 28 27 46c2 4 1 9-1 13s-6 6-10 6h-54v55h-1c0 4-2 8-6 10s-9 3-13 1l-47-27-27 47c-2 3-6 6-11 6s-9-3-11-6l-27-46-49 28c-4 2-8 1-12-1s-7-6-7-10v-55H37c-4 0-8-3-10-7s-3-8-1-12l27-48-47-28c-3-2-6-6-6-11s3-9 6-11l48-28-27-46c-2-4-1-9 1-13s6-6 10-6h54v-55c0-4 3-8 7-10s8-3 12-1l48 27 27-47c2-3 6-6 11-6s9 3 11 6l27 46 49-28c4-2 8-1 12 1s7 6 7 10v55h55c4 0 8 3 10 7s3 8 1 12v1l-27 47 47 28c3 2 6 6 6 11z"/></svg>