<svg version="1.1" xmlns="http://www.w3.org/2000/svg" xmlns:xlink="http://www.w3.org/1999/xlink" id="calendar" viewBox="0 0 326 512.5"><path d="M320 202.25c4 0 6 3 6 7v225c0 4-2 6-6 6H6c-4 0-6-2-6-6v-225c0-4 2-7 6-7h314zm-211 191c34 0 56-18 56-44 0-18-13-26-25-31 14-7 21-17 21-31 0-18-18-30-44-30-15 0-27 2-37 7-1 1-2 2-2 3l3 22c0 1 1 2 2 2h3c8-4 16-6 24-6 15 0 15 6 15 9 0 5-3 11-24 13-2 0-3 1-3 3v22c0 2 1 3 3 3 25 1 30 7 30 16 0 8-9 13-20 13s-19-1-29-5c-1 0-2-1-3 0s-1 1-1 2l-3 22c0 1 1 3 2 4 9 4 21 6 32 6zm136-6v-125c0-2-1-3-3-3h-15l-38 19c-1 1-2 2-2 3l3 22c0 1 1 3 2 3 1 1 2 0 3 0l17-7v88c0 2 1 4 3 4h27c2 0 3-2 3-4zm75-286c4 0 6 2 6 6v66c0 4-2 7-6 7H6c-4 0-6-3-6-7v-66c0-4 2-6 6-6h34v16c0 17 9 34 36 34s36-17 36-34v-16h102v16c0 17 9 34 36 34s36-17 36-34v-16h34zm-244 29c-11 0-15-4-15-13v-32c0-9 4-13 15-13s15 4 15 13v32c0 9-4 13-15 13zm174 0c-11 0-15-4-15-13v-32c0-9 4-13 15-13s15 4 15 13v32c0 9-4 13-15 13z"/></svg>