<svg version="1.1" xmlns="http://www.w3.org/2000/svg" xmlns:xlink="http://www.w3.org/1999/xlink" id="camera" viewBox="0 0 415 512.5"><path d="M159 273.25c0-32 17-49 49-49s48 17 48 49-16 48-48 48-49-16-49-48zm237-149c5 0 9 1 13 5s6 9 6 14v259c0 5-2 10-6 14s-8 5-13 5v1H19v-1c-5 0-9-1-13-5s-6-9-6-14v-259c0-5 2-10 6-14s8-5 13-5h85v-15c0-5 2-9 6-13s8-6 13-6h168c5 0 10 2 14 6s5 8 5 13v15h86zm-187 247c18 0 34-4 49-13s27-21 36-36 13-31 13-49c0-27-10-51-29-70s-42-29-69-29-51 10-70 29-29 43-29 70 10 50 29 69 43 29 70 29zm180-171v-51h-75v51h75z"/></svg>