<svg version="1.1" xmlns="http://www.w3.org/2000/svg" xmlns:xlink="http://www.w3.org/1999/xlink" id="clipboard-notes" viewBox="0 0 315 512.5"><path d="M315 88.25v362c0 15-12 27-27 27H27c-15 0-27-12-27-27v-362c0-15 12-27 27-27h75v-18c0-5 3-8 8-8h95c5 0 8 3 8 8v18h75c15 0 27 12 27 27zm-51 338v-314h-25v16c0 5-5 9-10 9H86c-5 0-10-4-10-9v-16H51v314h213zm-162-215v13c0 3-3 6-6 6H83c-3 0-7-3-7-6v-13c0-3 4-7 7-7h12v1l1-1c3 0 6 4 6 7zm137 0v13c0 3-4 6-7 6h-98c-3 0-7-3-7-6v-13c0-3 4-7 7-7h98c3 0 7 4 7 7zm-137 51v13c0 3-3 6-6 6H83c-3 0-7-3-7-6v-13c0-3 4-7 7-7h12v1l1-1c3 0 6 4 6 7zm137 0v13c0 3-4 6-7 6h-98c-3 0-7-3-7-6v-13c0-3 4-7 7-7h98c3 0 7 4 7 7zm-137 51v13c0 3-3 6-6 6H83c-3 0-7-3-7-6v-13c0-3 4-6 7-6h13c3 0 6 3 6 6zm137 0v13c0 3-4 6-7 6h-98c-3 0-7-3-7-6v-13c0-3 4-6 7-6h98c3 0 7 3 7 6z"/></svg>