<svg version="1.1" xmlns="http://www.w3.org/2000/svg" xmlns:xlink="http://www.w3.org/1999/xlink" id="clipboard-pencil" viewBox="0 0 392.5 512.5"><path d="M391 220.25c2 2 2 7 0 9l-116 116-59 16c-2 1-5 0-7-2s-2-4-1-6l16-59 115-116c2-2 7-2 9 0zm-164 121l35-9-25-26zm82 34c3 0 6 3 6 6v69c0 15-12 27-27 27H27c-15 0-27-12-27-27v-362c0-15 12-27 27-27h75v-18c0-5 3-8 8-8h95c4 0 8 3 8 8v18h75c15 0 27 12 27 27v68c0 3-3 7-6 7h-39c-3 0-6-4-6-7v-44h-25v16c0 5-5 9-10 9H86c-5 0-10-4-10-9v-16H51v314h213v-45c0-3 3-6 6-6h39z"/></svg>