<svg version="1.1" xmlns="http://www.w3.org/2000/svg" xmlns:xlink="http://www.w3.org/1999/xlink" id="closed-caption" viewBox="0 0 342 512.5"><path d="M333 148.25c5 1 9 6 9 11v194c0 5-4 10-9 11l-160 32h-4l-160-32c-5-1-9-6-9-11v-194c0-5 4-10 9-11l160-32h4zm-184 150c1-2 1-5 0-7s-3-4-5-5l-19-8c-2-1-4-1-6 0s-4 3-5 5c-2 4-7 14-17 14-14 0-24-17-24-41s10-41 24-41c9 0 14 7 17 13 2 4 8 6 12 4l18-8c2-1 4-3 5-5s0-4-1-6c-11-23-28-35-51-35-38 0-64 31-64 78s26 78 64 78c23 0 41-12 52-36zm159 0c1-2 1-5 0-7s-3-4-5-5l-18-8c-2-1-5-1-7 0s-4 3-5 5c-2 4-6 14-16 14-14 0-25-17-25-41s11-41 25-41c9 0 14 7 17 13 2 4 7 6 11 4l18-8c2-1 4-3 5-5s0-4-1-6c-11-23-27-35-50-35-38 0-65 31-65 78s27 78 65 78c23 0 40-12 51-36z"/></svg>