<svg version="1.1" xmlns="http://www.w3.org/2000/svg" xmlns:xlink="http://www.w3.org/1999/xlink" id="comment-quotes" viewBox="0 0 394 512.5"><path d="M394 87.25v288c-2 8-9 14-17 14H152l-44 44c-3 5-9 8-15 8-10 0-17-7-17-17v-35H17c-8 0-15-6-17-14v-288c1-9 8-16 17-16h360c9 0 16 7 17 16zm-307 172c14 0 26-12 26-26s-10-24-23-24c-3 0-5 0-6 1 3-12 13-25 24-31h1c1-1 2-2 2-3s-1-2-2-3l-14-9c-1 0-1-1-2-1s-1 1-2 1c-21 15-34 36-34 61 0 22 14 34 30 34zm67 0c14 0 27-12 27-26s-10-24-23-24c-3 0-6 0-7 1 3-12 14-25 25-31 1-1 2-2 2-3s0-2-1-3l-14-9c-1 0-1-1-2-1s-1 1-2 1c-21 15-34 36-34 61 0 22 13 34 29 34zm81 37c21-15 35-37 35-62 0-22-14-34-30-34-14 0-26 13-26 27s9 24 22 24c3 0 6 0 7-1-3 12-14 25-25 31-1 1-2 2-2 3s1 2 2 3h-1l14 9c1 0 2 1 3 1s0-1 1-1zm68 0c21-15 34-37 34-62 0-22-13-34-29-34-14 0-27 13-27 27s10 24 23 24c3 0 6 0 7-1-3 12-14 25-25 31-1 1-2 2-2 3s0 2 1 3l14 9c1 0 1 1 2 1s1-1 2-1z"/></svg>