<svg version="1.1" xmlns="http://www.w3.org/2000/svg" xmlns:xlink="http://www.w3.org/1999/xlink" id="crown" viewBox="0 0 348 512.5"><path d="M348 410.25v19c0 9-6 16-15 16H16c-9 0-16-7-16-16v-19c0-9 7-16 16-16h317c9 0 15 7 15 16zm-304-213c1 1 1 0 2 1l34 35 82-81c3-3 7-5 12-5s9 2 12 5l82 81 35-35c0-1 0-2 1-2h1c3-2 6-4 10-4 9 0 17 8 17 17v150c-1 8-8 14-17 14v1H33c-9 0-15-7-16-15h-1v-150h1c0-9 7-16 16-16 4 0 8 1 11 4zm248 43h-1 1zm-290-101c0-21 10-31 31-31s30 10 30 31-9 31-30 31-31-10-31-31zm281 0c0-21 10-31 31-31s31 10 31 31-10 31-31 31-31-10-31-31zm-138-41c0-21 10-31 31-31s31 10 31 31-10 31-31 31-31-10-31-31z"/></svg>