<svg version="1.1" xmlns="http://www.w3.org/2000/svg" xmlns:xlink="http://www.w3.org/1999/xlink" id="database" viewBox="0 0 422 512.5"><path d="M124 125.25v262c0 12-11 22-23 22H21v-1c-12 0-21-9-21-21v-262c0-12 9-22 21-22h80c12 0 22 10 22 22h1zm-62 258c18 0 32-14 32-32s-14-32-32-32-32 14-32 32 14 32 32 32zm36-115v-139H26v139h72zm175-143v262c0 12-10 22-22 22h-81v-1c-12 0-21-9-21-21v-262c0-12 9-22 21-22h81c12 0 22 10 22 22zm-62 258c18 0 32-14 32-32s-14-32-32-32-32 14-32 32 14 32 32 32zm36-115v-139h-72v139h72zm175-143v262c0 12-10 22-22 22h-81v-1c-12 0-21-9-21-21v-262c0-12 9-22 21-22h81c12 0 22 10 22 22zm-62 258c18 0 32-14 32-32s-14-32-32-32-32 14-32 32 14 32 32 32zm36-115v-139h-72v139h72z"/></svg>