<svg version="1.1" xmlns="http://www.w3.org/2000/svg" xmlns:xlink="http://www.w3.org/1999/xlink" id="die-five" viewBox="0 0 348 512.5"><path d="M348 119.25v274c0 20-17 37-37 37H37c-20 0-37-17-37-37v-274c0-20 17-37 37-37h274c20 1 37 17 37 37zm-261 258c20 0 36-16 36-36s-16-36-36-36-36 16-36 36 16 36 36 36zm0-172c20 0 36-16 36-36s-16-36-36-36-36 16-36 36 16 36 36 36zm87 87c20 0 36-16 36-36s-16-36-36-36-36 16-36 36 16 36 36 36zm87 87c20 0 36-16 36-36s-16-36-36-36-36 16-36 36 16 36 36 36zm0-174c20 0 36-16 36-36s-16-36-36-36-36 16-36 36 16 36 36 36z"/></svg>