<svg version="1.1" xmlns="http://www.w3.org/2000/svg" xmlns:xlink="http://www.w3.org/1999/xlink" id="dollar" viewBox="0 0 209 512.5"><path d="M126 229.25c39 10 83 26 83 77 0 42-28 73-83 79v28c0 3-3 6-6 6H97c-3 0-6-3-6-6v-28c-39-3-68-18-89-39-1-1-2-3-2-5 0-1 0-2 1-3l22-32c1-2 3-3 5-3 1 0 2 0 3 1l1 1c14 14 34 28 59 32v-58c-39-9-81-25-81-76 0-38 30-70 81-75v-29c0-3 3-6 6-6h23c3 0 6 3 6 6v30c30 3 57 14 77 33 1 1 2 2 2 4 0 1-1 3-2 4l-21 31h-1c-1 1-2 2-4 2-1 0-3 0-4-1-14-12-30-20-47-24v51zm-35-8v-46c-17 2-26 11-26 24 0 11 11 17 26 22zm35 116c19-4 29-14 29-26s-12-19-29-24v50z"/></svg>