<svg version="1.1" xmlns="http://www.w3.org/2000/svg" xmlns:xlink="http://www.w3.org/1999/xlink" id="dollar-bill" viewBox="0 0 447 512.5"><path d="M447 154.25v204c0 11-9 20-20 20H20c-11 0-20-9-20-20v-204c0-11 9-20 20-20h407c11 0 20 9 20 20zm-76 28c0 2 2 4 4 4h21v21c0 2 2 4 4 4h18c2 0 4-2 4-4v-43c0-2-2-4-4-4h-43c-2 0-4 2-4 4v18zm-294 148c0-2-2-4-4-4H51v-21c0-2-2-4-4-4H30c-2 0-4 2-4 4v43c0 2 2 4 4 4h43c2 0 4-2 4-4v-18zm0-166c0-2-2-4-4-4H30c-2 0-4 2-4 4v43c0 2 2 4 4 4h17c2 0 4-2 4-4v-21h22c2 0 4-3 4-5v-17zm147 188c53 0 96-43 96-96s-43-96-96-96-96 43-96 96 43 96 96 96zm198-47c0-2-2-4-4-4h-18c-2 0-4 2-4 4v21h-21c-2 0-4 3-4 5v17c0 2 2 4 4 4h43c2 0 4-2 4-4v-43zm-198-120c39 0 70 32 70 71 0 15-4 29-12 40 0-3-2-7-4-8l-28-13-12-6c5-3 9-8 12-14 2-5 3-10 3-16 0-3 0-6-1-9-4-14-14-25-28-25-13 0-25 10-29 24-1 3-1 6-1 10 0 6 2 12 4 17 3 6 7 11 12 14l-11 5-29 13c-3 1-4 5-4 8-8-11-13-25-13-40 0-39 32-71 71-71z"/></svg>