<svg version="1.1" xmlns="http://www.w3.org/2000/svg" xmlns:xlink="http://www.w3.org/1999/xlink" id="elevator" viewBox="0 0 493.75 512.5"><path d="M389 55.25c7 0 13 6 13 13v376c0 7-6 13-13 13H13c-7 0-13-6-13-13v-376c0-7 6-13 13-13h376zm-338 52v298h299v-298H51zm439 221c1 0 2 0 3 1s0 2-1 3l-31 44c-1 1-1 2-2 2s-2-1-3-2l-31-44c-1-1-2-2-1-3s2-1 3-1h15v-40c0-2 1-3 3-3h27c2 0 3 1 3 3v40h15zm-63-144c-1 0-2 0-3-1s0-2 1-3l31-44c1-1 2-2 3-2s1 1 2 2l32 44c1 1 1 2 0 3s-2 1-3 1h-15v40c0 2-1 3-3 3h-27c-2 0-3-1-3-3v-40h-15zm-318-20c0-17 8-26 25-26s25 9 25 26-8 25-25 25-25-8-25-25zm73 32c6 1 11 6 11 12v72c0 3-1 5-3 7-4 4-12 4-16 0-2-2-3-4-3-7v-50c0-2-1-4-3-4s-4 2-4 4v131c0 7-5 13-12 13s-13-6-13-13v-66c0-2-1-4-3-4s-4 2-4 4v66c0 7-5 13-12 13s-13-6-13-13v-131c0-2-1-4-3-4s-3 2-3 4v50c0 3-2 5-4 7-4 4-11 4-15 0-2-2-3-4-3-7v-72c0-7 5-12 12-12h91zm56-32c0-17 9-26 26-26s25 9 25 26-8 25-25 25-26-8-26-25zm74 32c6 1 10 6 10 12v72c0 3-1 5-3 7-4 4-11 4-15 0-2-2-3-4-3-7v-50c0-2-1-4-3-4s-4 2-4 4v131c0 7-5 13-12 13s-13-6-13-13v-66c0-2-1-4-3-4s-4 2-4 4v66c0 7-5 13-12 13s-13-6-13-13v-131c0-2-1-4-3-4s-4 2-4 4v50c0 3-1 5-3 7-4 4-11 4-15 0-2-2-3-4-3-7v-72c0-7 5-12 12-12h91z"/></svg>