<svg version="1.1" xmlns="http://www.w3.org/2000/svg" xmlns:xlink="http://www.w3.org/1999/xlink" id="euro" viewBox="0 0 283 512.5"><path d="M280 323.25c3 2 3 5 2 8-19 34-55 67-115 67-68 0-122-38-140-98H6v1c-3 0-6-3-6-6v-21c0-3 3-6 6-6h15v-25H6c-3 0-6-3-6-6v-21c0-3 3-6 6-6h21c19-59 73-96 140-96 60 0 96 33 115 67 1 3 1 6-2 8h-1l-40 19c-3 1-5 1-7-2-12-22-37-40-65-40-34 0-61 17-75 44h100c3 0 6 3 6 6v21c0 3-3 6-6 6H82c-1 5-1 8-1 13v12h111c3 0 6 3 6 6v21c0 3-3 6-6 6H91c14 28 41 45 76 45 28 0 52-17 64-39l1-1c2-3 4-3 7-2l40 19h1z"/></svg>