<svg version="1.1" xmlns="http://www.w3.org/2000/svg" xmlns:xlink="http://www.w3.org/1999/xlink" id="female" viewBox="0 0 227 512.5"><path d="M68 103.25c0-28 14-42 42-42s42 14 42 42-14 42-42 42-42-14-42-42zm159 174v3c0 3-1 6-3 9s-3 4-6 6-6 3-9 3c-8 0-14-4-17-12l-20-76c-1-3-3-5-6-5-4 0-5 2-5 6v2l32 122c1 1 1 2 1 3l1 1h-1 1c0 6-4 10-10 10h-24v81c0 4-1 7-3 10s-5 6-8 8-6 3-10 3c-6 0-11-3-15-7s-6-8-6-14v-81h-12v81c0 6-2 10-6 14s-8 7-14 7-11-3-15-7-6-8-6-14v-81H42c-6 0-10-4-10-10v-1c0-1 0-2 1-3l33-123v-2c-1-3-2-5-5-5s-5 2-6 5l-20 76h-1c-3 8-8 12-16 12-5 0-10-3-13-6s-5-7-5-12v-3l28-105 1-2c3-9 8-13 18-13v-1h132v1c10 0 16 4 19 13l1 2z"/></svg>