<svg version="1.1" xmlns="http://www.w3.org/2000/svg" xmlns:xlink="http://www.w3.org/1999/xlink" id="first-aid" viewBox="0 0 411 512.5"><path d="M100 140.25v-46c0-7 6-12 13-12h185c7 0 12 5 12 12v47h-31v-27H131v26h-31zm-24 290v-262h259v262H76zm52-149v37c0 1 0 1 1 2s2 1 3 1h52v53c0 1 0 2 1 3s2 1 3 1h37c1 0 1 0 2-1s2-2 2-3v-53h52c1 0 2 0 3-1s1-1 1-2v-37c0-2-2-4-4-4h-52v-52c0-2-2-4-4-4h-37c-2 0-4 2-4 4v52h-52c-2 0-4 2-4 4zm-108-113h31v262H20c-11 0-20-9-20-20v-221c0-11 9-21 20-21zm391 242c0 11-9 20-20 20h-31v-262h31c11 0 20 9 20 20v222z"/></svg>