<svg version="1.1" xmlns="http://www.w3.org/2000/svg" xmlns:xlink="http://www.w3.org/1999/xlink" id="foot" viewBox="0 0 264 512.5"><path d="M0 184.25c0-15 7-22 22-22s22 7 22 22-7 22-22 22-22-7-22-22zm168-104c0-30 15-45 45-45s45 15 45 45-15 44-45 44-45-14-45-44zm-76 14c0-19 9-28 28-28s28 9 28 28-9 28-28 28-28-9-28-28zm157 285c9 11 13 24 13 38 0 17-5 31-17 43s-26 17-43 17c-13 0-25-3-35-11s-18-18-22-30l-76-131 1-1c-5-8-9-16-11-25-3-11-5-22-5-33 0-29 10-53 31-74s45-31 74-31c19 0 37 5 53 14s29 23 38 39 14 33 14 52c0 21-5 41-17 59-6 11-9 23-9 35 0 14 3 27 11 39zm-210-242c0-15 7-23 22-23s22 8 22 23-7 22-22 22-22-7-22-22z"/></svg>