<svg version="1.1" xmlns="http://www.w3.org/2000/svg" xmlns:xlink="http://www.w3.org/1999/xlink" id="foundation" viewBox="0 0 356 512.5"><path d="M325 389.25c1 0 1 1 1 2v1l-6 12c0 1-1 1-2 1h-1l-16-8c-1 0-1-1-1-2s1 0 1-1l6-12c1-1 2-2 3-1zm0-269c1 0 1 1 1 2v1l-7 11c0 1 0 2-1 2l-2-1-15-9c-1 0-1 0-1-1v-2l7-11c1-1 2-2 3-1zm-30 253c1 1 2 2 1 3l-7 12c0 1-1 1-2 1h-1l-4-3-5-2-62 34c-1 1-4 1-5 1s-3 0-4-1l-63-34-62 34h-1c-1 1-3 1-4 1s-3 0-4-1h-1l-67-37c-3-1-4-3-4-6v-274c0-3 2-6 5-7s6 0 9 1l62 34 62-34h1v-1h8l1 1 62 34 62-34c2-2 6-3 9-1l7 5 7 3c1 0 1 1 1 2s-1 0-1 1l-6 12c0 1-1 1-2 1l-1-1-9-5v252zm-219 29v-256l-58-31v256zm134 0v-256l-67-36v256zm144-114c1 0 2 2 2 3v27c0 1-1 2-2 2h-13c-1 0-3-1-3-2v-27c0-1 2-3 3-3h13zm0 108c1 0 2 1 2 2v10c0 8-5 11-10 11-2 0-4-1-6-2l-8-4c-1 0-1-1-1-2v-1l6-12 1-1 2-1h14zm-5-262s7 4 7 12v10c0 1-1 2-2 2h-13c-1 0-3-1-3-2v-8l-6-4c-1 0-1 0-1-1v-2l6-11c1-1 2-2 3-1zm5 47c1 0 2 1 2 2v27c0 1-1 2-2 2h-13c-1 0-3-1-3-2v-27c0-1 2-2 3-2h13zm0 161c1 0 2 1 2 2v27c0 1-1 3-2 3h-13c-1 0-3-2-3-3v-27c0-1 2-2 3-2h13zm0-107c1 0 2 1 2 2v27c0 1-1 2-2 2h-13c-1 0-3-1-3-2v-27c0-1 2-2 3-2h13z"/></svg>