<svg version="1.1" xmlns="http://www.w3.org/2000/svg" xmlns:xlink="http://www.w3.org/1999/xlink" id="guide-dog" viewBox="0 0 399 512.5"><path d="M148 128.25c-3-2-5-5-5-9 0-6 4-10 10-10 3 0 6 1 8 3l60 60c3 2 5 5 5 9 0 6-5 10-11 10-2 0-4-1-6-2h-1v-1zm67 209h-25c-14 0-28 0-41-1l24 42c2 3 4 7 4 11 0 10-8 18-18 18-6 0-11-3-14-7l-38-65-37 65h-1c-3 4-8 7-14 7-10 0-18-8-18-18 0-4 2-8 4-11l32-56c-8-6-14-29-14-56 0-13 2-24 4-34l-57-33c-4-2-6-6-6-11 0-7 6-13 13-13 2 0 4 0 6 1l56 33c1 0 2-1 3-1h137v129zm91-14l31 55c2 3 4 7 4 11 0 10-8 18-18 18-6 0-11-3-14-7h-1l-37-65-38 65c-3 4-8 7-14 7-10 0-18-8-18-18 0-4 2-8 4-11l31-54v-116l83 83c-2 17-7 29-13 32zm93-110c0 4-2 8-4 10l-11 11h-50l-14 14c1 5 1 11 1 16l-72-72 42-42 26-45 13 22c3 0 5 2 7 3v-1l26 15c7 3 11 10 11 18v21l20 20c3 2 5 6 5 10z"/></svg>