<svg version="1.1" xmlns="http://www.w3.org/2000/svg" xmlns:xlink="http://www.w3.org/1999/xlink" id="hearing-aid" viewBox="0 0 321 512.5"><path d="M148 146.25c58 0 104 48 104 106 0 13-2 24-6 36 0 1-1 2-1 3 0 0-15 26-25 38-1 2-3 3-4 5-7 8-10 11-10 24 1 27 1 37-1 45-4 26-23 39-55 40-9 0-17-7-17-16 0-5 1-10 4-13s7-5 12-5c21-1 22-7 23-11v-2c1-5 0-21 0-37-1-26 10-38 18-48l4-4c6-7 17-24 21-32 2-7 3-15 3-23 0-39-31-72-70-72s-71 33-71 72c0 9-8 17-17 17s-17-8-17-17c0-58 47-106 105-106zm24 108c0-13-11-24-24-24s-24 11-24 24c0 8-7 15-15 15s-14-7-14-15c0-29 24-52 53-52s52 23 52 52c0 8-6 15-14 15s-14-7-14-15zm-97 52c6-6 16-6 22 0 3 3 5 8 5 12s-2 8-5 11l-70 71c-3 3-7 4-11 4s-8-1-11-4-5-8-5-12 2-8 5-11zm132-192c38 0 69 30 69 68v7c0 3-3 6-6 6h-12c-3 0-6-3-6-6v-7c0-24-21-44-45-44h-7c-3 0-5-3-5-6v-11c0-3 2-7 5-7h7zm114 68v7c0 3-3 6-6 6h-11c-3 0-7-3-7-6v-7c0-49-41-89-90-89h-7c-3 0-5-3-5-6v-12c0-3 2-6 5-6h7c63 0 114 50 114 113z"/></svg>