<svg version="1.1" xmlns="http://www.w3.org/2000/svg" xmlns:xlink="http://www.w3.org/1999/xlink" id="indent-more" viewBox="0 0 355 512.5"><path d="M337 78.25c10 0 18 7 18 17v16c0 10-8 17-18 17H17c-10 0-17-7-17-17v-16c0-10 7-17 17-17h320zm0 306c10 0 18 7 18 17v16c0 10-8 17-18 17H17c-10 0-17-7-17-17v-16c0-10 7-17 17-17h320zm18-85v16c0 10-8 17-18 17H138c-10 0-17-7-17-17v-16c0-10 7-17 17-17h199c10 0 18 7 18 17zm0-101v16c0 10-8 17-18 17H138c-10 0-17-7-17-17v-16c0-10 7-18 17-18h199c10 0 18 8 18 18zm-352 98c-2 0-3-1-3-3v-74c0-2 1-3 3-3 1 0 1 0 2 1l63 36c1 0 2 2 2 3s0 1-1 2v1l-64 36c-1 1-1 1-2 1z"/></svg>