<svg version="1.1" xmlns="http://www.w3.org/2000/svg" xmlns:xlink="http://www.w3.org/1999/xlink" id="link" viewBox="0 0 353.1563 512.5"><path d="M323 109.25c39 39 40 101 4 141l-52 52c-9 9-20 16-31 21-4 10-10 20-18 28l-51 52c-40 40-105 40-145 0s-40-105 0-145l52-52v1c8-8 17-14 27-18 5-11 13-23 22-32l52-51c40-36 101-36 140 3zm-183 257l37-38c-17-4-33-13-46-26s-23-30-27-47l-37 38c-20 20-20 53 0 73s53 20 73 0zm28-101c9 9 21 14 33 15-1-12-6-24-15-33s-21-14-33-15c1 12 6 24 15 33zm122-49c17-20 16-51-3-70s-50-20-70-3l-3 3-38 38c17 4 33 13 46 26s23 30 27 47l38-38z"/></svg>