<svg version="1.1" xmlns="http://www.w3.org/2000/svg" xmlns:xlink="http://www.w3.org/1999/xlink" id="list-number" viewBox="0 0 423 512.5"><path d="M29 115.25l-9 9-6-7 17-17h10v55H29v-40zm-8 123c-6 0-10 2-14 6l-7-8c5-6 13-9 21-9 12 0 21 7 21 18 0 9-8 18-22 28h22v10H1v-9c22-17 29-22 29-29 0-5-4-7-9-7zm9 145c6 1 13 5 13 13 0 9-8 16-21 16-10 0-18-4-22-9l6-8c4 4 10 7 15 7 7 0 11-3 11-7s-3-7-11-7h-7v-10h7c6 0 10-2 10-6s-4-6-10-6c-5 0-10 1-14 5l-6-7c4-5 11-9 21-9 13 0 20 6 20 15 0 7-6 12-12 13zm376-281c10 0 17 7 17 17v16c0 10-7 18-17 18H86c-10 0-17-8-17-18v-16c0-10 7-17 17-17h320zm0 127c10 0 17 8 17 18v16c0 10-7 17-17 17H86c-10 0-17-7-17-17v-16c0-10 7-18 17-18h320zm0 128c10 0 17 7 17 17v16c0 10-7 18-17 18H86c-10 0-17-8-17-18v-16c0-10 7-17 17-17h320z"/></svg>