<svg version="1.1" xmlns="http://www.w3.org/2000/svg" xmlns:xlink="http://www.w3.org/1999/xlink" id="list-thumbnails" viewBox="0 0 332 512.5"><path d="M321 345.25c6 0 11 6 11 12v54c0 6-5 11-11 11H139c-6 0-11-5-11-11v-54c0-6 5-12 11-12h182zm-256 0c6 0 12 6 12 12v54c0 6-6 11-12 11H12c-6 0-12-5-12-11v-54c0-6 6-12 12-12h53zm256-128c6 0 11 6 11 12v54c0 6-5 11-11 11H139c-6 0-11-5-11-11v-54c0-6 5-12 11-12h182zm-256 0c6 0 12 6 12 12v54c0 6-6 11-12 11H12c-6 0-12-5-12-11v-54c0-6 6-12 12-12h53zm63-62v-54c0-6 5-11 11-11h182c6 0 11 5 11 11v54c0 6-5 12-11 12H139c-6 0-11-6-11-12zm-63-65c6 0 12 5 12 11v54c0 6-6 12-12 12H12c-6 0-12-6-12-12v-54c0-6 6-11 12-11h53z"/></svg>