<svg version="1.1" xmlns="http://www.w3.org/2000/svg" xmlns:xlink="http://www.w3.org/1999/xlink" id="loop" viewBox="0 0 346 512.5"><path d="M346 121.25v137c0 2-1 5-3 6s-5 2-7 1l-130-44c-3-1-5-3-5-6s1-6 3-8l30-21 5-4c-18-14-41-23-66-23-40 0-75 22-93 55-4 6-12 9-18 5l-42-24c-6-3-8-11-5-17 31-56 90-93 158-93 50 0 95 20 128 53l2-2 31-22c2-2 5-1 8 0s4 4 4 7zm-20 196c6 3 9 11 6 17-31 56-91 93-159 93-50 0-94-20-127-53l-3 2-30 22c-2 2-5 1-8 0s-5-4-5-7v-137c0-2 1-5 3-6s5-2 7-1l130 44c3 1 6 3 6 6s-1 6-3 8l-31 21-5 4c18 14 41 23 66 23 40 0 76-22 94-55 4-6 12-9 18-5l41 24z"/></svg>