<svg version="1.1" xmlns="http://www.w3.org/2000/svg" xmlns:xlink="http://www.w3.org/1999/xlink" id="mail" viewBox="0 0 394 512.5"><path d="M381 103.25c7 0 13 6 13 13v24c0 2-1 2-2 3s-4 2-5 3l-188 110c-1 0-1 1-2 1s0-1-1-1l-194-110c-1-1-2-2-2-3v-27c0-7 6-13 13-13h368zm12 80c1 1 1 1 1 2v177c0 1-1 3-2 3l-1 1c-1 0-1 0-2-1l-107-115c-1-1 0-2 0-3s0-2 1-2l106-62c1-1 3-1 4 0zm-140 83l127 137c1 1 1 3 0 4s-2 2-3 2H13c-2 0-4-1-6-2-1-1-2-2-2-3s0-2 1-3l142-131c1-1 3-2 4-1l38 22c5 3 11 2 16-1l42-25c1-1 4 0 5 1zm-136-12l-112 103c-1 1-1 1-2 1H2c-1-1-2-2-2-3v-167c0-1 1-2 2-3s2-1 3 0l111 64c1 1 2 1 2 2s0 2-1 3z"/></svg>