<svg version="1.1" xmlns="http://www.w3.org/2000/svg" xmlns:xlink="http://www.w3.org/1999/xlink" id="male-female" viewBox="0 0 466 512.5"><path d="M49 101.25c0-28 14-42 42-42s43 14 43 42-15 42-43 42-42-14-42-42zm123 54c5 1 9 2 12 6s6 8 6 13v120c0 5-3 10-6 13s-7 5-12 5-10-2-13-5-5-8-5-13v-83c0-4-2-6-6-6s-6 2-6 6v219c0 6-2 11-6 15s-8 6-14 6-11-2-15-6-6-9-6-15v-110c0-4-2-6-6-6s-6 2-6 6v110c0 6-2 11-6 15s-9 6-15 6-11-2-15-6-6-9-6-15v-219c0-4-1-6-5-6s-6 2-6 6v83c0 5-2 10-5 13s-8 5-13 5-10-2-13-5-5-8-5-13v-120c0-5 2-10 6-14s9-5 14-5h152zm133-54c0-28 14-42 42-42s43 14 43 42-15 43-43 43-42-15-42-43zm161 176v3c0 3 0 6-2 9s-4 5-7 7-6 2-9 2c-8 0-14-3-17-11l-21-78c-1-3-2-4-5-4-4 0-6 1-6 5v2l33 124c1 1 1 3 1 4h1-1 1c0 6-4 10-10 10h-25v82c0 6-2 11-6 15s-9 6-15 6-11-2-15-6-6-9-6-15v-82h-12v82c0 4-1 8-3 11s-4 6-7 8-7 2-11 2c-6 0-11-2-15-6s-6-9-6-15v-82h-24c-6 0-10-4-10-10 0-1 0-3 1-4l33-124v-3c-1-3-2-4-5-4s-5 1-6 4l-21 78c-3 8-9 11-17 11-5 0-9-1-13-5s-5-8-5-13v-3l29-106v-2c3-9 9-14 19-14h134c10 0 16 5 19 14l1 2z"/></svg>