<svg version="1.1" xmlns="http://www.w3.org/2000/svg" xmlns:xlink="http://www.w3.org/1999/xlink" id="male" viewBox="0 0 190 512.5"><path d="M49 102.25c0-28 14-42 42-42s43 14 43 42-15 42-43 42-42-14-42-42zm123 54c5 1 9 2 12 6s6 9 6 14v120c0 5-3 9-6 12s-7 5-12 5-10-2-13-5-5-7-5-12v-84c0-4-2-6-6-6s-6 2-6 6v219c0 6-2 11-6 15s-8 6-14 6-11-2-15-6-6-9-6-15v-110c0-4-2-6-6-6s-6 2-6 6v110c0 6-2 11-6 15s-9 6-15 6-11-2-15-6-6-9-6-15v-219c0-4-1-6-5-6s-6 2-6 6v84c0 5-2 9-5 12s-8 5-13 5-10-2-13-5-5-7-5-12v-120c0-4 1-7 3-10s4-6 7-8 6-2 10-2h152z"/></svg>