<svg version="1.1" xmlns="http://www.w3.org/2000/svg" xmlns:xlink="http://www.w3.org/1999/xlink" id="map" viewBox="0 0 430 512.5"><path d="M430 41.25v433h-1c-1 6-6 11-13 11H14c-8 0-14-6-14-14v-283l161-161h255c8 0 14 6 14 14zm-125 37l-19 33 93 92v-125h-74zm-144 124H51v31l86 85 139-240H175v110c0 8-6 14-14 14zm-110 232h19l53-93-72-72v165zm48 0h280v-194l-106-106zm177-201c34 0 62 28 62 62 0 14-4 27-12 37l-39 67c0 1-1 2-2 3-2 2-5 4-8 4-4 0-8-1-10-4v-2l-40-69c-7-10-12-22-12-36 0-34 27-62 61-62zm0 93c17 0 30-13 30-30s-13-31-30-31-30 14-30 31 13 30 30 30z"/></svg>