<svg version="1.1" xmlns="http://www.w3.org/2000/svg" xmlns:xlink="http://www.w3.org/1999/xlink" id="mobile-signal" viewBox="0 0 224 512.5"><path d="M211 153.25c7 0 13 6 13 13v307c0 7-6 13-13 13H12c-7 0-12-6-12-13v-307c0-7 5-13 12-13h199zm-99 319c7 0 13-5 13-12s-6-13-13-13-12 6-12 13 5 12 12 12zm61-37v-231H51v231h122zm39-355v1l-9 9h-1c-3 3-7 3-10 1v-1l-5-5c-41-41-109-40-150 1l-6 5c-3 2-6 2-9 0l-10-9c-3-3-3-7-1-10v-1h1l5-5c52-52 138-53 190-1v1l5 5c2 3 2 6 0 9zm-38 29c2 3 2 6 0 9l-9 10c-3 3-8 3-11 1v-1l-5-5c-21-20-54-20-74 0v1l-6 5c-3 2-6 2-9 0l-10-9v-1c-3-3-3-7-1-10l6-5v-1c31-31 82-31 114 0l5 6z"/></svg>