<svg version="1.1" xmlns="http://www.w3.org/2000/svg" xmlns:xlink="http://www.w3.org/1999/xlink" id="no-dogs" viewBox="0 0 384 512.5"><path d="M192 64.25c106 0 192 86 192 192s-86 192-192 192-192-86-192-192 86-192 192-192zm0 333c34 0 66-13 90-33l-24-24c-3 0-4-1-6-3l-4-7-21-21-16 28h-1c-2 2-4 4-7 4-5 0-10-5-10-10 0-2 1-4 2-6l13-23h-44l13 23c1 2 3 4 3 6 0 5-5 10-10 10-3 0-6-2-8-4l-21-36-21 36c-2 2-5 4-8 4-5 0-10-5-10-10 0-2 2-4 3-6l17-31c-4-4-7-16-7-31 0-7 1-14 2-19l-32-18c-2-1-3-3-3-6 0-4 3-7 7-7 1 0 3 0 4 1l31 18v-1h25l-65-65c-20 24-33 56-33 90 0 78 63 141 141 141zm108-51c20-24 33-56 33-90 0-78-63-141-141-141-34 0-66 13-90 33l83 83h26l30-30h-1l17-30 10 17h1l14 8c4 2 6 6 6 10v11l11 11c2 1 3 4 3 6s-1 4-2 5l-6 6h-28l-8 8c0 3 1 6 1 10 0 16-4 29-9 32l3 4z"/></svg>