<svg version="1.1" xmlns="http://www.w3.org/2000/svg" xmlns:xlink="http://www.w3.org/1999/xlink" id="no-smoking" viewBox="0 0 384 512.5"><path d="M272 235.25c3 0 5 3 5 6v31c0 3-2 5-5 5h-4c-3 0-6-2-6-5v-31c0-3 3-6 6-6h4zm21 0c3 0 6 3 6 6v31c0 3-3 5-6 5h-3c-3 0-6-2-6-5v-31c0-3 3-6 6-6h3zm-101-171c106 0 192 86 192 192s-86 192-192 192-192-86-192-192 86-192 192-192zm0 333c34 0 66-13 90-33l-87-87H91c-3 0-6-3-6-6v-30c0-3 3-6 6-6h62l-69-69c-20 24-33 56-33 90 0 78 63 141 141 141zm108-51c20-24 33-56 33-90 0-78-63-141-141-141-34 0-66 13-90 33l87 87h60c3 0 6 3 6 6v30c0 3-3 6-6 6h-18z"/></svg>