<svg version="1.1" xmlns="http://www.w3.org/2000/svg" xmlns:xlink="http://www.w3.org/1999/xlink" id="page-export-csv" viewBox="0 0 458 512.5"><path d="M456 336.25c2 1 2 3 2 5s0 4-2 5l-94 68c-2 1-5 2-7 1s-3-4-3-6v-32h-86c-4 0-7-3-7-7v-58c0-4 3-6 7-6h85v-32c0-2 2-5 4-6s4-1 6 0zm-155 66c5 0 9 4 9 9v58c0 5-4 8-9 8H9c-5 0-9-3-9-8v-302l133-132h168c5 0 9 3 9 8v229c0 5-4 8-9 8h-33c-5 0-9-3-9-8v-186H151v90c0 5-4 9-9 9H51v241h208v-15c0-5 4-9 9-9h33zm-194-73c-7 0-11 4-11 11s4 12 11 12c4 0 8-3 9-7l13 6c-3 6-10 14-22 14-15 0-26-10-26-25s11-24 26-24c12 0 19 7 22 14l-13 5c-1-4-5-6-9-6zm49 24c3 0 5-1 5-3 0-5-26 1-26-18 0-8 6-16 19-16 8 0 15 3 20 7l-7 10c-4-3-10-5-14-5-3 0-4 1-4 2 0 4 26 0 26 18 0 10-7 17-20 17-10 0-17-3-22-8l8-10c4 3 9 6 15 6zm39-36l10 32 10-32h16l-17 47h-18l-17-47h16z"/></svg>