<svg version="1.1" xmlns="http://www.w3.org/2000/svg" xmlns:xlink="http://www.w3.org/1999/xlink" id="page-export-pdf" viewBox="0 0 458 512.5"><path d="M456 336.25c2 1 2 3 2 5s0 4-2 5l-94 68c-2 1-5 2-7 1s-3-4-3-6v-32h-86c-4 0-7-3-7-7v-58c0-4 3-6 7-6h85v-32c0-2 2-5 4-6s4-1 6 0zm-155 66c5 0 9 4 9 9v58c0 5-4 8-9 8H9c-5 0-9-3-9-8v-302l133-132h168c5 0 9 3 9 8v229c0 5-4 8-9 8h-33c-5 0-9-3-9-8v-186H151v90c0 5-4 9-9 9H51v241h208v-15c0-5 4-9 9-9h33zm-218-85h26c11 0 17 7 17 16s-6 16-17 16H98v15H83v-47zm28 16c0-3-2-4-4-4h-9v8h9c2 0 4-2 4-4zm22-16h21c15 0 26 8 26 23s-11 24-26 24h-21v-47zm33 23c0-6-4-11-12-11h-7v23h7c7 0 12-6 12-12zm59-11h-22v5h21v12h-21v18h-14v-47h36v12z"/></svg>