<svg version="1.1" xmlns="http://www.w3.org/2000/svg" xmlns:xlink="http://www.w3.org/1999/xlink" id="page-doc" viewBox="0 0 310 512.5"><path d="M310 64.25v405c0 5-4 8-9 8H9c-5 0-9-3-9-8v-302l133-132h168c5 0 9 3 9 8v21zm-259 362h208v-340H151v90c0 5-4 9-9 9H51v241zm46-109c15 0 26 8 26 23s-11 24-26 24H76v-47h21zm0 35c7 0 11-6 11-12s-3-11-11-11h-7v23h7zm58-36c15 0 26 9 26 24s-11 25-26 25-26-10-26-25 11-24 26-24zm0 36c7 0 11-5 11-12s-4-11-11-11-12 4-12 11 5 12 12 12zm58-23c-7 0-12 4-12 11s5 12 12 12c4 0 8-3 9-7l12 6c-3 6-9 14-21 14-15 0-26-10-26-25s11-24 26-24c12 0 18 7 21 14l-12 5c-1-4-5-6-9-6z"/></svg>