<svg version="1.1" xmlns="http://www.w3.org/2000/svg" xmlns:xlink="http://www.w3.org/1999/xlink" id="page-csv" viewBox="0 0 310 512.5"><path d="M106 329.25c-7 0-12 4-12 11s5 12 12 12c4 0 8-3 9-7l12 6c-3 6-9 14-21 14-15 0-26-10-26-25s11-24 26-24c12 0 18 7 21 14l-12 5c-1-4-5-6-9-6zm42 1c0 4 26 0 26 18 0 10-7 17-20 17-10 0-17-3-22-8l7-10c4 3 9 6 15 6 3 0 6-1 6-3 0-5-27 1-27-18 0-8 7-16 20-16 8 0 15 3 20 7l-8 10c-4-3-10-5-14-5-3 0-3 1-3 2zm56 19l10-32h16l-17 47h-18l-18-47h16zm106-285v405c0 5-4 8-9 8H9c-5 0-9-3-9-8v-302l133-132h168c5 0 9 3 9 8v21zm-259 362h208v-340H151v90c0 5-4 9-9 9H51v241z"/></svg>