<svg version="1.1" xmlns="http://www.w3.org/2000/svg" xmlns:xlink="http://www.w3.org/1999/xlink" id="page-search" viewBox="0 0 403 512.5"><path d="M403 64.25l-1 392v13c0 5-3 8-8 8H101c-5 0-9-3-9-8v-58c0-5 4-9 9-9h34c5 0 8 4 8 9v15h209v-340H243v90c0 5-4 9-9 9h-91v9c0 5-3 8-8 8h-34c-5 0-8-3-8-8h-1v-27l133-132h169c5 0 8 3 8 8v21h1zm-204 238c0 45-37 82-82 82-13 0-26-3-37-9l-41 41c-4 4-10 7-16 7-13 0-23-9-23-22 0-7 3-13 7-17l40-40c-7-12-12-27-12-42 0-45 37-82 82-82s82 37 82 82zm-129 0c0 26 21 48 47 48s48-22 48-48-22-47-48-47-47 21-47 47z"/></svg>