<svg version="1.1" xmlns="http://www.w3.org/2000/svg" xmlns:xlink="http://www.w3.org/1999/xlink" id="paperclip" viewBox="0 0 356 512.5"><path d="M77 453.25c-14 0-32-5-50-23-24-24-27-47-25-62 2-18 11-34 27-50l150-151c42-42 70-26 83-13 16 16 26 42-14 82l-138 139-27-27 138-139c21-21 16-26 14-28s-8-8-29 13l-150 151c-7 7-15 17-16 28-1 10 3 19 14 30 13 13 23 11 26 11 9-1 20-8 30-18l178-178c15-15 24-29 28-42 5-19-1-38-20-57-20-20-50-40-98 8l-165 165c-7 7-20 7-27 0s-7-20 0-27l165-165c51-51 106-54 152-8 36 36 36 71 30 94-6 20-18 39-38 59l-178 178c-16 16-34 27-51 29-3 0-6 1-9 1z"/></svg>