<svg version="1.1" xmlns="http://www.w3.org/2000/svg" xmlns:xlink="http://www.w3.org/1999/xlink" id="paw" viewBox="0 0 363 512.5"><path d="M104 208.25c0 29-23 52-52 52s-52-23-52-52 23-51 52-51 52 22 52 51zm207-41c29 0 52 23 52 52s-23 51-52 51-52-22-52-51 23-52 52-52zm-47 109l3 4c16 19 35 44 35 84 0 37-31 68-68 68-21 0-40-10-53-27-13 17-33 27-54 27-37 0-68-31-68-68 0-40 19-65 35-84l3-4c5-6 13-13 22-21 16-17 37-27 62-27 28 0 52 13 68 33 6 5 11 11 15 15zm-136-138c0-38 19-58 57-58s57 20 57 58-19 57-57 57-57-19-57-57z"/></svg>