<svg version="1.1" xmlns="http://www.w3.org/2000/svg" xmlns:xlink="http://www.w3.org/1999/xlink" id="paypal" viewBox="0 0 315.3854 512.5"><path d="M73.385 360.25c-2 9-11 16-20 16h-40c-9 0-15-8-13-16l58-248c2-8 10-16 19-16h85c18 0 34 2 48 4 14 3 25 7 35 13s17 14 22 24 8 22 8 37c0 33-13 60-41 80s-66 31-116 31h-12c-9 0-17 7-19 15zm33-144c-2 9 3 16 12 16h10c22 0 40-5 52-14s18-22 18-38c0-11-4-19-12-24s-19-8-35-8h-13c-9 0-18 7-20 15zm201-39c5 10 8 21 8 36 0 33-14 61-42 81s-65 30-115 30h-12c-9 0-17 8-19 16l-14 60c-2 9-11 16-20 16h-40c-9 0-15-8-13-16l2-8h28c9 0 17-6 19-15l14-61c2-8 10-15 19-15h12c50 0 88-11 116-31s41-47 41-80c0-15-3-27-8-37v-1c1 0 1 1 2 1 10 6 17 14 22 24z"/></svg>