<svg version="1.1" xmlns="http://www.w3.org/2000/svg" xmlns:xlink="http://www.w3.org/1999/xlink" id="pound" viewBox="0 0 221 512.5"><path d="M221 373.25c0 2-1 4-2 5-12 12-31 20-61 20-36 0-50-18-75-18-14 0-32 7-48 16h-2c-2 0-4-1-5-3h-1l-14-30v-2c0-2 1-4 3-5v-1c26-12 45-30 45-51 0-8-2-15-5-22H6c-3 0-6-2-6-5v-22c0-3 3-6 6-6h28c-10-14-19-30-19-50 0-52 51-85 100-85 46 0 79 16 96 50 1 1 1 2 1 3 0 2-1 4-3 5l-37 22h-2c-2 0-5-1-6-3-7-17-23-29-42-29-24 0-43 15-43 38 0 21 11 34 20 49h60c3 0 5 2 5 5v22c0 3-2 6-5 6h-47c0 2 1 6 1 8 0 19-12 37-27 46 6-2 14-4 20-4 24 0 34 14 54 14 18 0 30-8 35-15 1-1 3-2 5-2s4 2 5 4l15 37c0 1 1 2 1 3z"/></svg>