<svg version="1.1" xmlns="http://www.w3.org/2000/svg" xmlns:xlink="http://www.w3.org/1999/xlink" id="power" viewBox="0 0 384 512.5"><path d="M328 116.25c35 35 56 82 56 135 0 106-86 192-192 192s-192-86-192-192c0-51 20-98 53-132 2-3 6-6 10-6 3 0 5 1 7 3h1l21 19v1c2 2 4 4 4 7s-2 7-4 9c-25 26-41 60-41 99 0 78 63 141 141 141s141-63 141-141c0-38-15-73-40-98-3-2-5-6-5-10 0-3 1-5 3-7v-1l21-19h1c2-2 4-3 7-3s6 1 8 3zm-150 205c-6 0-11-5-11-11v-230c0-6 5-11 11-11h28c6 0 11 5 11 11v230c0 6-5 11-11 11h-28z"/></svg>