<svg version="1.1" xmlns="http://www.w3.org/2000/svg" xmlns:xlink="http://www.w3.org/1999/xlink" id="puzzle" viewBox="0 0 293 512.5"><path d="M293 250.25v3h-1c-1 5-6 8-11 8v1c-4-1-8-2-13-2-28 0-50 22-50 50s22 50 50 50c5 0 9-1 13-2v1c6 0 11 4 12 10v67c0 11-10 20-21 20h-65c-6 0-12-6-12-12 0-2 0-3 1-4 1-4 2-9 2-14 0-28-22-50-50-50s-50 22-50 50c0 5 1 10 2 14v1c0 1 1 2 1 3 0 6-5 12-11 12H20c-11 0-20-9-20-20v-69c0-6 6-12 12-12 1 0 3 1 4 1 6 3 12 4 19 4 28 0 50-22 50-50s-22-50-50-50c-7 0-14 1-20 4-1 0-2 1-3 1-6 0-12-6-12-12v-69c0-11 9-21 20-21h75c14-1 25-12 25-27 0-6-1-12-5-17-4-6-6-13-6-21 0-23 20-42 43-42s42 19 42 42c0 8-2 15-6 21h1c-4 5-6 11-6 17 0 15 11 26 25 27h65v1c11 0 20 9 20 20v66z"/></svg>