<svg version="1.1" xmlns="http://www.w3.org/2000/svg" xmlns:xlink="http://www.w3.org/1999/xlink" id="quote" viewBox="0 0 435 512.5"><path d="M52 224.25c20 0 35 15 35 37s-19 41-41 41c-24 0-46-19-46-53 0-39 21-73 53-96 1 0 2-1 3-1s2 1 3 2l22 13c2 1 2 3 2 5s-1 4-3 5c-16 9-34 30-39 48 2-1 7-1 11-1zm105 0c20 0 35 15 35 37s-19 41-41 41c-24 0-46-19-46-53 0-39 21-73 53-96h1c1 0 1-1 2-1s3 1 4 2l21 13c2 1 3 3 3 5s-2 4-4 5c-16 9-33 30-38 48 2-1 6-1 10-1zm127-14c24 0 46 19 46 53 0 39-21 73-53 96-1 0-2 1-3 1s-2-1-3-2l-22-13c-2-1-2-3-2-5s1-4 3-5c16-9 34-30 39-48-2 1-6 1-10 1-20 0-36-15-36-37s19-41 41-41zm105 0c24 0 46 19 46 53 0 39-21 73-53 96-1 0-1 1-2 1s-3-1-4-2l-21-13c-2-1-3-3-3-5s1-4 3-5h1c16-9 33-30 38-48-2 1-6 1-10 1-20 0-35-15-35-37s18-41 40-41z"/></svg>