<svg version="1.1" xmlns="http://www.w3.org/2000/svg" xmlns:xlink="http://www.w3.org/1999/xlink" id="results" viewBox="0 0 431 512.5"><path d="M431 112.25v33c0 5-4 9-9 9H187c-5 0-9-4-9-9v-33c0-5 4-9 9-9h235c5 0 9 4 9 9zm0 77v32c0 5-4 10-9 10H187c-5 0-9-5-9-10v-32c0-5 4-9 9-9h235c5 0 9 4 9 9zm-304-77v109c0 5-4 10-9 10H9c-5 0-9-5-9-10v-109c0-5 4-9 9-9h109c5 0 9 4 9 9zm304 179v32c0 5-4 9-9 9H187c-5 0-9-4-9-9v-32c0-5 4-9 9-9v-1h235v1c5 0 9 4 9 9zm0 76v33c0 5-4 9-9 9H187c-5 0-9-4-9-9v-33c0-5 4-9 9-9h235c5 0 9 4 9 9zm-304-76v109c0 5-4 9-9 9H9c-5 0-9-4-9-9v-109c0-5 4-10 9-10l1 1h108v-1c5 0 9 5 9 10z"/></svg>