<svg version="1.1" xmlns="http://www.w3.org/2000/svg" xmlns:xlink="http://www.w3.org/1999/xlink" id="results-demographics" viewBox="0 0 471 512.5"><path d="M123 238.25c2 3 3 7 5 10l-53 24c-14 7-23 22-23 39v56H11c-6 0-11-6-11-13v-54c0-5 3-10 7-12l69-32c-16-10-28-29-28-52 0-33 23-59 51-59 8 0 15 2 21 5-2 4-3 9-4 13-3 10-4 19-4 28 0 16 4 33 11 47zm164-60c-1-4-1-8-2-13-3-14-10-27-18-38h195c5 0 9 4 9 9v33c0 5-4 9-9 9H287zm184 162v33c0 5-4 9-9 9H348v-51h114c5 0 9 4 9 9zm-9-111c5 0 9 4 9 9v33c0 5-4 9-9 9H336c-3-3-7-6-11-8l-53-25c2-4 5-7 7-11 1-2 1-5 2-7h181zm-148 66c5 3 9 9 9 16v67c0 9-6 16-14 16H91c-8 0-14-7-14-16v-67c0-7 4-14 9-16l61-28 24-11c-11-7-19-17-25-29-5-11-9-23-9-36 0-8 1-14 3-21 8-30 32-52 60-52 29 0 53 22 60 53 2 6 3 13 3 20 0 12-3 24-8 34-6 13-14 23-25 30l25 12z"/></svg>