<svg version="1.1" xmlns="http://www.w3.org/2000/svg" xmlns:xlink="http://www.w3.org/1999/xlink" id="rewind-ten" viewBox="0 0 406.0367 512.5"><path d="M351.037 251.25c-2 2-5 2-7 1l-131-42c-3-1-5-3-5-6s1-5 3-7l30-23 5-4c-19-14-42-21-67-21-59 1-106 50-105 109s51 106 110 105h10c7 0 14 6 14 13l1 47c0 3-2 7-4 9v1l-2 1c-1 0-1 1-2 1-3 1-5 2-5 2h-11c-100 2-183-78-185-178s78-182 178-184c50-1 96 18 129 50l2-1 30-23c2-2 5-2 8-1s4 4 4 7l3 138c0 2-1 4-3 6zm-60 55h18l2 99h-21l-1-72-16 17-13-12zm74-3c28-1 41 25 41 50s-11 51-39 52-42-25-42-50 12-51 40-52zm1 84c14 0 19-15 19-33s-6-32-20-32-19 15-19 33 6 32 20 32z"/></svg>