<svg version="1.1" xmlns="http://www.w3.org/2000/svg" xmlns:xlink="http://www.w3.org/1999/xlink" id="shopping-cart" viewBox="0 0 425 512.5"><path d="M95 415.25c0-20 10-30 30-30s31 10 31 30-11 30-31 30-30-10-30-30zm212 0c0-20 10-30 30-30s30 10 30 30-10 30-30 30-30-10-30-30zm26-132H133v25h270c5 0 9 3 12 6s5 7 5 12v18c-1 9-8 14-17 15H100c-5 0-9-2-12-5s-6-7-6-12v-224H18c-5 0-10-2-13-5s-5-8-5-13v-17c1-4 3-9 6-12s8-4 12-4h98c5 0 9 2 12 5s5 8 5 13v33h275c5 0 9 2 12 5s5 8 5 13c0 3 0 5-1 7l-75 130c-3 7-9 10-16 10z"/></svg>