<svg version="1.1" xmlns="http://www.w3.org/2000/svg" xmlns:xlink="http://www.w3.org/1999/xlink" id="shuffle" viewBox="0 0 462 512.5"><path d="M74 319.25l44-45 55 55-54 54c-4 7-12 12-21 12H11c-5-1-9-5-10-10H0v-56h1c1-6 6-11 12-11 1 0 2 1 3 1h58zm386-161c2 1 2 3 2 5s0 4-2 5l-95 69c-2 1-5 1-7 0s-4-4-4-6v-30h-53l-38 37-54-54 54-54c4-3 10-6 15-6h76v-29c0-2 2-5 4-6s4 0 6 1zm-1 186c2 1 3 3 3 5s-1 4-3 5l-95 68c-2 1-5 2-7 1s-3-4-3-6v-29h-77c-5 0-10-3-14-6l-189-189H16c-1 0-2 1-3 1-6 0-12-5-13-11v-56c1-5 6-9 11-10h87c9 0 17 5 21 12l182 182h53v-30c0-2 1-5 3-6s5-1 7 0z"/></svg>