<svg version="1.1" xmlns="http://www.w3.org/2000/svg" xmlns:xlink="http://www.w3.org/1999/xlink" id="skull" viewBox="0 0 399.5156 512.5"><path d="M390 370.25c12 12 13 31 1 43-7 7-18 10-27 8 2 9-1 19-8 26-12 12-30 11-42-1s-12-29-1-41l-45-45v31c-19 15-42 24-68 24s-50-9-69-24v-31l-45 45c11 12 11 30-1 42s-30 12-42 0c-7-7-10-17-8-26-9 2-19-2-26-9-12-12-12-30 0-42 12-11 30-12 42-1l46-46c-13-19-20-42-20-67s7-48 20-67l-46-46c-12 11-30 11-42-1s-12-31 0-43c7-7 17-10 26-8-2-9 1-19 8-26 12-12 31-11 43 1s12 29 1 41l46 46c19-13 42-20 67-20s48 7 67 20l46-46c-11-12-10-30 1-42 12-12 30-12 42 0 7 7 11 17 9 26 9-2 18 2 25 9 12 12 12 30 0 42s-29 12-41 1l-46 46c13 19 20 42 20 67s-7 48-20 67l46 46c12-11 29-10 41 1zm-224-68c13 0 24-10 24-23s-11-24-24-24-23 11-23 24 10 23 23 23zm67 0c13 0 24-10 24-23s-11-24-24-24-23 11-23 24 10 23 23 23z"/></svg>