<svg version="1.1" xmlns="http://www.w3.org/2000/svg" xmlns:xlink="http://www.w3.org/1999/xlink" id="social-yahoo" viewBox="0 0 512 512.5"><path d="M460 398.25l-53-6 6-46 53 6zm52-278l-50 202-39-6-1-207zm-180 36c35 27 53 61 53 103 0 43-18 78-53 105-30 22-67 35-111 39h-56c-44-4-82-17-111-39-36-27-54-62-54-105 0-42 18-76 54-103 35-27 82-41 139-41 56 0 103 14 139 41zm-27 68l7-10h-98l2 10 30 5c-1 6-16 20-46 43-23-28-39-51-50-67l35-4 2-8c-16-1-36-1-60 0-34-1-52-1-54 0v10l33 5c6 5 18 17 37 40 18 22 27 36 28 39l1 15v7c0 12-1 20-2 21-2 2-6 2-15 3l-17 1-2 10h111l1-11-36-1-3-22 1-9 1-14c2-5 13-16 33-32 19-16 30-24 34-25z"/></svg>