<svg version="1.1" xmlns="http://www.w3.org/2000/svg" xmlns:xlink="http://www.w3.org/1999/xlink" id="social-bing" viewBox="0 0 388.125 512.5"><path d="M95 288.25c0-46 34-69 100-69s99 23 99 69-33 70-99 70-100-24-100-70zm238-92c42 29 60 64 54 105 0 16-5 31-15 45s-23 26-40 36c-20 12-40 20-61 25-24 6-49 9-77 9-29 0-55-3-79-9-37-14-66-30-86-50s-29-47-29-82v-179h58v99c38-26 87-40 149-39 49 3 91 16 126 40zm-122 188c32-1 60-12 84-34s35-43 33-66c-1-14-6-27-13-38s-16-20-26-27-21-12-33-17-24-7-34-9-20-2-28-2c-44 2-78 13-101 33s-33 42-31 66 12 43 28 58 34 25 54 30 43 7 67 6z"/></svg>