<svg version="1.1" xmlns="http://www.w3.org/2000/svg" xmlns:xlink="http://www.w3.org/1999/xlink" id="social-snapchat" viewBox="0 0 379 512.5"><path d="M302 224.25c4-1 8-4 12-4 7 0 14 0 20 3 10 5 11 16 2 22-7 5-16 8-24 11-18 7-21 13-12 30 15 29 37 51 70 59 3 1 9 4 9 6 0 5-3 11-6 13-11 5-23 9-35 12-7 2-10 4-12 11-3 15-6 17-20 14-23-5-44 0-63 14-39 28-69 27-108-1-19-14-38-18-61-13-15 3-17 1-21-14-1-6-4-10-11-11-11-2-24-6-34-11-4-2-7-8-8-13 0-2 7-7 11-8 36-10 57-34 72-66 3-8 0-13-6-17-6-3-12-4-18-7-4-2-8-4-11-6-7-4-13-10-9-19 3-8 14-12 23-9 5 2 10 4 15 5 7 1 10-1 10-9-1-18-1-36 0-54 3-38 26-65 60-78 50-19 109-4 136 44 9 17 10 35 11 54-1 12-1 23-2 35-1 8 4 9 10 7z"/></svg>