<svg version="1.1" xmlns="http://www.w3.org/2000/svg" xmlns:xlink="http://www.w3.org/1999/xlink" id="social-blogger" viewBox="0 0 369 512.5"><path d="M308 72.25c33 0 61 28 61 61v246c0 33-28 61-61 61H61c-33 0-61-28-61-61v-246c0-33 28-61 61-61h247zm-12 225v-61l-2-4-3-2c-4-3-25 0-31-5-4-4-5-11-6-20-2-17-3-18-6-24-10-21-37-37-55-39h-50c-39 0-72 33-72 72v83c0 39 33 71 72 71h82c39 0 71-32 71-71zm-152-69c-8 0-14-7-14-14s6-13 14-13h39c8 0 14 6 14 13s-6 14-14 14h-39zm80 54c7 0 14 7 14 14s-7 13-14 13h-80c-8 0-14-6-14-13s6-14 14-14h80z"/></svg>