<svg version="1.1" xmlns="http://www.w3.org/2000/svg" xmlns:xlink="http://www.w3.org/1999/xlink" id="social-dribbble" viewBox="0 0 371 512.5"><path d="M186 70.25c102 0 185 84 185 186s-83 186-185 186-186-84-186-186 84-186 186-186zm122 86c-3 5-29 39-88 63 4 8 7 14 10 22 1 3 3 6 4 9 53-7 105 4 110 5 0-37-14-72-36-99zm-122-58c-13 0-26 1-38 4 4 6 34 45 60 93 56-21 80-53 83-57-28-25-65-40-105-40zm-68 15c-44 21-78 62-88 111 7 0 73 0 147-20-26-47-55-85-59-91zm-91 143c0 41 16 78 41 106 4-6 47-78 129-104 2-1 4-1 6-2-4-9-8-18-13-27-79 24-156 22-163 22v5zm159 159c22 0 42-5 61-13-2-14-11-62-33-120h-1c-89 31-122 93-125 99 27 21 61 34 98 34zm88-27c36-24 61-63 68-107-5-2-49-14-99-6 21 57 29 103 31 113z"/></svg>