<svg version="1.1" xmlns="http://www.w3.org/2000/svg" xmlns:xlink="http://www.w3.org/1999/xlink" id="social-youtube" viewBox="0 0 369 512.5"><path d="M160 360.25v-67h16v88h-16v-9c-6 7-13 11-19 11-5 0-8-3-10-7-1-3-1-7-1-13v-70h16v71c0 2 2 4 4 4 3 0 6-3 10-8zm-89-81v-17h56v17h-19v102H90v-102H71zm110-78c-5 0-8-4-8-12v-38c0-8 3-12 8-12s7 4 7 12v38c0 8-2 12-7 12zm41 91c6 0 11 3 13 10 1 4 2 9 2 17v36c0 8-1 14-2 18-2 7-7 10-13 10s-11-3-16-10v8h-16v-119h16v39c5-6 10-9 16-9zm-1 64v-38c0-8-2-12-7-12-3 0-5 1-8 4v54c3 3 5 4 8 4 5 0 7-4 7-12zm53-64c8 0 15 3 19 9 3 4 5 11 5 20v19h-33v16c0 8 3 12 9 12 4 0 6-3 7-7v-10h17v2c0 5-1 8-1 10-1 4-2 7-4 10-4 6-11 10-19 10s-14-4-19-10c-3-4-6-11-6-20v-31c0-9 2-17 5-21 5-6 12-9 20-9zm7 34v-8c0-8-3-12-8-12s-8 4-8 12v8h16zm52-254c20 0 36 16 36 36v296c0 20-16 36-36 36H36c-20 0-36-16-36-36v-296c0-20 16-36 36-36h297zm-115 53v71c0 6 0 11 1 14 2 5 6 6 11 6 6 0 12-4 18-11v10h17v-90h-17v69c-4 5-7 7-10 7-2 0-4 0-4-3v-73h-16zm-61 30v31c0 10 2 17 5 21 4 6 11 9 19 9s14-3 19-9c3-4 5-11 5-21v-31c0-10-2-17-5-22-5-6-11-9-19-9s-15 3-19 9c-3 5-5 12-5 22zm-44-60H94l12 33c6 17 9 29 11 38v49h18v-49l21-71h-18l-12 47zm200 292c5-20 4-42 4-63s1-43-4-63c-3-14-15-24-29-26-33-4-67-4-100-4s-66 0-99 4c-14 2-26 12-29 26-5 20-5 42-5 63s0 43 5 63c3 14 15 24 29 26 33 4 66 3 99 3s67 1 100-3c14-2 26-12 29-26z"/></svg>