<svg version="1.1" xmlns="http://www.w3.org/2000/svg" xmlns:xlink="http://www.w3.org/1999/xlink" id="social-zerply" viewBox="0 0 281.3031 512.5"><path d="M76.303 315.25c37 3 66 23 96 41 21 13 44 20 69 20 12 0 22-4 31-12 4-3 6-2 7 3 9 37-21 75-59 76-19 1-35-6-50-16-17-11-35-25-52-36-32-21-67-28-105-24-11 1-12 1-13-11-2-22 6-40 21-56 42-46 83-91 122-140 3-4 7-9 10-13 1-1 3-2 2-4s-2-1-4-1c-18 1-37 2-56 2-10 0-18-2-27-6-15-7-20-17-14-32 5-12 11-23 19-34 2-3 4-4 7-2 17 9 36 11 55 13 40 3 80 0 119-8 5-1 6 1 6 5 2 18-4 33-16 46-42 48-82 98-127 143-14 14-29 28-41 46z"/></svg>