<svg version="1.1" xmlns="http://www.w3.org/2000/svg" xmlns:xlink="http://www.w3.org/1999/xlink" id="social-500px" viewBox="0 0 369 512.5"><path d="M262 221.25c10 0 17 3 23 10s9 14 9 23-3 18-8 24-13 9-23 9c-6 0-10-1-15-3s-10-4-14-7-9-6-13-10-8-8-11-12l11-11s8-8 12-11 9-7 14-9 10-3 15-3zm-111 23l11 11c-3 4-6 8-10 12s-9 7-13 10-9 5-14 7-10 3-15 3c-10 0-17-3-23-9s-8-14-8-23 3-17 8-24 13-10 22-10c5 0 10 1 15 3s9 6 14 9 9 7 13 11zm182-172c20 0 36 16 36 36v296c0 20-16 36-36 36H36c-20 0-36-16-36-36v-296c0-20 16-36 36-36h297zm-7 210c3-9 5-19 5-29s-2-19-5-28-7-17-13-23-14-11-22-15-17-6-28-6c-8 0-17 1-24 4s-14 7-20 11-12 9-17 15-11 12-16 18c-5-6-11-12-16-18s-11-11-17-15-13-8-20-11-15-4-24-4c-11 0-21 2-29 6s-15 9-21 15-10 14-13 23-5 19-5 29 2 20 5 29 8 17 14 23 13 11 21 15 18 6 29 6c9 0 17-1 24-4s13-5 19-9 12-10 17-15l16-16c5 6 10 11 16 16s12 11 18 15 13 6 20 9 15 4 23 4c11 0 19-2 28-6s16-8 22-15 10-15 13-24z"/></svg>