<svg version="1.1" xmlns="http://www.w3.org/2000/svg" xmlns:xlink="http://www.w3.org/1999/xlink" id="social-joomla" viewBox="0 0 358.0822 512.5"><path d="M340 350.25c29 24 22 67-13 81-2 1-3 2-5 3h-24c-17-7-31-18-35-38-31 7-59 1-81-22 12-12 23-22 33-32 9 3 18 7 27 7 12 0 21-8 25-19 4-12 1-22-8-31-24-24-46-47-70-71-2-2-6-4-8-6 12-13 23-25 36-39 12 13 22 25 33 36 12 12 22 25 35 36 25 23 38 49 32 82 8 4 17 8 23 13zm-128-88c14 12 25 23 36 33-28 28-54 56-80 82-17 17-39 24-63 21-8-1-11 1-14 8-5 15-17 22-31 28H38c-21-7-33-21-38-42v-10c4-21 15-36 37-42-5-30 1-56 23-77l35 35c-1 1-3 3-4 5-9 13-8 29 4 39s27 11 39-1c24-23 48-47 72-71 3-3 5-6 6-8zm-105-42c29-29 56-59 85-87 17-16 40-20 63-15h6c4-15 11-29 27-35 10-3 21-5 31-4 20 2 36 21 38 43 2 23-10 39-41 52 6 30-1 56-23 78l-34-34c3-5 7-11 9-17 3-12-3-25-14-31-11-7-24-6-35 4-12 11-23 23-35 35-15 14-29 29-44 44zm-69-47c-28-10-41-30-35-60 4-19 22-33 41-35 25-2 39 9 53 40 29-5 53 2 73 22l-35 35s-1-2-3-3c-13-10-29-8-40 4-10 12-9 27 2 39 23 24 47 48 70 72 3 3 4 5 7 8-12 11-22 22-35 35-11-12-23-24-34-36-12-12-23-24-35-35-25-23-37-51-29-86z"/></svg>