<svg version="1.1" xmlns="http://www.w3.org/2000/svg" xmlns:xlink="http://www.w3.org/1999/xlink" id="social-github" viewBox="0 0 399 512.5"><path d="M200 61.25c110 0 199 90 199 200 0 88-57 163-136 189-10 2-14-4-14-9v-55c0-19-6-31-13-37 44-5 91-22 91-99 0-22-7-39-20-53 2-5 9-25-2-53 0 0-17-5-55 21-16-4-33-7-50-7s-34 3-50 7c-38-26-55-21-55-21-11 28-4 48-2 53-13 14-21 31-21 53 0 77 47 94 91 99-6 5-10 14-12 27-11 5-41 14-59-17 0 0-10-19-30-20 0 0-20 0-2 12 0 0 14 6 23 29 0 0 11 39 67 27v34s-3 11-13 9c-79-26-137-101-137-189 0-110 90-200 200-200z"/></svg>