<svg version="1.1" xmlns="http://www.w3.org/2000/svg" xmlns:xlink="http://www.w3.org/1999/xlink" id="social-evernote" viewBox="0 0 335 512.5"><path d="M33 133.25c-9 0-17 2-23 5l-4 2 1-1 73-72-1 2c-3 5-5 12-5 19 0 9 1 42 1 42 0 2-2 3-4 3H33zm292-7c5 27 12 135 9 171-5 57-14 90-18 101-18 56-33 58-77 58-56 0-73-8-73-53 0-49 24-50 63-49 6 0-1 5-1 15s4 13-1 13c-11 0-27-2-27 14 0 19 10 19 34 19 30 0 35-4 35-31 0-45-13-51-30-53-19-2-38-6-47-9-23-8-22-38-22-47 0-1-2-1-2 0 0 12-1 29-7 48-2 5-3 9-3 9-7 15-20 10-39 8s-61-11-79-19c-8-4-11-7-15-16-11-22-22-95-23-105-2-13-2-20-2-20 0-8 1-17 6-24 3-3 5-6 10-8s11-4 19-4h38c8 0 15-6 15-14 0 0-1-9-1-18v-24c0-8 2-13 5-17 4-6 13-11 20-13 9-3 45-4 68 5 9 4 16 13 18 24 13 0 36 0 55 2 24 3 42 7 51 10s18 11 21 27zm-76 119c10 0 19 3 27 6 0-11-2-28-20-29-16-1-21 13-22 24 5-1 10-1 15-1z"/></svg>