<svg version="1.1" xmlns="http://www.w3.org/2000/svg" xmlns:xlink="http://www.w3.org/1999/xlink" id="social-deviant-art" viewBox="0 0 369 512.5"><path d="M166 229.25c9 19 45 93 45 93l129-35v118c0 1-1 1-2 2s-2 2-3 2H32c-1 0-2-1-3-2s-1-1-1-2v-31l169-48-48-101c82-18 123-11 165 23 5 5 3 8 0 9l-67 16-25-50c-19-3-46 2-56 6zm169-129c1 0 2 1 3 1 1 1 2 2 2 3v105l-1-1c-87-38-186-21-206-15 0-1-15-33-15-33H62l20 46c-23 7-48 25-54 30v-132c0-1 1-2 2-3 1 0 1-1 2-1h303zm-267 217c-13 3-12-6-12-6-3-55 33-71 41-73l31 63s-47 13-60 16zm270-245c17 0 31 14 31 31v306c0 17-14 31-31 31H31c-17 0-31-14-31-31v-306c0-17 14-31 31-31h307zm12 333v-301c0-8-7-14-15-14H32c-8 0-14 6-14 14v301c0 8 6 14 14 14h303c8 0 15-6 15-14z"/></svg>