<svg version="1.1" xmlns="http://www.w3.org/2000/svg" xmlns:xlink="http://www.w3.org/1999/xlink" id="social-android" viewBox="0 0 338 512.5"><path d="M223 93.25c34 17 57 51 57 89H58c0-38 23-72 57-89l-18-32c-1-2 0-3 2-4s3-1 4 1l18 32c15-6 31-10 48-10s33 4 48 10l18-32c1-2 2-2 4-1s3 2 2 4zm-105 48c5 0 10-4 10-9s-5-9-10-9-9 4-9 9 4 9 9 9zm102 0c5 0 9-4 9-9s-4-9-9-9-10 4-10 9 5 9 10 9zm118 69v103c0 14-11 25-25 25s-24-11-24-25v-103c0-14 10-25 24-25s25 11 25 25zm-59-20v160c0 10-5 18-13 23-4 2-8 3-13 3h-18v55c0 14-11 25-25 25-2 0-3-1-5-1-11-2-19-12-19-24v-55h-34v55c0 12-8 22-19 24-2 0-3 1-5 1-12 0-22-9-24-20 0-2-1-3-1-5v-55H85c-10 0-19-5-23-14-2-4-3-8-3-12v-160h220zm-254-5c14 0 24 11 24 25v108c-2 11-12 20-24 20-5 0-10-1-14-4-7-4-11-12-11-21v-103c0-14 11-25 25-25z"/></svg>