<svg version="1.1" xmlns="http://www.w3.org/2000/svg" xmlns:xlink="http://www.w3.org/1999/xlink" id="social-game-center" viewBox="0 0 369 512.5"><path d="M333 72.25c20 0 36 16 36 36v296c0 20-16 36-36 36H36c-20 0-36-16-36-36v-296c0-20 16-36 36-36h297zm-118 26c-55 0-99 44-99 99 0 36 20 68 49 85 14-28 43-47 77-47 20 0 39 7 54 19 11-16 18-36 18-57 0-55-44-99-99-99zm-185 142c0 41 22 77 54 98 9-22 31-36 56-36 6 0 11 0 17 2 1-4 3-7 4-11-33-19-56-55-56-96 0-28 11-53 28-72-58 7-103 55-103 115zm110 175c29 0 52-23 52-52s-23-52-52-52-52 23-52 52 23 52 52 52zm102-17c42 0 77-34 77-76s-35-77-77-77c-38 0-69 27-75 63 20 10 34 31 34 55 0 7-2 14-4 21 13 9 28 14 45 14z"/></svg>