<svg version="1.1" xmlns="http://www.w3.org/2000/svg" xmlns:xlink="http://www.w3.org/1999/xlink" id="social-foursquare" viewBox="0 0 415.25 512.5"><path d="M137.25 209.25l67 67 155-154c3-3 6-4 10-4s6 1 9 4l33 32c5 5 5 14 0 19l-197 197c-3 3-6 4-10 4h-1c-3 0-6-2-8-4l-110-110c-5-5-5-14 0-19l33-32c3-3 5-4 9-4s7 1 10 4zm262 12v1c19 19 19 49 0 68l-158 159c-19 19-50 19-69 0l-158-159c-19-19-19-49 0-68l158-159c19-19 50-19 69 0l72 72-108 107-50-50c-7-7-17-12-27-12s-20 5-27 12l-32 32c-7 7-11 17-11 27s4 20 11 27l109 109c5 5 11 8 18 10l2 1h7c10 0 20-4 27-11z"/></svg>