<svg version="1.1" xmlns="http://www.w3.org/2000/svg" xmlns:xlink="http://www.w3.org/1999/xlink" id="social-amazon" viewBox="0 0 377 512.5"><path d="M199 184.25h7c1 0 1-1 3-1-1-10 0-21-2-31-2-12-11-20-24-22-20-3-41 8-46 29-2 7-6 9-13 8-13-2-26-3-39-5-9-1-11-4-9-13 6-27 22-47 47-58 38-17 75-18 113-1 25 11 38 31 39 58 1 35 2 69 1 104 0 19 4 36 17 51 5 6 5 10-1 15-11 9-22 20-33 29-6 5-12 5-17-1-9-9-16-18-25-27-5 5-11 9-17 14-21 17-45 22-70 19-39-4-62-30-63-70-1-44 22-74 66-87 21-6 44-9 66-11zm-1 101c13-20 10-41 10-64-11 1-22 2-33 4-26 5-40 23-38 50 1 20 15 32 34 29 12-2 21-9 27-19zm120 78c6-2 11 0 14 5s2 10-3 14c-7 5-15 10-22 14-41 24-85 37-126 38-50 0-88-14-123-38-19-13-35-28-53-42-5-4-6-9-3-13s7-5 13-2c18 9 36 19 54 28 28 14 57 25 89 28 26 2 52 0 77-5 27-5 53-14 78-25 2-1 3-1 5-2zm39-39c18 2 21 6 19 24-2 19-9 35-22 49-2 2-3 4-5 4-3 0-7 1-9-1s-3-6-2-9c2-8 5-15 7-23 1-4 2-9 3-13s0-6-4-6h-10c-9 1-17 2-26 3-5 1-8 0-10-4-2-5 0-9 4-12 17-12 35-14 55-12z"/></svg>