<svg version="1.1" xmlns="http://www.w3.org/2000/svg" xmlns:xlink="http://www.w3.org/1999/xlink" id="social-digg" viewBox="0 0 436 512.5"><path d="M436 195.25v173c0 4-1 6-6 6H324c-4 0-5-1-5-5v-23c0-4 1-5 5-5h62c4 0 5-1 5-5v-16h-67c-4 0-5-2-5-6v-120c0-4 1-5 5-5h111c0 2 1 4 1 6zm-49 92c3 0 4-2 4-5v-60h-25c-1 0-2 3-2 4v57c0 3 1 4 4 4h19zm-87-98c4 0 5 1 5 5v180H194c-4 0-5-1-5-5v-28h67c4 0 5-1 5-5v-11s-1-6-6-6c-20 0-40 1-61 1-4 0-5-2-5-6v-120c0-4 1-5 5-5h106zm-39 95v-59c0-1-2-3-3-3h-25c0 21 1 41 1 62 0 1 1 3 2 3h22c1 0 3-2 3-3zm-189-141v-5h44v193H5c-4 0-5-1-5-5v-132c0-4 1-5 5-5h61c7 0 6 1 6-6v-40zm-5 155c4 0 5-1 5-5v-71H45v74c0 1 2 2 3 2h19zm104-109c3 0 4 0 4 3v139h-40c-4 0-4-1-4-5v-132c0-4 0-5 4-5h36zm-37-17c-1 0-3-2-3-3v-31h44v30c0 3 0 4-3 4h-38z"/></svg>