<svg version="1.1" xmlns="http://www.w3.org/2000/svg" xmlns:xlink="http://www.w3.org/1999/xlink" id="social-squidoo" viewBox="0 0 425.2725 512.5"><path d="M420.272 339.25c6 21 7 44 0 65-15 44-45 72-92 78-30 4-56-5-77-28-17-19-26-41-28-66 0-4 0-8-1-12-4-21-18-30-39-27-24 3-47 8-71 7-13 0-26-4-38-10-19-10-28-27-31-48s0-42 4-63c2-8 3-16 4-25 1-17-8-29-21-39 1-1 3 0 4 0 23 3 39 23 38 46-1 22-2 43 3 65 1 4 2 8 3 11 4 12 15 14 26 15 20 1 40-3 60-6 10-2 18-3 29-5-9-6-17-11-25-16-40-24-65-57-73-104-1-9-4-17-6-26-5-26-21-41-47-45-13-2-25-1-38 1-1 0-3 1-4 0-1-2 1-2 2-3 24-12 49-15 75-8 14 4 22 15 28 27 6 13 9 27 13 41 1 4 3 8 4 12 6 20 19 35 38 44s39 15 60 18c2 0 4 2 4-2-1-11-1-22-2-33-2-21-14-35-32-45-13-8-26-17-38-27-30-27-42-60-35-100v-2h3c-1 24 5 45 23 63 10 10 22 15 34 21 32 14 58 35 77 64 9 14 13 29 16 44 0 1 1 2 1 4 7-13 18-23 26-34 14-20 12-37-4-55-12-13-28-21-44-28-2-1-5-2-7-3-21-8-31-25-29-48 0-3 0-5 2-8 1 5 2 9 3 14 4 17 13 27 30 31 25 6 50 16 69 34 12 11 20 23 23 39 2 14 0 26-6 38-4 9-10 18-14 27-5 10-4 20 0 30 3 6 7 9 14 9 41 2 75 28 86 68z"/></svg>