<svg version="1.1" xmlns="http://www.w3.org/2000/svg" xmlns:xlink="http://www.w3.org/1999/xlink" id="social-behance" viewBox="0 0 365 512.5"><path d="M255 288.25c6 0 11 1 15 5s6 11 6 14h-45c2-6 7-19 24-19zm-115 24c1 0 14 0 14 18 0 15-9 18-16 18H97v-36h43zm191-240c16 0 29 10 34 24v320c-4 12-14 21-26 24H27c-13-3-23-13-27-25v-318c4-15 18-25 34-25h297zm-111 156v19c0 1 1 2 2 2h64c1 0 3-1 3-2v-19c0-1-2-3-3-3h-64c-1 0-2 2-2 3zm-27 105c0-1 0-20-11-32-3-3-6-6-10-7 7-4 15-12 15-29 0-27-17-43-46-43H61c-1 0-3 1-3 2v155c0 1 2 2 3 2h81c3 0 15 0 27-6 11-6 24-18 24-42zm119-2c0-1 4-33-14-53-10-11-24-17-42-17-32 0-48 17-55 31-8 15-7 31-7 31 0 1-2 26 15 44 11 12 26 18 46 18h3c9 0 53-2 53-44 0-1-1-3-2-3h-28c-1 0-2 0-2 1-1 1 0 1 0 2 0 0 0 4-4 8s-10 6-19 6c-2 0-9-1-14-4-6-4-9-10-10-18h77c1 0 3-1 3-2zm-164-64c0 15-5 16-11 16H97v-30h43s8 1 8 14z"/></svg>