<svg version="1.1" xmlns="http://www.w3.org/2000/svg" xmlns:xlink="http://www.w3.org/1999/xlink" id="social-treehouse" viewBox="0 0 394 512.5"><path d="M193 204.25c-24 18-47 38-74 52-4 2-8 4-13 5-12 3-20 14-20 27 0 12 9 24 21 27s25-2 31-13c7-15 20-25 33-34 5-4 7-3 11 2 4-9 9-18 13-27 1 1 1 1 1 2-7 25-14 52-22 77-2 6-5 10-10 13-14 9-18 28-9 43 9 14 27 19 42 11s21-26 14-41c-3-5-3-11-2-16 4-14 6-28 14-41 3-6 7-11 13-15 7-4 11-3 16 3 6 7 9 15 8 25-1 13 7 25 19 29s25-1 32-11c7-11 7-24-2-34-10-12-21-23-30-35-16-21-17-43-4-66 7-12 15-25 22-38 6-11 15-21 26-27 10-5 19-6 29 0 6 4 12 7 19 11 15 9 23 22 23 39v168c0 17-8 30-22 38-51 29-101 58-152 86-15 8-30 8-45 0-51-29-102-57-153-86-14-8-22-21-22-37v-170c0-16 7-29 21-37 51-29 103-58 155-87 13-7 28-7 42 0 8 4 15 8 23 12 6 3 8 9 9 16 1 12-1 23-7 33-7 12-14 25-21 37-14 22-33 36-59 40-16 3-33 1-49-1-12-1-23 5-27 16s0 24 10 30 23 4 31-5c5-6 13-5 20-6 5-1 10-2 15-2 2 0 3 0 5-1 8-4 16-9 24-13z"/></svg>