<svg version="1.1" xmlns="http://www.w3.org/2000/svg" xmlns:xlink="http://www.w3.org/1999/xlink" id="social-yelp" viewBox="0 0 344.16 512.5"><path d="M212.16 315.25c7-7 17-4 17-4l101 32s14 2 14 12c0 7-4 15-4 15l-43 61s-7 6-15 6-17-12-17-12l-54-90s-6-13 1-20zm-5-46c-5-8 0-17 0-17l57-89s6-12 16-11c9 1 13 8 13 8l48 57s4 9 2 16-16 13-16 13l-100 29s-15 3-20-6zm-48-35c-11 3-19-6-19-6l-87-118s-12-14-6-24c4-7 12-10 12-10l84-31c4-1 8-5 20 3 8 5 9 23 9 23l1 143s-2 17-14 20zm-20 58c0 15-8 15-12 18l-105 23s-15 6-20-2c-3-6-2-18-2-18l6-73c0-5 5-9 10-12 6-4 20 1 20 1l90 46s13 6 13 17zm26 39c8 4 9 15 9 15l-2 105s1 14-8 17c-6 2-15 0-15 0l-70-23c-5-2-9-5-11-12s7-19 7-19l70-78s11-10 20-5z"/></svg>