<svg version="1.1" xmlns="http://www.w3.org/2000/svg" xmlns:xlink="http://www.w3.org/1999/xlink" id="social-hi5" viewBox="0 0 476 512.5"><path d="M459 226.25c13 16 18 36 16 57-2 24-12 47-30 62-17 14-41 23-71 23-22 0-45-4-64-15v10H0v-76h15v-66H0v-77h116v55c19-7 45-7 62 6v-9h29v-40h88v31l8-43h160c-1 27-3 55-4 82zm-232-50v32h48v-32h-48zm-32 167v-36h-16v-54c0-11-5-39-37-39-22 0-36 12-46 28v-78H20v37h15v106H20v36h83v-36h-7v-23c0-34 24-42 24-21v44h-8v36h83zm95 0v-36h-15v-90h-76v36h15v54h-15v36h91zm84 5c53 0 81-33 81-67 2-45-26-62-60-62-13 0-26 4-38 9l2-16h81l2-48H320l-17 92 44 6c6-7 13-9 18-9 13 0 19 14 18 28-1 15-10 29-23 29-8 0-18-4-13-17 4-19-7-28-24-28-26 0-35 31-24 51 10 19 40 32 75 32z"/></svg>