<svg version="1.1" xmlns="http://www.w3.org/2000/svg" xmlns:xlink="http://www.w3.org/1999/xlink" id="social-spotify" viewBox="0 0 399 512.5"><path d="M200 56.25c110 0 199 90 199 200 0 71-37 133-92 168-8-17-19-32-33-45-29-26-66-41-105-41-25 0-48 6-70 17-18 9-34 21-47 36-33-36-52-83-52-135 0-110 90-200 200-200zm94 278c4-6 3-15-3-19-36-25-77-38-121-38-25 0-51 4-74 13-7 3-11 10-8 17s11 11 18 8c20-8 42-11 64-11 38 0 75 11 106 33 2 2 4 2 7 2 4 0 8-1 11-5zm29-62c4-7 3-16-4-20-45-28-96-43-149-43-29 0-58 4-86 13-8 3-13 11-10 19s11 13 19 10c25-8 51-12 77-12 47 0 93 13 133 38 2 2 5 2 8 2 5 0 9-2 12-7zm15-53c6 0 11-3 14-8 5-8 2-18-6-23-53-31-114-48-176-48-34 0-67 5-99 14-9 3-15 12-12 21s12 14 21 11c29-9 60-13 90-13 56 0 112 16 160 44 3 2 5 2 8 2zm-113 213c6 6 11 13 15 20-13 3-26 4-40 4-32 0-63-7-90-21 6-6 13-12 21-16 12-6 25-9 38-9 21 0 41 8 56 22z"/></svg>