<svg version="1.1" xmlns="http://www.w3.org/2000/svg" xmlns:xlink="http://www.w3.org/1999/xlink" id="social-instagram" viewBox="0 0 369 512.5"><path d="M276 232.25c0-14-3-28-9-40h102v215c0 20-16 36-36 36H36c-20 0-36-16-36-36v-215h102c-6 12-10 26-10 40 0 51 41 92 92 92s92-41 92-92zm57-163c20 0 36 16 36 36v72H258c-17-22-44-37-74-37s-56 15-73 37H0v-72c0-20 16-36 36-36h297zm-304 91v-72c-8 3-13 11-13 20v52h13zm22 0v-74H39v74h12zm22 0v-74H61v74h12zm22-52v-22H82v74h13v-52zm255 30v-30c0-12-10-22-22-22h-35c-12 0-22 10-22 22v30c0 12 10 22 22 22h35c12 0 22-10 22-22zm-166 175c-45 0-81-36-81-81s36-81 81-81 81 36 81 81-36 81-81 81zm0-145c-36 0-64 28-64 64s28 65 64 65 65-29 65-65-29-64-65-64z"/></svg>