<svg version="1.1" xmlns="http://www.w3.org/2000/svg" xmlns:xlink="http://www.w3.org/1999/xlink" id="social-designer-news" viewBox="0 0 369 512.5"><path d="M270 194.25h31v128h-28l-50-78 2 78h-32v-128h28l3 5 47 76zm63-122c20 0 36 16 36 36v131l-63-50h-41v34l-39-31v-1l-2-2h-36v45l-13-11c-1-3-4-5-6-8-5-7-11-12-17-16-12-7-23-10-43-10H56v136l143 115H36c-20 0-36-16-36-36v-296c0-20 16-36 36-36h297zm-196 125c1 0 4 1 5 2s3 1 4 2 3 1 4 2 3 2 4 3c1 0 0 1 1 1l2 2 2 2 1 1 2 2c1 1 2 3 3 4 8 11 12 24 12 40 0 39-24 64-60 64H66v-128h46c11 0 18 1 25 3zm7 62c0-23-11-36-31-36H99v70h14c20 0 31-12 31-34z"/></svg>