<svg version="1.1" xmlns="http://www.w3.org/2000/svg" xmlns:xlink="http://www.w3.org/1999/xlink" id="social-stumbleupon" viewBox="0 0 399 512.5"><path d="M357 134.25c26 34 42 76 42 122 0 110-89 200-199 200-78 0-145-44-178-109h87c41 0 70-22 70-58 0-76-87-45-87-72 0-13 10-18 29-18h61c17 0 36 4 36 22v60c0 44 35 66 70 66 36 0 69-22 69-66v-147zm-157-78c42 0 80 13 112 35v191c0 13-11 24-24 24s-24-11-24-24v-57c0-46-24-65-54-65h-98c-36 0-65 23-65 59 0 18 8 45 45 52 30 5 42 4 42 20s-17 15-40 15H6c-4-16-6-33-6-50 0-110 90-200 200-200z"/></svg>