<svg version="1.1" xmlns="http://www.w3.org/2000/svg" xmlns:xlink="http://www.w3.org/1999/xlink" id="social-steam" viewBox="0 0 497 512.5"><path d="M466 210.25c0 20-16 36-36 36s-37-16-37-36 17-36 37-36 36 16 36 36zm-37-68c37 0 68 31 68 68s-31 67-68 67l-64 47c-2 25-24 46-50 46-24 0-44-17-49-40l-190-76c-8 4-17 7-26 7-28 0-50-23-50-51s22-50 50-50c24 0 44 17 49 40l190 76c8-4 17-7 26-7h5l42-60c0-37 30-67 67-67zm0 23c-25 0-45 20-45 45s20 45 45 45 45-20 45-45-20-45-45-45zm-379 8c-20 0-37 17-37 37s17 37 37 37c3 0 5 1 8 0l-15-7c-14-6-22-23-16-38s23-21 38-16l18 7c-6-12-19-20-33-20zm265 109c-3 0-5 0-8 1l15 6c15 6 23 24 17 39s-24 22-39 16c-6-2-12-5-18-7 6 12 19 19 33 19 20 0 37-17 37-37s-17-37-37-37z"/></svg>