<svg version="1.1" xmlns="http://www.w3.org/2000/svg" xmlns:xlink="http://www.w3.org/1999/xlink" id="social-lastfm" viewBox="0 0 417 512.5"><path d="M354 238.25c41 10 63 29 63 68 0 48-40 66-99 66-83 0-112-38-127-84l-15-48c-11-35-25-62-67-62-29 0-59 21-59 80 0 46 24 75 57 75 37 0 62-28 62-28l15 42s-26 25-80 25c-67 0-104-39-104-112 0-75 37-120 107-120 64 0 96 23 116 85l16 48c11 35 32 60 80 60 32 0 49-7 49-25 0-14-8-23-32-29l-33-8c-40-10-55-31-55-63 0-52 42-68 85-68 49 0 78 18 82 61l-48 6c-2-21-14-30-37-30-21 0-34 10-34 26 0 14 6 23 27 28z"/></svg>