<svg version="1.1" xmlns="http://www.w3.org/2000/svg" xmlns:xlink="http://www.w3.org/1999/xlink" id="social-vimeo" viewBox="0 0 369 512.5"><path d="M333 72.25c20 0 36 15 36 35v298c0 20-16 35-36 35H36c-20 0-36-15-36-35v-298c0-20 16-35 36-35h297zm-24 117c1-7 2-15 0-22-1-3-2-6-4-8-9-11-29-11-42-9-11 2-48 17-60 55h6c14 0 22 2 25 12 1 4 2 8 1 14-1 10-6 20-12 31-7 12-19 37-35 20-2-2-4-6-5-6-10-15-9-42-12-59-2-11-4-26-8-37 0-1 0-5-1-5-4-10-11-17-18-19-9-3-22 2-29 6-22 13-39 31-59 46v1c5 1 4 2 5 4 2 3 4 5 8 6 13 2 25-11 34 3 1 2 2 3 3 5h-1l1 1v-1 1c3 7 4 15 7 22 5 13 8 26 12 41 4 16 8 37 17 52 5 9 11 16 19 19 11 5 28-2 36-7 23-13 40-32 55-52 35-46 54-99 57-114z"/></svg>