<svg version="1.1" xmlns="http://www.w3.org/2000/svg" xmlns:xlink="http://www.w3.org/1999/xlink" id="social-reddit" viewBox="0 0 458 512.5"><path d="M458 251.25c0 18-10 35-25 45 1 5 2 10 2 15 0 76-92 138-206 138s-206-62-206-138c0-5 0-11 1-16-15-10-24-26-24-44 0-29 24-53 53-53 13 0 24 5 34 13 36-23 83-37 136-38l37-105 89 22c6-16 22-27 40-27 24 0 43 19 43 43s-19 43-43 43-43-19-43-43l-75-18-31 85c50 2 97 16 131 38h1c10-8 21-13 34-13 29 0 52 24 52 53zm-159 68c18 0 32-14 32-32s-14-33-32-33-33 15-33 33 15 32 33 32zm6 56c3-3 3-9 0-12s-9-3-12 0c0 0-20 20-65 20-44 0-62-19-62-20-3-3-9-4-12-1s-4 9-1 12c1 1 22 25 75 25s76-23 77-24zm-174-88c0 18 14 32 32 32s33-14 33-32-15-33-33-33-32 15-32 33z"/></svg>