<svg version="1.1" xmlns="http://www.w3.org/2000/svg" xmlns:xlink="http://www.w3.org/1999/xlink" id="social-pinterest" viewBox="0 0 399 512.5"><path d="M200 56.25c110 0 199 90 199 200s-89 200-199 200c-20 0-39-3-57-8 8-12 16-28 20-43 2-9 14-55 14-55 7 13 27 25 49 25 64 0 108-59 108-137 0-59-51-115-127-115-95 0-142 68-142 125 0 34 13 66 41 77 5 2 9 0 10-5 1-4 3-13 4-17 1-5 1-7-3-11-8-9-13-22-13-39 0-50 37-95 98-95 54 0 83 32 83 76 0 58-25 106-63 106-21 0-37-17-32-38 6-25 18-53 18-71 0-16-9-30-27-30-21 0-39 22-39 52 0 19 7 31 7 31s-22 93-26 109c-4 15-4 32-3 46-70-31-120-101-120-183 0-110 90-200 200-200z"/></svg>