<svg version="1.1" xmlns="http://www.w3.org/2000/svg" xmlns:xlink="http://www.w3.org/1999/xlink" id="social-skillshare" viewBox="0 0 390.5845 512.5"><path d="M103.585 286.25s-20-3-44-14l275-3c-25 12-48 16-48 16h-74s-6 1-8 4-2 9-2 9v9c-11-8-18-21-24-21h-75zm-78-4c-2-1-4-2-5-4 2 1 3 2 5 4zm14-202v182c-11-6-17-11-21-13v-180c0-6 4-10 10-10h332c6 0 10 4 10 10v180c-4 3-9 7-20 13v-182h-311zm349 166c3 2 1 6 0 8s-7 17-33 34-51 27-51 27 16 51 1 89-48 48-64 48-39-12-39-34v-77c6 1 13 2 21 2 18 0 31-8 42-19s19-32 10-35-12 3-20 14c-7 9-22 17-44 9-3-1-6-3-9-5v-9s0-6 2-9 7-4 8-4h74s23-3 48-15c1-1 3-1 4-2 4-2 9-4 12-6 11-6 16-10 20-13l6-3c6-2 9-2 12 0zm-123 78c-11 11-24 19-42 19-8 0-15-1-21-2-8-2-14-4-14-4v83s-24 33-40 33-48-9-63-47 1-89 1-89-25-11-51-28c-4-2-7-5-10-7-2-2-3-3-5-4-14-12-19-21-19-23-1-2-3-6 0-8s7-2 13 0c1 1 2 1 4 2 4 2 10 7 21 13 4 2 7 5 12 7 2 1 6 2 8 3 24 11 44 14 44 14h75c6 0 13 13 24 21 3 2 6 4 9 5 22 8 37 0 44-9 8-11 11-17 20-14s1 24-10 35zm-14-148c26 0 47 20 47 46s-21 47-47 47-46-21-46-47 20-46 46-46zm-110 0c26 0 47 20 47 46s-21 47-47 47-46-21-46-47 20-46 46-46z"/></svg>