<svg version="1.1" xmlns="http://www.w3.org/2000/svg" xmlns:xlink="http://www.w3.org/1999/xlink" id="social-google-plus" viewBox="0 0 369 512.5"><path d="M57 264.25c-9-7-16-16-22-26-12-22-17-42-17-62 0-15 4-30 12-42 10-12 22-18 37-18 11 0 21 4 30 10 9 7 16 15 21 26 11 22 17 45 17 67 0 5 0 11-1 18s-4 15-9 22c-10 10-22 15-37 16-12 0-22-4-31-11zm34 84c-13 0-29 2-49 5-15 3-28 7-42 13v-99c15 15 36 23 62 23 6 0 12 0 18-1l-3 9s-2 8-2 13c0 8 1 15 5 21 3 6 7 11 11 16zm15 16c21 14 36 27 46 37 9 10 14 23 14 37v1H26c-14 0-26-12-26-26v-15c3-4 6-8 9-11 5-4 11-8 16-10s9-4 12-5c12-4 24-5 35-7 12-1 19-1 22-1h12zm237-291c14 0 26 12 26 26v314c0 14-12 26-26 26H198c2-7 3-15 3-23 0-19-5-34-13-46-9-12-18-22-30-32l-19-15c-3-3-6-6-9-10s-5-8-5-14 2-11 5-16c3-4 6-9 9-12 6-5 12-9 17-14s9-10 13-16c8-12 13-28 13-48 0-11-2-21-4-29-3-8-6-15-10-21s-8-12-12-16-9-7-12-9h34l35-20H102c-15 0-31 2-48 5-17 4-33 12-49 25-2 2-3 4-5 6v-35c0-14 12-26 26-26h317zm20 114v-29h-58v-58h-28v58h-59v29h59v58h28v-58h58z"/></svg>