<svg version="1.1" xmlns="http://www.w3.org/2000/svg" xmlns:xlink="http://www.w3.org/1999/xlink" id="social-myspace" viewBox="0 0 454 512.5"><path d="M375 261.25c-40 0-73-32-73-72s33-72 73-72 72 32 72 72-32 72-72 72zm-228-51c0-43 22-65 65-65s65 22 65 65-22 65-65 65-65-22-65-65zm-83 77c-32 0-58-27-58-59s26-58 58-58 59 26 59 58-27 59-59 59zm0 13c37 0 65 32 65 66v23c0 3-3 6-6 6H6c-3 0-6-3-6-6v-23c0-34 27-66 64-66zm148-11c41 0 71 37 71 74v25c0 4-2 7-6 7H147c-4 0-7-3-7-7v-25c0-37 31-74 72-74zm163-11c46 0 79 40 79 82v27c0 4-3 8-7 8H303c-4 0-8-4-8-8v-27c0-42 34-82 80-82z"/></svg>