<svg version="1.1" xmlns="http://www.w3.org/2000/svg" xmlns:xlink="http://www.w3.org/1999/xlink" id="social-smashing-mag" viewBox="0 0 390.8282 512.5"><path d="M173 283.25c98 37 75 98 23 98s-89-32-89-32l-30 70c21 11 43 19 56 23l-33 8c-15 4-31-6-35-21l-64-268c-4-16 6-31 21-35l77-19c-7 8-12 17-16 26 0 1-1 1-1 2-1 2-1 4-2 6 0 1-1 2-1 3-1 2-2 4-2 6v4c0 2-1 4-1 6 0 1-1 2-1 3v20s1 6 1 8v1c0 2 1 6 2 8s1 5 2 7c0 1 1 0 1 1 1 2 2 5 3 7v1c1 2 3 4 4 6 0 1 1 0 1 1 1 2 3 4 5 6v1c1 2 3 4 5 6 0 1 1 0 1 1l6 6v1c2 2 4 2 6 4 1 0 0 2 1 2 2 2 5 3 7 5l1 1c15 11 33 20 52 27zm217 68c4 15-7 31-22 35l-56 14c9-14 17-33 18-56 1-29-10-60-39-85-2-1-3-3-5-4l-1-1c-2-1-3-3-5-4l-1-1c-2-1-4-3-6-4h-1c-2-1-4-3-6-4-1 0-1-1-2-1l-6-3h-1c-2-1-5-3-8-4h-2l-6-3c-1 0-1-1-2-1l-9-3c-100-33-71-88-20-85 54 3 74 25 74 25l24-67c-2-1-5-2-7-3-1 0-1-1-2-1-2-1-3-1-5-2-1 0-1-1-2-1-2-1-5-2-7-3-1 0-1-1-2-1-1-1-3-1-4-2h-3c-1-1-3-2-4-2s-1-1-2-1c-2-1-3 0-5-1-1 0-1-1-2-1s-3-1-4-1h-2c-2 0-3-2-5-2-7-2-13-2-17-3l56-13c16-4 30 5 34 21z"/></svg>