<svg version="1.1" xmlns="http://www.w3.org/2000/svg" xmlns:xlink="http://www.w3.org/1999/xlink" id="sound" viewBox="0 0 394.0046 512.5"><path d="M175.002 234.25c12-12 32-12 44 0s12 32 0 44-32 12-44 0-12-32 0-44zm158 171v1h-1l-8 8c-4 4-11 3-15 0l-1-1-7-7-7-7c-4-4-5-11-1-16v-1h1v-1l7-7h1c64-65 64-171-1-236l-8-7-1-1v-1c-4-4-3-11 0-15l1-1 14-14c4-4 11-5 16-1l9 9c82 82 83 216 1 298zm-59-59h-1l-8 9v-1c-4 4-11 3-15 0v1l-2-1-14-15c-4-4-5-11-1-16l1-1 8-8c32-32 31-84-1-116l-8-8-1-1c-4-4-3-11 0-15l1-1 14-14 1-1c4-4 11-4 16 0l9 8v1c49 49 50 129 1 179zm-55-112c12 12 12 32 0 44s-32 12-44 0-12-32 0-44 32-12 44 0zm-57 89c4 4 3 11 0 15l-1 1-14 14v1c-4 4-12 4-17 0l-8-8-1-1c-49-49-49-129 0-179l7-8 1-1v1c4-4 12-3 16 0v-1l15 16c4 4 5 11 1 16l-9 9c-32 32-31 84 1 116l8 8 1 1zm-60 60c4 4 3 11 0 15l-1 1-14 14c-4 4-11 5-16 1l-9-9c-82-82-83-216-1-298l9-9c4-4 11-3 15 0l8 8 8 7c4 4 4 11 0 16v1h-1v1l-7 7c-64 65-65 171 0 236h1l7 7 1 1v1z"/></svg>