<svg version="1.1" xmlns="http://www.w3.org/2000/svg" xmlns:xlink="http://www.w3.org/1999/xlink" id="strikethrough" viewBox="0 0 312 512.5"><path d="M297 255.25c8 0 15 7 15 15s-7 15-15 15H15c-8 0-15-7-15-15s7-15 15-15h282zm-34 49c4 0 8 4 8 8v4c0 48-34 90-112 90-53 0-91-19-117-46-2-1-4-3-4-6 0-2 1-4 2-5l18-27c1-2 4-4 7-4s5 2 6 4c20 21 50 39 90 39 42 0 58-20 58-40 0-2-1-5-1-7v-2c0-4 4-8 8-8l1 1v-1h36zm-200-70c-8-11-12-25-12-43 0-48 41-85 105-85 45 0 82 15 108 41 2 1 3 4 3 6s-1 4-2 5l-17 25h-1v1c-1 2-3 3-6 3-2 0-4-1-5-2-23-23-55-34-85-34s-48 15-48 36c0 28 45 33 88 46 1 0 2 1 2 2s-1 3-2 3H70c-3 0-6-2-7-4z"/></svg>