<svg version="1.1" xmlns="http://www.w3.org/2000/svg" xmlns:xlink="http://www.w3.org/1999/xlink" id="subscript" viewBox="0 0 315 512.5"><path d="M313 394.25c1 1 2 3 2 4v11c0 1-1 3-2 4s-2 1-3 1h-68c-1 0-2-1-2-2v-13c0-1 1-2 2-3l1-1c37-26 41-30 41-36 0-4-5-6-10-6-8 0-15 3-21 8-2 1-5 2-7 0l-7-10c-1-2-1-4 0-6l1-1c9-9 23-13 34-13 21 0 35 12 35 28 0 11-6 21-26 34h27c1 0 2 0 3 1zm-103-223c5 5 5 14 0 19l-67 66 67 67c5 5 5 14 0 19l-17 17c-5 5-14 5-19 0l-67-66-67 66c-5 5-14 5-19 0l-17-17c-5-5-5-14 0-19l67-67-67-66v-1c-5-5-5-13 0-18l17-18c5-5 14-5 19 0l67 67 67-67c5-5 14-5 19 0z"/></svg>