<svg version="1.1" xmlns="http://www.w3.org/2000/svg" xmlns:xlink="http://www.w3.org/1999/xlink" id="superscript" viewBox="0 0 315 512.5"><path d="M313 161.25c1 1 2 2 2 3v12c0 1-1 2-2 3s-2 2-3 2h-68c-1 0-2-1-2-2v-14c0-1 1-2 2-3h1c37-26 41-30 41-36 0-4-5-6-10-6-8 0-15 3-21 8-2 1-5 2-7 0l-7-11c-1-2-1-3 0-5v-1h1v-1c9-9 23-12 34-12 21 0 35 12 35 28 0 11-6 20-26 33h27c1 0 2 1 3 2zm-103 10c5 5 5 14 0 19l-67 67 67 67c5 5 5 14 0 19l-17 17c-5 5-14 5-19 0l-67-67-67 67c-5 5-14 5-19 0l-17-17c-5-5-5-14 0-19l67-67-67-67c-5-5-5-14 0-19l17-17c5-5 14-5 19 0l67 67 67-67c5-5 14-5 19 0z"/></svg>