<svg version="1.1" xmlns="http://www.w3.org/2000/svg" xmlns:xlink="http://www.w3.org/1999/xlink" id="target-two" viewBox="0 0 486 512.5"><path d="M473 243.25c7 0 13 6 13 13s-6 13-13 13h-38c-6 96-83 173-179 179v38c0 7-6 13-13 13s-13-6-13-13v-38c-96-6-172-83-178-179H13c-7 0-13-6-13-13s6-13 13-13h39c6-96 82-173 178-179v-38c0-7 6-13 13-13s13 6 13 13v38c96 6 173 83 179 179h38zm-243 154v-26c-54-6-96-48-102-102h-25c6 68 59 122 127 128zm0-256v-26c-68 6-121 60-127 128h25c6-54 48-96 102-102zm26-26v26c54 6 96 48 102 102h26c-6-68-60-122-128-128zm0 282c68-6 122-60 128-128h-26c-6 54-48 96-102 102v26z"/></svg>