<svg version="1.1" xmlns="http://www.w3.org/2000/svg" xmlns:xlink="http://www.w3.org/1999/xlink" id="telephone-accessible" viewBox="0 0 333 512.5"><path d="M12 192.25c-3-3-6-6-6-11v-56c0-5 3-12 6-16 0 0 1-3 3-5 11-11 54-45 153-45 117 0 154 48 156 50 3 4 6 11 6 16v56c0 4-1 7-4 9-4 4-9 5-14 3l-65-20c-7-2-12-9-12-16v-21c0-1 0-3-1-4 0 0-15-13-66-13s-66 13-66 13c0 1-1 3-1 4v24c0 5-3 10-6 13-2 2-4 3-6 4h-1l-65 17c-4 1-8 0-11-2zm23 108c0-6 5-11 11-11h35c6 0 11 5 11 11v13c0 6-5 11-11 11H46c-6 0-11-5-11-11v-13zm126 13c0 6-5 11-11 11h-35c-6 0-11-5-11-11v-13c0-6 5-11 11-11h35c6 0 11 5 11 11v13zm69 0c0 6-5 11-11 11h-35c-6 0-11-5-11-11v-13c0-6 5-11 11-11h35c6 0 11 5 11 11v13zm69 0c0 6-5 11-11 11h-35c-6 0-11-5-11-11v-13c0-6 5-11 11-11h35c6 0 11 5 11 11v13zm-288-54c-6 0-11-5-11-11v-13c0-6 5-11 11-11h35c6 0 11 5 11 11v13c0 6-5 11-11 11H11zm104 0H80c-6 0-11-5-11-11v-13c0-6 5-11 11-11h35c6 0 11 5 11 11v13c0 6-5 11-11 11zm69 0h-35c-6 0-11-5-11-11v-13c0-6 5-11 11-11h35c6 0 11 5 11 11v13c0 6-5 11-11 11zm69-35c6 0 11 5 11 11v13c0 6-5 11-11 11h-35c-6 0-11-5-11-11v-13c0-6 5-11 11-11h35zm69 0c6 0 11 5 11 11v13c0 6-5 11-11 11h-35c-6 0-11-5-11-11v-13c0-6 5-11 11-11h35zm-265 154c0 6-5 10-11 10H11c-6 0-11-4-11-10v-13c0-6 5-11 11-11h35c6 0 11 5 11 11v13zm23 10c-6 0-11-4-11-10v-13c0-6 5-11 11-11h35c6 0 11 5 11 11v13c0 6-5 10-11 10H80zm69 0c-6 0-11-4-11-10v-13c0-6 5-11 11-11h35c6 0 11 5 11 11v13c0 6-5 10-11 10h-35zm69 0c-6 0-11-4-11-10v-13c0-6 5-11 11-11h35c6 0 11 5 11 11v13c0 6-5 10-11 10h-35zm104-34c6 0 11 5 11 11v13c0 6-5 10-11 10h-35c-6 0-11-4-11-10v-13c0-6 5-11 11-11h35zm-41 64c6 0 11 5 11 11v13c0 6-5 11-11 11H48c-6 0-10-5-10-11v-13c0-6 4-11 10-11h233z"/></svg>