<svg version="1.1" xmlns="http://www.w3.org/2000/svg" xmlns:xlink="http://www.w3.org/1999/xlink" id="thumbnails" viewBox="0 0 332 512.5"><path d="M65 90.25c6 0 12 5 12 11v54c0 6-6 12-12 12H12c-6 0-12-6-12-12v-54c0-6 6-11 12-11h53zm128 0c6 0 12 5 12 11v54c0 6-6 12-12 12h-54c-6 0-11-6-11-12v-54c0-6 5-11 11-11h54zm139 11v54c0 6-5 12-11 12h-54c-6 0-12-6-12-12v-54c0-6 6-11 12-11h54c6 0 11 5 11 11zm-267 117c6 0 12 5 12 11v54c0 6-6 11-12 11H12c-6 0-12-5-12-11v-54c0-6 6-11 12-11h53zm128 0c6 0 12 5 12 11v54c0 6-6 11-12 11h-54c-6 0-11-5-11-11v-54c0-6 5-11 11-11h54zm128 0c6 0 11 5 11 11v54c0 6-5 11-11 11h-54c-6 0-12-5-12-11v-54c0-6 6-11 12-11h54zm-256 127c6 0 12 6 12 12v54c0 6-6 11-12 11H12c-6 0-12-5-12-11v-54c0-6 6-12 12-12h53zm128 0c6 0 12 6 12 12v54c0 6-6 11-12 11h-54c-6 0-11-5-11-11v-54c0-6 5-12 11-12h54zm128 0c6 0 11 6 11 12v54c0 6-5 11-11 11h-54c-6 0-12-5-12-11v-54c0-6 6-12 12-12h54z"/></svg>