<svg version="1.1" xmlns="http://www.w3.org/2000/svg" xmlns:xlink="http://www.w3.org/1999/xlink" id="ticket" viewBox="0 0 512 512.5"><path d="M509 172.25c4 4 4 9 0 13l-324 324c-4 4-9 4-13 0v-1l-63-62c8-12 7-28-4-39s-27-12-39-4l-63-63c-4-4-4-9 0-13l324-324c4-4 9-4 13 0l63 63c-8 12-7 28 4 39s27 12 39 4l63 63zm-71 13c4-4 4-9 0-13l-98-98c-4-4-9-4-13 0l-253 253c-4 4-4 9 0 13l98 98c4 4 9 4 13 0zm-121 79c1 0 2 1 2 2s-1 2-1 2l-1 1-39 9-9 39c0 1-2 2-3 2s-2-1-2-2l-17-35-36 4c-1 0-3 0-3-1s-1-2 0-3l27-26-17-34c0-1 0-2 1-3s2-1 3-1l34 17 26-27c1-1 2 0 3 0s1 2 1 3l-4 36z"/></svg>