<svg version="1.1" xmlns="http://www.w3.org/2000/svg" xmlns:xlink="http://www.w3.org/1999/xlink" id="torsos-female-male" viewBox="0 0 442 512.5"><path d="M140 241.25v24l-39 18c-16 8-27 25-27 44v74H15c-8 0-15-8-15-17v-71c0-7 3-13 9-16l90-41c-21-13-36-38-36-68 0-42 30-77 66-77 12 0 22 4 32 10-1 4-3 7-4 11-10 22-16 48-17 76v33zm290 68c7 3 12 12 12 21v91c0 12-9 22-19 22H128c-10 0-19-10-19-22v-91c0-9 5-18 12-21l83-38 33-15c-1-1-3-2-4-3h-45c-7 0-12-5-12-12v-33c1-46 18-87 42-112 13-14 28-23 46-26h3s2-1 3-1h12c1 0 2 1 3 1h2c18 3 34 13 47 27 24 25 40 65 41 111h1v33c0 7-6 12-13 12h-44c-1 1-2 1-3 2l34 16z"/></svg>