<svg version="1.1" xmlns="http://www.w3.org/2000/svg" xmlns:xlink="http://www.w3.org/1999/xlink" id="torsos-male-female" viewBox="0 0 420 512.5"><path d="M419 324.25c0 1 1 2 1 3v87c0 12-9 21-19 21H119c-10 0-18-9-18-21v-87c0-2 0-4 1-6 2-6 5-12 10-14l80-37 31-14c-14-8-26-22-34-38-6-12-9-25-10-40v-14c1-7 2-13 4-20 1-4 2-8 3-11 13-33 41-56 74-56 37 0 68 29 78 69 2 8 4 17 4 26 0 16-4 31-10 44-8 17-19 30-33 39l32 16 77 36c6 3 10 10 11 17zm-264-66l-54 25c-16 8-27 25-27 44v74H15c-8 0-15-8-15-17v-71c0-7 3-13 9-16l90-41-2-1H61c-5 0-10-5-10-10v-26c2-62 37-111 80-111 9 0 17 2 25 6-8 17-13 37-13 58 0 30 10 56 26 78z"/></svg>