<svg version="1.1" xmlns="http://www.w3.org/2000/svg" xmlns:xlink="http://www.w3.org/1999/xlink" id="torsos-all-female" viewBox="0 0 488 512.5"><path d="M382 303.25c4 2 7 5 9 9 2 3 3 7 3 11v82c0 11-8 20-17 20H111c-9 0-17-9-17-20v-85c1-7 5-14 11-17l74-34 29-14c-1-1-2 0-3-1h-40c-6 0-11-5-11-11v-30c1-37 12-69 30-92 14-21 36-34 60-34 22 0 42 11 56 29 20 23 33 58 34 97v30c0 6-5 11-11 11h-40c-1 0-1 1-2 1l29 14zm-263-34l-25 11c-15 7-25 24-25 42v69H14c-8 0-14-7-14-16v-66c0-7 4-13 9-15l83-39c-20-12-33-36-33-64 0-40 28-71 62-71 10 0 20 3 28 8-17 30-29 68-30 110v31zm360 26c5 2 9 8 9 15v66c0 9-6 16-14 16h-55v-69c0-18-11-35-26-42l-24-11v-31h-1c-1-42-12-80-29-110 8-5 18-9 28-9 34 0 62 32 62 72 0 28-14 52-34 64z"/></svg>