<svg version="1.1" xmlns="http://www.w3.org/2000/svg" xmlns:xlink="http://www.w3.org/1999/xlink" id="torso-business" viewBox="0 0 332 512.5"><path d="M321 309.25c7 3 11 12 11 21v91c0 12-9 22-19 22H190v-72l-20-34v-1c-1-1-2-2-4-2s-2 1-3 2l-21 35h1c0 1-1 1-1 2v70H19c-10 0-19-10-19-22v-91c0-9 5-18 12-21l83-38 32-15c-15-9-27-22-35-39-7-14-11-31-11-49 0-10 2-20 4-29 11-40 43-70 81-70 39 0 72 30 82 72 2 9 3 18 3 27 0 17-4 32-10 46-8 17-19 32-34 41l33 16zm-131-23v-2c0-2-2-4-4-4h-40c-2 0-4 2-4 4 0 1 1 1 1 2l19 35h1c1 1 1 2 3 2s3-1 4-2l20-35z"/></svg>