<svg version="1.1" xmlns="http://www.w3.org/2000/svg" xmlns:xlink="http://www.w3.org/1999/xlink" id="torsos-all" viewBox="0 0 489 512.5"><path d="M481 295.25c5 3 8 8 8 15v66c0 9-5 16-13 16h-58v-70c0-18-9-34-24-41l-54-25c-5-3-10-7-14-12 12-19 19-43 19-67 0-16-2-32-8-46 9-7 20-11 32-11 34 0 61 32 61 72 0 27-13 51-32 63zm-331-40l-56 26c-15 7-25 23-25 41v70H14c-8 0-14-7-14-16v-66c0-7 4-13 9-15l83-39c-20-12-33-36-33-64 0-40 28-72 62-72 11 0 21 4 30 10-6 14-9 30-9 47 0 25 7 49 20 68-4 4-8 7-12 10zm233 49c6 3 10 10 10 18v82c0 11-8 20-17 20H111c-9 0-17-9-17-20v-82c0-8 5-15 11-18l75-35 29-13c-13-8-25-20-32-35-6-13-10-28-10-44 0-9 2-18 4-26 10-36 39-63 73-63 35 0 64 28 73 65 2 8 3 16 3 24 0 15-3 29-9 41-7 16-18 29-31 37l31 15z"/></svg>