<svg version="1.1" xmlns="http://www.w3.org/2000/svg" xmlns:xlink="http://www.w3.org/1999/xlink" id="torsos" viewBox="0 0 420 512.5"><path d="M160 255.25l-59 28c-16 8-27 25-27 44v74H15c-8 0-15-8-15-17v-71c0-7 3-13 9-16l90-41c-21-13-36-38-36-68 0-42 30-77 66-77 12 0 22 4 32 10-6 15-9 33-9 51 0 27 7 51 21 72-4 4-8 8-13 11zm248 52c7 3 12 11 12 20v87c0 12-9 21-19 21H119c-10 0-18-9-18-21v-87c0-9 4-17 11-20l80-37 31-14c-14-8-26-22-34-38-7-14-10-29-10-46 0-10 2-19 4-28 10-39 40-67 77-67s68 29 78 69c2 8 4 17 4 26 0 16-4 31-10 44-8 17-19 30-33 39l32 16z"/></svg>