<svg version="1.1" xmlns="http://www.w3.org/2000/svg" xmlns:xlink="http://www.w3.org/1999/xlink" id="universal-access" viewBox="0 0 384 512.5"><path d="M192 64.25c106 0 192 86 192 192s-86 192-192 192-192-86-192-192 86-192 192-192zm0 333c78 0 141-63 141-141s-63-141-141-141-141 63-141 141 63 141 141 141zm-26-230c0-16 8-25 24-25s24 9 24 25-8 24-24 24-24-8-24-24zm107 80c2 2 3 4 3 7 0 6-4 10-10 10-3 0-5-1-7-3l-34-34h-1c-1 0-1-1-2-1-2 0-3 1-3 3v126c0 7-5 12-12 12s-12-5-12-12v-63c0-2-1-4-3-4s-3 2-3 4v63c0 7-5 12-12 12s-12-5-12-12v-126c0-2-1-3-3-3-1 0-2 0-3 1l-34 34c-2 2-4 3-7 3-6 0-10-4-10-10 0-3 1-5 3-7l46-46v-1c2-2 5-3 8-3h54c3 0 6 1 8 3v1z"/></svg>