<svg version="1.1" xmlns="http://www.w3.org/2000/svg" xmlns:xlink="http://www.w3.org/1999/xlink" id="unlink" viewBox="0 0 463.1563 512.5"><path d="M59 104.25c-6-6-6-14 0-20s14-6 20 0h1l49 49c6 6 6 15 0 21s-15 6-21 0zm85-19c-2-8 2-16 10-18s16 2 18 10l19 68c2 8-3 16-11 18s-16-2-18-10zm-86 117c-8-2-12-10-10-18s9-12 17-10h1l67 18c8 2 13 10 11 18s-10 12-18 10l-68-18zm347 206c6 6 5 14-1 20s-14 6-20 0l-50-49c-6-6-6-15 0-21s15-6 21 0zm-86 19c2 8-2 16-10 18s-16-2-18-10l-18-68c-2-8 2-16 10-18s16 2 18 10zm86-117c8 2 13 10 11 18s-10 12-18 10l-68-18c-8-2-13-10-11-18s10-12 18-10l68 18zm-183-45c39 39 40 101 4 141l-51 52c-40 40-105 40-145 0s-40-105 0-145l52-52c40-36 101-35 140 4zm-33 106c17-20 16-50-3-69s-50-20-70-3l-3 3-46 46c-20 20-20 53 0 73s53 20 73 0l46-46zm244-317c39 39 40 101 4 141l-52 52c-40 40-104 40-144 0s-40-105 0-145l51-51h1c40-36 101-36 140 3zm-33 107c17-20 16-51-3-70s-50-20-70-3l-3 3-46 46h-1c-20 20-20 53 0 73s53 20 73 0l47-46z"/></svg>