<svg version="1.1" xmlns="http://www.w3.org/2000/svg" xmlns:xlink="http://www.w3.org/1999/xlink" id="volume-strike" viewBox="0 0 436 512.5"><path d="M271 180.25c-4-5-4-12 0-17l1-1 16-16c5-5 14-5 19-1l10 10c43 43 53 106 31 159l-41-41c5-29-4-60-26-82v-1l-10-10zm95-93c77 77 90 194 40 285l-37-37c31-70 18-155-39-212h-1l-8-9-1-1c-4-5-4-12 0-17l17-18c5-5 13-5 18-1l10 10h1zm-123 45v77l-60-60 44-25c2-1 3-2 5-2 5 0 9 5 10 10h1zm-161 75l9-5 152 151v49h-1l1 1c0 6-5 10-11 10-2 0-4 0-6-1l-85-49-59-34H8c-4 0-8-4-8-8v-106c0-4 4-8 8-8h74zm319 196c5 5 5 13 0 18l-1 1-17 18c-5 5-13 5-18 0l-331-331c-5-5-5-13 0-18l18-18v-1c5-5 13-5 18 0z"/></svg>