<svg version="1.1" xmlns="http://www.w3.org/2000/svg" xmlns:xlink="http://www.w3.org/1999/xlink" id="volume" viewBox="0 0 436 512.5"><path d="M366 87.25c93 93 93 245 0 338l-8 9-1 1h-1c-5 4-12 4-17 0l-17-17c-5-5-5-14-1-19l1-1 9-9v1c73-74 73-193-1-267v-1l-1 1-8-9-1-1c-4-5-4-13 0-18l17-17c5-5 13-5 18-1l10 10h1zm-49 68c56 56 56 147 1 203l-10 10c-5 4-12 4-17 0l-18-18c-5-5-5-13-1-18l1-1 9-9c36-37 35-96-1-132l-10-10c-4-5-4-12 0-17l1-1 16-16v-1c5-5 14-5 19-1l10 10v1zm-85-33c5 0 9 4 10 9h1v270h-1l1 1c0 6-5 11-11 11-2 0-4-1-6-2l-85-49-59-34H8c-4 0-8-4-8-8v-105c0-4 4-8 8-8h74l40-23 105-61c2-1 3-1 5-1z"/></svg>