<svg version="1.1" xmlns="http://www.w3.org/2000/svg" xmlns:xlink="http://www.w3.org/1999/xlink" id="web" viewBox="0 0 384 512.5"><path d="M192 64.25c106 0 192 86 192 192s-86 192-192 192-192-86-192-192 86-192 192-192zm-139 217c8 44 37 81 75 101-24-28-40-63-45-101H53zm30-50c5-38 21-73 45-101-38 20-67 57-75 101h30zm84 117v-67h-33c5 25 17 48 33 67zm0-117v-67c-16 19-28 42-33 67h33zm164 0c-8-44-37-81-75-101 24 28 40 63 45 101h30zm-114 117c16-19 28-42 33-67h-33v67zm0-117h33c-5-25-17-48-33-67v67zm39 151c38-20 67-57 75-101h-30c-5 38-21 73-45 101z"/></svg>