<svg version="1.1" xmlns="http://www.w3.org/2000/svg" xmlns:xlink="http://www.w3.org/1999/xlink" id="wheelchair" viewBox="0 0 285 512.5"><path d="M152 386.25l29 29c-19 15-44 25-70 25-61 0-111-50-111-111 0-26 10-51 25-70l27 28c-8 12-13 25-13 40 0 39 33 72 72 72 15 0 29-5 41-13zm50-278c0-24 13-36 37-36s37 12 37 36-13 37-37 37-37-13-37-37zm60 125c13 0 23 10 23 23v117c0 13-10 23-23 23s-23-10-23-23v-94h-29c8 15 12 32 12 50 0 26-8 49-23 68l-29-29c8-12 12-26 12-41 0-39-32-71-71-71-15 0-29 5-41 13l-27-27c10-8 22-15 35-19l67-66-28-17-33 33h-1v1c-4 4-10 6-16 6-13 0-23-10-23-23 0-6 3-12 7-16l45-45 1-1v-1 1c4-4 10-6 16-6 3 0 6 1 9 2v-1l103 60c7 4 11 11 11 19 0 5-1 10-4 14l-1 1c-1 1-3 2-4 3l-46 46h81z"/></svg>