<svg version="1.1" xmlns="http://www.w3.org/2000/svg" xmlns:xlink="http://www.w3.org/1999/xlink" id="widget" viewBox="0 0 415 512.5"><path d="M405 222.25c6 1 10 5 10 11v46c0 6-4 10-10 11l-53 5c-3 13-8 25-15 36l34 41c4 4 3 11-1 15l-32 32c-2 2-5 3-8 3-2 0-5-1-7-3l-41-33c-11 7-23 12-36 15l-5 52c-1 6-5 10-11 10h-45c-6 0-10-4-11-10l-5-52c-13-3-26-8-37-15l-40 33c-2 2-5 3-7 3-3 0-6-1-8-3l-32-32c-4-4-5-11-1-15l34-41c-7-11-12-23-15-36l-53-5c-6-1-10-5-10-11v-46c0-6 4-10 10-11l53-5c3-13 8-25 15-36l-34-41c-4-4-3-11 1-15l32-32c2-2 5-3 8-3 2 0 5 1 7 3l40 33c11-7 24-12 37-15l5-52c1-6 5-10 11-10h45c6 0 10 4 11 10l5 52c13 3 25 8 36 15l41-33c2-2 5-3 7-3 3 0 6 1 8 3l32 32c4 4 5 11 1 15l-34 41c7 11 12 23 15 36zm-198 95c34 0 62-27 62-61s-28-61-62-61-61 27-61 61 27 61 61 61z"/></svg>