<svg version="1.1" xmlns="http://www.w3.org/2000/svg" xmlns:xlink="http://www.w3.org/1999/xlink" id="x-circle" viewBox="0 0 384 512.5"><path d="M284 306.25c2 2 2 5 0 7l-35 35c-1 1-2 2-3 2s-3-1-4-2l-50-50-50 50c-1 1-3 2-4 2s-2-1-3-2l-35-35c-1-1-2-2-2-3s1-3 2-4l50-50-50-50c-1-1-2-3-2-4s1-2 2-3l35-35c2-2 5-2 7 0l50 50 50-50c2-2 5-2 7 0l35 35c2 2 2 5 0 7l-50 50zm-92-191c-78 0-141 63-141 141s63 141 141 141 141-63 141-141-63-141-141-141zm0-51c106 0 192 86 192 192s-86 192-192 192-192-86-192-192 86-192 192-192z"/></svg>