<svg version="1.1" xmlns="http://www.w3.org/2000/svg" xmlns:xlink="http://www.w3.org/1999/xlink" id="zoom-in" viewBox="0 0 397 512.5"><path d="M233 53.25c91 0 164 74 164 164s-73 164-164 164c-26 0-51-6-73-17l-82 82v-1c-8 8-20 14-33 14-25 0-45-20-45-45 0-13 6-25 14-33h-1l80-79c-15-25-24-54-24-85 0-90 73-164 164-164zm1 263c57 0 103-45 103-102s-46-102-103-102-102 45-102 102 45 102 102 102zm61-126c4 0 7 4 7 8v32c0 4-4 8-8 8h-36v36c0 4-4 8-8 8h-32c-4 0-8-4-8-8v-36h-36c-4 0-8-4-8-8v-32c0-4 4-8 8-8h36v-36c0-4 4-8 8-8h32c4 0 8 4 8 8v36h37z"/></svg>