<svg version="1.1" id="Layer_1" xmlns="http://www.w3.org/2000/svg" xmlns:xlink="http://www.w3.org/1999/xlink" x="0px" y="0px"
	   viewBox="0 0 64 64" enable-background="new 0 0 64 64" xml:space="preserve">
<g>
	<polygon points="1.707,63.707 22,43.414 22,52 24,52 24,41 23,40 12,40 12,42 20.586,42 0.293,62.293 	"/>
	<polygon points="40,52 42,52 42,43.414 62.293,63.707 63.707,62.293 43.414,42 52,42 52,40 41,40 40,41 	"/>
	<polygon points="40,12 40,23 41,24 52,24 52,22 43.414,22 63.707,1.707 62.293,0.293 42,20.586 42,12 	"/>
	<polygon points="12,24 23,24 24,23 24,12 22,12 22,20.586 1.707,0.293 0.293,1.707 20.586,22 12,22 	"/>
</g>
</svg>
