<svg version="1.1" id="Layer_1" xmlns="http://www.w3.org/2000/svg" xmlns:xlink="http://www.w3.org/1999/xlink" x="0px" y="0px"
	   viewBox="0 0 64 64" enable-background="new 0 0 64 64" xml:space="preserve">
<g>
	<path d="M40.781,4H37V0H27v4h-3.781l-0.75,3H9v57h46V7H41.531L40.781,4z M24.781,6H29V2h6v4h4.219l1.5,6H23.281L24.781,6z M53,9v53
		H11V9h10.969l-1.25,5h22.562l-1.25-5H53z"/>
	<path d="M28,25v-2h-2v23h2V35h15.811l-3.145-5l3.145-5H28z M40.189,33H28v-6h12.189l-1.887,3L40.189,33z"/>
</g>
</svg>
