<svg version="1.1" id="Layer_1" xmlns="http://www.w3.org/2000/svg" xmlns:xlink="http://www.w3.org/1999/xlink" x="0px" y="0px"
	   viewBox="0 0 64 64" enable-background="new 0 0 64 64" xml:space="preserve">
<g>
	<path d="M8,15h14V6H12V4h-2v4h10v5H6v8H0v32h64V21H8V15z M62,51H2V23h60V51z"/>
	<rect x="4" y="28" width="4" height="2"/>
	<rect x="10" y="28" width="4" height="2"/>
	<rect x="16" y="28" width="4" height="2"/>
	<rect x="22" y="28" width="4" height="2"/>
	<rect x="28" y="28" width="4" height="2"/>
	<rect x="34" y="28" width="4" height="2"/>
	<rect x="40" y="28" width="4" height="2"/>
	<rect x="46" y="28" width="4" height="2"/>
	<rect x="52" y="28" width="4" height="2"/>
	<rect x="4" y="44" width="4" height="2"/>
	<rect x="10" y="44" width="4" height="2"/>
	<rect x="16" y="44" width="26" height="2"/>
	<rect x="50" y="44" width="4" height="2"/>
	<rect x="56" y="44" width="4" height="2"/>
	<rect x="44" y="44" width="4" height="2"/>
	<rect x="8" y="36" width="4" height="2"/>
	<rect x="14" y="36" width="4" height="2"/>
	<rect x="20" y="36" width="4" height="2"/>
	<rect x="26" y="36" width="4" height="2"/>
	<rect x="32" y="36" width="4" height="2"/>
	<rect x="38" y="36" width="4" height="2"/>
	<rect x="44" y="36" width="4" height="2"/>
	<rect x="50" y="36" width="4" height="2"/>
	<rect x="56" y="36" width="4" height="2"/>
</g>
</svg>
