<svg version="1.1" id="Layer_1" xmlns="http://www.w3.org/2000/svg" xmlns:xlink="http://www.w3.org/1999/xlink" x="0px" y="0px"
	   viewBox="0 0 64 64" enable-background="new 0 0 64 64" xml:space="preserve">
<g>
	<path d="M64,46H49.854C51.257,43.221,52,40.145,52,37c0-11.028-8.972-20-20-20s-20,8.972-20,20c0,3.145,0.743,6.221,2.146,9H0v2h64
		V46z M14,37c0-9.925,8.075-18,18-18s18,8.075,18,18c0,3.176-0.842,6.272-2.42,9H16.421C14.842,43.272,14,40.175,14,37z"/>
	<polygon points="24.293,59.146 25.707,60.634 32,54.377 38.293,60.688 39.707,59.138 32.707,52 31.293,52 	"/>
</g>
</svg>
