<svg version="1.1" id="Layer_1" xmlns="http://www.w3.org/2000/svg" xmlns:xlink="http://www.w3.org/1999/xlink" x="0px" y="0px"
	   viewBox="0 0 64 64" enable-background="new 0 0 64 64" xml:space="preserve">
<g>
	<path d="M0,34h51c3.309,0,6,2.691,6,6s-2.691,6-6,6s-6-2.691-6-6h-2c0,4.411,3.589,8,8,8s8-3.589,8-8s-3.589-8-8-8H0V34z"/>
	<path d="M0,27h56c4.411,0,8-3.589,8-8s-3.589-8-8-8s-8,3.589-8,8h2c0-3.309,2.691-6,6-6s6,2.691,6,6s-2.691,6-6,6H0V27z"/>
	<path d="M0,41h32c2.206,0,4,1.794,4,4s-1.794,4-4,4s-4-1.794-4-4h-2c0,3.309,2.691,6,6,6s6-2.691,6-6s-2.691-6-6-6H0V41z"/>
</g>
</svg>
