<svg id="Layer_1" data-name="Layer 1" xmlns="http://www.w3.org/2000/svg" viewBox="0 0 32 24">
    <g id="Page-1">
        <g id="Get-started-with-Kubio">
            <g id="email">
                <path id="Shape" class="cls-1" d="M28.74,0h-26A2.77,2.77,0,0,0,0,2.77V21.23A2.78,2.78,0,0,0,2.77,24h26a2.78,2.78,0,0,0,2.77-2.77V2.77A2.78,2.78,0,0,0,28.74,0Zm-.38,1.85L15.81,14.39,3.16,1.85Zm-26.51,19V3.14L10.74,12Zm1.3,1.3,8.9-8.89,3.12,3.09a.92.92,0,0,0,1.3,0l3-3,8.85,8.84Zm26.51-1.3L20.81,12l8.85-8.85Z" />
            </g>
        </g>
    </g>
</svg>