<svg id="Layer_1" data-name="Layer 1" xmlns="http://www.w3.org/2000/svg" viewBox="0 0 24 24">
    <g id="Page-1">
        <g id="Get-started-with-Kubio">
            <g id="facebook">
                <path id="Shape" class="cls-1" d="M3.52,24h7.82V15.47H8.53V12.66h2.81V9.14a3.53,3.53,0,0,1,3.52-3.52h3.52V8.44H15.56a1.4,1.4,0,0,0-1.4,1.4v2.82h4.09l-.47,2.81H14.16V24h6.32A3.53,3.53,0,0,0,24,20.48v-17A3.53,3.53,0,0,0,20.48,0h-17A3.53,3.53,0,0,0,0,3.52v17A3.53,3.53,0,0,0,3.52,24ZM1.41,3.52A2.1,2.1,0,0,1,3.52,1.41h17a2.1,2.1,0,0,1,2.11,2.11v17a2.1,2.1,0,0,1-2.11,2.11H15.56V16.88H19l.94-5.63H15.56V9.84h4.22V4.22H14.86A4.93,4.93,0,0,0,9.94,9.14v2.11H7.12v5.63H9.94v5.71H3.52a2.1,2.1,0,0,1-2.11-2.11Z" />
            </g>
        </g>
    </g>
</svg>