<svg id="Layer_1" data-name="Layer 1" xmlns="http://www.w3.org/2000/svg" viewBox="0 0 34 24">
    <path class="cls-1" d="M32,0H2A2,2,0,0,0,0,2V17.9a2,2,0,0,0,2,2H13.2l3.21,3.84a.68.68,0,0,0,1.05,0l3-3.83H32a2,2,0,0,0,2-2V2A2,2,0,0,0,32,0Zm.67,17.9a.67.67,0,0,1-.67.67H20.17a.68.68,0,0,0-.53.26l-2.72,3.43L14,18.81a.69.69,0,0,0-.52-.24H2a.67.67,0,0,1-.67-.67V2A.68.68,0,0,1,2,1.34H32a.68.68,0,0,1,.67.68Z" />
    <path class="cls-1" d="M11.5,8.31l-2-.51L8.44,6.06a.67.67,0,0,0-1.13,0L6.22,7.8l-2,.51a.68.68,0,0,0-.47.45.7.7,0,0,0,.12.64L5.2,11l-.13,2.07C5,14.67,7.36,13,7.88,13s2.9,1.68,2.8.09L10.55,11l1.3-1.59A.69.69,0,0,0,11.5,8.31Zm-2.14,2a.62.62,0,0,0-.15.47l.07,1.27-1.16-.47a.69.69,0,0,0-.49,0l-1.16.47.08-1.27a.67.67,0,0,0-.15-.47l-.8-1,1.21-.31c.49-.13.82-1,1.07-1.37.24.4.58,1.24,1.06,1.37l1.21.31Z" />
    <path class="cls-1" d="M20.5,8.31l-2-.51L17.44,6.06a.67.67,0,0,0-1.13,0L15.22,7.8l-2,.51a.68.68,0,0,0-.47.45.7.7,0,0,0,.12.64L14.2,11l-.13,2.07c-.1,1.61,2.29-.1,2.81-.09s2.9,1.68,2.8.09L19.55,11l1.3-1.59A.7.7,0,0,0,21,8.76.68.68,0,0,0,20.5,8.31Zm-2.15,2a.67.67,0,0,0-.15.47l.08,1.27a4.41,4.41,0,0,0-1.4-.52,4.29,4.29,0,0,0-1.41.52l.08-1.27a.67.67,0,0,0-.15-.47l-.8-1,1.21-.31c.49-.13.82-1,1.07-1.37.24.4.57,1.24,1.06,1.37l1.21.31Z" />
    <path class="cls-1" d="M29.5,8.31l-2-.51L26.44,6.06a.67.67,0,0,0-1.13,0L24.22,7.8l-2,.51A.69.69,0,0,0,21.9,9.4L23.2,11l-.13,2.07c-.1,1.61,2.29-.1,2.8-.09s2.91,1.68,2.81.09L28.55,11l1.3-1.59A.7.7,0,0,0,30,8.76.68.68,0,0,0,29.5,8.31Zm-2.15,2a.67.67,0,0,0-.15.47l.08,1.27-1.16-.47a.69.69,0,0,0-.49,0l-1.16.47.08-1.27a.67.67,0,0,0-.16-.47l-.79-1,1.21-.31c.49-.13.81-1,1.06-1.37.25.4.58,1.24,1.07,1.37l1.21.31Z" />
</svg>