<?xml version="1.0" encoding="UTF-8"?>
<svg width="175px" height="45px" viewBox="0 0 175 45" version="1.1" xmlns="http://www.w3.org/2000/svg" xmlns:xlink="http://www.w3.org/1999/xlink">
    <title>kubio logo</title>
    <g id="Page-1" stroke="none" stroke-width="1" fill="none" fill-rule="evenodd">
        <g id="Get-started-with-Kubio" transform="translate(-535.000000, -130.000000)" fill="#15192B" fill-rule="nonzero">
            <g id="kubio-logo" transform="translate(535.000000, 130.000000)">
                <path d="M0.593584058,45 C0.250556076,44.9515316 -0.00337558799,44.65636 0,44.3100539 L0,24.8363266 C0,24.4552799 0.309035609,24.1463415 0.690208498,24.1463415 L20.163484,24.1463415 C20.5087665,24.1427353 20.803609,24.3947422 20.8536585,24.7362844 C20.5485372,35.7948232 11.6556282,44.6893304 0.593584058,45 Z" id="Path"></path>
                <path d="M24.3508009,20.8536585 C24.2298223,20.8224411 24.1455852,20.7129892 24.1463415,20.5881107 L24.1463415,1.37334484 C24.1445701,1.30024745 24.1725696,1.22954466 24.2239782,1.17752017 C24.2753868,1.12549569 24.3457727,1.09663449 24.4189251,1.09756098 L43.6367547,1.09756098 C43.7616974,1.09674093 43.8712055,1.18093468 43.902439,1.3018512 C43.5814657,11.960367 35.0146259,20.527281 24.3508009,20.8536585 L24.3508009,20.8536585 Z" id="Path"></path>
                <path d="M24.4189251,43.8922141 C24.3457727,43.8931637 24.2753868,43.8642876 24.2239782,43.8122362 C24.1725696,43.7601847 24.1445701,43.6894453 24.1463415,43.6163101 L24.1463415,24.4120268 C24.1455852,24.2870837 24.2298223,24.1775751 24.3508009,24.1463415 C35.0108054,24.4726069 43.5761749,33.0380114 43.902439,43.6980594 C43.8712055,43.8190386 43.7616974,43.9032759 43.6367547,43.902439 L24.4189251,43.8922141 Z" id="Path"></path>
                <path d="M20.8536585,20.2635204 C20.8036007,20.6051756 20.5087094,20.8572659 20.1633697,20.8536585 L0.690322733,20.8536585 C0.309086756,20.8536585 0,20.5446179 0,20.1634451 L0,0.6901744 C-0.00337614667,0.343753764 0.250597545,0.0484844599 0.593682301,0 C11.653619,0.312393585 20.5449808,9.20531079 20.8536585,20.2635204 Z" id="Path"></path>
                <polygon id="Path" points="68.6621234 26.9106536 65.2926002 30.9961462 65.2926002 38.4146341 58.1707317 38.4146341 58.1707317 7.68292683 65.2926002 7.68292683 65.2926002 20.5463719 75.8736618 7.68292683 84.4061086 7.68292683 73.0249145 21.5544344 85.6097561 38.4146341 77.084207 38.4146341"></polygon>
                <path d="M107.560976,16.4634146 L107.560976,37.8661943 L101.282978,37.8661943 L101.067454,35.5055185 C99.6491692,37.3177545 97.3687891,38.4146341 94.7025521,38.4146341 C90.1835062,38.4146341 86.7073171,35.3488214 86.7073171,30.3651724 L86.7073171,16.4634146 L93.5415049,16.4634146 L93.5415049,28.8118272 C93.5415049,31.0021801 94.9319805,32.2182859 96.8960274,32.2182859 C98.7870743,32.2182859 100.765026,31.0396512 100.765026,28.8118272 L100.765026,16.4634146 L107.560976,16.4634146 Z" id="Path"></path>
                <path d="M135,26.8445219 C135,33.6644312 130.480631,38.4146341 124.980907,38.4146341 C122.199757,38.4146341 119.905308,37.2035244 118.486922,35.133818 L118.229666,37.8527071 L111.95122,37.8527071 L111.95122,5.48780488 L118.789372,5.48780488 L118.789372,17.9234942 C120.207759,16.2830861 122.31448,15.3756263 124.807085,15.3756263 C130.484108,15.3756263 135,20.0804563 135,26.8445219 Z M127.981073,26.8445219 C127.981073,23.8219828 126.048173,21.7069034 123.211401,21.7069034 C120.374628,21.7069034 118.344388,23.7801 118.344388,26.8864046 C118.344388,30.0834553 120.409392,32.0240231 123.211401,32.0240231 C126.013409,32.0240231 127.981073,29.9647875 127.981073,26.8445219 Z" id="Shape"></path>
                <path d="M139.390267,10.5816348 C139.390267,8.37455639 141.110161,6.58536585 143.23173,6.58536585 C145.353299,6.58536585 147.073171,8.37455639 147.073171,10.5816348 C147.073171,12.7887132 145.353299,14.5779275 143.23173,14.5779275 C142.21184,14.5815718 141.232704,14.1617156 140.511529,13.4114732 C139.790353,12.6612307 139.386763,11.6426314 139.390267,10.5816348 L139.390267,10.5816348 Z M146.458804,38.4146341 L140.004656,38.4146341 L140.004656,16.832033 L146.458804,16.832033 L146.458804,38.4146341 Z" id="Shape"></path>
                <path d="M150.365854,26.8902439 C150.365854,20.1083149 155.461442,15.3658537 162.439024,15.3658537 C169.416607,15.3658537 174.512195,20.0733925 174.512195,26.8902439 C174.512195,33.7070953 169.416607,38.4146341 162.439024,38.4146341 C155.461442,38.4146341 150.365854,33.6721729 150.365854,26.8902439 Z M167.41033,26.8902439 C167.41033,23.8240576 165.436011,21.7077605 162.439024,21.7077605 C159.442037,21.7077605 157.517432,23.8240576 157.517432,26.8902439 C157.517432,29.9564302 159.445588,32.0308204 162.439024,32.0308204 C165.432461,32.0308204 167.41033,29.9564302 167.41033,26.8902439 Z" id="Shape"></path>
            </g>
        </g>
    </g>
</svg>