<svg id="Layer_1" data-name="Layer 1" xmlns="http://www.w3.org/2000/svg" viewBox="0 0 24 24">
    <g id="Page-1">
        <g id="Get-started-with-Kubio">
            <g id="search-copy">
                <path id="Path" class="cls-1" d="M6.68,5.59a.86.86,0,0,0-1.22,0,6,6,0,0,0-1.7,4.83.87.87,0,0,0,.86.78h.09a.88.88,0,0,0,.78-1A4.21,4.21,0,0,1,6.68,6.82.87.87,0,0,0,6.68,5.59Z" />
                <path id="Shape" class="cls-1" d="M10.13,0A10.14,10.14,0,1,0,20.27,10.13,10.15,10.15,0,0,0,10.13,0Zm0,18.49a8.36,8.36,0,1,1,8.36-8.36A8.37,8.37,0,0,1,10.13,18.49Z" />
                <path id="Path-2" data-name="Path" class="cls-1" d="M23.75,22.53l-6.28-6.28a.86.86,0,0,0-1.22,1.22l6.28,6.28a.84.84,0,0,0,.61.25.85.85,0,0,0,.61-.25A.88.88,0,0,0,23.75,22.53Z" />
            </g>
        </g>
    </g>
</svg>