<svg version="1.1" xmlns="http://www.w3.org/2000/svg" xmlns:xlink="http://www.w3.org/1999/xlink" id="3d_rotation" viewBox="0 0 512 512"><path d="M256 0q100 0 173.5 67.5T511 234h-32q-5-59-39.5-107T352 54l-29 28-81-81 14-1zm97 252q0-57-47-57h-20v123h19q36 0 46-34 2-7 2-24v-8zm-47-81q53 0 72 47 5 12 5 34v8q0 38-21 59-22 22-57 22h-49V171h50zm-99 83q28 11 28 39 0 10-5 20-6 12-11 16-15 12-40 12-24 0-39-12t-15-35h27q0 11 7.5 18t19.5 7q28 0 28-27t-31-27h-16v-22h16q29 0 29-25t-26-25q-25 0-25 23h-28q0-17 15-32 16-13 38-13 35 0 49 27 4 8 4 20 0 23-25 36zm-47 204l29-28 81 81-14 1q-100 0-173.5-68T1 277h32q6 60 40 108t87 73z"/></svg>