<svg version="1.1" xmlns="http://www.w3.org/2000/svg" xmlns:xlink="http://www.w3.org/1999/xlink" id="add_shopping_cart" viewBox="0 0 512 512"><path d="M153 315q0 5 5 5h247v43H149q-17 0-29.5-13T107 320q0-10 5-20l29-53L64 85H21V43h70q20 42 40 85 5 9 23 47.5t28 59.5h150q75-136 82-150l37 21-82 149q-12 22-37 22H173l-19 35-1 3zm180 82q13-13 30-13t29.5 13q12.5 13 12.5 30t-12.5 29.5Q380 469 363 469t-30-12.5Q320 444 320 427t13-30zm-213.5 0q12.5-13 29.5-13t30 13q13 13 13 30t-13 29.5Q166 469 149 469t-29.5-12.5Q107 444 107 427t12.5-30zM235 192v-64h-64V85h64V21h42v64h64v43h-64v64h-42z"/></svg>