<svg version="1.1" xmlns="http://www.w3.org/2000/svg" xmlns:xlink="http://www.w3.org/1999/xlink" id="alarm_off" viewBox="0 0 512 512"><path d="M171 70l-18 15-31-30 19-15 30 30zm180 322L141 182q-34 42-34 95 0 62 43.5 106T256 427q52 0 95-35zM62 49q76 76 216.5 216T456 442l-27 27-47-47q-55 47-126 47-80 0-136-56.5T64 277q0-70 47-125l-17-17-24 20-30-31 24-19-29-29 27-27zm407 73l-27 33-98-83 27-32 98 82zm-213 6q-27 0-51 9l-33-32q42-20 84-20 80 0 136 56.5T448 277q0 44-19 84l-33-32q9-24 9-52 0-62-43.5-105.5T256 128z"/></svg>