<svg version="1.1" xmlns="http://www.w3.org/2000/svg" xmlns:xlink="http://www.w3.org/1999/xlink" id="assignment_ind" viewBox="0 0 512 512"><path d="M384 405v-30q0-29-44-47.5T256 309q-40 0-84 18.5T128 375v30h256zm-83-237q-19-19-45-19t-45 19q-19 19-19 45t19 45q19 19 45 19t45-19q19-19 19-45t-19-45zm-30-98q-6-6-15-6t-15 6q-6 6-6 15t6 15.5q6 6.5 15 6.5t15-6.5q6-6.5 6-15.5t-6-15zm134-6q17 0 30 13t13 30v298q0 17-13 30t-30 13H107q-17 0-30-13t-13-30V107q0-17 13-30t30-13h89q7-19 23-31t37-12q21 0 37 12t23 31h89z"/></svg>