<svg version="1.1" xmlns="http://www.w3.org/2000/svg" xmlns:xlink="http://www.w3.org/1999/xlink" id="av_timer" viewBox="0 0 512 512"><path d="M134 271q-6-6-6-15t6-15q6-6 15-6t15.5 6q6.5 6 6.5 15t-6.5 15q-6.5 6-15.5 6t-15-6zm244-30q6 6 6 15t-6 15q-6 6-15 6t-15.5-6q-6.5-6-6.5-15t6.5-15q6.5-6 15.5-6t15 6zM235 64h21q80 0 136 56t56 136q0 80-56 136t-136 56q-80 0-136-56T64 256q0-96 77-153v-1l145 145-30 30-116-115q-33 41-33 94 0 62 43.5 105.5T256 405q62 0 105.5-43.5T405 256q0-56-37-98t-91-50v41h-42V64zm6 314q-6-6-6-15t6-15.5q6-6.5 15-6.5t15 6.5q6 6.5 6 15.5t-6 15q-6 6-15 6t-15-6z"/></svg>