<svg version="1.1" xmlns="http://www.w3.org/2000/svg" xmlns:xlink="http://www.w3.org/1999/xlink" id="blur_on" viewBox="0 0 512 512"><path d="M276.5 190.5Q286 181 299 181t22.5 9.5Q331 200 331 213t-9.5 22.5Q312 245 299 245t-22.5-9.5Q267 226 267 213t9.5-22.5zm0 86Q286 267 299 267t22.5 9.5Q331 286 331 299t-9.5 22.5Q312 331 299 331t-22.5-9.5Q267 312 267 299t9.5-22.5zM198 369q6-6 15-6t15.5 6q6.5 6 6.5 15t-6.5 15q-6.5 6-15.5 6t-15-6q-6-6-6-15t6-15zm-7.5-178.5Q200 181 213 181t22.5 9.5Q245 200 245 213t-9.5 22.5Q226 245 213 245t-22.5-9.5Q181 226 181 213t9.5-22.5zM299 437q10 0 10 11t-10 11q-11 0-11-11t11-11zm-15.5-68q6.5-6 15.5-6t15 6q6 6 6 15t-6 15q-6 6-15 6t-15.5-6q-6.5-6-6.5-15t6.5-15zM437 299q0-11 11-11t11 11q0 10-11 10t-11-10zm-68-186q6-6 15-6t15 6q6 6 6 15t-6 15q-6 6-15 6t-15-6q-6-6-6-15t6-15zm0 85q6-6 15-6t15 6q6 6 6 15t-6 15.5q-6 6.5-15 6.5t-15-6.5q-6-6.5-6-15.5t6-15zm0 171q6-6 15-6t15 6q6 6 6 15t-6 15q-6 6-15 6t-15-6q-6-6-6-15t6-15zm0-85.5q6-6.5 15-6.5t15 6.5q6 6.5 6 15.5t-6 15q-6 6-15 6t-15-6q-6-6-6-15t6-15.5zm-178.5-7Q200 267 213 267t22.5 9.5Q245 286 245 299t-9.5 22.5Q226 331 213 331t-22.5-9.5Q181 312 181 299t9.5-22.5zm38-133.5q-6.5 6-15.5 6t-15-6q-6-6-6-15t6-15q6-6 15-6t15.5 6q6.5 6 6.5 15t-6.5 15zM213 75q-10 0-10-11t10-11q11 0 11 11t-11 11zm0 362q11 0 11 11t-11 11q-10 0-10-11t10-11zM53 299q0-11 11-11t11 11q0 10-11 10t-11-10zM299 75q-11 0-11-11t11-11q10 0 10 11t-10 11zm15 68q-6 6-15 6t-15.5-6q-6.5-6-6.5-15t6.5-15q6.5-6 15.5-6t15 6q6 6 6 15t-6 15zm145 70q0 11-11 11t-11-11q0-10 11-10t11 10zM113 113q6-6 15-6t15 6q6 6 6 15t-6 15q-6 6-15 6t-15-6q-6-6-6-15t6-15zM53 213q0-10 11-10t11 10q0 11-11 11t-11-11zm60-15q6-6 15-6t15 6q6 6 6 15t-6 15.5q-6 6.5-15 6.5t-15-6.5q-6-6.5-6-15.5t6-15zm0 171q6-6 15-6t15 6q6 6 6 15t-6 15q-6 6-15 6t-15-6q-6-6-6-15t6-15zm0-85.5q6-6.5 15-6.5t15 6.5q6 6.5 6 15.5t-6 15q-6 6-15 6t-15-6q-6-6-6-15t6-15.5z"/></svg>