<svg version="1.1" xmlns="http://www.w3.org/2000/svg" xmlns:xlink="http://www.w3.org/1999/xlink" id="blur_off" viewBox="0 0 512 512"><path d="M53 299q0-11 11-11t11 11q0 10-11 10t-11-10zm60 70q6-6 15-6t15 6q6 6 6 15t-6 15q-6 6-15 6t-15-6q-6-6-6-15t6-15zm100 68q11 0 11 11t-11 11q-10 0-10-11t10-11zM53 213q0-10 11-10t11 10q0 11-11 11t-11-11zm60 70.5q6-6.5 15-6.5t15 6.5q6 6.5 6 15.5t-6 15q-6 6-15 6t-15-6q-6-6-6-15t6-15.5zM437 299q0-11 11-11t11 11q0 10-11 10t-11-10zm-239 70q6-6 15-6t15.5 6q6.5 6 6.5 15t-6.5 15q-6.5 6-15.5 6t-15-6q-6-6-6-15t6-15zM53 112l27-27 347 347-28 27-80-81q1 2 1 6 0 9-6 15t-15 6q-9 0-15.5-6t-6.5-15q0-9 6.5-15t15.5-6q4 0 6 1l-60-60q-2 11-11 19t-21 8q-13 0-22.5-9.5T181 299q0-12 8-21t19-11l-60-60q1 2 1 6 0 9-6 15.5t-15 6.5q-9 0-15-6.5t-6-15.5q0-9 6-15t15-6l6 1-81-81zm246 325q10 0 10 11t-10 11q-11 0-11-11t11-11zm100-294q-6 6-15 6t-15-6q-6-6-6-15t6-15q6-6 15-6t15 6q6 6 6 15t-6 15zm0 85.5q-6 6.5-15 6.5t-15-6.5q-6-6.5-6-15.5t6-15q6-6 15-6t15 6q6 6 6 15t-6 15.5zm0 85.5q-6 6-15 6t-15-6q-6-6-6-15t6-15.5q6-6.5 15-6.5t15 6.5q6 6.5 6 15.5t-6 15zM228.5 143q-6.5 6-15.5 6t-15-6q-6-6-6-15t6-15q6-6 15-6t15.5 6q6.5 6 6.5 15t-6.5 15zM459 213q0 11-11 11t-11-11q0-10 11-10t11 10zM213 75q-10 0-10-11t10-11q11 0 11 11t-11 11zm86 0q-11 0-11-11t11-11q10 0 10 11t-10 11zm-5 170q-10-1-18-9t-9-18v-5q0-13 9.5-22.5T299 181q13 0 22.5 9.5T331 213q0 13-9.5 22.5T299 245h-5zm20-102q-6 6-15 6t-15.5-6q-6.5-6-6.5-15t6.5-15q6.5-6 15.5-6t15 6q6 6 6 15t-6 15z"/></svg>