<svg version="1.1" xmlns="http://www.w3.org/2000/svg" xmlns:xlink="http://www.w3.org/1999/xlink" id="blur_circular" viewBox="0 0 512 512"><path d="M283.5 283.5Q290 277 299 277t15 6.5q6 6.5 6 15.5t-6 15q-6 6-15 6t-15.5-6q-6.5-6-6.5-15t6.5-15.5zM299 352q10 0 10 11 0 10-10 10-11 0-11-10 0-11 11-11zm-163.5 24.5Q186 427 256 427t120.5-50.5Q427 326 427 256t-50.5-120.5Q326 85 256 85t-120.5 50.5Q85 186 85 256t50.5 120.5zm-30-271Q168 43 256 43t150.5 62.5Q469 168 469 256t-62.5 150.5Q344 469 256 469t-150.5-62.5Q43 344 43 256t62.5-150.5zM363 203q10 0 10 10 0 11-10 11-11 0-11-11 0-10 11-10zm0 85q10 0 10 11 0 10-10 10-11 0-11-10 0-11 11-11zm-64-128q-11 0-11-11 0-10 11-10 10 0 10 10 0 11-10 11zm-15.5 38q6.5-6 15.5-6t15 6q6 6 6 15t-6 15.5q-6 6.5-15 6.5t-15.5-6.5Q277 222 277 213t6.5-15zM213 160q-10 0-10-11 0-10 10-10 11 0 11 10 0 11-11 11zm-64 128q11 0 11 11 0 10-11 10-10 0-10-10 0-11 10-11zm64 64q11 0 11 11 0 10-11 10-10 0-10-10 0-11 10-11zm-64-149q11 0 11 10 0 11-11 11-10 0-10-11 0-10 10-10zm49 80.5q6-6.5 15-6.5t15.5 6.5Q235 290 235 299t-6.5 15q-6.5 6-15.5 6t-15-6q-6-6-6-15t6-15.5zm0-85.5q6-6 15-6t15.5 6q6.5 6 6.5 15t-6.5 15.5Q222 235 213 235t-15-6.5q-6-6.5-6-15.5t6-15z"/></svg>