<svg version="1.1" xmlns="http://www.w3.org/2000/svg" xmlns:xlink="http://www.w3.org/1999/xlink" id="blur_linear" viewBox="0 0 512 512"><path d="M292.5 356.5Q286 363 277 363t-15-6.5q-6-6.5-6-15.5t6-15q6-6 15-6t15.5 6q6.5 6 6.5 15t-6.5 15.5zm0-85.5q-6.5 6-15.5 6t-15-6q-6-6-6-15t6-15q6-6 15-6t15.5 6q6.5 6 6.5 15t-6.5 15zm0-85q-6.5 6-15.5 6t-15-6q-6-6-6-15t6-15.5q6-6.5 15-6.5t15.5 6.5Q299 162 299 171t-6.5 15zm70.5 81q-11 0-11-11t11-11q10 0 10 11t-10 11zm0-86q-11 0-11-10 0-11 11-11 10 0 10 11 0 10-10 10zM64 64h384v43H64V64zm299 288q-11 0-11-11 0-10 11-10 10 0 10 10 0 11-10 11zm-156 4.5q-6 6.5-15 6.5t-15-6.5q-6-6.5-6-15.5t6-15q6-6 15-6t15 6q6 6 6 15t-6 15.5zM129.5 279q-9.5 9-22.5 9t-22.5-9q-9.5-9-9.5-23t9.5-23q9.5-9 22.5-9t22.5 9q9.5 9 9.5 23t-9.5 23zm0-85.5Q120 203 107 203t-22.5-9.5Q75 184 75 171t9.5-22.5Q94 139 107 139t22.5 9.5Q139 158 139 171t-9.5 22.5zM64 448v-43h384v43H64zm143-262q-6 6-15 6t-15-6q-6-6-6-15t6-15.5q6-6.5 15-6.5t15 6.5q6 6.5 6 15.5t-6 15zm0 85q-6 6-15 6t-15-6q-6-6-6-15t6-15q6-6 15-6t15 6q6 6 6 15t-6 15zm-77.5 92.5Q120 373 107 373t-22.5-9.5Q75 354 75 341t9.5-22.5Q94 309 107 309t22.5 9.5Q139 328 139 341t-9.5 22.5z"/></svg>