<svg version="1.1" xmlns="http://www.w3.org/2000/svg" xmlns:xlink="http://www.w3.org/1999/xlink" id="border_right" viewBox="0 0 512 512"><path d="M235 192v-43h42v43h-42zm0-85V64h42v43h-42zm0 170v-42h42v42h-42zm85-170V64h43v43h-43zm0 341v-43h43v43h-43zm85-384h43v384h-43V64zm-85 213v-42h43v42h-43zm-85 86v-43h42v43h-42zM64 192v-43h43v43H64zm0 171v-43h43v43H64zm0-86v-42h43v42H64zm171 171v-43h42v43h-42zm-171 0v-43h43v43H64zm85-171v-42h43v42h-43zm0-170V64h43v43h-43zm-85 0V64h43v43H64zm85 341v-43h43v43h-43z"/></svg>