<svg version="1.1" xmlns="http://www.w3.org/2000/svg" xmlns:xlink="http://www.w3.org/1999/xlink" id="border_top" viewBox="0 0 512 512"><path d="M320 277v-42h43v42h-43zm85 171v-43h43v43h-43zM235 192v-43h42v43h-42zm85 256v-43h43v43h-43zm85-85v-43h43v43h-43zM64 64h384v43H64V64zm341 213v-42h43v42h-43zm0-85v-43h43v43h-43zM235 363v-43h42v43h-42zM64 192v-43h43v43H64zm0 85v-42h43v42H64zm0 171v-43h43v43H64zm0-85v-43h43v43H64zm171 85v-43h42v43h-42zm0-171v-42h42v42h-42zm-86 0v-42h43v42h-43zm0 171v-43h43v43h-43z"/></svg>