<svg version="1.1" xmlns="http://www.w3.org/2000/svg" xmlns:xlink="http://www.w3.org/1999/xlink" id="border_vertical" viewBox="0 0 512 512"><path d="M320 277v-42h43v42h-43zm0 171v-43h43v43h-43zm0-341V64h43v43h-43zm85 85v-43h43v43h-43zm0-128h43v43h-43V64zm0 213v-42h43v42h-43zm0 171v-43h43v43h-43zm-170 0V64h42v384h-42zm170-85v-43h43v43h-43zM149 107V64h43v43h-43zM64 363v-43h43v43H64zm0 85v-43h43v43H64zm0-171v-42h43v42H64zm85 0v-42h43v42h-43zm0 171v-43h43v43h-43zM64 107V64h43v43H64zm0 85v-43h43v43H64z"/></svg>