<svg version="1.1" xmlns="http://www.w3.org/2000/svg" xmlns:xlink="http://www.w3.org/1999/xlink" id="border_horizontal" viewBox="0 0 512 512"><path d="M405 448v-43h43v43h-43zm-85 0v-43h43v43h-43zm-85-85v-43h42v43h-42zm170-171v-43h43v43h-43zm0-128h43v43h-43V64zM64 277v-42h384v42H64zm171 171v-43h42v43h-42zm170-85v-43h43v43h-43zM277 64v43h-42V64h42zm0 85v43h-42v-43h42zm86-85v43h-43V64h43zm-171 0v43h-43V64h43zm-85 0v43H64V64h43zm42 384v-43h43v43h-43zm-85-85v-43h43v43H64zm43-214v43H64v-43h43zM64 448v-43h43v43H64z"/></svg>