<svg version="1.1" xmlns="http://www.w3.org/2000/svg" xmlns:xlink="http://www.w3.org/1999/xlink" id="border_left" viewBox="0 0 512 512"><path d="M320 107V64h43v43h-43zm0 170v-42h43v42h-43zm85 171v-43h43v43h-43zm0-171v-42h43v42h-43zm0-213h43v43h-43V64zm0 299v-43h43v43h-43zm-85 85v-43h43v43h-43zm85-256v-43h43v43h-43zM64 448V64h43v384H64zm85-171v-42h43v42h-43zm0-170V64h43v43h-43zm0 341v-43h43v43h-43zm86-171v-42h42v42h-42zm0-85v-43h42v43h-42zm0-85V64h42v43h-42zm0 256v-43h42v43h-42zm0 85v-43h42v43h-42z"/></svg>