<svg version="1.1" xmlns="http://www.w3.org/2000/svg" xmlns:xlink="http://www.w3.org/1999/xlink" id="border_clear" viewBox="0 0 512 512"><path d="M320 107V64h43v43h-43zm0 170v-42h43v42h-43zm0 171v-43h43v43h-43zm-85-341V64h42v43h-42zm170-43h43v43h-43V64zM235 192v-43h42v43h-42zm170 0v-43h43v43h-43zm0 256v-43h43v43h-43zm0-171v-42h43v42h-43zm0 86v-43h43v43h-43zm-170-86v-42h42v42h-42zM64 107V64h43v43H64zm0 85v-43h43v43H64zm0 85v-42h43v42H64zm0 86v-43h43v43H64zm0 85v-43h43v43H64zm171 0v-43h42v43h-42zm0-85v-43h42v43h-42zm-86 85v-43h43v43h-43zm0-171v-42h43v42h-43zm0-170V64h43v43h-43z"/></svg>