<svg version="1.1" xmlns="http://www.w3.org/2000/svg" xmlns:xlink="http://www.w3.org/1999/xlink" id="border_bottom" viewBox="0 0 512 512"><path d="M107 320v43H64v-43h43zM64 448v-43h384v43H64zm43-213v42H64v-42h43zm298-43v-43h43v43h-43zm0-128h43v43h-43V64zm-298 85v43H64v-43h43zm298 214v-43h43v43h-43zm0-86v-42h43v42h-43zM363 64v43h-43V64h43zm-86 0v43h-42V64h42zm86 171v42h-43v-42h43zm-86-86v43h-42v-43h42zM107 64v43H64V64h43zm170 171v42h-42v-42h42zM192 64v43h-43V64h43zm85 256v43h-42v-43h42zm-85-85v42h-43v-42h43z"/></svg>