<svg version="1.1" xmlns="http://www.w3.org/2000/svg" xmlns:xlink="http://www.w3.org/1999/xlink" id="cake" viewBox="0 0 512 512"><path d="M384 192q26 0 45 19t19 45v33q0 17-12.5 29.5T406 331q-17 0-29-12l-46-46-46 46q-12 12-29.5 12T226 319l-45-46-46 46q-12 12-29 12t-29.5-12.5Q64 306 64 289v-33q0-26 19-45t45-19h107v-43h42v43h107zm-30 149q22 22 52 22 22 0 42-13v98q0 9-6 15t-15 6H85q-9 0-15-6t-6-15v-98q19 13 42 13 30 0 52-22l23-23 23 23q21 21 52 21t52-21l23-23 23 23zm-98-213q-17 0-30-13t-13-30q0-11 7-22l36-63 36 63q7 11 7 22 0 17-12.5 30T256 128z"/></svg>