<svg version="1.1" xmlns="http://www.w3.org/2000/svg" xmlns:xlink="http://www.w3.org/1999/xlink" id="center_focus_weak" viewBox="0 0 512 512"><path d="M226 286q13 13 30 13t30-13q13-13 13-30t-13-30q-13-13-30-13t-30 13q-13 13-13 30t13 30zm-30-90q25-25 60-25t60 25q25 25 25 60t-25 60q-25 25-60 25t-60-25q-25-25-25-60t25-60zm209 209v-85h43v85q0 17-13 30t-30 13h-85v-43h85zm0-341q17 0 30 13t13 30v85h-43v-85h-85V64h85zm-298 43v85H64v-85q0-17 13-30t30-13h85v43h-85zm0 213v85h85v43h-85q-17 0-30-13t-13-30v-85h43z"/></svg>