<svg version="1.1" xmlns="http://www.w3.org/2000/svg" xmlns:xlink="http://www.w3.org/1999/xlink" id="color_lens" viewBox="0 0 512 512"><path d="M350.5 247q9.5 9 22.5 9t22.5-9q9.5-9 9.5-23t-9.5-23q-9.5-9-22.5-9t-22.5 9q-9.5 9-9.5 23t9.5 23zm-64-85.5Q296 171 309 171t22.5-9.5Q341 152 341 139t-9.5-22.5Q322 107 309 107t-22.5 9.5Q277 126 277 139t9.5 22.5zm-106 0Q190 171 203 171t22.5-9.5Q235 152 235 139t-9.5-22.5Q216 107 203 107t-22.5 9.5Q171 126 171 139t9.5 22.5zm-64 85.5q9.5 9 22.5 9t22.5-9q9.5-9 9.5-23t-9.5-23q-9.5-9-22.5-9t-22.5 9q-9.5 9-9.5 23t9.5 23zM256 64q79 0 135.5 50T448 235q0 44-31.5 75T341 341h-37q-14 0-23 9.5t-9 22.5q0 11 8 21t8 22q0 14-9 23t-23 9q-80 0-136-56T64 256q0-80 56-136t136-56z"/></svg>