<svg version="1.1" xmlns="http://www.w3.org/2000/svg" xmlns:xlink="http://www.w3.org/1999/xlink" id="content_cut" viewBox="0 0 512 512"><path d="M405 64h64v21L320 235l-43-43L405 64zM245 256q0 11 11 11t11-11q0-11-11-11t-11 11zM98 414.5q13 12.5 30 12.5t30-12.5q13-12.5 13-30.5t-13-30.5Q145 341 128 341t-30 12.5Q85 366 85 384t13 30.5zm0-256q13 12.5 30 12.5t30-12.5q13-12.5 13-30.5t-13-30.5Q145 85 128 85T98 97.5Q85 110 85 128t13 30.5zm108 4.5l263 264v21h-64L256 299l-50 50q7 15 7 35 0 35-25 60t-60 25q-35 0-60-25t-25-60q0-35 25-60t60-25q20 0 35 7l50-50-50-50q-15 7-35 7-35 0-60-25t-25-60q0-35 25-60t60-25q35 0 60 25t25 60q0 20-7 35z"/></svg>