<svg version="1.1" xmlns="http://www.w3.org/2000/svg" xmlns:xlink="http://www.w3.org/1999/xlink" id="control_point_duplicate" viewBox="0 0 512 512"><path d="M214.5 361.5Q258 405 320 405t105.5-43.5Q469 318 469 256t-43.5-105.5Q382 107 320 107t-105.5 43.5Q171 194 171 256t43.5 105.5zM184 120q56-56 136-56t136 56q56 56 56 136t-56 136q-56 56-136 56t-136-56q-56-56-56-136t56-136zM66 175.5Q43 212 43 256t23 80.5Q89 373 128 391v46q-56-20-92-70T0 256q0-61 36-111t92-70v46q-39 18-62 54.5zm275-4.5v64h64v42h-64v64h-42v-64h-64v-42h64v-64h42z"/></svg>