<svg version="1.1" xmlns="http://www.w3.org/2000/svg" xmlns:xlink="http://www.w3.org/1999/xlink" id="dialpad" viewBox="0 0 512 512"><path d="M226 34q13-13 30-13t30 13q13 13 13 30t-13 30q-13 13-30 13t-30-13q-13-13-13-30t13-30zm0 128q13-13 30-13t30 13q13 13 13 30t-13 30q-13 13-30 13t-30-13q-13-13-13-30t13-30zm128 0q13-13 30-13t30 13q13 13 13 30t-13 30q-13 13-30 13t-30-13q-13-13-13-30t13-30zm0 128q13-13 30-13t30 13q13 13 13 30t-13 30q-13 13-30 13t-30-13q-13-13-13-30t13-30zm-128 0q13-13 30-13t30 13q13 13 13 30t-13 30q-13 13-30 13t-30-13q-13-13-13-30t13-30zM414 94q-13 13-30 13t-30-13q-13-13-13-30t13-30q13-13 30-13t30 13q13 13 13 30t-13 30zM98 290q13-13 30-13t30 13q13 13 13 30t-13 30q-13 13-30 13t-30-13q-13-13-13-30t13-30zm0-128q13-13 30-13t30 13q13 13 13 30t-13 30q-13 13-30 13t-30-13q-13-13-13-30t13-30zm0-128q13-13 30-13t30 13q13 13 13 30t-13 30q-13 13-30 13T98 94Q85 81 85 64t13-30zm128 384q13-13 30-13t30 13q13 13 13 30t-13 30q-13 13-30 13t-30-13q-13-13-13-30t13-30z"/></svg>