<svg version="1.1" xmlns="http://www.w3.org/2000/svg" xmlns:xlink="http://www.w3.org/1999/xlink" id="directions_bike" viewBox="0 0 512 512"><path d="M352.5 415.5Q374 437 405 437t53-21.5q22-21.5 22-52.5t-22-53q-22-22-53-22t-52.5 22Q331 332 331 363t21.5 52.5zm-23-128.5q30.5-31 75.5-31t76 31q31 31 31 76t-31 75.5Q450 469 405 469t-75.5-30.5Q299 408 299 363t30.5-76zM230 224l47 49v132h-42V299l-69-60q-12-8-12-30 0-18 12-30l60-60q8-12 30-12 19 0 34 12l41 41q32 32 76 32v43q-63 0-108-45l-17-17-52 51zM54 415.5Q76 437 107 437t52.5-21.5Q181 394 181 363t-21.5-53Q138 288 107 288t-53 22q-22 22-22 53t22 52.5zM31 287q31-31 76-31t75.5 31q30.5 31 30.5 76t-30.5 75.5Q152 469 107 469t-76-30.5Q0 408 0 363t31-76zm329.5-182.5Q348 117 331 117t-30-12.5Q288 92 288 75t13-30q13-13 30-13t29.5 13Q373 58 373 75t-12.5 29.5z"/></svg>