<svg version="1.1" xmlns="http://www.w3.org/2000/svg" xmlns:xlink="http://www.w3.org/1999/xlink" id="directions_subway" viewBox="0 0 512 512"><path d="M384 235V128H277v107h107zm-55 118.5q9 9.5 23 9.5t23-9.5q9-9.5 9-22.5t-9-22.5q-9-9.5-23-9.5t-23 9.5q-9 9.5-9 22.5t9 22.5zM235 235V128H128v107h107zm-98 118.5q9 9.5 23 9.5t23-9.5q9-9.5 9-22.5t-9-22.5q-9-9.5-23-9.5t-23 9.5q-9 9.5-9 22.5t9 22.5zM129 60q44-17 127-17t127 17q44 17 44 68v203q0 31-22 52.5T352 405l32 32v11H128v-11l32-32q-31 0-53-21.5T85 331V128q0-51 44-68z"/></svg>