<svg version="1.1" xmlns="http://www.w3.org/2000/svg" xmlns:xlink="http://www.w3.org/1999/xlink" id="directions_bus" viewBox="0 0 512 512"><path d="M384 235V128H128v107h256zm-55 118.5q9 9.5 23 9.5t23-9.5q9-9.5 9-22.5t-9-22.5q-9-9.5-23-9.5t-23 9.5q-9 9.5-9 22.5t9 22.5zm-192 0q9 9.5 23 9.5t23-9.5q9-9.5 9-22.5t-9-22.5q-9-9.5-23-9.5t-23 9.5q-9 9.5-9 22.5t9 22.5zM85 341V128q0-51 44-68t127-17q83 0 127 17t44 68v213q0 28-22 48v38q0 9-6 15t-15 6h-21q-9 0-15.5-6t-6.5-15v-22H171v22q0 9-6.5 15t-15.5 6h-21q-9 0-15-6t-6-15v-38q-22-20-22-48z"/></svg>