<svg version="1.1" xmlns="http://www.w3.org/2000/svg" xmlns:xlink="http://www.w3.org/1999/xlink" id="directions_car" viewBox="0 0 512 512"><path d="M107 235h298l-32-96H139l-32 96zm243.5 96.5Q360 341 373 341t22.5-9.5Q405 322 405 309t-9.5-22.5Q386 277 373 277t-22.5 9.5Q341 296 341 309t9.5 22.5zm-234 0Q126 341 139 341t22.5-9.5Q171 322 171 309t-9.5-22.5Q152 277 139 277t-22.5 9.5Q107 296 107 309t9.5 22.5zM404 128l44 128v171q0 9-6 15t-15 6h-22q-9 0-15-6t-6-15v-22H128v22q0 9-6 15t-15 6H85q-9 0-15-6t-6-15V256l44-128q6-21 31-21h234q25 0 31 21z"/></svg>