<svg version="1.1" xmlns="http://www.w3.org/2000/svg" xmlns:xlink="http://www.w3.org/1999/xlink" id="dns" viewBox="0 0 512 512"><path d="M119.5 179q12.5 13 29.5 13t30-13q13-13 13-30t-13-29.5Q166 107 149 107t-29.5 12.5Q107 132 107 149t12.5 30zM427 64q9 0 15 6t6 15v128q0 9-6 15.5t-15 6.5H85q-9 0-15-6.5T64 213V85q0-9 6-15t15-6h342zM119.5 392.5Q132 405 149 405t30-12.5q13-12.5 13-29.5t-13-30q-13-13-30-13t-29.5 13Q107 346 107 363t12.5 29.5zM427 277q9 0 15 6.5t6 15.5v128q0 9-6 15t-15 6H85q-9 0-15-6t-6-15V299q0-9 6-15.5t15-6.5h342z"/></svg>