<svg version="1.1" xmlns="http://www.w3.org/2000/svg" xmlns:xlink="http://www.w3.org/1999/xlink" id="face" viewBox="0 0 512 512"><path d="M135.5 376.5Q186 427 256 427t120.5-50.5Q427 326 427 256q0-22-7-48-19 5-48 5-110 0-174-90-33 80-112 115-1 6-1 18 0 70 50.5 120.5zm-30-271Q168 43 256 43t150.5 62.5Q469 168 469 256t-62.5 150.5Q344 469 256 469t-150.5-62.5Q43 344 43 256t62.5-150.5zm195.5 153q8-7.5 19-7.5t19 7.5q8 7.5 8 18.5t-8 19q-8 8-19 8t-19-8q-8-8-8-19t8-18.5zm-128 0q8-7.5 19-7.5t19 7.5q8 7.5 8 18.5t-8 19q-8 8-19 8t-19-8q-8-8-8-19t8-18.5z"/></svg>