<svg version="1.1" xmlns="http://www.w3.org/2000/svg" xmlns:xlink="http://www.w3.org/1999/xlink" id="favorite_border" viewBox="0 0 512 512"><path d="M258 396q48-43 71-65t50-52q27-30 37.5-53t10.5-45q0-32-21.5-53T352 107q-25 0-46.5 14T276 157h-40q-8-22-29.5-36T160 107q-32 0-53.5 21T85 181q0 22 10.5 45t37.5 53q27 30 50 52t71 65l2 2 2-2zm94-332q50 0 83.5 34t33.5 83q0 29-11 56.5T417.5 299Q388 333 364 356t-77 71l-31 28-31-27q-69-62-99.5-93T69 262q-26-42-26-81 0-49 33.5-83T160 64q58 0 96 45 38-45 96-45z"/></svg>