<svg version="1.1" xmlns="http://www.w3.org/2000/svg" xmlns:xlink="http://www.w3.org/1999/xlink" id="filter_8" viewBox="0 0 512 512"><path d="M277 235v42h43v-42h-43zm0-86v43h43v-43h-43zm0 171q-17 0-29.5-12.5T235 277v-32q0-13 9.5-22.5T267 213q-13 0-22.5-9.5T235 181v-32q0-18 12.5-30t29.5-12h43q18 0 30.5 12t12.5 30v32q0 13-9.5 22.5T331 213q13 0 22.5 9.5T363 245v32q0 18-13 30.5T320 320h-43zm171 43V64H149v299h299zm0-342q17 0 30 13t13 30v299q0 17-13 29.5T448 405H149q-17 0-29.5-12.5T107 363V64q0-17 12.5-30T149 21h299zM64 107v341h341v43H64q-17 0-30-13t-13-30V107h43z"/></svg>