<svg version="1.1" xmlns="http://www.w3.org/2000/svg" xmlns:xlink="http://www.w3.org/1999/xlink" id="filter_9_plus" viewBox="0 0 512 512"><path d="M448 192V64H149v299h299V235h-43v42h-42v-42h-43v-43h43v-43h42v43h43zm0-171q17 0 30 13t13 30v299q0 17-13 29.5T448 405H149q-17 0-29.5-12.5T107 363V64q0-17 12.5-30T149 21h299zM235 192h21v-21h-21v21zm64 64q0 18-13 30.5T256 299h-64v-43h64v-21h-21q-17 0-30-12.5T192 192v-21q0-18 13-30.5t30-12.5h21q17 0 30 12.5t13 30.5v85zM64 107v341h341v43H64q-17 0-30-13t-13-30V107h43z"/></svg>