<svg version="1.1" xmlns="http://www.w3.org/2000/svg" xmlns:xlink="http://www.w3.org/1999/xlink" id="filter_vintage" viewBox="0 0 512 512"><path d="M196 316q25 25 60 25t60-25q25-25 25-60t-25-60q-25-25-60-25t-60 25q-25 25-25 60t25 60zM49 375q0-38 22.5-72.5T131 256l-18-9q-30-18-47-47.5T49 137q64-37 128 0 9 4 17 11-2-14-2-20 0-35 17.5-64.5T256 17q29 17 46.5 46.5T320 128q0 6-2 20 8-7 17-11 64-37 128 0 0 33-17 62.5T399 247q-2 1-5.5 3t-6.5 3.5q-3 1.5-6 2.5 3 1 6 2.5t6.5 3.5q3.5 2 5.5 3 30 18 47 47.5t17 62.5q-64 37-128 0-9-4-17-11 2 14 2 20 0 35-17.5 64.5T256 495q-29-17-46.5-46.5T192 384q0-6 2-20-8 7-17 11-64 37-128 0z"/></svg>