<svg version="1.1" xmlns="http://www.w3.org/2000/svg" xmlns:xlink="http://www.w3.org/1999/xlink" id="filter_tilt_shift" viewBox="0 0 512 512"><path d="M121 421l30-30q37 28 84 34v43q-63-6-114-47zm156 4q47-6 83-34l31 30q-51 41-114 47v-43zm114-64q28-38 34-83h43q-6 62-47 113l-30-30zm-90-150q19 19 19 45t-19 45q-19 19-45 19t-45-19q-19-19-19-45t19-45q19-19 45-19t45 19zM87 277q6 47 34 83l-30 31q-41-51-47-114h43zm34-126q-28 37-34 84H44q6-63 47-114l30 30zm304 84q-6-47-34-84l30-30q41 51 47 114h-43zM391 91l-30 30q-37-28-84-34V44q63 6 114 47zm-156-4q-47 6-84 34l-30-30q51-41 114-47v43z"/></svg>