<svg version="1.1" xmlns="http://www.w3.org/2000/svg" xmlns:xlink="http://www.w3.org/1999/xlink" id="flip_to_back" viewBox="0 0 512 512"><path d="M320 363v-43h43v43h-43zm0-256V64h43v43h-43zm-213 42v256h256v43H107q-18 0-30.5-13T64 405V149h43zm298 214v-43h43q0 17-13 30t-30 13zm0-171v-43h43v43h-43zm0 85v-42h43v42h-43zm-213 86q-18 0-30.5-13T149 320h43v43zm85-299v43h-42V64h42zm128 0q17 0 30 13t13 30h-43V64zM277 320v43h-42v-43h42zM192 64v43h-43q0-17 12.5-30T192 64zm0 171v42h-43v-42h43zm0-86v43h-43v-43h43z"/></svg>