<svg version="1.1" xmlns="http://www.w3.org/2000/svg" xmlns:xlink="http://www.w3.org/1999/xlink" id="forward_10" viewBox="0 0 512 512"><path d="M282 324q0 7 10 7 5 0 7-2l4-5q2-4 2-6v-43q-2-4-2-6t-4.5-4.5Q294 262 292 262q-3 0-6 3l-4 4q-3 4-3 6v43q3 4 3 6zm40-21q0 13-2 17l-6 13q-7 6-11 6-2 0-6.5 1t-6.5 1q-9 0-13-2-2-1-5-3t-5-3q-9-5-9-30v-15q0-13 2-17l7-13q6-6 10-6 2 0 6.5-1t6.5-1q9 0 13 2 2 1 5.5 3t5.5 3q2 1 6 13 2 6 2 17v15zm-89 38h-20v-70l-21 6v-15l38-12h3v91zM85 277q0-70 50-120t121-50V21l107 107-107 107v-86q-52 0-90 37.5T128 277q0 53 38 90.5t90 37.5q52 0 90-37.5t38-90.5h43q0 71-50.5 121T256 448q-70 0-120.5-50T85 277z"/></svg>