<svg version="1.1" xmlns="http://www.w3.org/2000/svg" xmlns:xlink="http://www.w3.org/1999/xlink" id="forward_5" viewBox="0 0 512 512"><path d="M250 290q-7 3-7 4l-2 3h-13l5-47h51v15h-37l-2 19q2 0 2-2 0-1 1.5-1.5t1.5-1.5h8q8 0 11 3 1 1 4 3t4 3q9 9 9 23 0 9-2 11-1 1-3 5t-4 6q-8 8-23 8-9 0-11-2-1-1-4.5-2t-5.5-2q-9-5-9-19h17q0 10 13 10 4 0 6-2l5-4q2-4 2-6v-13l-2-4-5-5q-4-2-6-2h-4zM85 277q0-70 50-120t121-50V21l107 107-107 107v-86q-52 0-90 37.5T128 277q0 53 38 90.5t90 37.5q52 0 90-37.5t38-90.5h43q0 71-50.5 121T256 448q-70 0-120.5-50T85 277z"/></svg>