<svg version="1.1" xmlns="http://www.w3.org/2000/svg" xmlns:xlink="http://www.w3.org/1999/xlink" id="gesture" viewBox="0 0 512 512"><path d="M296 396q14 0 28-18.5t18-56.5q-30 8-46 27t-16 32q0 7 5 11.5t11 4.5zM98 147l-37-36q10-12 18-20 27-27 58-27 19 0 36.5 15t17.5 46q0 30-28 70-28 39-39 75-6 17-3.5 29t10.5 12q9 0 24-18 22-22 49-58 48-60 105-60 42 0 62.5 27.5T395 264h53v53h-52q-6 69-37 100t-64 31q-28 0-48-19.5T227 382q0-33 30-69t85-46q-1-8-1.5-11t-3-9.5q-2.5-6.5-6-9.5t-10.5-5.5q-7-2.5-17-2.5-28 0-87 73-17 21-23.5 28.5T175 348q-12 10-23 13-35 11-60-13t-25-60q0-15 5.5-33T87 220q9-17 17-30.5t15.5-24.5q7.5-11 8.5-12 17-28 6-32-7-3-36 26z"/></svg>