<svg version="1.1" xmlns="http://www.w3.org/2000/svg" xmlns:xlink="http://www.w3.org/1999/xlink" id="gradient" viewBox="0 0 512 512"><path d="M405 235V107H107v128h42v42h43v43h43v-43h42v43h43v-43h43v-42h42zm-42 149v-43h-43v43h43zm-86 0v-43h-42v43h42zm-85 0v-43h-43v43h43zM405 64q17 0 30 13t13 30v298q0 17-13 30t-30 13H107q-17 0-30-13t-13-30V107q0-17 13-30t30-13h298zM149 192h43v43h-43v-43zm171 0h43v43h-43v-43zm-85 0h42v43h43v42h-43v-42h-42v42h-43v-42h43v-43zm128 85v43h42v-43h-42zm-214 0h-42v43h42v-43z"/></svg>