<svg version="1.1" xmlns="http://www.w3.org/2000/svg" xmlns:xlink="http://www.w3.org/1999/xlink" id="grain" viewBox="0 0 512 512"><path d="M183.5 98Q196 85 213 85t30 13q13 13 13 30t-13 30q-13 13-30 13t-29.5-13Q171 145 171 128t12.5-30zm85.5 85.5q13-12.5 30-12.5t29.5 12.5Q341 196 341 213t-12.5 30Q316 256 299 256t-30-13q-13-13-13-30t13-29.5zm85 85.5q13-13 30-13t30 13q13 13 13 30t-13 29.5Q401 341 384 341t-30-12.5Q341 316 341 299t13-30zm-85 85q13-13 30-13t29.5 13q12.5 13 12.5 30t-12.5 30Q316 427 299 427t-30-13q-13-13-13-30t13-30zm145-196q-13 13-30 13t-30-13q-13-13-13-30t13-30q13-13 30-13t30 13q13 13 13 30t-13 30zM98 354q13-13 30-13t30 13q13 13 13 30t-13 30q-13 13-30 13t-30-13q-13-13-13-30t13-30zm0-170.5q13-12.5 30-12.5t30 12.5q13 12.5 13 29.5t-13 30q-13 13-30 13t-30-13q-13-13-13-30t13-29.5zm85.5 85.5q12.5-13 29.5-13t30 13q13 13 13 30t-13 29.5Q230 341 213 341t-29.5-12.5Q171 316 171 299t12.5-30z"/></svg>