<svg version="1.1" xmlns="http://www.w3.org/2000/svg" xmlns:xlink="http://www.w3.org/1999/xlink" id="grid_off" viewBox="0 0 512 512"><path d="M341 427h31l-31-31v31zm-42 0v-74l-12-12h-74v86h86zM171 299v-74l-12-12H85v86h86zm0 128v-86H85v86h86zM85 140v31h31l-31-31zm128 128v31h31l-31-31zM27 27l458 458-27 27-43-43H85q-17 0-29.5-12.5T43 427V97L0 54l27-27zm314 58v86h86V85h-86zm-170 0h-31L97 43h330q17 0 29.5 12.5T469 85v330l-42-43v-31h-31l-43-42h74v-86h-86v74l-42-43v-31h-31l-43-42h74V85h-86v74l-42-43V85z"/></svg>