<svg version="1.1" xmlns="http://www.w3.org/2000/svg" xmlns:xlink="http://www.w3.org/1999/xlink" id="group_work" viewBox="0 0 512 512"><path d="M303.5 357.5Q319 373 341 373t38-15.5q16-15.5 16-37.5t-16-37.5Q363 267 341 267t-37.5 15.5Q288 298 288 320t15.5 37.5zm-85-224.5Q203 149 203 171t15.5 37.5Q234 224 256 224t37.5-15.5Q309 193 309 171t-15.5-38Q278 117 256 117t-37.5 16zM133 357.5q16 15.5 38 15.5t37.5-15.5Q224 342 224 320t-15.5-37.5Q193 267 171 267t-38 15.5Q117 298 117 320t16 37.5zm-27.5-252Q168 43 256 43t150.5 62.5Q469 168 469 256t-62.5 150.5Q344 469 256 469t-150.5-62.5Q43 344 43 256t62.5-150.5z"/></svg>