<svg version="1.1" xmlns="http://www.w3.org/2000/svg" xmlns:xlink="http://www.w3.org/1999/xlink" id="healing" viewBox="0 0 512 512"><path d="M355 434l78-78-78-77-77 78 77 77zm-41-193q-6-6-15-6t-15.5 6q-6.5 6-6.5 15t6.5 15q6.5 6 15.5 6t15-6q6-6 6-15t-6-15zm-73 73q6 6 15 6t15-6q6-6 6-15t-6-15.5q-6-6.5-15-6.5t-15 6.5q-6 6.5-6 15.5t6 15zm-43-43q6 6 15 6t15.5-6q6.5-6 6.5-15t-6.5-15q-6.5-6-15.5-6t-15 6q-6 6-6 15t6 15zm-42-37l77-78-77-77-78 78 78 77zm115-36q-6-6-15-6t-15 6q-6 6-6 15t6 15.5q6 6.5 15 6.5t15-6.5q6-6.5 6-15.5t-6-15zm107 58l85 85q6 6 6 15t-6 15l-92 93q-6 6-15 6-10 0-16-6l-84-85-85 85q-6 6-15 6t-15-6l-93-93q-6-6-6-15t6-15l85-85-85-84q-6-6-6-15.5t6-15.5l93-92q6-6 15-6t15 6l85 85 84-85q6-6 15.5-6t15.5 6l92 92q6 6 6 15.5t-6 15.5l-85 84z"/></svg>