<svg version="1.1" xmlns="http://www.w3.org/2000/svg" xmlns:xlink="http://www.w3.org/1999/xlink" id="hearing" viewBox="0 0 512 512"><path d="M261 229.5Q245 214 245 192t16-37.5q16-15.5 38-15.5t37.5 15.5Q352 170 352 192t-15.5 37.5Q321 245 299 245t-38-15.5zM163 56q-56 56-56 136t56 136l-30 30q-69-69-69-166t69-166l30 30zm200 371q17 0 29.5-13t12.5-30h43q0 35-25 60t-60 25q-20 0-35-7-41-21-59-76-7-22-36-44-41-30-61-67-23-41-23-83 0-63 43.5-106T299 43q63 0 106 43t43 106h-43q0-45-30.5-76T299 85q-45 0-76 31t-31 76q0 32 17 63 14 27 50 54 40 30 51 64 13 38 36 50 8 4 17 4z"/></svg>