<svg version="1.1" xmlns="http://www.w3.org/2000/svg" xmlns:xlink="http://www.w3.org/1999/xlink" id="help_outline" viewBox="0 0 512 512"><path d="M196 153q25-25 60-25t60 25q25 25 25 60 0 27-32 55.5T277 320h-42q0-23 10-39.5t22-24q12-7.5 22-18.5t10-25q0-17-13-29.5T256 171q-17 0-30 12.5T213 213h-42q0-35 25-60zm-60.5 223.5Q186 427 256 427t120.5-50.5Q427 326 427 256t-50.5-120.5Q326 85 256 85t-120.5 50.5Q85 186 85 256t50.5 120.5zm-30-271Q168 43 256 43t150.5 62.5Q469 168 469 256t-62.5 150.5Q344 469 256 469t-150.5-62.5Q43 344 43 256t62.5-150.5zM235 384v-43h42v43h-42z"/></svg>