<svg version="1.1" xmlns="http://www.w3.org/2000/svg" xmlns:xlink="http://www.w3.org/1999/xlink" id="keyboard_hide" viewBox="0 0 512 512"><path d="M256 491l-85-86h170l-85 86zm149-320v-43h-42v43h42zm0 64v-43h-42v43h42zm-64-64v-43h-42v43h42zm0 64v-43h-42v43h42zm0 85v-43H171v43h170zM149 171v-43h-42v43h42zm0 64v-43h-42v43h42zm22-43v43h42v-43h-42zm0-64v43h42v-43h-42zm64 64v43h42v-43h-42zm0-64v43h42v-43h-42zm192-64q17 0 29.5 13t12.5 30v213q0 17-12.5 30T427 363H85q-17 0-29.5-13T43 320V107q0-17 12.5-30T85 64h342z"/></svg>