<svg version="1.1" xmlns="http://www.w3.org/2000/svg" xmlns:xlink="http://www.w3.org/1999/xlink" id="language" viewBox="0 0 512 512"><path d="M349 299h72q6-28 6-43t-6-43h-72q3 21 3 43t-3 43zm-38 118q61-20 93-76h-63q-10 40-30 76zm-5-118q3-21 3-43t-3-43H206q-3 21-3 43t3 43h100zm-50 127q28-41 41-85h-82q13 44 41 85zm-85-255q10-40 30-76-61 20-93 76h63zm-63 170q32 56 93 76-20-36-30-76h-63zm-17-42h72q-3-21-3-43t3-43H91q-6 28-6 43t6 43zM256 86q-28 41-41 85h82q-13-44-41-85zm148 85q-32-56-93-76 20 36 30 76h63zm-298.5-65.5Q168 43 256 43t150.5 62.5Q469 168 469 256t-62.5 150.5Q344 469 256 469t-150.5-62.5Q43 344 43 256t62.5-150.5z"/></svg>