<svg version="1.1" xmlns="http://www.w3.org/2000/svg" xmlns:xlink="http://www.w3.org/1999/xlink" id="local_gas_station" viewBox="0 0 512 512"><path d="M369 207q6 6 15 6t15-6q6-6 6-15t-6-15q-6-6-15-6t-15 6q-6 6-6 15t6 15zm-113 6V107H128v106h128zm166-59q15 15 15 38v203q0 22-15.5 37.5T384 448q-22 0-37.5-15.5T331 395V288h-32v160H85V107q0-17 13-30t30-13h128q17 0 30 13t13 30v149h21q17 0 30 13t13 30v96q0 9 6 15t15 6q9 0 15-6t6-15V241q-9 4-21 4-22 0-37.5-15.5T331 192q0-36 34-50l-45-45 23-22 79 79z"/></svg>