<svg version="1.1" xmlns="http://www.w3.org/2000/svg" xmlns:xlink="http://www.w3.org/1999/xlink" id="local_car_wash" viewBox="0 0 512 512"><path d="M107 277h298l-32-96H139l-32 96zm243.5 98q9.5 9 22.5 9t22.5-9q9.5-9 9.5-23t-9.5-23q-9.5-9-22.5-9t-22.5 9q-9.5 9-9.5 23t9.5 23zm-234 0q9.5 9 22.5 9t22.5-9q9.5-9 9.5-23t-9.5-23q-9.5-9-22.5-9t-22.5 9q-9.5 9-9.5 23t9.5 23zM404 171l44 128v170q0 9-6 15.5t-15 6.5h-22q-9 0-15-6.5t-6-15.5v-21H128v21q0 9-6 15.5t-15 6.5H85q-9 0-15-6.5T64 469V299l44-128q7-22 31-22h234q24 0 31 22zM171.5 97.5Q162 107 149 107t-22.5-9.5Q117 88 117 75q0-9 8-23.5T141 27l8-10q32 37 32 58 0 13-9.5 22.5zm107.5 0q-9 9.5-23 9.5t-23-9.5q-9-9.5-9-22.5 0-9 8-23.5T248 27l8-10q32 37 32 58 0 13-9 22.5zm106.5 0Q376 107 363 107t-22.5-9.5Q331 88 331 75q0-9 8-23.5T355 27l8-10q32 37 32 58 0 13-9.5 22.5z"/></svg>