<svg version="1.1" xmlns="http://www.w3.org/2000/svg" xmlns:xlink="http://www.w3.org/1999/xlink" id="local_shipping" viewBox="0 0 512 512"><path d="M361 385.5q9 9.5 23 9.5t23-9.5q9-9.5 9-22.5t-9-22.5q-9-9.5-23-9.5t-23 9.5q-9 9.5-9 22.5t9 22.5zM416 203h-53v53h95l-42-53zM105 385.5q9 9.5 23 9.5t23-9.5q9-9.5 9-22.5t-9-22.5q-9-9.5-23-9.5t-23 9.5q-9 9.5-9 22.5t9 22.5zM427 171l64 85v107h-43q0 26-19 45t-45 19q-26 0-45-19t-19-45H192q0 26-19 45t-45 19q-26 0-45-19t-19-45H21V128q0-17 13-30t30-13h299v86h64z"/></svg>