<svg version="1.1" xmlns="http://www.w3.org/2000/svg" xmlns:xlink="http://www.w3.org/1999/xlink" id="local_grocery_store" viewBox="0 0 512 512"><path d="M333 397q13-13 30-13t29.5 13q12.5 13 12.5 30t-12.5 29.5Q380 469 363 469t-30-12.5Q320 444 320 427t13-30zM21 43h70l20 42h316q9 0 15 6.5t6 15.5q0 5-3 10l-76 138q-12 22-37 22H173l-19 35-1 3q0 5 5 5h247v43H149q-17 0-29.5-13T107 320q0-10 5-20l29-53L64 85H21V43zm98.5 354q12.5-13 29.5-13t30 13q13 13 13 30t-13 29.5Q166 469 149 469t-29.5-12.5Q107 444 107 427t12.5-30z"/></svg>