<svg version="1.1" xmlns="http://www.w3.org/2000/svg" xmlns:xlink="http://www.w3.org/1999/xlink" id="local_laundry_service" viewBox="0 0 512 512"><path d="M165.5 389.5Q203 427 256 427t90.5-37.5Q384 352 384 299t-37.5-90.5Q309 171 256 171t-90.5 37.5Q128 246 128 299t37.5 90.5zm-1-298Q158 85 149 85t-15 6.5q-6 6.5-6 15.5t6 15q6 6 15 6t15.5-6q6.5-6 6.5-15t-6.5-15.5zm64 0Q222 85 213 85t-15 6.5q-6 6.5-6 15.5t6 15q6 6 15 6t15.5-6q6.5-6 6.5-15t-6.5-15.5zM384 43q18 0 30.5 12T427 85v342q0 18-12.5 30T384 469H128q-18 0-30.5-12T85 427V85q0-18 12.5-30T128 43h256zM196 359l120-121q25 25 25 60.5T316 359q-25 25-60 25t-60-25z"/></svg>