<svg version="1.1" xmlns="http://www.w3.org/2000/svg" xmlns:xlink="http://www.w3.org/1999/xlink" id="local_florist" viewBox="0 0 512 512"><path d="M293.5 133Q278 117 256 117t-37.5 16Q203 149 203 171t15.5 37.5Q234 224 256 224t37.5-15.5Q309 193 309 171t-15.5-38zM119 219q0-33 31-48-31-15-31-48 0-22 16-38t38-16q15 0 30 10v-4q0-22 15.5-38T256 21q22 0 37.5 16T309 75v4q15-10 30-10 22 0 38 16t16 38q0 33-31 48 31 15 31 48 0 22-16 37.5T339 272q-17 0-30-9v4q0 22-15.5 37.5T256 320q-22 0-37.5-15.5T203 267v-4q-13 9-30 9-22 0-38-15.5T119 219zm137 250q-80 0-136-56.5T64 277q80 0 136 56.5T256 469zm0 0q0-79 56-135.5T448 277q0 79-56 135.5T256 469z"/></svg>