<svg version="1.1" xmlns="http://www.w3.org/2000/svg" xmlns:xlink="http://www.w3.org/1999/xlink" id="lock_outline" viewBox="0 0 512 512"><path d="M286 350q-13 13-30 13t-30-13q-13-13-13-30t13-30q13-13 30-13t30 13q13 13 13 30t-13 30zm98 77V213H128v214h256zM302.5 81.5Q283 62 256 62t-46.5 19.5Q190 101 190 128h2v43h130v-43q0-27-19.5-46.5zM384 171q17 0 30 12.5t13 29.5v214q0 17-13 29.5T384 469H128q-17 0-30-12.5T85 427V213q0-17 13-29.5t30-12.5h21v-43q0-44 31.5-75.5T256 21q44 0 75.5 31.5T363 128v43h21z"/></svg>