<svg version="1.1" xmlns="http://www.w3.org/2000/svg" xmlns:xlink="http://www.w3.org/1999/xlink" id="loyalty" viewBox="0 0 512 512"><path d="M368 326q16-16 16-38t-15.5-37.5Q353 235 331 235q-23 0-38 15l-16 16-15-16q-15-15-38-15-22 0-37.5 15.5T171 288q0 23 15 38l91 91 91-91zM94.5 139.5Q104 149 117 149t22.5-9.5Q149 130 149 117t-9.5-22.5Q130 85 117 85t-22.5 9.5Q85 104 85 117t9.5 22.5zM457 247q12 12 12 30t-12 30L307 457q-12 12-30 12t-30-12L55 265q-12-12-12-30V85q0-17 12.5-29.5T85 43h150q18 0 30 12l192 192z"/></svg>