<svg version="1.1" xmlns="http://www.w3.org/2000/svg" xmlns:xlink="http://www.w3.org/1999/xlink" id="mood" viewBox="0 0 512 512"><path d="M322.5 352.5Q293 373 256 373t-66.5-20.5Q160 332 147 299h218q-13 33-42.5 53.5zm-119-127Q194 235 181 235t-22.5-9.5Q149 216 149 203t9.5-22.5Q168 171 181 171t22.5 9.5Q213 190 213 203t-9.5 22.5zm150 0Q344 235 331 235t-22.5-9.5Q299 216 299 203t9.5-22.5Q318 171 331 171t22.5 9.5Q363 190 363 203t-9.5 22.5zm-218 151Q186 427 256 427t120.5-50.5Q427 326 427 256t-50.5-120.5Q326 85 256 85t-120.5 50.5Q85 186 85 256t50.5 120.5zm-30-271Q168 43 256 43t150.5 62.5Q469 168 469 256t-62.5 150.5Q344 469 256 469t-150.5-62.5Q43 344 43 256t62.5-150.5z"/></svg>