<svg version="1.1" xmlns="http://www.w3.org/2000/svg" xmlns:xlink="http://www.w3.org/1999/xlink" id="people_outline" viewBox="0 0 512 512"><path d="M382 151.5Q369 139 352 139t-30 12.5Q309 164 309 181t13 30q13 13 30 13t30-13q13-13 13-30t-13-29.5zm23 82.5q-22 22-53 22t-53-22q-22-22-22-53t22-52.5q22-21.5 53-21.5t53 21.5q22 21.5 22 52.5t-22 53zm-215-82.5Q177 139 160 139t-30 12.5Q117 164 117 181t13 30q13 13 30 13t30-13q13-13 13-30t-13-29.5zm23 82.5q-22 22-53 22t-53-22q-22-22-22-53t22-52.5q22-21.5 53-21.5t53 21.5q22 21.5 22 52.5t-22 53zm246 139v-26q0-10-35.5-24T352 309q-26 0-64 12 11 13 11 26v26h160zm-192 0v-26q0-10-35.5-24T160 309q-36 0-71.5 14T53 347v26h214zm85-96q43 0 91 19.5t48 50.5v58H21v-58q0-31 48-50.5t91-19.5q47 0 96 22 49-22 96-22z"/></svg>