<svg version="1.1" xmlns="http://www.w3.org/2000/svg" xmlns:xlink="http://www.w3.org/1999/xlink" id="perm_data_setting" viewBox="0 0 512 512"><path d="M382.5 427.5Q392 437 405 437t22.5-9.5Q437 418 437 405t-9.5-22.5Q418 373 405 373t-22.5 9.5Q373 392 373 405t9.5 22.5zM484 416l23 17q3 3 1 7l-21 37q-3 5-7 3l-26-11q-3 3-18 10l-4 29q0 4-6 4h-42q-6 0-6-4l-4-29q-8-4-18-10l-26 11q-5 2-7-3l-21-37q-2-4 1-7l23-17q0-1-.5-5t-.5-6q0-2 .5-5.5t.5-4.5l-23-18q-3-3-1-7l21-37q2-4 7-2l26 11q12-8 18-11l4-28q0-4 6-4h42q6 0 6 4l4 28q4 2 18 11l26-11q5-2 7 2l21 37q2 4-1 7l-23 18q1 3 1 10 0 2-.5 6t-.5 5zm-79-171q-66 0-113 47t-47 113q0 8 2 22H0L427 0l-1 247q-14-2-21-2z"/></svg>