<svg version="1.1" xmlns="http://www.w3.org/2000/svg" xmlns:xlink="http://www.w3.org/1999/xlink" id="phone_locked" viewBox="0 0 512 512"><path d="M410 85V75q0-15-11-26t-26-11q-15 0-25.5 11T337 75v10h73zm17 0q9 0 15 6.5t6 15.5v85q0 9-6 15t-15 6H320q-9 0-15-6t-6-15v-85q0-9 6-15.5t15-6.5V75q0-22 15.5-38T373 21q22 0 38 16t16 38v10zm0 246q9 0 15 6t6 15v75q0 9-6 15t-15 6q-150 0-256.5-106.5T64 85q0-9 6-15t15-6h75q9 0 15 6t6 15q0 40 12 76 4 13-5 22l-47 47q47 92 141 141l47-47q9-9 22-5 36 12 76 12z"/></svg>