<svg version="1.1" xmlns="http://www.w3.org/2000/svg" xmlns:xlink="http://www.w3.org/1999/xlink" id="phonelink_setup" viewBox="0 0 512 512"><path d="M405 21q17 0 30 13t13 30v384q0 17-13 30t-30 13H192q-17 0-30-13t-13-30v-64h43v43h213V85H192v43h-43V64q0-17 13-30t30-13h213zM141 286q13 13 30 13t29.5-13q12.5-13 12.5-30t-12.5-30Q188 213 171 213t-30 13q-13 13-13 30t13 30zm111-19l23 19q4 4 2 6l-21 37q-2 2-6 2l-28-11q-14 9-19 11l-5 27q-5 5-6 5h-43q-2 0-3.5-2t-.5-3l-4-27q-5-2-19-11l-30 9q-2 2-7-3l-21-36q0-4 2-8l24-17v-22l-24-17q-4-4-2-6l21-37q2-2 7-2l27 11q13-9 20-11l4-27q5-5 6-5h43q6 0 6 5l5 27q5 2 19 11l28-9q2-1 6 3l21 36q0 4-2 6l-23 17v22z"/></svg>