<svg version="1.1" xmlns="http://www.w3.org/2000/svg" xmlns:xlink="http://www.w3.org/1999/xlink" id="photo_size_select_small" viewBox="0 0 512 512"><path d="M149 64v43h-42V64h42zm86 0v43h-43V64h43zM64 235v42H21v-42h43zm0-171v43H21q0-16 13.5-29.5T64 64zm341 341v43h-42v-43h42zm0-341v43h-42V64h42zm-85 341v43h-43v-43h43zM64 149v43H21v-43h43zm0 299q-17 0-30-13t-13-30v-85h214v128H64zM448 64q16 0 29.5 13.5T491 107h-43V64zm43 85v43h-43v-43h43zM320 64v43h-43V64h43zm171 341q0 16-13.5 29.5T448 448v-43h43zm0-170v42h-43v-42h43zm0 85v43h-43v-43h43z"/></svg>