<svg version="1.1" xmlns="http://www.w3.org/2000/svg" xmlns:xlink="http://www.w3.org/1999/xlink" id="photo_size_select_large" viewBox="0 0 512 512"><path d="M64 405h213l-68-91-53 69-39-46-53 68zM21 235h299v213H64q-17 0-30-13t-13-30V235zm86-171h42v43h-42V64zm85 0h43v43h-43V64zM64 64v43H21q0-16 13.5-29.5T64 64zm299 341h42v43h-42v-43zm0-341h42v43h-42V64zM21 149h43v43H21v-43zm427-85q16 0 29.5 13.5T491 107h-43V64zm0 85h43v43h-43v-43zM277 64h43v43h-43V64zm214 341q0 16-13.5 29.5T448 448v-43h43zm-43-170h43v42h-43v-42zm0 85h43v43h-43v-43z"/></svg>