<svg version="1.1" xmlns="http://www.w3.org/2000/svg" xmlns:xlink="http://www.w3.org/1999/xlink" id="picture_as_pdf" viewBox="0 0 512 512"><path d="M299 245v-64h21v64h-21zM85 128v299h299v42H85q-17 0-29.5-12.5T43 427V128h42zm107 75v-22h21v22h-21zm245-22v-32h-64v128h32v-42h32v-32h-32v-22h32zm-85 64v-64q0-13-9-22.5t-23-9.5h-53v128h53q14 0 23-9.5t9-22.5zm-107-42v-22q0-13-9.5-22.5T213 149h-53v128h32v-42h21q13 0 22.5-9.5T245 203zM427 43q17 0 29.5 12.5T469 85v256q0 17-12.5 30T427 384H171q-17 0-30-13t-13-30V85q0-17 13-29.5T171 43h256z"/></svg>