<svg version="1.1" xmlns="http://www.w3.org/2000/svg" xmlns:xlink="http://www.w3.org/1999/xlink" id="portable_wifi_off" viewBox="0 0 512 512"><path d="M70 53l21 22 357 357-27 27-160-161h-1l-4 1q-17 0-30-13t-13-30l1-4-34-34q-9 18-9 38 0 49 42 74l-21 37q-29-17-46.5-46.5T128 256q0-38 20-69l-30-31q-33 46-33 100 0 46 23 85.5t62 62.5l-21 37q-49-28-77.5-77.5T43 256q0-74 44-131L43 80l27-27zm186 32q-43 0-80 20l-31-31q50-31 111-31 88 0 150.5 62.5T469 256q0 61-31 111l-32-31q21-39 21-80 0-70-50.5-120.5T256 85zm119 219l-35-35q1-4 1-13 0-35-25-60t-60-25q-9 0-13 1l-35-35q22-9 48-9 53 0 90.5 37.5T384 256q0 26-9 48z"/></svg>