<svg version="1.1" xmlns="http://www.w3.org/2000/svg" xmlns:xlink="http://www.w3.org/1999/xlink" id="redeem" viewBox="0 0 512 512"><path d="M427 299V171H318l45 60-35 25q-64-87-72-98-8 11-72 98l-35-25 45-60H85v128h342zm0 106v-42H85v42h342zM207 91.5q-6-6.5-15-6.5t-15 6.5q-6 6.5-6 15.5t6 15q6 6 15 6t15-6q6-6 6-15t-6-15.5zm128 0q-6-6.5-15-6.5t-15 6.5q-6 6.5-6 15.5t6 15q6 6 15 6t15-6q6-6 6-15t-6-15.5zm92 36.5q18 0 30 12.5t12 30.5v234q0 18-12 30.5T427 448H85q-18 0-30-12.5T43 405V171q0-18 12-30.5T85 128h47q-4-14-4-21 0-26 19-45t45-19q33 0 53 28l11 15 11-15q20-28 53-28 26 0 45 19t19 45q0 7-4 21h47z"/></svg>