<svg version="1.1" xmlns="http://www.w3.org/2000/svg" xmlns:xlink="http://www.w3.org/1999/xlink" id="replay_30" viewBox="0 0 512 512"><path d="M286 324q0 7 11 7 4 0 6-2l4-5q2-4 2-6v-43q0-1-1-3t-1-3q0-2-4-4.5t-6-2.5q-4 0-7 3l-4 4q-2 4-2 6v43q2 4 2 6zm40-21q0 13-2 17l-6 13q-7 6-11 6-2 0-6.5 1t-6.5 1q-7 0-23-8-2-1-6-13-3-9-3-17v-15q0-11 3-17l6-13q7-6 11-6 2 0 6-1t6-1q9 0 13 2 2 1 5.5 3t5.5 3q2 1 6 13 2 6 2 17v15zm-113-15q15 0 15-13v-4q-2-2-2-4t-4-2h-11q-2 2-4 2t-2 4v4h-22q0-8 5.5-15.5T201 252q1 0 5-1t5-1q12 0 24 6 8 4 8 19v7q-2 4-2 6 0 4-4 4-2 0-7 5 9 5 11 8 4 8 4 13 0 9-2 11-1 1-3 4t-3 4q-4 4-11 4-2 0-6.5 1t-6.5 1q-8 0-10-2-1-1-5-2t-6-2q-9-5-9-21h18v4q2 2 2 4t4 2h11q2-2 4-2t2-4v-11q-2-2-2-4t-4-2h-13v-15h8zm43-181q71 0 121 50t50 120q0 71-50.5 121T256 448q-70 0-120.5-50T85 277h43q0 53 38 90.5t90 37.5q52 0 90-37.5t38-90.5q0-53-38-90.5T256 149v86L149 128 256 21v86z"/></svg>