<svg version="1.1" xmlns="http://www.w3.org/2000/svg" xmlns:xlink="http://www.w3.org/1999/xlink" id="screen_lock_rotation" viewBox="0 0 512 512"><path d="M358 53v11h73V53q0-15-10.5-25.5T395 17q-15 0-26 10.5T358 53zm-17 139q-9 0-15-6t-6-15V85q0-9 6-15t15-6V53q0-22 16-37.5T395 0q22 0 37.5 15.5T448 53v11q9 0 15 6t6 15v86q0 9-6 15t-15 6H341zM181 437l28-28 81 81-14 1q-100 0-173.5-68T21 256h32q6 59 40.5 107.5T181 437zm315-165q10 9 10 22.5T496 318L360 453q-9 10-22 10t-23-10L59 197q-10-9-10-22t10-23L194 16q9-10 22.5-10T240 16l52 52-30 30-45-44L96 174l242 242 120-121-47-47 30-30 55 54z"/></svg>