<svg version="1.1" xmlns="http://www.w3.org/2000/svg" xmlns:xlink="http://www.w3.org/1999/xlink" id="select_all" viewBox="0 0 512 512"><path d="M192 192v128h128V192H192zm-43 171V149h214v214H149zm171-256V64h43v43h-43zm0 341v-43h43v43h-43zm85-85v-43h43v43h-43zm0-171v-43h43v43h-43zm0 256v-43h43q0 17-13 30t-30 13zm0-171v-42h43v42h-43zM235 448v-43h42v43h-42zM192 64v43h-43V64h43zM64 363v-43h43v43H64zm43 85q-17 0-30-13t-13-30h43v43zM405 64q17 0 30 13t13 30h-43V64zm-128 0v43h-42V64h42zM64 192v-43h43v43H64zm85 256v-43h43v43h-43zM64 277v-42h43v42H64zm0-170q0-17 13-30t30-13v43H64z"/></svg>