<svg version="1.1" xmlns="http://www.w3.org/2000/svg" xmlns:xlink="http://www.w3.org/1999/xlink" id="settings_input_svideo" viewBox="0 0 512 512"><path d="M308.5 329q9.5-9 22.5-9t22.5 9q9.5 9 9.5 23t-9.5 23q-9.5 9-22.5 9t-22.5-9q-9.5-9-9.5-23t9.5-23zm42-106.5Q360 213 373 213t22.5 9.5Q405 232 405 245t-9.5 22.5Q386 277 373 277t-22.5-9.5Q341 258 341 245t9.5-22.5zM120 392q56 56 136 56t136-56q56-56 56-136t-56-136q-56-56-136-56t-136 56q-56 56-56 136t56 136zM90 90q69-69 166-69t166 69q69 69 69 166t-69 166q-69 69-166 69T90 422q-69-69-69-166T90 90zm68.5 239q9.5-9 22.5-9t22.5 9q9.5 9 9.5 23t-9.5 23q-9.5 9-22.5 9t-22.5-9q-9.5-9-9.5-23t9.5-23zM311 116.5q9 9.5 9 22.5t-9 22.5q-9 9.5-23 9.5h-64q-14 0-23-9.5t-9-22.5q0-13 9-22.5t23-9.5h64q14 0 23 9.5zm-149.5 106Q171 232 171 245t-9.5 22.5Q152 277 139 277t-22.5-9.5Q107 258 107 245t9.5-22.5Q126 213 139 213t22.5 9.5z"/></svg>