<svg version="1.1" xmlns="http://www.w3.org/2000/svg" xmlns:xlink="http://www.w3.org/1999/xlink" id="settings_input_antenna" viewBox="0 0 512 512"><path d="M90 90q69-69 166-69t166 69q69 69 69 166h-43q0-80-56-136T256 64q-80 0-136 56T64 256H21q0-97 69-166zm187 215v70l73 73-30 30-64-64-64 64-30-30 73-73v-70q-32-13-32-49 0-22 15.5-37.5T256 203q22 0 37.5 15.5T309 256q0 36-32 49zM150.5 150.5Q194 107 256 107t105.5 43.5Q405 194 405 256h-42q0-44-31.5-75.5T256 149q-44 0-75.5 31.5T149 256h-42q0-62 43.5-105.5z"/></svg>