<svg version="1.1" xmlns="http://www.w3.org/2000/svg" xmlns:xlink="http://www.w3.org/1999/xlink" id="settings_applications" viewBox="0 0 512 512"><path d="M367 271q1-5 1-15t-1-15l32-24q5-4 1-10l-30-52q-3-5-9-3l-37 15q-13-10-25-15l-6-39q-2-6-7-6h-60q-6 0-7 6l-6 40q-16 7-25 14l-37-15q-5-2-9 4l-30 51q-4 6 1 10l32 24q-1 5-1 15t1 15l-32 24q-5 4-1 10l30 52q3 5 9 3l37-15q13 10 25 15l6 39q2 6 7 6h60q6 0 7-6l6-40q16-7 25-14l37 15q5 2 9-4l30-51q4-6-1-10l-32-24zm38-207q18 0 30.5 13t12.5 30v298q0 17-12.5 30T405 448H107q-18 0-30.5-13T64 405V107q0-17 12.5-30T107 64h298zM226 226q13-13 30-13t30 13q13 13 13 30t-13 30q-13 13-30 13t-30-13q-13-13-13-30t13-30z"/></svg>