<svg version="1.1" xmlns="http://www.w3.org/2000/svg" xmlns:xlink="http://www.w3.org/1999/xlink" id="settings_input_composite" viewBox="0 0 512 512"><path d="M363 341v-42h128v42q0 21-12 37t-31 23v90h-43v-90q-42-15-42-60zM277 43v85h43v128H192V128h43V43q0-9 6-15.5t15-6.5q9 0 15 6.5t6 15.5zm171 85h43v128H363V128h42V43q0-9 6.5-15.5T427 21q9 0 15 6.5t6 15.5v85zM21 341v-42h128v42q0 45-42 60v90H64v-90q-19-7-31-23t-12-37zm171 0v-42h128v42q0 21-12 37t-31 23v90h-42v-90q-19-7-31-23t-12-37zM107 43v85h42v128H21V128h43V43q0-9 6-15.5T85 21q9 0 15.5 6.5T107 43z"/></svg>