<svg version="1.1" xmlns="http://www.w3.org/2000/svg" xmlns:xlink="http://www.w3.org/1999/xlink" id="signal_wifi_4_bar_lock" viewBox="0 0 512 512"><path d="M331 309v56l-75 94L9 149l6-5q6-4 12.5-8.5T45 124q11-7 23.5-13T97 97.5q16-7.5 34-13T168.5 74q19.5-5 42-7.5T256 64q23 0 45.5 2.5t42 7.5Q363 79 381 84.5t34 13q16 7.5 28.5 13.5t23.5 13q11 7 17.5 11.5T497 144l6 5-44 56q-6-2-22-2-45 0-75.5 30.5T331 309zm138 32v-32q0-13-9.5-22.5T437 277q-13 0-22.5 9.5T405 309v32h64zm22 0q8 0 14.5 7t6.5 15v85q0 8-6.5 14.5T491 469H384q-8 0-14.5-6.5T363 448v-85q0-8 6.5-15t14.5-7v-32q0-23 15-38t38-15q23 0 38.5 15.5T491 309v32z"/></svg>