<svg version="1.1" xmlns="http://www.w3.org/2000/svg" xmlns:xlink="http://www.w3.org/1999/xlink" id="speaker" viewBox="0 0 512 512"><path d="M211 275q19-19 45-19t45 19q19 19 19 45t-19 45q-19 19-45 19t-45-19q-19-19-19-45t19-45zm-30.5 120.5Q212 427 256 427t75.5-31.5Q363 364 363 320t-31.5-75.5Q300 213 256 213t-75.5 31.5Q149 276 149 320t31.5 75.5zM256 85q-18 0-30.5 13T213 128q0 17 12.5 30t30.5 13q17 0 30-13t13-30q0-17-13-30t-30-13zm107-42q17 0 29.5 12.5T405 85v342q0 17-12.5 29.5T363 469H149q-17 0-29.5-12.5T107 427V85q0-17 12.5-29.5T149 43h214z"/></svg>