<svg version="1.1" xmlns="http://www.w3.org/2000/svg" xmlns:xlink="http://www.w3.org/1999/xlink" id="speaker_group" viewBox="0 0 512 512"><path d="M128 107v341h213v43H128q-18 0-30.5-13T85 448V107h43zm133 197.5Q245 289 245 267t16-38q16-16 38-16t37.5 16q15.5 16 15.5 38t-15.5 37.5Q321 320 299 320t-38-15.5zM238.5 327q25.5 25 60.5 25t60-25q25-25 25-60t-25-60.5Q334 181 299 181t-60.5 25.5Q213 232 213 267t25.5 60zm90-250.5Q316 64 299 64t-30 12.5Q256 89 256 107t12.5 30q12.5 12 30.5 12 17 0 29.5-12t12.5-30q0-18-12.5-30.5zM388 21q16 0 27.5 11.5T427 60v307q0 16-11.5 27T388 405H209q-16 0-27-11t-11-27V60q0-16 11-27.5T209 21h179z"/></svg>