<svg version="1.1" xmlns="http://www.w3.org/2000/svg" xmlns:xlink="http://www.w3.org/1999/xlink" id="strikethrough_s" viewBox="0 0 512 512"><path d="M491 256v43h-92l4 8q9 23 9 47 0 22-11 49-6 16-30 36-22 19-47 24-25 8-62 8-34 0-79-14-7-3-18.5-10.5T149 437q-12-6-27-25t-20-34q-6-19-6-45h85q0 18 7 34 3 7 17 21 17 17 60 17 11 0 29-4 2-2 10-5.5t10-5.5q9-6 12-15 5-15 5-19 0-26-15-36-18-12-26-15-2-1-7.5-3t-7.5-3H21v-43h470zm-365-43q-6-6-7-8-10-22-10-47t13-47q16-40 79-60 25-8 61-8 44 0 67 10 24 5 49 26 20 17 29 40 11 27 11 52h-85q0-32-17-43-17-17-51-17-12 0-30 4-8 2-22 11-9 6-12 15-5 15-5 19 0 21 22 34 22 12 42 19H126z"/></svg>