<svg version="1.1" xmlns="http://www.w3.org/2000/svg" xmlns:xlink="http://www.w3.org/1999/xlink" id="surround_sound" viewBox="0 0 512 512"><path d="M226 226q13-13 30-13t30 13q13 13 13 30t-13 30q-13 13-30 13t-30-13q-13-13-13-30t13-30zm151 151q50-50 50-121t-50-121l-31 31q38 38 38 90 0 54-37 91l30 30zm-181-61q25 25 60 25t60-25q25-25 25-60t-25-60q-25-25-60-25t-60 25q-25 25-25 60t25 60zm-30 30q-38-38-38-90 0-54 37-91l-30-30q-50 50-50 121t50 121l31-31zM427 85q17 0 29.5 13t12.5 30v256q0 17-12.5 30T427 427H85q-17 0-29.5-13T43 384V128q0-17 12.5-30T85 85h342z"/></svg>