<svg version="1.1" xmlns="http://www.w3.org/2000/svg" xmlns:xlink="http://www.w3.org/1999/xlink" id="tab_unselected" viewBox="0 0 512 512"><path d="M363 448v-43h42v43h-42zm-86 0v-43h43v43h-43zm171-171v-42h43v42h-43zm0 171v-43h43q0 17-13 30t-30 13zM107 107V64h42v43h-42zm0 341v-43h42v43h-42zm85-341V64h43v43h-43zm256 256v-43h43v43h-43zm0-299q17 0 30 13t13 30v85H277V64h171zM64 448q-17 0-30-13t-13-30h43v43zm-43-85v-43h43v43H21zm171 85v-43h43v43h-43zM21 107q0-17 13-30t30-13v43H21zm0 170v-42h43v42H21zm0-85v-43h43v43H21z"/></svg>