<svg version="1.1" xmlns="http://www.w3.org/2000/svg" xmlns:xlink="http://www.w3.org/1999/xlink" id="timer_3" viewBox="0 0 512 512"><path d="M374 223q-31 0-31 23 0 3 .5 5t1 3.5q.5 1.5 2 3t2.5 2q1 .5 3 2t3 1.5q1 0 4 1.5t4 1.5q9 4 18 5 11 2 29 8 8 3 22 12 7 5 13 16 5 10 5 21 0 37-44 52-12 4-31 4-56 0-73-39-5-12-5-22h40q0 15 11 22.5t28 7.5q33 0 33-23 0-6-3-10.5t-6-6q-3-1.5-10-4.5-5-2-21-6-28-6-48-19-18-12-18-36 0-38 42-52 12-4 29-4 33 0 54 15t21 44h-42q0-20-19-25-12-3-14-3zm-159 30q42 16 42 58 0 37-24 55-23 20-60 20t-60.5-19Q89 348 89 314h43q0 20 11 28 13 10 30 10 42 0 42-41t-46-41h-26v-33h25q32 0 41-23 2-5 2-16 0-38-38-38-26 0-36 20-3 6-3 15H92q0-45 48-64 17-5 33-5 38 0 59 18t21 54q0 36-38 55z"/></svg>