<svg version="1.1" xmlns="http://www.w3.org/2000/svg" xmlns:xlink="http://www.w3.org/1999/xlink" id="time_to_leave" viewBox="0 0 512 512"><path d="M107 213h298l-32-96H139l-32 96zm243.5 98q9.5 9 22.5 9t22.5-9q9.5-9 9.5-23t-9.5-23q-9.5-9-22.5-9t-22.5 9q-9.5 9-9.5 23t9.5 23zm-234 0q9.5 9 22.5 9t22.5-9q9.5-9 9.5-23t-9.5-23q-9.5-9-22.5-9t-22.5 9q-9.5 9-9.5 23t9.5 23zM404 107l44 128v170q0 9-6 15.5t-15 6.5h-22q-9 0-15-6.5t-6-15.5v-21H128v21q0 9-6 15.5t-15 6.5H85q-9 0-15-6.5T64 405V235l44-128q7-22 31-22h234q24 0 31 22z"/></svg>