<svg version="1.1" xmlns="http://www.w3.org/2000/svg" xmlns:xlink="http://www.w3.org/1999/xlink" id="track_changes" viewBox="0 0 512 512"><path d="M407 105q62 62 62 151 0 88-62.5 150.5T256 469q-88 0-150.5-62.5T43 256q0-88 62.5-150.5T256 43h21v176q22 12 22 37 0 17-13 30t-30 13q-17 0-30-13t-13-30q0-25 22-37v-45q-28 8-46 30t-18 52q0 35 25 60t60 25q35 0 60-25t25-60q0-33-25-60l30-30q38 38 38 90 0 53-37.5 90.5T256 384q-53 0-90.5-37.5T128 256q0-47 30.5-82.5T235 130V87q-63 8-106.5 56T85 256q0 70 50.5 120.5T256 427q70 0 120.5-50.5T427 256q0-71-50-121l30-30z"/></svg>