<svg version="1.1" xmlns="http://www.w3.org/2000/svg" xmlns:xlink="http://www.w3.org/1999/xlink" id="visibility_off" viewBox="0 0 512 512"><path d="M253 192h3q26 0 45 19t19 45v4l-67-68zm-92 17q-12 24-12 47 0 44 31.5 75.5T256 363q23 0 47-12l-33-33q-8 2-14 2-26 0-45-19t-19-45q0-6 2-14l-33-33zM43 91l27-27 378 378-27 27q-5-5-31.5-31T349 398q-43 18-93 18-79 0-143-44T21 256q25-62 80-106-12-12-33.5-34T43 91zm213 58q-20 0-39 8l-46-46q39-15 85-15 79 0 142.5 44T490 256q-24 59-73 101l-62-62q8-19 8-39 0-44-31.5-75.5T256 149z"/></svg>