<svg version="1.1" xmlns="http://www.w3.org/2000/svg" xmlns:xlink="http://www.w3.org/1999/xlink" id="voicemail" viewBox="0 0 512 512"><path d="M342 298q22 22 53 22t52.5-22q21.5-22 21.5-53t-21.5-52.5Q426 171 395 171t-53 21.5Q320 214 320 245t22 53zm-277.5 0Q86 320 117 320t53-22q22-22 22-53t-22-52.5Q148 171 117 171t-52.5 21.5Q43 214 43 245t21.5 53zm247-136q34.5-34 83.5-34t83 34q34 34 34 83t-34 83.5Q444 363 395 363H117q-49 0-83-34.5T0 245q0-49 34-83t83-34q49 0 83.5 34t34.5 83q0 43-27 75h96q-27-32-27-75 0-49 34.5-83z"/></svg>