<svg version="1.1" xmlns="http://www.w3.org/2000/svg" xmlns:xlink="http://www.w3.org/1999/xlink" id="vpn_lock" viewBox="0 0 512 512"><path d="M213 447v-42q-17 0-29.5-12.5T171 363v-22L68 239q-4 16-4 38 0 65 43 113.5T213 447zm191-191h43q1 7 1 21 0 89-62.5 151.5T235 491q-89 0-151.5-62.5T21 277q0-88 62.5-150.5T235 64q31 0 64 10v54q0 17-13 30t-30 13h-43v42q0 9-6 15.5t-15 6.5h-43v42h128q9 0 15.5 6.5T299 299v64h21q31 0 41 29 44-47 44-115 0-14-1-21zm48-171V75q0-15-10.5-26T416 38q-15 0-25.5 11T380 75v10h72zm17 0q9 0 15.5 6.5T491 107v85q0 9-6.5 15t-15.5 6H363q-9 0-15.5-6t-6.5-15v-85q0-9 6.5-15.5T363 85V75q0-22 15.5-38T416 21q22 0 37.5 16T469 75v10z"/></svg>