<svg version="1.1" xmlns="http://www.w3.org/2000/svg" xmlns:xlink="http://www.w3.org/1999/xlink" id="wallpaper" viewBox="0 0 512 512"><path d="M85 277v150h150v42H85q-17 0-29.5-12.5T43 427V277h42zm342 150V277h42v150q0 17-12.5 29.5T427 469H277v-42h150zm0-384q17 0 29.5 12.5T469 85v150h-42V85H277V43h150zm-73.5 115.5Q363 168 363 181t-9.5 22.5Q344 213 331 213t-22.5-9.5Q299 194 299 181t9.5-22.5Q318 149 331 149t22.5 9.5zM213 277l64 79 43-57 64 85H128l85-107zM85 85v150H43V85q0-17 12.5-29.5T85 43h150v42H85z"/></svg>