<svg version="1.1" xmlns="http://www.w3.org/2000/svg" xmlns:xlink="http://www.w3.org/1999/xlink" id="wc" viewBox="0 0 512 512"><path d="M382.5 115.5Q370 128 352 128t-30.5-12.5Q309 103 309 85t12.5-30Q334 43 352 43t30.5 12Q395 67 395 85t-12.5 30.5zm-192 0Q178 128 160 128t-30.5-12.5Q117 103 117 85t12.5-30Q142 43 160 43t30.5 12Q203 67 203 85t-12.5 30.5zM384 469h-64V341h-64l54-162q11-30 41-30h2q30 0 41 30l54 162h-64v128zm-267 0V309H85V192q0-17 13-30t30-13h64q17 0 30 13t13 30v117h-32v160h-86z"/></svg>