<svg version="1.1" xmlns="http://www.w3.org/2000/svg" xmlns:xlink="http://www.w3.org/1999/xlink" id="wifi_tethering" viewBox="0 0 512 512"><path d="M105.5 126Q168 64 256 64t150.5 62Q469 188 469 277q0 58-28.5 107.5T363 462l-22-37q39-23 62.5-62.5T427 277q0-70-50-120t-121-50q-71 0-121 50T85 277q0 47 23 86t62 62l-21 37q-49-28-77.5-77.5T43 277q0-89 62.5-151zM384 277q0 35-17.5 64.5T320 388l-21-37q42-25 42-74 0-35-25-60t-60-25q-35 0-60 25t-25 60q0 49 42 74l-21 37q-29-17-46.5-46.5T128 277q0-53 37.5-90.5T256 149q53 0 90.5 37.5T384 277zm-158-29.5q13-12.5 30-12.5t30 12.5q13 12.5 13 29.5t-13 30q-13 13-30 13t-30-13q-13-13-13-30t13-29.5z"/></svg>